{
 "asset": {
  "generator": "zero point flora",
  "version": "2.0"
 },
 "scene": 0,
 "scenes": [
  {
   "name": "Scene",
   "nodes": [
    0,
    1
   ]
  }
 ],
 "nodes": [
  {
   "mesh": 0,
   "name": "trunk"
  },
  {
   "mesh": 1,
   "name": "foliage"
  }
 ],
 "materials": [
  {
   "name": "bark",
   "doubleSided": false,
   "pbrMetallicRoughness": {
    "baseColorTexture": {
     "index": 0
    },
    "metallicRoughnessTexture": {
     "index": 2
    },
    "metallicFactor": 0.0,
    "roughnessFactor": 1.0
   },
   "normalTexture": {
    "index": 1
   },
   "occlusionTexture": {
    "index": 2
   }
  },
  {
   "name": "leaf",
   "doubleSided": true,
   "pbrMetallicRoughness": {
    "baseColorTexture": {
     "index": 3
    },
    "metallicRoughnessTexture": {
     "index": 5
    },
    "metallicFactor": 0.0,
    "roughnessFactor": 1.0
   },
   "normalTexture": {
    "index": 4
   },
   "occlusionTexture": {
    "index": 5
   },
   "alphaMode": "MASK",
   "alphaCutoff": 0.5
  }
 ],
 "meshes": [
  {
   "name": "flora_birch_1_far_bark",
   "primitives": [
    {
     "attributes": {
      "POSITION": 0,
      "NORMAL": 1,
      "TEXCOORD_0": 2
     },
     "indices": 3,
     "material": 0
    }
   ]
  },
  {
   "name": "flora_birch_1_far_foliage",
   "primitives": [
    {
     "attributes": {
      "POSITION": 4,
      "NORMAL": 5,
      "TEXCOORD_0": 6
     },
     "indices": 7,
     "material": 1
    }
   ]
  }
 ],
 "textures": [
  {
   "sampler": 0,
   "source": 0
  },
  {
   "sampler": 0,
   "source": 1
  },
  {
   "sampler": 0,
   "source": 2
  },
  {
   "sampler": 0,
   "source": 3
  },
  {
   "sampler": 0,
   "source": 4
  },
  {
   "sampler": 0,
   "source": 5
  }
 ],
 "images": [
  {
   "mimeType": "image/png",
   "name": "flora_birch_bark_diff_2k.png",
   "uri": "../flora_birch_0/flora_birch_bark_diff_2k.png"
  },
  {
   "mimeType": "image/png",
   "name": "flora_birch_bark_nor_gl_2k.png",
   "uri": "../flora_birch_0/flora_birch_bark_nor_gl_2k.png"
  },
  {
   "mimeType": "image/png",
   "name": "flora_birch_bark_arm_2k.png",
   "uri": "../flora_birch_0/flora_birch_bark_arm_2k.png"
  },
  {
   "mimeType": "image/png",
   "name": "flora_birch_leaf_diff_2k.png",
   "uri": "../flora_birch_0/flora_birch_leaf_diff_2k.png"
  },
  {
   "mimeType": "image/png",
   "name": "flora_birch_leaf_nor_gl_2k.png",
   "uri": "../flora_birch_0/flora_birch_leaf_nor_gl_2k.png"
  },
  {
   "mimeType": "image/png",
   "name": "flora_birch_leaf_arm_2k.png",
   "uri": "../flora_birch_0/flora_birch_leaf_arm_2k.png"
  }
 ],
 "accessors": [
  {
   "bufferView": 0,
   "componentType": 5126,
   "count": 2694,
   "max": [
    1.966034173965454,
    10.120226860046387,
    2.5231881141662598
   ],
   "min": [
    -3.901707649230957,
    -0.509081244468689,
    -3.7603647708892822
   ],
   "type": "VEC3"
  },
  {
   "bufferView": 1,
   "componentType": 5126,
   "count": 2694,
   "type": "VEC3"
  },
  {
   "bufferView": 2,
   "componentType": 5126,
   "count": 2694,
   "type": "VEC2"
  },
  {
   "bufferView": 3,
   "componentType": 5123,
   "count": 6834,
   "type": "SCALAR"
  },
  {
   "bufferView": 4,
   "componentType": 5126,
   "count": 1944,
   "max": [
    3.0390307903289795,
    10.865877151489258,
    3.1592049598693848
   ],
   "min": [
    -4.107885360717773,
    3.578254461288452,
    -4.424203395843506
   ],
   "type": "VEC3"
  },
  {
   "bufferView": 5,
   "componentType": 5126,
   "count": 1944,
   "type": "VEC3"
  },
  {
   "bufferView": 6,
   "componentType": 5126,
   "count": 1944,
   "type": "VEC2"
  },
  {
   "bufferView": 7,
   "componentType": 5123,
   "count": 2916,
   "type": "SCALAR"
  }
 ],
 "bufferViews": [
  {
   "buffer": 0,
   "byteLength": 32328,
   "byteOffset": 0,
   "target": 34962
  },
  {
   "buffer": 0,
   "byteLength": 32328,
   "byteOffset": 32328,
   "target": 34962
  },
  {
   "buffer": 0,
   "byteLength": 21552,
   "byteOffset": 64656,
   "target": 34962
  },
  {
   "buffer": 0,
   "byteLength": 13668,
   "byteOffset": 86208,
   "target": 34963
  },
  {
   "buffer": 0,
   "byteLength": 23328,
   "byteOffset": 99876,
   "target": 34962
  },
  {
   "buffer": 0,
   "byteLength": 23328,
   "byteOffset": 123204,
   "target": 34962
  },
  {
   "buffer": 0,
   "byteLength": 15552,
   "byteOffset": 146532,
   "target": 34962
  },
  {
   "buffer": 0,
   "byteLength": 5832,
   "byteOffset": 162084,
   "target": 34963
  }
 ],
 "samplers": [
  {
   "magFilter": 9729,
   "minFilter": 9987,
   "wrapS": 10497,
   "wrapT": 10497
  }
 ],
 "buffers": [
  {
   "byteLength": 167916,
   "uri": "flora_birch_1_far.bin"
  }
 ]
}