{
 "asset": {
  "generator": "Khronos glTF Blender I/O v4.5.51",
  "version": "2.0"
 },
 "scene": 0,
 "scenes": [
  {
   "name": "Scene",
   "nodes": [
    0,
    1
   ]
  }
 ],
 "nodes": [
  {
   "mesh": 0,
   "name": "prop_garden_wall"
  },
  {
   "mesh": 1,
   "name": "col_rock_1"
  }
 ],
 "materials": [
  {
   "doubleSided": true,
   "name": "concrete",
   "normalTexture": {
    "index": 0
   },
   "occlusionTexture": {
    "index": 1
   },
   "pbrMetallicRoughness": {
    "baseColorTexture": {
     "index": 2
    },
    "metallicRoughnessTexture": {
     "index": 1
    }
   }
  },
  {
   "doubleSided": true,
   "name": "granite_ashlar",
   "normalTexture": {
    "index": 3
   },
   "occlusionTexture": {
    "index": 4
   },
   "pbrMetallicRoughness": {
    "baseColorTexture": {
     "index": 5
    },
    "metallicRoughnessTexture": {
     "index": 4
    }
   }
  }
 ],
 "meshes": [
  {
   "name": "prop_garden_wall",
   "primitives": [
    {
     "attributes": {
      "POSITION": 0,
      "NORMAL": 1,
      "TEXCOORD_0": 2
     },
     "indices": 3,
     "material": 0
    },
    {
     "attributes": {
      "POSITION": 4,
      "NORMAL": 5,
      "TEXCOORD_0": 6
     },
     "indices": 7,
     "material": 1
    }
   ]
  },
  {
   "name": "col_rock_1",
   "primitives": [
    {
     "attributes": {
      "POSITION": 8,
      "NORMAL": 9,
      "TEXCOORD_0": 10
     },
     "indices": 11,
     "material": 0
    }
   ]
  }
 ],
 "textures": [
  {
   "sampler": 0,
   "source": 0
  },
  {
   "sampler": 0,
   "source": 1
  },
  {
   "sampler": 0,
   "source": 2
  },
  {
   "sampler": 0,
   "source": 3
  },
  {
   "sampler": 0,
   "source": 4
  },
  {
   "sampler": 0,
   "source": 5
  }
 ],
 "images": [
  {
   "mimeType": "image/png",
   "name": "concrete_normal.png",
   "uri": "../_library/concrete_normal.png"
  },
  {
   "mimeType": "image/png",
   "name": "concrete_orm.png",
   "uri": "../_library/concrete_orm.png"
  },
  {
   "mimeType": "image/png",
   "name": "concrete_albedo.png",
   "uri": "../_library/concrete_albedo.png"
  },
  {
   "mimeType": "image/png",
   "name": "granite_ashlar_normal.png",
   "uri": "../_library/granite_ashlar_normal.png"
  },
  {
   "mimeType": "image/png",
   "name": "granite_ashlar_orm.png",
   "uri": "../_library/granite_ashlar_orm.png"
  },
  {
   "mimeType": "image/png",
   "name": "granite_ashlar_albedo.png",
   "uri": "../_library/granite_ashlar_albedo.png"
  }
 ],
 "accessors": [
  {
   "bufferView": 0,
   "componentType": 5126,
   "count": 24,
   "max": [
    2,
    0.9700000286102295,
    0.20000000298023224
   ],
   "min": [
    -2,
    -0.0599999725818634,
    -0.20000000298023224
   ],
   "type": "VEC3"
  },
  {
   "bufferView": 1,
   "componentType": 5126,
   "count": 24,
   "type": "VEC3"
  },
  {
   "bufferView": 2,
   "componentType": 5126,
   "count": 24,
   "type": "VEC2"
  },
  {
   "bufferView": 3,
   "componentType": 5123,
   "count": 36,
   "type": "SCALAR"
  },
  {
   "bufferView": 4,
   "componentType": 5126,
   "count": 15311,
   "max": [
    2.0213615894317627,
    1.0999999046325684,
    0.27315717935562134
   ],
   "min": [
    -2.0131092071533203,
    -0.05579466372728348,
    -0.2816614806652069
   ],
   "type": "VEC3"
  },
  {
   "bufferView": 5,
   "componentType": 5126,
   "count": 15311,
   "type": "VEC3"
  },
  {
   "bufferView": 6,
   "componentType": 5126,
   "count": 15311,
   "type": "VEC2"
  },
  {
   "bufferView": 7,
   "componentType": 5123,
   "count": 25422,
   "type": "SCALAR"
  },
  {
   "bufferView": 8,
   "componentType": 5126,
   "count": 24,
   "max": [
    2,
    1.100000023841858,
    0.23999999463558197
   ],
   "min": [
    -2,
    0,
    -0.23999999463558197
   ],
   "type": "VEC3"
  },
  {
   "bufferView": 9,
   "componentType": 5126,
   "count": 24,
   "type": "VEC3"
  },
  {
   "bufferView": 10,
   "componentType": 5126,
   "count": 24,
   "type": "VEC2"
  },
  {
   "bufferView": 11,
   "componentType": 5123,
   "count": 36,
   "type": "SCALAR"
  }
 ],
 "bufferViews": [
  {
   "buffer": 0,
   "byteLength": 288,
   "byteOffset": 0,
   "target": 34962
  },
  {
   "buffer": 0,
   "byteLength": 288,
   "byteOffset": 288,
   "target": 34962
  },
  {
   "buffer": 0,
   "byteLength": 192,
   "byteOffset": 576,
   "target": 34962
  },
  {
   "buffer": 0,
   "byteLength": 72,
   "byteOffset": 768,
   "target": 34963
  },
  {
   "buffer": 0,
   "byteLength": 183732,
   "byteOffset": 840,
   "target": 34962
  },
  {
   "buffer": 0,
   "byteLength": 183732,
   "byteOffset": 184572,
   "target": 34962
  },
  {
   "buffer": 0,
   "byteLength": 122488,
   "byteOffset": 368304,
   "target": 34962
  },
  {
   "buffer": 0,
   "byteLength": 50844,
   "byteOffset": 490792,
   "target": 34963
  },
  {
   "buffer": 0,
   "byteLength": 288,
   "byteOffset": 541636,
   "target": 34962
  },
  {
   "buffer": 0,
   "byteLength": 288,
   "byteOffset": 541924,
   "target": 34962
  },
  {
   "buffer": 0,
   "byteLength": 192,
   "byteOffset": 542212,
   "target": 34962
  },
  {
   "buffer": 0,
   "byteLength": 72,
   "byteOffset": 542404,
   "target": 34963
  }
 ],
 "samplers": [
  {
   "magFilter": 9729,
   "minFilter": 9987
  }
 ],
 "buffers": [
  {
   "byteLength": 542476,
   "uri": "prop_garden_wall.bin"
  }
 ]
}