{
 "asset": {
  "generator": "Khronos glTF Blender I/O v4.5.51",
  "version": "2.0"
 },
 "scene": 0,
 "scenes": [
  {
   "name": "Scene",
   "nodes": [
    0,
    1
   ]
  }
 ],
 "nodes": [
  {
   "mesh": 0,
   "name": "rig_cellar_far_shell"
  },
  {
   "mesh": 1,
   "name": "rig_cellar_far_grating"
  }
 ],
 "materials": [
  {
   "name": "rig_deck_green",
   "normalTexture": {
    "index": 0
   },
   "occlusionTexture": {
    "index": 1
   },
   "pbrMetallicRoughness": {
    "baseColorTexture": {
     "index": 2
    },
    "metallicRoughnessTexture": {
     "index": 1
    }
   }
  },
  {
   "name": "rig_paint_white",
   "normalTexture": {
    "index": 3
   },
   "occlusionTexture": {
    "index": 4
   },
   "pbrMetallicRoughness": {
    "baseColorTexture": {
     "index": 5
    },
    "metallicRoughnessTexture": {
     "index": 4
    }
   }
  },
  {
   "name": "rig_paint_yellow",
   "normalTexture": {
    "index": 6
   },
   "occlusionTexture": {
    "index": 7
   },
   "pbrMetallicRoughness": {
    "baseColorTexture": {
     "index": 8
    },
    "metallicRoughnessTexture": {
     "index": 7
    }
   }
  },
  {
   "name": "rig_paint_grey",
   "normalTexture": {
    "index": 9
   },
   "occlusionTexture": {
    "index": 10
   },
   "pbrMetallicRoughness": {
    "baseColorTexture": {
     "index": 11
    },
    "metallicRoughnessTexture": {
     "index": 10
    }
   }
  },
  {
   "name": "rig_paint_orange",
   "normalTexture": {
    "index": 12
   },
   "occlusionTexture": {
    "index": 13
   },
   "pbrMetallicRoughness": {
    "baseColorTexture": {
     "index": 14
    },
    "metallicRoughnessTexture": {
     "index": 13
    }
   }
  },
  {
   "name": "soot",
   "normalTexture": {
    "index": 15
   },
   "occlusionTexture": {
    "index": 16
   },
   "pbrMetallicRoughness": {
    "baseColorTexture": {
     "index": 17
    },
    "metallicRoughnessTexture": {
     "index": 16
    }
   }
  },
  {
   "doubleSided": true,
   "name": "rig_grating",
   "normalTexture": {
    "index": 18
   },
   "occlusionTexture": {
    "index": 19
   },
   "pbrMetallicRoughness": {
    "baseColorTexture": {
     "index": 20
    },
    "metallicRoughnessTexture": {
     "index": 19
    }
   },
   "alphaMode": "MASK",
   "alphaCutoff": 0.5
  }
 ],
 "meshes": [
  {
   "name": "rig_cellar_far_shell",
   "primitives": [
    {
     "attributes": {
      "POSITION": 0,
      "NORMAL": 1,
      "TEXCOORD_0": 2
     },
     "indices": 3,
     "material": 0
    },
    {
     "attributes": {
      "POSITION": 4,
      "NORMAL": 5,
      "TEXCOORD_0": 6
     },
     "indices": 7,
     "material": 1
    },
    {
     "attributes": {
      "POSITION": 8,
      "NORMAL": 9,
      "TEXCOORD_0": 10
     },
     "indices": 11,
     "material": 2
    },
    {
     "attributes": {
      "POSITION": 12,
      "NORMAL": 13,
      "TEXCOORD_0": 14
     },
     "indices": 15,
     "material": 3
    },
    {
     "attributes": {
      "POSITION": 16,
      "NORMAL": 17,
      "TEXCOORD_0": 18
     },
     "indices": 19,
     "material": 4
    },
    {
     "attributes": {
      "POSITION": 20,
      "NORMAL": 21,
      "TEXCOORD_0": 22
     },
     "indices": 23,
     "material": 5
    }
   ]
  },
  {
   "name": "rig_cellar_far_grating",
   "primitives": [
    {
     "attributes": {
      "POSITION": 24,
      "NORMAL": 25,
      "TEXCOORD_0": 26
     },
     "indices": 27,
     "material": 6
    }
   ]
  }
 ],
 "textures": [
  {
   "sampler": 0,
   "source": 0
  },
  {
   "sampler": 0,
   "source": 1
  },
  {
   "sampler": 0,
   "source": 2
  },
  {
   "sampler": 0,
   "source": 3
  },
  {
   "sampler": 0,
   "source": 4
  },
  {
   "sampler": 0,
   "source": 5
  },
  {
   "sampler": 0,
   "source": 6
  },
  {
   "sampler": 0,
   "source": 7
  },
  {
   "sampler": 0,
   "source": 8
  },
  {
   "sampler": 0,
   "source": 9
  },
  {
   "sampler": 0,
   "source": 10
  },
  {
   "sampler": 0,
   "source": 11
  },
  {
   "sampler": 0,
   "source": 12
  },
  {
   "sampler": 0,
   "source": 13
  },
  {
   "sampler": 0,
   "source": 14
  },
  {
   "sampler": 0,
   "source": 15
  },
  {
   "sampler": 0,
   "source": 16
  },
  {
   "sampler": 0,
   "source": 17
  },
  {
   "sampler": 0,
   "source": 18
  },
  {
   "sampler": 0,
   "source": 19
  },
  {
   "sampler": 0,
   "source": 20
  }
 ],
 "images": [
  {
   "mimeType": "image/png",
   "name": "rig_deck_green_normal.png",
   "uri": "../_library/rig_deck_green_normal.png"
  },
  {
   "mimeType": "image/png",
   "name": "rig_deck_green_orm.png",
   "uri": "../_library/rig_deck_green_orm.png"
  },
  {
   "mimeType": "image/png",
   "name": "rig_deck_green_albedo.png",
   "uri": "../_library/rig_deck_green_albedo.png"
  },
  {
   "mimeType": "image/png",
   "name": "rig_paint_white_normal.png",
   "uri": "../_library/rig_paint_white_normal.png"
  },
  {
   "mimeType": "image/png",
   "name": "rig_paint_white_orm.png",
   "uri": "../_library/rig_paint_white_orm.png"
  },
  {
   "mimeType": "image/png",
   "name": "rig_paint_white_albedo.png",
   "uri": "../_library/rig_paint_white_albedo.png"
  },
  {
   "mimeType": "image/png",
   "name": "rig_paint_yellow_normal.png",
   "uri": "../_library/rig_paint_yellow_normal.png"
  },
  {
   "mimeType": "image/png",
   "name": "rig_paint_yellow_orm.png",
   "uri": "../_library/rig_paint_yellow_orm.png"
  },
  {
   "mimeType": "image/png",
   "name": "rig_paint_yellow_albedo.png",
   "uri": "../_library/rig_paint_yellow_albedo.png"
  },
  {
   "mimeType": "image/png",
   "name": "rig_paint_grey_normal.png",
   "uri": "../_library/rig_paint_grey_normal.png"
  },
  {
   "mimeType": "image/png",
   "name": "rig_paint_grey_orm.png",
   "uri": "../_library/rig_paint_grey_orm.png"
  },
  {
   "mimeType": "image/png",
   "name": "rig_paint_grey_albedo.png",
   "uri": "../_library/rig_paint_grey_albedo.png"
  },
  {
   "mimeType": "image/png",
   "name": "rig_paint_orange_normal.png",
   "uri": "../_library/rig_paint_orange_normal.png"
  },
  {
   "mimeType": "image/png",
   "name": "rig_paint_orange_orm.png",
   "uri": "../_library/rig_paint_orange_orm.png"
  },
  {
   "mimeType": "image/png",
   "name": "rig_paint_orange_albedo.png",
   "uri": "../_library/rig_paint_orange_albedo.png"
  },
  {
   "mimeType": "image/png",
   "name": "soot_normal.png",
   "uri": "../_library/soot_normal.png"
  },
  {
   "mimeType": "image/png",
   "name": "soot_orm.png",
   "uri": "../_library/soot_orm.png"
  },
  {
   "mimeType": "image/png",
   "name": "soot_albedo.png",
   "uri": "../_library/soot_albedo.png"
  },
  {
   "mimeType": "image/png",
   "name": "rig_grating_normal.png",
   "uri": "../_library/rig_grating_normal.png"
  },
  {
   "mimeType": "image/png",
   "name": "rig_grating_orm.png",
   "uri": "../_library/rig_grating_orm.png"
  },
  {
   "mimeType": "image/png",
   "name": "rig_grating_albedo.png",
   "uri": "../_library/rig_grating_albedo.png"
  }
 ],
 "accessors": [
  {
   "bufferView": 0,
   "componentType": 5126,
   "count": 72,
   "max": [
    24.600000381469727,
    16,
    6.599999904632568
   ],
   "min": [
    -24.600000381469727,
    15.970001220703125,
    -19.600000381469727
   ],
   "type": "VEC3"
  },
  {
   "bufferView": 1,
   "componentType": 5126,
   "count": 72,
   "type": "VEC3"
  },
  {
   "bufferView": 2,
   "componentType": 5126,
   "count": 72,
   "type": "VEC2"
  },
  {
   "bufferView": 3,
   "componentType": 5123,
   "count": 108,
   "type": "SCALAR"
  },
  {
   "bufferView": 4,
   "componentType": 5126,
   "count": 1834,
   "max": [
    25.18000030517578,
    22.078113555908203,
    20.18000030517578
   ],
   "min": [
    -25.18000030517578,
    15,
    -20.18000030517578
   ],
   "type": "VEC3"
  },
  {
   "bufferView": 5,
   "componentType": 5126,
   "count": 1834,
   "type": "VEC3"
  },
  {
   "bufferView": 6,
   "componentType": 5126,
   "count": 1834,
   "type": "VEC2"
  },
  {
   "bufferView": 7,
   "componentType": 5123,
   "count": 3330,
   "type": "SCALAR"
  },
  {
   "bufferView": 8,
   "componentType": 5126,
   "count": 1280,
   "max": [
    24.93000030517578,
    25,
    19.93000030517578
   ],
   "min": [
    -24.93000030517578,
    15.767681121826172,
    -19.93000030517578
   ],
   "type": "VEC3"
  },
  {
   "bufferView": 9,
   "componentType": 5126,
   "count": 1280,
   "type": "VEC3"
  },
  {
   "bufferView": 10,
   "componentType": 5126,
   "count": 1280,
   "type": "VEC2"
  },
  {
   "bufferView": 11,
   "componentType": 5123,
   "count": 1920,
   "type": "SCALAR"
  },
  {
   "bufferView": 12,
   "componentType": 5126,
   "count": 1256,
   "max": [
    24,
    21.439998626708984,
    19.690000534057617
   ],
   "min": [
    -24,
    15.800000190734863,
    -17.274999618530273
   ],
   "type": "VEC3"
  },
  {
   "bufferView": 13,
   "componentType": 5126,
   "count": 1256,
   "type": "VEC3"
  },
  {
   "bufferView": 14,
   "componentType": 5126,
   "count": 1256,
   "type": "VEC2"
  },
  {
   "bufferView": 15,
   "componentType": 5123,
   "count": 2040,
   "type": "SCALAR"
  },
  {
   "bufferView": 16,
   "componentType": 5126,
   "count": 532,
   "max": [
    9.399999618530273,
    18.959999084472656,
    5
   ],
   "min": [
    -13.460000038146973,
    16.361970901489258,
    -18.649999618530273
   ],
   "type": "VEC3"
  },
  {
   "bufferView": 17,
   "componentType": 5126,
   "count": 532,
   "type": "VEC3"
  },
  {
   "bufferView": 18,
   "componentType": 5126,
   "count": 532,
   "type": "VEC2"
  },
  {
   "bufferView": 19,
   "componentType": 5123,
   "count": 888,
   "type": "SCALAR"
  },
  {
   "bufferView": 20,
   "componentType": 5126,
   "count": 4,
   "max": [
    20.200000762939453,
    18.149999618530273,
    -9.010000228881836
   ],
   "min": [
    19,
    16,
    -9.010000228881836
   ],
   "type": "VEC3"
  },
  {
   "bufferView": 21,
   "componentType": 5126,
   "count": 4,
   "type": "VEC3"
  },
  {
   "bufferView": 22,
   "componentType": 5126,
   "count": 4,
   "type": "VEC2"
  },
  {
   "bufferView": 23,
   "componentType": 5123,
   "count": 6,
   "type": "SCALAR"
  },
  {
   "bufferView": 24,
   "componentType": 5126,
   "count": 40,
   "max": [
    25,
    24,
    20
   ],
   "min": [
    -25,
    14.949999809265137,
    -20
   ],
   "type": "VEC3"
  },
  {
   "bufferView": 25,
   "componentType": 5126,
   "count": 40,
   "type": "VEC3"
  },
  {
   "bufferView": 26,
   "componentType": 5126,
   "count": 40,
   "type": "VEC2"
  },
  {
   "bufferView": 27,
   "componentType": 5123,
   "count": 120,
   "type": "SCALAR"
  }
 ],
 "bufferViews": [
  {
   "buffer": 0,
   "byteLength": 864,
   "byteOffset": 0,
   "target": 34962
  },
  {
   "buffer": 0,
   "byteLength": 864,
   "byteOffset": 864,
   "target": 34962
  },
  {
   "buffer": 0,
   "byteLength": 576,
   "byteOffset": 1728,
   "target": 34962
  },
  {
   "buffer": 0,
   "byteLength": 216,
   "byteOffset": 2304,
   "target": 34963
  },
  {
   "buffer": 0,
   "byteLength": 22008,
   "byteOffset": 2520,
   "target": 34962
  },
  {
   "buffer": 0,
   "byteLength": 22008,
   "byteOffset": 24528,
   "target": 34962
  },
  {
   "buffer": 0,
   "byteLength": 14672,
   "byteOffset": 46536,
   "target": 34962
  },
  {
   "buffer": 0,
   "byteLength": 6660,
   "byteOffset": 61208,
   "target": 34963
  },
  {
   "buffer": 0,
   "byteLength": 15360,
   "byteOffset": 67868,
   "target": 34962
  },
  {
   "buffer": 0,
   "byteLength": 15360,
   "byteOffset": 83228,
   "target": 34962
  },
  {
   "buffer": 0,
   "byteLength": 10240,
   "byteOffset": 98588,
   "target": 34962
  },
  {
   "buffer": 0,
   "byteLength": 3840,
   "byteOffset": 108828,
   "target": 34963
  },
  {
   "buffer": 0,
   "byteLength": 15072,
   "byteOffset": 112668,
   "target": 34962
  },
  {
   "buffer": 0,
   "byteLength": 15072,
   "byteOffset": 127740,
   "target": 34962
  },
  {
   "buffer": 0,
   "byteLength": 10048,
   "byteOffset": 142812,
   "target": 34962
  },
  {
   "buffer": 0,
   "byteLength": 4080,
   "byteOffset": 152860,
   "target": 34963
  },
  {
   "buffer": 0,
   "byteLength": 6384,
   "byteOffset": 156940,
   "target": 34962
  },
  {
   "buffer": 0,
   "byteLength": 6384,
   "byteOffset": 163324,
   "target": 34962
  },
  {
   "buffer": 0,
   "byteLength": 4256,
   "byteOffset": 169708,
   "target": 34962
  },
  {
   "buffer": 0,
   "byteLength": 1776,
   "byteOffset": 173964,
   "target": 34963
  },
  {
   "buffer": 0,
   "byteLength": 48,
   "byteOffset": 175740,
   "target": 34962
  },
  {
   "buffer": 0,
   "byteLength": 48,
   "byteOffset": 175788,
   "target": 34962
  },
  {
   "buffer": 0,
   "byteLength": 32,
   "byteOffset": 175836,
   "target": 34962
  },
  {
   "buffer": 0,
   "byteLength": 12,
   "byteOffset": 175868,
   "target": 34963
  },
  {
   "buffer": 0,
   "byteLength": 480,
   "byteOffset": 175880,
   "target": 34962
  },
  {
   "buffer": 0,
   "byteLength": 480,
   "byteOffset": 176360,
   "target": 34962
  },
  {
   "buffer": 0,
   "byteLength": 320,
   "byteOffset": 176840,
   "target": 34962
  },
  {
   "buffer": 0,
   "byteLength": 240,
   "byteOffset": 177160,
   "target": 34963
  }
 ],
 "samplers": [
  {
   "magFilter": 9729,
   "minFilter": 9987
  }
 ],
 "buffers": [
  {
   "byteLength": 177400,
   "uri": "bld_rig_cellar_far.bin"
  }
 ]
}