{
 "asset": {
  "generator": "Khronos glTF Blender I/O v4.5.51",
  "version": "2.0"
 },
 "scene": 0,
 "scenes": [
  {
   "name": "Scene",
   "nodes": [
    0,
    1,
    2,
    3,
    4,
    5,
    6,
    7,
    8,
    9,
    10,
    11,
    12,
    13,
    14,
    15,
    16,
    17,
    18,
    19,
    20,
    21,
    22,
    23,
    24,
    25,
    26,
    27,
    28,
    29,
    30,
    31,
    32
   ]
  }
 ],
 "nodes": [
  {
   "mesh": 0,
   "name": "frame"
  },
  {
   "mesh": 1,
   "name": "detail"
  },
  {
   "mesh": 2,
   "name": "body"
  },
  {
   "mesh": 3,
   "name": "load"
  },
  {
   "mesh": 4,
   "name": "col_metal_end_1"
  },
  {
   "mesh": 5,
   "name": "col_metal_neck_1"
  },
  {
   "mesh": 6,
   "name": "col_metal_step_1"
  },
  {
   "mesh": 7,
   "name": "col_metal_step_2"
  },
  {
   "mesh": 8,
   "name": "col_metal_step_3"
  },
  {
   "mesh": 9,
   "name": "col_metal_step_4"
  },
  {
   "mesh": 10,
   "name": "col_metal_step_5"
  },
  {
   "mesh": 11,
   "name": "col_metal_step_6"
  },
  {
   "mesh": 12,
   "name": "col_metal_end_2"
  },
  {
   "mesh": 13,
   "name": "col_metal_neck_2"
  },
  {
   "mesh": 14,
   "name": "col_metal_step_7"
  },
  {
   "mesh": 15,
   "name": "col_metal_step_8"
  },
  {
   "mesh": 16,
   "name": "col_metal_step_9"
  },
  {
   "mesh": 17,
   "name": "col_metal_step_10"
  },
  {
   "mesh": 18,
   "name": "col_metal_step_11"
  },
  {
   "mesh": 19,
   "name": "col_metal_step_12"
  },
  {
   "mesh": 20,
   "name": "col_metal_end_wall_1"
  },
  {
   "mesh": 21,
   "name": "col_metal_end_wall_2"
  },
  {
   "mesh": 22,
   "name": "col_metal_end_wall_3"
  },
  {
   "mesh": 23,
   "name": "col_metal_end_wall_4"
  },
  {
   "mesh": 24,
   "name": "loot_box_1"
  },
  {
   "mesh": 25,
   "name": "loot_toolbox_1"
  },
  {
   "mesh": 26,
   "name": "col_metal_deck_1"
  },
  {
   "mesh": 27,
   "name": "col_metal_side_wall_1"
  },
  {
   "mesh": 28,
   "name": "col_metal_side_wall_2"
  },
  {
   "mesh": 29,
   "name": "col_metal_side_wall_3"
  },
  {
   "mesh": 30,
   "name": "col_wood_crates_1"
  },
  {
   "mesh": 31,
   "name": "col_metal_drum_1"
  },
  {
   "mesh": 32,
   "name": "col_concrete_coal_1"
  }
 ],
 "materials": [
  {
   "name": "loco_black",
   "normalTexture": {
    "index": 0
   },
   "occlusionTexture": {
    "index": 1
   },
   "pbrMetallicRoughness": {
    "baseColorTexture": {
     "index": 2
    },
    "metallicRoughnessTexture": {
     "index": 1
    }
   }
  },
  {
   "name": "rust_iron",
   "normalTexture": {
    "index": 3
   },
   "occlusionTexture": {
    "index": 4
   },
   "pbrMetallicRoughness": {
    "baseColorTexture": {
     "index": 5
    },
    "metallicRoughnessTexture": {
     "index": 4
    }
   }
  },
  {
   "name": "chequer_plate",
   "normalTexture": {
    "index": 6
   },
   "occlusionTexture": {
    "index": 7
   },
   "pbrMetallicRoughness": {
    "baseColorTexture": {
     "index": 8
    },
    "metallicRoughnessTexture": {
     "index": 7
    }
   }
  },
  {
   "name": "rail_signs",
   "normalTexture": {
    "index": 9
   },
   "occlusionTexture": {
    "index": 10
   },
   "pbrMetallicRoughness": {
    "baseColorTexture": {
     "index": 11
    },
    "metallicRoughnessTexture": {
     "index": 10
    }
   }
  },
  {
   "name": "wagon_grey",
   "normalTexture": {
    "index": 12
   },
   "occlusionTexture": {
    "index": 13
   },
   "pbrMetallicRoughness": {
    "baseColorTexture": {
     "index": 14
    },
    "metallicRoughnessTexture": {
     "index": 13
    }
   }
  },
  {
   "name": "timber_planks_weathered",
   "normalTexture": {
    "index": 15
   },
   "occlusionTexture": {
    "index": 16
   },
   "pbrMetallicRoughness": {
    "baseColorTexture": {
     "index": 17
    },
    "metallicRoughnessTexture": {
     "index": 16
    }
   }
  },
  {
   "name": "soot",
   "normalTexture": {
    "index": 18
   },
   "occlusionTexture": {
    "index": 19
   },
   "pbrMetallicRoughness": {
    "baseColorTexture": {
     "index": 20
    },
    "metallicRoughnessTexture": {
     "index": 19
    }
   }
  },
  {
   "name": "timber_beam",
   "normalTexture": {
    "index": 21
   },
   "occlusionTexture": {
    "index": 22
   },
   "pbrMetallicRoughness": {
    "baseColorTexture": {
     "index": 23
    },
    "metallicRoughnessTexture": {
     "index": 22
    }
   }
  }
 ],
 "meshes": [
  {
   "name": "frame",
   "primitives": [
    {
     "attributes": {
      "POSITION": 0,
      "NORMAL": 1,
      "TEXCOORD_0": 2
     },
     "indices": 3,
     "material": 0
    },
    {
     "attributes": {
      "POSITION": 4,
      "NORMAL": 5,
      "TEXCOORD_0": 6
     },
     "indices": 7,
     "material": 1
    },
    {
     "attributes": {
      "POSITION": 8,
      "NORMAL": 9,
      "TEXCOORD_0": 10
     },
     "indices": 11,
     "material": 2
    }
   ]
  },
  {
   "name": "detail",
   "primitives": [
    {
     "attributes": {
      "POSITION": 12,
      "NORMAL": 13,
      "TEXCOORD_0": 14
     },
     "indices": 15,
     "material": 0
    },
    {
     "attributes": {
      "POSITION": 16,
      "NORMAL": 17,
      "TEXCOORD_0": 18
     },
     "indices": 19,
     "material": 1
    },
    {
     "attributes": {
      "POSITION": 20,
      "NORMAL": 21,
      "TEXCOORD_0": 22
     },
     "indices": 23,
     "material": 3
    },
    {
     "attributes": {
      "POSITION": 24,
      "NORMAL": 25,
      "TEXCOORD_0": 26
     },
     "indices": 27,
     "material": 4
    }
   ]
  },
  {
   "name": "body",
   "primitives": [
    {
     "attributes": {
      "POSITION": 28,
      "NORMAL": 29,
      "TEXCOORD_0": 30
     },
     "indices": 31,
     "material": 5
    },
    {
     "attributes": {
      "POSITION": 32,
      "NORMAL": 33,
      "TEXCOORD_0": 34
     },
     "indices": 35,
     "material": 1
    },
    {
     "attributes": {
      "POSITION": 36,
      "NORMAL": 37,
      "TEXCOORD_0": 38
     },
     "indices": 39,
     "material": 4
    },
    {
     "attributes": {
      "POSITION": 40,
      "NORMAL": 41,
      "TEXCOORD_0": 42
     },
     "indices": 43,
     "material": 0
    }
   ]
  },
  {
   "name": "load",
   "primitives": [
    {
     "attributes": {
      "POSITION": 44,
      "NORMAL": 45,
      "TEXCOORD_0": 46
     },
     "indices": 47,
     "material": 6
    },
    {
     "attributes": {
      "POSITION": 48,
      "NORMAL": 49,
      "TEXCOORD_0": 50
     },
     "indices": 51,
     "material": 5
    },
    {
     "attributes": {
      "POSITION": 52,
      "NORMAL": 53,
      "TEXCOORD_0": 54
     },
     "indices": 55,
     "material": 7
    },
    {
     "attributes": {
      "POSITION": 56,
      "NORMAL": 57,
      "TEXCOORD_0": 58
     },
     "indices": 59,
     "material": 1
    }
   ]
  },
  {
   "name": "col_metal_end_1",
   "primitives": [
    {
     "attributes": {
      "POSITION": 60,
      "NORMAL": 61,
      "TEXCOORD_0": 62
     },
     "indices": 63,
     "material": 0
    }
   ]
  },
  {
   "name": "col_metal_neck_1",
   "primitives": [
    {
     "attributes": {
      "POSITION": 64,
      "NORMAL": 65,
      "TEXCOORD_0": 66
     },
     "indices": 63,
     "material": 0
    }
   ]
  },
  {
   "name": "col_metal_step_1",
   "primitives": [
    {
     "attributes": {
      "POSITION": 67,
      "NORMAL": 68,
      "TEXCOORD_0": 69
     },
     "indices": 63,
     "material": 0
    }
   ]
  },
  {
   "name": "col_metal_step_2",
   "primitives": [
    {
     "attributes": {
      "POSITION": 70,
      "NORMAL": 71,
      "TEXCOORD_0": 72
     },
     "indices": 63,
     "material": 0
    }
   ]
  },
  {
   "name": "col_metal_step_3",
   "primitives": [
    {
     "attributes": {
      "POSITION": 73,
      "NORMAL": 74,
      "TEXCOORD_0": 75
     },
     "indices": 63,
     "material": 0
    }
   ]
  },
  {
   "name": "col_metal_step_4",
   "primitives": [
    {
     "attributes": {
      "POSITION": 76,
      "NORMAL": 77,
      "TEXCOORD_0": 78
     },
     "indices": 63,
     "material": 0
    }
   ]
  },
  {
   "name": "col_metal_step_5",
   "primitives": [
    {
     "attributes": {
      "POSITION": 79,
      "NORMAL": 80,
      "TEXCOORD_0": 81
     },
     "indices": 63,
     "material": 0
    }
   ]
  },
  {
   "name": "col_metal_step_6",
   "primitives": [
    {
     "attributes": {
      "POSITION": 82,
      "NORMAL": 83,
      "TEXCOORD_0": 84
     },
     "indices": 63,
     "material": 0
    }
   ]
  },
  {
   "name": "col_metal_end_2",
   "primitives": [
    {
     "attributes": {
      "POSITION": 85,
      "NORMAL": 86,
      "TEXCOORD_0": 87
     },
     "indices": 63,
     "material": 0
    }
   ]
  },
  {
   "name": "col_metal_neck_2",
   "primitives": [
    {
     "attributes": {
      "POSITION": 88,
      "NORMAL": 89,
      "TEXCOORD_0": 90
     },
     "indices": 63,
     "material": 0
    }
   ]
  },
  {
   "name": "col_metal_step_7",
   "primitives": [
    {
     "attributes": {
      "POSITION": 91,
      "NORMAL": 92,
      "TEXCOORD_0": 93
     },
     "indices": 63,
     "material": 0
    }
   ]
  },
  {
   "name": "col_metal_step_8",
   "primitives": [
    {
     "attributes": {
      "POSITION": 94,
      "NORMAL": 95,
      "TEXCOORD_0": 96
     },
     "indices": 63,
     "material": 0
    }
   ]
  },
  {
   "name": "col_metal_step_9",
   "primitives": [
    {
     "attributes": {
      "POSITION": 97,
      "NORMAL": 98,
      "TEXCOORD_0": 99
     },
     "indices": 63,
     "material": 0
    }
   ]
  },
  {
   "name": "col_metal_step_10",
   "primitives": [
    {
     "attributes": {
      "POSITION": 100,
      "NORMAL": 101,
      "TEXCOORD_0": 102
     },
     "indices": 63,
     "material": 0
    }
   ]
  },
  {
   "name": "col_metal_step_11",
   "primitives": [
    {
     "attributes": {
      "POSITION": 103,
      "NORMAL": 104,
      "TEXCOORD_0": 105
     },
     "indices": 63,
     "material": 0
    }
   ]
  },
  {
   "name": "col_metal_step_12",
   "primitives": [
    {
     "attributes": {
      "POSITION": 106,
      "NORMAL": 107,
      "TEXCOORD_0": 108
     },
     "indices": 63,
     "material": 0
    }
   ]
  },
  {
   "name": "col_metal_end_wall_1",
   "primitives": [
    {
     "attributes": {
      "POSITION": 109,
      "NORMAL": 110,
      "TEXCOORD_0": 111
     },
     "indices": 63,
     "material": 0
    }
   ]
  },
  {
   "name": "col_metal_end_wall_2",
   "primitives": [
    {
     "attributes": {
      "POSITION": 112,
      "NORMAL": 113,
      "TEXCOORD_0": 114
     },
     "indices": 63,
     "material": 0
    }
   ]
  },
  {
   "name": "col_metal_end_wall_3",
   "primitives": [
    {
     "attributes": {
      "POSITION": 115,
      "NORMAL": 116,
      "TEXCOORD_0": 117
     },
     "indices": 63,
     "material": 0
    }
   ]
  },
  {
   "name": "col_metal_end_wall_4",
   "primitives": [
    {
     "attributes": {
      "POSITION": 118,
      "NORMAL": 119,
      "TEXCOORD_0": 120
     },
     "indices": 63,
     "material": 0
    }
   ]
  },
  {
   "name": "loot_box_1",
   "primitives": [
    {
     "attributes": {
      "POSITION": 121,
      "NORMAL": 122,
      "TEXCOORD_0": 123
     },
     "indices": 63,
     "material": 0
    }
   ]
  },
  {
   "name": "loot_toolbox_1",
   "primitives": [
    {
     "attributes": {
      "POSITION": 124,
      "NORMAL": 125,
      "TEXCOORD_0": 126
     },
     "indices": 63,
     "material": 0
    }
   ]
  },
  {
   "name": "col_metal_deck_1",
   "primitives": [
    {
     "attributes": {
      "POSITION": 127,
      "NORMAL": 128,
      "TEXCOORD_0": 129
     },
     "indices": 63,
     "material": 0
    }
   ]
  },
  {
   "name": "col_metal_side_wall_1",
   "primitives": [
    {
     "attributes": {
      "POSITION": 130,
      "NORMAL": 131,
      "TEXCOORD_0": 132
     },
     "indices": 63,
     "material": 0
    }
   ]
  },
  {
   "name": "col_metal_side_wall_2",
   "primitives": [
    {
     "attributes": {
      "POSITION": 133,
      "NORMAL": 134,
      "TEXCOORD_0": 135
     },
     "indices": 63,
     "material": 0
    }
   ]
  },
  {
   "name": "col_metal_side_wall_3",
   "primitives": [
    {
     "attributes": {
      "POSITION": 136,
      "NORMAL": 137,
      "TEXCOORD_0": 138
     },
     "indices": 63,
     "material": 0
    }
   ]
  },
  {
   "name": "col_wood_crates_1",
   "primitives": [
    {
     "attributes": {
      "POSITION": 139,
      "NORMAL": 140,
      "TEXCOORD_0": 141
     },
     "indices": 63,
     "material": 0
    }
   ]
  },
  {
   "name": "col_metal_drum_1",
   "primitives": [
    {
     "attributes": {
      "POSITION": 142,
      "NORMAL": 143,
      "TEXCOORD_0": 144
     },
     "indices": 63,
     "material": 0
    }
   ]
  },
  {
   "name": "col_concrete_coal_1",
   "primitives": [
    {
     "attributes": {
      "POSITION": 145,
      "NORMAL": 146,
      "TEXCOORD_0": 147
     },
     "indices": 63,
     "material": 0
    }
   ]
  }
 ],
 "textures": [
  {
   "sampler": 0,
   "source": 0
  },
  {
   "sampler": 0,
   "source": 1
  },
  {
   "sampler": 0,
   "source": 2
  },
  {
   "sampler": 0,
   "source": 3
  },
  {
   "sampler": 0,
   "source": 4
  },
  {
   "sampler": 0,
   "source": 5
  },
  {
   "sampler": 0,
   "source": 6
  },
  {
   "sampler": 0,
   "source": 7
  },
  {
   "sampler": 0,
   "source": 8
  },
  {
   "sampler": 0,
   "source": 9
  },
  {
   "sampler": 0,
   "source": 10
  },
  {
   "sampler": 0,
   "source": 11
  },
  {
   "sampler": 0,
   "source": 12
  },
  {
   "sampler": 0,
   "source": 13
  },
  {
   "sampler": 0,
   "source": 14
  },
  {
   "sampler": 0,
   "source": 15
  },
  {
   "sampler": 0,
   "source": 16
  },
  {
   "sampler": 0,
   "source": 17
  },
  {
   "sampler": 0,
   "source": 18
  },
  {
   "sampler": 0,
   "source": 19
  },
  {
   "sampler": 0,
   "source": 20
  },
  {
   "sampler": 0,
   "source": 21
  },
  {
   "sampler": 0,
   "source": 22
  },
  {
   "sampler": 0,
   "source": 23
  }
 ],
 "images": [
  {
   "mimeType": "image/png",
   "name": "loco_black_normal.png",
   "uri": "../_library/loco_black_normal.png"
  },
  {
   "mimeType": "image/png",
   "name": "loco_black_orm.png",
   "uri": "../_library/loco_black_orm.png"
  },
  {
   "mimeType": "image/png",
   "name": "loco_black_albedo.png",
   "uri": "../_library/loco_black_albedo.png"
  },
  {
   "mimeType": "image/png",
   "name": "rust_iron_normal.png",
   "uri": "../_library/rust_iron_normal.png"
  },
  {
   "mimeType": "image/png",
   "name": "rust_iron_orm.png",
   "uri": "../_library/rust_iron_orm.png"
  },
  {
   "mimeType": "image/png",
   "name": "rust_iron_albedo.png",
   "uri": "../_library/rust_iron_albedo.png"
  },
  {
   "mimeType": "image/png",
   "name": "chequer_plate_normal.png",
   "uri": "../_library/chequer_plate_normal.png"
  },
  {
   "mimeType": "image/png",
   "name": "chequer_plate_orm.png",
   "uri": "../_library/chequer_plate_orm.png"
  },
  {
   "mimeType": "image/png",
   "name": "chequer_plate_albedo.png",
   "uri": "../_library/chequer_plate_albedo.png"
  },
  {
   "mimeType": "image/png",
   "name": "rail_signs_normal.png",
   "uri": "../_library/rail_signs_normal.png"
  },
  {
   "mimeType": "image/png",
   "name": "rail_signs_orm.png",
   "uri": "../_library/rail_signs_orm.png"
  },
  {
   "mimeType": "image/png",
   "name": "rail_signs_albedo.png",
   "uri": "../_library/rail_signs_albedo.png"
  },
  {
   "mimeType": "image/png",
   "name": "wagon_grey_normal.png",
   "uri": "../_library/wagon_grey_normal.png"
  },
  {
   "mimeType": "image/png",
   "name": "wagon_grey_orm.png",
   "uri": "../_library/wagon_grey_orm.png"
  },
  {
   "mimeType": "image/png",
   "name": "wagon_grey_albedo.png",
   "uri": "../_library/wagon_grey_albedo.png"
  },
  {
   "mimeType": "image/png",
   "name": "timber_planks_weathered_normal.png",
   "uri": "../_library/timber_planks_weathered_normal.png"
  },
  {
   "mimeType": "image/png",
   "name": "timber_planks_weathered_orm.png",
   "uri": "../_library/timber_planks_weathered_orm.png"
  },
  {
   "mimeType": "image/png",
   "name": "timber_planks_weathered_albedo.png",
   "uri": "../_library/timber_planks_weathered_albedo.png"
  },
  {
   "mimeType": "image/png",
   "name": "soot_normal.png",
   "uri": "../_library/soot_normal.png"
  },
  {
   "mimeType": "image/png",
   "name": "soot_orm.png",
   "uri": "../_library/soot_orm.png"
  },
  {
   "mimeType": "image/png",
   "name": "soot_albedo.png",
   "uri": "../_library/soot_albedo.png"
  },
  {
   "mimeType": "image/png",
   "name": "timber_beam_normal.png",
   "uri": "../_library/timber_beam_normal.png"
  },
  {
   "mimeType": "image/png",
   "name": "timber_beam_orm.png",
   "uri": "../_library/timber_beam_orm.png"
  },
  {
   "mimeType": "image/png",
   "name": "timber_beam_albedo.png",
   "uri": "../_library/timber_beam_albedo.png"
  }
 ],
 "accessors": [
  {
   "bufferView": 0,
   "componentType": 5126,
   "count": 3320,
   "max": [
    1.399999976158142,
    1.2699999809265137,
    3.440000057220459
   ],
   "min": [
    -1.399999976158142,
    0.07999999821186066,
    -3.440000057220459
   ],
   "type": "VEC3"
  },
  {
   "bufferView": 1,
   "componentType": 5126,
   "count": 3320,
   "type": "VEC3"
  },
  {
   "bufferView": 2,
   "componentType": 5126,
   "count": 3320,
   "type": "VEC2"
  },
  {
   "bufferView": 3,
   "componentType": 5123,
   "count": 6492,
   "type": "SCALAR"
  },
  {
   "bufferView": 4,
   "componentType": 5126,
   "count": 2480,
   "max": [
    1.1129999160766602,
    0.7409999370574951,
    1.9859999418258667
   ],
   "min": [
    -1.1129999160766602,
    0.4049999713897705,
    -1.9859999418258667
   ],
   "type": "VEC3"
  },
  {
   "bufferView": 5,
   "componentType": 5126,
   "count": 2480,
   "type": "VEC3"
  },
  {
   "bufferView": 6,
   "componentType": 5126,
   "count": 2480,
   "type": "VEC2"
  },
  {
   "bufferView": 7,
   "componentType": 5123,
   "count": 5556,
   "type": "SCALAR"
  },
  {
   "bufferView": 8,
   "componentType": 5126,
   "count": 64,
   "max": [
    1.3799999952316284,
    1.2699999809265137,
    3.440000057220459
   ],
   "min": [
    -1.3799999952316284,
    0.18000000715255737,
    -3.440000057220459
   ],
   "type": "VEC3"
  },
  {
   "bufferView": 9,
   "componentType": 5126,
   "count": 64,
   "type": "VEC3"
  },
  {
   "bufferView": 10,
   "componentType": 5126,
   "count": 64,
   "type": "VEC2"
  },
  {
   "bufferView": 11,
   "componentType": 5123,
   "count": 96,
   "type": "SCALAR"
  },
  {
   "bufferView": 12,
   "componentType": 5126,
   "count": 10368,
   "max": [
    1.350000023841858,
    2.5375800132751465,
    3.408693313598633
   ],
   "min": [
    -1.350000023841858,
    0.059154391288757324,
    -3.408693313598633
   ],
   "type": "VEC3"
  },
  {
   "bufferView": 13,
   "componentType": 5126,
   "count": 10368,
   "type": "VEC3"
  },
  {
   "bufferView": 14,
   "componentType": 5126,
   "count": 10368,
   "type": "VEC2"
  },
  {
   "bufferView": 15,
   "componentType": 5123,
   "count": 19368,
   "type": "SCALAR"
  },
  {
   "bufferView": 16,
   "componentType": 5126,
   "count": 12512,
   "max": [
    1.32659113407135,
    2.4800000190734863,
    3.5
   ],
   "min": [
    -1.3222688436508179,
    0.18000000715255737,
    -3.5
   ],
   "type": "VEC3"
  },
  {
   "bufferView": 17,
   "componentType": 5126,
   "count": 12512,
   "type": "VEC3"
  },
  {
   "bufferView": 18,
   "componentType": 5126,
   "count": 12512,
   "type": "VEC2"
  },
  {
   "bufferView": 19,
   "componentType": 5123,
   "count": 24396,
   "type": "SCALAR"
  },
  {
   "bufferView": 20,
   "componentType": 5126,
   "count": 16,
   "max": [
    1.253999948501587,
    1.6800000667572021,
    1.809999942779541
   ],
   "min": [
    -1.253999948501587,
    1.0074999332427979,
    -1.809999942779541
   ],
   "type": "VEC3"
  },
  {
   "bufferView": 21,
   "componentType": 5126,
   "count": 16,
   "type": "VEC3"
  },
  {
   "bufferView": 22,
   "componentType": 5126,
   "count": 16,
   "type": "VEC2"
  },
  {
   "bufferView": 23,
   "componentType": 5123,
   "count": 24,
   "type": "SCALAR"
  },
  {
   "bufferView": 24,
   "componentType": 5126,
   "count": 4960,
   "max": [
    1.3055799007415771,
    2.4286932945251465,
    2.0855798721313477
   ],
   "min": [
    -1.3055799007415771,
    1.3613066673278809,
    -2.0855798721313477
   ],
   "type": "VEC3"
  },
  {
   "bufferView": 25,
   "componentType": 5126,
   "count": 4960,
   "type": "VEC3"
  },
  {
   "bufferView": 26,
   "componentType": 5126,
   "count": 4960,
   "type": "VEC2"
  },
  {
   "bufferView": 27,
   "componentType": 5123,
   "count": 8640,
   "type": "SCALAR"
  },
  {
   "bufferView": 28,
   "componentType": 5126,
   "count": 480,
   "max": [
    1.2200000286102295,
    1.2709306478500366,
    1.996999979019165
   ],
   "min": [
    -1.2200000286102295,
    1.1991404294967651,
    -1.996999979019165
   ],
   "type": "VEC3"
  },
  {
   "bufferView": 29,
   "componentType": 5126,
   "count": 480,
   "type": "VEC3"
  },
  {
   "bufferView": 30,
   "componentType": 5126,
   "count": 480,
   "type": "VEC2"
  },
  {
   "bufferView": 31,
   "componentType": 5123,
   "count": 720,
   "type": "SCALAR"
  },
  {
   "bufferView": 32,
   "componentType": 5126,
   "count": 264,
   "max": [
    1.25,
    2.5199999809265137,
    2.0299999713897705
   ],
   "min": [
    -1.336570143699646,
    0.03032432682812214,
    -2.0299999713897705
   ],
   "type": "VEC3"
  },
  {
   "bufferView": 33,
   "componentType": 5126,
   "count": 264,
   "type": "VEC3"
  },
  {
   "bufferView": 34,
   "componentType": 5126,
   "count": 264,
   "type": "VEC2"
  },
  {
   "bufferView": 35,
   "componentType": 5123,
   "count": 432,
   "type": "SCALAR"
  },
  {
   "bufferView": 36,
   "componentType": 5126,
   "count": 768,
   "max": [
    1.2999999523162842,
    2.5199999809265137,
    2.080000162124634
   ],
   "min": [
    -1.2999999523162842,
    1.2000000476837158,
    -2.080000162124634
   ],
   "type": "VEC3"
  },
  {
   "bufferView": 37,
   "componentType": 5126,
   "count": 768,
   "type": "VEC3"
  },
  {
   "bufferView": 38,
   "componentType": 5126,
   "count": 768,
   "type": "VEC2"
  },
  {
   "bufferView": 39,
   "componentType": 5123,
   "count": 1188,
   "type": "SCALAR"
  },
  {
   "bufferView": 40,
   "componentType": 5126,
   "count": 168,
   "max": [
    1.309999942779541,
    2.5320000648498535,
    2.0900001525878906
   ],
   "min": [
    -1.309999942779541,
    2.507999897003174,
    -2.0900001525878906
   ],
   "type": "VEC3"
  },
  {
   "bufferView": 41,
   "componentType": 5126,
   "count": 168,
   "type": "VEC3"
  },
  {
   "bufferView": 42,
   "componentType": 5126,
   "count": 168,
   "type": "VEC2"
  },
  {
   "bufferView": 43,
   "componentType": 5123,
   "count": 252,
   "type": "SCALAR"
  },
  {
   "bufferView": 44,
   "componentType": 5126,
   "count": 3336,
   "max": [
    1.2206275463104248,
    1.545282244682312,
    0.5534889101982117
   ],
   "min": [
    -0.33833441138267517,
    1.253548264503479,
    -1.9731557369232178
   ],
   "type": "VEC3"
  },
  {
   "bufferView": 45,
   "componentType": 5126,
   "count": 3336,
   "type": "VEC3"
  },
  {
   "bufferView": 46,
   "componentType": 5126,
   "count": 3336,
   "type": "VEC2"
  },
  {
   "bufferView": 47,
   "componentType": 5123,
   "count": 5538,
   "type": "SCALAR"
  },
  {
   "bufferView": 48,
   "componentType": 5126,
   "count": 696,
   "max": [
    -0.40679019689559937,
    1.7379999160766602,
    1.7636927366256714
   ],
   "min": [
    -1.1532096862792969,
    1.2699999809265137,
    0.6346773505210876
   ],
   "type": "VEC3"
  },
  {
   "bufferView": 49,
   "componentType": 5126,
   "count": 696,
   "type": "VEC3"
  },
  {
   "bufferView": 50,
   "componentType": 5126,
   "count": 696,
   "type": "VEC2"
  },
  {
   "bufferView": 51,
   "componentType": 5123,
   "count": 1044,
   "type": "SCALAR"
  },
  {
   "bufferView": 52,
   "componentType": 5126,
   "count": 528,
   "max": [
    -0.3903675973415375,
    2.3914198875427246,
    1.7801153659820557
   ],
   "min": [
    -1.186918020248413,
    1.2699999809265137,
    -1.976922631263733
   ],
   "type": "VEC3"
  },
  {
   "bufferView": 53,
   "componentType": 5126,
   "count": 528,
   "type": "VEC3"
  },
  {
   "bufferView": 54,
   "componentType": 5126,
   "count": 528,
   "type": "VEC2"
  },
  {
   "bufferView": 55,
   "componentType": 5123,
   "count": 804,
   "type": "SCALAR"
  },
  {
   "bufferView": 56,
   "componentType": 5126,
   "count": 400,
   "max": [
    1.1319999694824219,
    2.130000114440918,
    1.871999979019165
   ],
   "min": [
    -1.2100000381469727,
    1.2699999809265137,
    -1.921981930732727
   ],
   "type": "VEC3"
  },
  {
   "bufferView": 57,
   "componentType": 5126,
   "count": 400,
   "type": "VEC3"
  },
  {
   "bufferView": 58,
   "componentType": 5126,
   "count": 400,
   "type": "VEC2"
  },
  {
   "bufferView": 59,
   "componentType": 5123,
   "count": 1236,
   "type": "SCALAR"
  },
  {
   "bufferView": 60,
   "componentType": 5126,
   "count": 24,
   "max": [
    1.059999942779541,
    1.2699999809265137,
    3.5
   ],
   "min": [
    -1.059999942779541,
    0.8600000143051147,
    2.9100000858306885
   ],
   "type": "VEC3"
  },
  {
   "bufferView": 61,
   "componentType": 5126,
   "count": 24,
   "type": "VEC3"
  },
  {
   "bufferView": 62,
   "componentType": 5126,
   "count": 24,
   "type": "VEC2"
  },
  {
   "bufferView": 63,
   "componentType": 5123,
   "count": 36,
   "type": "SCALAR"
  },
  {
   "bufferView": 64,
   "componentType": 5126,
   "count": 24,
   "max": [
    0.5400000214576721,
    1.2699999809265137,
    2.9100000858306885
   ],
   "min": [
    -0.5400000214576721,
    0.44999998807907104,
    2.0299999713897705
   ],
   "type": "VEC3"
  },
  {
   "bufferView": 65,
   "componentType": 5126,
   "count": 24,
   "type": "VEC3"
  },
  {
   "bufferView": 66,
   "componentType": 5126,
   "count": 24,
   "type": "VEC2"
  },
  {
   "bufferView": 67,
   "componentType": 5126,
   "count": 24,
   "max": [
    -0.5400000214576721,
    0.18000000715255737,
    2.9100000858306885
   ],
   "min": [
    -1.3799999952316284,
    -0.10000000149011612,
    2.0299999713897705
   ],
   "type": "VEC3"
  },
  {
   "bufferView": 68,
   "componentType": 5126,
   "count": 24,
   "type": "VEC3"
  },
  {
   "bufferView": 69,
   "componentType": 5126,
   "count": 24,
   "type": "VEC2"
  },
  {
   "bufferView": 70,
   "componentType": 5126,
   "count": 24,
   "max": [
    -0.5400000214576721,
    0.5400000214576721,
    2.9100000858306885
   ],
   "min": [
    -1.100000023841858,
    0.18000000715255737,
    2.0299999713897705
   ],
   "type": "VEC3"
  },
  {
   "bufferView": 71,
   "componentType": 5126,
   "count": 24,
   "type": "VEC3"
  },
  {
   "bufferView": 72,
   "componentType": 5126,
   "count": 24,
   "type": "VEC2"
  },
  {
   "bufferView": 73,
   "componentType": 5126,
   "count": 24,
   "max": [
    -0.5400000214576721,
    0.8999999761581421,
    2.9100000858306885
   ],
   "min": [
    -0.8199999928474426,
    0.5400000214576721,
    2.0299999713897705
   ],
   "type": "VEC3"
  },
  {
   "bufferView": 74,
   "componentType": 5126,
   "count": 24,
   "type": "VEC3"
  },
  {
   "bufferView": 75,
   "componentType": 5126,
   "count": 24,
   "type": "VEC2"
  },
  {
   "bufferView": 76,
   "componentType": 5126,
   "count": 24,
   "max": [
    1.3799999952316284,
    0.18000000715255737,
    2.9100000858306885
   ],
   "min": [
    0.5400000214576721,
    -0.10000000149011612,
    2.0299999713897705
   ],
   "type": "VEC3"
  },
  {
   "bufferView": 77,
   "componentType": 5126,
   "count": 24,
   "type": "VEC3"
  },
  {
   "bufferView": 78,
   "componentType": 5126,
   "count": 24,
   "type": "VEC2"
  },
  {
   "bufferView": 79,
   "componentType": 5126,
   "count": 24,
   "max": [
    1.100000023841858,
    0.5400000214576721,
    2.9100000858306885
   ],
   "min": [
    0.5400000214576721,
    0.18000000715255737,
    2.0299999713897705
   ],
   "type": "VEC3"
  },
  {
   "bufferView": 80,
   "componentType": 5126,
   "count": 24,
   "type": "VEC3"
  },
  {
   "bufferView": 81,
   "componentType": 5126,
   "count": 24,
   "type": "VEC2"
  },
  {
   "bufferView": 82,
   "componentType": 5126,
   "count": 24,
   "max": [
    0.8199999928474426,
    0.8999999761581421,
    2.9100000858306885
   ],
   "min": [
    0.5400000214576721,
    0.5400000214576721,
    2.0299999713897705
   ],
   "type": "VEC3"
  },
  {
   "bufferView": 83,
   "componentType": 5126,
   "count": 24,
   "type": "VEC3"
  },
  {
   "bufferView": 84,
   "componentType": 5126,
   "count": 24,
   "type": "VEC2"
  },
  {
   "bufferView": 85,
   "componentType": 5126,
   "count": 24,
   "max": [
    1.059999942779541,
    1.2699999809265137,
    -2.9100000858306885
   ],
   "min": [
    -1.059999942779541,
    0.8600000143051147,
    -3.5
   ],
   "type": "VEC3"
  },
  {
   "bufferView": 86,
   "componentType": 5126,
   "count": 24,
   "type": "VEC3"
  },
  {
   "bufferView": 87,
   "componentType": 5126,
   "count": 24,
   "type": "VEC2"
  },
  {
   "bufferView": 88,
   "componentType": 5126,
   "count": 24,
   "max": [
    0.5400000214576721,
    1.2699999809265137,
    -2.0299999713897705
   ],
   "min": [
    -0.5400000214576721,
    0.44999998807907104,
    -2.9100000858306885
   ],
   "type": "VEC3"
  },
  {
   "bufferView": 89,
   "componentType": 5126,
   "count": 24,
   "type": "VEC3"
  },
  {
   "bufferView": 90,
   "componentType": 5126,
   "count": 24,
   "type": "VEC2"
  },
  {
   "bufferView": 91,
   "componentType": 5126,
   "count": 24,
   "max": [
    -0.5400000214576721,
    0.18000000715255737,
    -2.0299999713897705
   ],
   "min": [
    -1.3799999952316284,
    -0.10000000149011612,
    -2.9100000858306885
   ],
   "type": "VEC3"
  },
  {
   "bufferView": 92,
   "componentType": 5126,
   "count": 24,
   "type": "VEC3"
  },
  {
   "bufferView": 93,
   "componentType": 5126,
   "count": 24,
   "type": "VEC2"
  },
  {
   "bufferView": 94,
   "componentType": 5126,
   "count": 24,
   "max": [
    -0.5400000214576721,
    0.5400000214576721,
    -2.0299999713897705
   ],
   "min": [
    -1.100000023841858,
    0.18000000715255737,
    -2.9100000858306885
   ],
   "type": "VEC3"
  },
  {
   "bufferView": 95,
   "componentType": 5126,
   "count": 24,
   "type": "VEC3"
  },
  {
   "bufferView": 96,
   "componentType": 5126,
   "count": 24,
   "type": "VEC2"
  },
  {
   "bufferView": 97,
   "componentType": 5126,
   "count": 24,
   "max": [
    -0.5400000214576721,
    0.8999999761581421,
    -2.0299999713897705
   ],
   "min": [
    -0.8199999928474426,
    0.5400000214576721,
    -2.9100000858306885
   ],
   "type": "VEC3"
  },
  {
   "bufferView": 98,
   "componentType": 5126,
   "count": 24,
   "type": "VEC3"
  },
  {
   "bufferView": 99,
   "componentType": 5126,
   "count": 24,
   "type": "VEC2"
  },
  {
   "bufferView": 100,
   "componentType": 5126,
   "count": 24,
   "max": [
    1.3799999952316284,
    0.18000000715255737,
    -2.0299999713897705
   ],
   "min": [
    0.5400000214576721,
    -0.10000000149011612,
    -2.9100000858306885
   ],
   "type": "VEC3"
  },
  {
   "bufferView": 101,
   "componentType": 5126,
   "count": 24,
   "type": "VEC3"
  },
  {
   "bufferView": 102,
   "componentType": 5126,
   "count": 24,
   "type": "VEC2"
  },
  {
   "bufferView": 103,
   "componentType": 5126,
   "count": 24,
   "max": [
    1.100000023841858,
    0.5400000214576721,
    -2.0299999713897705
   ],
   "min": [
    0.5400000214576721,
    0.18000000715255737,
    -2.9100000858306885
   ],
   "type": "VEC3"
  },
  {
   "bufferView": 104,
   "componentType": 5126,
   "count": 24,
   "type": "VEC3"
  },
  {
   "bufferView": 105,
   "componentType": 5126,
   "count": 24,
   "type": "VEC2"
  },
  {
   "bufferView": 106,
   "componentType": 5126,
   "count": 24,
   "max": [
    0.8199999928474426,
    0.8999999761581421,
    -2.0299999713897705
   ],
   "min": [
    0.5400000214576721,
    0.5400000214576721,
    -2.9100000858306885
   ],
   "type": "VEC3"
  },
  {
   "bufferView": 107,
   "componentType": 5126,
   "count": 24,
   "type": "VEC3"
  },
  {
   "bufferView": 108,
   "componentType": 5126,
   "count": 24,
   "type": "VEC2"
  },
  {
   "bufferView": 109,
   "componentType": 5126,
   "count": 24,
   "max": [
    -0.47999998927116394,
    2.5199999809265137,
    2.0299999713897705
   ],
   "min": [
    -1.25,
    1.2699999809265137,
    1.9700000286102295
   ],
   "type": "VEC3"
  },
  {
   "bufferView": 110,
   "componentType": 5126,
   "count": 24,
   "type": "VEC3"
  },
  {
   "bufferView": 111,
   "componentType": 5126,
   "count": 24,
   "type": "VEC2"
  },
  {
   "bufferView": 112,
   "componentType": 5126,
   "count": 24,
   "max": [
    1.25,
    2.5199999809265137,
    2.0299999713897705
   ],
   "min": [
    0.47999998927116394,
    1.2699999809265137,
    1.9700000286102295
   ],
   "type": "VEC3"
  },
  {
   "bufferView": 113,
   "componentType": 5126,
   "count": 24,
   "type": "VEC3"
  },
  {
   "bufferView": 114,
   "componentType": 5126,
   "count": 24,
   "type": "VEC2"
  },
  {
   "bufferView": 115,
   "componentType": 5126,
   "count": 24,
   "max": [
    -0.47999998927116394,
    2.5199999809265137,
    -1.9700000286102295
   ],
   "min": [
    -1.25,
    1.2699999809265137,
    -2.0299999713897705
   ],
   "type": "VEC3"
  },
  {
   "bufferView": 116,
   "componentType": 5126,
   "count": 24,
   "type": "VEC3"
  },
  {
   "bufferView": 117,
   "componentType": 5126,
   "count": 24,
   "type": "VEC2"
  },
  {
   "bufferView": 118,
   "componentType": 5126,
   "count": 24,
   "max": [
    1.25,
    2.5199999809265137,
    -1.9700000286102295
   ],
   "min": [
    0.47999998927116394,
    1.2699999809265137,
    -2.0299999713897705
   ],
   "type": "VEC3"
  },
  {
   "bufferView": 119,
   "componentType": 5126,
   "count": 24,
   "type": "VEC3"
  },
  {
   "bufferView": 120,
   "componentType": 5126,
   "count": 24,
   "type": "VEC2"
  },
  {
   "bufferView": 121,
   "componentType": 5126,
   "count": 24,
   "max": [
    -0.7299999594688416,
    1.840000033378601,
    1.5299999713897705
   ],
   "min": [
    -0.8299999833106995,
    1.7400000095367432,
    1.4300000667572021
   ],
   "type": "VEC3"
  },
  {
   "bufferView": 122,
   "componentType": 5126,
   "count": 24,
   "type": "VEC3"
  },
  {
   "bufferView": 123,
   "componentType": 5126,
   "count": 24,
   "type": "VEC2"
  },
  {
   "bufferView": 124,
   "componentType": 5126,
   "count": 24,
   "max": [
    -0.10000000894069672,
    1.3700000047683716,
    1.7999999523162842
   ],
   "min": [
    -0.20000000298023224,
    1.2699999809265137,
    1.7000000476837158
   ],
   "type": "VEC3"
  },
  {
   "bufferView": 125,
   "componentType": 5126,
   "count": 24,
   "type": "VEC3"
  },
  {
   "bufferView": 126,
   "componentType": 5126,
   "count": 24,
   "type": "VEC2"
  },
  {
   "bufferView": 127,
   "componentType": 5126,
   "count": 24,
   "max": [
    1.25,
    1.2699999809265137,
    2.0299999713897705
   ],
   "min": [
    -1.25,
    0.44999998807907104,
    -2.0299999713897705
   ],
   "type": "VEC3"
  },
  {
   "bufferView": 128,
   "componentType": 5126,
   "count": 24,
   "type": "VEC3"
  },
  {
   "bufferView": 129,
   "componentType": 5126,
   "count": 24,
   "type": "VEC2"
  },
  {
   "bufferView": 130,
   "componentType": 5126,
   "count": 24,
   "max": [
    1.25,
    2.5199999809265137,
    2.0299999713897705
   ],
   "min": [
    1.190000057220459,
    1.2699999809265137,
    -2.0299999713897705
   ],
   "type": "VEC3"
  },
  {
   "bufferView": 131,
   "componentType": 5126,
   "count": 24,
   "type": "VEC3"
  },
  {
   "bufferView": 132,
   "componentType": 5126,
   "count": 24,
   "type": "VEC2"
  },
  {
   "bufferView": 133,
   "componentType": 5126,
   "count": 24,
   "max": [
    -1.190000057220459,
    2.5199999809265137,
    2.0299999713897705
   ],
   "min": [
    -1.25,
    1.2699999809265137,
    0.6000000238418579
   ],
   "type": "VEC3"
  },
  {
   "bufferView": 134,
   "componentType": 5126,
   "count": 24,
   "type": "VEC3"
  },
  {
   "bufferView": 135,
   "componentType": 5126,
   "count": 24,
   "type": "VEC2"
  },
  {
   "bufferView": 136,
   "componentType": 5126,
   "count": 24,
   "max": [
    -1.190000057220459,
    2.5199999809265137,
    -0.6000000238418579
   ],
   "min": [
    -1.25,
    1.2699999809265137,
    -2.0299999713897705
   ],
   "type": "VEC3"
  },
  {
   "bufferView": 137,
   "componentType": 5126,
   "count": 24,
   "type": "VEC3"
  },
  {
   "bufferView": 138,
   "componentType": 5126,
   "count": 24,
   "type": "VEC2"
  },
  {
   "bufferView": 139,
   "componentType": 5126,
   "count": 24,
   "max": [
    -0.4000000059604645,
    1.7300000190734863,
    1.7599999904632568
   ],
   "min": [
    -1.159999966621399,
    1.2699999809265137,
    0.6600000262260437
   ],
   "type": "VEC3"
  },
  {
   "bufferView": 140,
   "componentType": 5126,
   "count": 24,
   "type": "VEC3"
  },
  {
   "bufferView": 141,
   "componentType": 5126,
   "count": 24,
   "type": "VEC2"
  },
  {
   "bufferView": 142,
   "componentType": 5126,
   "count": 24,
   "max": [
    1.1200000047683716,
    2.130000114440918,
    1.8600000143051147
   ],
   "min": [
    0.5600000023841858,
    1.2699999809265137,
    1.2999999523162842
   ],
   "type": "VEC3"
  },
  {
   "bufferView": 143,
   "componentType": 5126,
   "count": 24,
   "type": "VEC3"
  },
  {
   "bufferView": 144,
   "componentType": 5126,
   "count": 24,
   "type": "VEC2"
  },
  {
   "bufferView": 145,
   "componentType": 5126,
   "count": 24,
   "max": [
    1.159999966621399,
    1.4700000286102295,
    -0.8999999761581421
   ],
   "min": [
    0.20000000298023224,
    1.2699999809265137,
    -1.940000057220459
   ],
   "type": "VEC3"
  },
  {
   "bufferView": 146,
   "componentType": 5126,
   "count": 24,
   "type": "VEC3"
  },
  {
   "bufferView": 147,
   "componentType": 5126,
   "count": 24,
   "type": "VEC2"
  }
 ],
 "bufferViews": [
  {
   "buffer": 0,
   "byteLength": 39840,
   "byteOffset": 0,
   "target": 34962
  },
  {
   "buffer": 0,
   "byteLength": 39840,
   "byteOffset": 39840,
   "target": 34962
  },
  {
   "buffer": 0,
   "byteLength": 26560,
   "byteOffset": 79680,
   "target": 34962
  },
  {
   "buffer": 0,
   "byteLength": 12984,
   "byteOffset": 106240,
   "target": 34963
  },
  {
   "buffer": 0,
   "byteLength": 29760,
   "byteOffset": 119224,
   "target": 34962
  },
  {
   "buffer": 0,
   "byteLength": 29760,
   "byteOffset": 148984,
   "target": 34962
  },
  {
   "buffer": 0,
   "byteLength": 19840,
   "byteOffset": 178744,
   "target": 34962
  },
  {
   "buffer": 0,
   "byteLength": 11112,
   "byteOffset": 198584,
   "target": 34963
  },
  {
   "buffer": 0,
   "byteLength": 768,
   "byteOffset": 209696,
   "target": 34962
  },
  {
   "buffer": 0,
   "byteLength": 768,
   "byteOffset": 210464,
   "target": 34962
  },
  {
   "buffer": 0,
   "byteLength": 512,
   "byteOffset": 211232,
   "target": 34962
  },
  {
   "buffer": 0,
   "byteLength": 192,
   "byteOffset": 211744,
   "target": 34963
  },
  {
   "buffer": 0,
   "byteLength": 124416,
   "byteOffset": 211936,
   "target": 34962
  },
  {
   "buffer": 0,
   "byteLength": 124416,
   "byteOffset": 336352,
   "target": 34962
  },
  {
   "buffer": 0,
   "byteLength": 82944,
   "byteOffset": 460768,
   "target": 34962
  },
  {
   "buffer": 0,
   "byteLength": 38736,
   "byteOffset": 543712,
   "target": 34963
  },
  {
   "buffer": 0,
   "byteLength": 150144,
   "byteOffset": 582448,
   "target": 34962
  },
  {
   "buffer": 0,
   "byteLength": 150144,
   "byteOffset": 732592,
   "target": 34962
  },
  {
   "buffer": 0,
   "byteLength": 100096,
   "byteOffset": 882736,
   "target": 34962
  },
  {
   "buffer": 0,
   "byteLength": 48792,
   "byteOffset": 982832,
   "target": 34963
  },
  {
   "buffer": 0,
   "byteLength": 192,
   "byteOffset": 1031624,
   "target": 34962
  },
  {
   "buffer": 0,
   "byteLength": 192,
   "byteOffset": 1031816,
   "target": 34962
  },
  {
   "buffer": 0,
   "byteLength": 128,
   "byteOffset": 1032008,
   "target": 34962
  },
  {
   "buffer": 0,
   "byteLength": 48,
   "byteOffset": 1032136,
   "target": 34963
  },
  {
   "buffer": 0,
   "byteLength": 59520,
   "byteOffset": 1032184,
   "target": 34962
  },
  {
   "buffer": 0,
   "byteLength": 59520,
   "byteOffset": 1091704,
   "target": 34962
  },
  {
   "buffer": 0,
   "byteLength": 39680,
   "byteOffset": 1151224,
   "target": 34962
  },
  {
   "buffer": 0,
   "byteLength": 17280,
   "byteOffset": 1190904,
   "target": 34963
  },
  {
   "buffer": 0,
   "byteLength": 5760,
   "byteOffset": 1208184,
   "target": 34962
  },
  {
   "buffer": 0,
   "byteLength": 5760,
   "byteOffset": 1213944,
   "target": 34962
  },
  {
   "buffer": 0,
   "byteLength": 3840,
   "byteOffset": 1219704,
   "target": 34962
  },
  {
   "buffer": 0,
   "byteLength": 1440,
   "byteOffset": 1223544,
   "target": 34963
  },
  {
   "buffer": 0,
   "byteLength": 3168,
   "byteOffset": 1224984,
   "target": 34962
  },
  {
   "buffer": 0,
   "byteLength": 3168,
   "byteOffset": 1228152,
   "target": 34962
  },
  {
   "buffer": 0,
   "byteLength": 2112,
   "byteOffset": 1231320,
   "target": 34962
  },
  {
   "buffer": 0,
   "byteLength": 864,
   "byteOffset": 1233432,
   "target": 34963
  },
  {
   "buffer": 0,
   "byteLength": 9216,
   "byteOffset": 1234296,
   "target": 34962
  },
  {
   "buffer": 0,
   "byteLength": 9216,
   "byteOffset": 1243512,
   "target": 34962
  },
  {
   "buffer": 0,
   "byteLength": 6144,
   "byteOffset": 1252728,
   "target": 34962
  },
  {
   "buffer": 0,
   "byteLength": 2376,
   "byteOffset": 1258872,
   "target": 34963
  },
  {
   "buffer": 0,
   "byteLength": 2016,
   "byteOffset": 1261248,
   "target": 34962
  },
  {
   "buffer": 0,
   "byteLength": 2016,
   "byteOffset": 1263264,
   "target": 34962
  },
  {
   "buffer": 0,
   "byteLength": 1344,
   "byteOffset": 1265280,
   "target": 34962
  },
  {
   "buffer": 0,
   "byteLength": 504,
   "byteOffset": 1266624,
   "target": 34963
  },
  {
   "buffer": 0,
   "byteLength": 40032,
   "byteOffset": 1267128,
   "target": 34962
  },
  {
   "buffer": 0,
   "byteLength": 40032,
   "byteOffset": 1307160,
   "target": 34962
  },
  {
   "buffer": 0,
   "byteLength": 26688,
   "byteOffset": 1347192,
   "target": 34962
  },
  {
   "buffer": 0,
   "byteLength": 11076,
   "byteOffset": 1373880,
   "target": 34963
  },
  {
   "buffer": 0,
   "byteLength": 8352,
   "byteOffset": 1384956,
   "target": 34962
  },
  {
   "buffer": 0,
   "byteLength": 8352,
   "byteOffset": 1393308,
   "target": 34962
  },
  {
   "buffer": 0,
   "byteLength": 5568,
   "byteOffset": 1401660,
   "target": 34962
  },
  {
   "buffer": 0,
   "byteLength": 2088,
   "byteOffset": 1407228,
   "target": 34963
  },
  {
   "buffer": 0,
   "byteLength": 6336,
   "byteOffset": 1409316,
   "target": 34962
  },
  {
   "buffer": 0,
   "byteLength": 6336,
   "byteOffset": 1415652,
   "target": 34962
  },
  {
   "buffer": 0,
   "byteLength": 4224,
   "byteOffset": 1421988,
   "target": 34962
  },
  {
   "buffer": 0,
   "byteLength": 1608,
   "byteOffset": 1426212,
   "target": 34963
  },
  {
   "buffer": 0,
   "byteLength": 4800,
   "byteOffset": 1427820,
   "target": 34962
  },
  {
   "buffer": 0,
   "byteLength": 4800,
   "byteOffset": 1432620,
   "target": 34962
  },
  {
   "buffer": 0,
   "byteLength": 3200,
   "byteOffset": 1437420,
   "target": 34962
  },
  {
   "buffer": 0,
   "byteLength": 2472,
   "byteOffset": 1440620,
   "target": 34963
  },
  {
   "buffer": 0,
   "byteLength": 288,
   "byteOffset": 1443092,
   "target": 34962
  },
  {
   "buffer": 0,
   "byteLength": 288,
   "byteOffset": 1443380,
   "target": 34962
  },
  {
   "buffer": 0,
   "byteLength": 192,
   "byteOffset": 1443668,
   "target": 34962
  },
  {
   "buffer": 0,
   "byteLength": 72,
   "byteOffset": 1443860,
   "target": 34963
  },
  {
   "buffer": 0,
   "byteLength": 288,
   "byteOffset": 1443932,
   "target": 34962
  },
  {
   "buffer": 0,
   "byteLength": 288,
   "byteOffset": 1444220,
   "target": 34962
  },
  {
   "buffer": 0,
   "byteLength": 192,
   "byteOffset": 1444508,
   "target": 34962
  },
  {
   "buffer": 0,
   "byteLength": 288,
   "byteOffset": 1444700,
   "target": 34962
  },
  {
   "buffer": 0,
   "byteLength": 288,
   "byteOffset": 1444988,
   "target": 34962
  },
  {
   "buffer": 0,
   "byteLength": 192,
   "byteOffset": 1445276,
   "target": 34962
  },
  {
   "buffer": 0,
   "byteLength": 288,
   "byteOffset": 1445468,
   "target": 34962
  },
  {
   "buffer": 0,
   "byteLength": 288,
   "byteOffset": 1445756,
   "target": 34962
  },
  {
   "buffer": 0,
   "byteLength": 192,
   "byteOffset": 1446044,
   "target": 34962
  },
  {
   "buffer": 0,
   "byteLength": 288,
   "byteOffset": 1446236,
   "target": 34962
  },
  {
   "buffer": 0,
   "byteLength": 288,
   "byteOffset": 1446524,
   "target": 34962
  },
  {
   "buffer": 0,
   "byteLength": 192,
   "byteOffset": 1446812,
   "target": 34962
  },
  {
   "buffer": 0,
   "byteLength": 288,
   "byteOffset": 1447004,
   "target": 34962
  },
  {
   "buffer": 0,
   "byteLength": 288,
   "byteOffset": 1447292,
   "target": 34962
  },
  {
   "buffer": 0,
   "byteLength": 192,
   "byteOffset": 1447580,
   "target": 34962
  },
  {
   "buffer": 0,
   "byteLength": 288,
   "byteOffset": 1447772,
   "target": 34962
  },
  {
   "buffer": 0,
   "byteLength": 288,
   "byteOffset": 1448060,
   "target": 34962
  },
  {
   "buffer": 0,
   "byteLength": 192,
   "byteOffset": 1448348,
   "target": 34962
  },
  {
   "buffer": 0,
   "byteLength": 288,
   "byteOffset": 1448540,
   "target": 34962
  },
  {
   "buffer": 0,
   "byteLength": 288,
   "byteOffset": 1448828,
   "target": 34962
  },
  {
   "buffer": 0,
   "byteLength": 192,
   "byteOffset": 1449116,
   "target": 34962
  },
  {
   "buffer": 0,
   "byteLength": 288,
   "byteOffset": 1449308,
   "target": 34962
  },
  {
   "buffer": 0,
   "byteLength": 288,
   "byteOffset": 1449596,
   "target": 34962
  },
  {
   "buffer": 0,
   "byteLength": 192,
   "byteOffset": 1449884,
   "target": 34962
  },
  {
   "buffer": 0,
   "byteLength": 288,
   "byteOffset": 1450076,
   "target": 34962
  },
  {
   "buffer": 0,
   "byteLength": 288,
   "byteOffset": 1450364,
   "target": 34962
  },
  {
   "buffer": 0,
   "byteLength": 192,
   "byteOffset": 1450652,
   "target": 34962
  },
  {
   "buffer": 0,
   "byteLength": 288,
   "byteOffset": 1450844,
   "target": 34962
  },
  {
   "buffer": 0,
   "byteLength": 288,
   "byteOffset": 1451132,
   "target": 34962
  },
  {
   "buffer": 0,
   "byteLength": 192,
   "byteOffset": 1451420,
   "target": 34962
  },
  {
   "buffer": 0,
   "byteLength": 288,
   "byteOffset": 1451612,
   "target": 34962
  },
  {
   "buffer": 0,
   "byteLength": 288,
   "byteOffset": 1451900,
   "target": 34962
  },
  {
   "buffer": 0,
   "byteLength": 192,
   "byteOffset": 1452188,
   "target": 34962
  },
  {
   "buffer": 0,
   "byteLength": 288,
   "byteOffset": 1452380,
   "target": 34962
  },
  {
   "buffer": 0,
   "byteLength": 288,
   "byteOffset": 1452668,
   "target": 34962
  },
  {
   "buffer": 0,
   "byteLength": 192,
   "byteOffset": 1452956,
   "target": 34962
  },
  {
   "buffer": 0,
   "byteLength": 288,
   "byteOffset": 1453148,
   "target": 34962
  },
  {
   "buffer": 0,
   "byteLength": 288,
   "byteOffset": 1453436,
   "target": 34962
  },
  {
   "buffer": 0,
   "byteLength": 192,
   "byteOffset": 1453724,
   "target": 34962
  },
  {
   "buffer": 0,
   "byteLength": 288,
   "byteOffset": 1453916,
   "target": 34962
  },
  {
   "buffer": 0,
   "byteLength": 288,
   "byteOffset": 1454204,
   "target": 34962
  },
  {
   "buffer": 0,
   "byteLength": 192,
   "byteOffset": 1454492,
   "target": 34962
  },
  {
   "buffer": 0,
   "byteLength": 288,
   "byteOffset": 1454684,
   "target": 34962
  },
  {
   "buffer": 0,
   "byteLength": 288,
   "byteOffset": 1454972,
   "target": 34962
  },
  {
   "buffer": 0,
   "byteLength": 192,
   "byteOffset": 1455260,
   "target": 34962
  },
  {
   "buffer": 0,
   "byteLength": 288,
   "byteOffset": 1455452,
   "target": 34962
  },
  {
   "buffer": 0,
   "byteLength": 288,
   "byteOffset": 1455740,
   "target": 34962
  },
  {
   "buffer": 0,
   "byteLength": 192,
   "byteOffset": 1456028,
   "target": 34962
  },
  {
   "buffer": 0,
   "byteLength": 288,
   "byteOffset": 1456220,
   "target": 34962
  },
  {
   "buffer": 0,
   "byteLength": 288,
   "byteOffset": 1456508,
   "target": 34962
  },
  {
   "buffer": 0,
   "byteLength": 192,
   "byteOffset": 1456796,
   "target": 34962
  },
  {
   "buffer": 0,
   "byteLength": 288,
   "byteOffset": 1456988,
   "target": 34962
  },
  {
   "buffer": 0,
   "byteLength": 288,
   "byteOffset": 1457276,
   "target": 34962
  },
  {
   "buffer": 0,
   "byteLength": 192,
   "byteOffset": 1457564,
   "target": 34962
  },
  {
   "buffer": 0,
   "byteLength": 288,
   "byteOffset": 1457756,
   "target": 34962
  },
  {
   "buffer": 0,
   "byteLength": 288,
   "byteOffset": 1458044,
   "target": 34962
  },
  {
   "buffer": 0,
   "byteLength": 192,
   "byteOffset": 1458332,
   "target": 34962
  },
  {
   "buffer": 0,
   "byteLength": 288,
   "byteOffset": 1458524,
   "target": 34962
  },
  {
   "buffer": 0,
   "byteLength": 288,
   "byteOffset": 1458812,
   "target": 34962
  },
  {
   "buffer": 0,
   "byteLength": 192,
   "byteOffset": 1459100,
   "target": 34962
  },
  {
   "buffer": 0,
   "byteLength": 288,
   "byteOffset": 1459292,
   "target": 34962
  },
  {
   "buffer": 0,
   "byteLength": 288,
   "byteOffset": 1459580,
   "target": 34962
  },
  {
   "buffer": 0,
   "byteLength": 192,
   "byteOffset": 1459868,
   "target": 34962
  },
  {
   "buffer": 0,
   "byteLength": 288,
   "byteOffset": 1460060,
   "target": 34962
  },
  {
   "buffer": 0,
   "byteLength": 288,
   "byteOffset": 1460348,
   "target": 34962
  },
  {
   "buffer": 0,
   "byteLength": 192,
   "byteOffset": 1460636,
   "target": 34962
  },
  {
   "buffer": 0,
   "byteLength": 288,
   "byteOffset": 1460828,
   "target": 34962
  },
  {
   "buffer": 0,
   "byteLength": 288,
   "byteOffset": 1461116,
   "target": 34962
  },
  {
   "buffer": 0,
   "byteLength": 192,
   "byteOffset": 1461404,
   "target": 34962
  },
  {
   "buffer": 0,
   "byteLength": 288,
   "byteOffset": 1461596,
   "target": 34962
  },
  {
   "buffer": 0,
   "byteLength": 288,
   "byteOffset": 1461884,
   "target": 34962
  },
  {
   "buffer": 0,
   "byteLength": 192,
   "byteOffset": 1462172,
   "target": 34962
  },
  {
   "buffer": 0,
   "byteLength": 288,
   "byteOffset": 1462364,
   "target": 34962
  },
  {
   "buffer": 0,
   "byteLength": 288,
   "byteOffset": 1462652,
   "target": 34962
  },
  {
   "buffer": 0,
   "byteLength": 192,
   "byteOffset": 1462940,
   "target": 34962
  },
  {
   "buffer": 0,
   "byteLength": 288,
   "byteOffset": 1463132,
   "target": 34962
  },
  {
   "buffer": 0,
   "byteLength": 288,
   "byteOffset": 1463420,
   "target": 34962
  },
  {
   "buffer": 0,
   "byteLength": 192,
   "byteOffset": 1463708,
   "target": 34962
  },
  {
   "buffer": 0,
   "byteLength": 288,
   "byteOffset": 1463900,
   "target": 34962
  },
  {
   "buffer": 0,
   "byteLength": 288,
   "byteOffset": 1464188,
   "target": 34962
  },
  {
   "buffer": 0,
   "byteLength": 192,
   "byteOffset": 1464476,
   "target": 34962
  },
  {
   "buffer": 0,
   "byteLength": 288,
   "byteOffset": 1464668,
   "target": 34962
  },
  {
   "buffer": 0,
   "byteLength": 288,
   "byteOffset": 1464956,
   "target": 34962
  },
  {
   "buffer": 0,
   "byteLength": 192,
   "byteOffset": 1465244,
   "target": 34962
  }
 ],
 "samplers": [
  {
   "magFilter": 9729,
   "minFilter": 9987
  }
 ],
 "buffers": [
  {
   "byteLength": 1465436,
   "uri": "train_wagon_open.bin"
  }
 ]
}