{
 "asset": {
  "generator": "zero point flora",
  "version": "2.0"
 },
 "scene": 0,
 "scenes": [
  {
   "name": "Scene",
   "nodes": [
    0
   ]
  }
 ],
 "nodes": [
  {
   "mesh": 0,
   "name": "foliage"
  }
 ],
 "materials": [
  {
   "name": "leaf",
   "doubleSided": true,
   "pbrMetallicRoughness": {
    "baseColorTexture": {
     "index": 0
    },
    "metallicRoughnessTexture": {
     "index": 2
    },
    "metallicFactor": 0.0,
    "roughnessFactor": 1.0
   },
   "normalTexture": {
    "index": 1
   },
   "occlusionTexture": {
    "index": 2
   },
   "alphaMode": "MASK",
   "alphaCutoff": 0.5
  }
 ],
 "meshes": [
  {
   "name": "flora_gorse_2_far_foliage",
   "primitives": [
    {
     "attributes": {
      "POSITION": 0,
      "NORMAL": 1,
      "TEXCOORD_0": 2
     },
     "indices": 3,
     "material": 0
    }
   ]
  }
 ],
 "textures": [
  {
   "sampler": 0,
   "source": 0
  },
  {
   "sampler": 0,
   "source": 1
  },
  {
   "sampler": 0,
   "source": 2
  }
 ],
 "images": [
  {
   "mimeType": "image/png",
   "name": "flora_gorse_leaf_diff_2k.png",
   "uri": "../flora_gorse_0/flora_gorse_leaf_diff_2k.png"
  },
  {
   "mimeType": "image/png",
   "name": "flora_gorse_leaf_nor_gl_2k.png",
   "uri": "../flora_gorse_0/flora_gorse_leaf_nor_gl_2k.png"
  },
  {
   "mimeType": "image/png",
   "name": "flora_gorse_leaf_arm_2k.png",
   "uri": "../flora_gorse_0/flora_gorse_leaf_arm_2k.png"
  }
 ],
 "accessors": [
  {
   "bufferView": 0,
   "componentType": 5126,
   "count": 827,
   "max": [
    1.3325437307357788,
    1.8425991535186768,
    1.1649534702301025
   ],
   "min": [
    -1.1016006469726562,
    -0.10000000149011612,
    -1.0892411470413208
   ],
   "type": "VEC3"
  },
  {
   "bufferView": 1,
   "componentType": 5126,
   "count": 827,
   "type": "VEC3"
  },
  {
   "bufferView": 2,
   "componentType": 5126,
   "count": 827,
   "type": "VEC2"
  },
  {
   "bufferView": 3,
   "componentType": 5123,
   "count": 1704,
   "type": "SCALAR"
  }
 ],
 "bufferViews": [
  {
   "buffer": 0,
   "byteLength": 9924,
   "byteOffset": 0,
   "target": 34962
  },
  {
   "buffer": 0,
   "byteLength": 9924,
   "byteOffset": 9924,
   "target": 34962
  },
  {
   "buffer": 0,
   "byteLength": 6616,
   "byteOffset": 19848,
   "target": 34962
  },
  {
   "buffer": 0,
   "byteLength": 3408,
   "byteOffset": 26464,
   "target": 34963
  }
 ],
 "samplers": [
  {
   "magFilter": 9729,
   "minFilter": 9987,
   "wrapS": 10497,
   "wrapT": 10497
  }
 ],
 "buffers": [
  {
   "byteLength": 29872,
   "uri": "flora_gorse_2_far.bin"
  }
 ]
}