{
 "asset": {
  "generator": "zero point flora",
  "version": "2.0"
 },
 "scene": 0,
 "scenes": [
  {
   "name": "Scene",
   "nodes": [
    0,
    1
   ]
  }
 ],
 "nodes": [
  {
   "mesh": 0,
   "name": "trunk"
  },
  {
   "mesh": 1,
   "name": "foliage"
  }
 ],
 "materials": [
  {
   "name": "bark",
   "doubleSided": false,
   "pbrMetallicRoughness": {
    "baseColorTexture": {
     "index": 0
    },
    "metallicRoughnessTexture": {
     "index": 2
    },
    "metallicFactor": 0.0,
    "roughnessFactor": 1.0
   },
   "normalTexture": {
    "index": 1
   },
   "occlusionTexture": {
    "index": 2
   }
  },
  {
   "name": "leaf",
   "doubleSided": true,
   "pbrMetallicRoughness": {
    "baseColorTexture": {
     "index": 3
    },
    "metallicRoughnessTexture": {
     "index": 5
    },
    "metallicFactor": 0.0,
    "roughnessFactor": 1.0
   },
   "normalTexture": {
    "index": 4
   },
   "occlusionTexture": {
    "index": 5
   },
   "alphaMode": "MASK",
   "alphaCutoff": 0.5
  }
 ],
 "meshes": [
  {
   "name": "flora_hawthorn_2_far_bark",
   "primitives": [
    {
     "attributes": {
      "POSITION": 0,
      "NORMAL": 1,
      "TEXCOORD_0": 2
     },
     "indices": 3,
     "material": 0
    }
   ]
  },
  {
   "name": "flora_hawthorn_2_far_foliage",
   "primitives": [
    {
     "attributes": {
      "POSITION": 4,
      "NORMAL": 5,
      "TEXCOORD_0": 6
     },
     "indices": 7,
     "material": 1
    }
   ]
  }
 ],
 "textures": [
  {
   "sampler": 0,
   "source": 0
  },
  {
   "sampler": 0,
   "source": 1
  },
  {
   "sampler": 0,
   "source": 2
  },
  {
   "sampler": 0,
   "source": 3
  },
  {
   "sampler": 0,
   "source": 4
  },
  {
   "sampler": 0,
   "source": 5
  }
 ],
 "images": [
  {
   "mimeType": "image/png",
   "name": "flora_hawthorn_bark_diff_2k.png",
   "uri": "../flora_hawthorn_0/flora_hawthorn_bark_diff_2k.png"
  },
  {
   "mimeType": "image/png",
   "name": "flora_hawthorn_bark_nor_gl_2k.png",
   "uri": "../flora_hawthorn_0/flora_hawthorn_bark_nor_gl_2k.png"
  },
  {
   "mimeType": "image/png",
   "name": "flora_hawthorn_bark_arm_2k.png",
   "uri": "../flora_hawthorn_0/flora_hawthorn_bark_arm_2k.png"
  },
  {
   "mimeType": "image/png",
   "name": "flora_hawthorn_leaf_diff_2k.png",
   "uri": "../flora_hawthorn_0/flora_hawthorn_leaf_diff_2k.png"
  },
  {
   "mimeType": "image/png",
   "name": "flora_hawthorn_leaf_nor_gl_2k.png",
   "uri": "../flora_hawthorn_0/flora_hawthorn_leaf_nor_gl_2k.png"
  },
  {
   "mimeType": "image/png",
   "name": "flora_hawthorn_leaf_arm_2k.png",
   "uri": "../flora_hawthorn_0/flora_hawthorn_leaf_arm_2k.png"
  }
 ],
 "accessors": [
  {
   "bufferView": 0,
   "componentType": 5126,
   "count": 920,
   "max": [
    5.18907356262207,
    3.2424802780151367,
    1.2654874324798584
   ],
   "min": [
    -0.2304777055978775,
    -0.4048282206058502,
    -1.7036802768707275
   ],
   "type": "VEC3"
  },
  {
   "bufferView": 1,
   "componentType": 5126,
   "count": 920,
   "type": "VEC3"
  },
  {
   "bufferView": 2,
   "componentType": 5126,
   "count": 920,
   "type": "VEC2"
  },
  {
   "bufferView": 3,
   "componentType": 5123,
   "count": 2832,
   "type": "SCALAR"
  },
  {
   "bufferView": 4,
   "componentType": 5126,
   "count": 1408,
   "max": [
    5.864699840545654,
    4.118908405303955,
    1.972618579864502
   ],
   "min": [
    0.5558651685714722,
    0.8307004570960999,
    -2.3970141410827637
   ],
   "type": "VEC3"
  },
  {
   "bufferView": 5,
   "componentType": 5126,
   "count": 1408,
   "type": "VEC3"
  },
  {
   "bufferView": 6,
   "componentType": 5126,
   "count": 1408,
   "type": "VEC2"
  },
  {
   "bufferView": 7,
   "componentType": 5123,
   "count": 2112,
   "type": "SCALAR"
  }
 ],
 "bufferViews": [
  {
   "buffer": 0,
   "byteLength": 11040,
   "byteOffset": 0,
   "target": 34962
  },
  {
   "buffer": 0,
   "byteLength": 11040,
   "byteOffset": 11040,
   "target": 34962
  },
  {
   "buffer": 0,
   "byteLength": 7360,
   "byteOffset": 22080,
   "target": 34962
  },
  {
   "buffer": 0,
   "byteLength": 5664,
   "byteOffset": 29440,
   "target": 34963
  },
  {
   "buffer": 0,
   "byteLength": 16896,
   "byteOffset": 35104,
   "target": 34962
  },
  {
   "buffer": 0,
   "byteLength": 16896,
   "byteOffset": 52000,
   "target": 34962
  },
  {
   "buffer": 0,
   "byteLength": 11264,
   "byteOffset": 68896,
   "target": 34962
  },
  {
   "buffer": 0,
   "byteLength": 4224,
   "byteOffset": 80160,
   "target": 34963
  }
 ],
 "samplers": [
  {
   "magFilter": 9729,
   "minFilter": 9987,
   "wrapS": 10497,
   "wrapT": 10497
  }
 ],
 "buffers": [
  {
   "byteLength": 84384,
   "uri": "flora_hawthorn_2_far.bin"
  }
 ]
}