{
 "asset": {
  "generator": "Khronos glTF Blender I/O v4.5.51",
  "version": "2.0"
 },
 "scene": 0,
 "scenes": [
  {
   "name": "Scene",
   "nodes": [
    0
   ]
  }
 ],
 "nodes": [
  {
   "mesh": 0,
   "name": "prop_wreck_hatch_far"
  }
 ],
 "materials": [
  {
   "doubleSided": true,
   "name": "prop_wreck_hatch_body",
   "normalTexture": {
    "index": 0
   },
   "occlusionTexture": {
    "index": 1
   },
   "pbrMetallicRoughness": {
    "baseColorTexture": {
     "index": 2
    },
    "metallicRoughnessTexture": {
     "index": 1
    }
   }
  }
 ],
 "meshes": [
  {
   "name": "prop_wreck_hatch_far",
   "primitives": [
    {
     "attributes": {
      "POSITION": 0,
      "NORMAL": 1,
      "TEXCOORD_0": 2
     },
     "indices": 3,
     "material": 0
    }
   ]
  }
 ],
 "textures": [
  {
   "sampler": 0,
   "source": 0
  },
  {
   "sampler": 0,
   "source": 1
  },
  {
   "sampler": 0,
   "source": 2
  }
 ],
 "images": [
  {
   "mimeType": "image/png",
   "name": "prop_wreck_hatch_body_normal",
   "uri": "../prop_wreck_hatch/prop_wreck_hatch_body_normal.png"
  },
  {
   "mimeType": "image/png",
   "name": "prop_wreck_hatch_body_orm",
   "uri": "../prop_wreck_hatch/prop_wreck_hatch_body_orm.png"
  },
  {
   "mimeType": "image/png",
   "name": "prop_wreck_hatch_body_albedo",
   "uri": "../prop_wreck_hatch/prop_wreck_hatch_body_albedo.png"
  }
 ],
 "accessors": [
  {
   "bufferView": 0,
   "componentType": 5126,
   "count": 380,
   "max": [
    0.8262784481048584,
    1.315000057220459,
    1.898237705230713
   ],
   "min": [
    -0.8262784481048584,
    -0.06154054403305054,
    -1.9079283475875854
   ],
   "type": "VEC3"
  },
  {
   "bufferView": 1,
   "componentType": 5126,
   "count": 380,
   "type": "VEC3"
  },
  {
   "bufferView": 2,
   "componentType": 5126,
   "count": 380,
   "type": "VEC2"
  },
  {
   "bufferView": 3,
   "componentType": 5123,
   "count": 936,
   "type": "SCALAR"
  }
 ],
 "bufferViews": [
  {
   "buffer": 0,
   "byteLength": 4560,
   "byteOffset": 0,
   "target": 34962
  },
  {
   "buffer": 0,
   "byteLength": 4560,
   "byteOffset": 4560,
   "target": 34962
  },
  {
   "buffer": 0,
   "byteLength": 3040,
   "byteOffset": 9120,
   "target": 34962
  },
  {
   "buffer": 0,
   "byteLength": 1872,
   "byteOffset": 12160,
   "target": 34963
  }
 ],
 "samplers": [
  {
   "magFilter": 9729,
   "minFilter": 9987
  }
 ],
 "buffers": [
  {
   "byteLength": 14032,
   "uri": "prop_wreck_hatch_far.bin"
  }
 ]
}