{
 "asset": {
  "generator": "Khronos glTF Blender I/O v4.5.51",
  "version": "2.0"
 },
 "scene": 0,
 "scenes": [
  {
   "name": "Scene",
   "nodes": [
    0,
    1
   ]
  }
 ],
 "nodes": [
  {
   "mesh": 0,
   "name": "prop_phone_box"
  },
  {
   "mesh": 1,
   "name": "col_metal_1"
  }
 ],
 "materials": [
  {
   "doubleSided": true,
   "name": "prop_phone_box",
   "normalTexture": {
    "index": 0
   },
   "occlusionTexture": {
    "index": 1
   },
   "pbrMetallicRoughness": {
    "baseColorTexture": {
     "index": 2
    },
    "metallicRoughnessTexture": {
     "index": 1
    }
   }
  }
 ],
 "meshes": [
  {
   "name": "prop_phone_box",
   "primitives": [
    {
     "attributes": {
      "POSITION": 0,
      "NORMAL": 1,
      "TEXCOORD_0": 2
     },
     "indices": 3,
     "material": 0
    }
   ]
  },
  {
   "name": "col_metal_1",
   "primitives": [
    {
     "attributes": {
      "POSITION": 4,
      "NORMAL": 5,
      "TEXCOORD_0": 6
     },
     "indices": 7,
     "material": 0
    }
   ]
  }
 ],
 "textures": [
  {
   "sampler": 0,
   "source": 0
  },
  {
   "sampler": 0,
   "source": 1
  },
  {
   "sampler": 0,
   "source": 2
  }
 ],
 "images": [
  {
   "mimeType": "image/png",
   "name": "prop_phone_box_normal",
   "uri": "prop_phone_box_normal.png"
  },
  {
   "mimeType": "image/png",
   "name": "prop_phone_box_orm",
   "uri": "prop_phone_box_orm.png"
  },
  {
   "mimeType": "image/png",
   "name": "prop_phone_box_albedo",
   "uri": "prop_phone_box_albedo.png"
  }
 ],
 "accessors": [
  {
   "bufferView": 0,
   "componentType": 5126,
   "count": 15941,
   "max": [
    0.5299999713897705,
    2.4149999618530273,
    1.213072419166565
   ],
   "min": [
    -0.5299999713897705,
    -0.05999999865889549,
    -0.5299999713897705
   ],
   "type": "VEC3"
  },
  {
   "bufferView": 1,
   "componentType": 5126,
   "count": 15941,
   "type": "VEC3"
  },
  {
   "bufferView": 2,
   "componentType": 5126,
   "count": 15941,
   "type": "VEC2"
  },
  {
   "bufferView": 3,
   "componentType": 5123,
   "count": 31542,
   "type": "SCALAR"
  },
  {
   "bufferView": 4,
   "componentType": 5126,
   "count": 24,
   "max": [
    0.47999998927116394,
    2.4000000953674316,
    0.47999998927116394
   ],
   "min": [
    -0.47999998927116394,
    0,
    -0.47999998927116394
   ],
   "type": "VEC3"
  },
  {
   "bufferView": 5,
   "componentType": 5126,
   "count": 24,
   "type": "VEC3"
  },
  {
   "bufferView": 6,
   "componentType": 5126,
   "count": 24,
   "type": "VEC2"
  },
  {
   "bufferView": 7,
   "componentType": 5123,
   "count": 36,
   "type": "SCALAR"
  }
 ],
 "bufferViews": [
  {
   "buffer": 0,
   "byteLength": 191292,
   "byteOffset": 0,
   "target": 34962
  },
  {
   "buffer": 0,
   "byteLength": 191292,
   "byteOffset": 191292,
   "target": 34962
  },
  {
   "buffer": 0,
   "byteLength": 127528,
   "byteOffset": 382584,
   "target": 34962
  },
  {
   "buffer": 0,
   "byteLength": 63084,
   "byteOffset": 510112,
   "target": 34963
  },
  {
   "buffer": 0,
   "byteLength": 288,
   "byteOffset": 573196,
   "target": 34962
  },
  {
   "buffer": 0,
   "byteLength": 288,
   "byteOffset": 573484,
   "target": 34962
  },
  {
   "buffer": 0,
   "byteLength": 192,
   "byteOffset": 573772,
   "target": 34962
  },
  {
   "buffer": 0,
   "byteLength": 72,
   "byteOffset": 573964,
   "target": 34963
  }
 ],
 "samplers": [
  {
   "magFilter": 9729,
   "minFilter": 9987
  }
 ],
 "buffers": [
  {
   "byteLength": 574036,
   "uri": "prop_phone_box.bin"
  }
 ]
}