{
 "asset": {
  "generator": "Khronos glTF Blender I/O v4.5.51",
  "version": "2.0"
 },
 "scene": 0,
 "scenes": [
  {
   "name": "Scene",
   "nodes": [
    0,
    1,
    2,
    3
   ]
  }
 ],
 "nodes": [
  {
   "mesh": 0,
   "name": "post"
  },
  {
   "mesh": 1,
   "name": "detail"
  },
  {
   "mesh": 2,
   "name": "light_warm_1"
  },
  {
   "mesh": 3,
   "name": "col_wood_post_1"
  }
 ],
 "materials": [
  {
   "name": "painted_wood_white",
   "normalTexture": {
    "index": 0
   },
   "occlusionTexture": {
    "index": 1
   },
   "pbrMetallicRoughness": {
    "baseColorTexture": {
     "index": 2
    },
    "metallicRoughnessTexture": {
     "index": 1
    }
   }
  },
  {
   "name": "soot",
   "normalTexture": {
    "index": 3
   },
   "occlusionTexture": {
    "index": 4
   },
   "pbrMetallicRoughness": {
    "baseColorTexture": {
     "index": 5
    },
    "metallicRoughnessTexture": {
     "index": 4
    }
   }
  },
  {
   "name": "concrete",
   "normalTexture": {
    "index": 6
   },
   "occlusionTexture": {
    "index": 7
   },
   "pbrMetallicRoughness": {
    "baseColorTexture": {
     "index": 8
    },
    "metallicRoughnessTexture": {
     "index": 7
    }
   }
  },
  {
   "name": "loco_black",
   "normalTexture": {
    "index": 9
   },
   "occlusionTexture": {
    "index": 10
   },
   "pbrMetallicRoughness": {
    "baseColorTexture": {
     "index": 11
    },
    "metallicRoughnessTexture": {
     "index": 10
    }
   }
  },
  {
   "name": "rail_signs",
   "normalTexture": {
    "index": 12
   },
   "occlusionTexture": {
    "index": 13
   },
   "pbrMetallicRoughness": {
    "baseColorTexture": {
     "index": 14
    },
    "metallicRoughnessTexture": {
     "index": 13
    }
   }
  },
  {
   "name": "rust_iron",
   "normalTexture": {
    "index": 15
   },
   "occlusionTexture": {
    "index": 16
   },
   "pbrMetallicRoughness": {
    "baseColorTexture": {
     "index": 17
    },
    "metallicRoughnessTexture": {
     "index": 16
    }
   }
  }
 ],
 "meshes": [
  {
   "name": "post",
   "primitives": [
    {
     "attributes": {
      "POSITION": 0,
      "NORMAL": 1,
      "TEXCOORD_0": 2
     },
     "indices": 3,
     "material": 0
    },
    {
     "attributes": {
      "POSITION": 4,
      "NORMAL": 5,
      "TEXCOORD_0": 6
     },
     "indices": 3,
     "material": 1
    },
    {
     "attributes": {
      "POSITION": 7,
      "NORMAL": 8,
      "TEXCOORD_0": 9
     },
     "indices": 10,
     "material": 2
    },
    {
     "attributes": {
      "POSITION": 11,
      "NORMAL": 12,
      "TEXCOORD_0": 13
     },
     "indices": 14,
     "material": 3
    },
    {
     "attributes": {
      "POSITION": 15,
      "NORMAL": 16,
      "TEXCOORD_0": 17
     },
     "indices": 18,
     "material": 4
    }
   ]
  },
  {
   "name": "detail",
   "primitives": [
    {
     "attributes": {
      "POSITION": 19,
      "NORMAL": 20,
      "TEXCOORD_0": 21
     },
     "indices": 22,
     "material": 4
    },
    {
     "attributes": {
      "POSITION": 23,
      "NORMAL": 24,
      "TEXCOORD_0": 25
     },
     "indices": 26,
     "material": 3
    },
    {
     "attributes": {
      "POSITION": 27,
      "NORMAL": 28,
      "TEXCOORD_0": 29
     },
     "indices": 30,
     "material": 5
    }
   ]
  },
  {
   "name": "light_warm_1",
   "primitives": [
    {
     "attributes": {
      "POSITION": 31,
      "NORMAL": 32,
      "TEXCOORD_0": 33
     },
     "indices": 3,
     "material": 0
    }
   ]
  },
  {
   "name": "col_wood_post_1",
   "primitives": [
    {
     "attributes": {
      "POSITION": 34,
      "NORMAL": 35,
      "TEXCOORD_0": 36
     },
     "indices": 3,
     "material": 0
    }
   ]
  }
 ],
 "textures": [
  {
   "sampler": 0,
   "source": 0
  },
  {
   "sampler": 0,
   "source": 1
  },
  {
   "sampler": 0,
   "source": 2
  },
  {
   "sampler": 0,
   "source": 3
  },
  {
   "sampler": 0,
   "source": 4
  },
  {
   "sampler": 0,
   "source": 5
  },
  {
   "sampler": 0,
   "source": 6
  },
  {
   "sampler": 0,
   "source": 7
  },
  {
   "sampler": 0,
   "source": 8
  },
  {
   "sampler": 0,
   "source": 9
  },
  {
   "sampler": 0,
   "source": 10
  },
  {
   "sampler": 0,
   "source": 11
  },
  {
   "sampler": 0,
   "source": 12
  },
  {
   "sampler": 0,
   "source": 13
  },
  {
   "sampler": 0,
   "source": 14
  },
  {
   "sampler": 0,
   "source": 15
  },
  {
   "sampler": 0,
   "source": 16
  },
  {
   "sampler": 0,
   "source": 17
  }
 ],
 "images": [
  {
   "mimeType": "image/png",
   "name": "painted_wood_white_normal.png",
   "uri": "../_library/painted_wood_white_normal.png"
  },
  {
   "mimeType": "image/png",
   "name": "painted_wood_white_orm.png",
   "uri": "../_library/painted_wood_white_orm.png"
  },
  {
   "mimeType": "image/png",
   "name": "painted_wood_white_albedo.png",
   "uri": "../_library/painted_wood_white_albedo.png"
  },
  {
   "mimeType": "image/png",
   "name": "soot_normal.png",
   "uri": "../_library/soot_normal.png"
  },
  {
   "mimeType": "image/png",
   "name": "soot_orm.png",
   "uri": "../_library/soot_orm.png"
  },
  {
   "mimeType": "image/png",
   "name": "soot_albedo.png",
   "uri": "../_library/soot_albedo.png"
  },
  {
   "mimeType": "image/png",
   "name": "concrete_normal.png",
   "uri": "../_library/concrete_normal.png"
  },
  {
   "mimeType": "image/png",
   "name": "concrete_orm.png",
   "uri": "../_library/concrete_orm.png"
  },
  {
   "mimeType": "image/png",
   "name": "concrete_albedo.png",
   "uri": "../_library/concrete_albedo.png"
  },
  {
   "mimeType": "image/png",
   "name": "loco_black_normal.png",
   "uri": "../_library/loco_black_normal.png"
  },
  {
   "mimeType": "image/png",
   "name": "loco_black_orm.png",
   "uri": "../_library/loco_black_orm.png"
  },
  {
   "mimeType": "image/png",
   "name": "loco_black_albedo.png",
   "uri": "../_library/loco_black_albedo.png"
  },
  {
   "mimeType": "image/png",
   "name": "rail_signs_normal.png",
   "uri": "../_library/rail_signs_normal.png"
  },
  {
   "mimeType": "image/png",
   "name": "rail_signs_orm.png",
   "uri": "../_library/rail_signs_orm.png"
  },
  {
   "mimeType": "image/png",
   "name": "rail_signs_albedo.png",
   "uri": "../_library/rail_signs_albedo.png"
  },
  {
   "mimeType": "image/png",
   "name": "rust_iron_normal.png",
   "uri": "../_library/rust_iron_normal.png"
  },
  {
   "mimeType": "image/png",
   "name": "rust_iron_orm.png",
   "uri": "../_library/rust_iron_orm.png"
  },
  {
   "mimeType": "image/png",
   "name": "rust_iron_albedo.png",
   "uri": "../_library/rust_iron_albedo.png"
  }
 ],
 "accessors": [
  {
   "bufferView": 0,
   "componentType": 5126,
   "count": 24,
   "max": [
    0.10999999940395355,
    7,
    0.10999999940395355
   ],
   "min": [
    -0.10999999940395355,
    0,
    -0.10999999940395355
   ],
   "type": "VEC3"
  },
  {
   "bufferView": 1,
   "componentType": 5126,
   "count": 24,
   "type": "VEC3"
  },
  {
   "bufferView": 2,
   "componentType": 5126,
   "count": 24,
   "type": "VEC2"
  },
  {
   "bufferView": 3,
   "componentType": 5123,
   "count": 36,
   "type": "SCALAR"
  },
  {
   "bufferView": 4,
   "componentType": 5126,
   "count": 24,
   "max": [
    0.11599999666213989,
    1.149999976158142,
    0.11599999666213989
   ],
   "min": [
    -0.11599999666213989,
    0,
    -0.11599999666213989
   ],
   "type": "VEC3"
  },
  {
   "bufferView": 5,
   "componentType": 5126,
   "count": 24,
   "type": "VEC3"
  },
  {
   "bufferView": 6,
   "componentType": 5126,
   "count": 24,
   "type": "VEC2"
  },
  {
   "bufferView": 7,
   "componentType": 5126,
   "count": 64,
   "max": [
    0.30000001192092896,
    0.050000011920928955,
    0.30000001192092896
   ],
   "min": [
    -0.30000001192092896,
    -0.6000000238418579,
    -0.30000001192092896
   ],
   "type": "VEC3"
  },
  {
   "bufferView": 8,
   "componentType": 5126,
   "count": 64,
   "type": "VEC3"
  },
  {
   "bufferView": 9,
   "componentType": 5126,
   "count": 64,
   "type": "VEC2"
  },
  {
   "bufferView": 10,
   "componentType": 5123,
   "count": 132,
   "type": "SCALAR"
  },
  {
   "bufferView": 11,
   "componentType": 5126,
   "count": 24,
   "max": [
    0.20612949132919312,
    6.402431964874268,
    0.13699999451637268
   ],
   "min": [
    -1.0794200897216797,
    5.264790058135986,
    0.11299999803304672
   ],
   "type": "VEC3"
  },
  {
   "bufferView": 12,
   "componentType": 5126,
   "count": 24,
   "type": "VEC3"
  },
  {
   "bufferView": 13,
   "componentType": 5126,
   "count": 24,
   "type": "VEC2"
  },
  {
   "bufferView": 14,
   "componentType": 5123,
   "count": 36,
   "type": "SCALAR"
  },
  {
   "bufferView": 15,
   "componentType": 5126,
   "count": 8,
   "max": [
    0.20612949132919312,
    6.402431488037109,
    0.13850000500679016
   ],
   "min": [
    -1.0794200897216797,
    5.264790058135986,
    0.11150000244379044
   ],
   "type": "VEC3"
  },
  {
   "bufferView": 16,
   "componentType": 5126,
   "count": 8,
   "type": "VEC3"
  },
  {
   "bufferView": 17,
   "componentType": 5126,
   "count": 8,
   "type": "VEC2"
  },
  {
   "bufferView": 18,
   "componentType": 5123,
   "count": 12,
   "type": "SCALAR"
  },
  {
   "bufferView": 19,
   "componentType": 5126,
   "count": 274,
   "max": [
    0.4230000078678131,
    7.539999961853027,
    0.1289999932050705
   ],
   "min": [
    -0.10000000149011612,
    6.116999626159668,
    -0.09749279171228409
   ],
   "type": "VEC3"
  },
  {
   "bufferView": 20,
   "componentType": 5126,
   "count": 274,
   "type": "VEC3"
  },
  {
   "bufferView": 21,
   "componentType": 5126,
   "count": 274,
   "type": "VEC2"
  },
  {
   "bufferView": 22,
   "componentType": 5123,
   "count": 900,
   "type": "SCALAR"
  },
  {
   "bufferView": 23,
   "componentType": 5126,
   "count": 1735,
   "max": [
    0.4446004331111908,
    6.523148059844971,
    0.20000000298023224
   ],
   "min": [
    -0.4257904887199402,
    0.04716266319155693,
    -0.9723203778266907
   ],
   "type": "VEC3"
  },
  {
   "bufferView": 24,
   "componentType": 5126,
   "count": 1735,
   "type": "VEC3"
  },
  {
   "bufferView": 25,
   "componentType": 5126,
   "count": 1735,
   "type": "VEC2"
  },
  {
   "bufferView": 26,
   "componentType": 5123,
   "count": 3444,
   "type": "SCALAR"
  },
  {
   "bufferView": 27,
   "componentType": 5126,
   "count": 515,
   "max": [
    1.6005959510803223,
    6.280048370361328,
    0.7532916069030762
   ],
   "min": [
    -0.49000000953674316,
    0.09624544531106949,
    0.08365330100059509
   ],
   "type": "VEC3"
  },
  {
   "bufferView": 28,
   "componentType": 5126,
   "count": 515,
   "type": "VEC3"
  },
  {
   "bufferView": 29,
   "componentType": 5126,
   "count": 515,
   "type": "VEC2"
  },
  {
   "bufferView": 30,
   "componentType": 5123,
   "count": 1134,
   "type": "SCALAR"
  },
  {
   "bufferView": 31,
   "componentType": 5126,
   "count": 24,
   "max": [
    0.39000001549720764,
    6.25,
    0.1599999964237213
   ],
   "min": [
    0.28999999165534973,
    6.149999618530273,
    0.05999999865889549
   ],
   "type": "VEC3"
  },
  {
   "bufferView": 32,
   "componentType": 5126,
   "count": 24,
   "type": "VEC3"
  },
  {
   "bufferView": 33,
   "componentType": 5126,
   "count": 24,
   "type": "VEC2"
  },
  {
   "bufferView": 34,
   "componentType": 5126,
   "count": 24,
   "max": [
    0.10999999940395355,
    7,
    0.10999999940395355
   ],
   "min": [
    -0.10999999940395355,
    0,
    -0.10999999940395355
   ],
   "type": "VEC3"
  },
  {
   "bufferView": 35,
   "componentType": 5126,
   "count": 24,
   "type": "VEC3"
  },
  {
   "bufferView": 36,
   "componentType": 5126,
   "count": 24,
   "type": "VEC2"
  }
 ],
 "bufferViews": [
  {
   "buffer": 0,
   "byteLength": 288,
   "byteOffset": 0,
   "target": 34962
  },
  {
   "buffer": 0,
   "byteLength": 288,
   "byteOffset": 288,
   "target": 34962
  },
  {
   "buffer": 0,
   "byteLength": 192,
   "byteOffset": 576,
   "target": 34962
  },
  {
   "buffer": 0,
   "byteLength": 72,
   "byteOffset": 768,
   "target": 34963
  },
  {
   "buffer": 0,
   "byteLength": 288,
   "byteOffset": 840,
   "target": 34962
  },
  {
   "buffer": 0,
   "byteLength": 288,
   "byteOffset": 1128,
   "target": 34962
  },
  {
   "buffer": 0,
   "byteLength": 192,
   "byteOffset": 1416,
   "target": 34962
  },
  {
   "buffer": 0,
   "byteLength": 768,
   "byteOffset": 1608,
   "target": 34962
  },
  {
   "buffer": 0,
   "byteLength": 768,
   "byteOffset": 2376,
   "target": 34962
  },
  {
   "buffer": 0,
   "byteLength": 512,
   "byteOffset": 3144,
   "target": 34962
  },
  {
   "buffer": 0,
   "byteLength": 264,
   "byteOffset": 3656,
   "target": 34963
  },
  {
   "buffer": 0,
   "byteLength": 288,
   "byteOffset": 3920,
   "target": 34962
  },
  {
   "buffer": 0,
   "byteLength": 288,
   "byteOffset": 4208,
   "target": 34962
  },
  {
   "buffer": 0,
   "byteLength": 192,
   "byteOffset": 4496,
   "target": 34962
  },
  {
   "buffer": 0,
   "byteLength": 72,
   "byteOffset": 4688,
   "target": 34963
  },
  {
   "buffer": 0,
   "byteLength": 96,
   "byteOffset": 4760,
   "target": 34962
  },
  {
   "buffer": 0,
   "byteLength": 96,
   "byteOffset": 4856,
   "target": 34962
  },
  {
   "buffer": 0,
   "byteLength": 64,
   "byteOffset": 4952,
   "target": 34962
  },
  {
   "buffer": 0,
   "byteLength": 24,
   "byteOffset": 5016,
   "target": 34963
  },
  {
   "buffer": 0,
   "byteLength": 3288,
   "byteOffset": 5040,
   "target": 34962
  },
  {
   "buffer": 0,
   "byteLength": 3288,
   "byteOffset": 8328,
   "target": 34962
  },
  {
   "buffer": 0,
   "byteLength": 2192,
   "byteOffset": 11616,
   "target": 34962
  },
  {
   "buffer": 0,
   "byteLength": 1800,
   "byteOffset": 13808,
   "target": 34963
  },
  {
   "buffer": 0,
   "byteLength": 20820,
   "byteOffset": 15608,
   "target": 34962
  },
  {
   "buffer": 0,
   "byteLength": 20820,
   "byteOffset": 36428,
   "target": 34962
  },
  {
   "buffer": 0,
   "byteLength": 13880,
   "byteOffset": 57248,
   "target": 34962
  },
  {
   "buffer": 0,
   "byteLength": 6888,
   "byteOffset": 71128,
   "target": 34963
  },
  {
   "buffer": 0,
   "byteLength": 6180,
   "byteOffset": 78016,
   "target": 34962
  },
  {
   "buffer": 0,
   "byteLength": 6180,
   "byteOffset": 84196,
   "target": 34962
  },
  {
   "buffer": 0,
   "byteLength": 4120,
   "byteOffset": 90376,
   "target": 34962
  },
  {
   "buffer": 0,
   "byteLength": 2268,
   "byteOffset": 94496,
   "target": 34963
  },
  {
   "buffer": 0,
   "byteLength": 288,
   "byteOffset": 96764,
   "target": 34962
  },
  {
   "buffer": 0,
   "byteLength": 288,
   "byteOffset": 97052,
   "target": 34962
  },
  {
   "buffer": 0,
   "byteLength": 192,
   "byteOffset": 97340,
   "target": 34962
  },
  {
   "buffer": 0,
   "byteLength": 288,
   "byteOffset": 97532,
   "target": 34962
  },
  {
   "buffer": 0,
   "byteLength": 288,
   "byteOffset": 97820,
   "target": 34962
  },
  {
   "buffer": 0,
   "byteLength": 192,
   "byteOffset": 98108,
   "target": 34962
  }
 ],
 "samplers": [
  {
   "magFilter": 9729,
   "minFilter": 9987
  }
 ],
 "buffers": [
  {
   "byteLength": 98300,
   "uri": "rail_signal.bin"
  }
 ]
}