{
	"asset":{
		"generator":"Khronos glTF Blender I/O v4.5.51",
		"version":"2.0"
	},
	"scene":0,
	"scenes":[
		{
			"name":"Scene",
			"nodes":[
				0,
				1,
				2,
				3,
				4,
				5,
				6,
				7,
				8,
				9,
				10,
				11,
				12,
				13,
				14,
				15,
				16,
				17,
				18,
				19,
				20,
				21,
				22,
				23,
				24,
				25,
				26,
				27
			]
		}
	],
	"nodes":[
		{
			"mesh":0,
			"name":"twig_foundation"
		},
		{
			"mesh":1,
			"name":"twig_wall"
		},
		{
			"mesh":2,
			"name":"twig_doorway"
		},
		{
			"mesh":3,
			"name":"twig_window"
		},
		{
			"mesh":4,
			"name":"twig_floor"
		},
		{
			"mesh":5,
			"name":"twig_stairs"
		},
		{
			"mesh":6,
			"name":"twig_roof"
		},
		{
			"mesh":7,
			"name":"wood_foundation"
		},
		{
			"mesh":8,
			"name":"wood_wall"
		},
		{
			"mesh":9,
			"name":"wood_doorway"
		},
		{
			"mesh":10,
			"name":"wood_window"
		},
		{
			"mesh":11,
			"name":"wood_floor"
		},
		{
			"mesh":12,
			"name":"wood_stairs"
		},
		{
			"mesh":13,
			"name":"wood_roof"
		},
		{
			"mesh":14,
			"name":"stone_foundation"
		},
		{
			"mesh":15,
			"name":"stone_wall"
		},
		{
			"mesh":16,
			"name":"stone_doorway"
		},
		{
			"mesh":17,
			"name":"stone_window"
		},
		{
			"mesh":18,
			"name":"stone_floor"
		},
		{
			"mesh":19,
			"name":"stone_stairs"
		},
		{
			"mesh":20,
			"name":"stone_roof"
		},
		{
			"mesh":21,
			"name":"metal_foundation"
		},
		{
			"mesh":22,
			"name":"metal_wall"
		},
		{
			"mesh":23,
			"name":"metal_doorway"
		},
		{
			"mesh":24,
			"name":"metal_window"
		},
		{
			"mesh":25,
			"name":"metal_floor"
		},
		{
			"mesh":26,
			"name":"metal_stairs"
		},
		{
			"mesh":27,
			"name":"metal_roof"
		}
	],
	"materials":[
		{
			"doubleSided":true,
			"name":"twig_foundation_baked",
			"normalTexture":{
				"index":0
			},
			"occlusionTexture":{
				"index":1
			},
			"pbrMetallicRoughness":{
				"baseColorTexture":{
					"index":2
				},
				"metallicRoughnessTexture":{
					"index":1
				}
			}
		},
		{
			"doubleSided":true,
			"name":"twig_wall_baked",
			"normalTexture":{
				"index":3
			},
			"occlusionTexture":{
				"index":4
			},
			"pbrMetallicRoughness":{
				"baseColorTexture":{
					"index":5
				},
				"metallicRoughnessTexture":{
					"index":4
				}
			}
		},
		{
			"doubleSided":true,
			"name":"twig_doorway_baked",
			"normalTexture":{
				"index":6
			},
			"occlusionTexture":{
				"index":7
			},
			"pbrMetallicRoughness":{
				"baseColorTexture":{
					"index":8
				},
				"metallicRoughnessTexture":{
					"index":7
				}
			}
		},
		{
			"doubleSided":true,
			"name":"twig_window_baked",
			"normalTexture":{
				"index":9
			},
			"occlusionTexture":{
				"index":10
			},
			"pbrMetallicRoughness":{
				"baseColorTexture":{
					"index":11
				},
				"metallicRoughnessTexture":{
					"index":10
				}
			}
		},
		{
			"doubleSided":true,
			"name":"twig_floor_baked",
			"normalTexture":{
				"index":12
			},
			"occlusionTexture":{
				"index":13
			},
			"pbrMetallicRoughness":{
				"baseColorTexture":{
					"index":14
				},
				"metallicRoughnessTexture":{
					"index":13
				}
			}
		},
		{
			"doubleSided":true,
			"name":"twig_stairs_baked",
			"normalTexture":{
				"index":15
			},
			"occlusionTexture":{
				"index":16
			},
			"pbrMetallicRoughness":{
				"baseColorTexture":{
					"index":17
				},
				"metallicRoughnessTexture":{
					"index":16
				}
			}
		},
		{
			"doubleSided":true,
			"name":"twig_roof_baked",
			"normalTexture":{
				"index":18
			},
			"occlusionTexture":{
				"index":19
			},
			"pbrMetallicRoughness":{
				"baseColorTexture":{
					"index":20
				},
				"metallicRoughnessTexture":{
					"index":19
				}
			}
		},
		{
			"doubleSided":true,
			"name":"wood_foundation_baked",
			"normalTexture":{
				"index":21
			},
			"occlusionTexture":{
				"index":22
			},
			"pbrMetallicRoughness":{
				"baseColorTexture":{
					"index":23
				},
				"metallicRoughnessTexture":{
					"index":22
				}
			}
		},
		{
			"doubleSided":true,
			"name":"wood_wall_baked",
			"normalTexture":{
				"index":24
			},
			"occlusionTexture":{
				"index":25
			},
			"pbrMetallicRoughness":{
				"baseColorTexture":{
					"index":26
				},
				"metallicRoughnessTexture":{
					"index":25
				}
			}
		},
		{
			"doubleSided":true,
			"name":"wood_doorway_baked",
			"normalTexture":{
				"index":27
			},
			"occlusionTexture":{
				"index":28
			},
			"pbrMetallicRoughness":{
				"baseColorTexture":{
					"index":29
				},
				"metallicRoughnessTexture":{
					"index":28
				}
			}
		},
		{
			"doubleSided":true,
			"name":"wood_window_baked",
			"normalTexture":{
				"index":30
			},
			"occlusionTexture":{
				"index":31
			},
			"pbrMetallicRoughness":{
				"baseColorTexture":{
					"index":32
				},
				"metallicRoughnessTexture":{
					"index":31
				}
			}
		},
		{
			"doubleSided":true,
			"name":"wood_floor_baked",
			"normalTexture":{
				"index":33
			},
			"occlusionTexture":{
				"index":34
			},
			"pbrMetallicRoughness":{
				"baseColorTexture":{
					"index":35
				},
				"metallicRoughnessTexture":{
					"index":34
				}
			}
		},
		{
			"doubleSided":true,
			"name":"wood_stairs_baked",
			"normalTexture":{
				"index":36
			},
			"occlusionTexture":{
				"index":37
			},
			"pbrMetallicRoughness":{
				"baseColorTexture":{
					"index":38
				},
				"metallicRoughnessTexture":{
					"index":37
				}
			}
		},
		{
			"doubleSided":true,
			"name":"wood_roof_baked",
			"normalTexture":{
				"index":39
			},
			"occlusionTexture":{
				"index":40
			},
			"pbrMetallicRoughness":{
				"baseColorTexture":{
					"index":41
				},
				"metallicRoughnessTexture":{
					"index":40
				}
			}
		},
		{
			"doubleSided":true,
			"name":"stone_foundation_baked",
			"normalTexture":{
				"index":42
			},
			"occlusionTexture":{
				"index":43
			},
			"pbrMetallicRoughness":{
				"baseColorTexture":{
					"index":44
				},
				"metallicRoughnessTexture":{
					"index":43
				}
			}
		},
		{
			"doubleSided":true,
			"name":"stone_wall_baked",
			"normalTexture":{
				"index":45
			},
			"occlusionTexture":{
				"index":46
			},
			"pbrMetallicRoughness":{
				"baseColorTexture":{
					"index":47
				},
				"metallicRoughnessTexture":{
					"index":46
				}
			}
		},
		{
			"doubleSided":true,
			"name":"stone_doorway_baked",
			"normalTexture":{
				"index":48
			},
			"occlusionTexture":{
				"index":49
			},
			"pbrMetallicRoughness":{
				"baseColorTexture":{
					"index":50
				},
				"metallicRoughnessTexture":{
					"index":49
				}
			}
		},
		{
			"doubleSided":true,
			"name":"stone_window_baked",
			"normalTexture":{
				"index":51
			},
			"occlusionTexture":{
				"index":52
			},
			"pbrMetallicRoughness":{
				"baseColorTexture":{
					"index":53
				},
				"metallicRoughnessTexture":{
					"index":52
				}
			}
		},
		{
			"doubleSided":true,
			"name":"stone_floor_baked",
			"normalTexture":{
				"index":54
			},
			"occlusionTexture":{
				"index":55
			},
			"pbrMetallicRoughness":{
				"baseColorTexture":{
					"index":56
				},
				"metallicRoughnessTexture":{
					"index":55
				}
			}
		},
		{
			"doubleSided":true,
			"name":"stone_stairs_baked",
			"normalTexture":{
				"index":57
			},
			"occlusionTexture":{
				"index":58
			},
			"pbrMetallicRoughness":{
				"baseColorTexture":{
					"index":59
				},
				"metallicRoughnessTexture":{
					"index":58
				}
			}
		},
		{
			"doubleSided":true,
			"name":"stone_roof_baked",
			"normalTexture":{
				"index":60
			},
			"occlusionTexture":{
				"index":61
			},
			"pbrMetallicRoughness":{
				"baseColorTexture":{
					"index":62
				},
				"metallicRoughnessTexture":{
					"index":61
				}
			}
		},
		{
			"doubleSided":true,
			"name":"metal_foundation_baked",
			"normalTexture":{
				"index":63
			},
			"occlusionTexture":{
				"index":64
			},
			"pbrMetallicRoughness":{
				"baseColorTexture":{
					"index":65
				},
				"metallicRoughnessTexture":{
					"index":64
				}
			}
		},
		{
			"doubleSided":true,
			"name":"metal_wall_baked",
			"normalTexture":{
				"index":66
			},
			"occlusionTexture":{
				"index":67
			},
			"pbrMetallicRoughness":{
				"baseColorTexture":{
					"index":68
				},
				"metallicRoughnessTexture":{
					"index":67
				}
			}
		},
		{
			"doubleSided":true,
			"name":"metal_doorway_baked",
			"normalTexture":{
				"index":69
			},
			"occlusionTexture":{
				"index":70
			},
			"pbrMetallicRoughness":{
				"baseColorTexture":{
					"index":71
				},
				"metallicRoughnessTexture":{
					"index":70
				}
			}
		},
		{
			"doubleSided":true,
			"name":"metal_window_baked",
			"normalTexture":{
				"index":72
			},
			"occlusionTexture":{
				"index":73
			},
			"pbrMetallicRoughness":{
				"baseColorTexture":{
					"index":74
				},
				"metallicRoughnessTexture":{
					"index":73
				}
			}
		},
		{
			"doubleSided":true,
			"name":"metal_floor_baked",
			"normalTexture":{
				"index":75
			},
			"occlusionTexture":{
				"index":76
			},
			"pbrMetallicRoughness":{
				"baseColorTexture":{
					"index":77
				},
				"metallicRoughnessTexture":{
					"index":76
				}
			}
		},
		{
			"doubleSided":true,
			"name":"metal_stairs_baked",
			"normalTexture":{
				"index":78
			},
			"occlusionTexture":{
				"index":79
			},
			"pbrMetallicRoughness":{
				"baseColorTexture":{
					"index":80
				},
				"metallicRoughnessTexture":{
					"index":79
				}
			}
		},
		{
			"doubleSided":true,
			"name":"metal_roof_baked",
			"normalTexture":{
				"index":81
			},
			"occlusionTexture":{
				"index":82
			},
			"pbrMetallicRoughness":{
				"baseColorTexture":{
					"index":83
				},
				"metallicRoughnessTexture":{
					"index":82
				}
			}
		}
	],
	"meshes":[
		{
			"name":"twig_foundation",
			"primitives":[
				{
					"attributes":{
						"POSITION":0,
						"NORMAL":1,
						"TEXCOORD_0":2
					},
					"indices":3,
					"material":0
				}
			]
		},
		{
			"name":"twig_wall",
			"primitives":[
				{
					"attributes":{
						"POSITION":4,
						"NORMAL":5,
						"TEXCOORD_0":6
					},
					"indices":7,
					"material":1
				}
			]
		},
		{
			"name":"twig_doorway",
			"primitives":[
				{
					"attributes":{
						"POSITION":8,
						"NORMAL":9,
						"TEXCOORD_0":10
					},
					"indices":11,
					"material":2
				}
			]
		},
		{
			"name":"twig_window",
			"primitives":[
				{
					"attributes":{
						"POSITION":12,
						"NORMAL":13,
						"TEXCOORD_0":14
					},
					"indices":15,
					"material":3
				}
			]
		},
		{
			"name":"twig_floor",
			"primitives":[
				{
					"attributes":{
						"POSITION":16,
						"NORMAL":17,
						"TEXCOORD_0":18
					},
					"indices":19,
					"material":4
				}
			]
		},
		{
			"name":"twig_stairs",
			"primitives":[
				{
					"attributes":{
						"POSITION":20,
						"NORMAL":21,
						"TEXCOORD_0":22
					},
					"indices":23,
					"material":5
				}
			]
		},
		{
			"name":"twig_roof",
			"primitives":[
				{
					"attributes":{
						"POSITION":24,
						"NORMAL":25,
						"TEXCOORD_0":26
					},
					"indices":27,
					"material":6
				}
			]
		},
		{
			"name":"wood_foundation",
			"primitives":[
				{
					"attributes":{
						"POSITION":28,
						"NORMAL":29,
						"TEXCOORD_0":30
					},
					"indices":31,
					"material":7
				}
			]
		},
		{
			"name":"wood_wall",
			"primitives":[
				{
					"attributes":{
						"POSITION":32,
						"NORMAL":33,
						"TEXCOORD_0":34
					},
					"indices":35,
					"material":8
				}
			]
		},
		{
			"name":"wood_doorway",
			"primitives":[
				{
					"attributes":{
						"POSITION":36,
						"NORMAL":37,
						"TEXCOORD_0":38
					},
					"indices":39,
					"material":9
				}
			]
		},
		{
			"name":"wood_window",
			"primitives":[
				{
					"attributes":{
						"POSITION":40,
						"NORMAL":41,
						"TEXCOORD_0":42
					},
					"indices":43,
					"material":10
				}
			]
		},
		{
			"name":"wood_floor",
			"primitives":[
				{
					"attributes":{
						"POSITION":44,
						"NORMAL":45,
						"TEXCOORD_0":46
					},
					"indices":47,
					"material":11
				}
			]
		},
		{
			"name":"wood_stairs",
			"primitives":[
				{
					"attributes":{
						"POSITION":48,
						"NORMAL":49,
						"TEXCOORD_0":50
					},
					"indices":51,
					"material":12
				}
			]
		},
		{
			"name":"wood_roof",
			"primitives":[
				{
					"attributes":{
						"POSITION":52,
						"NORMAL":53,
						"TEXCOORD_0":54
					},
					"indices":55,
					"material":13
				}
			]
		},
		{
			"name":"stone_foundation",
			"primitives":[
				{
					"attributes":{
						"POSITION":56,
						"NORMAL":57,
						"TEXCOORD_0":58
					},
					"indices":59,
					"material":14
				}
			]
		},
		{
			"name":"stone_wall",
			"primitives":[
				{
					"attributes":{
						"POSITION":60,
						"NORMAL":61,
						"TEXCOORD_0":62
					},
					"indices":63,
					"material":15
				}
			]
		},
		{
			"name":"stone_doorway",
			"primitives":[
				{
					"attributes":{
						"POSITION":64,
						"NORMAL":65,
						"TEXCOORD_0":66
					},
					"indices":67,
					"material":16
				}
			]
		},
		{
			"name":"stone_window",
			"primitives":[
				{
					"attributes":{
						"POSITION":68,
						"NORMAL":69,
						"TEXCOORD_0":70
					},
					"indices":71,
					"material":17
				}
			]
		},
		{
			"name":"stone_floor",
			"primitives":[
				{
					"attributes":{
						"POSITION":72,
						"NORMAL":73,
						"TEXCOORD_0":74
					},
					"indices":75,
					"material":18
				}
			]
		},
		{
			"name":"stone_stairs",
			"primitives":[
				{
					"attributes":{
						"POSITION":76,
						"NORMAL":77,
						"TEXCOORD_0":78
					},
					"indices":79,
					"material":19
				}
			]
		},
		{
			"name":"stone_roof",
			"primitives":[
				{
					"attributes":{
						"POSITION":80,
						"NORMAL":81,
						"TEXCOORD_0":82
					},
					"indices":83,
					"material":20
				}
			]
		},
		{
			"name":"metal_foundation",
			"primitives":[
				{
					"attributes":{
						"POSITION":84,
						"NORMAL":85,
						"TEXCOORD_0":86
					},
					"indices":87,
					"material":21
				}
			]
		},
		{
			"name":"metal_wall",
			"primitives":[
				{
					"attributes":{
						"POSITION":88,
						"NORMAL":89,
						"TEXCOORD_0":90
					},
					"indices":91,
					"material":22
				}
			]
		},
		{
			"name":"metal_doorway",
			"primitives":[
				{
					"attributes":{
						"POSITION":92,
						"NORMAL":93,
						"TEXCOORD_0":94
					},
					"indices":95,
					"material":23
				}
			]
		},
		{
			"name":"metal_window",
			"primitives":[
				{
					"attributes":{
						"POSITION":96,
						"NORMAL":97,
						"TEXCOORD_0":98
					},
					"indices":99,
					"material":24
				}
			]
		},
		{
			"name":"metal_floor",
			"primitives":[
				{
					"attributes":{
						"POSITION":100,
						"NORMAL":101,
						"TEXCOORD_0":102
					},
					"indices":103,
					"material":25
				}
			]
		},
		{
			"name":"metal_stairs",
			"primitives":[
				{
					"attributes":{
						"POSITION":104,
						"NORMAL":105,
						"TEXCOORD_0":106
					},
					"indices":107,
					"material":26
				}
			]
		},
		{
			"name":"metal_roof",
			"primitives":[
				{
					"attributes":{
						"POSITION":108,
						"NORMAL":109,
						"TEXCOORD_0":110
					},
					"indices":111,
					"material":27
				}
			]
		}
	],
	"textures":[
		{
			"sampler":0,
			"source":0
		},
		{
			"sampler":0,
			"source":1
		},
		{
			"sampler":0,
			"source":2
		},
		{
			"sampler":0,
			"source":3
		},
		{
			"sampler":0,
			"source":4
		},
		{
			"sampler":0,
			"source":5
		},
		{
			"sampler":0,
			"source":6
		},
		{
			"sampler":0,
			"source":7
		},
		{
			"sampler":0,
			"source":8
		},
		{
			"sampler":0,
			"source":9
		},
		{
			"sampler":0,
			"source":10
		},
		{
			"sampler":0,
			"source":11
		},
		{
			"sampler":0,
			"source":12
		},
		{
			"sampler":0,
			"source":13
		},
		{
			"sampler":0,
			"source":14
		},
		{
			"sampler":0,
			"source":15
		},
		{
			"sampler":0,
			"source":16
		},
		{
			"sampler":0,
			"source":17
		},
		{
			"sampler":0,
			"source":18
		},
		{
			"sampler":0,
			"source":19
		},
		{
			"sampler":0,
			"source":20
		},
		{
			"sampler":0,
			"source":21
		},
		{
			"sampler":0,
			"source":22
		},
		{
			"sampler":0,
			"source":23
		},
		{
			"sampler":0,
			"source":24
		},
		{
			"sampler":0,
			"source":25
		},
		{
			"sampler":0,
			"source":26
		},
		{
			"sampler":0,
			"source":27
		},
		{
			"sampler":0,
			"source":28
		},
		{
			"sampler":0,
			"source":29
		},
		{
			"sampler":0,
			"source":30
		},
		{
			"sampler":0,
			"source":31
		},
		{
			"sampler":0,
			"source":32
		},
		{
			"sampler":0,
			"source":33
		},
		{
			"sampler":0,
			"source":34
		},
		{
			"sampler":0,
			"source":35
		},
		{
			"sampler":0,
			"source":36
		},
		{
			"sampler":0,
			"source":37
		},
		{
			"sampler":0,
			"source":38
		},
		{
			"sampler":0,
			"source":39
		},
		{
			"sampler":0,
			"source":40
		},
		{
			"sampler":0,
			"source":41
		},
		{
			"sampler":0,
			"source":42
		},
		{
			"sampler":0,
			"source":43
		},
		{
			"sampler":0,
			"source":44
		},
		{
			"sampler":0,
			"source":45
		},
		{
			"sampler":0,
			"source":46
		},
		{
			"sampler":0,
			"source":47
		},
		{
			"sampler":0,
			"source":48
		},
		{
			"sampler":0,
			"source":49
		},
		{
			"sampler":0,
			"source":50
		},
		{
			"sampler":0,
			"source":51
		},
		{
			"sampler":0,
			"source":52
		},
		{
			"sampler":0,
			"source":53
		},
		{
			"sampler":0,
			"source":54
		},
		{
			"sampler":0,
			"source":55
		},
		{
			"sampler":0,
			"source":56
		},
		{
			"sampler":0,
			"source":57
		},
		{
			"sampler":0,
			"source":58
		},
		{
			"sampler":0,
			"source":59
		},
		{
			"sampler":0,
			"source":60
		},
		{
			"sampler":0,
			"source":61
		},
		{
			"sampler":0,
			"source":62
		},
		{
			"sampler":0,
			"source":63
		},
		{
			"sampler":0,
			"source":64
		},
		{
			"sampler":0,
			"source":65
		},
		{
			"sampler":0,
			"source":66
		},
		{
			"sampler":0,
			"source":67
		},
		{
			"sampler":0,
			"source":68
		},
		{
			"sampler":0,
			"source":69
		},
		{
			"sampler":0,
			"source":70
		},
		{
			"sampler":0,
			"source":71
		},
		{
			"sampler":0,
			"source":72
		},
		{
			"sampler":0,
			"source":73
		},
		{
			"sampler":0,
			"source":74
		},
		{
			"sampler":0,
			"source":75
		},
		{
			"sampler":0,
			"source":76
		},
		{
			"sampler":0,
			"source":77
		},
		{
			"sampler":0,
			"source":78
		},
		{
			"sampler":0,
			"source":79
		},
		{
			"sampler":0,
			"source":80
		},
		{
			"sampler":0,
			"source":81
		},
		{
			"sampler":0,
			"source":82
		},
		{
			"sampler":0,
			"source":83
		}
	],
	"images":[
		{
			"mimeType":"image/png",
			"name":"twig_foundation_normal",
			"uri":"twig_foundation_normal.png"
		},
		{
			"mimeType":"image/png",
			"name":"twig_foundation_orm",
			"uri":"twig_foundation_orm.png"
		},
		{
			"mimeType":"image/png",
			"name":"twig_foundation_albedo",
			"uri":"twig_foundation_albedo.png"
		},
		{
			"mimeType":"image/png",
			"name":"twig_wall_normal",
			"uri":"twig_wall_normal.png"
		},
		{
			"mimeType":"image/png",
			"name":"twig_wall_orm",
			"uri":"twig_wall_orm.png"
		},
		{
			"mimeType":"image/png",
			"name":"twig_wall_albedo",
			"uri":"twig_wall_albedo.png"
		},
		{
			"mimeType":"image/png",
			"name":"twig_doorway_normal",
			"uri":"twig_doorway_normal.png"
		},
		{
			"mimeType":"image/png",
			"name":"twig_doorway_orm",
			"uri":"twig_doorway_orm.png"
		},
		{
			"mimeType":"image/png",
			"name":"twig_doorway_albedo",
			"uri":"twig_doorway_albedo.png"
		},
		{
			"mimeType":"image/png",
			"name":"twig_window_normal",
			"uri":"twig_window_normal.png"
		},
		{
			"mimeType":"image/png",
			"name":"twig_window_orm",
			"uri":"twig_window_orm.png"
		},
		{
			"mimeType":"image/png",
			"name":"twig_window_albedo",
			"uri":"twig_window_albedo.png"
		},
		{
			"mimeType":"image/png",
			"name":"twig_floor_normal",
			"uri":"twig_floor_normal.png"
		},
		{
			"mimeType":"image/png",
			"name":"twig_floor_orm",
			"uri":"twig_floor_orm.png"
		},
		{
			"mimeType":"image/png",
			"name":"twig_floor_albedo",
			"uri":"twig_floor_albedo.png"
		},
		{
			"mimeType":"image/png",
			"name":"twig_stairs_normal",
			"uri":"twig_stairs_normal.png"
		},
		{
			"mimeType":"image/png",
			"name":"twig_stairs_orm",
			"uri":"twig_stairs_orm.png"
		},
		{
			"mimeType":"image/png",
			"name":"twig_stairs_albedo",
			"uri":"twig_stairs_albedo.png"
		},
		{
			"mimeType":"image/png",
			"name":"twig_roof_normal",
			"uri":"twig_roof_normal.png"
		},
		{
			"mimeType":"image/png",
			"name":"twig_roof_orm",
			"uri":"twig_roof_orm.png"
		},
		{
			"mimeType":"image/png",
			"name":"twig_roof_albedo",
			"uri":"twig_roof_albedo.png"
		},
		{
			"mimeType":"image/png",
			"name":"wood_foundation_normal",
			"uri":"wood_foundation_normal.png"
		},
		{
			"mimeType":"image/png",
			"name":"wood_foundation_orm",
			"uri":"wood_foundation_orm.png"
		},
		{
			"mimeType":"image/png",
			"name":"wood_foundation_albedo",
			"uri":"wood_foundation_albedo.png"
		},
		{
			"mimeType":"image/png",
			"name":"wood_wall_normal",
			"uri":"wood_wall_normal.png"
		},
		{
			"mimeType":"image/png",
			"name":"wood_wall_orm",
			"uri":"wood_wall_orm.png"
		},
		{
			"mimeType":"image/png",
			"name":"wood_wall_albedo",
			"uri":"wood_wall_albedo.png"
		},
		{
			"mimeType":"image/png",
			"name":"wood_doorway_normal",
			"uri":"wood_doorway_normal.png"
		},
		{
			"mimeType":"image/png",
			"name":"wood_doorway_orm",
			"uri":"wood_doorway_orm.png"
		},
		{
			"mimeType":"image/png",
			"name":"wood_doorway_albedo",
			"uri":"wood_doorway_albedo.png"
		},
		{
			"mimeType":"image/png",
			"name":"wood_window_normal",
			"uri":"wood_window_normal.png"
		},
		{
			"mimeType":"image/png",
			"name":"wood_window_orm",
			"uri":"wood_window_orm.png"
		},
		{
			"mimeType":"image/png",
			"name":"wood_window_albedo",
			"uri":"wood_window_albedo.png"
		},
		{
			"mimeType":"image/png",
			"name":"wood_floor_normal",
			"uri":"wood_floor_normal.png"
		},
		{
			"mimeType":"image/png",
			"name":"wood_floor_orm",
			"uri":"wood_floor_orm.png"
		},
		{
			"mimeType":"image/png",
			"name":"wood_floor_albedo",
			"uri":"wood_floor_albedo.png"
		},
		{
			"mimeType":"image/png",
			"name":"wood_stairs_normal",
			"uri":"wood_stairs_normal.png"
		},
		{
			"mimeType":"image/png",
			"name":"wood_stairs_orm",
			"uri":"wood_stairs_orm.png"
		},
		{
			"mimeType":"image/png",
			"name":"wood_stairs_albedo",
			"uri":"wood_stairs_albedo.png"
		},
		{
			"mimeType":"image/png",
			"name":"wood_roof_normal",
			"uri":"wood_roof_normal.png"
		},
		{
			"mimeType":"image/png",
			"name":"wood_roof_orm",
			"uri":"wood_roof_orm.png"
		},
		{
			"mimeType":"image/png",
			"name":"wood_roof_albedo",
			"uri":"wood_roof_albedo.png"
		},
		{
			"mimeType":"image/png",
			"name":"stone_foundation_normal",
			"uri":"stone_foundation_normal.png"
		},
		{
			"mimeType":"image/png",
			"name":"stone_foundation_orm",
			"uri":"stone_foundation_orm.png"
		},
		{
			"mimeType":"image/png",
			"name":"stone_foundation_albedo",
			"uri":"stone_foundation_albedo.png"
		},
		{
			"mimeType":"image/png",
			"name":"stone_wall_normal",
			"uri":"stone_wall_normal.png"
		},
		{
			"mimeType":"image/png",
			"name":"stone_wall_orm",
			"uri":"stone_wall_orm.png"
		},
		{
			"mimeType":"image/png",
			"name":"stone_wall_albedo",
			"uri":"stone_wall_albedo.png"
		},
		{
			"mimeType":"image/png",
			"name":"stone_doorway_normal",
			"uri":"stone_doorway_normal.png"
		},
		{
			"mimeType":"image/png",
			"name":"stone_doorway_orm",
			"uri":"stone_doorway_orm.png"
		},
		{
			"mimeType":"image/png",
			"name":"stone_doorway_albedo",
			"uri":"stone_doorway_albedo.png"
		},
		{
			"mimeType":"image/png",
			"name":"stone_window_normal",
			"uri":"stone_window_normal.png"
		},
		{
			"mimeType":"image/png",
			"name":"stone_window_orm",
			"uri":"stone_window_orm.png"
		},
		{
			"mimeType":"image/png",
			"name":"stone_window_albedo",
			"uri":"stone_window_albedo.png"
		},
		{
			"mimeType":"image/png",
			"name":"stone_floor_normal",
			"uri":"stone_floor_normal.png"
		},
		{
			"mimeType":"image/png",
			"name":"stone_floor_orm",
			"uri":"stone_floor_orm.png"
		},
		{
			"mimeType":"image/png",
			"name":"stone_floor_albedo",
			"uri":"stone_floor_albedo.png"
		},
		{
			"mimeType":"image/png",
			"name":"stone_stairs_normal",
			"uri":"stone_stairs_normal.png"
		},
		{
			"mimeType":"image/png",
			"name":"stone_stairs_orm",
			"uri":"stone_stairs_orm.png"
		},
		{
			"mimeType":"image/png",
			"name":"stone_stairs_albedo",
			"uri":"stone_stairs_albedo.png"
		},
		{
			"mimeType":"image/png",
			"name":"stone_roof_normal",
			"uri":"stone_roof_normal.png"
		},
		{
			"mimeType":"image/png",
			"name":"stone_roof_orm",
			"uri":"stone_roof_orm.png"
		},
		{
			"mimeType":"image/png",
			"name":"stone_roof_albedo",
			"uri":"stone_roof_albedo.png"
		},
		{
			"mimeType":"image/png",
			"name":"metal_foundation_normal",
			"uri":"metal_foundation_normal.png"
		},
		{
			"mimeType":"image/png",
			"name":"metal_foundation_orm",
			"uri":"metal_foundation_orm.png"
		},
		{
			"mimeType":"image/png",
			"name":"metal_foundation_albedo",
			"uri":"metal_foundation_albedo.png"
		},
		{
			"mimeType":"image/png",
			"name":"metal_wall_normal",
			"uri":"metal_wall_normal.png"
		},
		{
			"mimeType":"image/png",
			"name":"metal_wall_orm",
			"uri":"metal_wall_orm.png"
		},
		{
			"mimeType":"image/png",
			"name":"metal_wall_albedo",
			"uri":"metal_wall_albedo.png"
		},
		{
			"mimeType":"image/png",
			"name":"metal_doorway_normal",
			"uri":"metal_doorway_normal.png"
		},
		{
			"mimeType":"image/png",
			"name":"metal_doorway_orm",
			"uri":"metal_doorway_orm.png"
		},
		{
			"mimeType":"image/png",
			"name":"metal_doorway_albedo",
			"uri":"metal_doorway_albedo.png"
		},
		{
			"mimeType":"image/png",
			"name":"metal_window_normal",
			"uri":"metal_window_normal.png"
		},
		{
			"mimeType":"image/png",
			"name":"metal_window_orm",
			"uri":"metal_window_orm.png"
		},
		{
			"mimeType":"image/png",
			"name":"metal_window_albedo",
			"uri":"metal_window_albedo.png"
		},
		{
			"mimeType":"image/png",
			"name":"metal_floor_normal",
			"uri":"metal_floor_normal.png"
		},
		{
			"mimeType":"image/png",
			"name":"metal_floor_orm",
			"uri":"metal_floor_orm.png"
		},
		{
			"mimeType":"image/png",
			"name":"metal_floor_albedo",
			"uri":"metal_floor_albedo.png"
		},
		{
			"mimeType":"image/png",
			"name":"metal_stairs_normal",
			"uri":"metal_stairs_normal.png"
		},
		{
			"mimeType":"image/png",
			"name":"metal_stairs_orm",
			"uri":"metal_stairs_orm.png"
		},
		{
			"mimeType":"image/png",
			"name":"metal_stairs_albedo",
			"uri":"metal_stairs_albedo.png"
		},
		{
			"mimeType":"image/png",
			"name":"metal_roof_normal",
			"uri":"metal_roof_normal.png"
		},
		{
			"mimeType":"image/png",
			"name":"metal_roof_orm",
			"uri":"metal_roof_orm.png"
		},
		{
			"mimeType":"image/png",
			"name":"metal_roof_albedo",
			"uri":"metal_roof_albedo.png"
		}
	],
	"accessors":[
		{
			"bufferView":0,
			"componentType":5126,
			"count":7779,
			"max":[
				1.5162895917892456,
				0.002779461443424225,
				1.5204507112503052
			],
			"min":[
				-1.5201479196548462,
				-1.6011468172073364,
				-1.5207768678665161
			],
			"type":"VEC3"
		},
		{
			"bufferView":1,
			"componentType":5126,
			"count":7779,
			"type":"VEC3"
		},
		{
			"bufferView":2,
			"componentType":5126,
			"count":7779,
			"type":"VEC2"
		},
		{
			"bufferView":3,
			"componentType":5123,
			"count":18360,
			"type":"SCALAR"
		},
		{
			"bufferView":4,
			"componentType":5126,
			"count":4800,
			"max":[
				1.508230447769165,
				3.000706195831299,
				0.1268215775489807
			],
			"min":[
				-1.5087064504623413,
				-0.00047158871893770993,
				-0.13196206092834473
			],
			"type":"VEC3"
		},
		{
			"bufferView":5,
			"componentType":5126,
			"count":4800,
			"type":"VEC3"
		},
		{
			"bufferView":6,
			"componentType":5126,
			"count":4800,
			"type":"VEC2"
		},
		{
			"bufferView":7,
			"componentType":5123,
			"count":10314,
			"type":"SCALAR"
		},
		{
			"bufferView":8,
			"componentType":5126,
			"count":6259,
			"max":[
				1.508259654045105,
				3.0003719329833984,
				0.1319388449192047
			],
			"min":[
				-1.5081254243850708,
				-0.0004887671675533056,
				-0.13279342651367188
			],
			"type":"VEC3"
		},
		{
			"bufferView":9,
			"componentType":5126,
			"count":6259,
			"type":"VEC3"
		},
		{
			"bufferView":10,
			"componentType":5126,
			"count":6259,
			"type":"VEC2"
		},
		{
			"bufferView":11,
			"componentType":5123,
			"count":13230,
			"type":"SCALAR"
		},
		{
			"bufferView":12,
			"componentType":5126,
			"count":7813,
			"max":[
				1.5089848041534424,
				3.000366449356079,
				0.13032525777816772
			],
			"min":[
				-1.508890986442566,
				-0.0003015590482391417,
				-0.13216575980186462
			],
			"type":"VEC3"
		},
		{
			"bufferView":13,
			"componentType":5126,
			"count":7813,
			"type":"VEC3"
		},
		{
			"bufferView":14,
			"componentType":5126,
			"count":7813,
			"type":"VEC2"
		},
		{
			"bufferView":15,
			"componentType":5123,
			"count":16608,
			"type":"SCALAR"
		},
		{
			"bufferView":16,
			"componentType":5126,
			"count":3140,
			"max":[
				1.4990344047546387,
				0.017714379355311394,
				1.519478440284729
			],
			"min":[
				-1.5003083944320679,
				-0.2432727962732315,
				-1.514699101448059
			],
			"type":"VEC3"
		},
		{
			"bufferView":17,
			"componentType":5126,
			"count":3140,
			"type":"VEC3"
		},
		{
			"bufferView":18,
			"componentType":5126,
			"count":3140,
			"type":"VEC2"
		},
		{
			"bufferView":19,
			"componentType":5123,
			"count":7308,
			"type":"SCALAR"
		},
		{
			"bufferView":20,
			"componentType":5126,
			"count":5375,
			"max":[
				1.2559058666229248,
				3.0882608890533447,
				1.59602689743042
			],
			"min":[
				-1.2541358470916748,
				-0.017642032355070114,
				-1.50311279296875
			],
			"type":"VEC3"
		},
		{
			"bufferView":21,
			"componentType":5126,
			"count":5375,
			"type":"VEC3"
		},
		{
			"bufferView":22,
			"componentType":5126,
			"count":5375,
			"type":"VEC2"
		},
		{
			"bufferView":23,
			"componentType":5123,
			"count":12936,
			"type":"SCALAR"
		},
		{
			"bufferView":24,
			"componentType":5126,
			"count":8834,
			"max":[
				1.540179967880249,
				1.3007808923721313,
				1.5626804828643799
			],
			"min":[
				-1.5402181148529053,
				-0.04737912863492966,
				-1.562101125717163
			],
			"type":"VEC3"
		},
		{
			"bufferView":25,
			"componentType":5126,
			"count":8834,
			"type":"VEC3"
		},
		{
			"bufferView":26,
			"componentType":5126,
			"count":8834,
			"type":"VEC2"
		},
		{
			"bufferView":27,
			"componentType":5123,
			"count":19170,
			"type":"SCALAR"
		},
		{
			"bufferView":28,
			"componentType":5126,
			"count":6120,
			"max":[
				1.5,
				0.0022499999031424522,
				1.5
			],
			"min":[
				-1.5,
				-1.600000023841858,
				-1.5
			],
			"type":"VEC3"
		},
		{
			"bufferView":29,
			"componentType":5126,
			"count":6120,
			"type":"VEC3"
		},
		{
			"bufferView":30,
			"componentType":5126,
			"count":6120,
			"type":"VEC2"
		},
		{
			"bufferView":31,
			"componentType":5123,
			"count":11730,
			"type":"SCALAR"
		},
		{
			"bufferView":32,
			"componentType":5126,
			"count":5900,
			"max":[
				1.5,
				3,
				0.1525000035762787
			],
			"min":[
				-1.5,
				0,
				-0.1525000035762787
			],
			"type":"VEC3"
		},
		{
			"bufferView":33,
			"componentType":5126,
			"count":5900,
			"type":"VEC3"
		},
		{
			"bufferView":34,
			"componentType":5126,
			"count":5900,
			"type":"VEC2"
		},
		{
			"bufferView":35,
			"componentType":5123,
			"count":10155,
			"type":"SCALAR"
		},
		{
			"bufferView":36,
			"componentType":5126,
			"count":6166,
			"max":[
				1.5,
				3,
				0.1525000035762787
			],
			"min":[
				-1.5,
				0,
				-0.1525000035762787
			],
			"type":"VEC3"
		},
		{
			"bufferView":37,
			"componentType":5126,
			"count":6166,
			"type":"VEC3"
		},
		{
			"bufferView":38,
			"componentType":5126,
			"count":6166,
			"type":"VEC2"
		},
		{
			"bufferView":39,
			"componentType":5123,
			"count":11211,
			"type":"SCALAR"
		},
		{
			"bufferView":40,
			"componentType":5126,
			"count":8004,
			"max":[
				1.5,
				3,
				0.17800000309944153
			],
			"min":[
				-1.5,
				0,
				-0.17800000309944153
			],
			"type":"VEC3"
		},
		{
			"bufferView":41,
			"componentType":5126,
			"count":8004,
			"type":"VEC3"
		},
		{
			"bufferView":42,
			"componentType":5126,
			"count":8004,
			"type":"VEC2"
		},
		{
			"bufferView":43,
			"componentType":5123,
			"count":13572,
			"type":"SCALAR"
		},
		{
			"bufferView":44,
			"componentType":5126,
			"count":3830,
			"max":[
				1.5,
				0.0022499999031424522,
				1.5
			],
			"min":[
				-1.5,
				-0.26499998569488525,
				-1.5
			],
			"type":"VEC3"
		},
		{
			"bufferView":45,
			"componentType":5126,
			"count":3830,
			"type":"VEC3"
		},
		{
			"bufferView":46,
			"componentType":5126,
			"count":3830,
			"type":"VEC2"
		},
		{
			"bufferView":47,
			"componentType":5123,
			"count":6012,
			"type":"SCALAR"
		},
		{
			"bufferView":48,
			"componentType":5126,
			"count":6578,
			"max":[
				1.2000000476837158,
				3.049999952316284,
				1.5250985622406006
			],
			"min":[
				-1.2000000476837158,
				-2.2126692783785984e-05,
				-1.5016541481018066
			],
			"type":"VEC3"
		},
		{
			"bufferView":49,
			"componentType":5126,
			"count":6578,
			"type":"VEC3"
		},
		{
			"bufferView":50,
			"componentType":5126,
			"count":6578,
			"type":"VEC2"
		},
		{
			"bufferView":51,
			"componentType":5123,
			"count":10266,
			"type":"SCALAR"
		},
		{
			"bufferView":52,
			"componentType":5126,
			"count":11916,
			"max":[
				1.5302499532699585,
				1.2904247045516968,
				1.6040550470352173
			],
			"min":[
				-1.5302499532699585,
				-0.03297704458236694,
				-1.6046992540359497
			],
			"type":"VEC3"
		},
		{
			"bufferView":53,
			"componentType":5126,
			"count":11916,
			"type":"VEC3"
		},
		{
			"bufferView":54,
			"componentType":5126,
			"count":11916,
			"type":"VEC2"
		},
		{
			"bufferView":55,
			"componentType":5123,
			"count":17100,
			"type":"SCALAR"
		},
		{
			"bufferView":56,
			"componentType":5126,
			"count":4926,
			"max":[
				1.512120008468628,
				0.000909337482880801,
				1.5078463554382324
			],
			"min":[
				-1.5065747499465942,
				-1.6003624200820923,
				-1.509487509727478
			],
			"type":"VEC3"
		},
		{
			"bufferView":57,
			"componentType":5126,
			"count":4926,
			"type":"VEC3"
		},
		{
			"bufferView":58,
			"componentType":5126,
			"count":4926,
			"type":"VEC2"
		},
		{
			"bufferView":59,
			"componentType":5123,
			"count":6852,
			"type":"SCALAR"
		},
		{
			"bufferView":60,
			"componentType":5126,
			"count":7197,
			"max":[
				1.4971094131469727,
				2.997706651687622,
				0.13893678784370422
			],
			"min":[
				-1.4990808963775635,
				0.001221539918333292,
				-0.1388789564371109
			],
			"type":"VEC3"
		},
		{
			"bufferView":61,
			"componentType":5126,
			"count":7197,
			"type":"VEC3"
		},
		{
			"bufferView":62,
			"componentType":5126,
			"count":7197,
			"type":"VEC2"
		},
		{
			"bufferView":63,
			"componentType":5123,
			"count":22416,
			"type":"SCALAR"
		},
		{
			"bufferView":64,
			"componentType":5126,
			"count":3786,
			"max":[
				1.4981039762496948,
				2.9960691928863525,
				0.13912691175937653
			],
			"min":[
				-1.4975268840789795,
				0.004670523572713137,
				-0.1389041692018509
			],
			"type":"VEC3"
		},
		{
			"bufferView":65,
			"componentType":5126,
			"count":3786,
			"type":"VEC3"
		},
		{
			"bufferView":66,
			"componentType":5126,
			"count":3786,
			"type":"VEC2"
		},
		{
			"bufferView":67,
			"componentType":5123,
			"count":11916,
			"type":"SCALAR"
		},
		{
			"bufferView":68,
			"componentType":5126,
			"count":6484,
			"max":[
				1.4983192682266235,
				2.996236801147461,
				0.1567952185869217
			],
			"min":[
				-1.4984995126724243,
				0.0026487710420042276,
				-0.15678825974464417
			],
			"type":"VEC3"
		},
		{
			"bufferView":69,
			"componentType":5126,
			"count":6484,
			"type":"VEC3"
		},
		{
			"bufferView":70,
			"componentType":5126,
			"count":6484,
			"type":"VEC2"
		},
		{
			"bufferView":71,
			"componentType":5123,
			"count":19542,
			"type":"SCALAR"
		},
		{
			"bufferView":72,
			"componentType":5126,
			"count":3816,
			"max":[
				1.5026929378509521,
				-6.666249828413129e-05,
				1.5021103620529175
			],
			"min":[
				-1.501989483833313,
				-0.3036012053489685,
				-1.5019242763519287
			],
			"type":"VEC3"
		},
		{
			"bufferView":73,
			"componentType":5126,
			"count":3816,
			"type":"VEC3"
		},
		{
			"bufferView":74,
			"componentType":5126,
			"count":3816,
			"type":"VEC2"
		},
		{
			"bufferView":75,
			"componentType":5123,
			"count":5238,
			"type":"SCALAR"
		},
		{
			"bufferView":76,
			"componentType":5126,
			"count":3888,
			"max":[
				1.1966654062271118,
				3.0066959857940674,
				1.497153401374817
			],
			"min":[
				-1.1967564821243286,
				0,
				-1.4970011711120605
			],
			"type":"VEC3"
		},
		{
			"bufferView":77,
			"componentType":5126,
			"count":3888,
			"type":"VEC3"
		},
		{
			"bufferView":78,
			"componentType":5126,
			"count":3888,
			"type":"VEC2"
		},
		{
			"bufferView":79,
			"componentType":5123,
			"count":5364,
			"type":"SCALAR"
		},
		{
			"bufferView":80,
			"componentType":5126,
			"count":10720,
			"max":[
				1.5278184413909912,
				1.3071695566177368,
				1.6066325902938843
			],
			"min":[
				-1.5222933292388916,
				-0.023310184478759766,
				-1.6137515306472778
			],
			"type":"VEC3"
		},
		{
			"bufferView":81,
			"componentType":5126,
			"count":10720,
			"type":"VEC3"
		},
		{
			"bufferView":82,
			"componentType":5126,
			"count":10720,
			"type":"VEC2"
		},
		{
			"bufferView":83,
			"componentType":5123,
			"count":14952,
			"type":"SCALAR"
		},
		{
			"bufferView":84,
			"componentType":5126,
			"count":11869,
			"max":[
				1.5040465593338013,
				0.005439999978989363,
				1.5040769577026367
			],
			"min":[
				-1.5042569637298584,
				-1.600000023841858,
				-1.5042270421981812
			],
			"type":"VEC3"
		},
		{
			"bufferView":85,
			"componentType":5126,
			"count":11869,
			"type":"VEC3"
		},
		{
			"bufferView":86,
			"componentType":5126,
			"count":11869,
			"type":"VEC2"
		},
		{
			"bufferView":87,
			"componentType":5123,
			"count":33132,
			"type":"SCALAR"
		},
		{
			"bufferView":88,
			"componentType":5126,
			"count":11157,
			"max":[
				1.5,
				3,
				0.10425671190023422
			],
			"min":[
				-1.5,
				0,
				-0.10669815540313721
			],
			"type":"VEC3"
		},
		{
			"bufferView":89,
			"componentType":5126,
			"count":11157,
			"type":"VEC3"
		},
		{
			"bufferView":90,
			"componentType":5126,
			"count":11157,
			"type":"VEC2"
		},
		{
			"bufferView":91,
			"componentType":5123,
			"count":27180,
			"type":"SCALAR"
		},
		{
			"bufferView":92,
			"componentType":5126,
			"count":11618,
			"max":[
				1.5,
				3,
				0.11969999969005585
			],
			"min":[
				-1.5,
				0,
				-0.11969999969005585
			],
			"type":"VEC3"
		},
		{
			"bufferView":93,
			"componentType":5126,
			"count":11618,
			"type":"VEC3"
		},
		{
			"bufferView":94,
			"componentType":5126,
			"count":11618,
			"type":"VEC2"
		},
		{
			"bufferView":95,
			"componentType":5123,
			"count":29874,
			"type":"SCALAR"
		},
		{
			"bufferView":96,
			"componentType":5126,
			"count":11823,
			"max":[
				1.5,
				3,
				0.10411018878221512
			],
			"min":[
				-1.5,
				0,
				-0.10422912240028381
			],
			"type":"VEC3"
		},
		{
			"bufferView":97,
			"componentType":5126,
			"count":11823,
			"type":"VEC3"
		},
		{
			"bufferView":98,
			"componentType":5126,
			"count":11823,
			"type":"VEC2"
		},
		{
			"bufferView":99,
			"componentType":5123,
			"count":32190,
			"type":"SCALAR"
		},
		{
			"bufferView":100,
			"componentType":5126,
			"count":4129,
			"max":[
				1.5073000192642212,
				0.005439999978989363,
				1.5073000192642212
			],
			"min":[
				-1.5073000192642212,
				-0.1679999977350235,
				-1.5073000192642212
			],
			"type":"VEC3"
		},
		{
			"bufferView":101,
			"componentType":5126,
			"count":4129,
			"type":"VEC3"
		},
		{
			"bufferView":102,
			"componentType":5126,
			"count":4129,
			"type":"VEC2"
		},
		{
			"bufferView":103,
			"componentType":5123,
			"count":11388,
			"type":"SCALAR"
		},
		{
			"bufferView":104,
			"componentType":5126,
			"count":7909,
			"max":[
				1.1973000764846802,
				3.0054399967193604,
				1.5
			],
			"min":[
				-1.1973000764846802,
				0,
				-1.5
			],
			"type":"VEC3"
		},
		{
			"bufferView":105,
			"componentType":5126,
			"count":7909,
			"type":"VEC3"
		},
		{
			"bufferView":106,
			"componentType":5126,
			"count":7909,
			"type":"VEC2"
		},
		{
			"bufferView":107,
			"componentType":5123,
			"count":17883,
			"type":"SCALAR"
		},
		{
			"bufferView":108,
			"componentType":5126,
			"count":12976,
			"max":[
				1.5331999063491821,
				1.3115971088409424,
				1.5928367376327515
			],
			"min":[
				-1.5331999063491821,
				-0.05000000074505806,
				-1.5916603803634644
			],
			"type":"VEC3"
		},
		{
			"bufferView":109,
			"componentType":5126,
			"count":12976,
			"type":"VEC3"
		},
		{
			"bufferView":110,
			"componentType":5126,
			"count":12976,
			"type":"VEC2"
		},
		{
			"bufferView":111,
			"componentType":5123,
			"count":31872,
			"type":"SCALAR"
		}
	],
	"bufferViews":[
		{
			"buffer":0,
			"byteLength":93348,
			"byteOffset":0,
			"target":34962
		},
		{
			"buffer":0,
			"byteLength":93348,
			"byteOffset":93348,
			"target":34962
		},
		{
			"buffer":0,
			"byteLength":62232,
			"byteOffset":186696,
			"target":34962
		},
		{
			"buffer":0,
			"byteLength":36720,
			"byteOffset":248928,
			"target":34963
		},
		{
			"buffer":0,
			"byteLength":57600,
			"byteOffset":285648,
			"target":34962
		},
		{
			"buffer":0,
			"byteLength":57600,
			"byteOffset":343248,
			"target":34962
		},
		{
			"buffer":0,
			"byteLength":38400,
			"byteOffset":400848,
			"target":34962
		},
		{
			"buffer":0,
			"byteLength":20628,
			"byteOffset":439248,
			"target":34963
		},
		{
			"buffer":0,
			"byteLength":75108,
			"byteOffset":459876,
			"target":34962
		},
		{
			"buffer":0,
			"byteLength":75108,
			"byteOffset":534984,
			"target":34962
		},
		{
			"buffer":0,
			"byteLength":50072,
			"byteOffset":610092,
			"target":34962
		},
		{
			"buffer":0,
			"byteLength":26460,
			"byteOffset":660164,
			"target":34963
		},
		{
			"buffer":0,
			"byteLength":93756,
			"byteOffset":686624,
			"target":34962
		},
		{
			"buffer":0,
			"byteLength":93756,
			"byteOffset":780380,
			"target":34962
		},
		{
			"buffer":0,
			"byteLength":62504,
			"byteOffset":874136,
			"target":34962
		},
		{
			"buffer":0,
			"byteLength":33216,
			"byteOffset":936640,
			"target":34963
		},
		{
			"buffer":0,
			"byteLength":37680,
			"byteOffset":969856,
			"target":34962
		},
		{
			"buffer":0,
			"byteLength":37680,
			"byteOffset":1007536,
			"target":34962
		},
		{
			"buffer":0,
			"byteLength":25120,
			"byteOffset":1045216,
			"target":34962
		},
		{
			"buffer":0,
			"byteLength":14616,
			"byteOffset":1070336,
			"target":34963
		},
		{
			"buffer":0,
			"byteLength":64500,
			"byteOffset":1084952,
			"target":34962
		},
		{
			"buffer":0,
			"byteLength":64500,
			"byteOffset":1149452,
			"target":34962
		},
		{
			"buffer":0,
			"byteLength":43000,
			"byteOffset":1213952,
			"target":34962
		},
		{
			"buffer":0,
			"byteLength":25872,
			"byteOffset":1256952,
			"target":34963
		},
		{
			"buffer":0,
			"byteLength":106008,
			"byteOffset":1282824,
			"target":34962
		},
		{
			"buffer":0,
			"byteLength":106008,
			"byteOffset":1388832,
			"target":34962
		},
		{
			"buffer":0,
			"byteLength":70672,
			"byteOffset":1494840,
			"target":34962
		},
		{
			"buffer":0,
			"byteLength":38340,
			"byteOffset":1565512,
			"target":34963
		},
		{
			"buffer":0,
			"byteLength":73440,
			"byteOffset":1603852,
			"target":34962
		},
		{
			"buffer":0,
			"byteLength":73440,
			"byteOffset":1677292,
			"target":34962
		},
		{
			"buffer":0,
			"byteLength":48960,
			"byteOffset":1750732,
			"target":34962
		},
		{
			"buffer":0,
			"byteLength":23460,
			"byteOffset":1799692,
			"target":34963
		},
		{
			"buffer":0,
			"byteLength":70800,
			"byteOffset":1823152,
			"target":34962
		},
		{
			"buffer":0,
			"byteLength":70800,
			"byteOffset":1893952,
			"target":34962
		},
		{
			"buffer":0,
			"byteLength":47200,
			"byteOffset":1964752,
			"target":34962
		},
		{
			"buffer":0,
			"byteLength":20310,
			"byteOffset":2011952,
			"target":34963
		},
		{
			"buffer":0,
			"byteLength":73992,
			"byteOffset":2032264,
			"target":34962
		},
		{
			"buffer":0,
			"byteLength":73992,
			"byteOffset":2106256,
			"target":34962
		},
		{
			"buffer":0,
			"byteLength":49328,
			"byteOffset":2180248,
			"target":34962
		},
		{
			"buffer":0,
			"byteLength":22422,
			"byteOffset":2229576,
			"target":34963
		},
		{
			"buffer":0,
			"byteLength":96048,
			"byteOffset":2252000,
			"target":34962
		},
		{
			"buffer":0,
			"byteLength":96048,
			"byteOffset":2348048,
			"target":34962
		},
		{
			"buffer":0,
			"byteLength":64032,
			"byteOffset":2444096,
			"target":34962
		},
		{
			"buffer":0,
			"byteLength":27144,
			"byteOffset":2508128,
			"target":34963
		},
		{
			"buffer":0,
			"byteLength":45960,
			"byteOffset":2535272,
			"target":34962
		},
		{
			"buffer":0,
			"byteLength":45960,
			"byteOffset":2581232,
			"target":34962
		},
		{
			"buffer":0,
			"byteLength":30640,
			"byteOffset":2627192,
			"target":34962
		},
		{
			"buffer":0,
			"byteLength":12024,
			"byteOffset":2657832,
			"target":34963
		},
		{
			"buffer":0,
			"byteLength":78936,
			"byteOffset":2669856,
			"target":34962
		},
		{
			"buffer":0,
			"byteLength":78936,
			"byteOffset":2748792,
			"target":34962
		},
		{
			"buffer":0,
			"byteLength":52624,
			"byteOffset":2827728,
			"target":34962
		},
		{
			"buffer":0,
			"byteLength":20532,
			"byteOffset":2880352,
			"target":34963
		},
		{
			"buffer":0,
			"byteLength":142992,
			"byteOffset":2900884,
			"target":34962
		},
		{
			"buffer":0,
			"byteLength":142992,
			"byteOffset":3043876,
			"target":34962
		},
		{
			"buffer":0,
			"byteLength":95328,
			"byteOffset":3186868,
			"target":34962
		},
		{
			"buffer":0,
			"byteLength":34200,
			"byteOffset":3282196,
			"target":34963
		},
		{
			"buffer":0,
			"byteLength":59112,
			"byteOffset":3316396,
			"target":34962
		},
		{
			"buffer":0,
			"byteLength":59112,
			"byteOffset":3375508,
			"target":34962
		},
		{
			"buffer":0,
			"byteLength":39408,
			"byteOffset":3434620,
			"target":34962
		},
		{
			"buffer":0,
			"byteLength":13704,
			"byteOffset":3474028,
			"target":34963
		},
		{
			"buffer":0,
			"byteLength":86364,
			"byteOffset":3487732,
			"target":34962
		},
		{
			"buffer":0,
			"byteLength":86364,
			"byteOffset":3574096,
			"target":34962
		},
		{
			"buffer":0,
			"byteLength":57576,
			"byteOffset":3660460,
			"target":34962
		},
		{
			"buffer":0,
			"byteLength":44832,
			"byteOffset":3718036,
			"target":34963
		},
		{
			"buffer":0,
			"byteLength":45432,
			"byteOffset":3762868,
			"target":34962
		},
		{
			"buffer":0,
			"byteLength":45432,
			"byteOffset":3808300,
			"target":34962
		},
		{
			"buffer":0,
			"byteLength":30288,
			"byteOffset":3853732,
			"target":34962
		},
		{
			"buffer":0,
			"byteLength":23832,
			"byteOffset":3884020,
			"target":34963
		},
		{
			"buffer":0,
			"byteLength":77808,
			"byteOffset":3907852,
			"target":34962
		},
		{
			"buffer":0,
			"byteLength":77808,
			"byteOffset":3985660,
			"target":34962
		},
		{
			"buffer":0,
			"byteLength":51872,
			"byteOffset":4063468,
			"target":34962
		},
		{
			"buffer":0,
			"byteLength":39084,
			"byteOffset":4115340,
			"target":34963
		},
		{
			"buffer":0,
			"byteLength":45792,
			"byteOffset":4154424,
			"target":34962
		},
		{
			"buffer":0,
			"byteLength":45792,
			"byteOffset":4200216,
			"target":34962
		},
		{
			"buffer":0,
			"byteLength":30528,
			"byteOffset":4246008,
			"target":34962
		},
		{
			"buffer":0,
			"byteLength":10476,
			"byteOffset":4276536,
			"target":34963
		},
		{
			"buffer":0,
			"byteLength":46656,
			"byteOffset":4287012,
			"target":34962
		},
		{
			"buffer":0,
			"byteLength":46656,
			"byteOffset":4333668,
			"target":34962
		},
		{
			"buffer":0,
			"byteLength":31104,
			"byteOffset":4380324,
			"target":34962
		},
		{
			"buffer":0,
			"byteLength":10728,
			"byteOffset":4411428,
			"target":34963
		},
		{
			"buffer":0,
			"byteLength":128640,
			"byteOffset":4422156,
			"target":34962
		},
		{
			"buffer":0,
			"byteLength":128640,
			"byteOffset":4550796,
			"target":34962
		},
		{
			"buffer":0,
			"byteLength":85760,
			"byteOffset":4679436,
			"target":34962
		},
		{
			"buffer":0,
			"byteLength":29904,
			"byteOffset":4765196,
			"target":34963
		},
		{
			"buffer":0,
			"byteLength":142428,
			"byteOffset":4795100,
			"target":34962
		},
		{
			"buffer":0,
			"byteLength":142428,
			"byteOffset":4937528,
			"target":34962
		},
		{
			"buffer":0,
			"byteLength":94952,
			"byteOffset":5079956,
			"target":34962
		},
		{
			"buffer":0,
			"byteLength":66264,
			"byteOffset":5174908,
			"target":34963
		},
		{
			"buffer":0,
			"byteLength":133884,
			"byteOffset":5241172,
			"target":34962
		},
		{
			"buffer":0,
			"byteLength":133884,
			"byteOffset":5375056,
			"target":34962
		},
		{
			"buffer":0,
			"byteLength":89256,
			"byteOffset":5508940,
			"target":34962
		},
		{
			"buffer":0,
			"byteLength":54360,
			"byteOffset":5598196,
			"target":34963
		},
		{
			"buffer":0,
			"byteLength":139416,
			"byteOffset":5652556,
			"target":34962
		},
		{
			"buffer":0,
			"byteLength":139416,
			"byteOffset":5791972,
			"target":34962
		},
		{
			"buffer":0,
			"byteLength":92944,
			"byteOffset":5931388,
			"target":34962
		},
		{
			"buffer":0,
			"byteLength":59748,
			"byteOffset":6024332,
			"target":34963
		},
		{
			"buffer":0,
			"byteLength":141876,
			"byteOffset":6084080,
			"target":34962
		},
		{
			"buffer":0,
			"byteLength":141876,
			"byteOffset":6225956,
			"target":34962
		},
		{
			"buffer":0,
			"byteLength":94584,
			"byteOffset":6367832,
			"target":34962
		},
		{
			"buffer":0,
			"byteLength":64380,
			"byteOffset":6462416,
			"target":34963
		},
		{
			"buffer":0,
			"byteLength":49548,
			"byteOffset":6526796,
			"target":34962
		},
		{
			"buffer":0,
			"byteLength":49548,
			"byteOffset":6576344,
			"target":34962
		},
		{
			"buffer":0,
			"byteLength":33032,
			"byteOffset":6625892,
			"target":34962
		},
		{
			"buffer":0,
			"byteLength":22776,
			"byteOffset":6658924,
			"target":34963
		},
		{
			"buffer":0,
			"byteLength":94908,
			"byteOffset":6681700,
			"target":34962
		},
		{
			"buffer":0,
			"byteLength":94908,
			"byteOffset":6776608,
			"target":34962
		},
		{
			"buffer":0,
			"byteLength":63272,
			"byteOffset":6871516,
			"target":34962
		},
		{
			"buffer":0,
			"byteLength":35766,
			"byteOffset":6934788,
			"target":34963
		},
		{
			"buffer":0,
			"byteLength":155712,
			"byteOffset":6970556,
			"target":34962
		},
		{
			"buffer":0,
			"byteLength":155712,
			"byteOffset":7126268,
			"target":34962
		},
		{
			"buffer":0,
			"byteLength":103808,
			"byteOffset":7281980,
			"target":34962
		},
		{
			"buffer":0,
			"byteLength":63744,
			"byteOffset":7385788,
			"target":34963
		}
	],
	"samplers":[
		{
			"magFilter":9729,
			"minFilter":9987
		}
	],
	"buffers":[
		{
			"byteLength":7449532,
			"uri":"structures.bin"
		}
	]
}
