{
	"asset":{
		"generator":"Khronos glTF Blender I/O v4.5.51",
		"version":"2.0"
	},
	"scene":0,
	"scenes":[
		{
			"name":"Scene",
			"nodes":[
				81
			]
		}
	],
	"nodes":[
		{
			"name":"Bip01 REye",
			"rotation":[
				6.5673343669914175e-06,
				4.671166607295163e-06,
				0.6514643430709839,
				0.7586792707443237
			],
			"scale":[
				1.0000001192092896,
				1.0000001192092896,
				1
			],
			"translation":[
				11.082071304321289,
				6.9917683601379395,
				-3.188508987426758
			]
		},
		{
			"name":"Bip01 LEye",
			"rotation":[
				-6.469346772064455e-06,
				-8.328634066856466e-06,
				0.6514644026756287,
				0.758679211139679
			],
			"scale":[
				1.0000001192092896,
				1.0000001192092896,
				1
			],
			"translation":[
				11.082072257995605,
				6.991750240325928,
				3.188547134399414
			]
		},
		{
			"name":"Bip01 MBottomLip",
			"rotation":[
				-8.879139272721659e-07,
				2.1794746771774953e-06,
				-0.1736481934785843,
				0.9848077893257141
			],
			"translation":[
				10.55405330657959,
				-2.33319091796875,
				-0.08900642395019531
			]
		},
		{
			"name":"Bip01 MTongue",
			"rotation":[
				0.0030301061924546957,
				0.013343115337193012,
				-0.17570434510707855,
				0.984347939491272
			],
			"scale":[
				1,
				1,
				0.9999999403953552
			],
			"translation":[
				7.251116752624512,
				-1.5666134357452393,
				0.06097447872161865
			]
		},
		{
			"name":"Bip01 LMouthBottom",
			"rotation":[
				-0.03838123753666878,
				-0.21606484055519104,
				-0.16940727829933167,
				0.9608038663864136
			],
			"scale":[
				1,
				0.9999998807907104,
				0.9999998807907104
			],
			"translation":[
				10.335318565368652,
				-2.435734987258911,
				1.3072662353515625
			]
		},
		{
			"name":"Bip01 RMouthBottom",
			"rotation":[
				0.038288235664367676,
				0.21554109454154968,
				-0.16942629218101501,
				0.9609218835830688
			],
			"scale":[
				0.9999998807907104,
				0.9999998211860657,
				0.9999998807907104
			],
			"translation":[
				10.314969062805176,
				-2.42155385017395,
				-1.4824954271316528
			]
		},
		{
			"children":[
				2,
				3,
				4,
				5
			],
			"name":"Bip01 MJaw",
			"rotation":[
				0.0012046813499182463,
				-0.004261388909071684,
				0.7641019821166992,
				0.6450803279876709
			],
			"scale":[
				1.0000001192092896,
				1.0000001192092896,
				1
			],
			"translation":[
				3.289419651031494,
				1.240020751953125,
				1.417239900547429e-06
			]
		},
		{
			"name":"Bip01 RMasseter",
			"rotation":[
				-0.25819820165634155,
				0.282449334859848,
				0.6814050674438477,
				0.6238936185836792
			],
			"translation":[
				4.58035135269165,
				7.721065044403076,
				-5.719389915466309
			]
		},
		{
			"name":"Bip01 LMasseter",
			"rotation":[
				0.25820016860961914,
				-0.2824552059173584,
				0.6814025640487671,
				0.6238928437232971
			],
			"scale":[
				1.0000001192092896,
				1.0000001192092896,
				1
			],
			"translation":[
				4.580351829528809,
				7.721033573150635,
				5.719433307647705
			]
		},
		{
			"name":"Bip01 MUpperLip",
			"rotation":[
				-1.1685664702554277e-07,
				-2.6806128516909666e-06,
				0.6758842468261719,
				0.7370077967643738
			],
			"scale":[
				1.0000001192092896,
				1.0000001192092896,
				1
			],
			"translation":[
				5.081655025482178,
				11.831408500671387,
				1.6583178876317106e-05
			]
		},
		{
			"name":"Bip01 RCaninus",
			"rotation":[
				-0.1906128227710724,
				0.17508266866207123,
				0.6528336405754089,
				0.7119136452674866
			],
			"scale":[
				1.0000001192092896,
				1.000000238418579,
				1.0000001192092896
			],
			"translation":[
				6.2482500076293945,
				10.813017845153809,
				-2.9446990489959717
			]
		},
		{
			"name":"Bip01 LCaninus",
			"rotation":[
				0.19061288237571716,
				-0.17508625984191895,
				0.6528326272964478,
				0.7119137048721313
			],
			"scale":[
				1.0000001192092896,
				1.0000001192092896,
				1
			],
			"translation":[
				6.2482500076293945,
				10.81300163269043,
				2.944758415222168
			]
		},
		{
			"name":"Bip01 REyeBlinkBottom",
			"rotation":[
				-0.0961291566491127,
				0.08829663693904877,
				0.6701016426086426,
				0.7307028770446777
			],
			"scale":[
				1.0000001192092896,
				1,
				1.0000001192092896
			],
			"translation":[
				10.37462043762207,
				8.750557899475098,
				-3.411055326461792
			]
		},
		{
			"name":"Bip01 LEyeBlinkBottom",
			"rotation":[
				0.09612921625375748,
				-0.08830034732818604,
				0.6701011061668396,
				0.7307028770446777
			],
			"scale":[
				1.0000001192092896,
				1.0000001192092896,
				1
			],
			"translation":[
				10.374621391296387,
				8.750540733337402,
				3.4111032485961914
			]
		},
		{
			"name":"Bip01 RUpperlip",
			"rotation":[
				-0.1703149825334549,
				0.1705472767353058,
				0.686541736125946,
				0.6859787702560425
			],
			"scale":[
				1.0000001192092896,
				0.9999999403953552,
				1.0000001192092896
			],
			"translation":[
				5.02488374710083,
				11.684236526489258,
				-1.4255626201629639
			]
		},
		{
			"name":"Bip01 LUpperlip",
			"rotation":[
				0.1702120304107666,
				-0.1704479604959488,
				0.6865664720535278,
				0.6860042810440063
			],
			"scale":[
				1.0000001192092896,
				1.0000001192092896,
				1.0000001192092896
			],
			"translation":[
				5.02488374710083,
				11.68422794342041,
				1.4256266355514526
			]
		},
		{
			"name":"Bip01 RMouthCorner",
			"rotation":[
				-0.15812982618808746,
				0.20154573023319244,
				0.7146279811859131,
				0.6509078741073608
			],
			"scale":[
				1.0000001192092896,
				1.0000001192092896,
				1.0000001192092896
			],
			"translation":[
				4.082620143890381,
				10.714229583740234,
				-2.770092725753784
			]
		},
		{
			"name":"Bip01 LMouthCorner",
			"rotation":[
				0.15813300013542175,
				-0.20155298709869385,
				0.714625895023346,
				0.6509072780609131
			],
			"scale":[
				0.9999999403953552,
				0.9999999403953552,
				1
			],
			"translation":[
				4.082620620727539,
				10.714215278625488,
				2.770151376724243
			]
		},
		{
			"name":"Bip01 RCheek",
			"rotation":[
				-0.13256323337554932,
				0.13493739068508148,
				0.6999218463897705,
				0.6887149810791016
			],
			"scale":[
				1.0000001192092896,
				1.0000001192092896,
				1.0000001192092896
			],
			"translation":[
				8.475456237792969,
				9.653765678405762,
				-4.1373724937438965
			]
		},
		{
			"name":"Bip01 LCheek",
			"rotation":[
				0.1325691193342209,
				-0.13494712114334106,
				0.6999201774597168,
				0.6887136101722717
			],
			"scale":[
				1,
				1,
				0.9999999403953552
			],
			"translation":[
				8.475457191467285,
				9.653742790222168,
				4.137424945831299
			]
		},
		{
			"name":"Bip01 REyeBlinkTop",
			"rotation":[
				-0.10190213471651077,
				0.10861627757549286,
				0.5618584752082825,
				0.8137158751487732
			],
			"scale":[
				1.0000001192092896,
				1.0000001192092896,
				1.0000001192092896
			],
			"translation":[
				11.86782455444336,
				8.439642906188965,
				-3.3358123302459717
			]
		},
		{
			"name":"Bip01 LEyeBlinkTop",
			"rotation":[
				0.10190214961767197,
				-0.10861936211585999,
				0.5618578195571899,
				0.813715934753418
			],
			"scale":[
				1,
				1.0000001192092896,
				1
			],
			"translation":[
				11.867825508117676,
				8.43962574005127,
				3.335857629776001
			]
		},
		{
			"name":"Bip01 RInnerEyebrow",
			"rotation":[
				-0.06418652087450027,
				0.05895679444074631,
				0.6733119487762451,
				0.7342038750648499
			],
			"translation":[
				13.005359649658203,
				9.465071678161621,
				-2.641317367553711
			]
		},
		{
			"name":"Bip01 LInnerEyebrow",
			"rotation":[
				0.06418652087450027,
				-0.05896047502756119,
				0.6733116507530212,
				0.7342038154602051
			],
			"scale":[
				1,
				1.0000001192092896,
				1
			],
			"translation":[
				13.00536060333252,
				9.465056419372559,
				2.6413686275482178
			]
		},
		{
			"name":"Bip01 MMiddleEyebrow",
			"rotation":[
				2.5862124886089077e-08,
				-1.8712773908191593e-06,
				0.6769024133682251,
				0.7360727787017822
			],
			"scale":[
				1.0000001192092896,
				1,
				1
			],
			"translation":[
				12.706486701965332,
				10.012906074523926,
				1.3182172551751137e-05
			]
		},
		{
			"name":"Bip01 ROuterEyebrow",
			"rotation":[
				-0.18039089441299438,
				0.18558630347251892,
				0.6560014486312866,
				0.7089985609054565
			],
			"scale":[
				1,
				0.9999999403953552,
				1.0000001192092896
			],
			"translation":[
				12.541556358337402,
				8.292973518371582,
				-4.926670551300049
			]
		},
		{
			"name":"Bip01 LOuterEyebrow",
			"rotation":[
				0.18039089441299438,
				-0.18558986485004425,
				0.6560004353523254,
				0.7089985609054565
			],
			"scale":[
				1.0000001192092896,
				1.0000001192092896,
				1.0000001192092896
			],
			"translation":[
				12.541556358337402,
				8.292945861816406,
				4.9267144203186035
			]
		},
		{
			"name":"Bip01 MNose",
			"rotation":[
				-1.0315296350427161e-07,
				-2.703489371924661e-06,
				0.6731289625167847,
				0.7395251393318176
			],
			"scale":[
				1,
				1.0000001192092896,
				1
			],
			"translation":[
				8.708163261413574,
				12.193280220031738,
				1.641964990994893e-05
			]
		},
		{
			"children":[
				0,
				1,
				6,
				7,
				8,
				9,
				10,
				11,
				12,
				13,
				14,
				15,
				16,
				17,
				18,
				19,
				20,
				21,
				22,
				23,
				24,
				25,
				26,
				27
			],
			"name":"Bip01 Head",
			"rotation":[
				-2.0107799869606424e-09,
				1.8331871842747205e-07,
				-0.07293794304132462,
				0.9973364472389221
			],
			"scale":[
				1,
				1.0000001192092896,
				1
			],
			"translation":[
				6.9265570640563965,
				-1.2099737432436086e-05,
				-3.059142272832105e-06
			]
		},
		{
			"name":"Bip01 L Finger02",
			"rotation":[
				-1.180224131758223e-07,
				-3.0348624591169937e-07,
				0.10685886442661285,
				0.9942741990089417
			],
			"scale":[
				0.9999999403953552,
				1,
				0.9999998807907104
			],
			"translation":[
				3.1003355979919434,
				-9.5367431640625e-07,
				1.430511474609375e-06
			]
		},
		{
			"children":[
				29
			],
			"name":"Bip01 L Finger01",
			"rotation":[
				-1.2184756315036793e-07,
				2.596290187284467e-07,
				0.11265221238136292,
				0.9936344623565674
			],
			"scale":[
				1,
				1,
				1.0000001192092896
			],
			"translation":[
				2.8278279304504395,
				9.5367431640625e-06,
				1.5735626220703125e-05
			]
		},
		{
			"children":[
				30
			],
			"name":"Bip01 L Finger0",
			"rotation":[
				0.6539385318756104,
				0.36675170063972473,
				-0.033281754702329636,
				0.6608706116676331
			],
			"scale":[
				0.9999998807907104,
				0.9999998807907104,
				0.9999997615814209
			],
			"translation":[
				2.6760833263397217,
				0.6282131671905518,
				-3.1982502937316895
			]
		},
		{
			"name":"Bip01 L Finger12",
			"rotation":[
				-9.594756988917652e-08,
				2.1797795568545553e-07,
				0.021091599017381668,
				0.9997775554656982
			],
			"scale":[
				1,
				0.9999999403953552,
				1
			],
			"translation":[
				2.379081964492798,
				2.3126602172851562e-05,
				0
			]
		},
		{
			"children":[
				32
			],
			"name":"Bip01 L Finger11",
			"rotation":[
				-1.6837519467571838e-07,
				-2.506919827283127e-07,
				0.09346994012594223,
				0.9956220984458923
			],
			"scale":[
				0.9999998807907104,
				1,
				0.9999998807907104
			],
			"translation":[
				3.1289467811584473,
				-1.6927719116210938e-05,
				-9.5367431640625e-07
			]
		},
		{
			"children":[
				33
			],
			"name":"Bip01 L Finger1",
			"rotation":[
				-0.0005941687850281596,
				0.00412469869479537,
				0.10714063793420792,
				0.9942351579666138
			],
			"scale":[
				1,
				0.9999997615814209,
				1
			],
			"translation":[
				9.438963890075684,
				-0.20390236377716064,
				-2.242455005645752
			]
		},
		{
			"name":"Bip01 L Finger22",
			"rotation":[
				-7.153956005367945e-08,
				2.955155650852248e-06,
				0.09046725928783417,
				0.9958994388580322
			],
			"scale":[
				1,
				1.0000001192092896,
				0.9999998807907104
			],
			"translation":[
				2.848799705505371,
				7.782131433486938e-06,
				9.5367431640625e-07
			]
		},
		{
			"children":[
				35
			],
			"name":"Bip01 L Finger21",
			"rotation":[
				9.386447175074863e-08,
				-1.4327603992114746e-07,
				0.0665920302271843,
				0.9977803230285645
			],
			"scale":[
				1,
				1.0000001192092896,
				1
			],
			"translation":[
				3.8014042377471924,
				-2.2590160369873047e-05,
				-4.0531158447265625e-06
			]
		},
		{
			"children":[
				36
			],
			"name":"Bip01 L Finger2",
			"rotation":[
				-0.13920152187347412,
				-0.028465580195188522,
				0.14461712539196014,
				0.9792336821556091
			],
			"scale":[
				0.9999998211860657,
				0.9999997615814209,
				0.9999999403953552
			],
			"translation":[
				9.55927562713623,
				-0.18639540672302246,
				0.14534235000610352
			]
		},
		{
			"name":"Bip01 L Finger32",
			"rotation":[
				-2.3348627919972387e-08,
				-1.8946739999137208e-07,
				0.025095239281654358,
				0.9996850490570068
			],
			"scale":[
				0.9999999403953552,
				0.9999999403953552,
				1
			],
			"translation":[
				2.4442291259765625,
				-3.4142285585403442e-06,
				1.1920928955078125e-06
			]
		},
		{
			"children":[
				38
			],
			"name":"Bip01 L Finger31",
			"rotation":[
				-1.3748113758538238e-07,
				1.0397046708021662e-06,
				0.04960637539625168,
				0.9987688660621643
			],
			"scale":[
				1.0000001192092896,
				0.9999999403953552,
				0.9999999403953552
			],
			"translation":[
				3.3696324825286865,
				3.2186508178710938e-06,
				-5.0067901611328125e-06
			]
		},
		{
			"children":[
				39
			],
			"name":"Bip01 L Finger3",
			"rotation":[
				-0.14773331582546234,
				-0.019086182117462158,
				0.18398937582969666,
				0.9715752601623535
			],
			"scale":[
				0.9999998807907104,
				1,
				0.9999999403953552
			],
			"translation":[
				8.993640899658203,
				0.22700738906860352,
				2.3016724586486816
			]
		},
		{
			"name":"Bip01 L Finger42",
			"rotation":[
				2.6201532055125654e-09,
				-2.2758713384973817e-06,
				0.024951107800006866,
				0.9996886849403381
			],
			"scale":[
				0.9999998807907104,
				0.9999998211860657,
				1
			],
			"translation":[
				1.5358045101165771,
				-1.5854835510253906e-05,
				-9.5367431640625e-07
			]
		},
		{
			"children":[
				41
			],
			"name":"Bip01 L Finger41",
			"rotation":[
				2.2287017031885625e-07,
				1.205175635732303e-06,
				0.02144547365605831,
				0.9997700452804565
			],
			"translation":[
				2.908782482147217,
				1.5854835510253906e-05,
				-3.337860107421875e-06
			]
		},
		{
			"children":[
				42
			],
			"name":"Bip01 L Finger4",
			"rotation":[
				-0.22423361241817474,
				-0.043561145663261414,
				0.26742082834243774,
				0.936113178730011
			],
			"scale":[
				0.9999998807907104,
				0.9999998211860657,
				1
			],
			"translation":[
				8.02381706237793,
				1.2019449472427368,
				3.9747180938720703
			]
		},
		{
			"children":[
				31,
				34,
				37,
				40,
				43
			],
			"name":"Bip01 L Hand",
			"rotation":[
				-0.7147613763809204,
				0.012448691762983799,
				0.03602398931980133,
				0.6983291506767273
			],
			"scale":[
				1.0000001192092896,
				1.0000001192092896,
				0.9999999403953552
			],
			"translation":[
				27.0919246673584,
				-5.364418029785156e-05,
				-7.343292236328125e-05
			]
		},
		{
			"children":[
				44
			],
			"name":"Bip01 L Forearm",
			"rotation":[
				-3.1051246196511784e-07,
				-4.848798766943219e-07,
				-0.1794169396162033,
				0.9837731122970581
			],
			"scale":[
				1,
				1,
				0.9999999403953552
			],
			"translation":[
				28.58008575439453,
				-4.172325134277344e-05,
				-2.2113323211669922e-05
			]
		},
		{
			"children":[
				45
			],
			"name":"Bip01 L UpperArm",
			"rotation":[
				0.09000909328460693,
				0.26698964834213257,
				-0.029683917760849,
				0.9590275287628174
			],
			"scale":[
				1,
				1.0000001192092896,
				1
			],
			"translation":[
				14.107928276062012,
				-1.3232231140136719e-05,
				-1.8864870071411133e-05
			]
		},
		{
			"children":[
				46
			],
			"name":"Bip01 L Clavicle",
			"rotation":[
				0.6135298013687134,
				-0.11396156996488571,
				0.7713326215744019,
				0.1250593662261963
			],
			"scale":[
				1.0000028610229492,
				1.0000003576278687,
				1.0000001192092896
			],
			"translation":[
				-6.206525802612305,
				0.7088184952735901,
				7.282190799713135
			]
		},
		{
			"name":"Bip01 R Finger02",
			"rotation":[
				1.7609693259146297e-07,
				2.248046087061084e-07,
				0.10685879737138748,
				0.9942741990089417
			],
			"translation":[
				3.1003379821777344,
				-7.62939453125e-06,
				-2.86102294921875e-06
			]
		},
		{
			"children":[
				48
			],
			"name":"Bip01 R Finger01",
			"rotation":[
				1.0685094053997091e-07,
				-3.402359141091438e-07,
				0.11265216022729874,
				0.9936345219612122
			],
			"scale":[
				0.9999999403953552,
				0.9999998211860657,
				1
			],
			"translation":[
				2.8278238773345947,
				1.9073486328125e-06,
				-1.2874603271484375e-05
			]
		},
		{
			"children":[
				49
			],
			"name":"Bip01 R Finger0",
			"rotation":[
				-0.6539393067359924,
				-0.3667513430118561,
				-0.03328171372413635,
				0.6608700752258301
			],
			"scale":[
				0.9999999403953552,
				0.9999999403953552,
				1.0000001192092896
			],
			"translation":[
				2.6761016845703125,
				0.6282269954681396,
				3.198251247406006
			]
		},
		{
			"name":"Bip01 R Finger12",
			"rotation":[
				-6.14809607668576e-08,
				7.452237049676569e-09,
				0.021091554313898087,
				0.999777615070343
			],
			"scale":[
				0.9999999403953552,
				1,
				1
			],
			"translation":[
				2.3790676593780518,
				1.4066696166992188e-05,
				-8.106231689453125e-06
			]
		},
		{
			"children":[
				51
			],
			"name":"Bip01 R Finger11",
			"rotation":[
				2.918503412274731e-07,
				2.057918990772123e-08,
				0.0934697687625885,
				0.9956220984458923
			],
			"translation":[
				3.128960132598877,
				-1.5735626220703125e-05,
				6.198883056640625e-06
			]
		},
		{
			"children":[
				52
			],
			"name":"Bip01 R Finger1",
			"rotation":[
				0.0005939514958299696,
				-0.004124389961361885,
				0.10714070498943329,
				0.9942351579666138
			],
			"scale":[
				0.9999999403953552,
				1,
				0.9999999403953552
			],
			"translation":[
				9.43897819519043,
				-0.20390009880065918,
				2.2424511909484863
			]
		},
		{
			"name":"Bip01 R Finger22",
			"rotation":[
				-2.826512570663908e-07,
				-3.360720768341707e-08,
				0.09046716243028641,
				0.995899498462677
			],
			"scale":[
				0.9999999403953552,
				0.9999998211860657,
				1.0000001192092896
			],
			"translation":[
				2.848832845687866,
				4.246830940246582e-06,
				-1.430511474609375e-06
			]
		},
		{
			"children":[
				54
			],
			"name":"Bip01 R Finger21",
			"rotation":[
				-2.333485904504329e-10,
				2.3334858489931776e-09,
				0.06659194082021713,
				0.9977803230285645
			],
			"translation":[
				3.8013980388641357,
				5.304813385009766e-06,
				7.3909759521484375e-06
			]
		},
		{
			"children":[
				55
			],
			"name":"Bip01 R Finger2",
			"rotation":[
				0.13920119404792786,
				0.028465982526540756,
				0.1446169763803482,
				0.9792337417602539
			],
			"scale":[
				0.9999999403953552,
				0.9999999403953552,
				0.9999999403953552
			],
			"translation":[
				9.559292793273926,
				-0.18639767169952393,
				-0.14534997940063477
			]
		},
		{
			"name":"Bip01 R Finger32",
			"rotation":[
				-4.215562654508176e-08,
				8.920223848463138e-08,
				0.025095241144299507,
				0.9996850490570068
			],
			"scale":[
				1,
				1,
				0.9999999403953552
			],
			"translation":[
				2.4441978931427,
				1.7702579498291016e-05,
				-1.430511474609375e-06
			]
		},
		{
			"children":[
				57
			],
			"name":"Bip01 R Finger31",
			"rotation":[
				6.43987476678376e-08,
				-2.913970575946223e-08,
				0.049606382846832275,
				0.9987688660621643
			],
			"scale":[
				0.9999999403953552,
				0.9999999403953552,
				1
			],
			"translation":[
				3.3696556091308594,
				-6.735324859619141e-06,
				7.3909759521484375e-06
			]
		},
		{
			"children":[
				58
			],
			"name":"Bip01 R Finger3",
			"rotation":[
				0.1477331817150116,
				0.01908603310585022,
				0.18398909270763397,
				0.9715753793716431
			],
			"scale":[
				1.0000001192092896,
				0.9999997615814209,
				0.9999998211860657
			],
			"translation":[
				8.993648529052734,
				0.22699368000030518,
				-2.3016858100891113
			]
		},
		{
			"name":"Bip01 R Finger42",
			"rotation":[
				2.218402705977951e-08,
				-1.2559301865167072e-07,
				0.024950996041297913,
				0.9996886849403381
			],
			"scale":[
				1,
				0.9999999403953552,
				0.9999999403953552
			],
			"translation":[
				1.535804033279419,
				-2.5033950805664062e-05,
				2.86102294921875e-06
			]
		},
		{
			"children":[
				60
			],
			"name":"Bip01 R Finger41",
			"rotation":[
				-3.665596750579425e-07,
				-5.9385467210404386e-08,
				0.02144538052380085,
				0.9997700452804565
			],
			"scale":[
				0.9999999403953552,
				1,
				1.0000001192092896
			],
			"translation":[
				2.9087729454040527,
				-9.655952453613281e-06,
				3.337860107421875e-06
			]
		},
		{
			"children":[
				61
			],
			"name":"Bip01 R Finger4",
			"rotation":[
				0.22423338890075684,
				0.043561793863773346,
				0.26742079854011536,
				0.936113178730011
			],
			"scale":[
				1,
				0.9999998211860657,
				0.9999998807907104
			],
			"translation":[
				8.02383041381836,
				1.2019485235214233,
				-3.974724292755127
			]
		},
		{
			"children":[
				50,
				53,
				56,
				59,
				62
			],
			"name":"Bip01 R Hand",
			"rotation":[
				0.7147619724273682,
				-0.012448600493371487,
				0.03602408617734909,
				0.6983284950256348
			],
			"scale":[
				0.9999998807907104,
				0.9999997615814209,
				0.9999999403953552
			],
			"translation":[
				27.091936111450195,
				-2.7179718017578125e-05,
				2.682209014892578e-05
			]
		},
		{
			"children":[
				63
			],
			"name":"Bip01 R Forearm",
			"rotation":[
				1.7229656634754065e-07,
				1.1727052395826831e-07,
				-0.17941711843013763,
				0.9837730526924133
			],
			"scale":[
				1.0000001192092896,
				1,
				1
			],
			"translation":[
				28.580127716064453,
				-1.3470649719238281e-05,
				2.2292137145996094e-05
			]
		},
		{
			"children":[
				64
			],
			"name":"Bip01 R UpperArm",
			"rotation":[
				-0.09000914543867111,
				-0.2669895887374878,
				-0.02968398481607437,
				0.9590275287628174
			],
			"scale":[
				1,
				0.9999999403953552,
				1
			],
			"translation":[
				14.10796070098877,
				-7.778406143188477e-06,
				1.33514404296875e-05
			]
		},
		{
			"children":[
				65
			],
			"name":"Bip01 R Clavicle",
			"rotation":[
				-0.6135295033454895,
				0.1139594316482544,
				0.7713329195976257,
				0.12506131827831268
			],
			"scale":[
				1.0000008344650269,
				1,
				1
			],
			"translation":[
				-6.206510543823242,
				0.708854615688324,
				-7.2821831703186035
			]
		},
		{
			"children":[
				28,
				47,
				66
			],
			"name":"Bip01 Neck",
			"rotation":[
				5.1994839544988736e-09,
				-4.4521380004880484e-07,
				0.16845478117465973,
				0.9857094287872314
			],
			"scale":[
				0.9999999403953552,
				0.9999999403953552,
				1
			],
			"translation":[
				19.914148330688477,
				1.5633810758590698,
				1.2771347428497393e-06
			]
		},
		{
			"children":[
				67
			],
			"name":"Bip01 Spine2",
			"rotation":[
				-6.536086255559681e-11,
				-1.0055489951810159e-07,
				0.015563374385237694,
				0.9998788833618164
			],
			"scale":[
				0.9999999403953552,
				0.9999999403953552,
				1
			],
			"translation":[
				15.317575454711914,
				-0.012190461158752441,
				9.096261237573344e-07
			]
		},
		{
			"children":[
				68
			],
			"name":"Bip01 Spine1",
			"rotation":[
				-4.988776058922895e-10,
				1.3598049974916648e-07,
				-0.013679513707756996,
				0.9999064207077026
			],
			"scale":[
				1,
				1,
				1.0000001192092896
			],
			"translation":[
				15.316884994506836,
				-0.012191593647003174,
				-2.094004685204709e-06
			]
		},
		{
			"name":"Bip01 L Toe0",
			"rotation":[
				-5.738614277106535e-07,
				6.163934926917136e-07,
				0.7071067094802856,
				0.7071068286895752
			],
			"scale":[
				0.9999999403953552,
				0.9999999403953552,
				0.9999999403953552
			],
			"translation":[
				10.16238021850586,
				13.629566192626953,
				-2.242405025754124e-05
			]
		},
		{
			"children":[
				70
			],
			"name":"Bip01 L Foot",
			"rotation":[
				0.014937198720872402,
				-0.01971779763698578,
				0.043912630528211594,
				0.9987291097640991
			],
			"scale":[
				0.9999998807907104,
				0.9999997019767761,
				0.9999997615814209
			],
			"translation":[
				39.668888092041016,
				-7.331371307373047e-06,
				-8.493661880493164e-06
			]
		},
		{
			"children":[
				71
			],
			"name":"Bip01 L Calf",
			"rotation":[
				7.149872516265532e-08,
				-7.068226892670282e-08,
				-0.06167899817228317,
				0.9980960488319397
			],
			"scale":[
				0.9999999403953552,
				1.0000001192092896,
				0.9999999403953552
			],
			"translation":[
				39.90355682373047,
				3.6954879760742188e-06,
				-2.086162567138672e-07
			]
		},
		{
			"children":[
				72
			],
			"name":"Bip01 L Thigh",
			"rotation":[
				-0.0018706663977354765,
				-0.9900749921798706,
				-0.13801458477973938,
				0.02645968832075596
			],
			"scale":[
				0.9999999403953552,
				0.9999999403953552,
				1.0000001192092896
			],
			"translation":[
				-12.021269798278809,
				-0.3724934458732605,
				8.8368501663208
			]
		},
		{
			"name":"Bip01 R Toe0",
			"rotation":[
				5.946206442786206e-07,
				-5.914370149184833e-07,
				0.7071067690849304,
				0.7071067690849304
			],
			"scale":[
				0.9999999403953552,
				0.9999999403953552,
				1
			],
			"translation":[
				10.162374496459961,
				13.629575729370117,
				2.313632285222411e-05
			]
		},
		{
			"children":[
				74
			],
			"name":"Bip01 R Foot",
			"rotation":[
				-0.014937243424355984,
				0.01971798948943615,
				0.043912623077631,
				0.9987290501594543
			],
			"scale":[
				1,
				0.9999998807907104,
				1
			],
			"translation":[
				39.668907165527344,
				0,
				-4.380941390991211e-06
			]
		},
		{
			"children":[
				75
			],
			"name":"Bip01 R Calf",
			"rotation":[
				1.7845520616788235e-08,
				-9.377647103292475e-08,
				-0.061679065227508545,
				0.9980960488319397
			],
			"scale":[
				0.9999998807907104,
				1,
				1
			],
			"translation":[
				39.90353775024414,
				-3.6954879760742188e-06,
				1.7583370208740234e-06
			]
		},
		{
			"children":[
				76
			],
			"name":"Bip01 R Thigh",
			"rotation":[
				0.0018707455601543188,
				0.9900753498077393,
				-0.13801178336143494,
				0.026459580287337303
			],
			"scale":[
				1,
				0.9999997019767761,
				1
			],
			"translation":[
				-12.021271705627441,
				-0.372443825006485,
				-8.836848258972168
			]
		},
		{
			"children":[
				69,
				73,
				77
			],
			"name":"Bip01 Spine",
			"rotation":[
				-2.0975867300876416e-06,
				6.851274179098255e-07,
				-0.022256098687648773,
				0.9997522830963135
			],
			"scale":[
				1,
				1.0000001192092896,
				1
			],
			"translation":[
				12.025932312011719,
				-0.1628580242395401,
				-1.750310002535116e-05
			]
		},
		{
			"children":[
				78
			],
			"name":"Bip01 Pelvis",
			"rotation":[
				0.7071067690849304,
				0.7071067690849304,
				-1.0115257964571356e-06,
				3.09099092987708e-08
			],
			"scale":[
				1,
				0.9999998807907104,
				1
			],
			"translation":[
				3.019806626980426e-13,
				0,
				7.453889935837843e-20
			]
		},
		{
			"mesh":0,
			"name":"m158_hipoly_81_bones_opacity",
			"skin":0
		},
		{
			"children":[
				80,
				79
			],
			"name":"Bip01",
			"rotation":[
				0,
				-0.7071062922477722,
				0,
				0.7071073651313782
			],
			"scale":[
				0.009999999776482582,
				0.009999999776482582,
				0.009999999776482582
			],
			"translation":[
				0,
				0.8951848149299622,
				0
			]
		}
	],
	"materials":[
		{
			"doubleSided":true,
			"name":"m158_body",
			"normalTexture":{
				"index":0
			},
			"pbrMetallicRoughness":{
				"baseColorTexture":{
					"index":1
				},
				"metallicRoughnessTexture":{
					"index":2
				}
			}
		},
		{
			"doubleSided":true,
			"name":"m158_head",
			"normalTexture":{
				"index":3
			},
			"pbrMetallicRoughness":{
				"baseColorTexture":{
					"index":4
				},
				"metallicRoughnessTexture":{
					"index":5
				}
			}
		},
		{
			"doubleSided":true,
			"name":"m158_helmet",
			"normalTexture":{
				"index":6
			},
			"pbrMetallicRoughness":{
				"baseColorTexture":{
					"index":7
				},
				"metallicRoughnessTexture":{
					"index":8
				}
			}
		},
		{
			"doubleSided":true,
			"name":"m158_equipment",
			"normalTexture":{
				"index":9
			},
			"pbrMetallicRoughness":{
				"baseColorTexture":{
					"index":10
				},
				"metallicRoughnessTexture":{
					"index":11
				}
			}
		},
		{
			"doubleSided":true,
			"name":"m158_pistol",
			"normalTexture":{
				"index":12
			},
			"pbrMetallicRoughness":{
				"baseColorTexture":{
					"index":13
				},
				"metallicRoughnessTexture":{
					"index":14
				}
			}
		},
		{
			"alphaMode":"BLEND",
			"doubleSided":true,
			"name":"m158_opacity",
			"normalTexture":{
				"index":15
			},
			"pbrMetallicRoughness":{
				"baseColorTexture":{
					"index":16
				},
				"metallicRoughnessTexture":{
					"index":17
				}
			}
		}
	],
	"meshes":[
		{
			"name":"Mesh",
			"primitives":[
				{
					"attributes":{
						"POSITION":0,
						"NORMAL":1,
						"TEXCOORD_0":2,
						"COLOR_0":3,
						"COLOR_1":4,
						"JOINTS_0":5,
						"WEIGHTS_0":6
					},
					"indices":7,
					"material":0
				},
				{
					"attributes":{
						"POSITION":8,
						"NORMAL":9,
						"TEXCOORD_0":10,
						"COLOR_0":11,
						"COLOR_1":12,
						"JOINTS_0":13,
						"WEIGHTS_0":14
					},
					"indices":15,
					"material":1
				},
				{
					"attributes":{
						"POSITION":16,
						"NORMAL":17,
						"TEXCOORD_0":18,
						"COLOR_0":19,
						"COLOR_1":20,
						"JOINTS_0":21,
						"WEIGHTS_0":22
					},
					"indices":23,
					"material":2
				},
				{
					"attributes":{
						"POSITION":24,
						"NORMAL":25,
						"TEXCOORD_0":26,
						"COLOR_0":27,
						"COLOR_1":28,
						"JOINTS_0":29,
						"WEIGHTS_0":30
					},
					"indices":31,
					"material":3
				},
				{
					"attributes":{
						"POSITION":32,
						"NORMAL":33,
						"TEXCOORD_0":34,
						"COLOR_0":35,
						"COLOR_1":36,
						"JOINTS_0":37,
						"WEIGHTS_0":38
					},
					"indices":39,
					"material":4
				},
				{
					"attributes":{
						"POSITION":40,
						"NORMAL":41,
						"TEXCOORD_0":42,
						"COLOR_0":43,
						"COLOR_1":44,
						"JOINTS_0":45,
						"WEIGHTS_0":46
					},
					"indices":47,
					"material":5
				}
			]
		}
	],
	"textures":[
		{
			"sampler":0,
			"source":0
		},
		{
			"sampler":0,
			"source":1
		},
		{
			"sampler":0,
			"source":2
		},
		{
			"sampler":0,
			"source":3
		},
		{
			"sampler":0,
			"source":4
		},
		{
			"sampler":0,
			"source":5
		},
		{
			"sampler":0,
			"source":6
		},
		{
			"sampler":0,
			"source":7
		},
		{
			"sampler":0,
			"source":8
		},
		{
			"sampler":0,
			"source":9
		},
		{
			"sampler":0,
			"source":10
		},
		{
			"sampler":0,
			"source":11
		},
		{
			"sampler":0,
			"source":12
		},
		{
			"sampler":0,
			"source":13
		},
		{
			"sampler":0,
			"source":14
		},
		{
			"sampler":0,
			"source":15
		},
		{
			"sampler":0,
			"source":16
		},
		{
			"sampler":0,
			"source":17
		}
	],
	"images":[
		{
			"mimeType":"image/png",
			"name":"m158_body_normal",
			"uri":"m158_body_normal.png"
		},
		{
			"mimeType":"image/png",
			"name":"m158_body_color",
			"uri":"m158_body_color.png"
		},
		{
			"mimeType":"image/png",
			"name":"m158_body_surface",
			"uri":"m158_body_surface.png"
		},
		{
			"mimeType":"image/png",
			"name":"m158_head_normal",
			"uri":"m158_head_normal.png"
		},
		{
			"mimeType":"image/png",
			"name":"m158_head_color",
			"uri":"m158_head_color.png"
		},
		{
			"mimeType":"image/png",
			"name":"m158_head_surface",
			"uri":"m158_head_surface.png"
		},
		{
			"mimeType":"image/png",
			"name":"m158_helmet_normal",
			"uri":"m158_helmet_normal.png"
		},
		{
			"mimeType":"image/png",
			"name":"m158_helmet_color",
			"uri":"m158_helmet_color.png"
		},
		{
			"mimeType":"image/png",
			"name":"m158_helmet_surface",
			"uri":"m158_helmet_surface.png"
		},
		{
			"mimeType":"image/png",
			"name":"m158_equipment_normal",
			"uri":"m158_equipment_normal.png"
		},
		{
			"mimeType":"image/png",
			"name":"m158_equipment_color",
			"uri":"m158_equipment_color.png"
		},
		{
			"mimeType":"image/png",
			"name":"m158_equipment_surface",
			"uri":"m158_equipment_surface.png"
		},
		{
			"mimeType":"image/png",
			"name":"m158_pistol_normal",
			"uri":"m158_pistol_normal.png"
		},
		{
			"mimeType":"image/png",
			"name":"m158_pistol_color",
			"uri":"m158_pistol_color.png"
		},
		{
			"mimeType":"image/png",
			"name":"m158_pistol_surface",
			"uri":"m158_pistol_surface.png"
		},
		{
			"mimeType":"image/png",
			"name":"m158_opacity_normal",
			"uri":"m158_opacity_normal.png"
		},
		{
			"mimeType":"image/png",
			"name":"m158_opacity_color",
			"uri":"m158_opacity_color.png"
		},
		{
			"mimeType":"image/png",
			"name":"m158_opacity_surface",
			"uri":"m158_opacity_surface.png"
		}
	],
	"skins":[
		{
			"inverseBindMatrices":48,
			"joints":[
				79,
				78,
				69,
				68,
				67,
				28,
				0,
				1,
				6,
				2,
				3,
				4,
				5,
				7,
				8,
				9,
				10,
				11,
				12,
				13,
				14,
				15,
				16,
				17,
				18,
				19,
				20,
				21,
				22,
				23,
				24,
				25,
				26,
				27,
				47,
				46,
				45,
				44,
				31,
				30,
				29,
				34,
				33,
				32,
				37,
				36,
				35,
				40,
				39,
				38,
				43,
				42,
				41,
				66,
				65,
				64,
				63,
				50,
				49,
				48,
				53,
				52,
				51,
				56,
				55,
				54,
				59,
				58,
				57,
				62,
				61,
				60,
				73,
				72,
				71,
				70,
				77,
				76,
				75,
				74
			],
			"name":"Bip01"
		}
	],
	"accessors":[
		{
			"bufferView":0,
			"componentType":5126,
			"count":4331,
			"max":[
				0.6761810183525085,
				1.694701075553894,
				0.20369166135787964
			],
			"min":[
				-0.6761810183525085,
				-0.000926152162719518,
				-0.16803473234176636
			],
			"type":"VEC3"
		},
		{
			"bufferView":1,
			"componentType":5126,
			"count":4331,
			"type":"VEC3"
		},
		{
			"bufferView":2,
			"componentType":5126,
			"count":4331,
			"type":"VEC2"
		},
		{
			"bufferView":3,
			"componentType":5121,
			"count":4331,
			"normalized":true,
			"type":"VEC4"
		},
		{
			"bufferView":4,
			"componentType":5123,
			"count":4331,
			"normalized":true,
			"type":"VEC4"
		},
		{
			"bufferView":5,
			"componentType":5121,
			"count":4331,
			"type":"VEC4"
		},
		{
			"bufferView":6,
			"componentType":5126,
			"count":4331,
			"type":"VEC4"
		},
		{
			"bufferView":7,
			"componentType":5123,
			"count":17664,
			"type":"SCALAR"
		},
		{
			"bufferView":8,
			"componentType":5126,
			"count":803,
			"max":[
				0.09011728316545486,
				1.803544044494629,
				0.15378089249134064
			],
			"min":[
				-0.09011726081371307,
				1.5224738121032715,
				-0.0821971744298935
			],
			"type":"VEC3"
		},
		{
			"bufferView":9,
			"componentType":5126,
			"count":803,
			"type":"VEC3"
		},
		{
			"bufferView":10,
			"componentType":5126,
			"count":803,
			"type":"VEC2"
		},
		{
			"bufferView":11,
			"componentType":5121,
			"count":803,
			"normalized":true,
			"type":"VEC4"
		},
		{
			"bufferView":12,
			"componentType":5123,
			"count":803,
			"normalized":true,
			"type":"VEC4"
		},
		{
			"bufferView":13,
			"componentType":5121,
			"count":803,
			"type":"VEC4"
		},
		{
			"bufferView":14,
			"componentType":5126,
			"count":803,
			"type":"VEC4"
		},
		{
			"bufferView":15,
			"componentType":5123,
			"count":4134,
			"type":"SCALAR"
		},
		{
			"bufferView":16,
			"componentType":5126,
			"count":1141,
			"max":[
				0.11487749218940735,
				1.8423439264297485,
				0.1720149964094162
			],
			"min":[
				-0.11487748473882675,
				1.5578314065933228,
				-0.10776638984680176
			],
			"type":"VEC3"
		},
		{
			"bufferView":17,
			"componentType":5126,
			"count":1141,
			"type":"VEC3"
		},
		{
			"bufferView":18,
			"componentType":5126,
			"count":1141,
			"type":"VEC2"
		},
		{
			"bufferView":19,
			"componentType":5121,
			"count":1141,
			"normalized":true,
			"type":"VEC4"
		},
		{
			"bufferView":20,
			"componentType":5123,
			"count":1141,
			"normalized":true,
			"type":"VEC4"
		},
		{
			"bufferView":21,
			"componentType":5121,
			"count":1141,
			"type":"VEC4"
		},
		{
			"bufferView":22,
			"componentType":5126,
			"count":1141,
			"type":"VEC4"
		},
		{
			"bufferView":23,
			"componentType":5123,
			"count":4368,
			"type":"SCALAR"
		},
		{
			"bufferView":24,
			"componentType":5126,
			"count":805,
			"max":[
				0.25636279582977295,
				1.6166629791259766,
				0.15127508342266083
			],
			"min":[
				-0.2449071705341339,
				0.5366344451904297,
				-0.18135932087898254
			],
			"type":"VEC3"
		},
		{
			"bufferView":25,
			"componentType":5126,
			"count":805,
			"type":"VEC3"
		},
		{
			"bufferView":26,
			"componentType":5126,
			"count":805,
			"type":"VEC2"
		},
		{
			"bufferView":27,
			"componentType":5121,
			"count":805,
			"normalized":true,
			"type":"VEC4"
		},
		{
			"bufferView":28,
			"componentType":5123,
			"count":805,
			"normalized":true,
			"type":"VEC4"
		},
		{
			"bufferView":29,
			"componentType":5121,
			"count":805,
			"type":"VEC4"
		},
		{
			"bufferView":30,
			"componentType":5126,
			"count":805,
			"type":"VEC4"
		},
		{
			"bufferView":31,
			"componentType":5123,
			"count":3129,
			"type":"SCALAR"
		},
		{
			"bufferView":32,
			"componentType":5126,
			"count":1159,
			"max":[
				0.16973423957824707,
				1.2561252117156982,
				0.20069235563278198
			],
			"min":[
				-0.23494777083396912,
				0.8308786153793335,
				-0.12107972800731659
			],
			"type":"VEC3"
		},
		{
			"bufferView":33,
			"componentType":5126,
			"count":1159,
			"type":"VEC3"
		},
		{
			"bufferView":34,
			"componentType":5126,
			"count":1159,
			"type":"VEC2"
		},
		{
			"bufferView":35,
			"componentType":5121,
			"count":1159,
			"normalized":true,
			"type":"VEC4"
		},
		{
			"bufferView":36,
			"componentType":5123,
			"count":1159,
			"normalized":true,
			"type":"VEC4"
		},
		{
			"bufferView":37,
			"componentType":5121,
			"count":1159,
			"type":"VEC4"
		},
		{
			"bufferView":38,
			"componentType":5126,
			"count":1159,
			"type":"VEC4"
		},
		{
			"bufferView":39,
			"componentType":5123,
			"count":3282,
			"type":"SCALAR"
		},
		{
			"bufferView":40,
			"componentType":5126,
			"count":24,
			"max":[
				0.07999011874198914,
				1.8145713806152344,
				0.166685089468956
			],
			"min":[
				-0.07999445497989655,
				1.735430121421814,
				0.1071552038192749
			],
			"type":"VEC3"
		},
		{
			"bufferView":41,
			"componentType":5126,
			"count":24,
			"type":"VEC3"
		},
		{
			"bufferView":42,
			"componentType":5126,
			"count":24,
			"type":"VEC2"
		},
		{
			"bufferView":43,
			"componentType":5121,
			"count":24,
			"normalized":true,
			"type":"VEC4"
		},
		{
			"bufferView":44,
			"componentType":5123,
			"count":24,
			"normalized":true,
			"type":"VEC4"
		},
		{
			"bufferView":45,
			"componentType":5121,
			"count":24,
			"type":"VEC4"
		},
		{
			"bufferView":46,
			"componentType":5126,
			"count":24,
			"type":"VEC4"
		},
		{
			"bufferView":47,
			"componentType":5123,
			"count":66,
			"type":"SCALAR"
		},
		{
			"bufferView":48,
			"componentType":5126,
			"count":80,
			"type":"MAT4"
		}
	],
	"bufferViews":[
		{
			"buffer":0,
			"byteLength":51972,
			"byteOffset":0,
			"target":34962
		},
		{
			"buffer":0,
			"byteLength":51972,
			"byteOffset":51972,
			"target":34962
		},
		{
			"buffer":0,
			"byteLength":34648,
			"byteOffset":103944,
			"target":34962
		},
		{
			"buffer":0,
			"byteLength":17324,
			"byteOffset":138592,
			"target":34962
		},
		{
			"buffer":0,
			"byteLength":34648,
			"byteOffset":155916,
			"target":34962
		},
		{
			"buffer":0,
			"byteLength":17324,
			"byteOffset":190564,
			"target":34962
		},
		{
			"buffer":0,
			"byteLength":69296,
			"byteOffset":207888,
			"target":34962
		},
		{
			"buffer":0,
			"byteLength":35328,
			"byteOffset":277184,
			"target":34963
		},
		{
			"buffer":0,
			"byteLength":9636,
			"byteOffset":312512,
			"target":34962
		},
		{
			"buffer":0,
			"byteLength":9636,
			"byteOffset":322148,
			"target":34962
		},
		{
			"buffer":0,
			"byteLength":6424,
			"byteOffset":331784,
			"target":34962
		},
		{
			"buffer":0,
			"byteLength":3212,
			"byteOffset":338208,
			"target":34962
		},
		{
			"buffer":0,
			"byteLength":6424,
			"byteOffset":341420,
			"target":34962
		},
		{
			"buffer":0,
			"byteLength":3212,
			"byteOffset":347844,
			"target":34962
		},
		{
			"buffer":0,
			"byteLength":12848,
			"byteOffset":351056,
			"target":34962
		},
		{
			"buffer":0,
			"byteLength":8268,
			"byteOffset":363904,
			"target":34963
		},
		{
			"buffer":0,
			"byteLength":13692,
			"byteOffset":372172,
			"target":34962
		},
		{
			"buffer":0,
			"byteLength":13692,
			"byteOffset":385864,
			"target":34962
		},
		{
			"buffer":0,
			"byteLength":9128,
			"byteOffset":399556,
			"target":34962
		},
		{
			"buffer":0,
			"byteLength":4564,
			"byteOffset":408684,
			"target":34962
		},
		{
			"buffer":0,
			"byteLength":9128,
			"byteOffset":413248,
			"target":34962
		},
		{
			"buffer":0,
			"byteLength":4564,
			"byteOffset":422376,
			"target":34962
		},
		{
			"buffer":0,
			"byteLength":18256,
			"byteOffset":426940,
			"target":34962
		},
		{
			"buffer":0,
			"byteLength":8736,
			"byteOffset":445196,
			"target":34963
		},
		{
			"buffer":0,
			"byteLength":9660,
			"byteOffset":453932,
			"target":34962
		},
		{
			"buffer":0,
			"byteLength":9660,
			"byteOffset":463592,
			"target":34962
		},
		{
			"buffer":0,
			"byteLength":6440,
			"byteOffset":473252,
			"target":34962
		},
		{
			"buffer":0,
			"byteLength":3220,
			"byteOffset":479692,
			"target":34962
		},
		{
			"buffer":0,
			"byteLength":6440,
			"byteOffset":482912,
			"target":34962
		},
		{
			"buffer":0,
			"byteLength":3220,
			"byteOffset":489352,
			"target":34962
		},
		{
			"buffer":0,
			"byteLength":12880,
			"byteOffset":492572,
			"target":34962
		},
		{
			"buffer":0,
			"byteLength":6258,
			"byteOffset":505452,
			"target":34963
		},
		{
			"buffer":0,
			"byteLength":13908,
			"byteOffset":511712,
			"target":34962
		},
		{
			"buffer":0,
			"byteLength":13908,
			"byteOffset":525620,
			"target":34962
		},
		{
			"buffer":0,
			"byteLength":9272,
			"byteOffset":539528,
			"target":34962
		},
		{
			"buffer":0,
			"byteLength":4636,
			"byteOffset":548800,
			"target":34962
		},
		{
			"buffer":0,
			"byteLength":9272,
			"byteOffset":553436,
			"target":34962
		},
		{
			"buffer":0,
			"byteLength":4636,
			"byteOffset":562708,
			"target":34962
		},
		{
			"buffer":0,
			"byteLength":18544,
			"byteOffset":567344,
			"target":34962
		},
		{
			"buffer":0,
			"byteLength":6564,
			"byteOffset":585888,
			"target":34963
		},
		{
			"buffer":0,
			"byteLength":288,
			"byteOffset":592452,
			"target":34962
		},
		{
			"buffer":0,
			"byteLength":288,
			"byteOffset":592740,
			"target":34962
		},
		{
			"buffer":0,
			"byteLength":192,
			"byteOffset":593028,
			"target":34962
		},
		{
			"buffer":0,
			"byteLength":96,
			"byteOffset":593220,
			"target":34962
		},
		{
			"buffer":0,
			"byteLength":192,
			"byteOffset":593316,
			"target":34962
		},
		{
			"buffer":0,
			"byteLength":96,
			"byteOffset":593508,
			"target":34962
		},
		{
			"buffer":0,
			"byteLength":384,
			"byteOffset":593604,
			"target":34962
		},
		{
			"buffer":0,
			"byteLength":132,
			"byteOffset":593988,
			"target":34963
		},
		{
			"buffer":0,
			"byteLength":5120,
			"byteOffset":594120
		}
	],
	"samplers":[
		{
			"magFilter":9729,
			"minFilter":9987
		}
	],
	"buffers":[
		{
			"byteLength":599240,
			"uri":"police_male_02.bin"
		}
	]
}
