{
  "asset": {
    "generator": "Khronos glTF Blender I/O v5.1.20",
    "version": "2.0"
  },
  "scene": 0,
  "scenes": [
    {
      "name": "Scene",
      "nodes": [
        0,
        1
      ]
    }
  ],
  "nodes": [
    {
      "mesh": 0,
      "name": "oil_tin"
    },
    {
      "mesh": 1,
      "name": "oil_tin_handle",
      "translation": [
        -0.0014898735098540783,
        0.19314929842948914,
        -0.0089885164052248
      ]
    }
  ],
  "materials": [
    {
      "doubleSided": true,
      "name": "oil_tin",
      "normalTexture": {
        "index": 0
      },
      "pbrMetallicRoughness": {
        "baseColorTexture": {
          "index": 1
        },
        "metallicRoughnessTexture": {
          "index": 2
        }
      }
    }
  ],
  "meshes": [
    {
      "name": "Oilkanister_Body_low",
      "primitives": [
        {
          "attributes": {
            "POSITION": 0,
            "NORMAL": 1,
            "TEXCOORD_0": 2
          },
          "indices": 3,
          "material": 0
        }
      ]
    },
    {
      "name": "Oilkanister_Handle_low",
      "primitives": [
        {
          "attributes": {
            "POSITION": 4,
            "NORMAL": 5,
            "TEXCOORD_0": 6
          },
          "indices": 7,
          "material": 0
        }
      ]
    }
  ],
  "textures": [
    {
      "sampler": 0,
      "source": 0
    },
    {
      "sampler": 0,
      "source": 1
    },
    {
      "sampler": 0,
      "source": 2
    }
  ],
  "images": [
    {
      "mimeType": "image/jpeg",
      "name": "oil_tin_nor_gl",
      "uri": "textures/oil_tin_nor_gl_2k.jpg"
    },
    {
      "mimeType": "image/jpeg",
      "name": "oil_tin_diff",
      "uri": "textures/oil_tin_diff_2k.jpg"
    },
    {
      "mimeType": "image/jpeg",
      "name": "oil_tin_metal-oil_tin_rough",
      "uri": "textures/oil_tin_arm_2k.jpg"
    }
  ],
  "accessors": [
    {
      "bufferView": 0,
      "componentType": 5126,
      "count": 1535,
      "max": [
        0.048009999096393585,
        0.20463000237941742,
        0.07553098350763321
      ],
      "min": [
        -0.06671199947595596,
        -0.0007489951676689088,
        -0.07801400125026703
      ],
      "type": "VEC3"
    },
    {
      "bufferView": 1,
      "componentType": 5126,
      "count": 1535,
      "type": "VEC3"
    },
    {
      "bufferView": 2,
      "componentType": 5126,
      "count": 1535,
      "type": "VEC2"
    },
    {
      "bufferView": 3,
      "componentType": 5123,
      "count": 7266,
      "type": "SCALAR"
    },
    {
      "bufferView": 4,
      "componentType": 5126,
      "count": 236,
      "max": [
        0.002549523953348398,
        0.0058106123469769955,
        0.03835447505116463
      ],
      "min": [
        -0.036578357219696045,
        -0.0028220503591001034,
        -0.03796595707535744
      ],
      "type": "VEC3"
    },
    {
      "bufferView": 5,
      "componentType": 5126,
      "count": 236,
      "type": "VEC3"
    },
    {
      "bufferView": 6,
      "componentType": 5126,
      "count": 236,
      "type": "VEC2"
    },
    {
      "bufferView": 7,
      "componentType": 5123,
      "count": 1236,
      "type": "SCALAR"
    }
  ],
  "bufferViews": [
    {
      "buffer": 0,
      "byteLength": 18420,
      "byteOffset": 0,
      "target": 34962
    },
    {
      "buffer": 0,
      "byteLength": 18420,
      "byteOffset": 18420,
      "target": 34962
    },
    {
      "buffer": 0,
      "byteLength": 12280,
      "byteOffset": 36840,
      "target": 34962
    },
    {
      "buffer": 0,
      "byteLength": 14532,
      "byteOffset": 49120,
      "target": 34963
    },
    {
      "buffer": 0,
      "byteLength": 2832,
      "byteOffset": 63652,
      "target": 34962
    },
    {
      "buffer": 0,
      "byteLength": 2832,
      "byteOffset": 66484,
      "target": 34962
    },
    {
      "buffer": 0,
      "byteLength": 1888,
      "byteOffset": 69316,
      "target": 34962
    },
    {
      "buffer": 0,
      "byteLength": 2472,
      "byteOffset": 71204,
      "target": 34963
    }
  ],
  "samplers": [
    {
      "magFilter": 9729,
      "minFilter": 9987
    }
  ],
  "buffers": [
    {
      "byteLength": 73676,
      "uri": "oil_tin.bin"
    }
  ]
}