{
 "asset": {
  "generator": "Khronos glTF Blender I/O v4.5.51",
  "version": "2.0"
 },
 "scene": 0,
 "scenes": [
  {
   "name": "Scene",
   "nodes": [
    0
   ]
  }
 ],
 "nodes": [
  {
   "mesh": 0,
   "name": "shell"
  }
 ],
 "materials": [
  {
   "name": "granite_rubble",
   "normalTexture": {
    "index": 0
   },
   "occlusionTexture": {
    "index": 1
   },
   "pbrMetallicRoughness": {
    "baseColorTexture": {
     "index": 2
    },
    "metallicRoughnessTexture": {
     "index": 1
    }
   }
  },
  {
   "name": "soot",
   "normalTexture": {
    "index": 3
   },
   "occlusionTexture": {
    "index": 4
   },
   "pbrMetallicRoughness": {
    "baseColorTexture": {
     "index": 5
    },
    "metallicRoughnessTexture": {
     "index": 4
    }
   }
  },
  {
   "name": "slate_roof",
   "normalTexture": {
    "index": 6
   },
   "occlusionTexture": {
    "index": 7
   },
   "pbrMetallicRoughness": {
    "baseColorTexture": {
     "index": 8
    },
    "metallicRoughnessTexture": {
     "index": 7
    }
   }
  },
  {
   "name": "roof_moss",
   "normalTexture": {
    "index": 9
   },
   "occlusionTexture": {
    "index": 10
   },
   "pbrMetallicRoughness": {
    "baseColorTexture": {
     "index": 11
    },
    "metallicRoughnessTexture": {
     "index": 10
    }
   }
  },
  {
   "name": "granite_ashlar",
   "normalTexture": {
    "index": 12
   },
   "occlusionTexture": {
    "index": 13
   },
   "pbrMetallicRoughness": {
    "baseColorTexture": {
     "index": 14
    },
    "metallicRoughnessTexture": {
     "index": 13
    }
   }
  },
  {
   "name": "terracotta",
   "normalTexture": {
    "index": 15
   },
   "occlusionTexture": {
    "index": 16
   },
   "pbrMetallicRoughness": {
    "baseColorTexture": {
     "index": 17
    },
    "metallicRoughnessTexture": {
     "index": 16
    }
   }
  },
  {
   "name": "corrugated_rusty",
   "normalTexture": {
    "index": 18
   },
   "occlusionTexture": {
    "index": 19
   },
   "pbrMetallicRoughness": {
    "baseColorTexture": {
     "index": 20
    },
    "metallicRoughnessTexture": {
     "index": 19
    }
   }
  },
  {
   "name": "painted_wood_white",
   "normalTexture": {
    "index": 21
   },
   "occlusionTexture": {
    "index": 22
   },
   "pbrMetallicRoughness": {
    "baseColorTexture": {
     "index": 23
    },
    "metallicRoughnessTexture": {
     "index": 22
    }
   }
  },
  {
   "name": "timber_beam",
   "normalTexture": {
    "index": 24
   },
   "occlusionTexture": {
    "index": 25
   },
   "pbrMetallicRoughness": {
    "baseColorTexture": {
     "index": 26
    },
    "metallicRoughnessTexture": {
     "index": 25
    }
   }
  },
  {
   "name": "rail_signs",
   "normalTexture": {
    "index": 27
   },
   "occlusionTexture": {
    "index": 28
   },
   "pbrMetallicRoughness": {
    "baseColorTexture": {
     "index": 29
    },
    "metallicRoughnessTexture": {
     "index": 28
    }
   }
  }
 ],
 "meshes": [
  {
   "name": "shell",
   "primitives": [
    {
     "attributes": {
      "POSITION": 0,
      "NORMAL": 1,
      "TEXCOORD_0": 2
     },
     "indices": 3,
     "material": 0
    },
    {
     "attributes": {
      "POSITION": 4,
      "NORMAL": 5,
      "TEXCOORD_0": 6
     },
     "indices": 7,
     "material": 1
    },
    {
     "attributes": {
      "POSITION": 8,
      "NORMAL": 9,
      "TEXCOORD_0": 10
     },
     "indices": 11,
     "material": 2
    },
    {
     "attributes": {
      "POSITION": 12,
      "NORMAL": 13,
      "TEXCOORD_0": 14
     },
     "indices": 15,
     "material": 3
    },
    {
     "attributes": {
      "POSITION": 16,
      "NORMAL": 17,
      "TEXCOORD_0": 18
     },
     "indices": 19,
     "material": 4
    },
    {
     "attributes": {
      "POSITION": 20,
      "NORMAL": 21,
      "TEXCOORD_0": 22
     },
     "indices": 23,
     "material": 5
    },
    {
     "attributes": {
      "POSITION": 24,
      "NORMAL": 25,
      "TEXCOORD_0": 26
     },
     "indices": 11,
     "material": 6
    },
    {
     "attributes": {
      "POSITION": 27,
      "NORMAL": 28,
      "TEXCOORD_0": 29
     },
     "indices": 30,
     "material": 7
    },
    {
     "attributes": {
      "POSITION": 31,
      "NORMAL": 32,
      "TEXCOORD_0": 33
     },
     "indices": 30,
     "material": 8
    },
    {
     "attributes": {
      "POSITION": 34,
      "NORMAL": 35,
      "TEXCOORD_0": 36
     },
     "indices": 37,
     "material": 9
    }
   ]
  }
 ],
 "textures": [
  {
   "sampler": 0,
   "source": 0
  },
  {
   "sampler": 0,
   "source": 1
  },
  {
   "sampler": 0,
   "source": 2
  },
  {
   "sampler": 0,
   "source": 3
  },
  {
   "sampler": 0,
   "source": 4
  },
  {
   "sampler": 0,
   "source": 5
  },
  {
   "sampler": 0,
   "source": 6
  },
  {
   "sampler": 0,
   "source": 7
  },
  {
   "sampler": 0,
   "source": 8
  },
  {
   "sampler": 0,
   "source": 9
  },
  {
   "sampler": 0,
   "source": 10
  },
  {
   "sampler": 0,
   "source": 11
  },
  {
   "sampler": 0,
   "source": 12
  },
  {
   "sampler": 0,
   "source": 13
  },
  {
   "sampler": 0,
   "source": 14
  },
  {
   "sampler": 0,
   "source": 15
  },
  {
   "sampler": 0,
   "source": 16
  },
  {
   "sampler": 0,
   "source": 17
  },
  {
   "sampler": 0,
   "source": 18
  },
  {
   "sampler": 0,
   "source": 19
  },
  {
   "sampler": 0,
   "source": 20
  },
  {
   "sampler": 0,
   "source": 21
  },
  {
   "sampler": 0,
   "source": 22
  },
  {
   "sampler": 0,
   "source": 23
  },
  {
   "sampler": 0,
   "source": 24
  },
  {
   "sampler": 0,
   "source": 25
  },
  {
   "sampler": 0,
   "source": 26
  },
  {
   "sampler": 0,
   "source": 27
  },
  {
   "sampler": 0,
   "source": 28
  },
  {
   "sampler": 0,
   "source": 29
  }
 ],
 "images": [
  {
   "mimeType": "image/png",
   "name": "granite_rubble_normal.png",
   "uri": "../_library/granite_rubble_normal.png"
  },
  {
   "mimeType": "image/png",
   "name": "granite_rubble_orm.png",
   "uri": "../_library/granite_rubble_orm.png"
  },
  {
   "mimeType": "image/png",
   "name": "granite_rubble_albedo.png",
   "uri": "../_library/granite_rubble_albedo.png"
  },
  {
   "mimeType": "image/png",
   "name": "soot_normal.png",
   "uri": "../_library/soot_normal.png"
  },
  {
   "mimeType": "image/png",
   "name": "soot_orm.png",
   "uri": "../_library/soot_orm.png"
  },
  {
   "mimeType": "image/png",
   "name": "soot_albedo.png",
   "uri": "../_library/soot_albedo.png"
  },
  {
   "mimeType": "image/png",
   "name": "slate_roof_normal.png",
   "uri": "../_library/slate_roof_normal.png"
  },
  {
   "mimeType": "image/png",
   "name": "slate_roof_orm.png",
   "uri": "../_library/slate_roof_orm.png"
  },
  {
   "mimeType": "image/png",
   "name": "slate_roof_albedo.png",
   "uri": "../_library/slate_roof_albedo.png"
  },
  {
   "mimeType": "image/png",
   "name": "roof_moss_normal.png",
   "uri": "../_library/roof_moss_normal.png"
  },
  {
   "mimeType": "image/png",
   "name": "roof_moss_orm.png",
   "uri": "../_library/roof_moss_orm.png"
  },
  {
   "mimeType": "image/png",
   "name": "roof_moss_albedo.png",
   "uri": "../_library/roof_moss_albedo.png"
  },
  {
   "mimeType": "image/png",
   "name": "granite_ashlar_normal.png",
   "uri": "../_library/granite_ashlar_normal.png"
  },
  {
   "mimeType": "image/png",
   "name": "granite_ashlar_orm.png",
   "uri": "../_library/granite_ashlar_orm.png"
  },
  {
   "mimeType": "image/png",
   "name": "granite_ashlar_albedo.png",
   "uri": "../_library/granite_ashlar_albedo.png"
  },
  {
   "mimeType": "image/png",
   "name": "terracotta_normal.png",
   "uri": "../_library/terracotta_normal.png"
  },
  {
   "mimeType": "image/png",
   "name": "terracotta_orm.png",
   "uri": "../_library/terracotta_orm.png"
  },
  {
   "mimeType": "image/png",
   "name": "terracotta_albedo.png",
   "uri": "../_library/terracotta_albedo.png"
  },
  {
   "mimeType": "image/png",
   "name": "corrugated_rusty_normal.png",
   "uri": "../_library/corrugated_rusty_normal.png"
  },
  {
   "mimeType": "image/png",
   "name": "corrugated_rusty_orm.png",
   "uri": "../_library/corrugated_rusty_orm.png"
  },
  {
   "mimeType": "image/png",
   "name": "corrugated_rusty_albedo.png",
   "uri": "../_library/corrugated_rusty_albedo.png"
  },
  {
   "mimeType": "image/png",
   "name": "painted_wood_white_normal.png",
   "uri": "../_library/painted_wood_white_normal.png"
  },
  {
   "mimeType": "image/png",
   "name": "painted_wood_white_orm.png",
   "uri": "../_library/painted_wood_white_orm.png"
  },
  {
   "mimeType": "image/png",
   "name": "painted_wood_white_albedo.png",
   "uri": "../_library/painted_wood_white_albedo.png"
  },
  {
   "mimeType": "image/png",
   "name": "timber_beam_normal.png",
   "uri": "../_library/timber_beam_normal.png"
  },
  {
   "mimeType": "image/png",
   "name": "timber_beam_orm.png",
   "uri": "../_library/timber_beam_orm.png"
  },
  {
   "mimeType": "image/png",
   "name": "timber_beam_albedo.png",
   "uri": "../_library/timber_beam_albedo.png"
  },
  {
   "mimeType": "image/png",
   "name": "rail_signs_normal.png",
   "uri": "../_library/rail_signs_normal.png"
  },
  {
   "mimeType": "image/png",
   "name": "rail_signs_orm.png",
   "uri": "../_library/rail_signs_orm.png"
  },
  {
   "mimeType": "image/png",
   "name": "rail_signs_albedo.png",
   "uri": "../_library/rail_signs_albedo.png"
  }
 ],
 "accessors": [
  {
   "bufferView": 0,
   "componentType": 5126,
   "count": 168,
   "max": [
    6,
    5.451284408569336,
    2.5
   ],
   "min": [
    -6,
    -2.4000000953674316,
    -5.75
   ],
   "type": "VEC3"
  },
  {
   "bufferView": 1,
   "componentType": 5126,
   "count": 168,
   "type": "VEC3"
  },
  {
   "bufferView": 2,
   "componentType": 5126,
   "count": 168,
   "type": "VEC2"
  },
  {
   "bufferView": 3,
   "componentType": 5123,
   "count": 264,
   "type": "SCALAR"
  },
  {
   "bufferView": 4,
   "componentType": 5126,
   "count": 80,
   "max": [
    4.800000190734863,
    2.3499999046325684,
    2.50600004196167
   ],
   "min": [
    -5.150000095367432,
    0,
    -2.50600004196167
   ],
   "type": "VEC3"
  },
  {
   "bufferView": 5,
   "componentType": 5126,
   "count": 80,
   "type": "VEC3"
  },
  {
   "bufferView": 6,
   "componentType": 5126,
   "count": 80,
   "type": "VEC2"
  },
  {
   "bufferView": 7,
   "componentType": 5123,
   "count": 120,
   "type": "SCALAR"
  },
  {
   "bufferView": 8,
   "componentType": 5126,
   "count": 24,
   "max": [
    5.550000190734863,
    5.291284561157227,
    2.799999952316284
   ],
   "min": [
    -5.550000190734863,
    2.946082830429077,
    -0.12313230335712433
   ],
   "type": "VEC3"
  },
  {
   "bufferView": 9,
   "componentType": 5126,
   "count": 24,
   "type": "VEC3"
  },
  {
   "bufferView": 10,
   "componentType": 5126,
   "count": 24,
   "type": "VEC2"
  },
  {
   "bufferView": 11,
   "componentType": 5123,
   "count": 36,
   "type": "SCALAR"
  },
  {
   "bufferView": 12,
   "componentType": 5126,
   "count": 24,
   "max": [
    5.550000190734863,
    5.291284561157227,
    0.12313230335712433
   ],
   "min": [
    -5.550000190734863,
    2.946082830429077,
    -2.799999952316284
   ],
   "type": "VEC3"
  },
  {
   "bufferView": 13,
   "componentType": 5126,
   "count": 24,
   "type": "VEC3"
  },
  {
   "bufferView": 14,
   "componentType": 5126,
   "count": 24,
   "type": "VEC2"
  },
  {
   "bufferView": 15,
   "componentType": 5123,
   "count": 36,
   "type": "SCALAR"
  },
  {
   "bufferView": 16,
   "componentType": 5126,
   "count": 456,
   "max": [
    6.050000190734863,
    6.411284446716309,
    2.6723852157592773
   ],
   "min": [
    -6.050000190734863,
    -1.899999976158142,
    -5.599999904632568
   ],
   "type": "VEC3"
  },
  {
   "bufferView": 17,
   "componentType": 5126,
   "count": 456,
   "type": "VEC3"
  },
  {
   "bufferView": 18,
   "componentType": 5126,
   "count": 456,
   "type": "VEC2"
  },
  {
   "bufferView": 19,
   "componentType": 5123,
   "count": 720,
   "type": "SCALAR"
  },
  {
   "bufferView": 20,
   "componentType": 5126,
   "count": 48,
   "max": [
    5.760000228881836,
    6.891283988952637,
    0.3499999940395355
   ],
   "min": [
    -5.760000228881836,
    6.411284446716309,
    0.15000000596046448
   ],
   "type": "VEC3"
  },
  {
   "bufferView": 21,
   "componentType": 5126,
   "count": 48,
   "type": "VEC3"
  },
  {
   "bufferView": 22,
   "componentType": 5126,
   "count": 48,
   "type": "VEC2"
  },
  {
   "bufferView": 23,
   "componentType": 5123,
   "count": 72,
   "type": "SCALAR"
  },
  {
   "bufferView": 24,
   "componentType": 5126,
   "count": 24,
   "max": [
    5.699999809265137,
    3.1600000858306885,
    5.199999809265137
   ],
   "min": [
    -5.699999809265137,
    2.7689290046691895,
    2.492687940597534
   ],
   "type": "VEC3"
  },
  {
   "bufferView": 25,
   "componentType": 5126,
   "count": 24,
   "type": "VEC3"
  },
  {
   "bufferView": 26,
   "componentType": 5126,
   "count": 24,
   "type": "VEC2"
  },
  {
   "bufferView": 27,
   "componentType": 5126,
   "count": 24,
   "max": [
    5.699999809265137,
    2.8362412452697754,
    5.199999809265137
   ],
   "min": [
    -5.699999809265137,
    2.41624116897583,
    5.170000076293945
   ],
   "type": "VEC3"
  },
  {
   "bufferView": 28,
   "componentType": 5126,
   "count": 24,
   "type": "VEC3"
  },
  {
   "bufferView": 29,
   "componentType": 5126,
   "count": 24,
   "type": "VEC2"
  },
  {
   "bufferView": 30,
   "componentType": 5123,
   "count": 36,
   "type": "SCALAR"
  },
  {
   "bufferView": 31,
   "componentType": 5126,
   "count": 24,
   "max": [
    1.399999976158142,
    3.486241102218628,
    5.170000076293945
   ],
   "min": [
    -1.399999976158142,
    2.9062411785125732,
    5.130000114440918
   ],
   "type": "VEC3"
  },
  {
   "bufferView": 32,
   "componentType": 5126,
   "count": 24,
   "type": "VEC3"
  },
  {
   "bufferView": 33,
   "componentType": 5126,
   "count": 24,
   "type": "VEC2"
  },
  {
   "bufferView": 34,
   "componentType": 5126,
   "count": 4,
   "max": [
    1.3600000143051147,
    3.4512410163879395,
    5.171999931335449
   ],
   "min": [
    -1.3600000143051147,
    2.9412412643432617,
    5.171999931335449
   ],
   "type": "VEC3"
  },
  {
   "bufferView": 35,
   "componentType": 5126,
   "count": 4,
   "type": "VEC3"
  },
  {
   "bufferView": 36,
   "componentType": 5126,
   "count": 4,
   "type": "VEC2"
  },
  {
   "bufferView": 37,
   "componentType": 5123,
   "count": 6,
   "type": "SCALAR"
  }
 ],
 "bufferViews": [
  {
   "buffer": 0,
   "byteLength": 2016,
   "byteOffset": 0,
   "target": 34962
  },
  {
   "buffer": 0,
   "byteLength": 2016,
   "byteOffset": 2016,
   "target": 34962
  },
  {
   "buffer": 0,
   "byteLength": 1344,
   "byteOffset": 4032,
   "target": 34962
  },
  {
   "buffer": 0,
   "byteLength": 528,
   "byteOffset": 5376,
   "target": 34963
  },
  {
   "buffer": 0,
   "byteLength": 960,
   "byteOffset": 5904,
   "target": 34962
  },
  {
   "buffer": 0,
   "byteLength": 960,
   "byteOffset": 6864,
   "target": 34962
  },
  {
   "buffer": 0,
   "byteLength": 640,
   "byteOffset": 7824,
   "target": 34962
  },
  {
   "buffer": 0,
   "byteLength": 240,
   "byteOffset": 8464,
   "target": 34963
  },
  {
   "buffer": 0,
   "byteLength": 288,
   "byteOffset": 8704,
   "target": 34962
  },
  {
   "buffer": 0,
   "byteLength": 288,
   "byteOffset": 8992,
   "target": 34962
  },
  {
   "buffer": 0,
   "byteLength": 192,
   "byteOffset": 9280,
   "target": 34962
  },
  {
   "buffer": 0,
   "byteLength": 72,
   "byteOffset": 9472,
   "target": 34963
  },
  {
   "buffer": 0,
   "byteLength": 288,
   "byteOffset": 9544,
   "target": 34962
  },
  {
   "buffer": 0,
   "byteLength": 288,
   "byteOffset": 9832,
   "target": 34962
  },
  {
   "buffer": 0,
   "byteLength": 192,
   "byteOffset": 10120,
   "target": 34962
  },
  {
   "buffer": 0,
   "byteLength": 72,
   "byteOffset": 10312,
   "target": 34963
  },
  {
   "buffer": 0,
   "byteLength": 5472,
   "byteOffset": 10384,
   "target": 34962
  },
  {
   "buffer": 0,
   "byteLength": 5472,
   "byteOffset": 15856,
   "target": 34962
  },
  {
   "buffer": 0,
   "byteLength": 3648,
   "byteOffset": 21328,
   "target": 34962
  },
  {
   "buffer": 0,
   "byteLength": 1440,
   "byteOffset": 24976,
   "target": 34963
  },
  {
   "buffer": 0,
   "byteLength": 576,
   "byteOffset": 26416,
   "target": 34962
  },
  {
   "buffer": 0,
   "byteLength": 576,
   "byteOffset": 26992,
   "target": 34962
  },
  {
   "buffer": 0,
   "byteLength": 384,
   "byteOffset": 27568,
   "target": 34962
  },
  {
   "buffer": 0,
   "byteLength": 144,
   "byteOffset": 27952,
   "target": 34963
  },
  {
   "buffer": 0,
   "byteLength": 288,
   "byteOffset": 28096,
   "target": 34962
  },
  {
   "buffer": 0,
   "byteLength": 288,
   "byteOffset": 28384,
   "target": 34962
  },
  {
   "buffer": 0,
   "byteLength": 192,
   "byteOffset": 28672,
   "target": 34962
  },
  {
   "buffer": 0,
   "byteLength": 288,
   "byteOffset": 28864,
   "target": 34962
  },
  {
   "buffer": 0,
   "byteLength": 288,
   "byteOffset": 29152,
   "target": 34962
  },
  {
   "buffer": 0,
   "byteLength": 192,
   "byteOffset": 29440,
   "target": 34962
  },
  {
   "buffer": 0,
   "byteLength": 72,
   "byteOffset": 29632,
   "target": 34963
  },
  {
   "buffer": 0,
   "byteLength": 288,
   "byteOffset": 29704,
   "target": 34962
  },
  {
   "buffer": 0,
   "byteLength": 288,
   "byteOffset": 29992,
   "target": 34962
  },
  {
   "buffer": 0,
   "byteLength": 192,
   "byteOffset": 30280,
   "target": 34962
  },
  {
   "buffer": 0,
   "byteLength": 48,
   "byteOffset": 30472,
   "target": 34962
  },
  {
   "buffer": 0,
   "byteLength": 48,
   "byteOffset": 30520,
   "target": 34962
  },
  {
   "buffer": 0,
   "byteLength": 32,
   "byteOffset": 30568,
   "target": 34962
  },
  {
   "buffer": 0,
   "byteLength": 12,
   "byteOffset": 30600,
   "target": 34963
  }
 ],
 "samplers": [
  {
   "magFilter": 9729,
   "minFilter": 9987
  }
 ],
 "buffers": [
  {
   "byteLength": 30612,
   "uri": "bld_station_far.bin"
  }
 ]
}