{
 "asset": {
  "generator": "zero point flora",
  "version": "2.0"
 },
 "scene": 0,
 "scenes": [
  {
   "name": "Scene",
   "nodes": [
    0,
    1
   ]
  }
 ],
 "nodes": [
  {
   "mesh": 0,
   "name": "trunk"
  },
  {
   "mesh": 1,
   "name": "foliage"
  }
 ],
 "materials": [
  {
   "name": "bark",
   "doubleSided": false,
   "pbrMetallicRoughness": {
    "baseColorTexture": {
     "index": 0
    },
    "metallicRoughnessTexture": {
     "index": 2
    },
    "metallicFactor": 0.0,
    "roughnessFactor": 1.0
   },
   "normalTexture": {
    "index": 1
   },
   "occlusionTexture": {
    "index": 2
   }
  },
  {
   "name": "leaf",
   "doubleSided": true,
   "pbrMetallicRoughness": {
    "baseColorTexture": {
     "index": 3
    },
    "metallicRoughnessTexture": {
     "index": 5
    },
    "metallicFactor": 0.0,
    "roughnessFactor": 1.0
   },
   "normalTexture": {
    "index": 4
   },
   "occlusionTexture": {
    "index": 5
   },
   "alphaMode": "MASK",
   "alphaCutoff": 0.5
  }
 ],
 "meshes": [
  {
   "name": "flora_willow_2_shadow_bark",
   "primitives": [
    {
     "attributes": {
      "POSITION": 0,
      "NORMAL": 1,
      "TEXCOORD_0": 2
     },
     "indices": 3,
     "material": 0
    }
   ]
  },
  {
   "name": "flora_willow_2_shadow_foliage",
   "primitives": [
    {
     "attributes": {
      "POSITION": 4,
      "NORMAL": 5,
      "TEXCOORD_0": 6
     },
     "indices": 7,
     "material": 1
    }
   ]
  }
 ],
 "textures": [
  {
   "sampler": 0,
   "source": 0
  },
  {
   "sampler": 0,
   "source": 1
  },
  {
   "sampler": 0,
   "source": 2
  },
  {
   "sampler": 0,
   "source": 3
  },
  {
   "sampler": 0,
   "source": 4
  },
  {
   "sampler": 0,
   "source": 5
  }
 ],
 "images": [
  {
   "mimeType": "image/png",
   "name": "flora_willow_bark_diff_2k.png",
   "uri": "../flora_willow_0/flora_willow_bark_diff_2k.png"
  },
  {
   "mimeType": "image/png",
   "name": "flora_willow_bark_nor_gl_2k.png",
   "uri": "../flora_willow_0/flora_willow_bark_nor_gl_2k.png"
  },
  {
   "mimeType": "image/png",
   "name": "flora_willow_bark_arm_2k.png",
   "uri": "../flora_willow_0/flora_willow_bark_arm_2k.png"
  },
  {
   "mimeType": "image/png",
   "name": "flora_willow_leaf_diff_2k.png",
   "uri": "../flora_willow_0/flora_willow_leaf_diff_2k.png"
  },
  {
   "mimeType": "image/png",
   "name": "flora_willow_leaf_nor_gl_2k.png",
   "uri": "../flora_willow_0/flora_willow_leaf_nor_gl_2k.png"
  },
  {
   "mimeType": "image/png",
   "name": "flora_willow_leaf_arm_2k.png",
   "uri": "../flora_willow_0/flora_willow_leaf_arm_2k.png"
  }
 ],
 "accessors": [
  {
   "bufferView": 0,
   "componentType": 5126,
   "count": 234,
   "max": [
    4.269659042358398,
    6.970246315002441,
    2.4828431606292725
   ],
   "min": [
    -1.3933979272842407,
    -0.44999998807907104,
    -1.5426852703094482
   ],
   "type": "VEC3"
  },
  {
   "bufferView": 1,
   "componentType": 5126,
   "count": 234,
   "type": "VEC3"
  },
  {
   "bufferView": 2,
   "componentType": 5126,
   "count": 234,
   "type": "VEC2"
  },
  {
   "bufferView": 3,
   "componentType": 5123,
   "count": 588,
   "type": "SCALAR"
  },
  {
   "bufferView": 4,
   "componentType": 5126,
   "count": 2280,
   "max": [
    6.93681526184082,
    8.97642707824707,
    4.942028522491455
   ],
   "min": [
    -3.6021463871002197,
    1.4913159608840942,
    -4.909935474395752
   ],
   "type": "VEC3"
  },
  {
   "bufferView": 5,
   "componentType": 5126,
   "count": 2280,
   "type": "VEC3"
  },
  {
   "bufferView": 6,
   "componentType": 5126,
   "count": 2280,
   "type": "VEC2"
  },
  {
   "bufferView": 7,
   "componentType": 5123,
   "count": 3420,
   "type": "SCALAR"
  }
 ],
 "bufferViews": [
  {
   "buffer": 0,
   "byteLength": 2808,
   "byteOffset": 0,
   "target": 34962
  },
  {
   "buffer": 0,
   "byteLength": 2808,
   "byteOffset": 2808,
   "target": 34962
  },
  {
   "buffer": 0,
   "byteLength": 1872,
   "byteOffset": 5616,
   "target": 34962
  },
  {
   "buffer": 0,
   "byteLength": 1176,
   "byteOffset": 7488,
   "target": 34963
  },
  {
   "buffer": 0,
   "byteLength": 27360,
   "byteOffset": 8664,
   "target": 34962
  },
  {
   "buffer": 0,
   "byteLength": 27360,
   "byteOffset": 36024,
   "target": 34962
  },
  {
   "buffer": 0,
   "byteLength": 18240,
   "byteOffset": 63384,
   "target": 34962
  },
  {
   "buffer": 0,
   "byteLength": 6840,
   "byteOffset": 81624,
   "target": 34963
  }
 ],
 "samplers": [
  {
   "magFilter": 9729,
   "minFilter": 9987,
   "wrapS": 10497,
   "wrapT": 10497
  }
 ],
 "buffers": [
  {
   "byteLength": 88464,
   "uri": "flora_willow_2_shadow.bin"
  }
 ]
}