{
 "asset": {
  "generator": "Khronos glTF Blender I/O v4.5.51",
  "version": "2.0"
 },
 "scene": 0,
 "scenes": [
  {
   "name": "Scene",
   "nodes": [
    0,
    1,
    2,
    3,
    4,
    5,
    6,
    7
   ]
  }
 ],
 "nodes": [
  {
   "mesh": 0,
   "name": "bed"
  },
  {
   "mesh": 1,
   "name": "sleepers"
  },
  {
   "mesh": 2,
   "name": "rails"
  },
  {
   "mesh": 3,
   "name": "fastenings"
  },
  {
   "mesh": 4,
   "name": "stones"
  },
  {
   "mesh": 5,
   "name": "grass"
  },
  {
   "mesh": 6,
   "name": "weeds"
  },
  {
   "mesh": 7,
   "name": "debris"
  }
 ],
 "materials": [
  {
   "name": "ballast_stone",
   "normalTexture": {
    "index": 0
   },
   "occlusionTexture": {
    "index": 1
   },
   "pbrMetallicRoughness": {
    "baseColorTexture": {
     "index": 2
    },
    "metallicRoughnessTexture": {
     "index": 1
    }
   }
  },
  {
   "name": "sleeper_timber",
   "normalTexture": {
    "index": 3
   },
   "occlusionTexture": {
    "index": 4
   },
   "pbrMetallicRoughness": {
    "baseColorTexture": {
     "index": 5
    },
    "metallicRoughnessTexture": {
     "index": 4
    }
   }
  },
  {
   "name": "rail_steel",
   "normalTexture": {
    "index": 6
   },
   "occlusionTexture": {
    "index": 7
   },
   "pbrMetallicRoughness": {
    "baseColorTexture": {
     "index": 8
    },
    "metallicRoughnessTexture": {
     "index": 7
    }
   }
  },
  {
   "name": "rust_iron",
   "normalTexture": {
    "index": 9
   },
   "occlusionTexture": {
    "index": 10
   },
   "pbrMetallicRoughness": {
    "baseColorTexture": {
     "index": 11
    },
    "metallicRoughnessTexture": {
     "index": 10
    }
   }
  },
  {
   "name": "ext_grass_clumps",
   "alphaMode": "MASK",
   "alphaCutoff": 0.5,
   "doubleSided": true,
   "pbrMetallicRoughness": {
    "baseColorTexture": {
     "index": 23
    },
    "metallicRoughnessTexture": {
     "index": 24
    },
    "metallicFactor": 0.0,
    "roughnessFactor": 1.0
   },
   "normalTexture": {
    "index": 21
   },
   "occlusionTexture": {
    "index": 22
   }
  },
  {
   "alphaMode": "BLEND",
   "doubleSided": true,
   "name": "ext_grass_medium_01",
   "normalTexture": {
    "index": 25
   },
   "pbrMetallicRoughness": {
    "baseColorTexture": {
     "index": 26
    },
    "metallicFactor": 0,
    "metallicRoughnessTexture": {
     "index": 27
    }
   }
  },
  {
   "alphaCutoff": 0.5,
   "alphaMode": "MASK",
   "doubleSided": true,
   "name": "ext_weed_plant_02",
   "normalTexture": {
    "index": 28
   },
   "pbrMetallicRoughness": {
    "baseColorTexture": {
     "index": 29
    },
    "metallicFactor": 0,
    "metallicRoughnessTexture": {
     "index": 30
    }
   }
  },
  {
   "alphaCutoff": 0.5,
   "alphaMode": "MASK",
   "doubleSided": true,
   "name": "ext_nettle_plant",
   "normalTexture": {
    "index": 31
   },
   "pbrMetallicRoughness": {
    "baseColorTexture": {
     "index": 32
    },
    "metallicFactor": 0,
    "metallicRoughnessTexture": {
     "index": 33
    }
   }
  },
  {
   "alphaCutoff": 0.5,
   "alphaMode": "MASK",
   "doubleSided": true,
   "name": "ext_fern_02",
   "normalTexture": {
    "index": 34
   },
   "pbrMetallicRoughness": {
    "baseColorTexture": {
     "index": 35
    },
    "metallicFactor": 0,
    "metallicRoughnessTexture": {
     "index": 36
    }
   }
  },
  {
   "alphaCutoff": 0.5,
   "alphaMode": "MASK",
   "doubleSided": true,
   "name": "ext_shrub_04",
   "normalTexture": {
    "index": 37
   },
   "pbrMetallicRoughness": {
    "baseColorTexture": {
     "index": 38
    },
    "metallicFactor": 0,
    "metallicRoughnessTexture": {
     "index": 39
    }
   }
  },
  {
   "name": "dirt_debris",
   "normalTexture": {
    "index": 18
   },
   "occlusionTexture": {
    "index": 19
   },
   "pbrMetallicRoughness": {
    "baseColorTexture": {
     "index": 20
    },
    "metallicRoughnessTexture": {
     "index": 19
    }
   }
  }
 ],
 "meshes": [
  {
   "name": "bed",
   "primitives": [
    {
     "attributes": {
      "POSITION": 0,
      "NORMAL": 1,
      "TEXCOORD_0": 2
     },
     "indices": 3,
     "material": 0
    }
   ]
  },
  {
   "name": "sleepers",
   "primitives": [
    {
     "attributes": {
      "POSITION": 4,
      "NORMAL": 5,
      "TEXCOORD_0": 6
     },
     "indices": 7,
     "material": 1
    }
   ]
  },
  {
   "name": "rails",
   "primitives": [
    {
     "attributes": {
      "POSITION": 8,
      "NORMAL": 9,
      "TEXCOORD_0": 10
     },
     "indices": 11,
     "material": 2
    }
   ]
  },
  {
   "name": "fastenings",
   "primitives": [
    {
     "attributes": {
      "POSITION": 12,
      "NORMAL": 13,
      "TEXCOORD_0": 14
     },
     "indices": 15,
     "material": 3
    }
   ]
  },
  {
   "name": "stones",
   "primitives": [
    {
     "attributes": {
      "POSITION": 16,
      "NORMAL": 17,
      "TEXCOORD_0": 18
     },
     "indices": 19,
     "material": 0
    }
   ]
  },
  {
   "name": "grass",
   "primitives": [
    {
     "attributes": {
      "POSITION": 20,
      "NORMAL": 21,
      "TEXCOORD_0": 22
     },
     "indices": 23,
     "material": 4
    }
   ]
  },
  {
   "name": "weeds",
   "primitives": [
    {
     "attributes": {
      "POSITION": 24,
      "NORMAL": 25,
      "TEXCOORD_0": 26
     },
     "indices": 27,
     "material": 5
    },
    {
     "attributes": {
      "POSITION": 28,
      "NORMAL": 29,
      "TEXCOORD_0": 30
     },
     "indices": 31,
     "material": 6
    },
    {
     "attributes": {
      "POSITION": 32,
      "NORMAL": 33,
      "TEXCOORD_0": 34
     },
     "indices": 35,
     "material": 7
    },
    {
     "attributes": {
      "POSITION": 36,
      "NORMAL": 37,
      "TEXCOORD_0": 38
     },
     "indices": 39,
     "material": 8
    },
    {
     "attributes": {
      "POSITION": 40,
      "NORMAL": 41,
      "TEXCOORD_0": 42
     },
     "indices": 43,
     "material": 9
    }
   ]
  },
  {
   "name": "debris",
   "primitives": [
    {
     "attributes": {
      "POSITION": 44,
      "NORMAL": 45,
      "TEXCOORD_0": 46
     },
     "indices": 47,
     "material": 10
    }
   ]
  }
 ],
 "textures": [
  {
   "sampler": 0,
   "source": 0
  },
  {
   "sampler": 0,
   "source": 1
  },
  {
   "sampler": 0,
   "source": 2
  },
  {
   "sampler": 0,
   "source": 3
  },
  {
   "sampler": 0,
   "source": 4
  },
  {
   "sampler": 0,
   "source": 5
  },
  {
   "sampler": 0,
   "source": 6
  },
  {
   "sampler": 0,
   "source": 7
  },
  {
   "sampler": 0,
   "source": 8
  },
  {
   "sampler": 0,
   "source": 9
  },
  {
   "sampler": 0,
   "source": 10
  },
  {
   "sampler": 0,
   "source": 11
  },
  {
   "sampler": 0,
   "source": 12
  },
  {
   "sampler": 0,
   "source": 13
  },
  {
   "sampler": 0,
   "source": 14
  },
  {
   "sampler": 0,
   "source": 15
  },
  {
   "sampler": 0,
   "source": 16
  },
  {
   "sampler": 0,
   "source": 17
  },
  {
   "sampler": 0,
   "source": 18
  },
  {
   "sampler": 0,
   "source": 19
  },
  {
   "sampler": 0,
   "source": 20
  },
  {
   "sampler": 0,
   "source": 21
  },
  {
   "sampler": 0,
   "source": 22
  },
  {
   "sampler": 0,
   "source": 12
  },
  {
   "sampler": 0,
   "source": 22
  },
  {
   "sampler": 0,
   "source": 23
  },
  {
   "sampler": 0,
   "source": 13
  },
  {
   "sampler": 0,
   "source": 24
  },
  {
   "sampler": 0,
   "source": 25
  },
  {
   "sampler": 0,
   "source": 14
  },
  {
   "sampler": 0,
   "source": 26
  },
  {
   "sampler": 0,
   "source": 27
  },
  {
   "sampler": 0,
   "source": 15
  },
  {
   "sampler": 0,
   "source": 28
  },
  {
   "sampler": 0,
   "source": 29
  },
  {
   "sampler": 0,
   "source": 16
  },
  {
   "sampler": 0,
   "source": 30
  },
  {
   "sampler": 0,
   "source": 31
  },
  {
   "sampler": 0,
   "source": 17
  },
  {
   "sampler": 0,
   "source": 32
  }
 ],
 "images": [
  {
   "mimeType": "image/png",
   "name": "ballast_stone_normal.png",
   "uri": "../_library/ballast_stone_normal.png"
  },
  {
   "mimeType": "image/png",
   "name": "ballast_stone_orm.png",
   "uri": "../_library/ballast_stone_orm.png"
  },
  {
   "mimeType": "image/png",
   "name": "ballast_stone_albedo.png",
   "uri": "../_library/ballast_stone_albedo.png"
  },
  {
   "mimeType": "image/png",
   "name": "sleeper_timber_normal.png",
   "uri": "../_library/sleeper_timber_normal.png"
  },
  {
   "mimeType": "image/png",
   "name": "sleeper_timber_orm.png",
   "uri": "../_library/sleeper_timber_orm.png"
  },
  {
   "mimeType": "image/png",
   "name": "sleeper_timber_albedo.png",
   "uri": "../_library/sleeper_timber_albedo.png"
  },
  {
   "mimeType": "image/png",
   "name": "rail_steel_normal.png",
   "uri": "../_library/rail_steel_normal.png"
  },
  {
   "mimeType": "image/png",
   "name": "rail_steel_orm.png",
   "uri": "../_library/rail_steel_orm.png"
  },
  {
   "mimeType": "image/png",
   "name": "rail_steel_albedo.png",
   "uri": "../_library/rail_steel_albedo.png"
  },
  {
   "mimeType": "image/png",
   "name": "rust_iron_normal.png",
   "uri": "../_library/rust_iron_normal.png"
  },
  {
   "mimeType": "image/png",
   "name": "rust_iron_orm.png",
   "uri": "../_library/rust_iron_orm.png"
  },
  {
   "mimeType": "image/png",
   "name": "rust_iron_albedo.png",
   "uri": "../_library/rust_iron_albedo.png"
  },
  {
   "mimeType": "image/png",
   "name": "grass_clumps_diff_2k.png",
   "uri": "../../../source/grass/grass_clumps/grass_clumps_diff_2k.png"
  },
  {
   "mimeType": "image/jpeg",
   "name": "grass_medium_01_diff_2k.jpg",
   "uri": "../grass_medium_01/textures/grass_medium_01_diff_2k.jpg"
  },
  {
   "mimeType": "image/jpeg",
   "name": "weed_plant_02_diff_2k.jpg",
   "uri": "../weed_plant_02/textures/weed_plant_02_diff_2k.jpg"
  },
  {
   "mimeType": "image/jpeg",
   "name": "nettle_plant_diff_2k.jpg",
   "uri": "../nettle_plant/textures/nettle_plant_diff_2k.jpg"
  },
  {
   "mimeType": "image/jpeg",
   "name": "fern_02_diff_2k.jpg",
   "uri": "../fern_02/textures/fern_02_diff_2k.jpg"
  },
  {
   "mimeType": "image/jpeg",
   "name": "shrub_04_diff_2k.jpg",
   "uri": "../shrub_04/textures/shrub_04_diff_2k.jpg"
  },
  {
   "mimeType": "image/png",
   "name": "dirt_debris_normal.png",
   "uri": "../_library/dirt_debris_normal.png"
  },
  {
   "mimeType": "image/png",
   "name": "dirt_debris_orm.png",
   "uri": "../_library/dirt_debris_orm.png"
  },
  {
   "mimeType": "image/png",
   "name": "dirt_debris_albedo.png",
   "uri": "../_library/dirt_debris_albedo.png"
  },
  {
   "uri": "../../../source/grass/grass_clumps/grass_clumps_nor_gl_2k.png",
   "mimeType": "image/jpeg"
  },
  {
   "uri": "../../../source/grass/grass_clumps/grass_clumps_arm_2k.png",
   "mimeType": "image/jpeg"
  },
  {
   "uri": "../grass_medium_01/textures/grass_medium_01_nor_gl_2k.jpg",
   "mimeType": "image/jpeg"
  },
  {
   "uri": "../grass_medium_01/textures/grass_medium_01_arm_2k.jpg",
   "mimeType": "image/jpeg"
  },
  {
   "uri": "../weed_plant_02/textures/weed_plant_02_nor_gl_2k.jpg",
   "mimeType": "image/jpeg"
  },
  {
   "uri": "../weed_plant_02/textures/weed_plant_02_arm_2k.jpg",
   "mimeType": "image/jpeg"
  },
  {
   "uri": "../nettle_plant/textures/nettle_plant_nor_gl_2k.jpg",
   "mimeType": "image/jpeg"
  },
  {
   "uri": "../nettle_plant/textures/nettle_plant_arm_2k.jpg",
   "mimeType": "image/jpeg"
  },
  {
   "uri": "../fern_02/textures/fern_02_nor_gl_2k.jpg",
   "mimeType": "image/jpeg"
  },
  {
   "uri": "../fern_02/textures/fern_02_arm_2k.jpg",
   "mimeType": "image/jpeg"
  },
  {
   "uri": "../shrub_04/textures/shrub_04_nor_gl_2k.jpg",
   "mimeType": "image/jpeg"
  },
  {
   "uri": "../shrub_04/textures/shrub_04_arm_2k.jpg",
   "mimeType": "image/jpeg"
  }
 ],
 "accessors": [
  {
   "bufferView": 0,
   "componentType": 5126,
   "count": 2619,
   "max": [
    2.5,
    0.30971068143844604,
    0
   ],
   "min": [
    -2.5,
    -0.08474656939506531,
    -12
   ],
   "type": "VEC3"
  },
  {
   "bufferView": 1,
   "componentType": 5126,
   "count": 2619,
   "type": "VEC3"
  },
  {
   "bufferView": 2,
   "componentType": 5126,
   "count": 2619,
   "type": "VEC2"
  },
  {
   "bufferView": 3,
   "componentType": 5123,
   "count": 14976,
   "type": "SCALAR"
  },
  {
   "bufferView": 4,
   "componentType": 5126,
   "count": 2032,
   "max": [
    1.337847113609314,
    0.35326507687568665,
    -0.19525811076164246
   ],
   "min": [
    -1.3239915370941162,
    0.21572445333003998,
    -11.80837631225586
   ],
   "type": "VEC3"
  },
  {
   "bufferView": 5,
   "componentType": 5126,
   "count": 2032,
   "type": "VEC3"
  },
  {
   "bufferView": 6,
   "componentType": 5126,
   "count": 2032,
   "type": "VEC2"
  },
  {
   "bufferView": 7,
   "componentType": 5123,
   "count": 8964,
   "type": "SCALAR"
  },
  {
   "bufferView": 8,
   "componentType": 5126,
   "count": 2270,
   "max": [
    0.8286508917808533,
    0.5000210404396057,
    -0.003000000026077032
   ],
   "min": [
    -0.8286508917808533,
    0.35707855224609375,
    -11.996999740600586
   ],
   "type": "VEC3"
  },
  {
   "bufferView": 9,
   "componentType": 5126,
   "count": 2270,
   "type": "VEC3"
  },
  {
   "bufferView": 10,
   "componentType": 5126,
   "count": 2270,
   "type": "VEC2"
  },
  {
   "bufferView": 11,
   "componentType": 5123,
   "count": 9084,
   "type": "SCALAR"
  },
  {
   "bufferView": 12,
   "componentType": 5126,
   "count": 9916,
   "max": [
    0.9396122694015503,
    0.45622313022613525,
    0
   ],
   "min": [
    -0.9396122694015503,
    0.3258175849914551,
    -12
   ],
   "type": "VEC3"
  },
  {
   "bufferView": 13,
   "componentType": 5126,
   "count": 9916,
   "type": "VEC3"
  },
  {
   "bufferView": 14,
   "componentType": 5126,
   "count": 9916,
   "type": "VEC2"
  },
  {
   "bufferView": 15,
   "componentType": 5123,
   "count": 20664,
   "type": "SCALAR"
  },
  {
   "bufferView": 16,
   "componentType": 5126,
   "count": 25099,
   "max": [
    2.3954222202301025,
    0.3813828229904175,
    -0.011286193504929543
   ],
   "min": [
    -2.4077165126800537,
    -0.049921903759241104,
    -11.971803665161133
   ],
   "type": "VEC3"
  },
  {
   "bufferView": 17,
   "componentType": 5126,
   "count": 25099,
   "type": "VEC3"
  },
  {
   "bufferView": 18,
   "componentType": 5126,
   "count": 25099,
   "type": "VEC2"
  },
  {
   "bufferView": 19,
   "componentType": 5123,
   "count": 40056,
   "type": "SCALAR"
  },
  {
   "bufferView": 20,
   "componentType": 5126,
   "count": 768,
   "max": [
    2.6758387088775635,
    0.8813819885253906,
    -0.2548225224018097
   ],
   "min": [
    -2.687476634979248,
    -0.04151959717273712,
    -10.925902366638184
   ],
   "type": "VEC3"
  },
  {
   "bufferView": 21,
   "componentType": 5126,
   "count": 768,
   "type": "VEC3"
  },
  {
   "bufferView": 22,
   "componentType": 5126,
   "count": 768,
   "type": "VEC2"
  },
  {
   "bufferView": 23,
   "componentType": 5123,
   "count": 1152,
   "type": "SCALAR"
  },
  {
   "bufferView": 24,
   "componentType": 5126,
   "count": 3414,
   "max": [
    2.285550832748413,
    0.653285562992096,
    -1.7700436115264893
   ],
   "min": [
    -2.1780102252960205,
    0.009906895458698273,
    -11.298050880432129
   ],
   "type": "VEC3"
  },
  {
   "bufferView": 25,
   "componentType": 5126,
   "count": 3414,
   "type": "VEC3"
  },
  {
   "bufferView": 26,
   "componentType": 5126,
   "count": 3414,
   "type": "VEC2"
  },
  {
   "bufferView": 27,
   "componentType": 5123,
   "count": 8286,
   "type": "SCALAR"
  },
  {
   "bufferView": 28,
   "componentType": 5126,
   "count": 2272,
   "max": [
    2.0963003635406494,
    0.3760215938091278,
    -3.6451165676116943
   ],
   "min": [
    -1.6982309818267822,
    0.1184680238366127,
    -10.749250411987305
   ],
   "type": "VEC3"
  },
  {
   "bufferView": 29,
   "componentType": 5126,
   "count": 2272,
   "type": "VEC3"
  },
  {
   "bufferView": 30,
   "componentType": 5126,
   "count": 2272,
   "type": "VEC2"
  },
  {
   "bufferView": 31,
   "componentType": 5123,
   "count": 5244,
   "type": "SCALAR"
  },
  {
   "bufferView": 32,
   "componentType": 5126,
   "count": 3876,
   "max": [
    -1.537723183631897,
    0.8832351565361023,
    -6.06350040435791
   ],
   "min": [
    -2.103268623352051,
    0.10843458771705627,
    -7.308222770690918
   ],
   "type": "VEC3"
  },
  {
   "bufferView": 33,
   "componentType": 5126,
   "count": 3876,
   "type": "VEC3"
  },
  {
   "bufferView": 34,
   "componentType": 5126,
   "count": 3876,
   "type": "VEC2"
  },
  {
   "bufferView": 35,
   "componentType": 5123,
   "count": 5028,
   "type": "SCALAR"
  },
  {
   "bufferView": 36,
   "componentType": 5126,
   "count": 840,
   "max": [
    2.640681743621826,
    0.25428837537765503,
    -10.127599716186523
   ],
   "min": [
    -2.404787063598633,
    -0.05093671381473541,
    -11.000646591186523
   ],
   "type": "VEC3"
  },
  {
   "bufferView": 37,
   "componentType": 5126,
   "count": 840,
   "type": "VEC3"
  },
  {
   "bufferView": 38,
   "componentType": 5126,
   "count": 840,
   "type": "VEC2"
  },
  {
   "bufferView": 39,
   "componentType": 5123,
   "count": 2814,
   "type": "SCALAR"
  },
  {
   "bufferView": 40,
   "componentType": 5126,
   "count": 11750,
   "max": [
    2.529837131500244,
    1.5314525365829468,
    -8.262478828430176
   ],
   "min": [
    -2.3437891006469727,
    -0.023129276931285858,
    -9.732305526733398
   ],
   "type": "VEC3"
  },
  {
   "bufferView": 41,
   "componentType": 5126,
   "count": 11750,
   "type": "VEC3"
  },
  {
   "bufferView": 42,
   "componentType": 5126,
   "count": 11750,
   "type": "VEC2"
  },
  {
   "bufferView": 43,
   "componentType": 5123,
   "count": 17562,
   "type": "SCALAR"
  },
  {
   "bufferView": 44,
   "componentType": 5126,
   "count": 160,
   "max": [
    -1.3111591339111328,
    0.27862775325775146,
    -4.703883171081543
   ],
   "min": [
    -2.3399908542633057,
    0.1344943791627884,
    -7.845799922943115
   ],
   "type": "VEC3"
  },
  {
   "bufferView": 45,
   "componentType": 5126,
   "count": 160,
   "type": "VEC3"
  },
  {
   "bufferView": 46,
   "componentType": 5126,
   "count": 160,
   "type": "VEC2"
  },
  {
   "bufferView": 47,
   "componentType": 5123,
   "count": 480,
   "type": "SCALAR"
  }
 ],
 "bufferViews": [
  {
   "buffer": 0,
   "byteLength": 31428,
   "byteOffset": 0,
   "target": 34962
  },
  {
   "buffer": 0,
   "byteLength": 31428,
   "byteOffset": 31428,
   "target": 34962
  },
  {
   "buffer": 0,
   "byteLength": 20952,
   "byteOffset": 62856,
   "target": 34962
  },
  {
   "buffer": 0,
   "byteLength": 29952,
   "byteOffset": 83808,
   "target": 34963
  },
  {
   "buffer": 0,
   "byteLength": 24384,
   "byteOffset": 113760,
   "target": 34962
  },
  {
   "buffer": 0,
   "byteLength": 24384,
   "byteOffset": 138144,
   "target": 34962
  },
  {
   "buffer": 0,
   "byteLength": 16256,
   "byteOffset": 162528,
   "target": 34962
  },
  {
   "buffer": 0,
   "byteLength": 17928,
   "byteOffset": 178784,
   "target": 34963
  },
  {
   "buffer": 0,
   "byteLength": 27240,
   "byteOffset": 196712,
   "target": 34962
  },
  {
   "buffer": 0,
   "byteLength": 27240,
   "byteOffset": 223952,
   "target": 34962
  },
  {
   "buffer": 0,
   "byteLength": 18160,
   "byteOffset": 251192,
   "target": 34962
  },
  {
   "buffer": 0,
   "byteLength": 18168,
   "byteOffset": 269352,
   "target": 34963
  },
  {
   "buffer": 0,
   "byteLength": 118992,
   "byteOffset": 287520,
   "target": 34962
  },
  {
   "buffer": 0,
   "byteLength": 118992,
   "byteOffset": 406512,
   "target": 34962
  },
  {
   "buffer": 0,
   "byteLength": 79328,
   "byteOffset": 525504,
   "target": 34962
  },
  {
   "buffer": 0,
   "byteLength": 41328,
   "byteOffset": 604832,
   "target": 34963
  },
  {
   "buffer": 0,
   "byteLength": 301188,
   "byteOffset": 646160,
   "target": 34962
  },
  {
   "buffer": 0,
   "byteLength": 301188,
   "byteOffset": 947348,
   "target": 34962
  },
  {
   "buffer": 0,
   "byteLength": 200792,
   "byteOffset": 1248536,
   "target": 34962
  },
  {
   "buffer": 0,
   "byteLength": 80112,
   "byteOffset": 1449328,
   "target": 34963
  },
  {
   "buffer": 0,
   "byteLength": 9216,
   "byteOffset": 1529440,
   "target": 34962
  },
  {
   "buffer": 0,
   "byteLength": 9216,
   "byteOffset": 1538656,
   "target": 34962
  },
  {
   "buffer": 0,
   "byteLength": 6144,
   "byteOffset": 1547872,
   "target": 34962
  },
  {
   "buffer": 0,
   "byteLength": 2304,
   "byteOffset": 1554016,
   "target": 34963
  },
  {
   "buffer": 0,
   "byteLength": 40968,
   "byteOffset": 1556320,
   "target": 34962
  },
  {
   "buffer": 0,
   "byteLength": 40968,
   "byteOffset": 1597288,
   "target": 34962
  },
  {
   "buffer": 0,
   "byteLength": 27312,
   "byteOffset": 1638256,
   "target": 34962
  },
  {
   "buffer": 0,
   "byteLength": 16572,
   "byteOffset": 1665568,
   "target": 34963
  },
  {
   "buffer": 0,
   "byteLength": 27264,
   "byteOffset": 1682140,
   "target": 34962
  },
  {
   "buffer": 0,
   "byteLength": 27264,
   "byteOffset": 1709404,
   "target": 34962
  },
  {
   "buffer": 0,
   "byteLength": 18176,
   "byteOffset": 1736668,
   "target": 34962
  },
  {
   "buffer": 0,
   "byteLength": 10488,
   "byteOffset": 1754844,
   "target": 34963
  },
  {
   "buffer": 0,
   "byteLength": 46512,
   "byteOffset": 1765332,
   "target": 34962
  },
  {
   "buffer": 0,
   "byteLength": 46512,
   "byteOffset": 1811844,
   "target": 34962
  },
  {
   "buffer": 0,
   "byteLength": 31008,
   "byteOffset": 1858356,
   "target": 34962
  },
  {
   "buffer": 0,
   "byteLength": 10056,
   "byteOffset": 1889364,
   "target": 34963
  },
  {
   "buffer": 0,
   "byteLength": 10080,
   "byteOffset": 1899420,
   "target": 34962
  },
  {
   "buffer": 0,
   "byteLength": 10080,
   "byteOffset": 1909500,
   "target": 34962
  },
  {
   "buffer": 0,
   "byteLength": 6720,
   "byteOffset": 1919580,
   "target": 34962
  },
  {
   "buffer": 0,
   "byteLength": 5628,
   "byteOffset": 1926300,
   "target": 34963
  },
  {
   "buffer": 0,
   "byteLength": 141000,
   "byteOffset": 1931928,
   "target": 34962
  },
  {
   "buffer": 0,
   "byteLength": 141000,
   "byteOffset": 2072928,
   "target": 34962
  },
  {
   "buffer": 0,
   "byteLength": 94000,
   "byteOffset": 2213928,
   "target": 34962
  },
  {
   "buffer": 0,
   "byteLength": 35124,
   "byteOffset": 2307928,
   "target": 34963
  },
  {
   "buffer": 0,
   "byteLength": 1920,
   "byteOffset": 2343052,
   "target": 34962
  },
  {
   "buffer": 0,
   "byteLength": 1920,
   "byteOffset": 2344972,
   "target": 34962
  },
  {
   "buffer": 0,
   "byteLength": 1280,
   "byteOffset": 2346892,
   "target": 34962
  },
  {
   "buffer": 0,
   "byteLength": 960,
   "byteOffset": 2348172,
   "target": 34963
  }
 ],
 "samplers": [
  {
   "magFilter": 9729,
   "minFilter": 9987
  }
 ],
 "buffers": [
  {
   "byteLength": 2349132,
   "uri": "rail_track_weeds.bin"
  }
 ]
}