{
 "asset": {
  "generator": "zero point flora",
  "version": "2.0"
 },
 "scene": 0,
 "scenes": [
  {
   "name": "Scene",
   "nodes": [
    0,
    1
   ]
  }
 ],
 "nodes": [
  {
   "mesh": 0,
   "name": "trunk"
  },
  {
   "mesh": 1,
   "name": "foliage"
  }
 ],
 "materials": [
  {
   "name": "bark",
   "doubleSided": false,
   "pbrMetallicRoughness": {
    "baseColorTexture": {
     "index": 0
    },
    "metallicRoughnessTexture": {
     "index": 2
    },
    "metallicFactor": 0.0,
    "roughnessFactor": 1.0
   },
   "normalTexture": {
    "index": 1
   },
   "occlusionTexture": {
    "index": 2
   }
  },
  {
   "name": "leaf",
   "doubleSided": true,
   "pbrMetallicRoughness": {
    "baseColorTexture": {
     "index": 3
    },
    "metallicRoughnessTexture": {
     "index": 5
    },
    "metallicFactor": 0.0,
    "roughnessFactor": 1.0
   },
   "normalTexture": {
    "index": 4
   },
   "occlusionTexture": {
    "index": 5
   },
   "alphaMode": "MASK",
   "alphaCutoff": 0.5
  }
 ],
 "meshes": [
  {
   "name": "flora_willow_0_far_bark",
   "primitives": [
    {
     "attributes": {
      "POSITION": 0,
      "NORMAL": 1,
      "TEXCOORD_0": 2
     },
     "indices": 3,
     "material": 0
    }
   ]
  },
  {
   "name": "flora_willow_0_far_foliage",
   "primitives": [
    {
     "attributes": {
      "POSITION": 4,
      "NORMAL": 5,
      "TEXCOORD_0": 6
     },
     "indices": 7,
     "material": 1
    }
   ]
  }
 ],
 "textures": [
  {
   "sampler": 0,
   "source": 0
  },
  {
   "sampler": 0,
   "source": 1
  },
  {
   "sampler": 0,
   "source": 2
  },
  {
   "sampler": 0,
   "source": 3
  },
  {
   "sampler": 0,
   "source": 4
  },
  {
   "sampler": 0,
   "source": 5
  }
 ],
 "images": [
  {
   "mimeType": "image/png",
   "name": "flora_willow_bark_diff_2k.png",
   "uri": "../flora_willow_0/flora_willow_bark_diff_2k.png"
  },
  {
   "mimeType": "image/png",
   "name": "flora_willow_bark_nor_gl_2k.png",
   "uri": "../flora_willow_0/flora_willow_bark_nor_gl_2k.png"
  },
  {
   "mimeType": "image/png",
   "name": "flora_willow_bark_arm_2k.png",
   "uri": "../flora_willow_0/flora_willow_bark_arm_2k.png"
  },
  {
   "mimeType": "image/png",
   "name": "flora_willow_leaf_diff_2k.png",
   "uri": "../flora_willow_0/flora_willow_leaf_diff_2k.png"
  },
  {
   "mimeType": "image/png",
   "name": "flora_willow_leaf_nor_gl_2k.png",
   "uri": "../flora_willow_0/flora_willow_leaf_nor_gl_2k.png"
  },
  {
   "mimeType": "image/png",
   "name": "flora_willow_leaf_arm_2k.png",
   "uri": "../flora_willow_0/flora_willow_leaf_arm_2k.png"
  }
 ],
 "accessors": [
  {
   "bufferView": 0,
   "componentType": 5126,
   "count": 898,
   "max": [
    4.646909713745117,
    8.685874938964844,
    3.5250535011291504
   ],
   "min": [
    -3.663797616958618,
    -0.44999998807907104,
    -3.7018463611602783
   ],
   "type": "VEC3"
  },
  {
   "bufferView": 1,
   "componentType": 5126,
   "count": 898,
   "type": "VEC3"
  },
  {
   "bufferView": 2,
   "componentType": 5126,
   "count": 898,
   "type": "VEC2"
  },
  {
   "bufferView": 3,
   "componentType": 5123,
   "count": 2634,
   "type": "SCALAR"
  },
  {
   "bufferView": 4,
   "componentType": 5126,
   "count": 2136,
   "max": [
    5.706002235412598,
    10.102286338806152,
    4.914202690124512
   ],
   "min": [
    -4.587559223175049,
    2.155625820159912,
    -4.736111640930176
   ],
   "type": "VEC3"
  },
  {
   "bufferView": 5,
   "componentType": 5126,
   "count": 2136,
   "type": "VEC3"
  },
  {
   "bufferView": 6,
   "componentType": 5126,
   "count": 2136,
   "type": "VEC2"
  },
  {
   "bufferView": 7,
   "componentType": 5123,
   "count": 3204,
   "type": "SCALAR"
  }
 ],
 "bufferViews": [
  {
   "buffer": 0,
   "byteLength": 10776,
   "byteOffset": 0,
   "target": 34962
  },
  {
   "buffer": 0,
   "byteLength": 10776,
   "byteOffset": 10776,
   "target": 34962
  },
  {
   "buffer": 0,
   "byteLength": 7184,
   "byteOffset": 21552,
   "target": 34962
  },
  {
   "buffer": 0,
   "byteLength": 5268,
   "byteOffset": 28736,
   "target": 34963
  },
  {
   "buffer": 0,
   "byteLength": 25632,
   "byteOffset": 34004,
   "target": 34962
  },
  {
   "buffer": 0,
   "byteLength": 25632,
   "byteOffset": 59636,
   "target": 34962
  },
  {
   "buffer": 0,
   "byteLength": 17088,
   "byteOffset": 85268,
   "target": 34962
  },
  {
   "buffer": 0,
   "byteLength": 6408,
   "byteOffset": 102356,
   "target": 34963
  }
 ],
 "samplers": [
  {
   "magFilter": 9729,
   "minFilter": 9987,
   "wrapS": 10497,
   "wrapT": 10497
  }
 ],
 "buffers": [
  {
   "byteLength": 108764,
   "uri": "flora_willow_0_far.bin"
  }
 ]
}