{
 "asset": {
  "generator": "Khronos glTF Blender I/O v4.5.51",
  "version": "2.0"
 },
 "scene": 0,
 "scenes": [
  {
   "name": "Scene",
   "nodes": [
    0
   ]
  }
 ],
 "nodes": [
  {
   "mesh": 0,
   "name": "prop_sandbags_far"
  }
 ],
 "materials": [
  {
   "doubleSided": true,
   "name": "prop_sandbags",
   "normalTexture": {
    "index": 0
   },
   "occlusionTexture": {
    "index": 1
   },
   "pbrMetallicRoughness": {
    "baseColorTexture": {
     "index": 2
    },
    "metallicRoughnessTexture": {
     "index": 1
    }
   }
  }
 ],
 "meshes": [
  {
   "name": "prop_sandbags_far",
   "primitives": [
    {
     "attributes": {
      "POSITION": 0,
      "NORMAL": 1,
      "TEXCOORD_0": 2
     },
     "indices": 3,
     "material": 0
    }
   ]
  }
 ],
 "textures": [
  {
   "sampler": 0,
   "source": 0
  },
  {
   "sampler": 0,
   "source": 1
  },
  {
   "sampler": 0,
   "source": 2
  }
 ],
 "images": [
  {
   "mimeType": "image/png",
   "name": "prop_sandbags_normal",
   "uri": "../prop_sandbags/prop_sandbags_normal.png"
  },
  {
   "mimeType": "image/png",
   "name": "prop_sandbags_orm",
   "uri": "../prop_sandbags/prop_sandbags_orm.png"
  },
  {
   "mimeType": "image/png",
   "name": "prop_sandbags_albedo",
   "uri": "../prop_sandbags/prop_sandbags_albedo.png"
  }
 ],
 "accessors": [
  {
   "bufferView": 0,
   "componentType": 5126,
   "count": 48,
   "max": [
    1.5,
    0.9300001263618469,
    0.3600001335144043
   ],
   "min": [
    -1.5000001192092896,
    -1.1324685544877866e-07,
    -0.3600001335144043
   ],
   "type": "VEC3"
  },
  {
   "bufferView": 1,
   "componentType": 5126,
   "count": 48,
   "type": "VEC3"
  },
  {
   "bufferView": 2,
   "componentType": 5126,
   "count": 48,
   "type": "VEC2"
  },
  {
   "bufferView": 3,
   "componentType": 5123,
   "count": 84,
   "type": "SCALAR"
  }
 ],
 "bufferViews": [
  {
   "buffer": 0,
   "byteLength": 576,
   "byteOffset": 0,
   "target": 34962
  },
  {
   "buffer": 0,
   "byteLength": 576,
   "byteOffset": 576,
   "target": 34962
  },
  {
   "buffer": 0,
   "byteLength": 384,
   "byteOffset": 1152,
   "target": 34962
  },
  {
   "buffer": 0,
   "byteLength": 168,
   "byteOffset": 1536,
   "target": 34963
  }
 ],
 "samplers": [
  {
   "magFilter": 9729,
   "minFilter": 9987
  }
 ],
 "buffers": [
  {
   "byteLength": 1704,
   "uri": "prop_sandbags_far.bin"
  }
 ]
}