{
 "asset": {
  "generator": "Khronos glTF Blender I/O v4.5.51",
  "version": "2.0"
 },
 "scene": 0,
 "scenes": [
  {
   "name": "Scene",
   "nodes": [
    0
   ]
  }
 ],
 "nodes": [
  {
   "mesh": 0,
   "name": "prop_phone_box_far"
  }
 ],
 "materials": [
  {
   "doubleSided": true,
   "name": "prop_phone_box",
   "normalTexture": {
    "index": 0
   },
   "occlusionTexture": {
    "index": 1
   },
   "pbrMetallicRoughness": {
    "baseColorTexture": {
     "index": 2
    },
    "metallicRoughnessTexture": {
     "index": 1
    }
   }
  }
 ],
 "meshes": [
  {
   "name": "prop_phone_box_far",
   "primitives": [
    {
     "attributes": {
      "POSITION": 0,
      "NORMAL": 1,
      "TEXCOORD_0": 2
     },
     "indices": 3,
     "material": 0
    }
   ]
  }
 ],
 "textures": [
  {
   "sampler": 0,
   "source": 0
  },
  {
   "sampler": 0,
   "source": 1
  },
  {
   "sampler": 0,
   "source": 2
  }
 ],
 "images": [
  {
   "mimeType": "image/png",
   "name": "prop_phone_box_normal",
   "uri": "../prop_phone_box/prop_phone_box_normal.png"
  },
  {
   "mimeType": "image/png",
   "name": "prop_phone_box_orm",
   "uri": "../prop_phone_box/prop_phone_box_orm.png"
  },
  {
   "mimeType": "image/png",
   "name": "prop_phone_box_albedo",
   "uri": "../prop_phone_box/prop_phone_box_albedo.png"
  }
 ],
 "accessors": [
  {
   "bufferView": 0,
   "componentType": 5126,
   "count": 106,
   "max": [
    0.5299999713897705,
    2.380000114440918,
    0.8151229619979858
   ],
   "min": [
    -0.5299999713897705,
    -0.03999999910593033,
    -0.5299999713897705
   ],
   "type": "VEC3"
  },
  {
   "bufferView": 1,
   "componentType": 5126,
   "count": 106,
   "type": "VEC3"
  },
  {
   "bufferView": 2,
   "componentType": 5126,
   "count": 106,
   "type": "VEC2"
  },
  {
   "bufferView": 3,
   "componentType": 5123,
   "count": 168,
   "type": "SCALAR"
  }
 ],
 "bufferViews": [
  {
   "buffer": 0,
   "byteLength": 1272,
   "byteOffset": 0,
   "target": 34962
  },
  {
   "buffer": 0,
   "byteLength": 1272,
   "byteOffset": 1272,
   "target": 34962
  },
  {
   "buffer": 0,
   "byteLength": 848,
   "byteOffset": 2544,
   "target": 34962
  },
  {
   "buffer": 0,
   "byteLength": 336,
   "byteOffset": 3392,
   "target": 34963
  }
 ],
 "samplers": [
  {
   "magFilter": 9729,
   "minFilter": 9987
  }
 ],
 "buffers": [
  {
   "byteLength": 3728,
   "uri": "prop_phone_box_far.bin"
  }
 ]
}