{
	"asset":{
		"generator":"Khronos glTF Blender I/O v4.5.51",
		"version":"2.0"
	},
	"scene":0,
	"scenes":[
		{
			"name":"Scene",
			"nodes":[
				0
			]
		}
	],
	"nodes":[
		{
			"mesh":0,
			"name":"hunting_bow_stave"
		}
	],
	"materials":[
		{
			"doubleSided":true,
			"name":"bow_wood",
			"normalTexture":{
				"index":0
			},
			"pbrMetallicRoughness":{
				"baseColorTexture":{
					"index":1
				},
				"metallicRoughnessTexture":{
					"index":2
				}
			}
		},
		{
			"doubleSided":true,
			"name":"bow_leather",
			"normalTexture":{
				"index":3
			},
			"pbrMetallicRoughness":{
				"baseColorTexture":{
					"index":4
				},
				"metallicRoughnessTexture":{
					"index":5
				}
			}
		},
		{
			"doubleSided":true,
			"name":"bow_vine",
			"normalTexture":{
				"index":6
			},
			"pbrMetallicRoughness":{
				"baseColorTexture":{
					"index":7
				},
				"metallicRoughnessTexture":{
					"index":8
				}
			}
		}
	],
	"meshes":[
		{
			"name":"hunting_bow_stave",
			"primitives":[
				{
					"attributes":{
						"POSITION":0,
						"NORMAL":1,
						"TEXCOORD_0":2
					},
					"indices":3,
					"material":0
				},
				{
					"attributes":{
						"POSITION":4,
						"NORMAL":5,
						"TEXCOORD_0":6
					},
					"indices":7,
					"material":1
				},
				{
					"attributes":{
						"POSITION":8,
						"NORMAL":9,
						"TEXCOORD_0":10
					},
					"indices":11,
					"material":2
				}
			]
		}
	],
	"textures":[
		{
			"sampler":0,
			"source":0
		},
		{
			"sampler":0,
			"source":1
		},
		{
			"sampler":0,
			"source":2
		},
		{
			"sampler":0,
			"source":3
		},
		{
			"sampler":0,
			"source":4
		},
		{
			"sampler":0,
			"source":5
		},
		{
			"sampler":0,
			"source":6
		},
		{
			"sampler":0,
			"source":7
		},
		{
			"sampler":0,
			"source":8
		}
	],
	"images":[
		{
			"mimeType":"image/png",
			"name":"bark_normal",
			"uri":"bark_normal.png"
		},
		{
			"mimeType":"image/png",
			"name":"bark_albedo",
			"uri":"bark_albedo.png"
		},
		{
			"mimeType":"image/png",
			"name":"bark_surface",
			"uri":"bark_surface.png"
		},
		{
			"mimeType":"image/png",
			"name":"leather_normal",
			"uri":"leather_normal.png"
		},
		{
			"mimeType":"image/png",
			"name":"leather_albedo",
			"uri":"leather_albedo.png"
		},
		{
			"mimeType":"image/png",
			"name":"leather_surface",
			"uri":"leather_surface.png"
		},
		{
			"mimeType":"image/png",
			"name":"vine_normal",
			"uri":"vine_normal.png"
		},
		{
			"mimeType":"image/png",
			"name":"vine_albedo",
			"uri":"vine_albedo.png"
		},
		{
			"mimeType":"image/png",
			"name":"vine_surface",
			"uri":"vine_surface.png"
		}
	],
	"accessors":[
		{
			"bufferView":0,
			"componentType":5126,
			"count":857,
			"max":[
				0.01582617126405239,
				0.688446581363678,
				0.020662816241383553
			],
			"min":[
				-0.13797199726104736,
				-0.688446581363678,
				-0.020443031564354897
			],
			"type":"VEC3"
		},
		{
			"bufferView":1,
			"componentType":5126,
			"count":857,
			"type":"VEC3"
		},
		{
			"bufferView":2,
			"componentType":5126,
			"count":857,
			"type":"VEC2"
		},
		{
			"bufferView":3,
			"componentType":5123,
			"count":4296,
			"type":"SCALAR"
		},
		{
			"bufferView":4,
			"componentType":5126,
			"count":354,
			"max":[
				0.016780322417616844,
				0.08747737109661102,
				0.022205207496881485
			],
			"min":[
				-0.01777048222720623,
				-0.0856437087059021,
				-0.022294802591204643
			],
			"type":"VEC3"
		},
		{
			"bufferView":5,
			"componentType":5126,
			"count":354,
			"type":"VEC3"
		},
		{
			"bufferView":6,
			"componentType":5126,
			"count":354,
			"type":"VEC2"
		},
		{
			"bufferView":7,
			"componentType":5123,
			"count":1056,
			"type":"SCALAR"
		},
		{
			"bufferView":8,
			"componentType":5126,
			"count":3412,
			"max":[
				0.016134211793541908,
				0.13660869002342224,
				0.019289860501885414
			],
			"min":[
				-0.02421353943645954,
				-0.12126672267913818,
				-0.019286833703517914
			],
			"type":"VEC3"
		},
		{
			"bufferView":9,
			"componentType":5126,
			"count":3412,
			"type":"VEC3"
		},
		{
			"bufferView":10,
			"componentType":5126,
			"count":3412,
			"type":"VEC2"
		},
		{
			"bufferView":11,
			"componentType":5123,
			"count":10152,
			"type":"SCALAR"
		}
	],
	"bufferViews":[
		{
			"buffer":0,
			"byteLength":10284,
			"byteOffset":0,
			"target":34962
		},
		{
			"buffer":0,
			"byteLength":10284,
			"byteOffset":10284,
			"target":34962
		},
		{
			"buffer":0,
			"byteLength":6856,
			"byteOffset":20568,
			"target":34962
		},
		{
			"buffer":0,
			"byteLength":8592,
			"byteOffset":27424,
			"target":34963
		},
		{
			"buffer":0,
			"byteLength":4248,
			"byteOffset":36016,
			"target":34962
		},
		{
			"buffer":0,
			"byteLength":4248,
			"byteOffset":40264,
			"target":34962
		},
		{
			"buffer":0,
			"byteLength":2832,
			"byteOffset":44512,
			"target":34962
		},
		{
			"buffer":0,
			"byteLength":2112,
			"byteOffset":47344,
			"target":34963
		},
		{
			"buffer":0,
			"byteLength":40944,
			"byteOffset":49456,
			"target":34962
		},
		{
			"buffer":0,
			"byteLength":40944,
			"byteOffset":90400,
			"target":34962
		},
		{
			"buffer":0,
			"byteLength":27296,
			"byteOffset":131344,
			"target":34962
		},
		{
			"buffer":0,
			"byteLength":20304,
			"byteOffset":158640,
			"target":34963
		}
	],
	"samplers":[
		{
			"magFilter":9729,
			"minFilter":9987
		}
	],
	"buffers":[
		{
			"byteLength":178944,
			"uri":"hunting_bow.bin"
		}
	]
}
