{
  "asset": {
    "generator": "Khronos glTF Blender I/O v5.1.20",
    "version": "2.0"
  },
  "scene": 0,
  "scenes": [
    {
      "name": "Scene",
      "nodes": [
        0
      ]
    }
  ],
  "nodes": [
    {
      "mesh": 0,
      "name": "plastic_crate_02"
    }
  ],
  "materials": [
    {
      "alphaMode": "BLEND",
      "name": "plastic_crate_02",
      "normalTexture": {
        "index": 0
      },
      "pbrMetallicRoughness": {
        "baseColorFactor": [
          1,
          0.40816283226013184,
          0,
          1
        ],
        "baseColorTexture": {
          "index": 1
        },
        "metallicFactor": 0,
        "metallicRoughnessTexture": {
          "index": 2
        }
      }
    }
  ],
  "meshes": [
    {
      "name": "Cube.002",
      "primitives": [
        {
          "attributes": {
            "POSITION": 0,
            "NORMAL": 1,
            "TEXCOORD_0": 2
          },
          "indices": 3,
          "material": 0
        }
      ]
    }
  ],
  "textures": [
    {
      "sampler": 0,
      "source": 0
    },
    {
      "sampler": 0,
      "source": 1
    },
    {
      "sampler": 0,
      "source": 2
    }
  ],
  "images": [
    {
      "mimeType": "image/jpeg",
      "name": "plastic_crate_02_nor_gl",
      "uri": "textures/plastic_crate_02_nor_gl_2k.jpg"
    },
    {
      "mimeType": "image/jpeg",
      "name": "plastic_crate_02_diff-plastic_crate_02_opacity",
      "uri": "textures/plastic_crate_02_diff_2k.jpg"
    },
    {
      "mimeType": "image/jpeg",
      "name": "plastic_crate_02_rough",
      "uri": "textures/plastic_crate_02_arm_2k.jpg"
    }
  ],
  "accessors": [
    {
      "bufferView": 0,
      "componentType": 5126,
      "count": 4744,
      "max": [
        0.2527506947517395,
        0.25407320261001587,
        0.20275069773197174
      ],
      "min": [
        -0.2527506947517395,
        -0.00001595914363861084,
        -0.20275069773197174
      ],
      "type": "VEC3"
    },
    {
      "bufferView": 1,
      "componentType": 5126,
      "count": 4744,
      "type": "VEC3"
    },
    {
      "bufferView": 2,
      "componentType": 5126,
      "count": 4744,
      "type": "VEC2"
    },
    {
      "bufferView": 3,
      "componentType": 5123,
      "count": 17520,
      "type": "SCALAR"
    }
  ],
  "bufferViews": [
    {
      "buffer": 0,
      "byteLength": 56928,
      "byteOffset": 0,
      "target": 34962
    },
    {
      "buffer": 0,
      "byteLength": 56928,
      "byteOffset": 56928,
      "target": 34962
    },
    {
      "buffer": 0,
      "byteLength": 37952,
      "byteOffset": 113856,
      "target": 34962
    },
    {
      "buffer": 0,
      "byteLength": 35040,
      "byteOffset": 151808,
      "target": 34963
    }
  ],
  "samplers": [
    {
      "magFilter": 9729,
      "minFilter": 9987
    }
  ],
  "buffers": [
    {
      "byteLength": 186848,
      "uri": "plastic_crate_02.bin"
    }
  ]
}