{
 "asset": {
  "generator": "Khronos glTF Blender I/O v4.5.51",
  "version": "2.0"
 },
 "scene": 0,
 "scenes": [
  {
   "name": "Scene",
   "nodes": [
    0,
    1,
    2,
    3,
    4,
    5
   ]
  }
 ],
 "nodes": [
  {
   "mesh": 0,
   "name": "prop_war_memorial"
  },
  {
   "mesh": 1,
   "name": "col_rock_1"
  },
  {
   "mesh": 2,
   "name": "col_rock_2"
  },
  {
   "mesh": 3,
   "name": "col_rock_3"
  },
  {
   "mesh": 4,
   "name": "col_rock_4"
  },
  {
   "mesh": 5,
   "name": "col_rock_5"
  }
 ],
 "materials": [
  {
   "doubleSided": true,
   "name": "prop_war_memorial",
   "normalTexture": {
    "index": 0
   },
   "occlusionTexture": {
    "index": 1
   },
   "pbrMetallicRoughness": {
    "baseColorTexture": {
     "index": 2
    },
    "metallicRoughnessTexture": {
     "index": 1
    }
   }
  }
 ],
 "meshes": [
  {
   "name": "prop_war_memorial",
   "primitives": [
    {
     "attributes": {
      "POSITION": 0,
      "NORMAL": 1,
      "TEXCOORD_0": 2
     },
     "indices": 3,
     "material": 0
    }
   ]
  },
  {
   "name": "col_rock_1",
   "primitives": [
    {
     "attributes": {
      "POSITION": 4,
      "NORMAL": 5,
      "TEXCOORD_0": 6
     },
     "indices": 7,
     "material": 0
    }
   ]
  },
  {
   "name": "col_rock_2",
   "primitives": [
    {
     "attributes": {
      "POSITION": 8,
      "NORMAL": 9,
      "TEXCOORD_0": 10
     },
     "indices": 7,
     "material": 0
    }
   ]
  },
  {
   "name": "col_rock_3",
   "primitives": [
    {
     "attributes": {
      "POSITION": 11,
      "NORMAL": 12,
      "TEXCOORD_0": 13
     },
     "indices": 7,
     "material": 0
    }
   ]
  },
  {
   "name": "col_rock_4",
   "primitives": [
    {
     "attributes": {
      "POSITION": 14,
      "NORMAL": 15,
      "TEXCOORD_0": 16
     },
     "indices": 7,
     "material": 0
    }
   ]
  },
  {
   "name": "col_rock_5",
   "primitives": [
    {
     "attributes": {
      "POSITION": 17,
      "NORMAL": 18,
      "TEXCOORD_0": 19
     },
     "indices": 7,
     "material": 0
    }
   ]
  }
 ],
 "textures": [
  {
   "sampler": 0,
   "source": 0
  },
  {
   "sampler": 0,
   "source": 1
  },
  {
   "sampler": 0,
   "source": 2
  }
 ],
 "images": [
  {
   "mimeType": "image/png",
   "name": "prop_war_memorial_normal",
   "uri": "prop_war_memorial_normal.png"
  },
  {
   "mimeType": "image/png",
   "name": "prop_war_memorial_orm",
   "uri": "prop_war_memorial_orm.png"
  },
  {
   "mimeType": "image/png",
   "name": "prop_war_memorial_albedo",
   "uri": "prop_war_memorial_albedo.png"
  }
 ],
 "accessors": [
  {
   "bufferView": 0,
   "componentType": 5126,
   "count": 5584,
   "max": [
    1.2999999523162842,
    5.697141170501709,
    1.5571515560150146
   ],
   "min": [
    -1.2999999523162842,
    -0.08000000566244125,
    -1.2999999523162842
   ],
   "type": "VEC3"
  },
  {
   "bufferView": 1,
   "componentType": 5126,
   "count": 5584,
   "type": "VEC3"
  },
  {
   "bufferView": 2,
   "componentType": 5126,
   "count": 5584,
   "type": "VEC2"
  },
  {
   "bufferView": 3,
   "componentType": 5123,
   "count": 9960,
   "type": "SCALAR"
  },
  {
   "bufferView": 4,
   "componentType": 5126,
   "count": 24,
   "max": [
    1.2999999523162842,
    0.2199999988079071,
    1.2999999523162842
   ],
   "min": [
    -1.2999999523162842,
    0,
    -1.2999999523162842
   ],
   "type": "VEC3"
  },
  {
   "bufferView": 5,
   "componentType": 5126,
   "count": 24,
   "type": "VEC3"
  },
  {
   "bufferView": 6,
   "componentType": 5126,
   "count": 24,
   "type": "VEC2"
  },
  {
   "bufferView": 7,
   "componentType": 5123,
   "count": 36,
   "type": "SCALAR"
  },
  {
   "bufferView": 8,
   "componentType": 5126,
   "count": 24,
   "max": [
    1.0499999523162842,
    0.4399999976158142,
    1.0499999523162842
   ],
   "min": [
    -1.0499999523162842,
    0.2199999988079071,
    -1.0499999523162842
   ],
   "type": "VEC3"
  },
  {
   "bufferView": 9,
   "componentType": 5126,
   "count": 24,
   "type": "VEC3"
  },
  {
   "bufferView": 10,
   "componentType": 5126,
   "count": 24,
   "type": "VEC2"
  },
  {
   "bufferView": 11,
   "componentType": 5126,
   "count": 24,
   "max": [
    0.800000011920929,
    0.6600000262260437,
    0.800000011920929
   ],
   "min": [
    -0.800000011920929,
    0.4399999976158142,
    -0.800000011920929
   ],
   "type": "VEC3"
  },
  {
   "bufferView": 12,
   "componentType": 5126,
   "count": 24,
   "type": "VEC3"
  },
  {
   "bufferView": 13,
   "componentType": 5126,
   "count": 24,
   "type": "VEC2"
  },
  {
   "bufferView": 14,
   "componentType": 5126,
   "count": 24,
   "max": [
    0.6000000238418579,
    2.2100000381469727,
    0.6000000238418579
   ],
   "min": [
    -0.6000000238418579,
    0.6600000262260437,
    -0.6000000238418579
   ],
   "type": "VEC3"
  },
  {
   "bufferView": 15,
   "componentType": 5126,
   "count": 24,
   "type": "VEC3"
  },
  {
   "bufferView": 16,
   "componentType": 5126,
   "count": 24,
   "type": "VEC2"
  },
  {
   "bufferView": 17,
   "componentType": 5126,
   "count": 24,
   "max": [
    0.3100000023841858,
    5.71999979019165,
    0.3100000023841858
   ],
   "min": [
    -0.3100000023841858,
    2.2100000381469727,
    -0.3100000023841858
   ],
   "type": "VEC3"
  },
  {
   "bufferView": 18,
   "componentType": 5126,
   "count": 24,
   "type": "VEC3"
  },
  {
   "bufferView": 19,
   "componentType": 5126,
   "count": 24,
   "type": "VEC2"
  }
 ],
 "bufferViews": [
  {
   "buffer": 0,
   "byteLength": 67008,
   "byteOffset": 0,
   "target": 34962
  },
  {
   "buffer": 0,
   "byteLength": 67008,
   "byteOffset": 67008,
   "target": 34962
  },
  {
   "buffer": 0,
   "byteLength": 44672,
   "byteOffset": 134016,
   "target": 34962
  },
  {
   "buffer": 0,
   "byteLength": 19920,
   "byteOffset": 178688,
   "target": 34963
  },
  {
   "buffer": 0,
   "byteLength": 288,
   "byteOffset": 198608,
   "target": 34962
  },
  {
   "buffer": 0,
   "byteLength": 288,
   "byteOffset": 198896,
   "target": 34962
  },
  {
   "buffer": 0,
   "byteLength": 192,
   "byteOffset": 199184,
   "target": 34962
  },
  {
   "buffer": 0,
   "byteLength": 72,
   "byteOffset": 199376,
   "target": 34963
  },
  {
   "buffer": 0,
   "byteLength": 288,
   "byteOffset": 199448,
   "target": 34962
  },
  {
   "buffer": 0,
   "byteLength": 288,
   "byteOffset": 199736,
   "target": 34962
  },
  {
   "buffer": 0,
   "byteLength": 192,
   "byteOffset": 200024,
   "target": 34962
  },
  {
   "buffer": 0,
   "byteLength": 288,
   "byteOffset": 200216,
   "target": 34962
  },
  {
   "buffer": 0,
   "byteLength": 288,
   "byteOffset": 200504,
   "target": 34962
  },
  {
   "buffer": 0,
   "byteLength": 192,
   "byteOffset": 200792,
   "target": 34962
  },
  {
   "buffer": 0,
   "byteLength": 288,
   "byteOffset": 200984,
   "target": 34962
  },
  {
   "buffer": 0,
   "byteLength": 288,
   "byteOffset": 201272,
   "target": 34962
  },
  {
   "buffer": 0,
   "byteLength": 192,
   "byteOffset": 201560,
   "target": 34962
  },
  {
   "buffer": 0,
   "byteLength": 288,
   "byteOffset": 201752,
   "target": 34962
  },
  {
   "buffer": 0,
   "byteLength": 288,
   "byteOffset": 202040,
   "target": 34962
  },
  {
   "buffer": 0,
   "byteLength": 192,
   "byteOffset": 202328,
   "target": 34962
  }
 ],
 "samplers": [
  {
   "magFilter": 9729,
   "minFilter": 9987
  }
 ],
 "buffers": [
  {
   "byteLength": 202520,
   "uri": "prop_war_memorial.bin"
  }
 ]
}