{
 "asset": {
  "generator": "Khronos glTF Blender I/O v4.5.51",
  "version": "2.0"
 },
 "scene": 0,
 "scenes": [
  {
   "name": "Scene",
   "nodes": [
    0
   ]
  }
 ],
 "nodes": [
  {
   "mesh": 0,
   "name": "trunk"
  }
 ],
 "materials": [
  {
   "doubleSided": true,
   "name": "bark",
   "normalTexture": {
    "index": 0
   },
   "pbrMetallicRoughness": {
    "baseColorTexture": {
     "index": 1
    },
    "metallicFactor": 0,
    "roughnessFactor": 0.8500000238418579
   }
  }
 ],
 "meshes": [
  {
   "name": "tree_dead_1",
   "primitives": [
    {
     "attributes": {
      "POSITION": 0,
      "NORMAL": 1,
      "TEXCOORD_0": 2
     },
     "indices": 3,
     "material": 0
    }
   ]
  }
 ],
 "textures": [
  {
   "sampler": 0,
   "source": 0
  },
  {
   "sampler": 0,
   "source": 1
  }
 ],
 "images": [
  {
   "mimeType": "image/jpeg",
   "name": "fir_tree_01_bark_nor_gl_2k.jpg",
   "uri": "../../../source/trees/fir_tree_01/fir_tree_01_bark_nor_gl_2k.jpg"
  },
  {
   "mimeType": "image/jpeg",
   "name": "fir_tree_01_bark_diff_2k.jpg",
   "uri": "../../../source/trees/fir_tree_01/fir_tree_01_bark_diff_2k.jpg"
  }
 ],
 "accessors": [
  {
   "bufferView": 0,
   "componentType": 5126,
   "count": 5551,
   "max": [
    2.0656442642211914,
    9.296555519104004,
    1.721537470817566
   ],
   "min": [
    -2.71343994140625,
    -0.6000000238418579,
    -1.892138123512268
   ],
   "type": "VEC3"
  },
  {
   "bufferView": 1,
   "componentType": 5126,
   "count": 5551,
   "type": "VEC3"
  },
  {
   "bufferView": 2,
   "componentType": 5126,
   "count": 5551,
   "type": "VEC2"
  },
  {
   "bufferView": 3,
   "componentType": 5123,
   "count": 20592,
   "type": "SCALAR"
  }
 ],
 "bufferViews": [
  {
   "buffer": 0,
   "byteLength": 66612,
   "byteOffset": 0,
   "target": 34962
  },
  {
   "buffer": 0,
   "byteLength": 66612,
   "byteOffset": 66612,
   "target": 34962
  },
  {
   "buffer": 0,
   "byteLength": 44408,
   "byteOffset": 133224,
   "target": 34962
  },
  {
   "buffer": 0,
   "byteLength": 41184,
   "byteOffset": 177632,
   "target": 34963
  }
 ],
 "samplers": [
  {
   "magFilter": 9729,
   "minFilter": 9987
  }
 ],
 "buffers": [
  {
   "byteLength": 218816,
   "uri": "tree_dead_1.bin"
  }
 ]
}