{
 "asset": {
  "generator": "Khronos glTF Blender I/O v4.5.51",
  "version": "2.0"
 },
 "scene": 0,
 "scenes": [
  {
   "name": "Scene",
   "nodes": [
    0
   ]
  }
 ],
 "nodes": [
  {
   "mesh": 0,
   "name": "wheelset"
  }
 ],
 "materials": [
  {
   "name": "loco_black",
   "normalTexture": {
    "index": 0
   },
   "occlusionTexture": {
    "index": 1
   },
   "pbrMetallicRoughness": {
    "baseColorTexture": {
     "index": 2
    },
    "metallicRoughnessTexture": {
     "index": 1
    }
   }
  }
 ],
 "meshes": [
  {
   "name": "wheelset",
   "primitives": [
    {
     "attributes": {
      "POSITION": 0,
      "NORMAL": 1,
      "TEXCOORD_0": 2
     },
     "indices": 3,
     "material": 0
    }
   ]
  }
 ],
 "textures": [
  {
   "sampler": 0,
   "source": 0
  },
  {
   "sampler": 0,
   "source": 1
  },
  {
   "sampler": 0,
   "source": 2
  }
 ],
 "images": [
  {
   "mimeType": "image/png",
   "name": "loco_black_normal.png",
   "uri": "../_library/loco_black_normal.png"
  },
  {
   "mimeType": "image/png",
   "name": "loco_black_orm.png",
   "uri": "../_library/loco_black_orm.png"
  },
  {
   "mimeType": "image/png",
   "name": "loco_black_albedo.png",
   "uri": "../_library/loco_black_albedo.png"
  }
 ],
 "accessors": [
  {
   "bufferView": 0,
   "componentType": 5126,
   "count": 320,
   "max": [
    0.815000057220459,
    0.5080000162124634,
    0.49526336789131165
   ],
   "min": [
    -0.815000057220459,
    -0.5080000162124634,
    -0.49526336789131165
   ],
   "type": "VEC3"
  },
  {
   "bufferView": 1,
   "componentType": 5126,
   "count": 320,
   "type": "VEC3"
  },
  {
   "bufferView": 2,
   "componentType": 5126,
   "count": 320,
   "type": "VEC2"
  },
  {
   "bufferView": 3,
   "componentType": 5123,
   "count": 708,
   "type": "SCALAR"
  }
 ],
 "bufferViews": [
  {
   "buffer": 0,
   "byteLength": 3840,
   "byteOffset": 0,
   "target": 34962
  },
  {
   "buffer": 0,
   "byteLength": 3840,
   "byteOffset": 3840,
   "target": 34962
  },
  {
   "buffer": 0,
   "byteLength": 2560,
   "byteOffset": 7680,
   "target": 34962
  },
  {
   "buffer": 0,
   "byteLength": 1416,
   "byteOffset": 10240,
   "target": 34963
  }
 ],
 "samplers": [
  {
   "magFilter": 9729,
   "minFilter": 9987
  }
 ],
 "buffers": [
  {
   "byteLength": 11656,
   "uri": "train_wheelset_far.bin"
  }
 ]
}