{
	"asset":{
		"generator":"Khronos glTF Blender I/O v4.5.51",
		"version":"2.0"
	},
	"scene":0,
	"scenes":[
		{
			"name":"Scene",
			"nodes":[
				0
			]
		}
	],
	"nodes":[
		{
			"mesh":0,
			"name":"wooden_arrow"
		}
	],
	"materials":[
		{
			"doubleSided":true,
			"name":"arrow_shaft",
			"normalTexture":{
				"index":0
			},
			"pbrMetallicRoughness":{
				"baseColorTexture":{
					"index":1
				},
				"metallicRoughnessTexture":{
					"index":2
				}
			}
		},
		{
			"doubleSided":true,
			"name":"arrow_flint",
			"pbrMetallicRoughness":{
				"baseColorFactor":[
					0.07500000298023224,
					0.07000000029802322,
					0.06499999761581421,
					1
				],
				"metallicFactor":0,
				"roughnessFactor":0.3199999928474426
			}
		},
		{
			"doubleSided":true,
			"name":"arrow_sinew",
			"normalTexture":{
				"index":3
			},
			"pbrMetallicRoughness":{
				"baseColorTexture":{
					"index":4
				},
				"metallicRoughnessTexture":{
					"index":5
				}
			}
		},
		{
			"doubleSided":true,
			"name":"arrow_feather",
			"pbrMetallicRoughness":{
				"baseColorFactor":[
					0.6200000047683716,
					0.5799999833106995,
					0.5199999809265137,
					1
				],
				"metallicFactor":0,
				"roughnessFactor":0.800000011920929
			}
		}
	],
	"meshes":[
		{
			"name":"wooden_arrow",
			"primitives":[
				{
					"attributes":{
						"POSITION":0,
						"NORMAL":1,
						"TEXCOORD_0":2
					},
					"indices":3,
					"material":0
				},
				{
					"attributes":{
						"POSITION":4,
						"NORMAL":5,
						"TEXCOORD_0":6
					},
					"indices":7,
					"material":1
				},
				{
					"attributes":{
						"POSITION":8,
						"NORMAL":9,
						"TEXCOORD_0":10
					},
					"indices":11,
					"material":2
				},
				{
					"attributes":{
						"POSITION":12,
						"NORMAL":13,
						"TEXCOORD_0":14
					},
					"indices":15,
					"material":3
				}
			]
		}
	],
	"textures":[
		{
			"sampler":0,
			"source":0
		},
		{
			"sampler":0,
			"source":1
		},
		{
			"sampler":0,
			"source":2
		},
		{
			"sampler":0,
			"source":3
		},
		{
			"sampler":0,
			"source":4
		},
		{
			"sampler":0,
			"source":5
		}
	],
	"images":[
		{
			"mimeType":"image/png",
			"name":"wood_normal",
			"uri":"wood_normal.png"
		},
		{
			"mimeType":"image/png",
			"name":"wood_albedo",
			"uri":"wood_albedo.png"
		},
		{
			"mimeType":"image/png",
			"name":"wood_surface",
			"uri":"wood_surface.png"
		},
		{
			"mimeType":"image/png",
			"name":"vine_normal",
			"uri":"vine_normal.png"
		},
		{
			"mimeType":"image/png",
			"name":"vine_albedo",
			"uri":"vine_albedo.png"
		},
		{
			"mimeType":"image/png",
			"name":"vine_surface",
			"uri":"vine_surface.png"
		}
	],
	"accessors":[
		{
			"bufferView":0,
			"componentType":5126,
			"count":50,
			"max":[
				0,
				0.00419999985024333,
				0.00419999985024333
			],
			"min":[
				-0.7200000286102295,
				-0.00419999985024333,
				-0.00419999985024333
			],
			"type":"VEC3"
		},
		{
			"bufferView":1,
			"componentType":5126,
			"count":50,
			"type":"VEC3"
		},
		{
			"bufferView":2,
			"componentType":5126,
			"count":50,
			"type":"VEC2"
		},
		{
			"bufferView":3,
			"componentType":5123,
			"count":96,
			"type":"SCALAR"
		},
		{
			"bufferView":4,
			"componentType":5126,
			"count":74,
			"max":[
				0.04800000041723251,
				0.003614910412579775,
				0.012990418821573257
			],
			"min":[
				-0.004000000189989805,
				-0.003417051862925291,
				-0.011848324909806252
			],
			"type":"VEC3"
		},
		{
			"bufferView":5,
			"componentType":5126,
			"count":74,
			"type":"VEC3"
		},
		{
			"bufferView":6,
			"componentType":5126,
			"count":74,
			"type":"VEC2"
		},
		{
			"bufferView":7,
			"componentType":5123,
			"count":240,
			"type":"SCALAR"
		},
		{
			"bufferView":8,
			"componentType":5126,
			"count":1152,
			"max":[
				-0.004389332141727209,
				0.0060963258147239685,
				0.0060967253521084785
			],
			"min":[
				-0.01294444128870964,
				-0.006096685770899057,
				-0.006095968186855316
			],
			"type":"VEC3"
		},
		{
			"bufferView":9,
			"componentType":5126,
			"count":1152,
			"type":"VEC3"
		},
		{
			"bufferView":10,
			"componentType":5126,
			"count":1152,
			"type":"VEC2"
		},
		{
			"bufferView":11,
			"componentType":5123,
			"count":3390,
			"type":"SCALAR"
		},
		{
			"bufferView":12,
			"componentType":5126,
			"count":150,
			"max":[
				-0.5600000023841858,
				0.016162697225809097,
				0.009504741989076138
			],
			"min":[
				-0.6899999976158142,
				-0.01601269654929638,
				-0.018489869311451912
			],
			"type":"VEC3"
		},
		{
			"bufferView":13,
			"componentType":5126,
			"count":150,
			"type":"VEC3"
		},
		{
			"bufferView":14,
			"componentType":5126,
			"count":150,
			"type":"VEC2"
		},
		{
			"bufferView":15,
			"componentType":5123,
			"count":288,
			"type":"SCALAR"
		}
	],
	"bufferViews":[
		{
			"buffer":0,
			"byteLength":600,
			"byteOffset":0,
			"target":34962
		},
		{
			"buffer":0,
			"byteLength":600,
			"byteOffset":600,
			"target":34962
		},
		{
			"buffer":0,
			"byteLength":400,
			"byteOffset":1200,
			"target":34962
		},
		{
			"buffer":0,
			"byteLength":192,
			"byteOffset":1600,
			"target":34963
		},
		{
			"buffer":0,
			"byteLength":888,
			"byteOffset":1792,
			"target":34962
		},
		{
			"buffer":0,
			"byteLength":888,
			"byteOffset":2680,
			"target":34962
		},
		{
			"buffer":0,
			"byteLength":592,
			"byteOffset":3568,
			"target":34962
		},
		{
			"buffer":0,
			"byteLength":480,
			"byteOffset":4160,
			"target":34963
		},
		{
			"buffer":0,
			"byteLength":13824,
			"byteOffset":4640,
			"target":34962
		},
		{
			"buffer":0,
			"byteLength":13824,
			"byteOffset":18464,
			"target":34962
		},
		{
			"buffer":0,
			"byteLength":9216,
			"byteOffset":32288,
			"target":34962
		},
		{
			"buffer":0,
			"byteLength":6780,
			"byteOffset":41504,
			"target":34963
		},
		{
			"buffer":0,
			"byteLength":1800,
			"byteOffset":48284,
			"target":34962
		},
		{
			"buffer":0,
			"byteLength":1800,
			"byteOffset":50084,
			"target":34962
		},
		{
			"buffer":0,
			"byteLength":1200,
			"byteOffset":51884,
			"target":34962
		},
		{
			"buffer":0,
			"byteLength":576,
			"byteOffset":53084,
			"target":34963
		}
	],
	"samplers":[
		{
			"magFilter":9729,
			"minFilter":9987
		}
	],
	"buffers":[
		{
			"byteLength":53660,
			"uri":"wooden_arrow.bin"
		}
	]
}
