{
	"asset":{
		"generator":"Khronos glTF Blender I/O v4.5.51",
		"version":"2.0"
	},
	"scene":0,
	"scenes":[
		{
			"name":"Scene",
			"nodes":[
				0,
				1
			]
		}
	],
	"nodes":[
		{
			"mesh":0,
			"name":"pipe_pistol_barrels"
		},
		{
			"mesh":1,
			"name":"pipe_pistol_frame"
		}
	],
	"materials":[
		{
			"doubleSided":true,
			"name":"pipe_pistol_barrels_baked",
			"normalTexture":{
				"index":0
			},
			"occlusionTexture":{
				"index":1
			},
			"pbrMetallicRoughness":{
				"baseColorTexture":{
					"index":2
				},
				"metallicRoughnessTexture":{
					"index":1
				}
			}
		},
		{
			"doubleSided":true,
			"name":"pipe_pistol_frame_baked",
			"normalTexture":{
				"index":3
			},
			"occlusionTexture":{
				"index":4
			},
			"pbrMetallicRoughness":{
				"baseColorTexture":{
					"index":5
				},
				"metallicRoughnessTexture":{
					"index":4
				}
			}
		}
	],
	"meshes":[
		{
			"name":"pipe_pistol_barrels",
			"primitives":[
				{
					"attributes":{
						"POSITION":0,
						"NORMAL":1,
						"TEXCOORD_0":2
					},
					"indices":3,
					"material":0
				}
			]
		},
		{
			"name":"pipe_pistol_frame",
			"primitives":[
				{
					"attributes":{
						"POSITION":4,
						"NORMAL":5,
						"TEXCOORD_0":6
					},
					"indices":7,
					"material":1
				}
			]
		}
	],
	"textures":[
		{
			"sampler":0,
			"source":0
		},
		{
			"sampler":0,
			"source":1
		},
		{
			"sampler":0,
			"source":2
		},
		{
			"sampler":0,
			"source":3
		},
		{
			"sampler":0,
			"source":4
		},
		{
			"sampler":0,
			"source":5
		}
	],
	"images":[
		{
			"mimeType":"image/png",
			"name":"pipe_pistol_barrels_normal",
			"uri":"pipe_pistol_barrels_normal.png"
		},
		{
			"mimeType":"image/png",
			"name":"pipe_pistol_barrels_orm",
			"uri":"pipe_pistol_barrels_orm.png"
		},
		{
			"mimeType":"image/png",
			"name":"pipe_pistol_barrels_albedo",
			"uri":"pipe_pistol_barrels_albedo.png"
		},
		{
			"mimeType":"image/png",
			"name":"pipe_pistol_frame_normal",
			"uri":"pipe_pistol_frame_normal.png"
		},
		{
			"mimeType":"image/png",
			"name":"pipe_pistol_frame_orm",
			"uri":"pipe_pistol_frame_orm.png"
		},
		{
			"mimeType":"image/png",
			"name":"pipe_pistol_frame_albedo",
			"uri":"pipe_pistol_frame_albedo.png"
		}
	],
	"accessors":[
		{
			"bufferView":0,
			"componentType":5126,
			"count":23874,
			"max":[
				0.15299999713897705,
				0.07680000364780426,
				0.013506892137229443
			],
			"min":[
				-0.02449999935925007,
				0.008348548784852028,
				-0.01773148961365223
			],
			"type":"VEC3"
		},
		{
			"bufferView":1,
			"componentType":5126,
			"count":23874,
			"type":"VEC3"
		},
		{
			"bufferView":2,
			"componentType":5126,
			"count":23874,
			"type":"VEC2"
		},
		{
			"bufferView":3,
			"componentType":5123,
			"count":71766,
			"type":"SCALAR"
		},
		{
			"bufferView":4,
			"componentType":5126,
			"count":23260,
			"max":[
				0.06199999898672104,
				0.0761619508266449,
				0.037522997707128525
			],
			"min":[
				-0.08539781719446182,
				-0.08974999934434891,
				-0.021800000220537186
			],
			"type":"VEC3"
		},
		{
			"bufferView":5,
			"componentType":5126,
			"count":23260,
			"type":"VEC3"
		},
		{
			"bufferView":6,
			"componentType":5126,
			"count":23260,
			"type":"VEC2"
		},
		{
			"bufferView":7,
			"componentType":5123,
			"count":73680,
			"type":"SCALAR"
		}
	],
	"bufferViews":[
		{
			"buffer":0,
			"byteLength":286488,
			"byteOffset":0,
			"target":34962
		},
		{
			"buffer":0,
			"byteLength":286488,
			"byteOffset":286488,
			"target":34962
		},
		{
			"buffer":0,
			"byteLength":190992,
			"byteOffset":572976,
			"target":34962
		},
		{
			"buffer":0,
			"byteLength":143532,
			"byteOffset":763968,
			"target":34963
		},
		{
			"buffer":0,
			"byteLength":279120,
			"byteOffset":907500,
			"target":34962
		},
		{
			"buffer":0,
			"byteLength":279120,
			"byteOffset":1186620,
			"target":34962
		},
		{
			"buffer":0,
			"byteLength":186080,
			"byteOffset":1465740,
			"target":34962
		},
		{
			"buffer":0,
			"byteLength":147360,
			"byteOffset":1651820,
			"target":34963
		}
	],
	"samplers":[
		{
			"magFilter":9729,
			"minFilter":9987
		}
	],
	"buffers":[
		{
			"byteLength":1799180,
			"uri":"pipe_pistol.bin"
		}
	]
}
