{
	"asset":{
		"generator":"Khronos glTF Blender I/O v4.5.51",
		"version":"2.0"
	},
	"extensionsUsed":[
		"KHR_materials_specular"
	],
	"scene":0,
	"scenes":[
		{
			"name":"Scene",
			"nodes":[
				81
			]
		}
	],
	"nodes":[
		{
			"name":"Bip01 REye",
			"rotation":[
				6.546823442477034e-06,
				4.6263771764643025e-06,
				0.6514644026756287,
				0.758679211139679
			],
			"translation":[
				11.082072257995605,
				6.9917683601379395,
				-3.1885080337524414
			]
		},
		{
			"name":"Bip01 LEye",
			"rotation":[
				-6.4898435994109605e-06,
				-8.373415766982362e-06,
				0.6514644026756287,
				0.758679211139679
			],
			"translation":[
				11.082071304321289,
				6.9917473793029785,
				3.1885478496551514
			]
		},
		{
			"name":"Bip01 MBottomLip",
			"rotation":[
				-7.778890562804008e-07,
				2.1853136331628775e-06,
				-0.1736481934785843,
				0.9848077297210693
			],
			"scale":[
				1,
				0.9999999403953552,
				0.9999999403953552
			],
			"translation":[
				10.554049491882324,
				-2.3331775665283203,
				-0.08900701254606247
			]
		},
		{
			"name":"Bip01 MTongue",
			"rotation":[
				0.003030400024726987,
				0.01334307063370943,
				-0.17570438981056213,
				0.9843478798866272
			],
			"scale":[
				1,
				0.9999999403953552,
				0.9999998807907104
			],
			"translation":[
				7.251119613647461,
				-1.5665690898895264,
				0.060974039137363434
			]
		},
		{
			"name":"Bip01 LMouthBottom",
			"rotation":[
				-0.03838108852505684,
				-0.21606484055519104,
				-0.16940724849700928,
				0.9608038663864136
			],
			"scale":[
				0.9999998211860657,
				1.0000001192092896,
				0.9999997615814209
			],
			"translation":[
				10.335305213928223,
				-2.4357211589813232,
				1.307265281677246
			]
		},
		{
			"name":"Bip01 RMouthBottom",
			"rotation":[
				0.03828729689121246,
				0.2155352085828781,
				-0.16942653059959412,
				0.9609231948852539
			],
			"scale":[
				1,
				1,
				0.9999998211860657
			],
			"translation":[
				10.314963340759277,
				-2.421574354171753,
				-1.4824955463409424
			]
		},
		{
			"children":[
				2,
				3,
				4,
				5
			],
			"name":"Bip01 MJaw",
			"rotation":[
				0.0012046645861119032,
				-0.004261435940861702,
				0.764102041721344,
				0.6450802087783813
			],
			"scale":[
				1.0000001192092896,
				0.9999999403953552,
				1
			],
			"translation":[
				3.289421558380127,
				1.2400221824645996,
				1.7301902062172303e-06
			]
		},
		{
			"name":"Bip01 RMasseter",
			"rotation":[
				-0.25819820165634155,
				0.28244930505752563,
				0.6814050078392029,
				0.623893678188324
			],
			"scale":[
				1.0000001192092896,
				1,
				1
			],
			"translation":[
				4.580306053161621,
				7.721068859100342,
				-5.719388484954834
			]
		},
		{
			"name":"Bip01 LMasseter",
			"rotation":[
				0.25820019841194153,
				-0.282455176115036,
				0.6814025640487671,
				0.6238928437232971
			],
			"scale":[
				0.9999998807907104,
				0.9999998211860657,
				1
			],
			"translation":[
				4.580305576324463,
				7.7210373878479,
				5.719433784484863
			]
		},
		{
			"name":"Bip01 MUpperLip",
			"rotation":[
				-1.5147145404625917e-07,
				-2.7129849513585214e-06,
				0.6758843064308167,
				0.7370077967643738
			],
			"scale":[
				1,
				0.9999999403953552,
				1
			],
			"translation":[
				5.081638336181641,
				11.831406593322754,
				1.7066637155949138e-05
			]
		},
		{
			"name":"Bip01 RCaninus",
			"rotation":[
				-0.19061286747455597,
				0.17508260905742645,
				0.6528336405754089,
				0.7119137048721313
			],
			"scale":[
				1,
				0.9999999403953552,
				0.9999999403953552
			],
			"translation":[
				6.248203754425049,
				10.813019752502441,
				-2.9446985721588135
			]
		},
		{
			"name":"Bip01 LCaninus",
			"rotation":[
				0.19061286747455597,
				-0.17508633434772491,
				0.6528326272964478,
				0.7119137048721313
			],
			"scale":[
				1,
				0.9999997615814209,
				0.9999999403953552
			],
			"translation":[
				6.248203277587891,
				10.813002586364746,
				2.944758415222168
			]
		},
		{
			"name":"Bip01 REyeBlinkBottom",
			"rotation":[
				-0.09612920880317688,
				0.08829662203788757,
				0.6701017618179321,
				0.7307027578353882
			],
			"scale":[
				1.0000001192092896,
				0.9999998807907104,
				1.0000001192092896
			],
			"translation":[
				10.374621391296387,
				8.750558853149414,
				-3.4110541343688965
			]
		},
		{
			"name":"Bip01 LEyeBlinkBottom",
			"rotation":[
				0.09612918645143509,
				-0.08830037713050842,
				0.6701012253761292,
				0.730702817440033
			],
			"scale":[
				1,
				0.9999998807907104,
				0.9999999403953552
			],
			"translation":[
				10.37462043762207,
				8.750539779663086,
				3.4111039638519287
			]
		},
		{
			"name":"Bip01 RUpperlip",
			"rotation":[
				-0.17033539712429047,
				0.170567587018013,
				0.6865367889404297,
				0.685973584651947
			],
			"scale":[
				1,
				0.9999999403953552,
				0.9999999403953552
			],
			"translation":[
				5.024867534637451,
				11.684234619140625,
				-1.4255620241165161
			]
		},
		{
			"name":"Bip01 LUpperlip",
			"rotation":[
				0.17018060386180878,
				-0.17041654884815216,
				0.686574399471283,
				0.6860119104385376
			],
			"scale":[
				1.0000001192092896,
				1,
				1.0000001192092896
			],
			"translation":[
				5.024867534637451,
				11.684226989746094,
				1.4256271123886108
			]
		},
		{
			"name":"Bip01 RMouthCorner",
			"rotation":[
				-0.15812982618808746,
				0.20154567062854767,
				0.7146279811859131,
				0.6509079337120056
			],
			"scale":[
				0.9999998807907104,
				0.9999999403953552,
				1
			],
			"translation":[
				4.082573413848877,
				10.71423053741455,
				-2.7700915336608887
			]
		},
		{
			"name":"Bip01 LMouthCorner",
			"rotation":[
				0.15813302993774414,
				-0.20155301690101624,
				0.714625895023346,
				0.6509072184562683
			],
			"scale":[
				1,
				0.9999998807907104,
				1
			],
			"translation":[
				4.082573413848877,
				10.714214324951172,
				2.7701518535614014
			]
		},
		{
			"name":"Bip01 RCheek",
			"rotation":[
				-0.1325632780790329,
				0.1349373608827591,
				0.6999219655990601,
				0.688714861869812
			],
			"scale":[
				1.0000001192092896,
				1,
				1
			],
			"translation":[
				8.475425720214844,
				9.653766632080078,
				-4.13737154006958
			]
		},
		{
			"name":"Bip01 LCheek",
			"rotation":[
				0.13256902992725372,
				-0.13494707643985748,
				0.6999202370643616,
				0.688713550567627
			],
			"scale":[
				1,
				0.9999998807907104,
				1
			],
			"translation":[
				8.475425720214844,
				9.653743743896484,
				4.137425422668457
			]
		},
		{
			"name":"Bip01 REyeBlinkTop",
			"rotation":[
				-0.10190218687057495,
				0.10861624032258987,
				0.5618585348129272,
				0.8137158155441284
			],
			"scale":[
				1,
				0.9999998211860657,
				1
			],
			"translation":[
				11.867794036865234,
				8.439642906188965,
				-3.335811138153076
			]
		},
		{
			"name":"Bip01 LEyeBlinkTop",
			"rotation":[
				0.10190217196941376,
				-0.10861942172050476,
				0.5618579387664795,
				0.8137158155441284
			],
			"scale":[
				1,
				1.0000001192092896,
				0.9999999403953552
			],
			"translation":[
				11.867794036865234,
				8.439624786376953,
				3.3358583450317383
			]
		},
		{
			"name":"Bip01 RInnerEyebrow",
			"rotation":[
				-0.06418655067682266,
				0.05895671620965004,
				0.6733120083808899,
				0.7342038154602051
			],
			"scale":[
				0.9999999403953552,
				0.9999998807907104,
				1
			],
			"translation":[
				13.005329132080078,
				9.46507453918457,
				-2.6413159370422363
			]
		},
		{
			"name":"Bip01 LInnerEyebrow",
			"rotation":[
				0.06418649107217789,
				-0.05896050110459328,
				0.6733116507530212,
				0.7342038154602051
			],
			"scale":[
				1,
				0.9999998807907104,
				0.9999998807907104
			],
			"translation":[
				13.005329132080078,
				9.465059280395508,
				2.641369581222534
			]
		},
		{
			"name":"Bip01 MMiddleEyebrow",
			"rotation":[
				-2.3567841012095414e-08,
				-1.8875540490626008e-06,
				0.6769024729728699,
				0.7360727190971375
			],
			"scale":[
				1,
				0.9999998807907104,
				1
			],
			"translation":[
				12.70647144317627,
				10.012903213500977,
				1.4391029253602028e-05
			]
		},
		{
			"name":"Bip01 ROuterEyebrow",
			"rotation":[
				-0.18039096891880035,
				0.18558627367019653,
				0.6560013890266418,
				0.7089985609054565
			],
			"scale":[
				1,
				0.9999998807907104,
				1
			],
			"translation":[
				12.541542053222656,
				8.292974472045898,
				-4.926668643951416
			]
		},
		{
			"name":"Bip01 LOuterEyebrow",
			"rotation":[
				0.18039092421531677,
				-0.18558993935585022,
				0.656000554561615,
				0.708998441696167
			],
			"scale":[
				1.0000001192092896,
				0.9999999403953552,
				1
			],
			"translation":[
				12.54154109954834,
				8.292945861816406,
				4.92671537399292
			]
		},
		{
			"name":"Bip01 MNose",
			"rotation":[
				-1.4652782454049884e-07,
				-2.7261924060439924e-06,
				0.6731290221214294,
				0.7395251393318176
			],
			"scale":[
				0.9999999403953552,
				0.9999998807907104,
				1
			],
			"translation":[
				8.70811653137207,
				12.193282127380371,
				1.724812318570912e-05
			]
		},
		{
			"children":[
				0,
				1,
				6,
				7,
				8,
				9,
				10,
				11,
				12,
				13,
				14,
				15,
				16,
				17,
				18,
				19,
				20,
				21,
				22,
				23,
				24,
				25,
				26,
				27
			],
			"name":"Bip01 Head",
			"rotation":[
				1.296573959308489e-08,
				7.342566732404521e-08,
				-0.07293813675642014,
				0.9973364472389221
			],
			"scale":[
				1,
				1.0000001192092896,
				1
			],
			"translation":[
				6.926529884338379,
				-2.8610179469978902e-06,
				-8.737436019146116e-07
			]
		},
		{
			"name":"Bip01 L Finger02",
			"rotation":[
				4.1214175894310756e-07,
				-2.7351219955562556e-07,
				0.10685893148183823,
				0.9942741990089417
			],
			"scale":[
				1.000000238418579,
				1,
				1
			],
			"translation":[
				3.1003258228302,
				-9.5367431640625e-07,
				1.621246337890625e-05
			]
		},
		{
			"children":[
				29
			],
			"name":"Bip01 L Finger01",
			"rotation":[
				-1.799594713247643e-07,
				1.0966278551904907e-07,
				0.11265206336975098,
				0.9936345219612122
			],
			"scale":[
				1.0000001192092896,
				1,
				1.0000001192092896
			],
			"translation":[
				2.8278234004974365,
				9.5367431640625e-07,
				-2.384185791015625e-06
			]
		},
		{
			"children":[
				30
			],
			"name":"Bip01 L Finger0",
			"rotation":[
				0.6539390087127686,
				0.3667515218257904,
				-0.033281467854976654,
				0.6608702540397644
			],
			"scale":[
				1.0000001192092896,
				1,
				1
			],
			"translation":[
				2.6760828495025635,
				0.6282094717025757,
				-3.1982579231262207
			]
		},
		{
			"name":"Bip01 L Finger12",
			"rotation":[
				7.824849745929896e-08,
				-5.197936161493999e-07,
				0.021091660484671593,
				0.9997775554656982
			],
			"scale":[
				1.0000001192092896,
				0.9999999403953552,
				1
			],
			"translation":[
				2.379070281982422,
				4.5299530029296875e-06,
				-2.384185791015625e-06
			]
		},
		{
			"children":[
				32
			],
			"name":"Bip01 L Finger11",
			"rotation":[
				-4.2000257849394984e-07,
				7.109175470532136e-08,
				0.09346985816955566,
				0.9956220984458923
			],
			"scale":[
				0.9999999403953552,
				1,
				1
			],
			"translation":[
				3.1289539337158203,
				-6.4373016357421875e-06,
				9.5367431640625e-07
			]
		},
		{
			"children":[
				33
			],
			"name":"Bip01 L Finger1",
			"rotation":[
				-0.0005935767549090087,
				0.004124794155359268,
				0.1071404442191124,
				0.9942351579666138
			],
			"scale":[
				1.0000001192092896,
				0.9999999403953552,
				1
			],
			"translation":[
				9.43896484375,
				-0.2039198875427246,
				-2.2424607276916504
			]
		},
		{
			"name":"Bip01 L Finger22",
			"rotation":[
				1.1484901563107996e-07,
				1.948575572896516e-06,
				0.09046711027622223,
				0.9958994388580322
			],
			"scale":[
				1,
				0.9999999403953552,
				1
			],
			"translation":[
				2.848792314529419,
				7.119029760360718e-06,
				-1.430511474609375e-06
			]
		},
		{
			"children":[
				35
			],
			"name":"Bip01 L Finger21",
			"rotation":[
				1.028483964660154e-07,
				-2.5014972493409005e-07,
				0.06659200042486191,
				0.9977803230285645
			],
			"scale":[
				0.9999999403953552,
				1,
				0.9999999403953552
			],
			"translation":[
				3.8014094829559326,
				9.03010368347168e-06,
				-3.5762786865234375e-06
			]
		},
		{
			"children":[
				36
			],
			"name":"Bip01 L Finger2",
			"rotation":[
				-0.13920092582702637,
				-0.028465721756219864,
				0.1446170061826706,
				0.9792337417602539
			],
			"translation":[
				9.55927562713623,
				-0.18641149997711182,
				0.14533567428588867
			]
		},
		{
			"name":"Bip01 L Finger32",
			"rotation":[
				-1.298439933350437e-08,
				-3.4621180589056166e-07,
				0.025095339864492416,
				0.9996850490570068
			],
			"scale":[
				1,
				0.9999998807907104,
				1
			],
			"translation":[
				2.4442222118377686,
				3.768131136894226e-06,
				1.6689300537109375e-06
			]
		},
		{
			"children":[
				38
			],
			"name":"Bip01 L Finger31",
			"rotation":[
				-2.405191708021448e-07,
				4.025942246244085e-07,
				0.04960635304450989,
				0.9987688660621643
			],
			"scale":[
				0.9999998211860657,
				0.9999997615814209,
				0.9999998807907104
			],
			"translation":[
				3.369631767272949,
				-4.738569259643555e-06,
				-9.5367431640625e-07
			]
		},
		{
			"children":[
				39
			],
			"name":"Bip01 L Finger3",
			"rotation":[
				-0.14773282408714294,
				-0.019085854291915894,
				0.18398912250995636,
				0.9715753793716431
			],
			"scale":[
				1,
				1.0000001192092896,
				1
			],
			"translation":[
				8.993627548217773,
				0.22698187828063965,
				2.3016695976257324
			]
		},
		{
			"name":"Bip01 L Finger42",
			"rotation":[
				5.4965141771390336e-08,
				-6.067709250601183e-07,
				0.02495112270116806,
				0.9996886849403381
			],
			"scale":[
				0.9999999403953552,
				0.9999999403953552,
				1.0000001192092896
			],
			"translation":[
				1.5358003377914429,
				-5.125999450683594e-06,
				-4.76837158203125e-07
			]
		},
		{
			"children":[
				41
			],
			"name":"Bip01 L Finger41",
			"rotation":[
				1.4694991534724977e-07,
				1.3141655017534504e-06,
				0.021445469930768013,
				0.9997700452804565
			],
			"scale":[
				1.0000001192092896,
				1,
				1
			],
			"translation":[
				2.9087934494018555,
				1.5139579772949219e-05,
				-4.76837158203125e-06
			]
		},
		{
			"children":[
				42
			],
			"name":"Bip01 L Finger4",
			"rotation":[
				-0.2242330014705658,
				-0.04356157407164574,
				0.2674206793308258,
				0.9361132979393005
			],
			"scale":[
				1,
				1.0000001192092896,
				1
			],
			"translation":[
				8.023808479309082,
				1.2019131183624268,
				3.974717617034912
			]
		},
		{
			"children":[
				31,
				34,
				37,
				40,
				43
			],
			"name":"Bip01 L Hand",
			"rotation":[
				-0.7147619724273682,
				0.012448768131434917,
				0.036024123430252075,
				0.6983284950256348
			],
			"scale":[
				1,
				1,
				0.9999999403953552
			],
			"translation":[
				27.091934204101562,
				-3.910064697265625e-05,
				-5.2094459533691406e-05
			]
		},
		{
			"children":[
				44
			],
			"name":"Bip01 L Forearm",
			"rotation":[
				-2.120572730746062e-07,
				-2.808693864153611e-07,
				-0.17941707372665405,
				0.9837730526924133
			],
			"scale":[
				1.0000001192092896,
				1.0000001192092896,
				1.0000001192092896
			],
			"translation":[
				28.580123901367188,
				-3.075599670410156e-05,
				-4.711747169494629e-05
			]
		},
		{
			"children":[
				45
			],
			"name":"Bip01 L UpperArm",
			"rotation":[
				0.09000895172357559,
				0.26698946952819824,
				-0.029683973640203476,
				0.9590275883674622
			],
			"scale":[
				0.9999998807907104,
				0.9999998807907104,
				0.9999999403953552
			],
			"translation":[
				14.107949256896973,
				-6.020069122314453e-06,
				7.450580596923828e-09
			]
		},
		{
			"children":[
				46
			],
			"name":"Bip01 L Clavicle",
			"rotation":[
				0.6135297417640686,
				-0.11396156251430511,
				0.7713326811790466,
				0.12505942583084106
			],
			"scale":[
				1.000002145767212,
				1.000000238418579,
				1.000000238418579
			],
			"translation":[
				-6.206540584564209,
				0.7088249325752258,
				7.282190322875977
			]
		},
		{
			"name":"Bip01 R Finger02",
			"rotation":[
				-3.3908028740370355e-07,
				-8.617509905661791e-08,
				0.10685877501964569,
				0.9942741990089417
			],
			"scale":[
				1,
				0.9999998807907104,
				1
			],
			"translation":[
				3.100327968597412,
				-4.76837158203125e-06,
				-1.0013580322265625e-05
			]
		},
		{
			"children":[
				48
			],
			"name":"Bip01 R Finger01",
			"rotation":[
				1.0310178311101481e-07,
				-1.0403906713918332e-07,
				0.11265207827091217,
				0.9936344623565674
			],
			"scale":[
				1,
				0.9999998807907104,
				1
			],
			"translation":[
				2.8278160095214844,
				6.67572021484375e-06,
				1.52587890625e-05
			]
		},
		{
			"children":[
				49
			],
			"name":"Bip01 R Finger0",
			"rotation":[
				-0.6539393663406372,
				-0.366751104593277,
				-0.0332816019654274,
				0.6608700752258301
			],
			"scale":[
				1,
				1,
				0.9999998807907104
			],
			"translation":[
				2.6760916709899902,
				0.6282031536102295,
				3.198248863220215
			]
		},
		{
			"name":"Bip01 R Finger12",
			"rotation":[
				9.501602704631296e-08,
				8.011155472331666e-08,
				0.021091483533382416,
				0.9997775554656982
			],
			"scale":[
				0.9999998807907104,
				1,
				1.0000001192092896
			],
			"translation":[
				2.3790764808654785,
				5.4836273193359375e-06,
				-7.62939453125e-06
			]
		},
		{
			"children":[
				51
			],
			"name":"Bip01 R Finger11",
			"rotation":[
				3.67619236385508e-07,
				1.496668460276851e-07,
				0.09346994757652283,
				0.9956220984458923
			],
			"scale":[
				1,
				0.9999998807907104,
				0.9999998807907104
			],
			"translation":[
				3.1289520263671875,
				-4.291534423828125e-06,
				9.5367431640625e-06
			]
		},
		{
			"children":[
				52
			],
			"name":"Bip01 R Finger1",
			"rotation":[
				0.0005941649433225393,
				-0.004124383442103863,
				0.10714045912027359,
				0.9942351579666138
			],
			"scale":[
				1.0000001192092896,
				1,
				1.0000001192092896
			],
			"translation":[
				9.438972473144531,
				-0.20392370223999023,
				2.242438316345215
			]
		},
		{
			"name":"Bip01 R Finger22",
			"rotation":[
				-2.066697248892524e-07,
				1.0239971004466497e-07,
				0.0904669463634491,
				0.995899498462677
			],
			"scale":[
				1,
				1.0000001192092896,
				1
			],
			"translation":[
				2.848797559738159,
				-9.872019290924072e-07,
				-2.86102294921875e-06
			]
		},
		{
			"children":[
				54
			],
			"name":"Bip01 R Finger21",
			"rotation":[
				1.755948275672381e-08,
				2.356820694160433e-08,
				0.06659206002950668,
				0.9977803230285645
			],
			"scale":[
				1,
				0.9999998807907104,
				0.9999998807907104
			],
			"translation":[
				3.8013970851898193,
				-1.093745231628418e-05,
				-7.152557373046875e-07
			]
		},
		{
			"children":[
				55
			],
			"name":"Bip01 R Finger2",
			"rotation":[
				0.13920141756534576,
				0.028466060757637024,
				0.14461688697338104,
				0.9792336821556091
			],
			"scale":[
				1.000000238418579,
				1,
				1
			],
			"translation":[
				9.55929183959961,
				-0.1864180564880371,
				-0.14535999298095703
			]
		},
		{
			"name":"Bip01 R Finger32",
			"rotation":[
				-5.449953377478778e-08,
				1.0562197161334552e-07,
				0.02509518340229988,
				0.9996850490570068
			],
			"scale":[
				0.9999998807907104,
				1.0000001192092896,
				1
			],
			"translation":[
				2.4442336559295654,
				1.1144205927848816e-05,
				-2.1457672119140625e-06
			]
		},
		{
			"children":[
				57
			],
			"name":"Bip01 R Finger31",
			"rotation":[
				-3.0888092084069285e-09,
				2.144682653693053e-08,
				0.049606483429670334,
				0.9987688660621643
			],
			"scale":[
				0.9999999403953552,
				0.9999998807907104,
				0.9999998807907104
			],
			"translation":[
				3.3696353435516357,
				-4.023313522338867e-06,
				4.76837158203125e-06
			]
		},
		{
			"children":[
				58
			],
			"name":"Bip01 R Finger3",
			"rotation":[
				0.14773344993591309,
				0.01908617466688156,
				0.18398897349834442,
				0.9715753793716431
			],
			"scale":[
				1.0000001192092896,
				1,
				0.9999999403953552
			],
			"translation":[
				8.993637084960938,
				0.2269660234451294,
				-2.301699638366699
			]
		},
		{
			"name":"Bip01 R Finger42",
			"rotation":[
				-5.746885278767877e-08,
				-1.1907174268799281e-07,
				0.02495097741484642,
				0.9996886849403381
			],
			"scale":[
				0.9999999403953552,
				1,
				0.9999999403953552
			],
			"translation":[
				1.5358071327209473,
				-2.2292137145996094e-05,
				0
			]
		},
		{
			"children":[
				60
			],
			"name":"Bip01 R Finger41",
			"rotation":[
				-2.6944701403408544e-07,
				-1.0712672349200147e-07,
				0.02144561894237995,
				0.9997700452804565
			],
			"scale":[
				1,
				0.9999999403953552,
				1
			],
			"translation":[
				2.908769130706787,
				-3.0994415283203125e-06,
				9.5367431640625e-07
			]
		},
		{
			"children":[
				61
			],
			"name":"Bip01 R Finger4",
			"rotation":[
				0.224233478307724,
				0.04356197267770767,
				0.2674204707145691,
				0.9361132383346558
			],
			"scale":[
				1.0000001192092896,
				1,
				1
			],
			"translation":[
				8.023818969726562,
				1.201920747756958,
				-3.9747376441955566
			]
		},
		{
			"children":[
				50,
				53,
				56,
				59,
				62
			],
			"name":"Bip01 R Hand",
			"rotation":[
				0.7147620916366577,
				-0.012448708526790142,
				0.03602413833141327,
				0.6983283758163452
			],
			"scale":[
				1,
				1,
				0.9999999403953552
			],
			"translation":[
				27.09195327758789,
				-1.0728836059570312e-05,
				6.9141387939453125e-06
			]
		},
		{
			"children":[
				63
			],
			"name":"Bip01 R Forearm",
			"rotation":[
				3.5974000667238215e-08,
				7.869312312891452e-09,
				-0.17941708862781525,
				0.9837731122970581
			],
			"scale":[
				1,
				1.0000001192092896,
				1.0000001192092896
			],
			"translation":[
				28.58015251159668,
				-1.7881393432617188e-06,
				-2.5540590286254883e-05
			]
		},
		{
			"children":[
				64
			],
			"name":"Bip01 R UpperArm",
			"rotation":[
				-0.09000901877880096,
				-0.266989529132843,
				-0.02968413010239601,
				0.9590275287628174
			],
			"scale":[
				0.9999998807907104,
				0.9999998807907104,
				1
			],
			"translation":[
				14.10798168182373,
				4.76837158203125e-07,
				-2.031773328781128e-05
			]
		},
		{
			"children":[
				65
			],
			"name":"Bip01 R Clavicle",
			"rotation":[
				-0.6135295629501343,
				0.11395938694477081,
				0.771332859992981,
				0.12506145238876343
			],
			"scale":[
				0.9999997615814209,
				0.9999999403953552,
				1.0000001192092896
			],
			"translation":[
				-6.206536293029785,
				0.7088655829429626,
				-7.2821855545043945
			]
		},
		{
			"children":[
				28,
				47,
				66
			],
			"name":"Bip01 Neck",
			"rotation":[
				-1.291092033284258e-08,
				-2.401812650987267e-07,
				0.16845479607582092,
				0.9857093691825867
			],
			"scale":[
				0.9999998807907104,
				0.9999997615814209,
				0.9999998807907104
			],
			"translation":[
				19.9141788482666,
				1.5633827447891235,
				-7.2420482410962e-07
			]
		},
		{
			"children":[
				67
			],
			"name":"Bip01 Spine2",
			"rotation":[
				1.2372787239200989e-09,
				-1.1736145211216353e-07,
				0.015563408844172955,
				0.9998788833618164
			],
			"scale":[
				1,
				1.0000001192092896,
				1
			],
			"translation":[
				15.31758975982666,
				-0.012191414833068848,
				-1.1484121387184132e-07
			]
		},
		{
			"children":[
				68
			],
			"name":"Bip01 Spine1",
			"rotation":[
				6.7539362991198e-10,
				-1.6703181060506722e-08,
				-0.013679503463208675,
				0.9999064207077026
			],
			"scale":[
				0.9999999403953552,
				1,
				1.0000001192092896
			],
			"translation":[
				15.316869735717773,
				-0.01219189167022705,
				1.5592803492836538e-06
			]
		},
		{
			"name":"Bip01 L Toe0",
			"rotation":[
				-6.084239316805906e-07,
				5.880078788322862e-07,
				0.70710688829422,
				0.7071066498756409
			],
			"scale":[
				1,
				0.9999999403953552,
				0.9999999403953552
			],
			"translation":[
				10.162383079528809,
				13.629579544067383,
				-2.2691732738167048e-05
			]
		},
		{
			"children":[
				70
			],
			"name":"Bip01 L Foot",
			"rotation":[
				0.014937197789549828,
				-0.0197177454829216,
				0.04391249641776085,
				0.9987290501594543
			],
			"scale":[
				0.9999998807907104,
				0.9999998807907104,
				0.9999998807907104
			],
			"translation":[
				39.66891860961914,
				-7.331371307373047e-06,
				-4.708766937255859e-06
			]
		},
		{
			"children":[
				71
			],
			"name":"Bip01 L Calf",
			"rotation":[
				2.781801811124751e-08,
				-7.58143059442773e-08,
				-0.06167902797460556,
				0.9980961084365845
			],
			"scale":[
				0.9999999403953552,
				0.9999999403953552,
				0.9999999403953552
			],
			"translation":[
				39.90353012084961,
				4.0531158447265625e-06,
				4.172325134277344e-07
			]
		},
		{
			"children":[
				72
			],
			"name":"Bip01 L Thigh",
			"rotation":[
				-0.0018706987611949444,
				-0.9900749921798706,
				-0.138014554977417,
				0.026459569111466408
			],
			"scale":[
				0.9999999403953552,
				0.9999999403953552,
				1.0000001192092896
			],
			"translation":[
				-12.021279335021973,
				-0.3724934756755829,
				8.836847305297852
			]
		},
		{
			"name":"Bip01 R Toe0",
			"rotation":[
				5.40535666004871e-07,
				-6.704027555315406e-07,
				0.7071066498756409,
				0.70710688829422
			],
			"scale":[
				0.9999999403953552,
				0.9999999403953552,
				1
			],
			"translation":[
				10.162364959716797,
				13.6295747756958,
				2.1905521862208843e-05
			]
		},
		{
			"children":[
				74
			],
			"name":"Bip01 R Foot",
			"rotation":[
				-0.014937276020646095,
				0.01971806026995182,
				0.04391273111104965,
				0.9987290501594543
			],
			"scale":[
				1.0000001192092896,
				0.9999999403953552,
				1
			],
			"translation":[
				39.66889572143555,
				4.76837158203125e-07,
				-1.043081283569336e-06
			]
		},
		{
			"children":[
				75
			],
			"name":"Bip01 R Calf",
			"rotation":[
				3.2891740886498155e-08,
				-1.0264089667089138e-07,
				-0.06167902797460556,
				0.9980961084365845
			],
			"scale":[
				0.9999999403953552,
				0.9999999403953552,
				1.0000001192092896
			],
			"translation":[
				39.903533935546875,
				-7.152557373046875e-06,
				2.86102294921875e-06
			]
		},
		{
			"children":[
				76
			],
			"name":"Bip01 R Thigh",
			"rotation":[
				0.001870813430286944,
				0.9900753498077393,
				-0.13801179826259613,
				0.026459699496626854
			],
			"scale":[
				0.9999999403953552,
				0.9999997615814209,
				1
			],
			"translation":[
				-12.02127742767334,
				-0.3724438548088074,
				-8.836851119995117
			]
		},
		{
			"children":[
				69,
				73,
				77
			],
			"name":"Bip01 Spine",
			"rotation":[
				-2.0949328245478682e-06,
				8.043550110414799e-07,
				-0.02225603722035885,
				0.9997522830963135
			],
			"scale":[
				1,
				1.0000001192092896,
				1
			],
			"translation":[
				12.02593994140625,
				-0.1628580242395401,
				-1.7503118215245195e-05
			]
		},
		{
			"children":[
				78
			],
			"name":"Bip01 Pelvis",
			"rotation":[
				0.7071067690849304,
				0.7071067690849304,
				-1.0115257964571356e-06,
				3.09099092987708e-08
			],
			"scale":[
				1,
				0.9999998807907104,
				1
			],
			"translation":[
				3.019806626980426e-13,
				0,
				7.453889935837843e-20
			]
		},
		{
			"mesh":0,
			"name":"m009_hipoly_81_bones_opacity",
			"skin":0
		},
		{
			"children":[
				80,
				79
			],
			"name":"Bip01",
			"rotation":[
				0,
				-0.7071062922477722,
				0,
				0.7071073651313782
			],
			"scale":[
				0.009999999776482582,
				0.009999999776482582,
				0.009999999776482582
			],
			"translation":[
				0,
				0.8951848149299622,
				0
			]
		}
	],
	"materials":[
		{
			"doubleSided":true,
			"name":"m009_body",
			"normalTexture":{
				"index":0
			},
			"pbrMetallicRoughness":{
				"baseColorTexture":{
					"index":1
				},
				"metallicRoughnessTexture":{
					"index":2
				}
			}
		},
		{
			"doubleSided":true,
			"name":"m009_head",
			"normalTexture":{
				"index":3
			},
			"pbrMetallicRoughness":{
				"baseColorTexture":{
					"index":4
				},
				"metallicRoughnessTexture":{
					"index":5
				}
			}
		},
		{
			"alphaMode":"BLEND",
			"doubleSided":true,
			"extensions":{
				"KHR_materials_specular":{
					"specularFactor":0
				}
			},
			"name":"m009_opacity",
			"pbrMetallicRoughness":{
				"baseColorTexture":{
					"index":6
				},
				"roughnessFactor":0.858578622341156
			}
		}
	],
	"meshes":[
		{
			"name":"Mesh",
			"primitives":[
				{
					"attributes":{
						"POSITION":0,
						"NORMAL":1,
						"TEXCOORD_0":2,
						"JOINTS_0":3,
						"WEIGHTS_0":4
					},
					"indices":5,
					"material":0
				},
				{
					"attributes":{
						"POSITION":6,
						"NORMAL":7,
						"TEXCOORD_0":8,
						"JOINTS_0":9,
						"WEIGHTS_0":10
					},
					"indices":11,
					"material":1
				},
				{
					"attributes":{
						"POSITION":12,
						"NORMAL":13,
						"TEXCOORD_0":14,
						"JOINTS_0":15,
						"WEIGHTS_0":16
					},
					"indices":17,
					"material":2
				}
			]
		}
	],
	"textures":[
		{
			"sampler":0,
			"source":0
		},
		{
			"sampler":0,
			"source":1
		},
		{
			"sampler":0,
			"source":2
		},
		{
			"sampler":0,
			"source":3
		},
		{
			"sampler":0,
			"source":4
		},
		{
			"sampler":0,
			"source":5
		},
		{
			"sampler":0,
			"source":6
		}
	],
	"images":[
		{
			"mimeType":"image/png",
			"name":"m009_body_normal",
			"uri":"m009_body_normal.png"
		},
		{
			"mimeType":"image/png",
			"name":"m009_body_color",
			"uri":"m009_body_color.png"
		},
		{
			"mimeType":"image/png",
			"name":"m009_body_surface",
			"uri":"m009_body_surface.png"
		},
		{
			"mimeType":"image/png",
			"name":"m009_head_normal",
			"uri":"m009_head_normal.png"
		},
		{
			"mimeType":"image/png",
			"name":"m009_head_color",
			"uri":"m009_head_color.png"
		},
		{
			"mimeType":"image/png",
			"name":"m009_head_surface",
			"uri":"m009_head_surface.png"
		},
		{
			"mimeType":"image/png",
			"name":"m009_opacity_color",
			"uri":"m009_opacity_color.png"
		}
	],
	"skins":[
		{
			"inverseBindMatrices":18,
			"joints":[
				79,
				78,
				69,
				68,
				67,
				28,
				0,
				1,
				6,
				2,
				3,
				4,
				5,
				7,
				8,
				9,
				10,
				11,
				12,
				13,
				14,
				15,
				16,
				17,
				18,
				19,
				20,
				21,
				22,
				23,
				24,
				25,
				26,
				27,
				47,
				46,
				45,
				44,
				31,
				30,
				29,
				34,
				33,
				32,
				37,
				36,
				35,
				40,
				39,
				38,
				43,
				42,
				41,
				66,
				65,
				64,
				63,
				50,
				49,
				48,
				53,
				52,
				51,
				56,
				55,
				54,
				59,
				58,
				57,
				62,
				61,
				60,
				73,
				72,
				71,
				70,
				77,
				76,
				75,
				74
			],
			"name":"Bip01"
		}
	],
	"accessors":[
		{
			"bufferView":0,
			"componentType":5126,
			"count":2837,
			"max":[
				0.6741141080856323,
				1.589235544204712,
				0.20379449427127838
			],
			"min":[
				-0.6741140484809875,
				-0.00092609494458884,
				-0.1641051322221756
			],
			"type":"VEC3"
		},
		{
			"bufferView":1,
			"componentType":5126,
			"count":2837,
			"type":"VEC3"
		},
		{
			"bufferView":2,
			"componentType":5126,
			"count":2837,
			"type":"VEC2"
		},
		{
			"bufferView":3,
			"componentType":5121,
			"count":2837,
			"type":"VEC4"
		},
		{
			"bufferView":4,
			"componentType":5126,
			"count":2837,
			"type":"VEC4"
		},
		{
			"bufferView":5,
			"componentType":5123,
			"count":13122,
			"type":"SCALAR"
		},
		{
			"bufferView":6,
			"componentType":5126,
			"count":1713,
			"max":[
				0.09571390599012375,
				1.795259714126587,
				0.14683814346790314
			],
			"min":[
				-0.09565579891204834,
				1.4892386198043823,
				-0.08986376971006393
			],
			"type":"VEC3"
		},
		{
			"bufferView":7,
			"componentType":5126,
			"count":1713,
			"type":"VEC3"
		},
		{
			"bufferView":8,
			"componentType":5126,
			"count":1713,
			"type":"VEC2"
		},
		{
			"bufferView":9,
			"componentType":5121,
			"count":1713,
			"type":"VEC4"
		},
		{
			"bufferView":10,
			"componentType":5126,
			"count":1713,
			"type":"VEC4"
		},
		{
			"bufferView":11,
			"componentType":5123,
			"count":9246,
			"type":"SCALAR"
		},
		{
			"bufferView":12,
			"componentType":5126,
			"count":432,
			"max":[
				0.08755190670490265,
				1.8115109205245972,
				0.11193346977233887
			],
			"min":[
				-0.0866394191980362,
				1.7094993591308594,
				-0.08384101837873459
			],
			"type":"VEC3"
		},
		{
			"bufferView":13,
			"componentType":5126,
			"count":432,
			"type":"VEC3"
		},
		{
			"bufferView":14,
			"componentType":5126,
			"count":432,
			"type":"VEC2"
		},
		{
			"bufferView":15,
			"componentType":5121,
			"count":432,
			"type":"VEC4"
		},
		{
			"bufferView":16,
			"componentType":5126,
			"count":432,
			"type":"VEC4"
		},
		{
			"bufferView":17,
			"componentType":5123,
			"count":1140,
			"type":"SCALAR"
		},
		{
			"bufferView":18,
			"componentType":5126,
			"count":80,
			"type":"MAT4"
		}
	],
	"bufferViews":[
		{
			"buffer":0,
			"byteLength":34044,
			"byteOffset":0,
			"target":34962
		},
		{
			"buffer":0,
			"byteLength":34044,
			"byteOffset":34044,
			"target":34962
		},
		{
			"buffer":0,
			"byteLength":22696,
			"byteOffset":68088,
			"target":34962
		},
		{
			"buffer":0,
			"byteLength":11348,
			"byteOffset":90784,
			"target":34962
		},
		{
			"buffer":0,
			"byteLength":45392,
			"byteOffset":102132,
			"target":34962
		},
		{
			"buffer":0,
			"byteLength":26244,
			"byteOffset":147524,
			"target":34963
		},
		{
			"buffer":0,
			"byteLength":20556,
			"byteOffset":173768,
			"target":34962
		},
		{
			"buffer":0,
			"byteLength":20556,
			"byteOffset":194324,
			"target":34962
		},
		{
			"buffer":0,
			"byteLength":13704,
			"byteOffset":214880,
			"target":34962
		},
		{
			"buffer":0,
			"byteLength":6852,
			"byteOffset":228584,
			"target":34962
		},
		{
			"buffer":0,
			"byteLength":27408,
			"byteOffset":235436,
			"target":34962
		},
		{
			"buffer":0,
			"byteLength":18492,
			"byteOffset":262844,
			"target":34963
		},
		{
			"buffer":0,
			"byteLength":5184,
			"byteOffset":281336,
			"target":34962
		},
		{
			"buffer":0,
			"byteLength":5184,
			"byteOffset":286520,
			"target":34962
		},
		{
			"buffer":0,
			"byteLength":3456,
			"byteOffset":291704,
			"target":34962
		},
		{
			"buffer":0,
			"byteLength":1728,
			"byteOffset":295160,
			"target":34962
		},
		{
			"buffer":0,
			"byteLength":6912,
			"byteOffset":296888,
			"target":34962
		},
		{
			"buffer":0,
			"byteLength":2280,
			"byteOffset":303800,
			"target":34963
		},
		{
			"buffer":0,
			"byteLength":5120,
			"byteOffset":306080
		}
	],
	"samplers":[
		{
			"magFilter":9729,
			"minFilter":9987
		}
	],
	"buffers":[
		{
			"byteLength":311200,
			"uri":"male_adult_05.bin"
		}
	]
}
