{
 "asset": {
  "generator": "Khronos glTF Blender I/O v4.5.51",
  "version": "2.0"
 },
 "scene": 0,
 "scenes": [
  {
   "name": "Scene",
   "nodes": [
    82
   ]
  }
 ],
 "nodes": [
  {
   "name": "Bip01 REye",
   "rotation": [
    6.556420430570142e-06,
    4.615200850821566e-06,
    0.6514644026756287,
    0.758679211139679
   ],
   "scale": [
    1.0000001192092896,
    1.0000001192092896,
    1
   ],
   "translation": [
    9.973867416381836,
    6.292586326599121,
    -2.869657278060913
   ]
  },
  {
   "name": "Bip01 LEye",
   "rotation": [
    -6.503570148197468e-06,
    -8.357444130524527e-06,
    0.6514644026756287,
    0.758679211139679
   ],
   "scale": [
    1.0000001192092896,
    1.0000001192092896,
    1
   ],
   "translation": [
    9.973867416381836,
    6.292571067810059,
    2.8696930408477783
   ]
  },
  {
   "name": "Bip01 MBottomLip",
   "rotation": [
    -7.748152484055026e-07,
    2.1539115095947636e-06,
    -0.17364813387393951,
    0.9848077893257141
   ],
   "scale": [
    1,
    1.000000238418579,
    1.0000001192092896
   ],
   "translation": [
    9.498648643493652,
    -2.0998635292053223,
    -0.08010583370923996
   ]
  },
  {
   "name": "Bip01 MTongue",
   "rotation": [
    0.003030409337952733,
    0.013343073427677155,
    -0.17570443451404572,
    0.9843478798866272
   ],
   "scale": [
    1.0000001192092896,
    1,
    1
   ],
   "translation": [
    6.526010036468506,
    -1.4099079370498657,
    0.05487702041864395
   ]
  },
  {
   "name": "Bip01 LMouthBottom",
   "rotation": [
    -0.03838109225034714,
    -0.21606490015983582,
    -0.1694072037935257,
    0.9608038663864136
   ],
   "scale": [
    0.9999998807907104,
    1,
    1
   ],
   "translation": [
    9.301774024963379,
    -2.1921679973602295,
    1.176539659500122
   ]
  },
  {
   "name": "Bip01 RMouthBottom",
   "rotation": [
    0.038288362324237823,
    0.2155410498380661,
    -0.1694263368844986,
    0.9609218239784241
   ],
   "scale": [
    1.0000001192092896,
    1,
    1
   ],
   "translation": [
    9.283469200134277,
    -2.1794190406799316,
    -1.3342456817626953
   ]
  },
  {
   "children": [
    2,
    3,
    4,
    5
   ],
   "name": "Bip01 MJaw",
   "rotation": [
    0.001204645144753158,
    -0.004261418711394072,
    0.7641019821166992,
    0.6450803279876709
   ],
   "scale": [
    1,
    1.0000001192092896,
    1
   ],
   "translation": [
    2.960479974746704,
    1.1160187721252441,
    1.5504854218306718e-06
   ]
  },
  {
   "name": "Bip01 RMasseter",
   "rotation": [
    -0.25819817185401917,
    0.28244930505752563,
    0.6814050078392029,
    0.6238937377929688
   ],
   "scale": [
    1.0000001192092896,
    1,
    1
   ],
   "translation": [
    4.1222734451293945,
    6.9489593505859375,
    -5.147450923919678
   ]
  },
  {
   "name": "Bip01 LMasseter",
   "rotation": [
    0.25820016860961914,
    -0.28245511651039124,
    0.6814025640487671,
    0.6238928437232971
   ],
   "scale": [
    0.9999999403953552,
    1.0000001192092896,
    1
   ],
   "translation": [
    4.122272968292236,
    6.948930740356445,
    5.14749002456665
   ]
  },
  {
   "name": "Bip01 MUpperLip",
   "rotation": [
    -1.4061895114991785e-07,
    -2.7231587864662288e-06,
    0.6758842468261719,
    0.7370077967643738
   ],
   "scale": [
    1.0000001192092896,
    1.0000001192092896,
    1
   ],
   "translation": [
    4.5734663009643555,
    10.648265838623047,
    1.5349669411079958e-05
   ]
  },
  {
   "name": "Bip01 RCaninus",
   "rotation": [
    -0.19061286747455597,
    0.17508263885974884,
    0.6528336405754089,
    0.7119137048721313
   ],
   "scale": [
    0.9999999403953552,
    1,
    1
   ],
   "translation": [
    5.623373508453369,
    9.731717109680176,
    -2.65022873878479
   ]
  },
  {
   "name": "Bip01 LCaninus",
   "rotation": [
    0.19061286747455597,
    -0.17508630454540253,
    0.6528326272964478,
    0.7119137048721313
   ],
   "scale": [
    1.0000001192092896,
    1.0000001192092896,
    1
   ],
   "translation": [
    5.623373031616211,
    9.731701850891113,
    2.650282859802246
   ]
  },
  {
   "name": "Bip01 REyeBlinkBottom",
   "rotation": [
    -0.09612920880317688,
    0.08829662948846817,
    0.6701017022132874,
    0.7307027578353882
   ],
   "scale": [
    1.0000001192092896,
    1.000000238418579,
    1.0000001192092896
   ],
   "translation": [
    9.33716106414795,
    7.8754987716674805,
    -3.06994891166687
   ]
  },
  {
   "name": "Bip01 LEyeBlinkBottom",
   "rotation": [
    0.09612919390201569,
    -0.08830037713050842,
    0.6701012849807739,
    0.730702817440033
   ],
   "translation": [
    9.33716106414795,
    7.875483512878418,
    3.069993734359741
   ]
  },
  {
   "name": "Bip01 RUpperlip",
   "rotation": [
    -0.17031501233577728,
    0.17054717242717743,
    0.6865417957305908,
    0.6859787702560425
   ],
   "scale": [
    1,
    0.9999999403953552,
    1
   ],
   "translation": [
    4.5223822593688965,
    10.515810012817383,
    -1.2830055952072144
   ]
  },
  {
   "name": "Bip01 LUpperlip",
   "rotation": [
    0.1702120453119278,
    -0.17044800519943237,
    0.6865664720535278,
    0.6860042810440063
   ],
   "scale": [
    1,
    0.9999999403953552,
    1.0000001192092896
   ],
   "translation": [
    4.522381782531738,
    10.515802383422852,
    1.2830647230148315
   ]
  },
  {
   "name": "Bip01 RMouthCorner",
   "rotation": [
    -0.15812990069389343,
    0.20154571533203125,
    0.7146279811859131,
    0.6509079337120056
   ],
   "scale": [
    1,
    1,
    1.0000001192092896
   ],
   "translation": [
    3.6743292808532715,
    9.642803192138672,
    -2.4930830001831055
   ]
  },
  {
   "name": "Bip01 LMouthCorner",
   "rotation": [
    0.15813292562961578,
    -0.20155294239521027,
    0.714625895023346,
    0.6509072780609131
   ],
   "scale": [
    1.0000001192092896,
    1,
    1
   ],
   "translation": [
    3.6743295192718506,
    9.642792701721191,
    2.4931366443634033
   ]
  },
  {
   "name": "Bip01 RCheek",
   "rotation": [
    -0.13256320357322693,
    0.1349373161792755,
    0.6999219059944153,
    0.6887149214744568
   ],
   "scale": [
    1,
    0.9999998807907104,
    1
   ],
   "translation": [
    7.627890110015869,
    8.688386917114258,
    -3.723635196685791
   ]
  },
  {
   "name": "Bip01 LCheek",
   "rotation": [
    0.1325690895318985,
    -0.13494713604450226,
    0.6999201774597168,
    0.6887136101722717
   ],
   "scale": [
    1.0000001192092896,
    1,
    1.0000001192092896
   ],
   "translation": [
    7.627889633178711,
    8.688366889953613,
    3.7236826419830322
   ]
  },
  {
   "name": "Bip01 REyeBlinkTop",
   "rotation": [
    -0.10190210491418839,
    0.10861622542142868,
    0.5618585348129272,
    0.8137158155441284
   ],
   "scale": [
    1.0000001192092896,
    1,
    1.0000001192092896
   ],
   "translation": [
    10.681039810180664,
    7.595674514770508,
    -3.002229690551758
   ]
  },
  {
   "name": "Bip01 LEyeBlinkTop",
   "rotation": [
    0.10190213471651077,
    -0.10861937701702118,
    0.5618579387664795,
    0.8137158155441284
   ],
   "scale": [
    1.0000001192092896,
    1.0000001192092896,
    1
   ],
   "translation": [
    10.681039810180664,
    7.595658302307129,
    3.002272367477417
   ]
  },
  {
   "name": "Bip01 RInnerEyebrow",
   "rotation": [
    -0.06418655067682266,
    0.058956753462553024,
    0.6733119487762451,
    0.7342038750648499
   ],
   "translation": [
    11.70481014251709,
    8.518563270568848,
    -2.3771841526031494
   ]
  },
  {
   "name": "Bip01 LInnerEyebrow",
   "rotation": [
    0.06418649852275848,
    -0.05896050110459328,
    0.6733115911483765,
    0.7342038750648499
   ],
   "translation": [
    11.704809188842773,
    8.518548011779785,
    2.3772330284118652
   ]
  },
  {
   "name": "Bip01 MMiddleEyebrow",
   "rotation": [
    -1.2688420092388242e-08,
    -1.8977262925545801e-06,
    0.6769024133682251,
    0.7360727787017822
   ],
   "translation": [
    11.435831069946289,
    9.011614799499512,
    1.292616161663318e-05
   ]
  },
  {
   "name": "Bip01 ROuterEyebrow",
   "rotation": [
    -0.18039089441299438,
    0.18558624386787415,
    0.6560014486312866,
    0.7089985609054565
   ],
   "scale": [
    1.0000001192092896,
    1.0000001192092896,
    1.0000001192092896
   ],
   "translation": [
    11.287384986877441,
    7.463675498962402,
    -4.43400239944458
   ]
  },
  {
   "name": "Bip01 LOuterEyebrow",
   "rotation": [
    0.18039089441299438,
    -0.18558990955352783,
    0.6560004353523254,
    0.7089985609054565
   ],
   "scale": [
    1.0000001192092896,
    1.0000001192092896,
    1
   ],
   "translation": [
    11.287384986877441,
    7.463649749755859,
    4.434043884277344
   ]
  },
  {
   "name": "Bip01 MNose",
   "rotation": [
    -1.34468663759435e-07,
    -2.7377741389500443e-06,
    0.6731289625167847,
    0.7395251393318176
   ],
   "scale": [
    1.0000001192092896,
    1,
    1
   ],
   "translation": [
    7.837324142456055,
    10.973947525024414,
    1.5505642295465805e-05
   ]
  },
  {
   "children": [
    0,
    1,
    6,
    7,
    8,
    9,
    10,
    11,
    12,
    13,
    14,
    15,
    16,
    17,
    18,
    19,
    20,
    21,
    22,
    23,
    24,
    25,
    26,
    27
   ],
   "name": "Bip01 Head",
   "rotation": [
    2.7339492891798045e-09,
    2.1106980341301096e-07,
    -0.07293817400932312,
    0.9973364472389221
   ],
   "scale": [
    0.9999998807907104,
    0.9999997615814209,
    1
   ],
   "translation": [
    6.441671848297119,
    2.1457717593875714e-06,
    -2.605116378617822e-06
   ]
  },
  {
   "name": "Bip01 L Finger02",
   "rotation": [
    2.678921191545669e-07,
    1.4705965156736056e-07,
    0.10685866326093674,
    0.9942741990089417
   ],
   "scale": [
    1.0000001192092896,
    1,
    1.000000238418579
   ],
   "translation": [
    2.7903125286102295,
    8.58306884765625e-06,
    2.002716064453125e-05
   ]
  },
  {
   "children": [
    29
   ],
   "name": "Bip01 L Finger01",
   "rotation": [
    -1.4996622610397026e-07,
    8.248142080446996e-08,
    0.1126522645354271,
    0.9936344623565674
   ],
   "scale": [
    1,
    0.9999999403953552,
    1
   ],
   "translation": [
    2.545046329498291,
    9.5367431640625e-06,
    1.430511474609375e-06
   ]
  },
  {
   "children": [
    30
   ],
   "name": "Bip01 L Finger0",
   "rotation": [
    0.6539401412010193,
    0.36675119400024414,
    -0.03328167647123337,
    0.660869300365448
   ],
   "scale": [
    1,
    1.0000001192092896,
    1
   ],
   "translation": [
    2.408470869064331,
    0.5653908252716064,
    -2.8784260749816895
   ]
  },
  {
   "name": "Bip01 L Finger12",
   "rotation": [
    -3.893794655596139e-07,
    6.893320403378311e-08,
    0.0210917666554451,
    0.9997775554656982
   ],
   "scale": [
    1,
    0.9999998807907104,
    1
   ],
   "translation": [
    2.141112804412842,
    2.3126602172851562e-05,
    -5.7220458984375e-06
   ]
  },
  {
   "children": [
    32
   ],
   "name": "Bip01 L Finger11",
   "rotation": [
    -4.0784212274047604e-07,
    -3.1055873250807053e-07,
    0.09346979856491089,
    0.9956220984458923
   ],
   "scale": [
    0.9999998807907104,
    1.0000001192092896,
    0.9999999403953552
   ],
   "translation": [
    2.816075086593628,
    1.0013580322265625e-05,
    0
   ]
  },
  {
   "children": [
    33
   ],
   "name": "Bip01 L Finger1",
   "rotation": [
    -0.000593736011069268,
    0.004124310798943043,
    0.10714034736156464,
    0.9942351579666138
   ],
   "scale": [
    1,
    0.9999999403953552,
    1
   ],
   "translation": [
    8.495075225830078,
    -0.18353760242462158,
    -2.018197536468506
   ]
  },
  {
   "name": "Bip01 L Finger22",
   "rotation": [
    -3.799076164767712e-09,
    2.4300059067172697e-06,
    0.0904669240117073,
    0.995899498462677
   ],
   "translation": [
    2.5639359951019287,
    -2.9243528842926025e-06,
    7.152557373046875e-07
   ]
  },
  {
   "children": [
    35
   ],
   "name": "Bip01 L Finger21",
   "rotation": [
    1.250165126975844e-07,
    -5.054330358689185e-07,
    0.06659200042486191,
    0.9977803230285645
   ],
   "translation": [
    3.421259880065918,
    1.6391277313232422e-06,
    3.814697265625e-06
   ]
  },
  {
   "children": [
    36
   ],
   "name": "Bip01 L Finger2",
   "rotation": [
    -0.1392011195421219,
    -0.02846589684486389,
    0.14461669325828552,
    0.9792337417602539
   ],
   "scale": [
    0.9999998807907104,
    0.9999998807907104,
    1
   ],
   "translation": [
    8.603349685668945,
    -0.1677941083908081,
    0.13082265853881836
   ]
  },
  {
   "name": "Bip01 L Finger32",
   "rotation": [
    2.1310716746825165e-08,
    -1.3112494912093098e-07,
    0.025095222517848015,
    0.9996850490570068
   ],
   "scale": [
    0.9999999403953552,
    0.9999998807907104,
    1
   ],
   "translation": [
    2.1998136043548584,
    -1.8084421753883362e-05,
    9.059906005859375e-06
   ]
  },
  {
   "children": [
    38
   ],
   "name": "Bip01 L Finger31",
   "rotation": [
    -7.069292706773922e-08,
    -2.237929663806426e-08,
    0.0496060885488987,
    0.9987688660621643
   ],
   "scale": [
    0.9999999403953552,
    0.9999999403953552,
    0.9999999403953552
   ],
   "translation": [
    3.0326685905456543,
    4.708766937255859e-06,
    -1.9073486328125e-06
   ]
  },
  {
   "children": [
    39
   ],
   "name": "Bip01 L Finger3",
   "rotation": [
    -0.14773313701152802,
    -0.019086044281721115,
    0.18398906290531158,
    0.9715753793716431
   ],
   "translation": [
    8.09427261352539,
    0.20427262783050537,
    2.071523666381836
   ]
  },
  {
   "name": "Bip01 L Finger42",
   "rotation": [
    2.809976820117299e-07,
    1.0958094520674422e-07,
    0.024951085448265076,
    0.9996886849403381
   ],
   "scale": [
    0.9999999403953552,
    0.9999998807907104,
    0.9999999403953552
   ],
   "translation": [
    1.3822274208068848,
    -2.0384788513183594e-05,
    -2.384185791015625e-06
   ]
  },
  {
   "children": [
    41
   ],
   "name": "Bip01 L Finger41",
   "rotation": [
    1.748960158920454e-07,
    -1.809510052908081e-07,
    0.021445395424962044,
    0.9997700452804565
   ],
   "scale": [
    1,
    1.0000001192092896,
    1
   ],
   "translation": [
    2.6178855895996094,
    7.033348083496094e-06,
    4.76837158203125e-07
   ]
  },
  {
   "children": [
    42
   ],
   "name": "Bip01 L Finger4",
   "rotation": [
    -0.22423316538333893,
    -0.04356137290596962,
    0.26742023229599,
    0.9361134171485901
   ],
   "scale": [
    0.9999999403953552,
    1.0000001192092896,
    1.0000001192092896
   ],
   "translation": [
    7.221438407897949,
    1.0817025899887085,
    3.5772671699523926
   ]
  },
  {
   "children": [
    31,
    34,
    37,
    40,
    43
   ],
   "name": "Bip01 L Hand",
   "rotation": [
    -0.7147626876831055,
    0.012448652647435665,
    0.03602435439825058,
    0.6983277201652527
   ],
   "scale": [
    0.9999999403953552,
    1,
    1
   ],
   "translation": [
    24.789148330688477,
    1.9550323486328125e-05,
    2.7894973754882812e-05
   ]
  },
  {
   "children": [
    44
   ],
   "name": "Bip01 L Forearm",
   "rotation": [
    1.3442918600503617e-07,
    1.1508133468396409e-07,
    -0.17941726744174957,
    0.9837730526924133
   ],
   "scale": [
    0.9999999403953552,
    1,
    0.9999999403953552
   ],
   "translation": [
    26.150882720947266,
    1.1086463928222656e-05,
    -1.96993350982666e-05
   ]
  },
  {
   "children": [
    45
   ],
   "name": "Bip01 L UpperArm",
   "rotation": [
    0.09000898897647858,
    0.2669895589351654,
    -0.02968420460820198,
    0.9590275287628174
   ],
   "scale": [
    0.9999998807907104,
    0.9999998807907104,
    1
   ],
   "translation": [
    12.42903995513916,
    0.010589122772216797,
    -0.060603223741054535
   ]
  },
  {
   "children": [
    46
   ],
   "name": "Bip01 L Clavicle",
   "rotation": [
    0.6135298013687134,
    -0.11396156251430511,
    0.7713326215744019,
    0.12505987286567688
   ],
   "scale": [
    0.999998927116394,
    0.9999998211860657,
    1
   ],
   "translation": [
    -5.741063594818115,
    0.6556728482246399,
    6.1898627281188965
   ]
  },
  {
   "name": "Bip01 R Finger02",
   "rotation": [
    -2.547785413753445e-07,
    -2.7632231081042846e-07,
    0.10685870796442032,
    0.9942741990089417
   ],
   "scale": [
    1.0000001192092896,
    0.9999999403953552,
    1
   ],
   "translation": [
    2.790304660797119,
    -1.430511474609375e-05,
    4.291534423828125e-06
   ]
  },
  {
   "children": [
    48
   ],
   "name": "Bip01 R Finger01",
   "rotation": [
    1.612136912854112e-07,
    1.059136565118024e-07,
    0.1126517802476883,
    0.9936345219612122
   ],
   "scale": [
    0.9999999403953552,
    0.9999999403953552,
    1
   ],
   "translation": [
    2.5450260639190674,
    9.5367431640625e-07,
    9.5367431640625e-07
   ]
  },
  {
   "children": [
    49
   ],
   "name": "Bip01 R Finger0",
   "rotation": [
    -0.6539404392242432,
    -0.3667508363723755,
    -0.03328121453523636,
    0.6608692407608032
   ],
   "scale": [
    1,
    0.9999998807907104,
    0.9999998807907104
   ],
   "translation": [
    2.408479690551758,
    0.5654077529907227,
    2.8784265518188477
   ]
  },
  {
   "name": "Bip01 R Finger12",
   "rotation": [
    -2.4219776406653182e-08,
    5.775484979153589e-08,
    0.021091513335704803,
    0.999777615070343
   ],
   "scale": [
    0.9999999403953552,
    0.9999999403953552,
    0.9999999403953552
   ],
   "translation": [
    2.141150951385498,
    -4.76837158203125e-07,
    -8.58306884765625e-06
   ]
  },
  {
   "children": [
    51
   ],
   "name": "Bip01 R Finger11",
   "rotation": [
    5.135444780535181e-07,
    3.1242956310961745e-07,
    0.0934700220823288,
    0.9956220984458923
   ],
   "scale": [
    0.9999999403953552,
    0.9999998211860657,
    0.9999999403953552
   ],
   "translation": [
    2.8160622119903564,
    -1.4781951904296875e-05,
    1.9073486328125e-06
   ]
  },
  {
   "children": [
    52
   ],
   "name": "Bip01 R Finger1",
   "rotation": [
    0.000594031997025013,
    -0.0041242376901209354,
    0.1071402058005333,
    0.9942352175712585
   ],
   "scale": [
    0.9999999403953552,
    1,
    1
   ],
   "translation": [
    8.495087623596191,
    -0.18352878093719482,
    2.0181884765625
   ]
  },
  {
   "name": "Bip01 R Finger22",
   "rotation": [
    -2.572266737388418e-07,
    1.1660242194011516e-07,
    0.09046680480241776,
    0.995899498462677
   ],
   "scale": [
    0.9999998211860657,
    1.0000001192092896,
    1
   ],
   "translation": [
    2.563936948776245,
    3.375113010406494e-06,
    -3.337860107421875e-06
   ]
  },
  {
   "children": [
    54
   ],
   "name": "Bip01 R Finger21",
   "rotation": [
    1.3942577936632006e-07,
    1.0010654705183697e-07,
    0.0665917918086052,
    0.9977803230285645
   ],
   "scale": [
    1,
    0.9999998807907104,
    1
   ],
   "translation": [
    3.421269416809082,
    -1.621246337890625e-05,
    -1.9073486328125e-06
   ]
  },
  {
   "children": [
    55
   ],
   "name": "Bip01 R Finger2",
   "rotation": [
    0.13920104503631592,
    0.02846619486808777,
    0.14461684226989746,
    0.9792337417602539
   ],
   "scale": [
    0.9999999403953552,
    0.9999998807907104,
    1
   ],
   "translation": [
    8.603355407714844,
    -0.16777753829956055,
    -0.1308269500732422
   ]
  },
  {
   "name": "Bip01 R Finger32",
   "rotation": [
    3.5750765903230786e-08,
    8.861997002895805e-08,
    0.025095269083976746,
    0.9996850490570068
   ],
   "translation": [
    2.1998074054718018,
    7.424503564834595e-06,
    -9.5367431640625e-07
   ]
  },
  {
   "children": [
    57
   ],
   "name": "Bip01 R Finger31",
   "rotation": [
    1.6871886998615082e-07,
    1.1399452404248223e-07,
    0.04960620030760765,
    0.9987688660621643
   ],
   "scale": [
    0.9999999403953552,
    1.0000001192092896,
    1.0000001192092896
   ],
   "translation": [
    3.0326881408691406,
    -1.5676021575927734e-05,
    2.1457672119140625e-06
   ]
  },
  {
   "children": [
    58
   ],
   "name": "Bip01 R Finger3",
   "rotation": [
    0.14773303270339966,
    0.019086308777332306,
    0.18398885428905487,
    0.9715754389762878
   ],
   "scale": [
    1,
    0.9999999403953552,
    0.9999998211860657
   ],
   "translation": [
    8.094274520874023,
    0.2042710781097412,
    -2.071533203125
   ]
  },
  {
   "name": "Bip01 R Finger42",
   "rotation": [
    -1.8999077155967825e-07,
    -5.176272921403324e-08,
    0.024951200932264328,
    0.9996886849403381
   ],
   "scale": [
    0.9999998211860657,
    0.9999998807907104,
    0.9999999403953552
   ],
   "translation": [
    1.3822247982025146,
    -1.537799835205078e-05,
    -4.76837158203125e-07
   ]
  },
  {
   "children": [
    60
   ],
   "name": "Bip01 R Finger41",
   "rotation": [
    -2.813241053445381e-07,
    -1.194695897765996e-07,
    0.021445367485284805,
    0.9997700452804565
   ],
   "scale": [
    1,
    0.9999999403953552,
    1
   ],
   "translation": [
    2.6179137229919434,
    -9.5367431640625e-06,
    2.384185791015625e-06
   ]
  },
  {
   "children": [
    61
   ],
   "name": "Bip01 R Finger4",
   "rotation": [
    0.22423310577869415,
    0.04356222227215767,
    0.26742011308670044,
    0.9361134171485901
   ],
   "scale": [
    0.9999998211860657,
    0.9999999403953552,
    0.9999999403953552
   ],
   "translation": [
    7.221427917480469,
    1.0817244052886963,
    -3.577268600463867
   ]
  },
  {
   "children": [
    50,
    53,
    56,
    59,
    62
   ],
   "name": "Bip01 R Hand",
   "rotation": [
    0.714762806892395,
    -0.012448683381080627,
    0.036024175584316254,
    0.6983276009559631
   ],
   "scale": [
    1,
    0.9999999403953552,
    0.9999998807907104
   ],
   "translation": [
    24.789154052734375,
    3.147125244140625e-05,
    -6.139278411865234e-05
   ]
  },
  {
   "children": [
    63
   ],
   "name": "Bip01 R Forearm",
   "rotation": [
    -2.0448382542781474e-07,
    -3.5666334952111356e-07,
    -0.179417222738266,
    0.9837730526924133
   ],
   "translation": [
    26.150894165039062,
    2.5987625122070312e-05,
    -1.0758638381958008e-05
   ]
  },
  {
   "children": [
    64
   ],
   "name": "Bip01 R UpperArm",
   "rotation": [
    -0.09000904113054276,
    -0.2669893205165863,
    -0.02968420647084713,
    0.9590275883674622
   ],
   "scale": [
    0.9999999403953552,
    1.0000001192092896,
    1
   ],
   "translation": [
    12.429043769836426,
    0.010592162609100342,
    0.06062540411949158
   ]
  },
  {
   "children": [
    65
   ],
   "name": "Bip01 R Clavicle",
   "rotation": [
    -0.6135293245315552,
    0.113959401845932,
    0.7713330388069153,
    0.1250617504119873
   ],
   "scale": [
    0.9999977350234985,
    0.9999995827674866,
    0.9999999403953552
   ],
   "translation": [
    -5.741062164306641,
    0.655709445476532,
    -6.189854621887207
   ]
  },
  {
   "children": [
    28,
    47,
    66
   ],
   "name": "Bip01 Neck",
   "rotation": [
    1.0528901306372518e-08,
    -3.773309913412959e-07,
    0.16845488548278809,
    0.9857093691825867
   ],
   "scale": [
    0.9999998211860657,
    0.9999998807907104,
    1
   ],
   "translation": [
    18.52017593383789,
    1.4539449214935303,
    -6.735302804372623e-07
   ]
  },
  {
   "children": [
    67
   ],
   "name": "Bip01 Spine2",
   "rotation": [
    1.2371391688859035e-09,
    -1.1736145921759089e-07,
    0.015563380904495716,
    0.9998788833618164
   ],
   "scale": [
    1.0000001192092896,
    1.000000238418579,
    1
   ],
   "translation": [
    14.168779373168945,
    -0.01127481460571289,
    -1.0622761692502536e-07
   ]
  },
  {
   "children": [
    68
   ],
   "name": "Bip01 Spine1",
   "rotation": [
    6.75393851956585e-10,
    -1.6703168626008846e-08,
    -0.01367950439453125,
    0.9999064207077026
   ],
   "scale": [
    0.9999999403953552,
    0.9999999403953552,
    1.0000001192092896
   ],
   "translation": [
    14.168098449707031,
    -0.011278629302978516,
    1.4423253560380545e-06
   ]
  },
  {
   "name": "Bip01 L Toe0",
   "rotation": [
    -6.095881417422788e-07,
    5.813366783513629e-07,
    0.7071067690849304,
    0.7071067690849304
   ],
   "scale": [
    0.9999998807907104,
    1,
    0.9999998807907104
   ],
   "translation": [
    9.044516563415527,
    12.130314826965332,
    -1.9273138605058193e-05
   ]
  },
  {
   "children": [
    70
   ],
   "name": "Bip01 L Foot",
   "rotation": [
    0.014937188476324081,
    -0.0197177454829216,
    0.043912623077631,
    0.9987290501594543
   ],
   "scale": [
    1,
    0.9999998807907104,
    0.9999998807907104
   ],
   "translation": [
    36.693748474121094,
    7.3909759521484375e-06,
    -3.1888484954833984e-06
   ]
  },
  {
   "children": [
    71
   ],
   "name": "Bip01 L Calf",
   "rotation": [
    2.845952451480116e-08,
    -7.184863193288038e-08,
    -0.061679061502218246,
    0.9980961084365845
   ],
   "scale": [
    0.9999999403953552,
    0.9999999403953552,
    0.9999999403953552
   ],
   "translation": [
    36.91077423095703,
    1.1920928955078125e-07,
    -2.980232238769531e-07
   ]
  },
  {
   "children": [
    72
   ],
   "name": "Bip01 L Thigh",
   "rotation": [
    -0.0018707101698964834,
    -0.9900749921798706,
    -0.138014554977417,
    0.026459569111466408
   ],
   "scale": [
    1,
    0.9999999403953552,
    1.0000001192092896
   ],
   "translation": [
    -11.119675636291504,
    -0.3445550799369812,
    8.660111427307129
   ]
  },
  {
   "name": "Bip01 R Toe0",
   "rotation": [
    5.416370072452992e-07,
    -6.63911350784474e-07,
    0.7071066498756409,
    0.70710688829422
   ],
   "scale": [
    1.0000001192092896,
    0.9999999403953552,
    1
   ],
   "translation": [
    9.044513702392578,
    12.130322456359863,
    2.0812498405575752e-05
   ]
  },
  {
   "children": [
    74
   ],
   "name": "Bip01 R Foot",
   "rotation": [
    -0.014937269501388073,
    0.01971806213259697,
    0.04391273111104965,
    0.9987290501594543
   ],
   "scale": [
    1,
    0.9999998807907104,
    1
   ],
   "translation": [
    36.6937370300293,
    7.569789886474609e-06,
    -3.069639205932617e-06
   ]
  },
  {
   "children": [
    75
   ],
   "name": "Bip01 R Calf",
   "rotation": [
    2.4435532708366736e-08,
    -1.0264090377631874e-07,
    -0.06167908012866974,
    0.9980960488319397
   ],
   "scale": [
    0.9999999403953552,
    1,
    1.0000001192092896
   ],
   "translation": [
    36.91078186035156,
    -7.510185241699219e-06,
    -8.046627044677734e-07
   ]
  },
  {
   "children": [
    76
   ],
   "name": "Bip01 R Thigh",
   "rotation": [
    0.001870813430286944,
    0.9900753498077393,
    -0.13801179826259613,
    0.026459699496626854
   ],
   "scale": [
    0.9999999403953552,
    0.9999997615814209,
    1
   ],
   "translation": [
    -11.119673728942871,
    -0.3445093035697937,
    -8.660115242004395
   ]
  },
  {
   "children": [
    69,
    73,
    77
   ],
   "name": "Bip01 Spine",
   "rotation": [
    -2.0949330519215437e-06,
    8.043550110414799e-07,
    -0.02225603722035885,
    0.9997522830963135
   ],
   "scale": [
    1,
    1.0000001192092896,
    1
   ],
   "translation": [
    11.123985290527344,
    -0.15064334869384766,
    -1.619038448552601e-05
   ]
  },
  {
   "children": [
    78
   ],
   "name": "Bip01 Pelvis",
   "rotation": [
    0.7071067690849304,
    0.7071067690849304,
    -1.0115257964571356e-06,
    3.09099092987708e-08
   ],
   "scale": [
    1,
    0.9999998807907104,
    1
   ],
   "translation": [
    -4.121147867408581e-13,
    7.62939453125e-06,
    9.675982438466606e-19
   ]
  },
  {
   "mesh": 0,
   "name": "survivor_female",
   "skin": 0
  },
  {
   "mesh": 1,
   "name": "survivor_female_underwear",
   "skin": 0
  },
  {
   "children": [
    80,
    81,
    79
   ],
   "name": "Bip01",
   "rotation": [
    0,
    -0.7071062922477722,
    0,
    0.7071073651313782
   ],
   "scale": [
    0.009999999776482582,
    0.009999999776482582,
    0.009999999776482582
   ],
   "translation": [
    0,
    0.828000009059906,
    0
   ]
  }
 ],
 "materials": [
  {
   "name": "survivor_female_body",
   "normalTexture": {
    "index": 0
   },
   "occlusionTexture": {
    "index": 1
   },
   "pbrMetallicRoughness": {
    "baseColorTexture": {
     "index": 2
    },
    "metallicRoughnessTexture": {
     "index": 1
    }
   }
  },
  {
   "name": "survivor_female_head",
   "normalTexture": {
    "index": 3
   },
   "occlusionTexture": {
    "index": 4
   },
   "pbrMetallicRoughness": {
    "baseColorTexture": {
     "index": 5
    },
    "metallicRoughnessTexture": {
     "index": 4
    }
   }
  },
  {
   "name": "survivor_female_eye",
   "normalTexture": {
    "index": 6
   },
   "occlusionTexture": {
    "index": 7
   },
   "pbrMetallicRoughness": {
    "baseColorTexture": {
     "index": 8
    },
    "metallicRoughnessTexture": {
     "index": 7
    }
   }
  },
  {
   "alphaMode": "MASK",
   "doubleSided": true,
   "name": "survivor_female_hair",
   "normalTexture": {
    "index": 9
   },
   "occlusionTexture": {
    "index": 10
   },
   "pbrMetallicRoughness": {
    "baseColorTexture": {
     "index": 11
    },
    "metallicRoughnessTexture": {
     "index": 10
    }
   }
  },
  {
   "alphaMode": "MASK",
   "doubleSided": true,
   "name": "survivor_female_lashes",
   "pbrMetallicRoughness": {
    "baseColorTexture": {
     "index": 12
    },
    "metallicFactor": 0,
    "roughnessFactor": 0.6000000238418579
   }
  },
  {
   "name": "survivor_female_underwear",
   "normalTexture": {
    "index": 13
   },
   "occlusionTexture": {
    "index": 14
   },
   "pbrMetallicRoughness": {
    "baseColorTexture": {
     "index": 15
    },
    "metallicRoughnessTexture": {
     "index": 14
    }
   }
  }
 ],
 "meshes": [
  {
   "name": "survivor_female",
   "primitives": [
    {
     "attributes": {
      "POSITION": 0,
      "NORMAL": 1,
      "TEXCOORD_0": 2,
      "TANGENT": 3,
      "JOINTS_0": 4,
      "WEIGHTS_0": 5
     },
     "indices": 6,
     "material": 0
    },
    {
     "attributes": {
      "POSITION": 7,
      "NORMAL": 8,
      "TEXCOORD_0": 9,
      "TANGENT": 10,
      "JOINTS_0": 11,
      "WEIGHTS_0": 12
     },
     "indices": 13,
     "material": 1
    },
    {
     "attributes": {
      "POSITION": 14,
      "NORMAL": 15,
      "TEXCOORD_0": 16,
      "TANGENT": 17,
      "JOINTS_0": 18,
      "WEIGHTS_0": 19
     },
     "indices": 20,
     "material": 2
    },
    {
     "attributes": {
      "POSITION": 21,
      "NORMAL": 22,
      "TEXCOORD_0": 23,
      "TANGENT": 24,
      "JOINTS_0": 25,
      "WEIGHTS_0": 26
     },
     "indices": 27,
     "material": 3
    },
    {
     "attributes": {
      "POSITION": 28,
      "NORMAL": 29,
      "TEXCOORD_0": 30,
      "TANGENT": 31,
      "JOINTS_0": 32,
      "WEIGHTS_0": 33
     },
     "indices": 34,
     "material": 4
    }
   ]
  },
  {
   "name": "20_underwear",
   "primitives": [
    {
     "attributes": {
      "POSITION": 36,
      "NORMAL": 37,
      "TEXCOORD_0": 38,
      "TANGENT": 39,
      "JOINTS_0": 40,
      "WEIGHTS_0": 41
     },
     "indices": 42,
     "material": 5
    }
   ]
  }
 ],
 "textures": [
  {
   "sampler": 0,
   "source": 0
  },
  {
   "sampler": 0,
   "source": 1
  },
  {
   "sampler": 0,
   "source": 2
  },
  {
   "sampler": 0,
   "source": 3
  },
  {
   "sampler": 0,
   "source": 4
  },
  {
   "sampler": 0,
   "source": 5
  },
  {
   "sampler": 0,
   "source": 6
  },
  {
   "sampler": 0,
   "source": 7
  },
  {
   "sampler": 0,
   "source": 8
  },
  {
   "sampler": 0,
   "source": 9
  },
  {
   "sampler": 0,
   "source": 10
  },
  {
   "sampler": 0,
   "source": 11
  },
  {
   "sampler": 0,
   "source": 12
  },
  {
   "sampler": 0,
   "source": 13
  },
  {
   "sampler": 0,
   "source": 14
  },
  {
   "sampler": 0,
   "source": 15
  }
 ],
 "images": [
  {
   "mimeType": "image/png",
   "name": "survivor_female_body_nor_gl",
   "uri": "survivor_female_body_nor_gl.png"
  },
  {
   "mimeType": "image/png",
   "name": "survivor_female_body_orm",
   "uri": "survivor_female_body_orm.png"
  },
  {
   "mimeType": "image/png",
   "name": "survivor_female_body_albedo",
   "uri": "survivor_female_body_albedo.png"
  },
  {
   "mimeType": "image/png",
   "name": "survivor_female_head_nor_gl",
   "uri": "survivor_female_head_nor_gl.png"
  },
  {
   "mimeType": "image/png",
   "name": "survivor_female_head_orm",
   "uri": "survivor_female_head_orm.png"
  },
  {
   "mimeType": "image/png",
   "name": "survivor_female_head_albedo",
   "uri": "survivor_female_head_albedo.png"
  },
  {
   "mimeType": "image/png",
   "name": "survivor_female_eye_nor_gl",
   "uri": "survivor_female_eye_nor_gl.png"
  },
  {
   "mimeType": "image/png",
   "name": "survivor_female_eye_orm",
   "uri": "survivor_female_eye_orm.png"
  },
  {
   "mimeType": "image/png",
   "name": "survivor_female_eye_albedo",
   "uri": "survivor_female_eye_albedo.png"
  },
  {
   "mimeType": "image/png",
   "name": "survivor_female_hair_nor_gl",
   "uri": "survivor_female_hair_nor_gl.png"
  },
  {
   "mimeType": "image/png",
   "name": "survivor_female_hair_orm",
   "uri": "survivor_female_hair_orm.png"
  },
  {
   "mimeType": "image/png",
   "name": "survivor_female_hair_albedo",
   "uri": "survivor_female_hair_albedo.png"
  },
  {
   "mimeType": "image/png",
   "name": "survivor_female_lashes_albedo",
   "uri": "survivor_female_lashes_albedo.png"
  },
  {
   "mimeType": "image/png",
   "name": "survivor_female_underwear_nor_gl",
   "uri": "survivor_female_underwear_nor_gl.png"
  },
  {
   "mimeType": "image/png",
   "name": "survivor_female_underwear_orm",
   "uri": "survivor_female_underwear_orm.png"
  },
  {
   "mimeType": "image/png",
   "name": "survivor_female_underwear_albedo",
   "uri": "survivor_female_underwear_albedo.png"
  }
 ],
 "skins": [
  {
   "inverseBindMatrices": 35,
   "joints": [
    79,
    78,
    69,
    68,
    67,
    28,
    0,
    1,
    6,
    2,
    3,
    4,
    5,
    7,
    8,
    9,
    10,
    11,
    12,
    13,
    14,
    15,
    16,
    17,
    18,
    19,
    20,
    21,
    22,
    23,
    24,
    25,
    26,
    27,
    47,
    46,
    45,
    44,
    31,
    30,
    29,
    34,
    33,
    32,
    37,
    36,
    35,
    40,
    39,
    38,
    43,
    42,
    41,
    66,
    65,
    64,
    63,
    50,
    49,
    48,
    53,
    52,
    51,
    56,
    55,
    54,
    59,
    58,
    57,
    62,
    61,
    60,
    73,
    72,
    71,
    70,
    77,
    76,
    75,
    74
   ],
   "name": "Bip01"
  }
 ],
 "accessors": [
  {
   "bufferView": 0,
   "componentType": 5126,
   "count": 26275,
   "max": [
    0.6037859320640564,
    1.4748384952545166,
    0.16630864143371582
   ],
   "min": [
    -0.6037940979003906,
    -0.0013289527269080281,
    -0.11624947190284729
   ],
   "type": "VEC3"
  },
  {
   "bufferView": 1,
   "componentType": 5126,
   "count": 26275,
   "type": "VEC3"
  },
  {
   "bufferView": 2,
   "componentType": 5126,
   "count": 26275,
   "type": "VEC2"
  },
  {
   "bufferView": 3,
   "componentType": 5126,
   "count": 26275,
   "type": "VEC4"
  },
  {
   "bufferView": 4,
   "componentType": 5121,
   "count": 26275,
   "type": "VEC4"
  },
  {
   "bufferView": 5,
   "componentType": 5126,
   "count": 26275,
   "type": "VEC4"
  },
  {
   "bufferView": 6,
   "componentType": 5123,
   "count": 146298,
   "type": "SCALAR"
  },
  {
   "bufferView": 7,
   "componentType": 5126,
   "count": 8349,
   "max": [
    0.08225946873426437,
    1.654078483581543,
    0.1328066736459732
   ],
   "min": [
    -0.08220136910676956,
    1.4142603874206543,
    -0.07040651142597198
   ],
   "type": "VEC3"
  },
  {
   "bufferView": 8,
   "componentType": 5126,
   "count": 8349,
   "type": "VEC3"
  },
  {
   "bufferView": 9,
   "componentType": 5126,
   "count": 8349,
   "type": "VEC2"
  },
  {
   "bufferView": 10,
   "componentType": 5126,
   "count": 8349,
   "type": "VEC4"
  },
  {
   "bufferView": 11,
   "componentType": 5121,
   "count": 8349,
   "type": "VEC4"
  },
  {
   "bufferView": 12,
   "componentType": 5126,
   "count": 8349,
   "type": "VEC4"
  },
  {
   "bufferView": 13,
   "componentType": 5123,
   "count": 48276,
   "type": "SCALAR"
  },
  {
   "bufferView": 14,
   "componentType": 5126,
   "count": 1130,
   "max": [
    0.044994235038757324,
    1.574605941772461,
    0.10221042484045029
   ],
   "min": [
    -0.044994305819272995,
    1.542217493057251,
    0.07769052684307098
   ],
   "type": "VEC3"
  },
  {
   "bufferView": 15,
   "componentType": 5126,
   "count": 1130,
   "type": "VEC3"
  },
  {
   "bufferView": 16,
   "componentType": 5126,
   "count": 1130,
   "type": "VEC2"
  },
  {
   "bufferView": 17,
   "componentType": 5126,
   "count": 1130,
   "type": "VEC4"
  },
  {
   "bufferView": 18,
   "componentType": 5121,
   "count": 1130,
   "type": "VEC4"
  },
  {
   "bufferView": 19,
   "componentType": 5126,
   "count": 1130,
   "type": "VEC4"
  },
  {
   "bufferView": 20,
   "componentType": 5123,
   "count": 6552,
   "type": "SCALAR"
  },
  {
   "bufferView": 21,
   "componentType": 5126,
   "count": 18578,
   "max": [
    0.08898181468248367,
    1.6613173484802246,
    0.11016836017370224
   ],
   "min": [
    -0.08685491234064102,
    1.41481614112854,
    -0.10097689181566238
   ],
   "type": "VEC3"
  },
  {
   "bufferView": 22,
   "componentType": 5126,
   "count": 18578,
   "type": "VEC3"
  },
  {
   "bufferView": 23,
   "componentType": 5126,
   "count": 18578,
   "type": "VEC2"
  },
  {
   "bufferView": 24,
   "componentType": 5126,
   "count": 18578,
   "type": "VEC4"
  },
  {
   "bufferView": 25,
   "componentType": 5121,
   "count": 18578,
   "type": "VEC4"
  },
  {
   "bufferView": 26,
   "componentType": 5126,
   "count": 18578,
   "type": "VEC4"
  },
  {
   "bufferView": 27,
   "componentType": 5123,
   "count": 52692,
   "type": "SCALAR"
  },
  {
   "bufferView": 28,
   "componentType": 5126,
   "count": 374,
   "max": [
    0.048719022423028946,
    1.5832661390304565,
    0.11357934772968292
   ],
   "min": [
    -0.04905608296394348,
    1.5482836961746216,
    0.08930802345275879
   ],
   "type": "VEC3"
  },
  {
   "bufferView": 29,
   "componentType": 5126,
   "count": 374,
   "type": "VEC3"
  },
  {
   "bufferView": 30,
   "componentType": 5126,
   "count": 374,
   "type": "VEC2"
  },
  {
   "bufferView": 31,
   "componentType": 5126,
   "count": 374,
   "type": "VEC4"
  },
  {
   "bufferView": 32,
   "componentType": 5121,
   "count": 374,
   "type": "VEC4"
  },
  {
   "bufferView": 33,
   "componentType": 5126,
   "count": 374,
   "type": "VEC4"
  },
  {
   "bufferView": 34,
   "componentType": 5123,
   "count": 888,
   "type": "SCALAR"
  },
  {
   "bufferView": 35,
   "componentType": 5126,
   "count": 80,
   "type": "MAT4"
  },
  {
   "bufferView": 36,
   "componentType": 5126,
   "count": 9137,
   "max": [
    0.1840277910232544,
    1.4396469593048096,
    0.13738249242305756
   ],
   "min": [
    -0.18406634032726288,
    0.5978559851646423,
    -0.12108850479125977
   ],
   "type": "VEC3"
  },
  {
   "bufferView": 37,
   "componentType": 5126,
   "count": 9137,
   "type": "VEC3"
  },
  {
   "bufferView": 38,
   "componentType": 5126,
   "count": 9137,
   "type": "VEC2"
  },
  {
   "bufferView": 39,
   "componentType": 5126,
   "count": 9137,
   "type": "VEC4"
  },
  {
   "bufferView": 40,
   "componentType": 5121,
   "count": 9137,
   "type": "VEC4"
  },
  {
   "bufferView": 41,
   "componentType": 5126,
   "count": 9137,
   "type": "VEC4"
  },
  {
   "bufferView": 42,
   "componentType": 5123,
   "count": 48855,
   "type": "SCALAR"
  }
 ],
 "bufferViews": [
  {
   "buffer": 0,
   "byteLength": 315300,
   "byteOffset": 0,
   "target": 34962
  },
  {
   "buffer": 0,
   "byteLength": 315300,
   "byteOffset": 315300,
   "target": 34962
  },
  {
   "buffer": 0,
   "byteLength": 210200,
   "byteOffset": 630600,
   "target": 34962
  },
  {
   "buffer": 0,
   "byteLength": 420400,
   "byteOffset": 840800,
   "target": 34962
  },
  {
   "buffer": 0,
   "byteLength": 105100,
   "byteOffset": 1261200,
   "target": 34962
  },
  {
   "buffer": 0,
   "byteLength": 420400,
   "byteOffset": 1366300,
   "target": 34962
  },
  {
   "buffer": 0,
   "byteLength": 292596,
   "byteOffset": 1786700,
   "target": 34963
  },
  {
   "buffer": 0,
   "byteLength": 100188,
   "byteOffset": 2079296,
   "target": 34962
  },
  {
   "buffer": 0,
   "byteLength": 100188,
   "byteOffset": 2179484,
   "target": 34962
  },
  {
   "buffer": 0,
   "byteLength": 66792,
   "byteOffset": 2279672,
   "target": 34962
  },
  {
   "buffer": 0,
   "byteLength": 133584,
   "byteOffset": 2346464,
   "target": 34962
  },
  {
   "buffer": 0,
   "byteLength": 33396,
   "byteOffset": 2480048,
   "target": 34962
  },
  {
   "buffer": 0,
   "byteLength": 133584,
   "byteOffset": 2513444,
   "target": 34962
  },
  {
   "buffer": 0,
   "byteLength": 96552,
   "byteOffset": 2647028,
   "target": 34963
  },
  {
   "buffer": 0,
   "byteLength": 13560,
   "byteOffset": 2743580,
   "target": 34962
  },
  {
   "buffer": 0,
   "byteLength": 13560,
   "byteOffset": 2757140,
   "target": 34962
  },
  {
   "buffer": 0,
   "byteLength": 9040,
   "byteOffset": 2770700,
   "target": 34962
  },
  {
   "buffer": 0,
   "byteLength": 18080,
   "byteOffset": 2779740,
   "target": 34962
  },
  {
   "buffer": 0,
   "byteLength": 4520,
   "byteOffset": 2797820,
   "target": 34962
  },
  {
   "buffer": 0,
   "byteLength": 18080,
   "byteOffset": 2802340,
   "target": 34962
  },
  {
   "buffer": 0,
   "byteLength": 13104,
   "byteOffset": 2820420,
   "target": 34963
  },
  {
   "buffer": 0,
   "byteLength": 222936,
   "byteOffset": 2833524,
   "target": 34962
  },
  {
   "buffer": 0,
   "byteLength": 222936,
   "byteOffset": 3056460,
   "target": 34962
  },
  {
   "buffer": 0,
   "byteLength": 148624,
   "byteOffset": 3279396,
   "target": 34962
  },
  {
   "buffer": 0,
   "byteLength": 297248,
   "byteOffset": 3428020,
   "target": 34962
  },
  {
   "buffer": 0,
   "byteLength": 74312,
   "byteOffset": 3725268,
   "target": 34962
  },
  {
   "buffer": 0,
   "byteLength": 297248,
   "byteOffset": 3799580,
   "target": 34962
  },
  {
   "buffer": 0,
   "byteLength": 105384,
   "byteOffset": 4096828,
   "target": 34963
  },
  {
   "buffer": 0,
   "byteLength": 4488,
   "byteOffset": 4202212,
   "target": 34962
  },
  {
   "buffer": 0,
   "byteLength": 4488,
   "byteOffset": 4206700,
   "target": 34962
  },
  {
   "buffer": 0,
   "byteLength": 2992,
   "byteOffset": 4211188,
   "target": 34962
  },
  {
   "buffer": 0,
   "byteLength": 5984,
   "byteOffset": 4214180,
   "target": 34962
  },
  {
   "buffer": 0,
   "byteLength": 1496,
   "byteOffset": 4220164,
   "target": 34962
  },
  {
   "buffer": 0,
   "byteLength": 5984,
   "byteOffset": 4221660,
   "target": 34962
  },
  {
   "buffer": 0,
   "byteLength": 1776,
   "byteOffset": 4227644,
   "target": 34963
  },
  {
   "buffer": 0,
   "byteLength": 5120,
   "byteOffset": 4229420
  },
  {
   "buffer": 0,
   "byteLength": 109644,
   "byteOffset": 4234540,
   "target": 34962
  },
  {
   "buffer": 0,
   "byteLength": 109644,
   "byteOffset": 4344184,
   "target": 34962
  },
  {
   "buffer": 0,
   "byteLength": 73096,
   "byteOffset": 4453828,
   "target": 34962
  },
  {
   "buffer": 0,
   "byteLength": 146192,
   "byteOffset": 4526924,
   "target": 34962
  },
  {
   "buffer": 0,
   "byteLength": 36548,
   "byteOffset": 4673116,
   "target": 34962
  },
  {
   "buffer": 0,
   "byteLength": 146192,
   "byteOffset": 4709664,
   "target": 34962
  },
  {
   "buffer": 0,
   "byteLength": 97710,
   "byteOffset": 4855856,
   "target": 34963
  }
 ],
 "samplers": [
  {
   "magFilter": 9729,
   "minFilter": 9987
  }
 ],
 "buffers": [
  {
   "byteLength": 4953566,
   "uri": "survivor_female.bin"
  }
 ]
}