{
 "asset": {
  "generator": "Khronos glTF Blender I/O v4.5.51",
  "version": "2.0"
 },
 "scene": 0,
 "scenes": [
  {
   "name": "Scene",
   "nodes": [
    0,
    1,
    2,
    3,
    4,
    5,
    6,
    7,
    8,
    9,
    10,
    11,
    12,
    13,
    14,
    15,
    16,
    17,
    18,
    19,
    20,
    21,
    22
   ]
  }
 ],
 "nodes": [
  {
   "mesh": 0,
   "name": "frame"
  },
  {
   "mesh": 1,
   "name": "detail"
  },
  {
   "mesh": 2,
   "name": "deck"
  },
  {
   "mesh": 3,
   "name": "load"
  },
  {
   "mesh": 4,
   "name": "col_metal_end_1"
  },
  {
   "mesh": 5,
   "name": "col_metal_neck_1"
  },
  {
   "mesh": 6,
   "name": "col_metal_step_1"
  },
  {
   "mesh": 7,
   "name": "col_metal_step_2"
  },
  {
   "mesh": 8,
   "name": "col_metal_step_3"
  },
  {
   "mesh": 9,
   "name": "col_metal_step_4"
  },
  {
   "mesh": 10,
   "name": "col_metal_step_5"
  },
  {
   "mesh": 11,
   "name": "col_metal_step_6"
  },
  {
   "mesh": 12,
   "name": "col_metal_end_2"
  },
  {
   "mesh": 13,
   "name": "col_metal_neck_2"
  },
  {
   "mesh": 14,
   "name": "col_metal_step_7"
  },
  {
   "mesh": 15,
   "name": "col_metal_step_8"
  },
  {
   "mesh": 16,
   "name": "col_metal_step_9"
  },
  {
   "mesh": 17,
   "name": "col_metal_step_10"
  },
  {
   "mesh": 18,
   "name": "col_metal_step_11"
  },
  {
   "mesh": 19,
   "name": "col_metal_step_12"
  },
  {
   "mesh": 20,
   "name": "col_wood_deck_1"
  },
  {
   "mesh": 21,
   "name": "col_metal_rails_1"
  },
  {
   "mesh": 22,
   "name": "col_wood_sleepers_1"
  }
 ],
 "materials": [
  {
   "name": "loco_black",
   "normalTexture": {
    "index": 0
   },
   "occlusionTexture": {
    "index": 1
   },
   "pbrMetallicRoughness": {
    "baseColorTexture": {
     "index": 2
    },
    "metallicRoughnessTexture": {
     "index": 1
    }
   }
  },
  {
   "name": "rust_iron",
   "normalTexture": {
    "index": 3
   },
   "occlusionTexture": {
    "index": 4
   },
   "pbrMetallicRoughness": {
    "baseColorTexture": {
     "index": 5
    },
    "metallicRoughnessTexture": {
     "index": 4
    }
   }
  },
  {
   "name": "chequer_plate",
   "normalTexture": {
    "index": 6
   },
   "occlusionTexture": {
    "index": 7
   },
   "pbrMetallicRoughness": {
    "baseColorTexture": {
     "index": 8
    },
    "metallicRoughnessTexture": {
     "index": 7
    }
   }
  },
  {
   "name": "rail_signs",
   "normalTexture": {
    "index": 9
   },
   "occlusionTexture": {
    "index": 10
   },
   "pbrMetallicRoughness": {
    "baseColorTexture": {
     "index": 11
    },
    "metallicRoughnessTexture": {
     "index": 10
    }
   }
  },
  {
   "name": "timber_planks_weathered",
   "normalTexture": {
    "index": 12
   },
   "occlusionTexture": {
    "index": 13
   },
   "pbrMetallicRoughness": {
    "baseColorTexture": {
     "index": 14
    },
    "metallicRoughnessTexture": {
     "index": 13
    }
   }
  },
  {
   "name": "timber_beam",
   "normalTexture": {
    "index": 15
   },
   "occlusionTexture": {
    "index": 16
   },
   "pbrMetallicRoughness": {
    "baseColorTexture": {
     "index": 17
    },
    "metallicRoughnessTexture": {
     "index": 16
    }
   }
  },
  {
   "name": "rail_steel",
   "normalTexture": {
    "index": 18
   },
   "occlusionTexture": {
    "index": 19
   },
   "pbrMetallicRoughness": {
    "baseColorTexture": {
     "index": 20
    },
    "metallicRoughnessTexture": {
     "index": 19
    }
   }
  },
  {
   "name": "sleeper_timber",
   "normalTexture": {
    "index": 21
   },
   "occlusionTexture": {
    "index": 22
   },
   "pbrMetallicRoughness": {
    "baseColorTexture": {
     "index": 23
    },
    "metallicRoughnessTexture": {
     "index": 22
    }
   }
  }
 ],
 "meshes": [
  {
   "name": "frame",
   "primitives": [
    {
     "attributes": {
      "POSITION": 0,
      "NORMAL": 1,
      "TEXCOORD_0": 2
     },
     "indices": 3,
     "material": 0
    },
    {
     "attributes": {
      "POSITION": 4,
      "NORMAL": 5,
      "TEXCOORD_0": 6
     },
     "indices": 7,
     "material": 1
    },
    {
     "attributes": {
      "POSITION": 8,
      "NORMAL": 9,
      "TEXCOORD_0": 10
     },
     "indices": 11,
     "material": 2
    }
   ]
  },
  {
   "name": "detail",
   "primitives": [
    {
     "attributes": {
      "POSITION": 12,
      "NORMAL": 13,
      "TEXCOORD_0": 14
     },
     "indices": 15,
     "material": 0
    },
    {
     "attributes": {
      "POSITION": 16,
      "NORMAL": 17,
      "TEXCOORD_0": 18
     },
     "indices": 19,
     "material": 1
    },
    {
     "attributes": {
      "POSITION": 20,
      "NORMAL": 21,
      "TEXCOORD_0": 22
     },
     "indices": 23,
     "material": 3
    }
   ]
  },
  {
   "name": "deck",
   "primitives": [
    {
     "attributes": {
      "POSITION": 24,
      "NORMAL": 25,
      "TEXCOORD_0": 26
     },
     "indices": 27,
     "material": 4
    },
    {
     "attributes": {
      "POSITION": 28,
      "NORMAL": 29,
      "TEXCOORD_0": 30
     },
     "indices": 31,
     "material": 5
    }
   ]
  },
  {
   "name": "load",
   "primitives": [
    {
     "attributes": {
      "POSITION": 32,
      "NORMAL": 33,
      "TEXCOORD_0": 34
     },
     "indices": 35,
     "material": 5
    },
    {
     "attributes": {
      "POSITION": 36,
      "NORMAL": 37,
      "TEXCOORD_0": 38
     },
     "indices": 39,
     "material": 6
    },
    {
     "attributes": {
      "POSITION": 40,
      "NORMAL": 41,
      "TEXCOORD_0": 42
     },
     "indices": 43,
     "material": 1
    },
    {
     "attributes": {
      "POSITION": 44,
      "NORMAL": 45,
      "TEXCOORD_0": 46
     },
     "indices": 47,
     "material": 7
    }
   ]
  },
  {
   "name": "col_metal_end_1",
   "primitives": [
    {
     "attributes": {
      "POSITION": 48,
      "NORMAL": 49,
      "TEXCOORD_0": 50
     },
     "indices": 51,
     "material": 0
    }
   ]
  },
  {
   "name": "col_metal_neck_1",
   "primitives": [
    {
     "attributes": {
      "POSITION": 52,
      "NORMAL": 53,
      "TEXCOORD_0": 54
     },
     "indices": 51,
     "material": 0
    }
   ]
  },
  {
   "name": "col_metal_step_1",
   "primitives": [
    {
     "attributes": {
      "POSITION": 55,
      "NORMAL": 56,
      "TEXCOORD_0": 57
     },
     "indices": 51,
     "material": 0
    }
   ]
  },
  {
   "name": "col_metal_step_2",
   "primitives": [
    {
     "attributes": {
      "POSITION": 58,
      "NORMAL": 59,
      "TEXCOORD_0": 60
     },
     "indices": 51,
     "material": 0
    }
   ]
  },
  {
   "name": "col_metal_step_3",
   "primitives": [
    {
     "attributes": {
      "POSITION": 61,
      "NORMAL": 62,
      "TEXCOORD_0": 63
     },
     "indices": 51,
     "material": 0
    }
   ]
  },
  {
   "name": "col_metal_step_4",
   "primitives": [
    {
     "attributes": {
      "POSITION": 64,
      "NORMAL": 65,
      "TEXCOORD_0": 66
     },
     "indices": 51,
     "material": 0
    }
   ]
  },
  {
   "name": "col_metal_step_5",
   "primitives": [
    {
     "attributes": {
      "POSITION": 67,
      "NORMAL": 68,
      "TEXCOORD_0": 69
     },
     "indices": 51,
     "material": 0
    }
   ]
  },
  {
   "name": "col_metal_step_6",
   "primitives": [
    {
     "attributes": {
      "POSITION": 70,
      "NORMAL": 71,
      "TEXCOORD_0": 72
     },
     "indices": 51,
     "material": 0
    }
   ]
  },
  {
   "name": "col_metal_end_2",
   "primitives": [
    {
     "attributes": {
      "POSITION": 73,
      "NORMAL": 74,
      "TEXCOORD_0": 75
     },
     "indices": 51,
     "material": 0
    }
   ]
  },
  {
   "name": "col_metal_neck_2",
   "primitives": [
    {
     "attributes": {
      "POSITION": 76,
      "NORMAL": 77,
      "TEXCOORD_0": 78
     },
     "indices": 51,
     "material": 0
    }
   ]
  },
  {
   "name": "col_metal_step_7",
   "primitives": [
    {
     "attributes": {
      "POSITION": 79,
      "NORMAL": 80,
      "TEXCOORD_0": 81
     },
     "indices": 51,
     "material": 0
    }
   ]
  },
  {
   "name": "col_metal_step_8",
   "primitives": [
    {
     "attributes": {
      "POSITION": 82,
      "NORMAL": 83,
      "TEXCOORD_0": 84
     },
     "indices": 51,
     "material": 0
    }
   ]
  },
  {
   "name": "col_metal_step_9",
   "primitives": [
    {
     "attributes": {
      "POSITION": 85,
      "NORMAL": 86,
      "TEXCOORD_0": 87
     },
     "indices": 51,
     "material": 0
    }
   ]
  },
  {
   "name": "col_metal_step_10",
   "primitives": [
    {
     "attributes": {
      "POSITION": 88,
      "NORMAL": 89,
      "TEXCOORD_0": 90
     },
     "indices": 51,
     "material": 0
    }
   ]
  },
  {
   "name": "col_metal_step_11",
   "primitives": [
    {
     "attributes": {
      "POSITION": 91,
      "NORMAL": 92,
      "TEXCOORD_0": 93
     },
     "indices": 51,
     "material": 0
    }
   ]
  },
  {
   "name": "col_metal_step_12",
   "primitives": [
    {
     "attributes": {
      "POSITION": 94,
      "NORMAL": 95,
      "TEXCOORD_0": 96
     },
     "indices": 51,
     "material": 0
    }
   ]
  },
  {
   "name": "col_wood_deck_1",
   "primitives": [
    {
     "attributes": {
      "POSITION": 97,
      "NORMAL": 98,
      "TEXCOORD_0": 99
     },
     "indices": 51,
     "material": 0
    }
   ]
  },
  {
   "name": "col_metal_rails_1",
   "primitives": [
    {
     "attributes": {
      "POSITION": 100,
      "NORMAL": 101,
      "TEXCOORD_0": 102
     },
     "indices": 51,
     "material": 0
    }
   ]
  },
  {
   "name": "col_wood_sleepers_1",
   "primitives": [
    {
     "attributes": {
      "POSITION": 103,
      "NORMAL": 104,
      "TEXCOORD_0": 105
     },
     "indices": 51,
     "material": 0
    }
   ]
  }
 ],
 "textures": [
  {
   "sampler": 0,
   "source": 0
  },
  {
   "sampler": 0,
   "source": 1
  },
  {
   "sampler": 0,
   "source": 2
  },
  {
   "sampler": 0,
   "source": 3
  },
  {
   "sampler": 0,
   "source": 4
  },
  {
   "sampler": 0,
   "source": 5
  },
  {
   "sampler": 0,
   "source": 6
  },
  {
   "sampler": 0,
   "source": 7
  },
  {
   "sampler": 0,
   "source": 8
  },
  {
   "sampler": 0,
   "source": 9
  },
  {
   "sampler": 0,
   "source": 10
  },
  {
   "sampler": 0,
   "source": 11
  },
  {
   "sampler": 0,
   "source": 12
  },
  {
   "sampler": 0,
   "source": 13
  },
  {
   "sampler": 0,
   "source": 14
  },
  {
   "sampler": 0,
   "source": 15
  },
  {
   "sampler": 0,
   "source": 16
  },
  {
   "sampler": 0,
   "source": 17
  },
  {
   "sampler": 0,
   "source": 18
  },
  {
   "sampler": 0,
   "source": 19
  },
  {
   "sampler": 0,
   "source": 20
  },
  {
   "sampler": 0,
   "source": 21
  },
  {
   "sampler": 0,
   "source": 22
  },
  {
   "sampler": 0,
   "source": 23
  }
 ],
 "images": [
  {
   "mimeType": "image/png",
   "name": "loco_black_normal.png",
   "uri": "../_library/loco_black_normal.png"
  },
  {
   "mimeType": "image/png",
   "name": "loco_black_orm.png",
   "uri": "../_library/loco_black_orm.png"
  },
  {
   "mimeType": "image/png",
   "name": "loco_black_albedo.png",
   "uri": "../_library/loco_black_albedo.png"
  },
  {
   "mimeType": "image/png",
   "name": "rust_iron_normal.png",
   "uri": "../_library/rust_iron_normal.png"
  },
  {
   "mimeType": "image/png",
   "name": "rust_iron_orm.png",
   "uri": "../_library/rust_iron_orm.png"
  },
  {
   "mimeType": "image/png",
   "name": "rust_iron_albedo.png",
   "uri": "../_library/rust_iron_albedo.png"
  },
  {
   "mimeType": "image/png",
   "name": "chequer_plate_normal.png",
   "uri": "../_library/chequer_plate_normal.png"
  },
  {
   "mimeType": "image/png",
   "name": "chequer_plate_orm.png",
   "uri": "../_library/chequer_plate_orm.png"
  },
  {
   "mimeType": "image/png",
   "name": "chequer_plate_albedo.png",
   "uri": "../_library/chequer_plate_albedo.png"
  },
  {
   "mimeType": "image/png",
   "name": "rail_signs_normal.png",
   "uri": "../_library/rail_signs_normal.png"
  },
  {
   "mimeType": "image/png",
   "name": "rail_signs_orm.png",
   "uri": "../_library/rail_signs_orm.png"
  },
  {
   "mimeType": "image/png",
   "name": "rail_signs_albedo.png",
   "uri": "../_library/rail_signs_albedo.png"
  },
  {
   "mimeType": "image/png",
   "name": "timber_planks_weathered_normal.png",
   "uri": "../_library/timber_planks_weathered_normal.png"
  },
  {
   "mimeType": "image/png",
   "name": "timber_planks_weathered_orm.png",
   "uri": "../_library/timber_planks_weathered_orm.png"
  },
  {
   "mimeType": "image/png",
   "name": "timber_planks_weathered_albedo.png",
   "uri": "../_library/timber_planks_weathered_albedo.png"
  },
  {
   "mimeType": "image/png",
   "name": "timber_beam_normal.png",
   "uri": "../_library/timber_beam_normal.png"
  },
  {
   "mimeType": "image/png",
   "name": "timber_beam_orm.png",
   "uri": "../_library/timber_beam_orm.png"
  },
  {
   "mimeType": "image/png",
   "name": "timber_beam_albedo.png",
   "uri": "../_library/timber_beam_albedo.png"
  },
  {
   "mimeType": "image/png",
   "name": "rail_steel_normal.png",
   "uri": "../_library/rail_steel_normal.png"
  },
  {
   "mimeType": "image/png",
   "name": "rail_steel_orm.png",
   "uri": "../_library/rail_steel_orm.png"
  },
  {
   "mimeType": "image/png",
   "name": "rail_steel_albedo.png",
   "uri": "../_library/rail_steel_albedo.png"
  },
  {
   "mimeType": "image/png",
   "name": "sleeper_timber_normal.png",
   "uri": "../_library/sleeper_timber_normal.png"
  },
  {
   "mimeType": "image/png",
   "name": "sleeper_timber_orm.png",
   "uri": "../_library/sleeper_timber_orm.png"
  },
  {
   "mimeType": "image/png",
   "name": "sleeper_timber_albedo.png",
   "uri": "../_library/sleeper_timber_albedo.png"
  }
 ],
 "accessors": [
  {
   "bufferView": 0,
   "componentType": 5126,
   "count": 3704,
   "max": [
    1.399999976158142,
    1.3599998950958252,
    3.440000057220459
   ],
   "min": [
    -1.399999976158142,
    0.07999999821186066,
    -3.440000057220459
   ],
   "type": "VEC3"
  },
  {
   "bufferView": 1,
   "componentType": 5126,
   "count": 3704,
   "type": "VEC3"
  },
  {
   "bufferView": 2,
   "componentType": 5126,
   "count": 3704,
   "type": "VEC2"
  },
  {
   "bufferView": 3,
   "componentType": 5123,
   "count": 7284,
   "type": "SCALAR"
  },
  {
   "bufferView": 4,
   "componentType": 5126,
   "count": 2480,
   "max": [
    1.1129999160766602,
    0.7409999370574951,
    1.9859999418258667
   ],
   "min": [
    -1.1129999160766602,
    0.4049999713897705,
    -1.9859999418258667
   ],
   "type": "VEC3"
  },
  {
   "bufferView": 5,
   "componentType": 5126,
   "count": 2480,
   "type": "VEC3"
  },
  {
   "bufferView": 6,
   "componentType": 5126,
   "count": 2480,
   "type": "VEC2"
  },
  {
   "bufferView": 7,
   "componentType": 5123,
   "count": 5556,
   "type": "SCALAR"
  },
  {
   "bufferView": 8,
   "componentType": 5126,
   "count": 64,
   "max": [
    1.3799999952316284,
    1.2699999809265137,
    3.440000057220459
   ],
   "min": [
    -1.3799999952316284,
    0.18000000715255737,
    -3.440000057220459
   ],
   "type": "VEC3"
  },
  {
   "bufferView": 9,
   "componentType": 5126,
   "count": 64,
   "type": "VEC3"
  },
  {
   "bufferView": 10,
   "componentType": 5126,
   "count": 64,
   "type": "VEC2"
  },
  {
   "bufferView": 11,
   "componentType": 5123,
   "count": 96,
   "type": "SCALAR"
  },
  {
   "bufferView": 12,
   "componentType": 5126,
   "count": 8204,
   "max": [
    1.350000023841858,
    2.25600004196167,
    3.408693313598633
   ],
   "min": [
    -1.350000023841858,
    0.11937481164932251,
    -3.408693313598633
   ],
   "type": "VEC3"
  },
  {
   "bufferView": 13,
   "componentType": 5126,
   "count": 8204,
   "type": "VEC3"
  },
  {
   "bufferView": 14,
   "componentType": 5126,
   "count": 8204,
   "type": "VEC2"
  },
  {
   "bufferView": 15,
   "componentType": 5123,
   "count": 16080,
   "type": "SCALAR"
  },
  {
   "bufferView": 16,
   "componentType": 5126,
   "count": 11164,
   "max": [
    1.3488199710845947,
    2.1511077880859375,
    3.5
   ],
   "min": [
    -1.3579210042953491,
    0.18000000715255737,
    -3.5
   ],
   "type": "VEC3"
  },
  {
   "bufferView": 17,
   "componentType": 5126,
   "count": 11164,
   "type": "VEC3"
  },
  {
   "bufferView": 18,
   "componentType": 5126,
   "count": 11164,
   "type": "VEC2"
  },
  {
   "bufferView": 19,
   "componentType": 5123,
   "count": 21984,
   "type": "SCALAR"
  },
  {
   "bufferView": 20,
   "componentType": 5126,
   "count": 8,
   "max": [
    0.9520000219345093,
    1.1124999523162842,
    0.75
   ],
   "min": [
    -0.9520000219345093,
    1.0074999332427979,
    -0.75
   ],
   "type": "VEC3"
  },
  {
   "bufferView": 21,
   "componentType": 5126,
   "count": 8,
   "type": "VEC3"
  },
  {
   "bufferView": 22,
   "componentType": 5126,
   "count": 8,
   "type": "VEC2"
  },
  {
   "bufferView": 23,
   "componentType": 5123,
   "count": 12,
   "type": "SCALAR"
  },
  {
   "bufferView": 24,
   "componentType": 5126,
   "count": 480,
   "max": [
    1.25,
    1.2772177457809448,
    2.0269999504089355
   ],
   "min": [
    -1.25,
    1.1990443468093872,
    -2.0269999504089355
   ],
   "type": "VEC3"
  },
  {
   "bufferView": 25,
   "componentType": 5126,
   "count": 480,
   "type": "VEC3"
  },
  {
   "bufferView": 26,
   "componentType": 5126,
   "count": 480,
   "type": "VEC2"
  },
  {
   "bufferView": 27,
   "componentType": 5123,
   "count": 720,
   "type": "SCALAR"
  },
  {
   "bufferView": 28,
   "componentType": 5126,
   "count": 128,
   "max": [
    -0.15999996662139893,
    1.4000000953674316,
    1.2999999523162842
   ],
   "min": [
    -1.159999966621399,
    1.2699999809265137,
    -1.2999999523162842
   ],
   "type": "VEC3"
  },
  {
   "bufferView": 29,
   "componentType": 5126,
   "count": 128,
   "type": "VEC3"
  },
  {
   "bufferView": 30,
   "componentType": 5126,
   "count": 128,
   "type": "VEC2"
  },
  {
   "bufferView": 31,
   "componentType": 5123,
   "count": 264,
   "type": "SCALAR"
  },
  {
   "bufferView": 32,
   "componentType": 5126,
   "count": 192,
   "max": [
    -0.2200000286102295,
    1.564500093460083,
    1.2400000095367432
   ],
   "min": [
    -1.1200000047683716,
    1.5394999980926514,
    -1.2400000095367432
   ],
   "type": "VEC3"
  },
  {
   "bufferView": 33,
   "componentType": 5126,
   "count": 192,
   "type": "VEC3"
  },
  {
   "bufferView": 34,
   "componentType": 5126,
   "count": 192,
   "type": "VEC2"
  },
  {
   "bufferView": 35,
   "componentType": 5123,
   "count": 396,
   "type": "SCALAR"
  },
  {
   "bufferView": 36,
   "componentType": 5126,
   "count": 1305,
   "max": [
    -0.2740071713924408,
    1.7039999961853027,
    1.8896301984786987
   ],
   "min": [
    -1.077991008758545,
    1.399999976158142,
    -1.883461594581604
   ],
   "type": "VEC3"
  },
  {
   "bufferView": 37,
   "componentType": 5126,
   "count": 1305,
   "type": "VEC3"
  },
  {
   "bufferView": 38,
   "componentType": 5126,
   "count": 1305,
   "type": "VEC2"
  },
  {
   "bufferView": 39,
   "componentType": 5123,
   "count": 3618,
   "type": "SCALAR"
  },
  {
   "bufferView": 40,
   "componentType": 5126,
   "count": 12064,
   "max": [
    1.1491217613220215,
    1.7359557151794434,
    1.569414496421814
   ],
   "min": [
    -1.3118325471878052,
    1.0946441888809204,
    -0.817954957485199
   ],
   "type": "VEC3"
  },
  {
   "bufferView": 41,
   "componentType": 5126,
   "count": 12064,
   "type": "VEC3"
  },
  {
   "bufferView": 42,
   "componentType": 5126,
   "count": 12064,
   "type": "VEC2"
  },
  {
   "bufferView": 43,
   "componentType": 5123,
   "count": 24804,
   "type": "SCALAR"
  },
  {
   "bufferView": 44,
   "componentType": 5126,
   "count": 504,
   "max": [
    1.1948599815368652,
    1.5287292003631592,
    0.9156399965286255
   ],
   "min": [
    0.6332286596298218,
    1.270941972732544,
    -1.705171823501587
   ],
   "type": "VEC3"
  },
  {
   "bufferView": 45,
   "componentType": 5126,
   "count": 504,
   "type": "VEC3"
  },
  {
   "bufferView": 46,
   "componentType": 5126,
   "count": 504,
   "type": "VEC2"
  },
  {
   "bufferView": 47,
   "componentType": 5123,
   "count": 1494,
   "type": "SCALAR"
  },
  {
   "bufferView": 48,
   "componentType": 5126,
   "count": 24,
   "max": [
    1.059999942779541,
    1.2699999809265137,
    3.5
   ],
   "min": [
    -1.059999942779541,
    0.8600000143051147,
    2.9100000858306885
   ],
   "type": "VEC3"
  },
  {
   "bufferView": 49,
   "componentType": 5126,
   "count": 24,
   "type": "VEC3"
  },
  {
   "bufferView": 50,
   "componentType": 5126,
   "count": 24,
   "type": "VEC2"
  },
  {
   "bufferView": 51,
   "componentType": 5123,
   "count": 36,
   "type": "SCALAR"
  },
  {
   "bufferView": 52,
   "componentType": 5126,
   "count": 24,
   "max": [
    0.5400000214576721,
    1.2699999809265137,
    2.9100000858306885
   ],
   "min": [
    -0.5400000214576721,
    0.44999998807907104,
    2.0299999713897705
   ],
   "type": "VEC3"
  },
  {
   "bufferView": 53,
   "componentType": 5126,
   "count": 24,
   "type": "VEC3"
  },
  {
   "bufferView": 54,
   "componentType": 5126,
   "count": 24,
   "type": "VEC2"
  },
  {
   "bufferView": 55,
   "componentType": 5126,
   "count": 24,
   "max": [
    -0.5400000214576721,
    0.18000000715255737,
    2.9100000858306885
   ],
   "min": [
    -1.3799999952316284,
    -0.10000000149011612,
    2.0299999713897705
   ],
   "type": "VEC3"
  },
  {
   "bufferView": 56,
   "componentType": 5126,
   "count": 24,
   "type": "VEC3"
  },
  {
   "bufferView": 57,
   "componentType": 5126,
   "count": 24,
   "type": "VEC2"
  },
  {
   "bufferView": 58,
   "componentType": 5126,
   "count": 24,
   "max": [
    -0.5400000214576721,
    0.5400000214576721,
    2.9100000858306885
   ],
   "min": [
    -1.100000023841858,
    0.18000000715255737,
    2.0299999713897705
   ],
   "type": "VEC3"
  },
  {
   "bufferView": 59,
   "componentType": 5126,
   "count": 24,
   "type": "VEC3"
  },
  {
   "bufferView": 60,
   "componentType": 5126,
   "count": 24,
   "type": "VEC2"
  },
  {
   "bufferView": 61,
   "componentType": 5126,
   "count": 24,
   "max": [
    -0.5400000214576721,
    0.8999999761581421,
    2.9100000858306885
   ],
   "min": [
    -0.8199999928474426,
    0.5400000214576721,
    2.0299999713897705
   ],
   "type": "VEC3"
  },
  {
   "bufferView": 62,
   "componentType": 5126,
   "count": 24,
   "type": "VEC3"
  },
  {
   "bufferView": 63,
   "componentType": 5126,
   "count": 24,
   "type": "VEC2"
  },
  {
   "bufferView": 64,
   "componentType": 5126,
   "count": 24,
   "max": [
    1.3799999952316284,
    0.18000000715255737,
    2.9100000858306885
   ],
   "min": [
    0.5400000214576721,
    -0.10000000149011612,
    2.0299999713897705
   ],
   "type": "VEC3"
  },
  {
   "bufferView": 65,
   "componentType": 5126,
   "count": 24,
   "type": "VEC3"
  },
  {
   "bufferView": 66,
   "componentType": 5126,
   "count": 24,
   "type": "VEC2"
  },
  {
   "bufferView": 67,
   "componentType": 5126,
   "count": 24,
   "max": [
    1.100000023841858,
    0.5400000214576721,
    2.9100000858306885
   ],
   "min": [
    0.5400000214576721,
    0.18000000715255737,
    2.0299999713897705
   ],
   "type": "VEC3"
  },
  {
   "bufferView": 68,
   "componentType": 5126,
   "count": 24,
   "type": "VEC3"
  },
  {
   "bufferView": 69,
   "componentType": 5126,
   "count": 24,
   "type": "VEC2"
  },
  {
   "bufferView": 70,
   "componentType": 5126,
   "count": 24,
   "max": [
    0.8199999928474426,
    0.8999999761581421,
    2.9100000858306885
   ],
   "min": [
    0.5400000214576721,
    0.5400000214576721,
    2.0299999713897705
   ],
   "type": "VEC3"
  },
  {
   "bufferView": 71,
   "componentType": 5126,
   "count": 24,
   "type": "VEC3"
  },
  {
   "bufferView": 72,
   "componentType": 5126,
   "count": 24,
   "type": "VEC2"
  },
  {
   "bufferView": 73,
   "componentType": 5126,
   "count": 24,
   "max": [
    1.059999942779541,
    1.2699999809265137,
    -2.9100000858306885
   ],
   "min": [
    -1.059999942779541,
    0.8600000143051147,
    -3.5
   ],
   "type": "VEC3"
  },
  {
   "bufferView": 74,
   "componentType": 5126,
   "count": 24,
   "type": "VEC3"
  },
  {
   "bufferView": 75,
   "componentType": 5126,
   "count": 24,
   "type": "VEC2"
  },
  {
   "bufferView": 76,
   "componentType": 5126,
   "count": 24,
   "max": [
    0.5400000214576721,
    1.2699999809265137,
    -2.0299999713897705
   ],
   "min": [
    -0.5400000214576721,
    0.44999998807907104,
    -2.9100000858306885
   ],
   "type": "VEC3"
  },
  {
   "bufferView": 77,
   "componentType": 5126,
   "count": 24,
   "type": "VEC3"
  },
  {
   "bufferView": 78,
   "componentType": 5126,
   "count": 24,
   "type": "VEC2"
  },
  {
   "bufferView": 79,
   "componentType": 5126,
   "count": 24,
   "max": [
    -0.5400000214576721,
    0.18000000715255737,
    -2.0299999713897705
   ],
   "min": [
    -1.3799999952316284,
    -0.10000000149011612,
    -2.9100000858306885
   ],
   "type": "VEC3"
  },
  {
   "bufferView": 80,
   "componentType": 5126,
   "count": 24,
   "type": "VEC3"
  },
  {
   "bufferView": 81,
   "componentType": 5126,
   "count": 24,
   "type": "VEC2"
  },
  {
   "bufferView": 82,
   "componentType": 5126,
   "count": 24,
   "max": [
    -0.5400000214576721,
    0.5400000214576721,
    -2.0299999713897705
   ],
   "min": [
    -1.100000023841858,
    0.18000000715255737,
    -2.9100000858306885
   ],
   "type": "VEC3"
  },
  {
   "bufferView": 83,
   "componentType": 5126,
   "count": 24,
   "type": "VEC3"
  },
  {
   "bufferView": 84,
   "componentType": 5126,
   "count": 24,
   "type": "VEC2"
  },
  {
   "bufferView": 85,
   "componentType": 5126,
   "count": 24,
   "max": [
    -0.5400000214576721,
    0.8999999761581421,
    -2.0299999713897705
   ],
   "min": [
    -0.8199999928474426,
    0.5400000214576721,
    -2.9100000858306885
   ],
   "type": "VEC3"
  },
  {
   "bufferView": 86,
   "componentType": 5126,
   "count": 24,
   "type": "VEC3"
  },
  {
   "bufferView": 87,
   "componentType": 5126,
   "count": 24,
   "type": "VEC2"
  },
  {
   "bufferView": 88,
   "componentType": 5126,
   "count": 24,
   "max": [
    1.3799999952316284,
    0.18000000715255737,
    -2.0299999713897705
   ],
   "min": [
    0.5400000214576721,
    -0.10000000149011612,
    -2.9100000858306885
   ],
   "type": "VEC3"
  },
  {
   "bufferView": 89,
   "componentType": 5126,
   "count": 24,
   "type": "VEC3"
  },
  {
   "bufferView": 90,
   "componentType": 5126,
   "count": 24,
   "type": "VEC2"
  },
  {
   "bufferView": 91,
   "componentType": 5126,
   "count": 24,
   "max": [
    1.100000023841858,
    0.5400000214576721,
    -2.0299999713897705
   ],
   "min": [
    0.5400000214576721,
    0.18000000715255737,
    -2.9100000858306885
   ],
   "type": "VEC3"
  },
  {
   "bufferView": 92,
   "componentType": 5126,
   "count": 24,
   "type": "VEC3"
  },
  {
   "bufferView": 93,
   "componentType": 5126,
   "count": 24,
   "type": "VEC2"
  },
  {
   "bufferView": 94,
   "componentType": 5126,
   "count": 24,
   "max": [
    0.8199999928474426,
    0.8999999761581421,
    -2.0299999713897705
   ],
   "min": [
    0.5400000214576721,
    0.5400000214576721,
    -2.9100000858306885
   ],
   "type": "VEC3"
  },
  {
   "bufferView": 95,
   "componentType": 5126,
   "count": 24,
   "type": "VEC3"
  },
  {
   "bufferView": 96,
   "componentType": 5126,
   "count": 24,
   "type": "VEC2"
  },
  {
   "bufferView": 97,
   "componentType": 5126,
   "count": 24,
   "max": [
    1.25,
    1.2699999809265137,
    2.0299999713897705
   ],
   "min": [
    -1.25,
    0.44999998807907104,
    -2.0299999713897705
   ],
   "type": "VEC3"
  },
  {
   "bufferView": 98,
   "componentType": 5126,
   "count": 24,
   "type": "VEC3"
  },
  {
   "bufferView": 99,
   "componentType": 5126,
   "count": 24,
   "type": "VEC2"
  },
  {
   "bufferView": 100,
   "componentType": 5126,
   "count": 24,
   "max": [
    -0.20000000298023224,
    1.7039999961853027,
    1.9199999570846558
   ],
   "min": [
    -1.1200000047683716,
    1.2699999809265137,
    -1.9199999570846558
   ],
   "type": "VEC3"
  },
  {
   "bufferView": 101,
   "componentType": 5126,
   "count": 24,
   "type": "VEC3"
  },
  {
   "bufferView": 102,
   "componentType": 5126,
   "count": 24,
   "type": "VEC2"
  },
  {
   "bufferView": 103,
   "componentType": 5126,
   "count": 24,
   "max": [
    1.190000057220459,
    1.5299999713897705,
    0.9800000190734863
   ],
   "min": [
    0.6600000262260437,
    1.2699999809265137,
    -1.6799999475479126
   ],
   "type": "VEC3"
  },
  {
   "bufferView": 104,
   "componentType": 5126,
   "count": 24,
   "type": "VEC3"
  },
  {
   "bufferView": 105,
   "componentType": 5126,
   "count": 24,
   "type": "VEC2"
  }
 ],
 "bufferViews": [
  {
   "buffer": 0,
   "byteLength": 44448,
   "byteOffset": 0,
   "target": 34962
  },
  {
   "buffer": 0,
   "byteLength": 44448,
   "byteOffset": 44448,
   "target": 34962
  },
  {
   "buffer": 0,
   "byteLength": 29632,
   "byteOffset": 88896,
   "target": 34962
  },
  {
   "buffer": 0,
   "byteLength": 14568,
   "byteOffset": 118528,
   "target": 34963
  },
  {
   "buffer": 0,
   "byteLength": 29760,
   "byteOffset": 133096,
   "target": 34962
  },
  {
   "buffer": 0,
   "byteLength": 29760,
   "byteOffset": 162856,
   "target": 34962
  },
  {
   "buffer": 0,
   "byteLength": 19840,
   "byteOffset": 192616,
   "target": 34962
  },
  {
   "buffer": 0,
   "byteLength": 11112,
   "byteOffset": 212456,
   "target": 34963
  },
  {
   "buffer": 0,
   "byteLength": 768,
   "byteOffset": 223568,
   "target": 34962
  },
  {
   "buffer": 0,
   "byteLength": 768,
   "byteOffset": 224336,
   "target": 34962
  },
  {
   "buffer": 0,
   "byteLength": 512,
   "byteOffset": 225104,
   "target": 34962
  },
  {
   "buffer": 0,
   "byteLength": 192,
   "byteOffset": 225616,
   "target": 34963
  },
  {
   "buffer": 0,
   "byteLength": 98448,
   "byteOffset": 225808,
   "target": 34962
  },
  {
   "buffer": 0,
   "byteLength": 98448,
   "byteOffset": 324256,
   "target": 34962
  },
  {
   "buffer": 0,
   "byteLength": 65632,
   "byteOffset": 422704,
   "target": 34962
  },
  {
   "buffer": 0,
   "byteLength": 32160,
   "byteOffset": 488336,
   "target": 34963
  },
  {
   "buffer": 0,
   "byteLength": 133968,
   "byteOffset": 520496,
   "target": 34962
  },
  {
   "buffer": 0,
   "byteLength": 133968,
   "byteOffset": 654464,
   "target": 34962
  },
  {
   "buffer": 0,
   "byteLength": 89312,
   "byteOffset": 788432,
   "target": 34962
  },
  {
   "buffer": 0,
   "byteLength": 43968,
   "byteOffset": 877744,
   "target": 34963
  },
  {
   "buffer": 0,
   "byteLength": 96,
   "byteOffset": 921712,
   "target": 34962
  },
  {
   "buffer": 0,
   "byteLength": 96,
   "byteOffset": 921808,
   "target": 34962
  },
  {
   "buffer": 0,
   "byteLength": 64,
   "byteOffset": 921904,
   "target": 34962
  },
  {
   "buffer": 0,
   "byteLength": 24,
   "byteOffset": 921968,
   "target": 34963
  },
  {
   "buffer": 0,
   "byteLength": 5760,
   "byteOffset": 921992,
   "target": 34962
  },
  {
   "buffer": 0,
   "byteLength": 5760,
   "byteOffset": 927752,
   "target": 34962
  },
  {
   "buffer": 0,
   "byteLength": 3840,
   "byteOffset": 933512,
   "target": 34962
  },
  {
   "buffer": 0,
   "byteLength": 1440,
   "byteOffset": 937352,
   "target": 34963
  },
  {
   "buffer": 0,
   "byteLength": 1536,
   "byteOffset": 938792,
   "target": 34962
  },
  {
   "buffer": 0,
   "byteLength": 1536,
   "byteOffset": 940328,
   "target": 34962
  },
  {
   "buffer": 0,
   "byteLength": 1024,
   "byteOffset": 941864,
   "target": 34962
  },
  {
   "buffer": 0,
   "byteLength": 528,
   "byteOffset": 942888,
   "target": 34963
  },
  {
   "buffer": 0,
   "byteLength": 2304,
   "byteOffset": 943416,
   "target": 34962
  },
  {
   "buffer": 0,
   "byteLength": 2304,
   "byteOffset": 945720,
   "target": 34962
  },
  {
   "buffer": 0,
   "byteLength": 1536,
   "byteOffset": 948024,
   "target": 34962
  },
  {
   "buffer": 0,
   "byteLength": 792,
   "byteOffset": 949560,
   "target": 34963
  },
  {
   "buffer": 0,
   "byteLength": 15660,
   "byteOffset": 950352,
   "target": 34962
  },
  {
   "buffer": 0,
   "byteLength": 15660,
   "byteOffset": 966012,
   "target": 34962
  },
  {
   "buffer": 0,
   "byteLength": 10440,
   "byteOffset": 981672,
   "target": 34962
  },
  {
   "buffer": 0,
   "byteLength": 7236,
   "byteOffset": 992112,
   "target": 34963
  },
  {
   "buffer": 0,
   "byteLength": 144768,
   "byteOffset": 999348,
   "target": 34962
  },
  {
   "buffer": 0,
   "byteLength": 144768,
   "byteOffset": 1144116,
   "target": 34962
  },
  {
   "buffer": 0,
   "byteLength": 96512,
   "byteOffset": 1288884,
   "target": 34962
  },
  {
   "buffer": 0,
   "byteLength": 49608,
   "byteOffset": 1385396,
   "target": 34963
  },
  {
   "buffer": 0,
   "byteLength": 6048,
   "byteOffset": 1435004,
   "target": 34962
  },
  {
   "buffer": 0,
   "byteLength": 6048,
   "byteOffset": 1441052,
   "target": 34962
  },
  {
   "buffer": 0,
   "byteLength": 4032,
   "byteOffset": 1447100,
   "target": 34962
  },
  {
   "buffer": 0,
   "byteLength": 2988,
   "byteOffset": 1451132,
   "target": 34963
  },
  {
   "buffer": 0,
   "byteLength": 288,
   "byteOffset": 1454120,
   "target": 34962
  },
  {
   "buffer": 0,
   "byteLength": 288,
   "byteOffset": 1454408,
   "target": 34962
  },
  {
   "buffer": 0,
   "byteLength": 192,
   "byteOffset": 1454696,
   "target": 34962
  },
  {
   "buffer": 0,
   "byteLength": 72,
   "byteOffset": 1454888,
   "target": 34963
  },
  {
   "buffer": 0,
   "byteLength": 288,
   "byteOffset": 1454960,
   "target": 34962
  },
  {
   "buffer": 0,
   "byteLength": 288,
   "byteOffset": 1455248,
   "target": 34962
  },
  {
   "buffer": 0,
   "byteLength": 192,
   "byteOffset": 1455536,
   "target": 34962
  },
  {
   "buffer": 0,
   "byteLength": 288,
   "byteOffset": 1455728,
   "target": 34962
  },
  {
   "buffer": 0,
   "byteLength": 288,
   "byteOffset": 1456016,
   "target": 34962
  },
  {
   "buffer": 0,
   "byteLength": 192,
   "byteOffset": 1456304,
   "target": 34962
  },
  {
   "buffer": 0,
   "byteLength": 288,
   "byteOffset": 1456496,
   "target": 34962
  },
  {
   "buffer": 0,
   "byteLength": 288,
   "byteOffset": 1456784,
   "target": 34962
  },
  {
   "buffer": 0,
   "byteLength": 192,
   "byteOffset": 1457072,
   "target": 34962
  },
  {
   "buffer": 0,
   "byteLength": 288,
   "byteOffset": 1457264,
   "target": 34962
  },
  {
   "buffer": 0,
   "byteLength": 288,
   "byteOffset": 1457552,
   "target": 34962
  },
  {
   "buffer": 0,
   "byteLength": 192,
   "byteOffset": 1457840,
   "target": 34962
  },
  {
   "buffer": 0,
   "byteLength": 288,
   "byteOffset": 1458032,
   "target": 34962
  },
  {
   "buffer": 0,
   "byteLength": 288,
   "byteOffset": 1458320,
   "target": 34962
  },
  {
   "buffer": 0,
   "byteLength": 192,
   "byteOffset": 1458608,
   "target": 34962
  },
  {
   "buffer": 0,
   "byteLength": 288,
   "byteOffset": 1458800,
   "target": 34962
  },
  {
   "buffer": 0,
   "byteLength": 288,
   "byteOffset": 1459088,
   "target": 34962
  },
  {
   "buffer": 0,
   "byteLength": 192,
   "byteOffset": 1459376,
   "target": 34962
  },
  {
   "buffer": 0,
   "byteLength": 288,
   "byteOffset": 1459568,
   "target": 34962
  },
  {
   "buffer": 0,
   "byteLength": 288,
   "byteOffset": 1459856,
   "target": 34962
  },
  {
   "buffer": 0,
   "byteLength": 192,
   "byteOffset": 1460144,
   "target": 34962
  },
  {
   "buffer": 0,
   "byteLength": 288,
   "byteOffset": 1460336,
   "target": 34962
  },
  {
   "buffer": 0,
   "byteLength": 288,
   "byteOffset": 1460624,
   "target": 34962
  },
  {
   "buffer": 0,
   "byteLength": 192,
   "byteOffset": 1460912,
   "target": 34962
  },
  {
   "buffer": 0,
   "byteLength": 288,
   "byteOffset": 1461104,
   "target": 34962
  },
  {
   "buffer": 0,
   "byteLength": 288,
   "byteOffset": 1461392,
   "target": 34962
  },
  {
   "buffer": 0,
   "byteLength": 192,
   "byteOffset": 1461680,
   "target": 34962
  },
  {
   "buffer": 0,
   "byteLength": 288,
   "byteOffset": 1461872,
   "target": 34962
  },
  {
   "buffer": 0,
   "byteLength": 288,
   "byteOffset": 1462160,
   "target": 34962
  },
  {
   "buffer": 0,
   "byteLength": 192,
   "byteOffset": 1462448,
   "target": 34962
  },
  {
   "buffer": 0,
   "byteLength": 288,
   "byteOffset": 1462640,
   "target": 34962
  },
  {
   "buffer": 0,
   "byteLength": 288,
   "byteOffset": 1462928,
   "target": 34962
  },
  {
   "buffer": 0,
   "byteLength": 192,
   "byteOffset": 1463216,
   "target": 34962
  },
  {
   "buffer": 0,
   "byteLength": 288,
   "byteOffset": 1463408,
   "target": 34962
  },
  {
   "buffer": 0,
   "byteLength": 288,
   "byteOffset": 1463696,
   "target": 34962
  },
  {
   "buffer": 0,
   "byteLength": 192,
   "byteOffset": 1463984,
   "target": 34962
  },
  {
   "buffer": 0,
   "byteLength": 288,
   "byteOffset": 1464176,
   "target": 34962
  },
  {
   "buffer": 0,
   "byteLength": 288,
   "byteOffset": 1464464,
   "target": 34962
  },
  {
   "buffer": 0,
   "byteLength": 192,
   "byteOffset": 1464752,
   "target": 34962
  },
  {
   "buffer": 0,
   "byteLength": 288,
   "byteOffset": 1464944,
   "target": 34962
  },
  {
   "buffer": 0,
   "byteLength": 288,
   "byteOffset": 1465232,
   "target": 34962
  },
  {
   "buffer": 0,
   "byteLength": 192,
   "byteOffset": 1465520,
   "target": 34962
  },
  {
   "buffer": 0,
   "byteLength": 288,
   "byteOffset": 1465712,
   "target": 34962
  },
  {
   "buffer": 0,
   "byteLength": 288,
   "byteOffset": 1466000,
   "target": 34962
  },
  {
   "buffer": 0,
   "byteLength": 192,
   "byteOffset": 1466288,
   "target": 34962
  },
  {
   "buffer": 0,
   "byteLength": 288,
   "byteOffset": 1466480,
   "target": 34962
  },
  {
   "buffer": 0,
   "byteLength": 288,
   "byteOffset": 1466768,
   "target": 34962
  },
  {
   "buffer": 0,
   "byteLength": 192,
   "byteOffset": 1467056,
   "target": 34962
  },
  {
   "buffer": 0,
   "byteLength": 288,
   "byteOffset": 1467248,
   "target": 34962
  },
  {
   "buffer": 0,
   "byteLength": 288,
   "byteOffset": 1467536,
   "target": 34962
  },
  {
   "buffer": 0,
   "byteLength": 192,
   "byteOffset": 1467824,
   "target": 34962
  },
  {
   "buffer": 0,
   "byteLength": 288,
   "byteOffset": 1468016,
   "target": 34962
  },
  {
   "buffer": 0,
   "byteLength": 288,
   "byteOffset": 1468304,
   "target": 34962
  },
  {
   "buffer": 0,
   "byteLength": 192,
   "byteOffset": 1468592,
   "target": 34962
  }
 ],
 "samplers": [
  {
   "magFilter": 9729,
   "minFilter": 9987
  }
 ],
 "buffers": [
  {
   "byteLength": 1468784,
   "uri": "train_wagon_flat.bin"
  }
 ]
}