{
 "asset": {
  "generator": "Khronos glTF Blender I/O v4.5.51",
  "version": "2.0"
 },
 "scene": 0,
 "scenes": [
  {
   "name": "Scene",
   "nodes": [
    0
   ]
  }
 ],
 "nodes": [
  {
   "mesh": 0,
   "name": "prop_market_stall_b_far"
  }
 ],
 "materials": [
  {
   "doubleSided": true,
   "name": "prop_market_stall_b",
   "normalTexture": {
    "index": 0
   },
   "occlusionTexture": {
    "index": 1
   },
   "pbrMetallicRoughness": {
    "baseColorTexture": {
     "index": 2
    },
    "metallicRoughnessTexture": {
     "index": 1
    }
   }
  }
 ],
 "meshes": [
  {
   "name": "prop_market_stall_b_far",
   "primitives": [
    {
     "attributes": {
      "POSITION": 0,
      "NORMAL": 1,
      "TEXCOORD_0": 2
     },
     "indices": 3,
     "material": 0
    }
   ]
  }
 ],
 "textures": [
  {
   "sampler": 0,
   "source": 0
  },
  {
   "sampler": 0,
   "source": 1
  },
  {
   "sampler": 0,
   "source": 2
  }
 ],
 "images": [
  {
   "mimeType": "image/png",
   "name": "prop_market_stall_b_normal",
   "uri": "../prop_market_stall_b/prop_market_stall_b_normal.png"
  },
  {
   "mimeType": "image/png",
   "name": "prop_market_stall_b_orm",
   "uri": "../prop_market_stall_b/prop_market_stall_b_orm.png"
  },
  {
   "mimeType": "image/png",
   "name": "prop_market_stall_b_albedo",
   "uri": "../prop_market_stall_b/prop_market_stall_b_albedo.png"
  }
 ],
 "accessors": [
  {
   "bufferView": 0,
   "componentType": 5126,
   "count": 138,
   "max": [
    1.2999999523162842,
    2.430093288421631,
    0.8199999928474426
   ],
   "min": [
    -1.2999999523162842,
    0,
    -0.6822013854980469
   ],
   "type": "VEC3"
  },
  {
   "bufferView": 1,
   "componentType": 5126,
   "count": 138,
   "type": "VEC3"
  },
  {
   "bufferView": 2,
   "componentType": 5126,
   "count": 138,
   "type": "VEC2"
  },
  {
   "bufferView": 3,
   "componentType": 5123,
   "count": 240,
   "type": "SCALAR"
  }
 ],
 "bufferViews": [
  {
   "buffer": 0,
   "byteLength": 1656,
   "byteOffset": 0,
   "target": 34962
  },
  {
   "buffer": 0,
   "byteLength": 1656,
   "byteOffset": 1656,
   "target": 34962
  },
  {
   "buffer": 0,
   "byteLength": 1104,
   "byteOffset": 3312,
   "target": 34962
  },
  {
   "buffer": 0,
   "byteLength": 480,
   "byteOffset": 4416,
   "target": 34963
  }
 ],
 "samplers": [
  {
   "magFilter": 9729,
   "minFilter": 9987
  }
 ],
 "buffers": [
  {
   "byteLength": 4896,
   "uri": "prop_market_stall_b_far.bin"
  }
 ]
}