{
 "asset": {
  "generator": "Khronos glTF Blender I/O v4.5.51",
  "version": "2.0"
 },
 "scene": 0,
 "scenes": [
  {
   "name": "Scene",
   "nodes": [
    0,
    1,
    2,
    3,
    4,
    5,
    6,
    7,
    8
   ]
  }
 ],
 "nodes": [
  {
   "mesh": 0,
   "name": "frame"
  },
  {
   "mesh": 1,
   "name": "beam"
  },
  {
   "mesh": 2,
   "name": "detail"
  },
  {
   "mesh": 3,
   "name": "plants"
  },
  {
   "mesh": 4,
   "name": "col_metal_frame_1"
  },
  {
   "mesh": 5,
   "name": "col_metal_frame_2"
  },
  {
   "mesh": 6,
   "name": "col_metal_frame_3"
  },
  {
   "mesh": 7,
   "name": "col_metal_frame_4"
  },
  {
   "mesh": 8,
   "name": "col_wood_beam_1"
  }
 ],
 "materials": [
  {
   "name": "rail_steel",
   "normalTexture": {
    "index": 0
   },
   "occlusionTexture": {
    "index": 1
   },
   "pbrMetallicRoughness": {
    "baseColorTexture": {
     "index": 2
    },
    "metallicRoughnessTexture": {
     "index": 1
    }
   }
  },
  {
   "name": "painted_wood_bauxite",
   "normalTexture": {
    "index": 3
   },
   "occlusionTexture": {
    "index": 4
   },
   "pbrMetallicRoughness": {
    "baseColorTexture": {
     "index": 5
    },
    "metallicRoughnessTexture": {
     "index": 4
    }
   }
  },
  {
   "name": "rust_iron",
   "normalTexture": {
    "index": 6
   },
   "occlusionTexture": {
    "index": 7
   },
   "pbrMetallicRoughness": {
    "baseColorTexture": {
     "index": 8
    },
    "metallicRoughnessTexture": {
     "index": 7
    }
   }
  },
  {
   "name": "loco_black",
   "normalTexture": {
    "index": 9
   },
   "occlusionTexture": {
    "index": 10
   },
   "pbrMetallicRoughness": {
    "baseColorTexture": {
     "index": 11
    },
    "metallicRoughnessTexture": {
     "index": 10
    }
   }
  },
  {
   "name": "rail_signs",
   "normalTexture": {
    "index": 12
   },
   "occlusionTexture": {
    "index": 13
   },
   "pbrMetallicRoughness": {
    "baseColorTexture": {
     "index": 14
    },
    "metallicRoughnessTexture": {
     "index": 13
    }
   }
  },
  {
   "doubleSided": true,
   "name": "foliage",
   "normalTexture": {
    "index": 15
   },
   "occlusionTexture": {
    "index": 16
   },
   "pbrMetallicRoughness": {
    "baseColorTexture": {
     "index": 17
    },
    "metallicRoughnessTexture": {
     "index": 16
    }
   }
  }
 ],
 "meshes": [
  {
   "name": "frame",
   "primitives": [
    {
     "attributes": {
      "POSITION": 0,
      "NORMAL": 1,
      "TEXCOORD_0": 2
     },
     "indices": 3,
     "material": 0
    }
   ]
  },
  {
   "name": "beam",
   "primitives": [
    {
     "attributes": {
      "POSITION": 4,
      "NORMAL": 5,
      "TEXCOORD_0": 6
     },
     "indices": 7,
     "material": 1
    },
    {
     "attributes": {
      "POSITION": 8,
      "NORMAL": 9,
      "TEXCOORD_0": 10
     },
     "indices": 11,
     "material": 2
    }
   ]
  },
  {
   "name": "detail",
   "primitives": [
    {
     "attributes": {
      "POSITION": 12,
      "NORMAL": 13,
      "TEXCOORD_0": 14
     },
     "indices": 15,
     "material": 2
    },
    {
     "attributes": {
      "POSITION": 16,
      "NORMAL": 17,
      "TEXCOORD_0": 18
     },
     "indices": 19,
     "material": 3
    },
    {
     "attributes": {
      "POSITION": 20,
      "NORMAL": 21,
      "TEXCOORD_0": 22
     },
     "indices": 23,
     "material": 4
    }
   ]
  },
  {
   "name": "plants",
   "primitives": [
    {
     "attributes": {
      "POSITION": 24,
      "NORMAL": 25,
      "TEXCOORD_0": 26
     },
     "indices": 27,
     "material": 5
    }
   ]
  },
  {
   "name": "col_metal_frame_1",
   "primitives": [
    {
     "attributes": {
      "POSITION": 28,
      "NORMAL": 29,
      "TEXCOORD_0": 30
     },
     "indices": 31,
     "material": 0
    }
   ]
  },
  {
   "name": "col_metal_frame_2",
   "primitives": [
    {
     "attributes": {
      "POSITION": 32,
      "NORMAL": 33,
      "TEXCOORD_0": 34
     },
     "indices": 31,
     "material": 0
    }
   ]
  },
  {
   "name": "col_metal_frame_3",
   "primitives": [
    {
     "attributes": {
      "POSITION": 35,
      "NORMAL": 36,
      "TEXCOORD_0": 37
     },
     "indices": 31,
     "material": 0
    }
   ]
  },
  {
   "name": "col_metal_frame_4",
   "primitives": [
    {
     "attributes": {
      "POSITION": 38,
      "NORMAL": 39,
      "TEXCOORD_0": 40
     },
     "indices": 31,
     "material": 0
    }
   ]
  },
  {
   "name": "col_wood_beam_1",
   "primitives": [
    {
     "attributes": {
      "POSITION": 41,
      "NORMAL": 42,
      "TEXCOORD_0": 43
     },
     "indices": 31,
     "material": 0
    }
   ]
  }
 ],
 "textures": [
  {
   "sampler": 0,
   "source": 0
  },
  {
   "sampler": 0,
   "source": 1
  },
  {
   "sampler": 0,
   "source": 2
  },
  {
   "sampler": 0,
   "source": 3
  },
  {
   "sampler": 0,
   "source": 4
  },
  {
   "sampler": 0,
   "source": 5
  },
  {
   "sampler": 0,
   "source": 6
  },
  {
   "sampler": 0,
   "source": 7
  },
  {
   "sampler": 0,
   "source": 8
  },
  {
   "sampler": 0,
   "source": 9
  },
  {
   "sampler": 0,
   "source": 10
  },
  {
   "sampler": 0,
   "source": 11
  },
  {
   "sampler": 0,
   "source": 12
  },
  {
   "sampler": 0,
   "source": 13
  },
  {
   "sampler": 0,
   "source": 14
  },
  {
   "sampler": 0,
   "source": 15
  },
  {
   "sampler": 0,
   "source": 16
  },
  {
   "sampler": 0,
   "source": 17
  }
 ],
 "images": [
  {
   "mimeType": "image/png",
   "name": "rail_steel_normal.png",
   "uri": "../_library/rail_steel_normal.png"
  },
  {
   "mimeType": "image/png",
   "name": "rail_steel_orm.png",
   "uri": "../_library/rail_steel_orm.png"
  },
  {
   "mimeType": "image/png",
   "name": "rail_steel_albedo.png",
   "uri": "../_library/rail_steel_albedo.png"
  },
  {
   "mimeType": "image/png",
   "name": "painted_wood_bauxite_normal.png",
   "uri": "../_library/painted_wood_bauxite_normal.png"
  },
  {
   "mimeType": "image/png",
   "name": "painted_wood_bauxite_orm.png",
   "uri": "../_library/painted_wood_bauxite_orm.png"
  },
  {
   "mimeType": "image/png",
   "name": "painted_wood_bauxite_albedo.png",
   "uri": "../_library/painted_wood_bauxite_albedo.png"
  },
  {
   "mimeType": "image/png",
   "name": "rust_iron_normal.png",
   "uri": "../_library/rust_iron_normal.png"
  },
  {
   "mimeType": "image/png",
   "name": "rust_iron_orm.png",
   "uri": "../_library/rust_iron_orm.png"
  },
  {
   "mimeType": "image/png",
   "name": "rust_iron_albedo.png",
   "uri": "../_library/rust_iron_albedo.png"
  },
  {
   "mimeType": "image/png",
   "name": "loco_black_normal.png",
   "uri": "../_library/loco_black_normal.png"
  },
  {
   "mimeType": "image/png",
   "name": "loco_black_orm.png",
   "uri": "../_library/loco_black_orm.png"
  },
  {
   "mimeType": "image/png",
   "name": "loco_black_albedo.png",
   "uri": "../_library/loco_black_albedo.png"
  },
  {
   "mimeType": "image/png",
   "name": "rail_signs_normal.png",
   "uri": "../_library/rail_signs_normal.png"
  },
  {
   "mimeType": "image/png",
   "name": "rail_signs_orm.png",
   "uri": "../_library/rail_signs_orm.png"
  },
  {
   "mimeType": "image/png",
   "name": "rail_signs_albedo.png",
   "uri": "../_library/rail_signs_albedo.png"
  },
  {
   "mimeType": "image/png",
   "name": "foliage_normal.png",
   "uri": "../_library/foliage_normal.png"
  },
  {
   "mimeType": "image/png",
   "name": "foliage_orm.png",
   "uri": "../_library/foliage_orm.png"
  },
  {
   "mimeType": "image/png",
   "name": "foliage_albedo.png",
   "uri": "../_library/foliage_albedo.png"
  }
 ],
 "accessors": [
  {
   "bufferView": 0,
   "componentType": 5126,
   "count": 725,
   "max": [
    1.0499999523162842,
    1.690000057220459,
    -0.2934446334838867
   ],
   "min": [
    -1.0499999523162842,
    0.47999998927116394,
    -2.414158582687378
   ],
   "type": "VEC3"
  },
  {
   "bufferView": 1,
   "componentType": 5126,
   "count": 725,
   "type": "VEC3"
  },
  {
   "bufferView": 2,
   "componentType": 5126,
   "count": 725,
   "type": "VEC2"
  },
  {
   "bufferView": 3,
   "componentType": 5123,
   "count": 2010,
   "type": "SCALAR"
  },
  {
   "bufferView": 4,
   "componentType": 5126,
   "count": 240,
   "max": [
    1.2999999523162842,
    1.6979999542236328,
    0
   ],
   "min": [
    -1.2999999523162842,
    1.4019999504089355,
    -0.30000001192092896
   ],
   "type": "VEC3"
  },
  {
   "bufferView": 5,
   "componentType": 5126,
   "count": 240,
   "type": "VEC3"
  },
  {
   "bufferView": 6,
   "componentType": 5126,
   "count": 240,
   "type": "VEC2"
  },
  {
   "bufferView": 7,
   "componentType": 5123,
   "count": 396,
   "type": "SCALAR"
  },
  {
   "bufferView": 8,
   "componentType": 5126,
   "count": 290,
   "max": [
    1.0674145221710205,
    1.75741446018219,
    0.054999999701976776
   ],
   "min": [
    -1.0674145221710205,
    1.3425854444503784,
    0
   ],
   "type": "VEC3"
  },
  {
   "bufferView": 9,
   "componentType": 5126,
   "count": 290,
   "type": "VEC3"
  },
  {
   "bufferView": 10,
   "componentType": 5126,
   "count": 290,
   "type": "VEC2"
  },
  {
   "bufferView": 11,
   "componentType": 5123,
   "count": 720,
   "type": "SCALAR"
  },
  {
   "bufferView": 12,
   "componentType": 5126,
   "count": 2292,
   "max": [
    1.305999994277954,
    2.2043299674987793,
    0.05900000035762787
   ],
   "min": [
    -1.305999994277954,
    0.4699999690055847,
    -2.4200000762939453
   ],
   "type": "VEC3"
  },
  {
   "bufferView": 13,
   "componentType": 5126,
   "count": 2292,
   "type": "VEC3"
  },
  {
   "bufferView": 14,
   "componentType": 5126,
   "count": 2292,
   "type": "VEC2"
  },
  {
   "bufferView": 15,
   "componentType": 5123,
   "count": 3996,
   "type": "SCALAR"
  },
  {
   "bufferView": 16,
   "componentType": 5126,
   "count": 283,
   "max": [
    0.07500000298023224,
    2.140000104904175,
    -0.10399999469518661
   ],
   "min": [
    -0.07500000298023224,
    1.6980000734329224,
    -0.27000001072883606
   ],
   "type": "VEC3"
  },
  {
   "bufferView": 17,
   "componentType": 5126,
   "count": 283,
   "type": "VEC3"
  },
  {
   "bufferView": 18,
   "componentType": 5126,
   "count": 283,
   "type": "VEC2"
  },
  {
   "bufferView": 19,
   "componentType": 5123,
   "count": 672,
   "type": "SCALAR"
  },
  {
   "bufferView": 20,
   "componentType": 5126,
   "count": 30,
   "max": [
    0.052000001072883606,
    2.0106964111328125,
    -0.10300000011920929
   ],
   "min": [
    -0.052000001072883606,
    1.9093037843704224,
    -0.10500000417232513
   ],
   "type": "VEC3"
  },
  {
   "bufferView": 21,
   "componentType": 5126,
   "count": 30,
   "type": "VEC3"
  },
  {
   "bufferView": 22,
   "componentType": 5126,
   "count": 30,
   "type": "VEC2"
  },
  {
   "bufferView": 23,
   "componentType": 5123,
   "count": 84,
   "type": "SCALAR"
  },
  {
   "bufferView": 24,
   "componentType": 5126,
   "count": 735,
   "max": [
    1.2106446027755737,
    0.7229620218276978,
    -0.49327850341796875
   ],
   "min": [
    -1.198331594467163,
    0.27000001072883606,
    -2.5360894203186035
   ],
   "type": "VEC3"
  },
  {
   "bufferView": 25,
   "componentType": 5126,
   "count": 735,
   "type": "VEC3"
  },
  {
   "bufferView": 26,
   "componentType": 5126,
   "count": 735,
   "type": "VEC2"
  },
  {
   "bufferView": 27,
   "componentType": 5123,
   "count": 1323,
   "type": "SCALAR"
  },
  {
   "bufferView": 28,
   "componentType": 5126,
   "count": 24,
   "max": [
    -0.6725000143051147,
    1.7100000381469727,
    -0.30000001192092896
   ],
   "min": [
    -0.8324999809265137,
    0.5,
    -1.2999999523162842
   ],
   "type": "VEC3"
  },
  {
   "bufferView": 29,
   "componentType": 5126,
   "count": 24,
   "type": "VEC3"
  },
  {
   "bufferView": 30,
   "componentType": 5126,
   "count": 24,
   "type": "VEC2"
  },
  {
   "bufferView": 31,
   "componentType": 5123,
   "count": 36,
   "type": "SCALAR"
  },
  {
   "bufferView": 32,
   "componentType": 5126,
   "count": 24,
   "max": [
    -0.6725000143051147,
    1.100000023841858,
    -1.2999999523162842
   ],
   "min": [
    -0.8324999809265137,
    0.5,
    -2.3499999046325684
   ],
   "type": "VEC3"
  },
  {
   "bufferView": 33,
   "componentType": 5126,
   "count": 24,
   "type": "VEC3"
  },
  {
   "bufferView": 34,
   "componentType": 5126,
   "count": 24,
   "type": "VEC2"
  },
  {
   "bufferView": 35,
   "componentType": 5126,
   "count": 24,
   "max": [
    0.8324999809265137,
    1.7100000381469727,
    -0.30000001192092896
   ],
   "min": [
    0.6725000143051147,
    0.5,
    -1.2999999523162842
   ],
   "type": "VEC3"
  },
  {
   "bufferView": 36,
   "componentType": 5126,
   "count": 24,
   "type": "VEC3"
  },
  {
   "bufferView": 37,
   "componentType": 5126,
   "count": 24,
   "type": "VEC2"
  },
  {
   "bufferView": 38,
   "componentType": 5126,
   "count": 24,
   "max": [
    0.8324999809265137,
    1.100000023841858,
    -1.2999999523162842
   ],
   "min": [
    0.6725000143051147,
    0.5,
    -2.3499999046325684
   ],
   "type": "VEC3"
  },
  {
   "bufferView": 39,
   "componentType": 5126,
   "count": 24,
   "type": "VEC3"
  },
  {
   "bufferView": 40,
   "componentType": 5126,
   "count": 24,
   "type": "VEC2"
  },
  {
   "bufferView": 41,
   "componentType": 5126,
   "count": 24,
   "max": [
    1.2999999523162842,
    1.75,
    0
   ],
   "min": [
    -1.2999999523162842,
    1.350000023841858,
    -0.30000001192092896
   ],
   "type": "VEC3"
  },
  {
   "bufferView": 42,
   "componentType": 5126,
   "count": 24,
   "type": "VEC3"
  },
  {
   "bufferView": 43,
   "componentType": 5126,
   "count": 24,
   "type": "VEC2"
  }
 ],
 "bufferViews": [
  {
   "buffer": 0,
   "byteLength": 8700,
   "byteOffset": 0,
   "target": 34962
  },
  {
   "buffer": 0,
   "byteLength": 8700,
   "byteOffset": 8700,
   "target": 34962
  },
  {
   "buffer": 0,
   "byteLength": 5800,
   "byteOffset": 17400,
   "target": 34962
  },
  {
   "buffer": 0,
   "byteLength": 4020,
   "byteOffset": 23200,
   "target": 34963
  },
  {
   "buffer": 0,
   "byteLength": 2880,
   "byteOffset": 27220,
   "target": 34962
  },
  {
   "buffer": 0,
   "byteLength": 2880,
   "byteOffset": 30100,
   "target": 34962
  },
  {
   "buffer": 0,
   "byteLength": 1920,
   "byteOffset": 32980,
   "target": 34962
  },
  {
   "buffer": 0,
   "byteLength": 792,
   "byteOffset": 34900,
   "target": 34963
  },
  {
   "buffer": 0,
   "byteLength": 3480,
   "byteOffset": 35692,
   "target": 34962
  },
  {
   "buffer": 0,
   "byteLength": 3480,
   "byteOffset": 39172,
   "target": 34962
  },
  {
   "buffer": 0,
   "byteLength": 2320,
   "byteOffset": 42652,
   "target": 34962
  },
  {
   "buffer": 0,
   "byteLength": 1440,
   "byteOffset": 44972,
   "target": 34963
  },
  {
   "buffer": 0,
   "byteLength": 27504,
   "byteOffset": 46412,
   "target": 34962
  },
  {
   "buffer": 0,
   "byteLength": 27504,
   "byteOffset": 73916,
   "target": 34962
  },
  {
   "buffer": 0,
   "byteLength": 18336,
   "byteOffset": 101420,
   "target": 34962
  },
  {
   "buffer": 0,
   "byteLength": 7992,
   "byteOffset": 119756,
   "target": 34963
  },
  {
   "buffer": 0,
   "byteLength": 3396,
   "byteOffset": 127748,
   "target": 34962
  },
  {
   "buffer": 0,
   "byteLength": 3396,
   "byteOffset": 131144,
   "target": 34962
  },
  {
   "buffer": 0,
   "byteLength": 2264,
   "byteOffset": 134540,
   "target": 34962
  },
  {
   "buffer": 0,
   "byteLength": 1344,
   "byteOffset": 136804,
   "target": 34963
  },
  {
   "buffer": 0,
   "byteLength": 360,
   "byteOffset": 138148,
   "target": 34962
  },
  {
   "buffer": 0,
   "byteLength": 360,
   "byteOffset": 138508,
   "target": 34962
  },
  {
   "buffer": 0,
   "byteLength": 240,
   "byteOffset": 138868,
   "target": 34962
  },
  {
   "buffer": 0,
   "byteLength": 168,
   "byteOffset": 139108,
   "target": 34963
  },
  {
   "buffer": 0,
   "byteLength": 8820,
   "byteOffset": 139276,
   "target": 34962
  },
  {
   "buffer": 0,
   "byteLength": 8820,
   "byteOffset": 148096,
   "target": 34962
  },
  {
   "buffer": 0,
   "byteLength": 5880,
   "byteOffset": 156916,
   "target": 34962
  },
  {
   "buffer": 0,
   "byteLength": 2646,
   "byteOffset": 162796,
   "target": 34963
  },
  {
   "buffer": 0,
   "byteLength": 288,
   "byteOffset": 165444,
   "target": 34962
  },
  {
   "buffer": 0,
   "byteLength": 288,
   "byteOffset": 165732,
   "target": 34962
  },
  {
   "buffer": 0,
   "byteLength": 192,
   "byteOffset": 166020,
   "target": 34962
  },
  {
   "buffer": 0,
   "byteLength": 72,
   "byteOffset": 166212,
   "target": 34963
  },
  {
   "buffer": 0,
   "byteLength": 288,
   "byteOffset": 166284,
   "target": 34962
  },
  {
   "buffer": 0,
   "byteLength": 288,
   "byteOffset": 166572,
   "target": 34962
  },
  {
   "buffer": 0,
   "byteLength": 192,
   "byteOffset": 166860,
   "target": 34962
  },
  {
   "buffer": 0,
   "byteLength": 288,
   "byteOffset": 167052,
   "target": 34962
  },
  {
   "buffer": 0,
   "byteLength": 288,
   "byteOffset": 167340,
   "target": 34962
  },
  {
   "buffer": 0,
   "byteLength": 192,
   "byteOffset": 167628,
   "target": 34962
  },
  {
   "buffer": 0,
   "byteLength": 288,
   "byteOffset": 167820,
   "target": 34962
  },
  {
   "buffer": 0,
   "byteLength": 288,
   "byteOffset": 168108,
   "target": 34962
  },
  {
   "buffer": 0,
   "byteLength": 192,
   "byteOffset": 168396,
   "target": 34962
  },
  {
   "buffer": 0,
   "byteLength": 288,
   "byteOffset": 168588,
   "target": 34962
  },
  {
   "buffer": 0,
   "byteLength": 288,
   "byteOffset": 168876,
   "target": 34962
  },
  {
   "buffer": 0,
   "byteLength": 192,
   "byteOffset": 169164,
   "target": 34962
  }
 ],
 "samplers": [
  {
   "magFilter": 9729,
   "minFilter": 9987
  }
 ],
 "buffers": [
  {
   "byteLength": 169356,
   "uri": "rail_buffer.bin"
  }
 ]
}