{
 "asset": {
  "generator": "Khronos glTF Blender I/O v4.5.51",
  "version": "2.0"
 },
 "scene": 0,
 "scenes": [
  {
   "name": "Scene",
   "nodes": [
    0
   ]
  }
 ],
 "nodes": [
  {
   "mesh": 0,
   "name": "post"
  }
 ],
 "materials": [
  {
   "name": "painted_wood_white",
   "normalTexture": {
    "index": 0
   },
   "occlusionTexture": {
    "index": 1
   },
   "pbrMetallicRoughness": {
    "baseColorTexture": {
     "index": 2
    },
    "metallicRoughnessTexture": {
     "index": 1
    }
   }
  },
  {
   "name": "soot",
   "normalTexture": {
    "index": 3
   },
   "occlusionTexture": {
    "index": 4
   },
   "pbrMetallicRoughness": {
    "baseColorTexture": {
     "index": 5
    },
    "metallicRoughnessTexture": {
     "index": 4
    }
   }
  },
  {
   "name": "loco_black",
   "normalTexture": {
    "index": 6
   },
   "occlusionTexture": {
    "index": 7
   },
   "pbrMetallicRoughness": {
    "baseColorTexture": {
     "index": 8
    },
    "metallicRoughnessTexture": {
     "index": 7
    }
   }
  },
  {
   "name": "rail_signs",
   "normalTexture": {
    "index": 9
   },
   "occlusionTexture": {
    "index": 10
   },
   "pbrMetallicRoughness": {
    "baseColorTexture": {
     "index": 11
    },
    "metallicRoughnessTexture": {
     "index": 10
    }
   }
  },
  {
   "name": "rust_iron",
   "normalTexture": {
    "index": 12
   },
   "occlusionTexture": {
    "index": 13
   },
   "pbrMetallicRoughness": {
    "baseColorTexture": {
     "index": 14
    },
    "metallicRoughnessTexture": {
     "index": 13
    }
   }
  }
 ],
 "meshes": [
  {
   "name": "post",
   "primitives": [
    {
     "attributes": {
      "POSITION": 0,
      "NORMAL": 1,
      "TEXCOORD_0": 2
     },
     "indices": 3,
     "material": 0
    },
    {
     "attributes": {
      "POSITION": 4,
      "NORMAL": 5,
      "TEXCOORD_0": 6
     },
     "indices": 7,
     "material": 1
    },
    {
     "attributes": {
      "POSITION": 8,
      "NORMAL": 9,
      "TEXCOORD_0": 10
     },
     "indices": 11,
     "material": 2
    },
    {
     "attributes": {
      "POSITION": 12,
      "NORMAL": 13,
      "TEXCOORD_0": 14
     },
     "indices": 15,
     "material": 3
    },
    {
     "attributes": {
      "POSITION": 16,
      "NORMAL": 17,
      "TEXCOORD_0": 18
     },
     "indices": 3,
     "material": 4
    }
   ]
  }
 ],
 "textures": [
  {
   "sampler": 0,
   "source": 0
  },
  {
   "sampler": 0,
   "source": 1
  },
  {
   "sampler": 0,
   "source": 2
  },
  {
   "sampler": 0,
   "source": 3
  },
  {
   "sampler": 0,
   "source": 4
  },
  {
   "sampler": 0,
   "source": 5
  },
  {
   "sampler": 0,
   "source": 6
  },
  {
   "sampler": 0,
   "source": 7
  },
  {
   "sampler": 0,
   "source": 8
  },
  {
   "sampler": 0,
   "source": 9
  },
  {
   "sampler": 0,
   "source": 10
  },
  {
   "sampler": 0,
   "source": 11
  },
  {
   "sampler": 0,
   "source": 12
  },
  {
   "sampler": 0,
   "source": 13
  },
  {
   "sampler": 0,
   "source": 14
  }
 ],
 "images": [
  {
   "mimeType": "image/png",
   "name": "painted_wood_white_normal.png",
   "uri": "../_library/painted_wood_white_normal.png"
  },
  {
   "mimeType": "image/png",
   "name": "painted_wood_white_orm.png",
   "uri": "../_library/painted_wood_white_orm.png"
  },
  {
   "mimeType": "image/png",
   "name": "painted_wood_white_albedo.png",
   "uri": "../_library/painted_wood_white_albedo.png"
  },
  {
   "mimeType": "image/png",
   "name": "soot_normal.png",
   "uri": "../_library/soot_normal.png"
  },
  {
   "mimeType": "image/png",
   "name": "soot_orm.png",
   "uri": "../_library/soot_orm.png"
  },
  {
   "mimeType": "image/png",
   "name": "soot_albedo.png",
   "uri": "../_library/soot_albedo.png"
  },
  {
   "mimeType": "image/png",
   "name": "loco_black_normal.png",
   "uri": "../_library/loco_black_normal.png"
  },
  {
   "mimeType": "image/png",
   "name": "loco_black_orm.png",
   "uri": "../_library/loco_black_orm.png"
  },
  {
   "mimeType": "image/png",
   "name": "loco_black_albedo.png",
   "uri": "../_library/loco_black_albedo.png"
  },
  {
   "mimeType": "image/png",
   "name": "rail_signs_normal.png",
   "uri": "../_library/rail_signs_normal.png"
  },
  {
   "mimeType": "image/png",
   "name": "rail_signs_orm.png",
   "uri": "../_library/rail_signs_orm.png"
  },
  {
   "mimeType": "image/png",
   "name": "rail_signs_albedo.png",
   "uri": "../_library/rail_signs_albedo.png"
  },
  {
   "mimeType": "image/png",
   "name": "rust_iron_normal.png",
   "uri": "../_library/rust_iron_normal.png"
  },
  {
   "mimeType": "image/png",
   "name": "rust_iron_orm.png",
   "uri": "../_library/rust_iron_orm.png"
  },
  {
   "mimeType": "image/png",
   "name": "rust_iron_albedo.png",
   "uri": "../_library/rust_iron_albedo.png"
  }
 ],
 "accessors": [
  {
   "bufferView": 0,
   "componentType": 5126,
   "count": 48,
   "max": [
    0.15000000596046448,
    2.069999933242798,
    0.15000000596046448
   ],
   "min": [
    -0.15000000596046448,
    -0.2999999523162842,
    -0.15000000596046448
   ],
   "type": "VEC3"
  },
  {
   "bufferView": 1,
   "componentType": 5126,
   "count": 48,
   "type": "VEC3"
  },
  {
   "bufferView": 2,
   "componentType": 5126,
   "count": 48,
   "type": "VEC2"
  },
  {
   "bufferView": 3,
   "componentType": 5123,
   "count": 72,
   "type": "SCALAR"
  },
  {
   "bufferView": 4,
   "componentType": 5126,
   "count": 16,
   "max": [
    0.1340000033378601,
    0.3199999928474426,
    0.1340000033378601
   ],
   "min": [
    -0.1340000033378601,
    -0.30000001192092896,
    -0.1340000033378601
   ],
   "type": "VEC3"
  },
  {
   "bufferView": 5,
   "componentType": 5126,
   "count": 16,
   "type": "VEC3"
  },
  {
   "bufferView": 6,
   "componentType": 5126,
   "count": 16,
   "type": "VEC2"
  },
  {
   "bufferView": 7,
   "componentType": 5123,
   "count": 24,
   "type": "SCALAR"
  },
  {
   "bufferView": 8,
   "componentType": 5126,
   "count": 83,
   "max": [
    0.10400000214576721,
    2.5899999141693115,
    0.10400000214576721
   ],
   "min": [
    -0.10400000214576721,
    2.049999952316284,
    -0.10400000214576721
   ],
   "type": "VEC3"
  },
  {
   "bufferView": 9,
   "componentType": 5126,
   "count": 83,
   "type": "VEC3"
  },
  {
   "bufferView": 10,
   "componentType": 5126,
   "count": 83,
   "type": "VEC2"
  },
  {
   "bufferView": 11,
   "componentType": 5123,
   "count": 180,
   "type": "SCALAR"
  },
  {
   "bufferView": 12,
   "componentType": 5126,
   "count": 36,
   "max": [
    0.20000000298023224,
    2.370621681213379,
    0.14499999582767487
   ],
   "min": [
    -0.20000000298023224,
    1.4297887086868286,
    -0.14499999582767487
   ],
   "type": "VEC3"
  },
  {
   "bufferView": 13,
   "componentType": 5126,
   "count": 36,
   "type": "VEC3"
  },
  {
   "bufferView": 14,
   "componentType": 5126,
   "count": 36,
   "type": "VEC2"
  },
  {
   "bufferView": 15,
   "componentType": 5123,
   "count": 96,
   "type": "SCALAR"
  },
  {
   "bufferView": 16,
   "componentType": 5126,
   "count": 48,
   "max": [
    0.22100001573562622,
    1.3899999856948853,
    0.01899999938905239
   ],
   "min": [
    0.12999999523162842,
    0.1550000011920929,
    -0.01899999938905239
   ],
   "type": "VEC3"
  },
  {
   "bufferView": 17,
   "componentType": 5126,
   "count": 48,
   "type": "VEC3"
  },
  {
   "bufferView": 18,
   "componentType": 5126,
   "count": 48,
   "type": "VEC2"
  }
 ],
 "bufferViews": [
  {
   "buffer": 0,
   "byteLength": 576,
   "byteOffset": 0,
   "target": 34962
  },
  {
   "buffer": 0,
   "byteLength": 576,
   "byteOffset": 576,
   "target": 34962
  },
  {
   "buffer": 0,
   "byteLength": 384,
   "byteOffset": 1152,
   "target": 34962
  },
  {
   "buffer": 0,
   "byteLength": 144,
   "byteOffset": 1536,
   "target": 34963
  },
  {
   "buffer": 0,
   "byteLength": 192,
   "byteOffset": 1680,
   "target": 34962
  },
  {
   "buffer": 0,
   "byteLength": 192,
   "byteOffset": 1872,
   "target": 34962
  },
  {
   "buffer": 0,
   "byteLength": 128,
   "byteOffset": 2064,
   "target": 34962
  },
  {
   "buffer": 0,
   "byteLength": 48,
   "byteOffset": 2192,
   "target": 34963
  },
  {
   "buffer": 0,
   "byteLength": 996,
   "byteOffset": 2240,
   "target": 34962
  },
  {
   "buffer": 0,
   "byteLength": 996,
   "byteOffset": 3236,
   "target": 34962
  },
  {
   "buffer": 0,
   "byteLength": 664,
   "byteOffset": 4232,
   "target": 34962
  },
  {
   "buffer": 0,
   "byteLength": 360,
   "byteOffset": 4896,
   "target": 34963
  },
  {
   "buffer": 0,
   "byteLength": 432,
   "byteOffset": 5256,
   "target": 34962
  },
  {
   "buffer": 0,
   "byteLength": 432,
   "byteOffset": 5688,
   "target": 34962
  },
  {
   "buffer": 0,
   "byteLength": 288,
   "byteOffset": 6120,
   "target": 34962
  },
  {
   "buffer": 0,
   "byteLength": 192,
   "byteOffset": 6408,
   "target": 34963
  },
  {
   "buffer": 0,
   "byteLength": 576,
   "byteOffset": 6600,
   "target": 34962
  },
  {
   "buffer": 0,
   "byteLength": 576,
   "byteOffset": 7176,
   "target": 34962
  },
  {
   "buffer": 0,
   "byteLength": 384,
   "byteOffset": 7752,
   "target": 34962
  }
 ],
 "samplers": [
  {
   "magFilter": 9729,
   "minFilter": 9987
  }
 ],
 "buffers": [
  {
   "byteLength": 8136,
   "uri": "rail_crossing_post_far.bin"
  }
 ]
}