{
 "asset": {
  "generator": "Khronos glTF Blender I/O v4.5.51",
  "version": "2.0"
 },
 "scene": 0,
 "scenes": [
  {
   "name": "Scene",
   "nodes": [
    0
   ]
  }
 ],
 "nodes": [
  {
   "mesh": 0,
   "name": "prop_picket_fence_far"
  }
 ],
 "materials": [
  {
   "doubleSided": true,
   "name": "prop_picket_fence",
   "normalTexture": {
    "index": 0
   },
   "occlusionTexture": {
    "index": 1
   },
   "pbrMetallicRoughness": {
    "baseColorTexture": {
     "index": 2
    },
    "metallicRoughnessTexture": {
     "index": 1
    }
   }
  }
 ],
 "meshes": [
  {
   "name": "prop_picket_fence_far",
   "primitives": [
    {
     "attributes": {
      "POSITION": 0,
      "NORMAL": 1,
      "TEXCOORD_0": 2
     },
     "indices": 3,
     "material": 0
    }
   ]
  }
 ],
 "textures": [
  {
   "sampler": 0,
   "source": 0
  },
  {
   "sampler": 0,
   "source": 1
  },
  {
   "sampler": 0,
   "source": 2
  }
 ],
 "images": [
  {
   "mimeType": "image/png",
   "name": "prop_picket_fence_normal",
   "uri": "../prop_picket_fence/prop_picket_fence_normal.png"
  },
  {
   "mimeType": "image/png",
   "name": "prop_picket_fence_orm",
   "uri": "../prop_picket_fence/prop_picket_fence_orm.png"
  },
  {
   "mimeType": "image/png",
   "name": "prop_picket_fence_albedo",
   "uri": "../prop_picket_fence/prop_picket_fence_albedo.png"
  }
 ],
 "accessors": [
  {
   "bufferView": 0,
   "componentType": 5126,
   "count": 644,
   "max": [
    1.5,
    1.149999976158142,
    0.009999997913837433
   ],
   "min": [
    -1.5399999618530273,
    0,
    -0.07000000029802322
   ],
   "type": "VEC3"
  },
  {
   "bufferView": 1,
   "componentType": 5126,
   "count": 644,
   "type": "VEC3"
  },
  {
   "bufferView": 2,
   "componentType": 5126,
   "count": 644,
   "type": "VEC2"
  },
  {
   "bufferView": 3,
   "componentType": 5123,
   "count": 1164,
   "type": "SCALAR"
  }
 ],
 "bufferViews": [
  {
   "buffer": 0,
   "byteLength": 7728,
   "byteOffset": 0,
   "target": 34962
  },
  {
   "buffer": 0,
   "byteLength": 7728,
   "byteOffset": 7728,
   "target": 34962
  },
  {
   "buffer": 0,
   "byteLength": 5152,
   "byteOffset": 15456,
   "target": 34962
  },
  {
   "buffer": 0,
   "byteLength": 2328,
   "byteOffset": 20608,
   "target": 34963
  }
 ],
 "samplers": [
  {
   "magFilter": 9729,
   "minFilter": 9987
  }
 ],
 "buffers": [
  {
   "byteLength": 22936,
   "uri": "prop_picket_fence_far.bin"
  }
 ]
}