{
 "asset": {
  "generator": "Khronos glTF Blender I/O v4.5.51",
  "version": "2.0"
 },
 "scene": 0,
 "scenes": [
  {
   "name": "Scene",
   "nodes": [
    0,
    1,
    2,
    3
   ]
  }
 ],
 "nodes": [
  {
   "mesh": 0,
   "name": "rig_helideck_far_shell"
  },
  {
   "mesh": 1,
   "name": "rig_helideck_far_marks"
  },
  {
   "mesh": 2,
   "name": "rig_helideck_far_grating"
  },
  {
   "mesh": 3,
   "name": "rig_helideck_far_net"
  }
 ],
 "materials": [
  {
   "name": "rig_deck_green",
   "normalTexture": {
    "index": 0
   },
   "occlusionTexture": {
    "index": 1
   },
   "pbrMetallicRoughness": {
    "baseColorTexture": {
     "index": 2
    },
    "metallicRoughnessTexture": {
     "index": 1
    }
   }
  },
  {
   "name": "rig_paint_white",
   "normalTexture": {
    "index": 3
   },
   "occlusionTexture": {
    "index": 4
   },
   "pbrMetallicRoughness": {
    "baseColorTexture": {
     "index": 5
    },
    "metallicRoughnessTexture": {
     "index": 4
    }
   }
  },
  {
   "name": "rig_paint_grey",
   "normalTexture": {
    "index": 6
   },
   "occlusionTexture": {
    "index": 7
   },
   "pbrMetallicRoughness": {
    "baseColorTexture": {
     "index": 8
    },
    "metallicRoughnessTexture": {
     "index": 7
    }
   }
  },
  {
   "name": "rig_paint_yellow",
   "normalTexture": {
    "index": 9
   },
   "occlusionTexture": {
    "index": 10
   },
   "pbrMetallicRoughness": {
    "baseColorTexture": {
     "index": 11
    },
    "metallicRoughnessTexture": {
     "index": 10
    }
   }
  },
  {
   "name": "rig_lifeboat",
   "normalTexture": {
    "index": 12
   },
   "occlusionTexture": {
    "index": 13
   },
   "pbrMetallicRoughness": {
    "baseColorTexture": {
     "index": 14
    },
    "metallicRoughnessTexture": {
     "index": 13
    }
   }
  },
  {
   "name": "rig_mark_white",
   "normalTexture": {
    "index": 15
   },
   "occlusionTexture": {
    "index": 16
   },
   "pbrMetallicRoughness": {
    "baseColorTexture": {
     "index": 17
    },
    "metallicRoughnessTexture": {
     "index": 16
    }
   }
  },
  {
   "doubleSided": true,
   "name": "rig_grating",
   "normalTexture": {
    "index": 18
   },
   "occlusionTexture": {
    "index": 19
   },
   "pbrMetallicRoughness": {
    "baseColorTexture": {
     "index": 20
    },
    "metallicRoughnessTexture": {
     "index": 19
    }
   },
   "alphaMode": "MASK",
   "alphaCutoff": 0.5
  },
  {
   "doubleSided": true,
   "name": "rig_net",
   "normalTexture": {
    "index": 21
   },
   "occlusionTexture": {
    "index": 22
   },
   "pbrMetallicRoughness": {
    "baseColorTexture": {
     "index": 23
    },
    "metallicRoughnessTexture": {
     "index": 22
    }
   },
   "alphaMode": "MASK",
   "alphaCutoff": 0.5
  }
 ],
 "meshes": [
  {
   "name": "rig_helideck_far_shell",
   "primitives": [
    {
     "attributes": {
      "POSITION": 0,
      "NORMAL": 1,
      "TEXCOORD_0": 2
     },
     "indices": 3,
     "material": 0
    },
    {
     "attributes": {
      "POSITION": 4,
      "NORMAL": 5,
      "TEXCOORD_0": 6
     },
     "indices": 7,
     "material": 1
    },
    {
     "attributes": {
      "POSITION": 8,
      "NORMAL": 9,
      "TEXCOORD_0": 10
     },
     "indices": 11,
     "material": 2
    },
    {
     "attributes": {
      "POSITION": 12,
      "NORMAL": 13,
      "TEXCOORD_0": 14
     },
     "indices": 15,
     "material": 3
    },
    {
     "attributes": {
      "POSITION": 16,
      "NORMAL": 17,
      "TEXCOORD_0": 18
     },
     "indices": 19,
     "material": 4
    },
    {
     "attributes": {
      "POSITION": 20,
      "NORMAL": 21,
      "TEXCOORD_0": 22
     },
     "indices": 23,
     "material": 5
    }
   ]
  },
  {
   "name": "rig_helideck_far_marks",
   "primitives": [
    {
     "attributes": {
      "POSITION": 24,
      "NORMAL": 25,
      "TEXCOORD_0": 26
     },
     "indices": 27,
     "material": 5
    },
    {
     "attributes": {
      "POSITION": 28,
      "NORMAL": 29,
      "TEXCOORD_0": 30
     },
     "indices": 31,
     "material": 3
    }
   ]
  },
  {
   "name": "rig_helideck_far_grating",
   "primitives": [
    {
     "attributes": {
      "POSITION": 32,
      "NORMAL": 33,
      "TEXCOORD_0": 34
     },
     "indices": 35,
     "material": 6
    }
   ]
  },
  {
   "name": "rig_helideck_far_net",
   "primitives": [
    {
     "attributes": {
      "POSITION": 36,
      "NORMAL": 37,
      "TEXCOORD_0": 38
     },
     "indices": 39,
     "material": 7
    }
   ]
  }
 ],
 "textures": [
  {
   "sampler": 0,
   "source": 0
  },
  {
   "sampler": 0,
   "source": 1
  },
  {
   "sampler": 0,
   "source": 2
  },
  {
   "sampler": 0,
   "source": 3
  },
  {
   "sampler": 0,
   "source": 4
  },
  {
   "sampler": 0,
   "source": 5
  },
  {
   "sampler": 0,
   "source": 6
  },
  {
   "sampler": 0,
   "source": 7
  },
  {
   "sampler": 0,
   "source": 8
  },
  {
   "sampler": 0,
   "source": 9
  },
  {
   "sampler": 0,
   "source": 10
  },
  {
   "sampler": 0,
   "source": 11
  },
  {
   "sampler": 0,
   "source": 12
  },
  {
   "sampler": 0,
   "source": 13
  },
  {
   "sampler": 0,
   "source": 14
  },
  {
   "sampler": 0,
   "source": 15
  },
  {
   "sampler": 0,
   "source": 16
  },
  {
   "sampler": 0,
   "source": 17
  },
  {
   "sampler": 0,
   "source": 18
  },
  {
   "sampler": 0,
   "source": 19
  },
  {
   "sampler": 0,
   "source": 20
  },
  {
   "sampler": 0,
   "source": 21
  },
  {
   "sampler": 0,
   "source": 22
  },
  {
   "sampler": 0,
   "source": 23
  }
 ],
 "images": [
  {
   "mimeType": "image/png",
   "name": "rig_deck_green_normal.png",
   "uri": "../_library/rig_deck_green_normal.png"
  },
  {
   "mimeType": "image/png",
   "name": "rig_deck_green_orm.png",
   "uri": "../_library/rig_deck_green_orm.png"
  },
  {
   "mimeType": "image/png",
   "name": "rig_deck_green_albedo.png",
   "uri": "../_library/rig_deck_green_albedo.png"
  },
  {
   "mimeType": "image/png",
   "name": "rig_paint_white_normal.png",
   "uri": "../_library/rig_paint_white_normal.png"
  },
  {
   "mimeType": "image/png",
   "name": "rig_paint_white_orm.png",
   "uri": "../_library/rig_paint_white_orm.png"
  },
  {
   "mimeType": "image/png",
   "name": "rig_paint_white_albedo.png",
   "uri": "../_library/rig_paint_white_albedo.png"
  },
  {
   "mimeType": "image/png",
   "name": "rig_paint_grey_normal.png",
   "uri": "../_library/rig_paint_grey_normal.png"
  },
  {
   "mimeType": "image/png",
   "name": "rig_paint_grey_orm.png",
   "uri": "../_library/rig_paint_grey_orm.png"
  },
  {
   "mimeType": "image/png",
   "name": "rig_paint_grey_albedo.png",
   "uri": "../_library/rig_paint_grey_albedo.png"
  },
  {
   "mimeType": "image/png",
   "name": "rig_paint_yellow_normal.png",
   "uri": "../_library/rig_paint_yellow_normal.png"
  },
  {
   "mimeType": "image/png",
   "name": "rig_paint_yellow_orm.png",
   "uri": "../_library/rig_paint_yellow_orm.png"
  },
  {
   "mimeType": "image/png",
   "name": "rig_paint_yellow_albedo.png",
   "uri": "../_library/rig_paint_yellow_albedo.png"
  },
  {
   "mimeType": "image/png",
   "name": "rig_lifeboat_normal.png",
   "uri": "../_library/rig_lifeboat_normal.png"
  },
  {
   "mimeType": "image/png",
   "name": "rig_lifeboat_orm.png",
   "uri": "../_library/rig_lifeboat_orm.png"
  },
  {
   "mimeType": "image/png",
   "name": "rig_lifeboat_albedo.png",
   "uri": "../_library/rig_lifeboat_albedo.png"
  },
  {
   "mimeType": "image/png",
   "name": "rig_mark_white_normal.png",
   "uri": "../_library/rig_mark_white_normal.png"
  },
  {
   "mimeType": "image/png",
   "name": "rig_mark_white_orm.png",
   "uri": "../_library/rig_mark_white_orm.png"
  },
  {
   "mimeType": "image/png",
   "name": "rig_mark_white_albedo.png",
   "uri": "../_library/rig_mark_white_albedo.png"
  },
  {
   "mimeType": "image/png",
   "name": "rig_grating_normal.png",
   "uri": "../_library/rig_grating_normal.png"
  },
  {
   "mimeType": "image/png",
   "name": "rig_grating_orm.png",
   "uri": "../_library/rig_grating_orm.png"
  },
  {
   "mimeType": "image/png",
   "name": "rig_grating_albedo.png",
   "uri": "../_library/rig_grating_albedo.png"
  },
  {
   "mimeType": "image/png",
   "name": "rig_net_normal.png",
   "uri": "../_library/rig_net_normal.png"
  },
  {
   "mimeType": "image/png",
   "name": "rig_net_orm.png",
   "uri": "../_library/rig_net_orm.png"
  },
  {
   "mimeType": "image/png",
   "name": "rig_net_albedo.png",
   "uri": "../_library/rig_net_albedo.png"
  }
 ],
 "accessors": [
  {
   "bufferView": 0,
   "componentType": 5126,
   "count": 16,
   "max": [
    31,
    36,
    6
   ],
   "min": [
    11,
    35.939998626708984,
    -14
   ],
   "type": "VEC3"
  },
  {
   "bufferView": 1,
   "componentType": 5126,
   "count": 16,
   "type": "VEC3"
  },
  {
   "bufferView": 2,
   "componentType": 5126,
   "count": 16,
   "type": "VEC2"
  },
  {
   "bufferView": 3,
   "componentType": 5123,
   "count": 36,
   "type": "SCALAR"
  },
  {
   "bufferView": 4,
   "componentType": 5126,
   "count": 472,
   "max": [
    31.049999237060547,
    39.25,
    6.050000190734863
   ],
   "min": [
    10.949999809265137,
    30.17699432373047,
    -14.050000190734863
   ],
   "type": "VEC3"
  },
  {
   "bufferView": 5,
   "componentType": 5126,
   "count": 472,
   "type": "VEC3"
  },
  {
   "bufferView": 6,
   "componentType": 5126,
   "count": 472,
   "type": "VEC2"
  },
  {
   "bufferView": 7,
   "componentType": 5123,
   "count": 708,
   "type": "SCALAR"
  },
  {
   "bufferView": 8,
   "componentType": 5126,
   "count": 108,
   "max": [
    32.540000915527344,
    36.11464309692383,
    7.539999961853027
   ],
   "min": [
    9.460000038146973,
    36.04536056518555,
    -15.539999961853027
   ],
   "type": "VEC3"
  },
  {
   "bufferView": 9,
   "componentType": 5126,
   "count": 108,
   "type": "VEC3"
  },
  {
   "bufferView": 10,
   "componentType": 5126,
   "count": 108,
   "type": "VEC2"
  },
  {
   "bufferView": 11,
   "componentType": 5123,
   "count": 162,
   "type": "SCALAR"
  },
  {
   "bufferView": 12,
   "componentType": 5126,
   "count": 96,
   "max": [
    18.43000030517578,
    37,
    9.431641578674316
   ],
   "min": [
    17.170000076293945,
    33.41756820678711,
    5.92835807800293
   ],
   "type": "VEC3"
  },
  {
   "bufferView": 13,
   "componentType": 5126,
   "count": 96,
   "type": "VEC3"
  },
  {
   "bufferView": 14,
   "componentType": 5126,
   "count": 96,
   "type": "VEC2"
  },
  {
   "bufferView": 15,
   "componentType": 5123,
   "count": 144,
   "type": "SCALAR"
  },
  {
   "bufferView": 16,
   "componentType": 5126,
   "count": 48,
   "max": [
    14.274602890014648,
    39.34693145751953,
    -10.80256175994873
   ],
   "min": [
    12.326041221618652,
    37.563392639160156,
    -11.999378204345703
   ],
   "type": "VEC3"
  },
  {
   "bufferView": 17,
   "componentType": 5126,
   "count": 48,
   "type": "VEC3"
  },
  {
   "bufferView": 18,
   "componentType": 5126,
   "count": 48,
   "type": "VEC2"
  },
  {
   "bufferView": 19,
   "componentType": 5123,
   "count": 72,
   "type": "SCALAR"
  },
  {
   "bufferView": 20,
   "componentType": 5126,
   "count": 24,
   "max": [
    14.043158531188965,
    38.67966842651367,
    -10.877289772033691
   ],
   "min": [
    13.069120407104492,
    37.75775909423828,
    -11.592700958251953
   ],
   "type": "VEC3"
  },
  {
   "bufferView": 21,
   "componentType": 5126,
   "count": 24,
   "type": "VEC3"
  },
  {
   "bufferView": 22,
   "componentType": 5126,
   "count": 24,
   "type": "VEC2"
  },
  {
   "bufferView": 23,
   "componentType": 5123,
   "count": 36,
   "type": "SCALAR"
  },
  {
   "bufferView": 24,
   "componentType": 5126,
   "count": 426,
   "max": [
    30.920000076293945,
    36.00400161743164,
    5.920000076293945
   ],
   "min": [
    11.079999923706055,
    36.00299835205078,
    -13.920000076293945
   ],
   "type": "VEC3"
  },
  {
   "bufferView": 25,
   "componentType": 5126,
   "count": 426,
   "type": "VEC3"
  },
  {
   "bufferView": 26,
   "componentType": 5126,
   "count": 426,
   "type": "VEC2"
  },
  {
   "bufferView": 27,
   "componentType": 5123,
   "count": 1086,
   "type": "SCALAR"
  },
  {
   "bufferView": 28,
   "componentType": 5126,
   "count": 96,
   "max": [
    26.600000381469727,
    36.00299835205078,
    1.600000023841858
   ],
   "min": [
    15.399999618530273,
    36.00299835205078,
    -9.600000381469727
   ],
   "type": "VEC3"
  },
  {
   "bufferView": 29,
   "componentType": 5126,
   "count": 96,
   "type": "VEC3"
  },
  {
   "bufferView": 30,
   "componentType": 5126,
   "count": 96,
   "type": "VEC2"
  },
  {
   "bufferView": 31,
   "componentType": 5123,
   "count": 144,
   "type": "SCALAR"
  },
  {
   "bufferView": 32,
   "componentType": 5126,
   "count": 4,
   "max": [
    18.399999618530273,
    36,
    9.359999656677246
   ],
   "min": [
    17.200000762939453,
    33.650001525878906,
    6
   ],
   "type": "VEC3"
  },
  {
   "bufferView": 33,
   "componentType": 5126,
   "count": 4,
   "type": "VEC3"
  },
  {
   "bufferView": 34,
   "componentType": 5126,
   "count": 4,
   "type": "VEC2"
  },
  {
   "bufferView": 35,
   "componentType": 5123,
   "count": 6,
   "type": "SCALAR"
  },
  {
   "bufferView": 36,
   "componentType": 5126,
   "count": 36,
   "max": [
    32.5,
    36.08000183105469,
    7.5
   ],
   "min": [
    9.5,
    35.939998626708984,
    -15.5
   ],
   "type": "VEC3"
  },
  {
   "bufferView": 37,
   "componentType": 5126,
   "count": 36,
   "type": "VEC3"
  },
  {
   "bufferView": 38,
   "componentType": 5126,
   "count": 36,
   "type": "VEC2"
  },
  {
   "bufferView": 39,
   "componentType": 5123,
   "count": 54,
   "type": "SCALAR"
  }
 ],
 "bufferViews": [
  {
   "buffer": 0,
   "byteLength": 192,
   "byteOffset": 0,
   "target": 34962
  },
  {
   "buffer": 0,
   "byteLength": 192,
   "byteOffset": 192,
   "target": 34962
  },
  {
   "buffer": 0,
   "byteLength": 128,
   "byteOffset": 384,
   "target": 34962
  },
  {
   "buffer": 0,
   "byteLength": 72,
   "byteOffset": 512,
   "target": 34963
  },
  {
   "buffer": 0,
   "byteLength": 5664,
   "byteOffset": 584,
   "target": 34962
  },
  {
   "buffer": 0,
   "byteLength": 5664,
   "byteOffset": 6248,
   "target": 34962
  },
  {
   "buffer": 0,
   "byteLength": 3776,
   "byteOffset": 11912,
   "target": 34962
  },
  {
   "buffer": 0,
   "byteLength": 1416,
   "byteOffset": 15688,
   "target": 34963
  },
  {
   "buffer": 0,
   "byteLength": 1296,
   "byteOffset": 17104,
   "target": 34962
  },
  {
   "buffer": 0,
   "byteLength": 1296,
   "byteOffset": 18400,
   "target": 34962
  },
  {
   "buffer": 0,
   "byteLength": 864,
   "byteOffset": 19696,
   "target": 34962
  },
  {
   "buffer": 0,
   "byteLength": 324,
   "byteOffset": 20560,
   "target": 34963
  },
  {
   "buffer": 0,
   "byteLength": 1152,
   "byteOffset": 20884,
   "target": 34962
  },
  {
   "buffer": 0,
   "byteLength": 1152,
   "byteOffset": 22036,
   "target": 34962
  },
  {
   "buffer": 0,
   "byteLength": 768,
   "byteOffset": 23188,
   "target": 34962
  },
  {
   "buffer": 0,
   "byteLength": 288,
   "byteOffset": 23956,
   "target": 34963
  },
  {
   "buffer": 0,
   "byteLength": 576,
   "byteOffset": 24244,
   "target": 34962
  },
  {
   "buffer": 0,
   "byteLength": 576,
   "byteOffset": 24820,
   "target": 34962
  },
  {
   "buffer": 0,
   "byteLength": 384,
   "byteOffset": 25396,
   "target": 34962
  },
  {
   "buffer": 0,
   "byteLength": 144,
   "byteOffset": 25780,
   "target": 34963
  },
  {
   "buffer": 0,
   "byteLength": 288,
   "byteOffset": 25924,
   "target": 34962
  },
  {
   "buffer": 0,
   "byteLength": 288,
   "byteOffset": 26212,
   "target": 34962
  },
  {
   "buffer": 0,
   "byteLength": 192,
   "byteOffset": 26500,
   "target": 34962
  },
  {
   "buffer": 0,
   "byteLength": 72,
   "byteOffset": 26692,
   "target": 34963
  },
  {
   "buffer": 0,
   "byteLength": 5112,
   "byteOffset": 26764,
   "target": 34962
  },
  {
   "buffer": 0,
   "byteLength": 5112,
   "byteOffset": 31876,
   "target": 34962
  },
  {
   "buffer": 0,
   "byteLength": 3408,
   "byteOffset": 36988,
   "target": 34962
  },
  {
   "buffer": 0,
   "byteLength": 2172,
   "byteOffset": 40396,
   "target": 34963
  },
  {
   "buffer": 0,
   "byteLength": 1152,
   "byteOffset": 42568,
   "target": 34962
  },
  {
   "buffer": 0,
   "byteLength": 1152,
   "byteOffset": 43720,
   "target": 34962
  },
  {
   "buffer": 0,
   "byteLength": 768,
   "byteOffset": 44872,
   "target": 34962
  },
  {
   "buffer": 0,
   "byteLength": 288,
   "byteOffset": 45640,
   "target": 34963
  },
  {
   "buffer": 0,
   "byteLength": 48,
   "byteOffset": 45928,
   "target": 34962
  },
  {
   "buffer": 0,
   "byteLength": 48,
   "byteOffset": 45976,
   "target": 34962
  },
  {
   "buffer": 0,
   "byteLength": 32,
   "byteOffset": 46024,
   "target": 34962
  },
  {
   "buffer": 0,
   "byteLength": 12,
   "byteOffset": 46056,
   "target": 34963
  },
  {
   "buffer": 0,
   "byteLength": 432,
   "byteOffset": 46068,
   "target": 34962
  },
  {
   "buffer": 0,
   "byteLength": 432,
   "byteOffset": 46500,
   "target": 34962
  },
  {
   "buffer": 0,
   "byteLength": 288,
   "byteOffset": 46932,
   "target": 34962
  },
  {
   "buffer": 0,
   "byteLength": 108,
   "byteOffset": 47220,
   "target": 34963
  }
 ],
 "samplers": [
  {
   "magFilter": 9729,
   "minFilter": 9987
  }
 ],
 "buffers": [
  {
   "byteLength": 47328,
   "uri": "bld_rig_helideck_far.bin"
  }
 ]
}