{
 "asset": {
  "generator": "Khronos glTF Blender I/O v4.5.51",
  "version": "2.0"
 },
 "scene": 0,
 "scenes": [
  {
   "name": "Scene",
   "nodes": [
    0
   ]
  }
 ],
 "nodes": [
  {
   "mesh": 0,
   "name": "prop_bollard_far"
  }
 ],
 "materials": [
  {
   "doubleSided": true,
   "name": "prop_bollard",
   "normalTexture": {
    "index": 0
   },
   "occlusionTexture": {
    "index": 1
   },
   "pbrMetallicRoughness": {
    "baseColorTexture": {
     "index": 2
    },
    "metallicRoughnessTexture": {
     "index": 1
    }
   }
  }
 ],
 "meshes": [
  {
   "name": "prop_bollard_far",
   "primitives": [
    {
     "attributes": {
      "POSITION": 0,
      "NORMAL": 1,
      "TEXCOORD_0": 2
     },
     "indices": 3,
     "material": 0
    }
   ]
  }
 ],
 "textures": [
  {
   "sampler": 0,
   "source": 0
  },
  {
   "sampler": 0,
   "source": 1
  },
  {
   "sampler": 0,
   "source": 2
  }
 ],
 "images": [
  {
   "mimeType": "image/png",
   "name": "prop_bollard_normal",
   "uri": "../prop_bollard/prop_bollard_normal.png"
  },
  {
   "mimeType": "image/png",
   "name": "prop_bollard_orm",
   "uri": "../prop_bollard/prop_bollard_orm.png"
  },
  {
   "mimeType": "image/png",
   "name": "prop_bollard_albedo",
   "uri": "../prop_bollard/prop_bollard_albedo.png"
  }
 ],
 "accessors": [
  {
   "bufferView": 0,
   "componentType": 5126,
   "count": 185,
   "max": [
    0.1302306354045868,
    1.0194675922393799,
    0.13344572484493256
   ],
   "min": [
    -0.13035063445568085,
    -0.023888971656560898,
    -0.1305413693189621
   ],
   "type": "VEC3"
  },
  {
   "bufferView": 1,
   "componentType": 5126,
   "count": 185,
   "type": "VEC3"
  },
  {
   "bufferView": 2,
   "componentType": 5126,
   "count": 185,
   "type": "VEC2"
  },
  {
   "bufferView": 3,
   "componentType": 5123,
   "count": 384,
   "type": "SCALAR"
  }
 ],
 "bufferViews": [
  {
   "buffer": 0,
   "byteLength": 2220,
   "byteOffset": 0,
   "target": 34962
  },
  {
   "buffer": 0,
   "byteLength": 2220,
   "byteOffset": 2220,
   "target": 34962
  },
  {
   "buffer": 0,
   "byteLength": 1480,
   "byteOffset": 4440,
   "target": 34962
  },
  {
   "buffer": 0,
   "byteLength": 768,
   "byteOffset": 5920,
   "target": 34963
  }
 ],
 "samplers": [
  {
   "magFilter": 9729,
   "minFilter": 9987
  }
 ],
 "buffers": [
  {
   "byteLength": 6688,
   "uri": "prop_bollard_far.bin"
  }
 ]
}