{
	"asset":{
		"generator":"Khronos glTF Blender I/O v4.5.51",
		"version":"2.0"
	},
	"scene":0,
	"scenes":[
		{
			"name":"Scene",
			"nodes":[
				81
			]
		}
	],
	"nodes":[
		{
			"name":"Bip01 REye",
			"rotation":[
				6.609322554140817e-06,
				4.6772124733251985e-06,
				0.6514644026756287,
				0.758679211139679
			],
			"translation":[
				11.082025527954102,
				6.991772174835205,
				-3.188509941101074
			]
		},
		{
			"name":"Bip01 LEye",
			"rotation":[
				-6.450680757552618e-06,
				-8.295442967209965e-06,
				0.6514644026756287,
				0.758679211139679
			],
			"translation":[
				11.082026481628418,
				6.991751194000244,
				3.1885461807250977
			]
		},
		{
			"name":"Bip01 MBottomLip",
			"rotation":[
				-7.87944145486108e-07,
				2.1842031401320128e-06,
				-0.17364813387393951,
				0.9848077893257141
			],
			"translation":[
				10.554056167602539,
				-2.3331899642944336,
				-0.08900777250528336
			]
		},
		{
			"name":"Bip01 MTongue",
			"rotation":[
				0.0030303956009447575,
				0.013343105092644691,
				-0.17570440471172333,
				0.9843478798866272
			],
			"translation":[
				7.251130104064941,
				-1.5665819644927979,
				0.060973525047302246
			]
		},
		{
			"name":"Bip01 LMouthBottom",
			"rotation":[
				-0.038381095975637436,
				-0.21606484055519104,
				-0.1694072037935257,
				0.9608038663864136
			],
			"scale":[
				0.9999998807907104,
				1,
				0.9999999403953552
			],
			"translation":[
				10.335314750671387,
				-2.4357497692108154,
				1.307265043258667
			]
		},
		{
			"name":"Bip01 RMouthBottom",
			"rotation":[
				0.038288362324237823,
				0.21554115414619446,
				-0.1694263368844986,
				0.9609218239784241
			],
			"scale":[
				0.9999999403953552,
				1,
				0.9999998807907104
			],
			"translation":[
				10.314967155456543,
				-2.42158579826355,
				-1.4824965000152588
			]
		},
		{
			"children":[
				2,
				3,
				4,
				5
			],
			"name":"Bip01 MJaw",
			"rotation":[
				0.0012047525960952044,
				-0.004261402413249016,
				0.7641019821166992,
				0.6450803279876709
			],
			"scale":[
				1,
				0.9999999403953552,
				1
			],
			"translation":[
				3.289405107498169,
				1.2400248050689697,
				1.1749946224881569e-06
			]
		},
		{
			"name":"Bip01 RMasseter",
			"rotation":[
				-0.2581980228424072,
				0.28244930505752563,
				0.6814051270484924,
				0.6238936185836792
			],
			"scale":[
				1.000000238418579,
				1.0000001192092896,
				1.0000001192092896
			],
			"translation":[
				4.58027458190918,
				7.721069812774658,
				-5.719390392303467
			]
		},
		{
			"name":"Bip01 LMasseter",
			"rotation":[
				0.2582002282142639,
				-0.28245511651039124,
				0.6814025044441223,
				0.6238929033279419
			],
			"scale":[
				1.0000001192092896,
				1.0000001192092896,
				1.0000001192092896
			],
			"translation":[
				4.580275535583496,
				7.721038341522217,
				5.719432830810547
			]
		},
		{
			"name":"Bip01 MUpperLip",
			"rotation":[
				-8.19385732597766e-08,
				-2.6644088393368293e-06,
				0.6758843064308167,
				0.7370077967643738
			],
			"scale":[
				1.0000001192092896,
				1,
				1
			],
			"translation":[
				5.0816240310668945,
				11.83141040802002,
				1.620892908249516e-05
			]
		},
		{
			"name":"Bip01 RCaninus",
			"rotation":[
				-0.1906128227710724,
				0.175082728266716,
				0.6528337001800537,
				0.7119136452674866
			],
			"scale":[
				1.0000001192092896,
				1,
				1.0000001192092896
			],
			"translation":[
				6.248172760009766,
				10.813020706176758,
				-2.944700241088867
			]
		},
		{
			"name":"Bip01 LCaninus",
			"rotation":[
				0.19061292707920074,
				-0.17508627474308014,
				0.6528326272964478,
				0.7119137048721313
			],
			"scale":[
				1.0000001192092896,
				1.0000001192092896,
				1
			],
			"translation":[
				6.248173236846924,
				10.81300163269043,
				2.9447572231292725
			]
		},
		{
			"name":"Bip01 REyeBlinkBottom",
			"rotation":[
				-0.09612913429737091,
				0.08829668164253235,
				0.6701017022132874,
				0.7307027578353882
			],
			"scale":[
				1.0000001192092896,
				1.0000001192092896,
				1.0000001192092896
			],
			"translation":[
				10.374574661254883,
				8.75055980682373,
				-3.4110565185546875
			]
		},
		{
			"name":"Bip01 LEyeBlinkBottom",
			"rotation":[
				0.09612926095724106,
				-0.08830031752586365,
				0.6701011061668396,
				0.7307028770446777
			],
			"scale":[
				1.0000001192092896,
				0.9999998807907104,
				1
			],
			"translation":[
				10.3745756149292,
				8.750541687011719,
				3.411102533340454
			]
		},
		{
			"name":"Bip01 RUpperlip",
			"rotation":[
				-0.17031490802764893,
				0.170547217130661,
				0.6865417957305908,
				0.6859787702560425
			],
			"scale":[
				1,
				0.9999998211860657,
				1
			],
			"translation":[
				5.024821758270264,
				11.684236526489258,
				-1.4255629777908325
			]
		},
		{
			"name":"Bip01 LUpperlip",
			"rotation":[
				0.17012691497802734,
				-0.17036272585391998,
				0.6865876913070679,
				0.6860253810882568
			],
			"scale":[
				1,
				0.9999999403953552,
				1
			],
			"translation":[
				5.024821758270264,
				11.684226036071777,
				1.4256261587142944
			]
		},
		{
			"name":"Bip01 RMouthCorner",
			"rotation":[
				-0.15812979638576508,
				0.20154577493667603,
				0.7146279811859131,
				0.6509079337120056
			],
			"scale":[
				1.0000001192092896,
				1,
				1.0000001192092896
			],
			"translation":[
				4.082542896270752,
				10.71423053741455,
				-2.770092487335205
			]
		},
		{
			"name":"Bip01 LMouthCorner",
			"rotation":[
				0.15813302993774414,
				-0.20155294239521027,
				0.714625895023346,
				0.6509072184562683
			],
			"scale":[
				1.0000001192092896,
				1,
				1.0000001192092896
			],
			"translation":[
				4.082543849945068,
				10.714217185974121,
				2.770151138305664
			]
		},
		{
			"name":"Bip01 RCheek",
			"rotation":[
				-0.13256317377090454,
				0.1349373757839203,
				0.6999219059944153,
				0.6887149214744568
			],
			"scale":[
				1,
				0.9999999403953552,
				1
			],
			"translation":[
				8.475394248962402,
				9.653769493103027,
				-4.137372970581055
			]
		},
		{
			"name":"Bip01 LCheek",
			"rotation":[
				0.1325691193342209,
				-0.1349470615386963,
				0.6999202370643616,
				0.688713550567627
			],
			"translation":[
				8.475396156311035,
				9.653746604919434,
				4.137424468994141
			]
		},
		{
			"name":"Bip01 REyeBlinkTop",
			"rotation":[
				-0.10190209746360779,
				0.10861630737781525,
				0.5618585348129272,
				0.8137158155441284
			],
			"scale":[
				1.0000001192092896,
				1,
				1
			],
			"translation":[
				11.867778778076172,
				8.439645767211914,
				-3.33581280708313
			]
		},
		{
			"name":"Bip01 LEyeBlinkTop",
			"rotation":[
				0.10190214216709137,
				-0.10861929506063461,
				0.5618579387664795,
				0.8137158155441284
			],
			"translation":[
				11.867779731750488,
				8.439628601074219,
				3.3358561992645264
			]
		},
		{
			"name":"Bip01 RInnerEyebrow",
			"rotation":[
				-0.06418652087450027,
				0.05895683541893959,
				0.6733119487762451,
				0.7342038750648499
			],
			"scale":[
				1,
				0.9999999403953552,
				1
			],
			"translation":[
				13.005329132080078,
				9.465073585510254,
				-2.6413183212280273
			]
		},
		{
			"name":"Bip01 LInnerEyebrow",
			"rotation":[
				0.06418654322624207,
				-0.058960430324077606,
				0.6733115911483765,
				0.7342038750648499
			],
			"scale":[
				0.9999999403953552,
				0.9999999403953552,
				1
			],
			"translation":[
				13.005330085754395,
				9.465059280395508,
				2.6413676738739014
			]
		},
		{
			"name":"Bip01 MMiddleEyebrow",
			"rotation":[
				4.0672386347750944e-08,
				-1.8331705859964131e-06,
				0.6769024133682251,
				0.7360727787017822
			],
			"scale":[
				1.0000001192092896,
				1,
				1
			],
			"translation":[
				12.706456184387207,
				10.012906074523926,
				1.2246357982803602e-05
			]
		},
		{
			"name":"Bip01 ROuterEyebrow",
			"rotation":[
				-0.1803908795118332,
				0.1855863481760025,
				0.6560014486312866,
				0.7089985609054565
			],
			"scale":[
				1,
				0.9999998807907104,
				1.0000001192092896
			],
			"translation":[
				12.541525840759277,
				8.292976379394531,
				-4.926671504974365
			]
		},
		{
			"name":"Bip01 LOuterEyebrow",
			"rotation":[
				0.18039092421531677,
				-0.18558982014656067,
				0.6560004353523254,
				0.7089985609054565
			],
			"scale":[
				1,
				1.0000001192092896,
				1.0000001192092896
			],
			"translation":[
				12.541526794433594,
				8.292946815490723,
				4.926713466644287
			]
		},
		{
			"name":"Bip01 MNose",
			"rotation":[
				-8.574663468152721e-08,
				-2.6681475446821423e-06,
				0.6731290221214294,
				0.7395251393318176
			],
			"scale":[
				1,
				0.9999999403953552,
				1
			],
			"translation":[
				8.708086013793945,
				12.193281173706055,
				1.5778317902004346e-05
			]
		},
		{
			"children":[
				0,
				1,
				6,
				7,
				8,
				9,
				10,
				11,
				12,
				13,
				14,
				15,
				16,
				17,
				18,
				19,
				20,
				21,
				22,
				23,
				24,
				25,
				26,
				27
			],
			"name":"Bip01 Head",
			"rotation":[
				-1.1010885536677506e-09,
				9.742944939716836e-08,
				-0.0729379951953888,
				0.9973364472389221
			],
			"scale":[
				1.0000001192092896,
				1.0000001192092896,
				1
			],
			"translation":[
				6.926557540893555,
				-1.1801714208559133e-05,
				-2.3762768250890076e-06
			]
		},
		{
			"name":"Bip01 L Finger02",
			"rotation":[
				-1.4986974861130875e-07,
				-2.884992795770813e-07,
				0.10685897618532181,
				0.9942741990089417
			],
			"scale":[
				0.9999998211860657,
				0.9999999403953552,
				1
			],
			"translation":[
				3.100342273712158,
				7.62939453125e-06,
				-4.76837158203125e-07
			]
		},
		{
			"children":[
				29
			],
			"name":"Bip01 L Finger01",
			"rotation":[
				-3.374239554432279e-08,
				3.2617654710520583e-07,
				0.1126522421836853,
				0.9936344623565674
			],
			"scale":[
				1,
				0.9999999403953552,
				1.0000001192092896
			],
			"translation":[
				2.827826976776123,
				-9.5367431640625e-07,
				2.288818359375e-05
			]
		},
		{
			"children":[
				30
			],
			"name":"Bip01 L Finger0",
			"rotation":[
				0.6539384126663208,
				0.3667515814304352,
				-0.03328191861510277,
				0.6608706712722778
			],
			"scale":[
				1,
				1.0000001192092896,
				1
			],
			"translation":[
				2.6760926246643066,
				0.6282037496566772,
				-3.198246955871582
			]
		},
		{
			"name":"Bip01 L Finger12",
			"rotation":[
				2.701436230267973e-08,
				-3.2230929036813905e-07,
				0.021091599017381668,
				0.9997775554656982
			],
			"scale":[
				1.0000001192092896,
				1,
				1
			],
			"translation":[
				2.379063129425049,
				2.574920654296875e-05,
				-4.76837158203125e-07
			]
		},
		{
			"children":[
				32
			],
			"name":"Bip01 L Finger11",
			"rotation":[
				-3.6481293363976874e-07,
				1.4966687444939453e-07,
				0.09346993267536163,
				0.9956220984458923
			],
			"scale":[
				0.9999998211860657,
				1,
				1
			],
			"translation":[
				3.128955841064453,
				-1.6450881958007812e-05,
				-1.9073486328125e-06
			]
		},
		{
			"children":[
				33
			],
			"name":"Bip01 L Finger1",
			"rotation":[
				-0.0005942325224168599,
				0.004124837461858988,
				0.10714051872491837,
				0.9942351579666138
			],
			"scale":[
				1,
				1,
				0.9999999403953552
			],
			"translation":[
				9.438966751098633,
				-0.20392000675201416,
				-2.2424535751342773
			]
		},
		{
			"name":"Bip01 L Finger22",
			"rotation":[
				-4.652408946981268e-08,
				2.908981969085289e-06,
				0.09046712517738342,
				0.9958994388580322
			],
			"scale":[
				1,
				1.0000001192092896,
				1
			],
			"translation":[
				2.8488128185272217,
				1.8104910850524902e-06,
				-4.76837158203125e-06
			]
		},
		{
			"children":[
				35
			],
			"name":"Bip01 L Finger21",
			"rotation":[
				1.379090122100024e-07,
				-2.5178312057505536e-07,
				0.0665920078754425,
				0.9977803230285645
			],
			"scale":[
				1,
				1,
				1.0000001192092896
			],
			"translation":[
				3.801408052444458,
				-2.9802322387695312e-06,
				-2.6226043701171875e-06
			]
		},
		{
			"children":[
				36
			],
			"name":"Bip01 L Finger2",
			"rotation":[
				-0.1392015814781189,
				-0.02846546098589897,
				0.14461706578731537,
				0.9792336225509644
			],
			"translation":[
				9.559282302856445,
				-0.18640518188476562,
				0.1453390121459961
			]
		},
		{
			"name":"Bip01 L Finger32",
			"rotation":[
				-2.8996552714488644e-08,
				-8.792125782974836e-08,
				0.025095272809267044,
				0.9996850490570068
			],
			"scale":[
				1,
				0.9999998211860657,
				0.9999998807907104
			],
			"translation":[
				2.4442379474639893,
				1.5664845705032349e-06,
				6.9141387939453125e-06
			]
		},
		{
			"children":[
				38
			],
			"name":"Bip01 L Finger31",
			"rotation":[
				-1.470389463520405e-07,
				1.024085804601782e-06,
				0.04960629343986511,
				0.9987688660621643
			],
			"scale":[
				1,
				0.9999998211860657,
				1.0000001192092896
			],
			"translation":[
				3.369622230529785,
				-1.9371509552001953e-06,
				-7.867813110351562e-06
			]
		},
		{
			"children":[
				39
			],
			"name":"Bip01 L Finger3",
			"rotation":[
				-0.14773334562778473,
				-0.01908605918288231,
				0.1839892566204071,
				0.9715753197669983
			],
			"translation":[
				8.993639945983887,
				0.2269904613494873,
				2.3016700744628906
			]
		},
		{
			"name":"Bip01 L Finger42",
			"rotation":[
				-8.67564597939463e-09,
				-2.1668727185897296e-06,
				0.024951104074716568,
				0.9996886849403381
			],
			"scale":[
				0.9999998211860657,
				0.9999999403953552,
				1
			],
			"translation":[
				1.5358167886734009,
				-1.5020370483398438e-05,
				5.245208740234375e-06
			]
		},
		{
			"children":[
				41
			],
			"name":"Bip01 L Finger41",
			"rotation":[
				1.5277205989150389e-07,
				1.0784868891278165e-06,
				0.02144538424909115,
				0.9997700452804565
			],
			"scale":[
				0.9999998211860657,
				0.9999998807907104,
				0.9999999403953552
			],
			"translation":[
				2.908780574798584,
				1.6450881958007812e-05,
				-6.198883056640625e-06
			]
		},
		{
			"children":[
				42
			],
			"name":"Bip01 L Finger4",
			"rotation":[
				-0.22423362731933594,
				-0.043560873717069626,
				0.26742076873779297,
				0.936113178730011
			],
			"scale":[
				1.0000001192092896,
				1,
				1
			],
			"translation":[
				8.02381706237793,
				1.2019321918487549,
				3.974717617034912
			]
		},
		{
			"children":[
				31,
				34,
				37,
				40,
				43
			],
			"name":"Bip01 L Hand",
			"rotation":[
				-0.7147614359855652,
				0.01244872435927391,
				0.03602410480380058,
				0.6983290314674377
			],
			"scale":[
				0.9999998807907104,
				0.9999999403953552,
				1
			],
			"translation":[
				27.091936111450195,
				-5.1975250244140625e-05,
				-5.626678466796875e-05
			]
		},
		{
			"children":[
				44
			],
			"name":"Bip01 L Forearm",
			"rotation":[
				-2.44244546365735e-07,
				-3.451256134212599e-07,
				-0.17941690981388092,
				0.9837731122970581
			],
			"scale":[
				0.9999998807907104,
				1,
				1
			],
			"translation":[
				28.580087661743164,
				-2.9206275939941406e-05,
				-1.3262033462524414e-05
			]
		},
		{
			"children":[
				45
			],
			"name":"Bip01 L UpperArm",
			"rotation":[
				0.09000910073518753,
				0.266989529132843,
				-0.029683945700526237,
				0.9590275287628174
			],
			"scale":[
				0.9999998807907104,
				1,
				0.9999999403953552
			],
			"translation":[
				14.107935905456543,
				-1.0251998901367188e-05,
				-1.4983117580413818e-05
			]
		},
		{
			"children":[
				46
			],
			"name":"Bip01 L Clavicle",
			"rotation":[
				0.6135296821594238,
				-0.1139615997672081,
				0.7713326811790466,
				0.12505947053432465
			],
			"scale":[
				1.0000026226043701,
				1.000000238418579,
				1.000000238418579
			],
			"translation":[
				-6.206511497497559,
				0.7088101506233215,
				7.282190322875977
			]
		},
		{
			"name":"Bip01 R Finger02",
			"rotation":[
				1.9295730169233138e-07,
				1.9576734189286071e-07,
				0.10685886442661285,
				0.9942741990089417
			],
			"scale":[
				0.9999998807907104,
				0.9999998807907104,
				1
			],
			"translation":[
				3.100332260131836,
				-1.9073486328125e-06,
				0
			]
		},
		{
			"children":[
				48
			],
			"name":"Bip01 R Finger01",
			"rotation":[
				-2.6244093120908474e-08,
				-3.1399179079016903e-07,
				0.11265231668949127,
				0.9936344623565674
			],
			"scale":[
				1,
				0.9999998807907104,
				0.9999998807907104
			],
			"translation":[
				2.8278160095214844,
				9.5367431640625e-07,
				2.384185791015625e-06
			]
		},
		{
			"children":[
				49
			],
			"name":"Bip01 R Finger0",
			"rotation":[
				-0.6539391875267029,
				-0.36675161123275757,
				-0.03328172490000725,
				0.6608700752258301
			],
			"scale":[
				0.9999999403953552,
				1,
				0.9999999403953552
			],
			"translation":[
				2.6760895252227783,
				0.6282294988632202,
				3.1982593536376953
			]
		},
		{
			"name":"Bip01 R Finger12",
			"rotation":[
				1.0060521304922077e-07,
				5.775484268610853e-08,
				0.0210915245115757,
				0.999777615070343
			],
			"scale":[
				0.9999999403953552,
				1,
				1
			],
			"translation":[
				2.379060983657837,
				-2.86102294921875e-06,
				-1.1444091796875e-05
			]
		},
		{
			"children":[
				51
			],
			"name":"Bip01 R Finger11",
			"rotation":[
				2.5162736960737675e-07,
				-2.8062528301120437e-08,
				0.09346991777420044,
				0.9956220984458923
			],
			"scale":[
				1.0000001192092896,
				0.9999998807907104,
				1.0000001192092896
			],
			"translation":[
				3.1289520263671875,
				9.059906005859375e-06,
				9.059906005859375e-06
			]
		},
		{
			"children":[
				52
			],
			"name":"Bip01 R Finger1",
			"rotation":[
				0.0005936686065979302,
				-0.00412449985742569,
				0.10714053362607956,
				0.9942352175712585
			],
			"scale":[
				1,
				0.9999999403953552,
				0.9999999403953552
			],
			"translation":[
				9.438968658447266,
				-0.20390081405639648,
				2.242459297180176
			]
		},
		{
			"name":"Bip01 R Finger22",
			"rotation":[
				-2.1520304471778218e-07,
				8.813857732548058e-08,
				0.0904671847820282,
				0.9958994388580322
			],
			"scale":[
				1,
				1.0000001192092896,
				1.0000001192092896
			],
			"translation":[
				2.848839282989502,
				-9.763985872268677e-06,
				9.5367431640625e-07
			]
		},
		{
			"children":[
				54
			],
			"name":"Bip01 R Finger21",
			"rotation":[
				-1.1527420440415881e-07,
				1.7967842325106176e-08,
				0.06659197062253952,
				0.9977803230285645
			],
			"translation":[
				3.80139422416687,
				5.841255187988281e-06,
				5.4836273193359375e-06
			]
		},
		{
			"children":[
				55
			],
			"name":"Bip01 R Finger2",
			"rotation":[
				0.13920104503631592,
				0.028465915471315384,
				0.1446170210838318,
				0.9792337417602539
			],
			"scale":[
				1,
				1.0000001192092896,
				0.9999999403953552
			],
			"translation":[
				9.559276580810547,
				-0.1863877773284912,
				-0.1453380584716797
			]
		},
		{
			"name":"Bip01 R Finger32",
			"rotation":[
				-4.372772721694673e-08,
				-8.25644690394256e-08,
				0.025095395743846893,
				0.9996850490570068
			],
			"scale":[
				1,
				1.0000001192092896,
				0.9999999403953552
			],
			"translation":[
				2.4442152976989746,
				2.0187348127365112e-05,
				1.9073486328125e-06
			]
		},
		{
			"children":[
				57
			],
			"name":"Bip01 R Finger31",
			"rotation":[
				-8.741911194931618e-09,
				1.3940434939740953e-07,
				0.04960635304450989,
				0.9987688660621643
			],
			"scale":[
				0.9999999403953552,
				0.9999999403953552,
				1
			],
			"translation":[
				3.369662284851074,
				-1.0579824447631836e-05,
				1.1920928955078125e-06
			]
		},
		{
			"children":[
				58
			],
			"name":"Bip01 R Finger3",
			"rotation":[
				0.14773301780223846,
				0.019085921347141266,
				0.18398912250995636,
				0.9715753793716431
			],
			"scale":[
				0.9999999403953552,
				1,
				0.9999999403953552
			],
			"translation":[
				8.993632316589355,
				0.22700321674346924,
				-2.30167293548584
			]
		},
		{
			"name":"Bip01 R Finger42",
			"rotation":[
				5.298546490450917e-09,
				-4.0874500228937904e-08,
				0.024951135739684105,
				0.9996886849403381
			],
			"scale":[
				1,
				1.0000001192092896,
				1
			],
			"translation":[
				1.5358127355575562,
				-5.841255187988281e-06,
				1.9073486328125e-06
			]
		},
		{
			"children":[
				60
			],
			"name":"Bip01 R Finger41",
			"rotation":[
				-3.2766803315098514e-07,
				-5.84539279202545e-08,
				0.021445317193865776,
				0.9997700452804565
			],
			"scale":[
				1,
				1,
				1.0000001192092896
			],
			"translation":[
				2.9087812900543213,
				-5.364418029785156e-06,
				2.384185791015625e-06
			]
		},
		{
			"children":[
				61
			],
			"name":"Bip01 R Finger4",
			"rotation":[
				0.22423318028450012,
				0.04356170445680618,
				0.26742085814476013,
				0.9361132383346558
			],
			"scale":[
				0.9999999403953552,
				1.0000001192092896,
				0.9999998807907104
			],
			"translation":[
				8.023822784423828,
				1.2019457817077637,
				-3.9747166633605957
			]
		},
		{
			"children":[
				50,
				53,
				56,
				59,
				62
			],
			"name":"Bip01 R Hand",
			"rotation":[
				0.7147619724273682,
				-0.012448613531887531,
				0.03602411225438118,
				0.6983284950256348
			],
			"scale":[
				0.9999998807907104,
				0.9999997615814209,
				0.9999997615814209
			],
			"translation":[
				27.091922760009766,
				-3.886222839355469e-05,
				2.5272369384765625e-05
			]
		},
		{
			"children":[
				63
			],
			"name":"Bip01 R Forearm",
			"rotation":[
				2.593915269244462e-07,
				2.082114036738858e-07,
				-0.17941702902317047,
				0.9837731122970581
			],
			"scale":[
				0.9999998807907104,
				0.9999999403953552,
				0.9999999403953552
			],
			"translation":[
				28.58013916015625,
				-2.9087066650390625e-05,
				4.500150680541992e-05
			]
		},
		{
			"children":[
				64
			],
			"name":"Bip01 R UpperArm",
			"rotation":[
				-0.0900091677904129,
				-0.2669895589351654,
				-0.029683945700526237,
				0.9590275287628174
			],
			"scale":[
				0.9999999403953552,
				0.9999999403953552,
				1
			],
			"translation":[
				14.107956886291504,
				-9.626150131225586e-06,
				-1.9371509552001953e-06
			]
		},
		{
			"children":[
				65
			],
			"name":"Bip01 R Clavicle",
			"rotation":[
				-0.6135295033454895,
				0.11395945399999619,
				0.7713329195976257,
				0.1250612735748291
			],
			"scale":[
				1.0000015497207642,
				1.0000001192092896,
				1.0000001192092896
			],
			"translation":[
				-6.206510066986084,
				0.7088503241539001,
				-7.282183647155762
			]
		},
		{
			"children":[
				28,
				47,
				66
			],
			"name":"Bip01 Neck",
			"rotation":[
				-1.0954648743677353e-08,
				-4.425616566550161e-07,
				0.1684548258781433,
				0.9857094287872314
			],
			"scale":[
				0.9999998211860657,
				0.9999998211860657,
				1
			],
			"translation":[
				19.91416358947754,
				1.5633809566497803,
				3.133269274258055e-06
			]
		},
		{
			"children":[
				67
			],
			"name":"Bip01 Spine2",
			"rotation":[
				8.903641157687048e-10,
				5.40517604008528e-08,
				0.01556333340704441,
				0.9998788833618164
			],
			"scale":[
				1.0000001192092896,
				1.0000001192092896,
				1
			],
			"translation":[
				15.317582130432129,
				-0.012191295623779297,
				-2.399650384177221e-06
			]
		},
		{
			"children":[
				68
			],
			"name":"Bip01 Spine1",
			"rotation":[
				-1.976599328656903e-09,
				2.7968587446025595e-08,
				-0.01367945596575737,
				0.9999064207077026
			],
			"scale":[
				1,
				1,
				1.0000001192092896
			],
			"translation":[
				15.316884994506836,
				-0.012191593647003174,
				-2.094004685204709e-06
			]
		},
		{
			"name":"Bip01 L Toe0",
			"rotation":[
				-6.093887350289151e-07,
				6.550965281348908e-07,
				0.7071067690849304,
				0.7071067690849304
			],
			"scale":[
				0.9999999403953552,
				1,
				1
			],
			"translation":[
				10.162381172180176,
				13.62957763671875,
				-2.0996099920012057e-05
			]
		},
		{
			"children":[
				70
			],
			"name":"Bip01 L Foot",
			"rotation":[
				0.014937258325517178,
				-0.01971779763698578,
				0.0439126081764698,
				0.9987290501594543
			],
			"scale":[
				1.0000001192092896,
				1,
				1
			],
			"translation":[
				39.66890335083008,
				-1.4901161193847656e-05,
				-7.838010787963867e-06
			]
		},
		{
			"children":[
				71
			],
			"name":"Bip01 L Calf",
			"rotation":[
				6.403391950016157e-08,
				-6.461711876681875e-08,
				-0.06167898327112198,
				0.9980961084365845
			],
			"scale":[
				0.9999999403953552,
				1,
				0.9999999403953552
			],
			"translation":[
				39.90355682373047,
				3.6954879760742188e-06,
				-2.086162567138672e-07
			]
		},
		{
			"children":[
				72
			],
			"name":"Bip01 L Thigh",
			"rotation":[
				-0.0018706663977354765,
				-0.9900749921798706,
				-0.13801458477973938,
				0.02645968832075596
			],
			"scale":[
				0.9999999403953552,
				0.9999999403953552,
				1.0000001192092896
			],
			"translation":[
				-12.021269798278809,
				-0.3724934458732605,
				8.8368501663208
			]
		},
		{
			"name":"Bip01 R Toe0",
			"rotation":[
				5.946206442786206e-07,
				-5.914370149184833e-07,
				0.7071067690849304,
				0.7071067690849304
			],
			"scale":[
				0.9999999403953552,
				0.9999999403953552,
				1
			],
			"translation":[
				10.162374496459961,
				13.629575729370117,
				2.313632285222411e-05
			]
		},
		{
			"children":[
				74
			],
			"name":"Bip01 R Foot",
			"rotation":[
				-0.014937243424355984,
				0.01971798948943615,
				0.043912623077631,
				0.9987290501594543
			],
			"scale":[
				1,
				0.9999998807907104,
				1
			],
			"translation":[
				39.668907165527344,
				0,
				-4.380941390991211e-06
			]
		},
		{
			"children":[
				75
			],
			"name":"Bip01 R Calf",
			"rotation":[
				1.7845520616788235e-08,
				-9.377647103292475e-08,
				-0.061679065227508545,
				0.9980960488319397
			],
			"scale":[
				0.9999998807907104,
				1,
				1
			],
			"translation":[
				39.90353775024414,
				-3.6954879760742188e-06,
				1.7583370208740234e-06
			]
		},
		{
			"children":[
				76
			],
			"name":"Bip01 R Thigh",
			"rotation":[
				0.0018707455601543188,
				0.9900753498077393,
				-0.13801178336143494,
				0.026459580287337303
			],
			"scale":[
				1,
				0.9999997019767761,
				1
			],
			"translation":[
				-12.021271705627441,
				-0.372443825006485,
				-8.836848258972168
			]
		},
		{
			"children":[
				69,
				73,
				77
			],
			"name":"Bip01 Spine",
			"rotation":[
				-2.0975867300876416e-06,
				6.851274179098255e-07,
				-0.022256098687648773,
				0.9997522830963135
			],
			"scale":[
				1,
				1.0000001192092896,
				1
			],
			"translation":[
				12.025932312011719,
				-0.1628580242395401,
				-1.750310002535116e-05
			]
		},
		{
			"children":[
				78
			],
			"name":"Bip01 Pelvis",
			"rotation":[
				0.7071067690849304,
				0.7071067690849304,
				-1.0115257964571356e-06,
				3.09099092987708e-08
			],
			"scale":[
				1,
				0.9999998807907104,
				1
			],
			"translation":[
				3.019806626980426e-13,
				0,
				7.453889935837843e-20
			]
		},
		{
			"mesh":0,
			"name":"m111_hipoly_81_bones_opacity",
			"skin":0
		},
		{
			"children":[
				80,
				79
			],
			"name":"Bip01",
			"rotation":[
				0,
				-0.7071062922477722,
				0,
				0.7071073651313782
			],
			"scale":[
				0.009999999776482582,
				0.009999999776482582,
				0.009999999776482582
			],
			"translation":[
				0,
				0.8951848149299622,
				0
			]
		}
	],
	"materials":[
		{
			"doubleSided":true,
			"name":"m111_body",
			"normalTexture":{
				"index":0
			},
			"pbrMetallicRoughness":{
				"baseColorTexture":{
					"index":1
				},
				"metallicRoughnessTexture":{
					"index":2
				}
			}
		},
		{
			"doubleSided":true,
			"name":"m111_head",
			"normalTexture":{
				"index":3
			},
			"pbrMetallicRoughness":{
				"baseColorTexture":{
					"index":4
				},
				"metallicRoughnessTexture":{
					"index":5
				}
			}
		},
		{
			"doubleSided":true,
			"name":"m111_helmet",
			"normalTexture":{
				"index":6
			},
			"pbrMetallicRoughness":{
				"baseColorTexture":{
					"index":7
				},
				"metallicRoughnessTexture":{
					"index":8
				}
			}
		},
		{
			"doubleSided":true,
			"name":"m111_tools",
			"normalTexture":{
				"index":9
			},
			"pbrMetallicRoughness":{
				"baseColorTexture":{
					"index":10
				},
				"metallicRoughnessTexture":{
					"index":11
				}
			}
		},
		{
			"alphaMode":"BLEND",
			"doubleSided":true,
			"name":"m111_opacity",
			"normalTexture":{
				"index":12
			},
			"pbrMetallicRoughness":{
				"baseColorTexture":{
					"index":13
				},
				"metallicRoughnessTexture":{
					"index":14
				}
			}
		}
	],
	"meshes":[
		{
			"name":"Mesh",
			"primitives":[
				{
					"attributes":{
						"POSITION":0,
						"NORMAL":1,
						"TEXCOORD_0":2,
						"COLOR_0":3,
						"COLOR_1":4,
						"JOINTS_0":5,
						"WEIGHTS_0":6
					},
					"indices":7,
					"material":0
				},
				{
					"attributes":{
						"POSITION":8,
						"NORMAL":9,
						"TEXCOORD_0":10,
						"COLOR_0":11,
						"COLOR_1":12,
						"JOINTS_0":13,
						"WEIGHTS_0":14
					},
					"indices":15,
					"material":1
				},
				{
					"attributes":{
						"POSITION":16,
						"NORMAL":17,
						"TEXCOORD_0":18,
						"COLOR_0":19,
						"COLOR_1":20,
						"JOINTS_0":21,
						"WEIGHTS_0":22
					},
					"indices":23,
					"material":2
				},
				{
					"attributes":{
						"POSITION":24,
						"NORMAL":25,
						"TEXCOORD_0":26,
						"COLOR_0":27,
						"COLOR_1":28,
						"JOINTS_0":29,
						"WEIGHTS_0":30
					},
					"indices":31,
					"material":3
				},
				{
					"attributes":{
						"POSITION":32,
						"NORMAL":33,
						"TEXCOORD_0":34,
						"COLOR_0":35,
						"COLOR_1":36,
						"JOINTS_0":37,
						"WEIGHTS_0":38
					},
					"indices":39,
					"material":4
				}
			]
		}
	],
	"textures":[
		{
			"sampler":0,
			"source":0
		},
		{
			"sampler":0,
			"source":1
		},
		{
			"sampler":0,
			"source":2
		},
		{
			"sampler":0,
			"source":3
		},
		{
			"sampler":0,
			"source":4
		},
		{
			"sampler":0,
			"source":5
		},
		{
			"sampler":0,
			"source":6
		},
		{
			"sampler":0,
			"source":7
		},
		{
			"sampler":0,
			"source":8
		},
		{
			"sampler":0,
			"source":9
		},
		{
			"sampler":0,
			"source":10
		},
		{
			"sampler":0,
			"source":11
		},
		{
			"sampler":0,
			"source":12
		},
		{
			"sampler":0,
			"source":13
		},
		{
			"sampler":0,
			"source":14
		}
	],
	"images":[
		{
			"mimeType":"image/png",
			"name":"m111_body_normal",
			"uri":"m111_body_normal.png"
		},
		{
			"mimeType":"image/png",
			"name":"m111_body_color",
			"uri":"m111_body_color.png"
		},
		{
			"mimeType":"image/png",
			"name":"m111_body_surface",
			"uri":"m111_body_surface.png"
		},
		{
			"mimeType":"image/png",
			"name":"m111_head_normal",
			"uri":"m111_head_normal.png"
		},
		{
			"mimeType":"image/png",
			"name":"m111_head_color",
			"uri":"m111_head_color.png"
		},
		{
			"mimeType":"image/png",
			"name":"m111_head_surface",
			"uri":"m111_head_surface.png"
		},
		{
			"mimeType":"image/png",
			"name":"m111_helmet_normal",
			"uri":"m111_helmet_normal.png"
		},
		{
			"mimeType":"image/png",
			"name":"m111_helmet_color",
			"uri":"m111_helmet_color.png"
		},
		{
			"mimeType":"image/png",
			"name":"m111_helmet_surface",
			"uri":"m111_helmet_surface.png"
		},
		{
			"mimeType":"image/png",
			"name":"m111_tools_normal",
			"uri":"m111_tools_normal.png"
		},
		{
			"mimeType":"image/png",
			"name":"m111_tools_color",
			"uri":"m111_tools_color.png"
		},
		{
			"mimeType":"image/png",
			"name":"m111_tools_surface",
			"uri":"m111_tools_surface.png"
		},
		{
			"mimeType":"image/png",
			"name":"m111_opacity_normal",
			"uri":"m111_opacity_normal.png"
		},
		{
			"mimeType":"image/png",
			"name":"m111_opacity_color",
			"uri":"m111_opacity_color.png"
		},
		{
			"mimeType":"image/png",
			"name":"m111_opacity_surface",
			"uri":"m111_opacity_surface.png"
		}
	],
	"skins":[
		{
			"inverseBindMatrices":40,
			"joints":[
				79,
				78,
				69,
				68,
				67,
				28,
				0,
				1,
				6,
				2,
				3,
				4,
				5,
				7,
				8,
				9,
				10,
				11,
				12,
				13,
				14,
				15,
				16,
				17,
				18,
				19,
				20,
				21,
				22,
				23,
				24,
				25,
				26,
				27,
				47,
				46,
				45,
				44,
				31,
				30,
				29,
				34,
				33,
				32,
				37,
				36,
				35,
				40,
				39,
				38,
				43,
				42,
				41,
				66,
				65,
				64,
				63,
				50,
				49,
				48,
				53,
				52,
				51,
				56,
				55,
				54,
				59,
				58,
				57,
				62,
				61,
				60,
				73,
				72,
				71,
				70,
				77,
				76,
				75,
				74
			],
			"name":"Bip01"
		}
	],
	"accessors":[
		{
			"bufferView":0,
			"componentType":5126,
			"count":2255,
			"max":[
				0.6741141080856323,
				1.5872842073440552,
				0.20048360526561737
			],
			"min":[
				-0.6741140484809875,
				-0.0009260758524760604,
				-0.1668996959924698
			],
			"type":"VEC3"
		},
		{
			"bufferView":1,
			"componentType":5126,
			"count":2255,
			"type":"VEC3"
		},
		{
			"bufferView":2,
			"componentType":5126,
			"count":2255,
			"type":"VEC2"
		},
		{
			"bufferView":3,
			"componentType":5121,
			"count":2255,
			"normalized":true,
			"type":"VEC4"
		},
		{
			"bufferView":4,
			"componentType":5123,
			"count":2255,
			"normalized":true,
			"type":"VEC4"
		},
		{
			"bufferView":5,
			"componentType":5121,
			"count":2255,
			"type":"VEC4"
		},
		{
			"bufferView":6,
			"componentType":5126,
			"count":2255,
			"type":"VEC4"
		},
		{
			"bufferView":7,
			"componentType":5123,
			"count":10854,
			"type":"SCALAR"
		},
		{
			"bufferView":8,
			"componentType":5126,
			"count":1729,
			"max":[
				0.09571390599012375,
				1.795259714126587,
				0.14683814346790314
			],
			"min":[
				-0.09565579891204834,
				1.4884861707687378,
				-0.08986376971006393
			],
			"type":"VEC3"
		},
		{
			"bufferView":9,
			"componentType":5126,
			"count":1729,
			"type":"VEC3"
		},
		{
			"bufferView":10,
			"componentType":5126,
			"count":1729,
			"type":"VEC2"
		},
		{
			"bufferView":11,
			"componentType":5121,
			"count":1729,
			"normalized":true,
			"type":"VEC4"
		},
		{
			"bufferView":12,
			"componentType":5123,
			"count":1729,
			"normalized":true,
			"type":"VEC4"
		},
		{
			"bufferView":13,
			"componentType":5121,
			"count":1729,
			"type":"VEC4"
		},
		{
			"bufferView":14,
			"componentType":5126,
			"count":1729,
			"type":"VEC4"
		},
		{
			"bufferView":15,
			"componentType":5123,
			"count":9234,
			"type":"SCALAR"
		},
		{
			"bufferView":16,
			"componentType":5126,
			"count":1774,
			"max":[
				0.1407650113105774,
				1.8479995727539062,
				0.20500710606575012
			],
			"min":[
				-0.1407649964094162,
				1.595358967781067,
				-0.11663596332073212
			],
			"type":"VEC3"
		},
		{
			"bufferView":17,
			"componentType":5126,
			"count":1774,
			"type":"VEC3"
		},
		{
			"bufferView":18,
			"componentType":5126,
			"count":1774,
			"type":"VEC2"
		},
		{
			"bufferView":19,
			"componentType":5121,
			"count":1774,
			"normalized":true,
			"type":"VEC4"
		},
		{
			"bufferView":20,
			"componentType":5123,
			"count":1774,
			"normalized":true,
			"type":"VEC4"
		},
		{
			"bufferView":21,
			"componentType":5121,
			"count":1774,
			"type":"VEC4"
		},
		{
			"bufferView":22,
			"componentType":5126,
			"count":1774,
			"type":"VEC4"
		},
		{
			"bufferView":23,
			"componentType":5123,
			"count":5460,
			"type":"SCALAR"
		},
		{
			"bufferView":24,
			"componentType":5126,
			"count":1696,
			"max":[
				0.24034513533115387,
				1.0867173671722412,
				0.14855560660362244
			],
			"min":[
				-0.24471065402030945,
				0.5768792629241943,
				-0.12776845693588257
			],
			"type":"VEC3"
		},
		{
			"bufferView":25,
			"componentType":5126,
			"count":1696,
			"type":"VEC3"
		},
		{
			"bufferView":26,
			"componentType":5126,
			"count":1696,
			"type":"VEC2"
		},
		{
			"bufferView":27,
			"componentType":5121,
			"count":1696,
			"normalized":true,
			"type":"VEC4"
		},
		{
			"bufferView":28,
			"componentType":5123,
			"count":1696,
			"normalized":true,
			"type":"VEC4"
		},
		{
			"bufferView":29,
			"componentType":5121,
			"count":1696,
			"type":"VEC4"
		},
		{
			"bufferView":30,
			"componentType":5126,
			"count":1696,
			"type":"VEC4"
		},
		{
			"bufferView":31,
			"componentType":5123,
			"count":4908,
			"type":"SCALAR"
		},
		{
			"bufferView":32,
			"componentType":5126,
			"count":94,
			"max":[
				0.11164813488721848,
				1.7579798698425293,
				0.17412765324115753
			],
			"min":[
				-0.11164791136980057,
				1.5852664709091187,
				0.04546600580215454
			],
			"type":"VEC3"
		},
		{
			"bufferView":33,
			"componentType":5126,
			"count":94,
			"type":"VEC3"
		},
		{
			"bufferView":34,
			"componentType":5126,
			"count":94,
			"type":"VEC2"
		},
		{
			"bufferView":35,
			"componentType":5121,
			"count":94,
			"normalized":true,
			"type":"VEC4"
		},
		{
			"bufferView":36,
			"componentType":5123,
			"count":94,
			"normalized":true,
			"type":"VEC4"
		},
		{
			"bufferView":37,
			"componentType":5121,
			"count":94,
			"type":"VEC4"
		},
		{
			"bufferView":38,
			"componentType":5126,
			"count":94,
			"type":"VEC4"
		},
		{
			"bufferView":39,
			"componentType":5123,
			"count":324,
			"type":"SCALAR"
		},
		{
			"bufferView":40,
			"componentType":5126,
			"count":80,
			"type":"MAT4"
		}
	],
	"bufferViews":[
		{
			"buffer":0,
			"byteLength":27060,
			"byteOffset":0,
			"target":34962
		},
		{
			"buffer":0,
			"byteLength":27060,
			"byteOffset":27060,
			"target":34962
		},
		{
			"buffer":0,
			"byteLength":18040,
			"byteOffset":54120,
			"target":34962
		},
		{
			"buffer":0,
			"byteLength":9020,
			"byteOffset":72160,
			"target":34962
		},
		{
			"buffer":0,
			"byteLength":18040,
			"byteOffset":81180,
			"target":34962
		},
		{
			"buffer":0,
			"byteLength":9020,
			"byteOffset":99220,
			"target":34962
		},
		{
			"buffer":0,
			"byteLength":36080,
			"byteOffset":108240,
			"target":34962
		},
		{
			"buffer":0,
			"byteLength":21708,
			"byteOffset":144320,
			"target":34963
		},
		{
			"buffer":0,
			"byteLength":20748,
			"byteOffset":166028,
			"target":34962
		},
		{
			"buffer":0,
			"byteLength":20748,
			"byteOffset":186776,
			"target":34962
		},
		{
			"buffer":0,
			"byteLength":13832,
			"byteOffset":207524,
			"target":34962
		},
		{
			"buffer":0,
			"byteLength":6916,
			"byteOffset":221356,
			"target":34962
		},
		{
			"buffer":0,
			"byteLength":13832,
			"byteOffset":228272,
			"target":34962
		},
		{
			"buffer":0,
			"byteLength":6916,
			"byteOffset":242104,
			"target":34962
		},
		{
			"buffer":0,
			"byteLength":27664,
			"byteOffset":249020,
			"target":34962
		},
		{
			"buffer":0,
			"byteLength":18468,
			"byteOffset":276684,
			"target":34963
		},
		{
			"buffer":0,
			"byteLength":21288,
			"byteOffset":295152,
			"target":34962
		},
		{
			"buffer":0,
			"byteLength":21288,
			"byteOffset":316440,
			"target":34962
		},
		{
			"buffer":0,
			"byteLength":14192,
			"byteOffset":337728,
			"target":34962
		},
		{
			"buffer":0,
			"byteLength":7096,
			"byteOffset":351920,
			"target":34962
		},
		{
			"buffer":0,
			"byteLength":14192,
			"byteOffset":359016,
			"target":34962
		},
		{
			"buffer":0,
			"byteLength":7096,
			"byteOffset":373208,
			"target":34962
		},
		{
			"buffer":0,
			"byteLength":28384,
			"byteOffset":380304,
			"target":34962
		},
		{
			"buffer":0,
			"byteLength":10920,
			"byteOffset":408688,
			"target":34963
		},
		{
			"buffer":0,
			"byteLength":20352,
			"byteOffset":419608,
			"target":34962
		},
		{
			"buffer":0,
			"byteLength":20352,
			"byteOffset":439960,
			"target":34962
		},
		{
			"buffer":0,
			"byteLength":13568,
			"byteOffset":460312,
			"target":34962
		},
		{
			"buffer":0,
			"byteLength":6784,
			"byteOffset":473880,
			"target":34962
		},
		{
			"buffer":0,
			"byteLength":13568,
			"byteOffset":480664,
			"target":34962
		},
		{
			"buffer":0,
			"byteLength":6784,
			"byteOffset":494232,
			"target":34962
		},
		{
			"buffer":0,
			"byteLength":27136,
			"byteOffset":501016,
			"target":34962
		},
		{
			"buffer":0,
			"byteLength":9816,
			"byteOffset":528152,
			"target":34963
		},
		{
			"buffer":0,
			"byteLength":1128,
			"byteOffset":537968,
			"target":34962
		},
		{
			"buffer":0,
			"byteLength":1128,
			"byteOffset":539096,
			"target":34962
		},
		{
			"buffer":0,
			"byteLength":752,
			"byteOffset":540224,
			"target":34962
		},
		{
			"buffer":0,
			"byteLength":376,
			"byteOffset":540976,
			"target":34962
		},
		{
			"buffer":0,
			"byteLength":752,
			"byteOffset":541352,
			"target":34962
		},
		{
			"buffer":0,
			"byteLength":376,
			"byteOffset":542104,
			"target":34962
		},
		{
			"buffer":0,
			"byteLength":1504,
			"byteOffset":542480,
			"target":34962
		},
		{
			"buffer":0,
			"byteLength":648,
			"byteOffset":543984,
			"target":34963
		},
		{
			"buffer":0,
			"byteLength":5120,
			"byteOffset":544632
		}
	],
	"samplers":[
		{
			"magFilter":9729,
			"minFilter":9987
		}
	],
	"buffers":[
		{
			"byteLength":549752,
			"uri":"construction_male_01.bin"
		}
	]
}
