{
 "asset": {
  "generator": "Khronos glTF Blender I/O v4.5.51",
  "version": "2.0"
 },
 "scene": 0,
 "scenes": [
  {
   "name": "Scene",
   "nodes": [
    0,
    1,
    2,
    3,
    4,
    5,
    6,
    7,
    8,
    9,
    10,
    11,
    12
   ]
  }
 ],
 "nodes": [
  {
   "mesh": 0,
   "name": "deck"
  },
  {
   "mesh": 1,
   "name": "gates"
  },
  {
   "mesh": 2,
   "name": "detail"
  },
  {
   "mesh": 3,
   "name": "plants"
  },
  {
   "mesh": 4,
   "name": "col_wood_post_1"
  },
  {
   "mesh": 5,
   "name": "col_wood_post_2"
  },
  {
   "mesh": 6,
   "name": "col_wood_post_3"
  },
  {
   "mesh": 7,
   "name": "col_wood_post_4"
  },
  {
   "mesh": 8,
   "name": "col_wood_deck_1"
  },
  {
   "mesh": 9,
   "name": "ramp_nx_wood_approach_1"
  },
  {
   "mesh": 10,
   "name": "ramp_px_wood_approach_1"
  },
  {
   "mesh": 11,
   "name": "col_wood_gate_1"
  },
  {
   "mesh": 12,
   "name": "col_wood_gate_2"
  }
 ],
 "materials": [
  {
   "name": "sleeper_timber",
   "normalTexture": {
    "index": 0
   },
   "occlusionTexture": {
    "index": 1
   },
   "pbrMetallicRoughness": {
    "baseColorTexture": {
     "index": 2
    },
    "metallicRoughnessTexture": {
     "index": 1
    }
   }
  },
  {
   "name": "dirt_debris",
   "normalTexture": {
    "index": 3
   },
   "occlusionTexture": {
    "index": 4
   },
   "pbrMetallicRoughness": {
    "baseColorTexture": {
     "index": 5
    },
    "metallicRoughnessTexture": {
     "index": 4
    }
   }
  },
  {
   "name": "timber_beam",
   "normalTexture": {
    "index": 6
   },
   "occlusionTexture": {
    "index": 7
   },
   "pbrMetallicRoughness": {
    "baseColorTexture": {
     "index": 8
    },
    "metallicRoughnessTexture": {
     "index": 7
    }
   }
  },
  {
   "name": "painted_wood_white",
   "normalTexture": {
    "index": 9
   },
   "occlusionTexture": {
    "index": 10
   },
   "pbrMetallicRoughness": {
    "baseColorTexture": {
     "index": 11
    },
    "metallicRoughnessTexture": {
     "index": 10
    }
   }
  },
  {
   "name": "soot",
   "normalTexture": {
    "index": 12
   },
   "occlusionTexture": {
    "index": 13
   },
   "pbrMetallicRoughness": {
    "baseColorTexture": {
     "index": 14
    },
    "metallicRoughnessTexture": {
     "index": 13
    }
   }
  },
  {
   "name": "rail_signs",
   "normalTexture": {
    "index": 15
   },
   "occlusionTexture": {
    "index": 16
   },
   "pbrMetallicRoughness": {
    "baseColorTexture": {
     "index": 17
    },
    "metallicRoughnessTexture": {
     "index": 16
    }
   }
  },
  {
   "name": "rust_iron",
   "normalTexture": {
    "index": 18
   },
   "occlusionTexture": {
    "index": 19
   },
   "pbrMetallicRoughness": {
    "baseColorTexture": {
     "index": 20
    },
    "metallicRoughnessTexture": {
     "index": 19
    }
   }
  },
  {
   "name": "loco_black",
   "normalTexture": {
    "index": 21
   },
   "occlusionTexture": {
    "index": 22
   },
   "pbrMetallicRoughness": {
    "baseColorTexture": {
     "index": 23
    },
    "metallicRoughnessTexture": {
     "index": 22
    }
   }
  },
  {
   "doubleSided": true,
   "name": "foliage",
   "normalTexture": {
    "index": 24
   },
   "occlusionTexture": {
    "index": 25
   },
   "pbrMetallicRoughness": {
    "baseColorTexture": {
     "index": 26
    },
    "metallicRoughnessTexture": {
     "index": 25
    }
   }
  }
 ],
 "meshes": [
  {
   "name": "deck",
   "primitives": [
    {
     "attributes": {
      "POSITION": 0,
      "NORMAL": 1,
      "TEXCOORD_0": 2
     },
     "indices": 3,
     "material": 0
    },
    {
     "attributes": {
      "POSITION": 4,
      "NORMAL": 5,
      "TEXCOORD_0": 6
     },
     "indices": 7,
     "material": 1
    },
    {
     "attributes": {
      "POSITION": 8,
      "NORMAL": 9,
      "TEXCOORD_0": 10
     },
     "indices": 11,
     "material": 2
    }
   ]
  },
  {
   "name": "gates",
   "primitives": [
    {
     "attributes": {
      "POSITION": 12,
      "NORMAL": 13,
      "TEXCOORD_0": 14
     },
     "indices": 15,
     "material": 3
    },
    {
     "attributes": {
      "POSITION": 16,
      "NORMAL": 17,
      "TEXCOORD_0": 18
     },
     "indices": 19,
     "material": 4
    },
    {
     "attributes": {
      "POSITION": 20,
      "NORMAL": 21,
      "TEXCOORD_0": 22
     },
     "indices": 23,
     "material": 5
    },
    {
     "attributes": {
      "POSITION": 24,
      "NORMAL": 25,
      "TEXCOORD_0": 26
     },
     "indices": 27,
     "material": 6
    },
    {
     "attributes": {
      "POSITION": 28,
      "NORMAL": 29,
      "TEXCOORD_0": 30
     },
     "indices": 31,
     "material": 7
    }
   ]
  },
  {
   "name": "detail",
   "primitives": [
    {
     "attributes": {
      "POSITION": 32,
      "NORMAL": 33,
      "TEXCOORD_0": 34
     },
     "indices": 35,
     "material": 6
    },
    {
     "attributes": {
      "POSITION": 36,
      "NORMAL": 37,
      "TEXCOORD_0": 38
     },
     "indices": 39,
     "material": 5
    }
   ]
  },
  {
   "name": "plants",
   "primitives": [
    {
     "attributes": {
      "POSITION": 40,
      "NORMAL": 41,
      "TEXCOORD_0": 42
     },
     "indices": 43,
     "material": 8
    }
   ]
  },
  {
   "name": "col_wood_post_1",
   "primitives": [
    {
     "attributes": {
      "POSITION": 44,
      "NORMAL": 45,
      "TEXCOORD_0": 46
     },
     "indices": 47,
     "material": 0
    }
   ]
  },
  {
   "name": "col_wood_post_2",
   "primitives": [
    {
     "attributes": {
      "POSITION": 48,
      "NORMAL": 49,
      "TEXCOORD_0": 50
     },
     "indices": 47,
     "material": 0
    }
   ]
  },
  {
   "name": "col_wood_post_3",
   "primitives": [
    {
     "attributes": {
      "POSITION": 51,
      "NORMAL": 52,
      "TEXCOORD_0": 53
     },
     "indices": 47,
     "material": 0
    }
   ]
  },
  {
   "name": "col_wood_post_4",
   "primitives": [
    {
     "attributes": {
      "POSITION": 54,
      "NORMAL": 55,
      "TEXCOORD_0": 56
     },
     "indices": 47,
     "material": 0
    }
   ]
  },
  {
   "name": "col_wood_deck_1",
   "primitives": [
    {
     "attributes": {
      "POSITION": 57,
      "NORMAL": 58,
      "TEXCOORD_0": 59
     },
     "indices": 47,
     "material": 0
    }
   ]
  },
  {
   "name": "ramp_nx_wood_approach_1",
   "primitives": [
    {
     "attributes": {
      "POSITION": 60,
      "NORMAL": 61,
      "TEXCOORD_0": 62
     },
     "indices": 47,
     "material": 0
    }
   ]
  },
  {
   "name": "ramp_px_wood_approach_1",
   "primitives": [
    {
     "attributes": {
      "POSITION": 63,
      "NORMAL": 64,
      "TEXCOORD_0": 65
     },
     "indices": 47,
     "material": 0
    }
   ]
  },
  {
   "name": "col_wood_gate_1",
   "primitives": [
    {
     "attributes": {
      "POSITION": 66,
      "NORMAL": 67,
      "TEXCOORD_0": 68
     },
     "indices": 47,
     "material": 0
    }
   ]
  },
  {
   "name": "col_wood_gate_2",
   "primitives": [
    {
     "attributes": {
      "POSITION": 69,
      "NORMAL": 70,
      "TEXCOORD_0": 71
     },
     "indices": 47,
     "material": 0
    }
   ]
  }
 ],
 "textures": [
  {
   "sampler": 0,
   "source": 0
  },
  {
   "sampler": 0,
   "source": 1
  },
  {
   "sampler": 0,
   "source": 2
  },
  {
   "sampler": 0,
   "source": 3
  },
  {
   "sampler": 0,
   "source": 4
  },
  {
   "sampler": 0,
   "source": 5
  },
  {
   "sampler": 0,
   "source": 6
  },
  {
   "sampler": 0,
   "source": 7
  },
  {
   "sampler": 0,
   "source": 8
  },
  {
   "sampler": 0,
   "source": 9
  },
  {
   "sampler": 0,
   "source": 10
  },
  {
   "sampler": 0,
   "source": 11
  },
  {
   "sampler": 0,
   "source": 12
  },
  {
   "sampler": 0,
   "source": 13
  },
  {
   "sampler": 0,
   "source": 14
  },
  {
   "sampler": 0,
   "source": 15
  },
  {
   "sampler": 0,
   "source": 16
  },
  {
   "sampler": 0,
   "source": 17
  },
  {
   "sampler": 0,
   "source": 18
  },
  {
   "sampler": 0,
   "source": 19
  },
  {
   "sampler": 0,
   "source": 20
  },
  {
   "sampler": 0,
   "source": 21
  },
  {
   "sampler": 0,
   "source": 22
  },
  {
   "sampler": 0,
   "source": 23
  },
  {
   "sampler": 0,
   "source": 24
  },
  {
   "sampler": 0,
   "source": 25
  },
  {
   "sampler": 0,
   "source": 26
  }
 ],
 "images": [
  {
   "mimeType": "image/png",
   "name": "sleeper_timber_normal.png",
   "uri": "../_library/sleeper_timber_normal.png"
  },
  {
   "mimeType": "image/png",
   "name": "sleeper_timber_orm.png",
   "uri": "../_library/sleeper_timber_orm.png"
  },
  {
   "mimeType": "image/png",
   "name": "sleeper_timber_albedo.png",
   "uri": "../_library/sleeper_timber_albedo.png"
  },
  {
   "mimeType": "image/png",
   "name": "dirt_debris_normal.png",
   "uri": "../_library/dirt_debris_normal.png"
  },
  {
   "mimeType": "image/png",
   "name": "dirt_debris_orm.png",
   "uri": "../_library/dirt_debris_orm.png"
  },
  {
   "mimeType": "image/png",
   "name": "dirt_debris_albedo.png",
   "uri": "../_library/dirt_debris_albedo.png"
  },
  {
   "mimeType": "image/png",
   "name": "timber_beam_normal.png",
   "uri": "../_library/timber_beam_normal.png"
  },
  {
   "mimeType": "image/png",
   "name": "timber_beam_orm.png",
   "uri": "../_library/timber_beam_orm.png"
  },
  {
   "mimeType": "image/png",
   "name": "timber_beam_albedo.png",
   "uri": "../_library/timber_beam_albedo.png"
  },
  {
   "mimeType": "image/png",
   "name": "painted_wood_white_normal.png",
   "uri": "../_library/painted_wood_white_normal.png"
  },
  {
   "mimeType": "image/png",
   "name": "painted_wood_white_orm.png",
   "uri": "../_library/painted_wood_white_orm.png"
  },
  {
   "mimeType": "image/png",
   "name": "painted_wood_white_albedo.png",
   "uri": "../_library/painted_wood_white_albedo.png"
  },
  {
   "mimeType": "image/png",
   "name": "soot_normal.png",
   "uri": "../_library/soot_normal.png"
  },
  {
   "mimeType": "image/png",
   "name": "soot_orm.png",
   "uri": "../_library/soot_orm.png"
  },
  {
   "mimeType": "image/png",
   "name": "soot_albedo.png",
   "uri": "../_library/soot_albedo.png"
  },
  {
   "mimeType": "image/png",
   "name": "rail_signs_normal.png",
   "uri": "../_library/rail_signs_normal.png"
  },
  {
   "mimeType": "image/png",
   "name": "rail_signs_orm.png",
   "uri": "../_library/rail_signs_orm.png"
  },
  {
   "mimeType": "image/png",
   "name": "rail_signs_albedo.png",
   "uri": "../_library/rail_signs_albedo.png"
  },
  {
   "mimeType": "image/png",
   "name": "rust_iron_normal.png",
   "uri": "../_library/rust_iron_normal.png"
  },
  {
   "mimeType": "image/png",
   "name": "rust_iron_orm.png",
   "uri": "../_library/rust_iron_orm.png"
  },
  {
   "mimeType": "image/png",
   "name": "rust_iron_albedo.png",
   "uri": "../_library/rust_iron_albedo.png"
  },
  {
   "mimeType": "image/png",
   "name": "loco_black_normal.png",
   "uri": "../_library/loco_black_normal.png"
  },
  {
   "mimeType": "image/png",
   "name": "loco_black_orm.png",
   "uri": "../_library/loco_black_orm.png"
  },
  {
   "mimeType": "image/png",
   "name": "loco_black_albedo.png",
   "uri": "../_library/loco_black_albedo.png"
  },
  {
   "mimeType": "image/png",
   "name": "foliage_normal.png",
   "uri": "../_library/foliage_normal.png"
  },
  {
   "mimeType": "image/png",
   "name": "foliage_orm.png",
   "uri": "../_library/foliage_orm.png"
  },
  {
   "mimeType": "image/png",
   "name": "foliage_albedo.png",
   "uri": "../_library/foliage_albedo.png"
  }
 ],
 "accessors": [
  {
   "bufferView": 0,
   "componentType": 5126,
   "count": 10428,
   "max": [
    4.000236511230469,
    0.48674657940864563,
    2.4977118968963623
   ],
   "min": [
    -3.997408151626587,
    -0.1138165295124054,
    -2.497563600540161
   ],
   "type": "VEC3"
  },
  {
   "bufferView": 1,
   "componentType": 5126,
   "count": 10428,
   "type": "VEC3"
  },
  {
   "bufferView": 2,
   "componentType": 5126,
   "count": 10428,
   "type": "VEC2"
  },
  {
   "bufferView": 3,
   "componentType": 5123,
   "count": 30876,
   "type": "SCALAR"
  },
  {
   "bufferView": 4,
   "componentType": 5126,
   "count": 48,
   "max": [
    4,
    0.4480000138282776,
    2.450000047683716
   ],
   "min": [
    -4,
    -0.41999998688697815,
    -2.450000047683716
   ],
   "type": "VEC3"
  },
  {
   "bufferView": 5,
   "componentType": 5126,
   "count": 48,
   "type": "VEC3"
  },
  {
   "bufferView": 6,
   "componentType": 5126,
   "count": 48,
   "type": "VEC2"
  },
  {
   "bufferView": 7,
   "componentType": 5123,
   "count": 72,
   "type": "SCALAR"
  },
  {
   "bufferView": 8,
   "componentType": 5126,
   "count": 96,
   "max": [
    4.012933731079102,
    0.48658937215805054,
    2.509999990463257
   ],
   "min": [
    -4.012933731079102,
    -0.09858937561511993,
    -2.509999990463257
   ],
   "type": "VEC3"
  },
  {
   "bufferView": 9,
   "componentType": 5126,
   "count": 96,
   "type": "VEC3"
  },
  {
   "bufferView": 10,
   "componentType": 5126,
   "count": 96,
   "type": "VEC2"
  },
  {
   "bufferView": 11,
   "componentType": 5123,
   "count": 144,
   "type": "SCALAR"
  },
  {
   "bufferView": 12,
   "componentType": 5126,
   "count": 3336,
   "max": [
    5.2162981033325195,
    1.8700000047683716,
    3.8361151218414307
   ],
   "min": [
    -6.010700702667236,
    -0.5,
    -2.918424129486084
   ],
   "type": "VEC3"
  },
  {
   "bufferView": 13,
   "componentType": 5126,
   "count": 3336,
   "type": "VEC3"
  },
  {
   "bufferView": 14,
   "componentType": 5126,
   "count": 3336,
   "type": "VEC2"
  },
  {
   "bufferView": 15,
   "componentType": 5123,
   "count": 6000,
   "type": "SCALAR"
  },
  {
   "bufferView": 16,
   "componentType": 5126,
   "count": 96,
   "max": [
    2.8540000915527344,
    0.3199999928474426,
    2.824000120162964
   ],
   "min": [
    -2.8540000915527344,
    -0.40000003576278687,
    -2.824000120162964
   ],
   "type": "VEC3"
  },
  {
   "bufferView": 17,
   "componentType": 5126,
   "count": 96,
   "type": "VEC3"
  },
  {
   "bufferView": 18,
   "componentType": 5126,
   "count": 96,
   "type": "VEC2"
  },
  {
   "bufferView": 19,
   "componentType": 5123,
   "count": 144,
   "type": "SCALAR"
  },
  {
   "bufferView": 20,
   "componentType": 5126,
   "count": 168,
   "max": [
    4.304120063781738,
    1.1800000667572021,
    3.021195888519287
   ],
   "min": [
    -5.02869987487793,
    0.06863071769475937,
    -2.8575093746185303
   ],
   "type": "VEC3"
  },
  {
   "bufferView": 21,
   "componentType": 5126,
   "count": 168,
   "type": "VEC3"
  },
  {
   "bufferView": 22,
   "componentType": 5126,
   "count": 168,
   "type": "VEC2"
  },
  {
   "bufferView": 23,
   "componentType": 5123,
   "count": 480,
   "type": "SCALAR"
  },
  {
   "bufferView": 24,
   "componentType": 5126,
   "count": 128,
   "max": [
    3.3399999141693115,
    2.4000000953674316,
    3.190000057220459
   ],
   "min": [
    -3.3399999141693115,
    -0.40000009536743164,
    -3.190000057220459
   ],
   "type": "VEC3"
  },
  {
   "bufferView": 25,
   "componentType": 5126,
   "count": 128,
   "type": "VEC3"
  },
  {
   "bufferView": 26,
   "componentType": 5126,
   "count": 128,
   "type": "VEC2"
  },
  {
   "bufferView": 27,
   "componentType": 5123,
   "count": 264,
   "type": "SCALAR"
  },
  {
   "bufferView": 28,
   "componentType": 5126,
   "count": 128,
   "max": [
    3.3499999046325684,
    2.3899998664855957,
    3.6100001335144043
   ],
   "min": [
    -3.3499999046325684,
    1.7699999809265137,
    -3.6100001335144043
   ],
   "type": "VEC3"
  },
  {
   "bufferView": 29,
   "componentType": 5126,
   "count": 128,
   "type": "VEC3"
  },
  {
   "bufferView": 30,
   "componentType": 5126,
   "count": 128,
   "type": "VEC2"
  },
  {
   "bufferView": 31,
   "componentType": 5123,
   "count": 264,
   "type": "SCALAR"
  },
  {
   "bufferView": 32,
   "componentType": 5126,
   "count": 3456,
   "max": [
    5.274826526641846,
    2.342268943786621,
    3.5622692108154297
   ],
   "min": [
    -5.908318519592285,
    0.09799326956272125,
    -3.5622692108154297
   ],
   "type": "VEC3"
  },
  {
   "bufferView": 33,
   "componentType": 5126,
   "count": 3456,
   "type": "VEC3"
  },
  {
   "bufferView": 34,
   "componentType": 5126,
   "count": 3456,
   "type": "VEC2"
  },
  {
   "bufferView": 35,
   "componentType": 5123,
   "count": 5808,
   "type": "SCALAR"
  },
  {
   "bufferView": 36,
   "componentType": 5126,
   "count": 8,
   "max": [
    3.3519999980926514,
    2.379999876022339,
    3.6000001430511475
   ],
   "min": [
    -3.3519999980926514,
    1.7799999713897705,
    -3.6000001430511475
   ],
   "type": "VEC3"
  },
  {
   "bufferView": 37,
   "componentType": 5126,
   "count": 8,
   "type": "VEC3"
  },
  {
   "bufferView": 38,
   "componentType": 5126,
   "count": 8,
   "type": "VEC2"
  },
  {
   "bufferView": 39,
   "componentType": 5123,
   "count": 12,
   "type": "SCALAR"
  },
  {
   "bufferView": 40,
   "componentType": 5126,
   "count": 2195,
   "max": [
    3.85943341255188,
    0.6583038568496704,
    3.095921039581299
   ],
   "min": [
    -3.4926207065582275,
    0,
    -3.10398268699646
   ],
   "type": "VEC3"
  },
  {
   "bufferView": 41,
   "componentType": 5126,
   "count": 2195,
   "type": "VEC3"
  },
  {
   "bufferView": 42,
   "componentType": 5126,
   "count": 2195,
   "type": "VEC2"
  },
  {
   "bufferView": 43,
   "componentType": 5123,
   "count": 3951,
   "type": "SCALAR"
  },
  {
   "bufferView": 44,
   "componentType": 5126,
   "count": 24,
   "max": [
    2.8499999046325684,
    1.75,
    -2.620000123977661
   ],
   "min": [
    2.6500000953674316,
    0,
    -2.819999933242798
   ],
   "type": "VEC3"
  },
  {
   "bufferView": 45,
   "componentType": 5126,
   "count": 24,
   "type": "VEC3"
  },
  {
   "bufferView": 46,
   "componentType": 5126,
   "count": 24,
   "type": "VEC2"
  },
  {
   "bufferView": 47,
   "componentType": 5123,
   "count": 36,
   "type": "SCALAR"
  },
  {
   "bufferView": 48,
   "componentType": 5126,
   "count": 24,
   "max": [
    2.8499999046325684,
    1.75,
    2.819999933242798
   ],
   "min": [
    2.6500000953674316,
    0,
    2.620000123977661
   ],
   "type": "VEC3"
  },
  {
   "bufferView": 49,
   "componentType": 5126,
   "count": 24,
   "type": "VEC3"
  },
  {
   "bufferView": 50,
   "componentType": 5126,
   "count": 24,
   "type": "VEC2"
  },
  {
   "bufferView": 51,
   "componentType": 5126,
   "count": 24,
   "max": [
    -2.6500000953674316,
    1.75,
    -2.620000123977661
   ],
   "min": [
    -2.8499999046325684,
    0,
    -2.819999933242798
   ],
   "type": "VEC3"
  },
  {
   "bufferView": 52,
   "componentType": 5126,
   "count": 24,
   "type": "VEC3"
  },
  {
   "bufferView": 53,
   "componentType": 5126,
   "count": 24,
   "type": "VEC2"
  },
  {
   "bufferView": 54,
   "componentType": 5126,
   "count": 24,
   "max": [
    -2.6500000953674316,
    1.75,
    2.819999933242798
   ],
   "min": [
    -2.8499999046325684,
    0,
    2.620000123977661
   ],
   "type": "VEC3"
  },
  {
   "bufferView": 55,
   "componentType": 5126,
   "count": 24,
   "type": "VEC3"
  },
  {
   "bufferView": 56,
   "componentType": 5126,
   "count": 24,
   "type": "VEC2"
  },
  {
   "bufferView": 57,
   "componentType": 5126,
   "count": 24,
   "max": [
    1.8799999952316284,
    0.4880000054836273,
    2.5
   ],
   "min": [
    -1.8799999952316284,
    0.10000000149011612,
    -2.5
   ],
   "type": "VEC3"
  },
  {
   "bufferView": 58,
   "componentType": 5126,
   "count": 24,
   "type": "VEC3"
  },
  {
   "bufferView": 59,
   "componentType": 5126,
   "count": 24,
   "type": "VEC2"
  },
  {
   "bufferView": 60,
   "componentType": 5126,
   "count": 24,
   "max": [
    4,
    0.4880000054836273,
    2.5
   ],
   "min": [
    1.8799999952316284,
    0,
    -2.5
   ],
   "type": "VEC3"
  },
  {
   "bufferView": 61,
   "componentType": 5126,
   "count": 24,
   "type": "VEC3"
  },
  {
   "bufferView": 62,
   "componentType": 5126,
   "count": 24,
   "type": "VEC2"
  },
  {
   "bufferView": 63,
   "componentType": 5126,
   "count": 24,
   "max": [
    -1.8799999952316284,
    0.4880000054836273,
    2.5
   ],
   "min": [
    -4,
    0,
    -2.5
   ],
   "type": "VEC3"
  },
  {
   "bufferView": 64,
   "componentType": 5126,
   "count": 24,
   "type": "VEC3"
  },
  {
   "bufferView": 65,
   "componentType": 5126,
   "count": 24,
   "type": "VEC2"
  },
  {
   "bufferView": 66,
   "componentType": 5126,
   "count": 24,
   "max": [
    5.25,
    1.4500000476837158,
    -2.680000066757202
   ],
   "min": [
    2.869999885559082,
    0.15000000596046448,
    -2.950000047683716
   ],
   "type": "VEC3"
  },
  {
   "bufferView": 67,
   "componentType": 5126,
   "count": 24,
   "type": "VEC3"
  },
  {
   "bufferView": 68,
   "componentType": 5126,
   "count": 24,
   "type": "VEC2"
  },
  {
   "bufferView": 69,
   "componentType": 5126,
   "count": 24,
   "max": [
    -2.869999885559082,
    1.4500000476837158,
    -2.5
   ],
   "min": [
    -5.25,
    0.15000000596046448,
    -2.759999990463257
   ],
   "type": "VEC3"
  },
  {
   "bufferView": 70,
   "componentType": 5126,
   "count": 24,
   "type": "VEC3"
  },
  {
   "bufferView": 71,
   "componentType": 5126,
   "count": 24,
   "type": "VEC2"
  }
 ],
 "bufferViews": [
  {
   "buffer": 0,
   "byteLength": 125136,
   "byteOffset": 0,
   "target": 34962
  },
  {
   "buffer": 0,
   "byteLength": 125136,
   "byteOffset": 125136,
   "target": 34962
  },
  {
   "buffer": 0,
   "byteLength": 83424,
   "byteOffset": 250272,
   "target": 34962
  },
  {
   "buffer": 0,
   "byteLength": 61752,
   "byteOffset": 333696,
   "target": 34963
  },
  {
   "buffer": 0,
   "byteLength": 576,
   "byteOffset": 395448,
   "target": 34962
  },
  {
   "buffer": 0,
   "byteLength": 576,
   "byteOffset": 396024,
   "target": 34962
  },
  {
   "buffer": 0,
   "byteLength": 384,
   "byteOffset": 396600,
   "target": 34962
  },
  {
   "buffer": 0,
   "byteLength": 144,
   "byteOffset": 396984,
   "target": 34963
  },
  {
   "buffer": 0,
   "byteLength": 1152,
   "byteOffset": 397128,
   "target": 34962
  },
  {
   "buffer": 0,
   "byteLength": 1152,
   "byteOffset": 398280,
   "target": 34962
  },
  {
   "buffer": 0,
   "byteLength": 768,
   "byteOffset": 399432,
   "target": 34962
  },
  {
   "buffer": 0,
   "byteLength": 288,
   "byteOffset": 400200,
   "target": 34963
  },
  {
   "buffer": 0,
   "byteLength": 40032,
   "byteOffset": 400488,
   "target": 34962
  },
  {
   "buffer": 0,
   "byteLength": 40032,
   "byteOffset": 440520,
   "target": 34962
  },
  {
   "buffer": 0,
   "byteLength": 26688,
   "byteOffset": 480552,
   "target": 34962
  },
  {
   "buffer": 0,
   "byteLength": 12000,
   "byteOffset": 507240,
   "target": 34963
  },
  {
   "buffer": 0,
   "byteLength": 1152,
   "byteOffset": 519240,
   "target": 34962
  },
  {
   "buffer": 0,
   "byteLength": 1152,
   "byteOffset": 520392,
   "target": 34962
  },
  {
   "buffer": 0,
   "byteLength": 768,
   "byteOffset": 521544,
   "target": 34962
  },
  {
   "buffer": 0,
   "byteLength": 288,
   "byteOffset": 522312,
   "target": 34963
  },
  {
   "buffer": 0,
   "byteLength": 2016,
   "byteOffset": 522600,
   "target": 34962
  },
  {
   "buffer": 0,
   "byteLength": 2016,
   "byteOffset": 524616,
   "target": 34962
  },
  {
   "buffer": 0,
   "byteLength": 1344,
   "byteOffset": 526632,
   "target": 34962
  },
  {
   "buffer": 0,
   "byteLength": 960,
   "byteOffset": 527976,
   "target": 34963
  },
  {
   "buffer": 0,
   "byteLength": 1536,
   "byteOffset": 528936,
   "target": 34962
  },
  {
   "buffer": 0,
   "byteLength": 1536,
   "byteOffset": 530472,
   "target": 34962
  },
  {
   "buffer": 0,
   "byteLength": 1024,
   "byteOffset": 532008,
   "target": 34962
  },
  {
   "buffer": 0,
   "byteLength": 528,
   "byteOffset": 533032,
   "target": 34963
  },
  {
   "buffer": 0,
   "byteLength": 1536,
   "byteOffset": 533560,
   "target": 34962
  },
  {
   "buffer": 0,
   "byteLength": 1536,
   "byteOffset": 535096,
   "target": 34962
  },
  {
   "buffer": 0,
   "byteLength": 1024,
   "byteOffset": 536632,
   "target": 34962
  },
  {
   "buffer": 0,
   "byteLength": 528,
   "byteOffset": 537656,
   "target": 34963
  },
  {
   "buffer": 0,
   "byteLength": 41472,
   "byteOffset": 538184,
   "target": 34962
  },
  {
   "buffer": 0,
   "byteLength": 41472,
   "byteOffset": 579656,
   "target": 34962
  },
  {
   "buffer": 0,
   "byteLength": 27648,
   "byteOffset": 621128,
   "target": 34962
  },
  {
   "buffer": 0,
   "byteLength": 11616,
   "byteOffset": 648776,
   "target": 34963
  },
  {
   "buffer": 0,
   "byteLength": 96,
   "byteOffset": 660392,
   "target": 34962
  },
  {
   "buffer": 0,
   "byteLength": 96,
   "byteOffset": 660488,
   "target": 34962
  },
  {
   "buffer": 0,
   "byteLength": 64,
   "byteOffset": 660584,
   "target": 34962
  },
  {
   "buffer": 0,
   "byteLength": 24,
   "byteOffset": 660648,
   "target": 34963
  },
  {
   "buffer": 0,
   "byteLength": 26340,
   "byteOffset": 660672,
   "target": 34962
  },
  {
   "buffer": 0,
   "byteLength": 26340,
   "byteOffset": 687012,
   "target": 34962
  },
  {
   "buffer": 0,
   "byteLength": 17560,
   "byteOffset": 713352,
   "target": 34962
  },
  {
   "buffer": 0,
   "byteLength": 7902,
   "byteOffset": 730912,
   "target": 34963
  },
  {
   "buffer": 0,
   "byteLength": 288,
   "byteOffset": 738816,
   "target": 34962
  },
  {
   "buffer": 0,
   "byteLength": 288,
   "byteOffset": 739104,
   "target": 34962
  },
  {
   "buffer": 0,
   "byteLength": 192,
   "byteOffset": 739392,
   "target": 34962
  },
  {
   "buffer": 0,
   "byteLength": 72,
   "byteOffset": 739584,
   "target": 34963
  },
  {
   "buffer": 0,
   "byteLength": 288,
   "byteOffset": 739656,
   "target": 34962
  },
  {
   "buffer": 0,
   "byteLength": 288,
   "byteOffset": 739944,
   "target": 34962
  },
  {
   "buffer": 0,
   "byteLength": 192,
   "byteOffset": 740232,
   "target": 34962
  },
  {
   "buffer": 0,
   "byteLength": 288,
   "byteOffset": 740424,
   "target": 34962
  },
  {
   "buffer": 0,
   "byteLength": 288,
   "byteOffset": 740712,
   "target": 34962
  },
  {
   "buffer": 0,
   "byteLength": 192,
   "byteOffset": 741000,
   "target": 34962
  },
  {
   "buffer": 0,
   "byteLength": 288,
   "byteOffset": 741192,
   "target": 34962
  },
  {
   "buffer": 0,
   "byteLength": 288,
   "byteOffset": 741480,
   "target": 34962
  },
  {
   "buffer": 0,
   "byteLength": 192,
   "byteOffset": 741768,
   "target": 34962
  },
  {
   "buffer": 0,
   "byteLength": 288,
   "byteOffset": 741960,
   "target": 34962
  },
  {
   "buffer": 0,
   "byteLength": 288,
   "byteOffset": 742248,
   "target": 34962
  },
  {
   "buffer": 0,
   "byteLength": 192,
   "byteOffset": 742536,
   "target": 34962
  },
  {
   "buffer": 0,
   "byteLength": 288,
   "byteOffset": 742728,
   "target": 34962
  },
  {
   "buffer": 0,
   "byteLength": 288,
   "byteOffset": 743016,
   "target": 34962
  },
  {
   "buffer": 0,
   "byteLength": 192,
   "byteOffset": 743304,
   "target": 34962
  },
  {
   "buffer": 0,
   "byteLength": 288,
   "byteOffset": 743496,
   "target": 34962
  },
  {
   "buffer": 0,
   "byteLength": 288,
   "byteOffset": 743784,
   "target": 34962
  },
  {
   "buffer": 0,
   "byteLength": 192,
   "byteOffset": 744072,
   "target": 34962
  },
  {
   "buffer": 0,
   "byteLength": 288,
   "byteOffset": 744264,
   "target": 34962
  },
  {
   "buffer": 0,
   "byteLength": 288,
   "byteOffset": 744552,
   "target": 34962
  },
  {
   "buffer": 0,
   "byteLength": 192,
   "byteOffset": 744840,
   "target": 34962
  },
  {
   "buffer": 0,
   "byteLength": 288,
   "byteOffset": 745032,
   "target": 34962
  },
  {
   "buffer": 0,
   "byteLength": 288,
   "byteOffset": 745320,
   "target": 34962
  },
  {
   "buffer": 0,
   "byteLength": 192,
   "byteOffset": 745608,
   "target": 34962
  }
 ],
 "samplers": [
  {
   "magFilter": 9729,
   "minFilter": 9987
  }
 ],
 "buffers": [
  {
   "byteLength": 745800,
   "uri": "rail_crossing.bin"
  }
 ]
}