{
 "asset": {
  "generator": "Khronos glTF Blender I/O v4.5.51",
  "version": "2.0"
 },
 "scene": 0,
 "scenes": [
  {
   "name": "Scene",
   "nodes": [
    0,
    1,
    2,
    3,
    4,
    5
   ]
  }
 ],
 "nodes": [
  {
   "mesh": 0,
   "name": "post"
  },
  {
   "mesh": 1,
   "name": "iron"
  },
  {
   "mesh": 2,
   "name": "lamp"
  },
  {
   "mesh": 3,
   "name": "plants"
  },
  {
   "mesh": 4,
   "name": "light_warm_1"
  },
  {
   "mesh": 5,
   "name": "col_wood_post_1"
  }
 ],
 "materials": [
  {
   "name": "painted_wood_white",
   "normalTexture": {
    "index": 0
   },
   "occlusionTexture": {
    "index": 1
   },
   "pbrMetallicRoughness": {
    "baseColorTexture": {
     "index": 2
    },
    "metallicRoughnessTexture": {
     "index": 1
    }
   }
  },
  {
   "name": "soot",
   "normalTexture": {
    "index": 3
   },
   "occlusionTexture": {
    "index": 4
   },
   "pbrMetallicRoughness": {
    "baseColorTexture": {
     "index": 5
    },
    "metallicRoughnessTexture": {
     "index": 4
    }
   }
  },
  {
   "name": "concrete",
   "normalTexture": {
    "index": 6
   },
   "occlusionTexture": {
    "index": 7
   },
   "pbrMetallicRoughness": {
    "baseColorTexture": {
     "index": 8
    },
    "metallicRoughnessTexture": {
     "index": 7
    }
   }
  },
  {
   "name": "rust_iron",
   "normalTexture": {
    "index": 9
   },
   "occlusionTexture": {
    "index": 10
   },
   "pbrMetallicRoughness": {
    "baseColorTexture": {
     "index": 11
    },
    "metallicRoughnessTexture": {
     "index": 10
    }
   }
  },
  {
   "name": "rail_signs",
   "normalTexture": {
    "index": 12
   },
   "occlusionTexture": {
    "index": 13
   },
   "pbrMetallicRoughness": {
    "baseColorTexture": {
     "index": 14
    },
    "metallicRoughnessTexture": {
     "index": 13
    }
   }
  },
  {
   "name": "loco_black",
   "normalTexture": {
    "index": 15
   },
   "occlusionTexture": {
    "index": 16
   },
   "pbrMetallicRoughness": {
    "baseColorTexture": {
     "index": 17
    },
    "metallicRoughnessTexture": {
     "index": 16
    }
   }
  },
  {
   "doubleSided": true,
   "name": "foliage",
   "normalTexture": {
    "index": 18
   },
   "occlusionTexture": {
    "index": 19
   },
   "pbrMetallicRoughness": {
    "baseColorTexture": {
     "index": 20
    },
    "metallicRoughnessTexture": {
     "index": 19
    }
   }
  }
 ],
 "meshes": [
  {
   "name": "post",
   "primitives": [
    {
     "attributes": {
      "POSITION": 0,
      "NORMAL": 1,
      "TEXCOORD_0": 2
     },
     "indices": 3,
     "material": 0
    },
    {
     "attributes": {
      "POSITION": 4,
      "NORMAL": 5,
      "TEXCOORD_0": 6
     },
     "indices": 7,
     "material": 1
    },
    {
     "attributes": {
      "POSITION": 8,
      "NORMAL": 9,
      "TEXCOORD_0": 10
     },
     "indices": 7,
     "material": 2
    }
   ]
  },
  {
   "name": "iron",
   "primitives": [
    {
     "attributes": {
      "POSITION": 11,
      "NORMAL": 12,
      "TEXCOORD_0": 13
     },
     "indices": 14,
     "material": 3
    },
    {
     "attributes": {
      "POSITION": 15,
      "NORMAL": 16,
      "TEXCOORD_0": 17
     },
     "indices": 18,
     "material": 4
    },
    {
     "attributes": {
      "POSITION": 19,
      "NORMAL": 20,
      "TEXCOORD_0": 21
     },
     "indices": 22,
     "material": 5
    }
   ]
  },
  {
   "name": "lamp",
   "primitives": [
    {
     "attributes": {
      "POSITION": 23,
      "NORMAL": 24,
      "TEXCOORD_0": 25
     },
     "indices": 26,
     "material": 5
    }
   ]
  },
  {
   "name": "plants",
   "primitives": [
    {
     "attributes": {
      "POSITION": 27,
      "NORMAL": 28,
      "TEXCOORD_0": 29
     },
     "indices": 30,
     "material": 6
    }
   ]
  },
  {
   "name": "light_warm_1",
   "primitives": [
    {
     "attributes": {
      "POSITION": 31,
      "NORMAL": 32,
      "TEXCOORD_0": 33
     },
     "indices": 34,
     "material": 0
    }
   ]
  },
  {
   "name": "col_wood_post_1",
   "primitives": [
    {
     "attributes": {
      "POSITION": 35,
      "NORMAL": 36,
      "TEXCOORD_0": 37
     },
     "indices": 34,
     "material": 0
    }
   ]
  }
 ],
 "textures": [
  {
   "sampler": 0,
   "source": 0
  },
  {
   "sampler": 0,
   "source": 1
  },
  {
   "sampler": 0,
   "source": 2
  },
  {
   "sampler": 0,
   "source": 3
  },
  {
   "sampler": 0,
   "source": 4
  },
  {
   "sampler": 0,
   "source": 5
  },
  {
   "sampler": 0,
   "source": 6
  },
  {
   "sampler": 0,
   "source": 7
  },
  {
   "sampler": 0,
   "source": 8
  },
  {
   "sampler": 0,
   "source": 9
  },
  {
   "sampler": 0,
   "source": 10
  },
  {
   "sampler": 0,
   "source": 11
  },
  {
   "sampler": 0,
   "source": 12
  },
  {
   "sampler": 0,
   "source": 13
  },
  {
   "sampler": 0,
   "source": 14
  },
  {
   "sampler": 0,
   "source": 15
  },
  {
   "sampler": 0,
   "source": 16
  },
  {
   "sampler": 0,
   "source": 17
  },
  {
   "sampler": 0,
   "source": 18
  },
  {
   "sampler": 0,
   "source": 19
  },
  {
   "sampler": 0,
   "source": 20
  }
 ],
 "images": [
  {
   "mimeType": "image/png",
   "name": "painted_wood_white_normal.png",
   "uri": "../_library/painted_wood_white_normal.png"
  },
  {
   "mimeType": "image/png",
   "name": "painted_wood_white_orm.png",
   "uri": "../_library/painted_wood_white_orm.png"
  },
  {
   "mimeType": "image/png",
   "name": "painted_wood_white_albedo.png",
   "uri": "../_library/painted_wood_white_albedo.png"
  },
  {
   "mimeType": "image/png",
   "name": "soot_normal.png",
   "uri": "../_library/soot_normal.png"
  },
  {
   "mimeType": "image/png",
   "name": "soot_orm.png",
   "uri": "../_library/soot_orm.png"
  },
  {
   "mimeType": "image/png",
   "name": "soot_albedo.png",
   "uri": "../_library/soot_albedo.png"
  },
  {
   "mimeType": "image/png",
   "name": "concrete_normal.png",
   "uri": "../_library/concrete_normal.png"
  },
  {
   "mimeType": "image/png",
   "name": "concrete_orm.png",
   "uri": "../_library/concrete_orm.png"
  },
  {
   "mimeType": "image/png",
   "name": "concrete_albedo.png",
   "uri": "../_library/concrete_albedo.png"
  },
  {
   "mimeType": "image/png",
   "name": "rust_iron_normal.png",
   "uri": "../_library/rust_iron_normal.png"
  },
  {
   "mimeType": "image/png",
   "name": "rust_iron_orm.png",
   "uri": "../_library/rust_iron_orm.png"
  },
  {
   "mimeType": "image/png",
   "name": "rust_iron_albedo.png",
   "uri": "../_library/rust_iron_albedo.png"
  },
  {
   "mimeType": "image/png",
   "name": "rail_signs_normal.png",
   "uri": "../_library/rail_signs_normal.png"
  },
  {
   "mimeType": "image/png",
   "name": "rail_signs_orm.png",
   "uri": "../_library/rail_signs_orm.png"
  },
  {
   "mimeType": "image/png",
   "name": "rail_signs_albedo.png",
   "uri": "../_library/rail_signs_albedo.png"
  },
  {
   "mimeType": "image/png",
   "name": "loco_black_normal.png",
   "uri": "../_library/loco_black_normal.png"
  },
  {
   "mimeType": "image/png",
   "name": "loco_black_orm.png",
   "uri": "../_library/loco_black_orm.png"
  },
  {
   "mimeType": "image/png",
   "name": "loco_black_albedo.png",
   "uri": "../_library/loco_black_albedo.png"
  },
  {
   "mimeType": "image/png",
   "name": "foliage_normal.png",
   "uri": "../_library/foliage_normal.png"
  },
  {
   "mimeType": "image/png",
   "name": "foliage_orm.png",
   "uri": "../_library/foliage_orm.png"
  },
  {
   "mimeType": "image/png",
   "name": "foliage_albedo.png",
   "uri": "../_library/foliage_albedo.png"
  }
 ],
 "accessors": [
  {
   "bufferView": 0,
   "componentType": 5126,
   "count": 104,
   "max": [
    0.15000000596046448,
    2.069999933242798,
    0.15000000596046448
   ],
   "min": [
    -0.15000000596046448,
    -0.6000000834465027,
    -0.15000000596046448
   ],
   "type": "VEC3"
  },
  {
   "bufferView": 1,
   "componentType": 5126,
   "count": 104,
   "type": "VEC3"
  },
  {
   "bufferView": 2,
   "componentType": 5126,
   "count": 104,
   "type": "VEC2"
  },
  {
   "bufferView": 3,
   "componentType": 5123,
   "count": 168,
   "type": "SCALAR"
  },
  {
   "bufferView": 4,
   "componentType": 5126,
   "count": 64,
   "max": [
    0.1340000033378601,
    0.3051943778991699,
    0.1340000033378601
   ],
   "min": [
    -0.1340000033378601,
    -0.6000000238418579,
    -0.1340000033378601
   ],
   "type": "VEC3"
  },
  {
   "bufferView": 5,
   "componentType": 5126,
   "count": 64,
   "type": "VEC3"
  },
  {
   "bufferView": 6,
   "componentType": 5126,
   "count": 64,
   "type": "VEC2"
  },
  {
   "bufferView": 7,
   "componentType": 5123,
   "count": 132,
   "type": "SCALAR"
  },
  {
   "bufferView": 8,
   "componentType": 5126,
   "count": 64,
   "max": [
    0.2199999988079071,
    0.030000001192092896,
    0.2199999988079071
   ],
   "min": [
    -0.2199999988079071,
    -0.30000001192092896,
    -0.2199999988079071
   ],
   "type": "VEC3"
  },
  {
   "bufferView": 9,
   "componentType": 5126,
   "count": 64,
   "type": "VEC3"
  },
  {
   "bufferView": 10,
   "componentType": 5126,
   "count": 64,
   "type": "VEC2"
  },
  {
   "bufferView": 11,
   "componentType": 5126,
   "count": 1616,
   "max": [
    0.22100000083446503,
    2.6451940536499023,
    0.15049999952316284
   ],
   "min": [
    -0.20499999821186066,
    0.15000000596046448,
    -0.15049999952316284
   ],
   "type": "VEC3"
  },
  {
   "bufferView": 12,
   "componentType": 5126,
   "count": 1616,
   "type": "VEC3"
  },
  {
   "bufferView": 13,
   "componentType": 5126,
   "count": 1616,
   "type": "VEC2"
  },
  {
   "bufferView": 14,
   "componentType": 5123,
   "count": 3252,
   "type": "SCALAR"
  },
  {
   "bufferView": 15,
   "componentType": 5126,
   "count": 126,
   "max": [
    0.20000000298023224,
    2.376966953277588,
    0.1445000022649765
   ],
   "min": [
    -0.20000000298023224,
    1.4199999570846558,
    -0.1445000022649765
   ],
   "type": "VEC3"
  },
  {
   "bufferView": 16,
   "componentType": 5126,
   "count": 126,
   "type": "VEC3"
  },
  {
   "bufferView": 17,
   "componentType": 5126,
   "count": 126,
   "type": "VEC2"
  },
  {
   "bufferView": 18,
   "componentType": 5123,
   "count": 360,
   "type": "SCALAR"
  },
  {
   "bufferView": 19,
   "componentType": 5126,
   "count": 232,
   "max": [
    0.07964646071195602,
    2.5867886543273926,
    0.07500000298023224
   ],
   "min": [
    -0.07500000298023224,
    2.049999952316284,
    -0.0818352997303009
   ],
   "type": "VEC3"
  },
  {
   "bufferView": 20,
   "componentType": 5126,
   "count": 232,
   "type": "VEC3"
  },
  {
   "bufferView": 21,
   "componentType": 5126,
   "count": 232,
   "type": "VEC2"
  },
  {
   "bufferView": 22,
   "componentType": 5123,
   "count": 408,
   "type": "SCALAR"
  },
  {
   "bufferView": 23,
   "componentType": 5126,
   "count": 854,
   "max": [
    0.12600000202655792,
    2.615000009536743,
    0.12600000202655792
   ],
   "min": [
    -0.12600000202655792,
    2.169999837875366,
    -0.12600000202655792
   ],
   "type": "VEC3"
  },
  {
   "bufferView": 24,
   "componentType": 5126,
   "count": 854,
   "type": "VEC3"
  },
  {
   "bufferView": 25,
   "componentType": 5126,
   "count": 854,
   "type": "VEC2"
  },
  {
   "bufferView": 26,
   "componentType": 5123,
   "count": 2952,
   "type": "SCALAR"
  },
  {
   "bufferView": 27,
   "componentType": 5126,
   "count": 285,
   "max": [
    0.40665918588638306,
    0.3778092563152313,
    0.42937520146369934
   ],
   "min": [
    -0.5023406147956848,
    0,
    -0.32146692276000977
   ],
   "type": "VEC3"
  },
  {
   "bufferView": 28,
   "componentType": 5126,
   "count": 285,
   "type": "VEC3"
  },
  {
   "bufferView": 29,
   "componentType": 5126,
   "count": 285,
   "type": "VEC2"
  },
  {
   "bufferView": 30,
   "componentType": 5123,
   "count": 513,
   "type": "SCALAR"
  },
  {
   "bufferView": 31,
   "componentType": 5126,
   "count": 24,
   "max": [
    0.05000000074505806,
    2.359999895095825,
    0.05000000074505806
   ],
   "min": [
    -0.05000000074505806,
    2.259999990463257,
    -0.05000000074505806
   ],
   "type": "VEC3"
  },
  {
   "bufferView": 32,
   "componentType": 5126,
   "count": 24,
   "type": "VEC3"
  },
  {
   "bufferView": 33,
   "componentType": 5126,
   "count": 24,
   "type": "VEC2"
  },
  {
   "bufferView": 34,
   "componentType": 5123,
   "count": 36,
   "type": "SCALAR"
  },
  {
   "bufferView": 35,
   "componentType": 5126,
   "count": 24,
   "max": [
    0.12999999523162842,
    2.069999933242798,
    0.12999999523162842
   ],
   "min": [
    -0.12999999523162842,
    0,
    -0.12999999523162842
   ],
   "type": "VEC3"
  },
  {
   "bufferView": 36,
   "componentType": 5126,
   "count": 24,
   "type": "VEC3"
  },
  {
   "bufferView": 37,
   "componentType": 5126,
   "count": 24,
   "type": "VEC2"
  }
 ],
 "bufferViews": [
  {
   "buffer": 0,
   "byteLength": 1248,
   "byteOffset": 0,
   "target": 34962
  },
  {
   "buffer": 0,
   "byteLength": 1248,
   "byteOffset": 1248,
   "target": 34962
  },
  {
   "buffer": 0,
   "byteLength": 832,
   "byteOffset": 2496,
   "target": 34962
  },
  {
   "buffer": 0,
   "byteLength": 336,
   "byteOffset": 3328,
   "target": 34963
  },
  {
   "buffer": 0,
   "byteLength": 768,
   "byteOffset": 3664,
   "target": 34962
  },
  {
   "buffer": 0,
   "byteLength": 768,
   "byteOffset": 4432,
   "target": 34962
  },
  {
   "buffer": 0,
   "byteLength": 512,
   "byteOffset": 5200,
   "target": 34962
  },
  {
   "buffer": 0,
   "byteLength": 264,
   "byteOffset": 5712,
   "target": 34963
  },
  {
   "buffer": 0,
   "byteLength": 768,
   "byteOffset": 5976,
   "target": 34962
  },
  {
   "buffer": 0,
   "byteLength": 768,
   "byteOffset": 6744,
   "target": 34962
  },
  {
   "buffer": 0,
   "byteLength": 512,
   "byteOffset": 7512,
   "target": 34962
  },
  {
   "buffer": 0,
   "byteLength": 19392,
   "byteOffset": 8024,
   "target": 34962
  },
  {
   "buffer": 0,
   "byteLength": 19392,
   "byteOffset": 27416,
   "target": 34962
  },
  {
   "buffer": 0,
   "byteLength": 12928,
   "byteOffset": 46808,
   "target": 34962
  },
  {
   "buffer": 0,
   "byteLength": 6504,
   "byteOffset": 59736,
   "target": 34963
  },
  {
   "buffer": 0,
   "byteLength": 1512,
   "byteOffset": 66240,
   "target": 34962
  },
  {
   "buffer": 0,
   "byteLength": 1512,
   "byteOffset": 67752,
   "target": 34962
  },
  {
   "buffer": 0,
   "byteLength": 1008,
   "byteOffset": 69264,
   "target": 34962
  },
  {
   "buffer": 0,
   "byteLength": 720,
   "byteOffset": 70272,
   "target": 34963
  },
  {
   "buffer": 0,
   "byteLength": 2784,
   "byteOffset": 70992,
   "target": 34962
  },
  {
   "buffer": 0,
   "byteLength": 2784,
   "byteOffset": 73776,
   "target": 34962
  },
  {
   "buffer": 0,
   "byteLength": 1856,
   "byteOffset": 76560,
   "target": 34962
  },
  {
   "buffer": 0,
   "byteLength": 816,
   "byteOffset": 78416,
   "target": 34963
  },
  {
   "buffer": 0,
   "byteLength": 10248,
   "byteOffset": 79232,
   "target": 34962
  },
  {
   "buffer": 0,
   "byteLength": 10248,
   "byteOffset": 89480,
   "target": 34962
  },
  {
   "buffer": 0,
   "byteLength": 6832,
   "byteOffset": 99728,
   "target": 34962
  },
  {
   "buffer": 0,
   "byteLength": 5904,
   "byteOffset": 106560,
   "target": 34963
  },
  {
   "buffer": 0,
   "byteLength": 3420,
   "byteOffset": 112464,
   "target": 34962
  },
  {
   "buffer": 0,
   "byteLength": 3420,
   "byteOffset": 115884,
   "target": 34962
  },
  {
   "buffer": 0,
   "byteLength": 2280,
   "byteOffset": 119304,
   "target": 34962
  },
  {
   "buffer": 0,
   "byteLength": 1026,
   "byteOffset": 121584,
   "target": 34963
  },
  {
   "buffer": 0,
   "byteLength": 288,
   "byteOffset": 122612,
   "target": 34962
  },
  {
   "buffer": 0,
   "byteLength": 288,
   "byteOffset": 122900,
   "target": 34962
  },
  {
   "buffer": 0,
   "byteLength": 192,
   "byteOffset": 123188,
   "target": 34962
  },
  {
   "buffer": 0,
   "byteLength": 72,
   "byteOffset": 123380,
   "target": 34963
  },
  {
   "buffer": 0,
   "byteLength": 288,
   "byteOffset": 123452,
   "target": 34962
  },
  {
   "buffer": 0,
   "byteLength": 288,
   "byteOffset": 123740,
   "target": 34962
  },
  {
   "buffer": 0,
   "byteLength": 192,
   "byteOffset": 124028,
   "target": 34962
  }
 ],
 "samplers": [
  {
   "magFilter": 9729,
   "minFilter": 9987
  }
 ],
 "buffers": [
  {
   "byteLength": 124220,
   "uri": "rail_crossing_post.bin"
  }
 ]
}