{
 "asset": {
  "generator": "Khronos glTF Blender I/O v4.5.51",
  "version": "2.0"
 },
 "scene": 0,
 "scenes": [
  {
   "name": "Scene",
   "nodes": [
    0,
    1,
    2,
    3,
    4,
    5,
    6,
    7,
    8,
    9,
    10,
    11,
    12,
    13,
    14,
    15,
    16,
    17,
    18,
    19,
    20,
    21,
    22,
    23,
    24,
    25,
    26,
    27,
    28
   ]
  }
 ],
 "nodes": [
  {
   "mesh": 0,
   "name": "shed_shell"
  },
  {
   "mesh": 1,
   "name": "shed_roof"
  },
  {
   "mesh": 2,
   "name": "shed_joinery"
  },
  {
   "mesh": 3,
   "name": "shed_interior"
  },
  {
   "mesh": 4,
   "name": "shed_clutter"
  },
  {
   "mesh": 5,
   "name": "shed_plants"
  },
  {
   "mesh": 6,
   "name": "col_concrete_floor_1"
  },
  {
   "mesh": 7,
   "name": "col_wood_front_1"
  },
  {
   "mesh": 8,
   "name": "col_wood_front_2"
  },
  {
   "mesh": 9,
   "name": "col_wood_front_3"
  },
  {
   "mesh": 10,
   "name": "col_metal_left_1"
  },
  {
   "mesh": 11,
   "name": "col_metal_back_1"
  },
  {
   "mesh": 12,
   "name": "col_metal_right_1"
  },
  {
   "mesh": 13,
   "name": "col_metal_right_2"
  },
  {
   "mesh": 14,
   "name": "col_metal_right_3"
  },
  {
   "mesh": 15,
   "name": "col_metal_right_4"
  },
  {
   "mesh": 16,
   "name": "col_metal_roof_1"
  },
  {
   "mesh": 17,
   "name": "col_metal_roof_2"
  },
  {
   "mesh": 18,
   "name": "col_wood_door_1"
  },
  {
   "mesh": 19,
   "name": "col_wood_bench_1"
  },
  {
   "mesh": 20,
   "name": "loot_toolbox_1"
  },
  {
   "mesh": 21,
   "name": "loot_box_1"
  },
  {
   "mesh": 22,
   "name": "col_wood_pots_1"
  },
  {
   "mesh": 23,
   "name": "col_wood_crate_1"
  },
  {
   "mesh": 24,
   "name": "light_warm_1"
  },
  {
   "mesh": 25,
   "name": "col_wood_dinghy_1"
  },
  {
   "mesh": 26,
   "name": "col_wood_pots_2"
  },
  {
   "mesh": 27,
   "name": "col_wood_barrel_1"
  },
  {
   "mesh": 28,
   "name": "col_wood_rail_1"
  }
 ],
 "materials": [
  {
   "name": "concrete",
   "normalTexture": {
    "index": 0
   },
   "occlusionTexture": {
    "index": 1
   },
   "pbrMetallicRoughness": {
    "baseColorTexture": {
     "index": 2
    },
    "metallicRoughnessTexture": {
     "index": 1
    }
   }
  },
  {
   "name": "timber_beam",
   "normalTexture": {
    "index": 3
   },
   "occlusionTexture": {
    "index": 4
   },
   "pbrMetallicRoughness": {
    "baseColorTexture": {
     "index": 5
    },
    "metallicRoughnessTexture": {
     "index": 4
    }
   }
  },
  {
   "name": "timber_planks_weathered",
   "normalTexture": {
    "index": 6
   },
   "occlusionTexture": {
    "index": 7
   },
   "pbrMetallicRoughness": {
    "baseColorTexture": {
     "index": 8
    },
    "metallicRoughnessTexture": {
     "index": 7
    }
   }
  },
  {
   "name": "corrugated_rusty",
   "normalTexture": {
    "index": 9
   },
   "occlusionTexture": {
    "index": 10
   },
   "pbrMetallicRoughness": {
    "baseColorTexture": {
     "index": 11
    },
    "metallicRoughnessTexture": {
     "index": 10
    }
   }
  },
  {
   "name": "glass_dirty",
   "normalTexture": {
    "index": 12
   },
   "occlusionTexture": {
    "index": 13
   },
   "pbrMetallicRoughness": {
    "baseColorTexture": {
     "index": 14
    },
    "metallicRoughnessTexture": {
     "index": 13
    }
   }
  },
  {
   "name": "rusty_metal",
   "normalTexture": {
    "index": 15
   },
   "occlusionTexture": {
    "index": 16
   },
   "pbrMetallicRoughness": {
    "baseColorTexture": {
     "index": 17
    },
    "metallicRoughnessTexture": {
     "index": 16
    }
   }
  },
  {
   "name": "soot",
   "normalTexture": {
    "index": 18
   },
   "occlusionTexture": {
    "index": 19
   },
   "pbrMetallicRoughness": {
    "baseColorTexture": {
     "index": 20
    },
    "metallicRoughnessTexture": {
     "index": 19
    }
   }
  },
  {
   "name": "granite_rubble",
   "normalTexture": {
    "index": 21
   },
   "occlusionTexture": {
    "index": 22
   },
   "pbrMetallicRoughness": {
    "baseColorTexture": {
     "index": 23
    },
    "metallicRoughnessTexture": {
     "index": 22
    }
   }
  },
  {
   "name": "hay",
   "normalTexture": {
    "index": 24
   },
   "occlusionTexture": {
    "index": 25
   },
   "pbrMetallicRoughness": {
    "baseColorTexture": {
     "index": 26
    },
    "metallicRoughnessTexture": {
     "index": 25
    }
   }
  },
  {
   "doubleSided": true,
   "name": "rope_net",
   "normalTexture": {
    "index": 27
   },
   "occlusionTexture": {
    "index": 28
   },
   "pbrMetallicRoughness": {
    "baseColorTexture": {
     "index": 29
    },
    "metallicRoughnessTexture": {
     "index": 28
    }
   }
  },
  {
   "name": "painted_wood_blue",
   "normalTexture": {
    "index": 30
   },
   "occlusionTexture": {
    "index": 31
   },
   "pbrMetallicRoughness": {
    "baseColorTexture": {
     "index": 32
    },
    "metallicRoughnessTexture": {
     "index": 31
    }
   }
  },
  {
   "doubleSided": true,
   "name": "foliage",
   "normalTexture": {
    "index": 33
   },
   "occlusionTexture": {
    "index": 34
   },
   "pbrMetallicRoughness": {
    "baseColorTexture": {
     "index": 35
    },
    "metallicRoughnessTexture": {
     "index": 34
    }
   }
  }
 ],
 "meshes": [
  {
   "name": "shed_shell",
   "primitives": [
    {
     "attributes": {
      "POSITION": 0,
      "NORMAL": 1,
      "TEXCOORD_0": 2
     },
     "indices": 3,
     "material": 0
    },
    {
     "attributes": {
      "POSITION": 4,
      "NORMAL": 5,
      "TEXCOORD_0": 6
     },
     "indices": 7,
     "material": 1
    },
    {
     "attributes": {
      "POSITION": 8,
      "NORMAL": 9,
      "TEXCOORD_0": 10
     },
     "indices": 11,
     "material": 2
    },
    {
     "attributes": {
      "POSITION": 12,
      "NORMAL": 13,
      "TEXCOORD_0": 14
     },
     "indices": 15,
     "material": 3
    }
   ]
  },
  {
   "name": "shed_roof",
   "primitives": [
    {
     "attributes": {
      "POSITION": 16,
      "NORMAL": 17,
      "TEXCOORD_0": 18
     },
     "indices": 19,
     "material": 1
    },
    {
     "attributes": {
      "POSITION": 20,
      "NORMAL": 21,
      "TEXCOORD_0": 22
     },
     "indices": 23,
     "material": 3
    }
   ]
  },
  {
   "name": "shed_joinery",
   "primitives": [
    {
     "attributes": {
      "POSITION": 24,
      "NORMAL": 25,
      "TEXCOORD_0": 26
     },
     "indices": 27,
     "material": 2
    },
    {
     "attributes": {
      "POSITION": 28,
      "NORMAL": 29,
      "TEXCOORD_0": 30
     },
     "indices": 31,
     "material": 4
    },
    {
     "attributes": {
      "POSITION": 32,
      "NORMAL": 33,
      "TEXCOORD_0": 34
     },
     "indices": 35,
     "material": 5
    }
   ]
  },
  {
   "name": "shed_interior",
   "primitives": [
    {
     "attributes": {
      "POSITION": 36,
      "NORMAL": 37,
      "TEXCOORD_0": 38
     },
     "indices": 39,
     "material": 2
    },
    {
     "attributes": {
      "POSITION": 40,
      "NORMAL": 41,
      "TEXCOORD_0": 42
     },
     "indices": 43,
     "material": 1
    },
    {
     "attributes": {
      "POSITION": 44,
      "NORMAL": 45,
      "TEXCOORD_0": 46
     },
     "indices": 47,
     "material": 5
    }
   ]
  },
  {
   "name": "shed_clutter",
   "primitives": [
    {
     "attributes": {
      "POSITION": 48,
      "NORMAL": 49,
      "TEXCOORD_0": 50
     },
     "indices": 51,
     "material": 6
    },
    {
     "attributes": {
      "POSITION": 52,
      "NORMAL": 53,
      "TEXCOORD_0": 54
     },
     "indices": 55,
     "material": 7
    },
    {
     "attributes": {
      "POSITION": 56,
      "NORMAL": 57,
      "TEXCOORD_0": 58
     },
     "indices": 59,
     "material": 4
    },
    {
     "attributes": {
      "POSITION": 60,
      "NORMAL": 61,
      "TEXCOORD_0": 62
     },
     "indices": 63,
     "material": 5
    },
    {
     "attributes": {
      "POSITION": 64,
      "NORMAL": 65,
      "TEXCOORD_0": 66
     },
     "indices": 67,
     "material": 2
    },
    {
     "attributes": {
      "POSITION": 68,
      "NORMAL": 69,
      "TEXCOORD_0": 70
     },
     "indices": 71,
     "material": 8
    },
    {
     "attributes": {
      "POSITION": 72,
      "NORMAL": 73,
      "TEXCOORD_0": 74
     },
     "indices": 75,
     "material": 1
    },
    {
     "attributes": {
      "POSITION": 76,
      "NORMAL": 77,
      "TEXCOORD_0": 78
     },
     "indices": 79,
     "material": 9
    },
    {
     "attributes": {
      "POSITION": 80,
      "NORMAL": 81,
      "TEXCOORD_0": 82
     },
     "indices": 83,
     "material": 10
    }
   ]
  },
  {
   "name": "shed_plants",
   "primitives": [
    {
     "attributes": {
      "POSITION": 84,
      "NORMAL": 85,
      "TEXCOORD_0": 86
     },
     "indices": 87,
     "material": 11
    },
    {
     "attributes": {
      "POSITION": 88,
      "NORMAL": 89,
      "TEXCOORD_0": 90
     },
     "indices": 91,
     "material": 1
    }
   ]
  },
  {
   "name": "col_concrete_floor_1",
   "primitives": [
    {
     "attributes": {
      "POSITION": 92,
      "NORMAL": 93,
      "TEXCOORD_0": 94
     },
     "indices": 3,
     "material": 0
    }
   ]
  },
  {
   "name": "col_wood_front_1",
   "primitives": [
    {
     "attributes": {
      "POSITION": 95,
      "NORMAL": 96,
      "TEXCOORD_0": 97
     },
     "indices": 3,
     "material": 0
    }
   ]
  },
  {
   "name": "col_wood_front_2",
   "primitives": [
    {
     "attributes": {
      "POSITION": 98,
      "NORMAL": 99,
      "TEXCOORD_0": 100
     },
     "indices": 3,
     "material": 0
    }
   ]
  },
  {
   "name": "col_wood_front_3",
   "primitives": [
    {
     "attributes": {
      "POSITION": 101,
      "NORMAL": 102,
      "TEXCOORD_0": 103
     },
     "indices": 3,
     "material": 0
    }
   ]
  },
  {
   "name": "col_metal_left_1",
   "primitives": [
    {
     "attributes": {
      "POSITION": 104,
      "NORMAL": 105,
      "TEXCOORD_0": 106
     },
     "indices": 3,
     "material": 0
    }
   ]
  },
  {
   "name": "col_metal_back_1",
   "primitives": [
    {
     "attributes": {
      "POSITION": 107,
      "NORMAL": 108,
      "TEXCOORD_0": 109
     },
     "indices": 3,
     "material": 0
    }
   ]
  },
  {
   "name": "col_metal_right_1",
   "primitives": [
    {
     "attributes": {
      "POSITION": 110,
      "NORMAL": 111,
      "TEXCOORD_0": 112
     },
     "indices": 3,
     "material": 0
    }
   ]
  },
  {
   "name": "col_metal_right_2",
   "primitives": [
    {
     "attributes": {
      "POSITION": 113,
      "NORMAL": 114,
      "TEXCOORD_0": 115
     },
     "indices": 3,
     "material": 0
    }
   ]
  },
  {
   "name": "col_metal_right_3",
   "primitives": [
    {
     "attributes": {
      "POSITION": 116,
      "NORMAL": 117,
      "TEXCOORD_0": 118
     },
     "indices": 3,
     "material": 0
    }
   ]
  },
  {
   "name": "col_metal_right_4",
   "primitives": [
    {
     "attributes": {
      "POSITION": 119,
      "NORMAL": 120,
      "TEXCOORD_0": 121
     },
     "indices": 3,
     "material": 0
    }
   ]
  },
  {
   "name": "col_metal_roof_1",
   "primitives": [
    {
     "attributes": {
      "POSITION": 122,
      "NORMAL": 123,
      "TEXCOORD_0": 124
     },
     "indices": 3,
     "material": 0
    }
   ]
  },
  {
   "name": "col_metal_roof_2",
   "primitives": [
    {
     "attributes": {
      "POSITION": 125,
      "NORMAL": 126,
      "TEXCOORD_0": 127
     },
     "indices": 3,
     "material": 0
    }
   ]
  },
  {
   "name": "col_wood_door_1",
   "primitives": [
    {
     "attributes": {
      "POSITION": 128,
      "NORMAL": 129,
      "TEXCOORD_0": 130
     },
     "indices": 3,
     "material": 0
    }
   ]
  },
  {
   "name": "col_wood_bench_1",
   "primitives": [
    {
     "attributes": {
      "POSITION": 131,
      "NORMAL": 132,
      "TEXCOORD_0": 133
     },
     "indices": 3,
     "material": 0
    }
   ]
  },
  {
   "name": "loot_toolbox_1",
   "primitives": [
    {
     "attributes": {
      "POSITION": 134,
      "NORMAL": 135,
      "TEXCOORD_0": 136
     },
     "indices": 3,
     "material": 0
    }
   ]
  },
  {
   "name": "loot_box_1",
   "primitives": [
    {
     "attributes": {
      "POSITION": 137,
      "NORMAL": 138,
      "TEXCOORD_0": 139
     },
     "indices": 3,
     "material": 0
    }
   ]
  },
  {
   "name": "col_wood_pots_1",
   "primitives": [
    {
     "attributes": {
      "POSITION": 140,
      "NORMAL": 141,
      "TEXCOORD_0": 142
     },
     "indices": 3,
     "material": 0
    }
   ]
  },
  {
   "name": "col_wood_crate_1",
   "primitives": [
    {
     "attributes": {
      "POSITION": 143,
      "NORMAL": 144,
      "TEXCOORD_0": 145
     },
     "indices": 3,
     "material": 0
    }
   ]
  },
  {
   "name": "light_warm_1",
   "primitives": [
    {
     "attributes": {
      "POSITION": 146,
      "NORMAL": 147,
      "TEXCOORD_0": 148
     },
     "indices": 3,
     "material": 0
    }
   ]
  },
  {
   "name": "col_wood_dinghy_1",
   "primitives": [
    {
     "attributes": {
      "POSITION": 149,
      "NORMAL": 150,
      "TEXCOORD_0": 151
     },
     "indices": 3,
     "material": 0
    }
   ]
  },
  {
   "name": "col_wood_pots_2",
   "primitives": [
    {
     "attributes": {
      "POSITION": 152,
      "NORMAL": 153,
      "TEXCOORD_0": 154
     },
     "indices": 3,
     "material": 0
    }
   ]
  },
  {
   "name": "col_wood_barrel_1",
   "primitives": [
    {
     "attributes": {
      "POSITION": 155,
      "NORMAL": 156,
      "TEXCOORD_0": 157
     },
     "indices": 3,
     "material": 0
    }
   ]
  },
  {
   "name": "col_wood_rail_1",
   "primitives": [
    {
     "attributes": {
      "POSITION": 158,
      "NORMAL": 159,
      "TEXCOORD_0": 160
     },
     "indices": 3,
     "material": 0
    }
   ]
  }
 ],
 "textures": [
  {
   "sampler": 0,
   "source": 0
  },
  {
   "sampler": 0,
   "source": 1
  },
  {
   "sampler": 0,
   "source": 2
  },
  {
   "sampler": 0,
   "source": 3
  },
  {
   "sampler": 0,
   "source": 4
  },
  {
   "sampler": 0,
   "source": 5
  },
  {
   "sampler": 0,
   "source": 6
  },
  {
   "sampler": 0,
   "source": 7
  },
  {
   "sampler": 0,
   "source": 8
  },
  {
   "sampler": 0,
   "source": 9
  },
  {
   "sampler": 0,
   "source": 10
  },
  {
   "sampler": 0,
   "source": 11
  },
  {
   "sampler": 0,
   "source": 12
  },
  {
   "sampler": 0,
   "source": 13
  },
  {
   "sampler": 0,
   "source": 14
  },
  {
   "sampler": 0,
   "source": 15
  },
  {
   "sampler": 0,
   "source": 16
  },
  {
   "sampler": 0,
   "source": 17
  },
  {
   "sampler": 0,
   "source": 18
  },
  {
   "sampler": 0,
   "source": 19
  },
  {
   "sampler": 0,
   "source": 20
  },
  {
   "sampler": 0,
   "source": 21
  },
  {
   "sampler": 0,
   "source": 22
  },
  {
   "sampler": 0,
   "source": 23
  },
  {
   "sampler": 0,
   "source": 24
  },
  {
   "sampler": 0,
   "source": 25
  },
  {
   "sampler": 0,
   "source": 26
  },
  {
   "sampler": 0,
   "source": 27
  },
  {
   "sampler": 0,
   "source": 28
  },
  {
   "sampler": 0,
   "source": 29
  },
  {
   "sampler": 0,
   "source": 30
  },
  {
   "sampler": 0,
   "source": 31
  },
  {
   "sampler": 0,
   "source": 32
  },
  {
   "sampler": 0,
   "source": 33
  },
  {
   "sampler": 0,
   "source": 34
  },
  {
   "sampler": 0,
   "source": 35
  }
 ],
 "images": [
  {
   "mimeType": "image/png",
   "name": "concrete_normal.png",
   "uri": "../_library/concrete_normal.png"
  },
  {
   "mimeType": "image/png",
   "name": "concrete_orm.png",
   "uri": "../_library/concrete_orm.png"
  },
  {
   "mimeType": "image/png",
   "name": "concrete_albedo.png",
   "uri": "../_library/concrete_albedo.png"
  },
  {
   "mimeType": "image/png",
   "name": "timber_beam_normal.png",
   "uri": "../_library/timber_beam_normal.png"
  },
  {
   "mimeType": "image/png",
   "name": "timber_beam_orm.png",
   "uri": "../_library/timber_beam_orm.png"
  },
  {
   "mimeType": "image/png",
   "name": "timber_beam_albedo.png",
   "uri": "../_library/timber_beam_albedo.png"
  },
  {
   "mimeType": "image/png",
   "name": "timber_planks_weathered_normal.png",
   "uri": "../_library/timber_planks_weathered_normal.png"
  },
  {
   "mimeType": "image/png",
   "name": "timber_planks_weathered_orm.png",
   "uri": "../_library/timber_planks_weathered_orm.png"
  },
  {
   "mimeType": "image/png",
   "name": "timber_planks_weathered_albedo.png",
   "uri": "../_library/timber_planks_weathered_albedo.png"
  },
  {
   "mimeType": "image/png",
   "name": "corrugated_rusty_normal.png",
   "uri": "../_library/corrugated_rusty_normal.png"
  },
  {
   "mimeType": "image/png",
   "name": "corrugated_rusty_orm.png",
   "uri": "../_library/corrugated_rusty_orm.png"
  },
  {
   "mimeType": "image/png",
   "name": "corrugated_rusty_albedo.png",
   "uri": "../_library/corrugated_rusty_albedo.png"
  },
  {
   "mimeType": "image/png",
   "name": "glass_dirty_normal.png",
   "uri": "../_library/glass_dirty_normal.png"
  },
  {
   "mimeType": "image/png",
   "name": "glass_dirty_orm.png",
   "uri": "../_library/glass_dirty_orm.png"
  },
  {
   "mimeType": "image/png",
   "name": "glass_dirty_albedo.png",
   "uri": "../_library/glass_dirty_albedo.png"
  },
  {
   "mimeType": "image/png",
   "name": "rusty_metal_normal.png",
   "uri": "../_library/rusty_metal_normal.png"
  },
  {
   "mimeType": "image/png",
   "name": "rusty_metal_orm.png",
   "uri": "../_library/rusty_metal_orm.png"
  },
  {
   "mimeType": "image/png",
   "name": "rusty_metal_albedo.png",
   "uri": "../_library/rusty_metal_albedo.png"
  },
  {
   "mimeType": "image/png",
   "name": "soot_normal.png",
   "uri": "../_library/soot_normal.png"
  },
  {
   "mimeType": "image/png",
   "name": "soot_orm.png",
   "uri": "../_library/soot_orm.png"
  },
  {
   "mimeType": "image/png",
   "name": "soot_albedo.png",
   "uri": "../_library/soot_albedo.png"
  },
  {
   "mimeType": "image/png",
   "name": "granite_rubble_normal.png",
   "uri": "../_library/granite_rubble_normal.png"
  },
  {
   "mimeType": "image/png",
   "name": "granite_rubble_orm.png",
   "uri": "../_library/granite_rubble_orm.png"
  },
  {
   "mimeType": "image/png",
   "name": "granite_rubble_albedo.png",
   "uri": "../_library/granite_rubble_albedo.png"
  },
  {
   "mimeType": "image/png",
   "name": "hay_normal.png",
   "uri": "../_library/hay_normal.png"
  },
  {
   "mimeType": "image/png",
   "name": "hay_orm.png",
   "uri": "../_library/hay_orm.png"
  },
  {
   "mimeType": "image/png",
   "name": "hay_albedo.png",
   "uri": "../_library/hay_albedo.png"
  },
  {
   "mimeType": "image/png",
   "name": "rope_net_normal.png",
   "uri": "../_library/rope_net_normal.png"
  },
  {
   "mimeType": "image/png",
   "name": "rope_net_orm.png",
   "uri": "../_library/rope_net_orm.png"
  },
  {
   "mimeType": "image/png",
   "name": "rope_net_albedo.png",
   "uri": "../_library/rope_net_albedo.png"
  },
  {
   "mimeType": "image/png",
   "name": "painted_wood_blue_normal.png",
   "uri": "../_library/painted_wood_blue_normal.png"
  },
  {
   "mimeType": "image/png",
   "name": "painted_wood_blue_orm.png",
   "uri": "../_library/painted_wood_blue_orm.png"
  },
  {
   "mimeType": "image/png",
   "name": "painted_wood_blue_albedo.png",
   "uri": "../_library/painted_wood_blue_albedo.png"
  },
  {
   "mimeType": "image/png",
   "name": "foliage_normal.png",
   "uri": "../_library/foliage_normal.png"
  },
  {
   "mimeType": "image/png",
   "name": "foliage_orm.png",
   "uri": "../_library/foliage_orm.png"
  },
  {
   "mimeType": "image/png",
   "name": "foliage_albedo.png",
   "uri": "../_library/foliage_albedo.png"
  }
 ],
 "accessors": [
  {
   "bufferView": 0,
   "componentType": 5126,
   "count": 24,
   "max": [
    1.5800000429153442,
    0,
    2.0799999237060547
   ],
   "min": [
    -1.5800000429153442,
    -1.5,
    -2.0799999237060547
   ],
   "type": "VEC3"
  },
  {
   "bufferView": 1,
   "componentType": 5126,
   "count": 24,
   "type": "VEC3"
  },
  {
   "bufferView": 2,
   "componentType": 5126,
   "count": 24,
   "type": "VEC2"
  },
  {
   "bufferView": 3,
   "componentType": 5123,
   "count": 36,
   "type": "SCALAR"
  },
  {
   "bufferView": 4,
   "componentType": 5126,
   "count": 1280,
   "max": [
    1.5,
    2.615499973297119,
    2
   ],
   "min": [
    -1.5,
    0,
    -2
   ],
   "type": "VEC3"
  },
  {
   "bufferView": 5,
   "componentType": 5126,
   "count": 1280,
   "type": "VEC3"
  },
  {
   "bufferView": 6,
   "componentType": 5126,
   "count": 1280,
   "type": "VEC2"
  },
  {
   "bufferView": 7,
   "componentType": 5123,
   "count": 2640,
   "type": "SCALAR"
  },
  {
   "bufferView": 8,
   "componentType": 5126,
   "count": 1568,
   "max": [
    1.496999979019165,
    2.7196993827819824,
    2.022000312805176
   ],
   "min": [
    -1.496999979019165,
    0.023186922073364258,
    2
   ],
   "type": "VEC3"
  },
  {
   "bufferView": 9,
   "componentType": 5126,
   "count": 1568,
   "type": "VEC3"
  },
  {
   "bufferView": 10,
   "componentType": 5126,
   "count": 1568,
   "type": "VEC2"
  },
  {
   "bufferView": 11,
   "componentType": 5123,
   "count": 2772,
   "type": "SCALAR"
  },
  {
   "bufferView": 12,
   "componentType": 5126,
   "count": 4072,
   "max": [
    1.5248405933380127,
    2.6554999351501465,
    2.0299999713897705
   ],
   "min": [
    -1.5299999713897705,
    0.029999999329447746,
    -2.030773401260376
   ],
   "type": "VEC3"
  },
  {
   "bufferView": 13,
   "componentType": 5126,
   "count": 4072,
   "type": "VEC3"
  },
  {
   "bufferView": 14,
   "componentType": 5126,
   "count": 4072,
   "type": "VEC2"
  },
  {
   "bufferView": 15,
   "componentType": 5123,
   "count": 12036,
   "type": "SCALAR"
  },
  {
   "bufferView": 16,
   "componentType": 5126,
   "count": 336,
   "max": [
    1.6200000047683716,
    2.7680001258850098,
    2.124378204345703
   ],
   "min": [
    -1.6200000047683716,
    2.200845241546631,
    -2.204378366470337
   ],
   "type": "VEC3"
  },
  {
   "bufferView": 17,
   "componentType": 5126,
   "count": 336,
   "type": "VEC3"
  },
  {
   "bufferView": 18,
   "componentType": 5126,
   "count": 336,
   "type": "VEC2"
  },
  {
   "bufferView": 19,
   "componentType": 5123,
   "count": 924,
   "type": "SCALAR"
  },
  {
   "bufferView": 20,
   "componentType": 5126,
   "count": 4576,
   "max": [
    1.6700000762939453,
    2.8229551315307617,
    2.201044797897339
   ],
   "min": [
    -1.6699999570846558,
    2.328827142715454,
    -2.290257692337036
   ],
   "type": "VEC3"
  },
  {
   "bufferView": 21,
   "componentType": 5126,
   "count": 4576,
   "type": "VEC3"
  },
  {
   "bufferView": 22,
   "componentType": 5126,
   "count": 4576,
   "type": "VEC2"
  },
  {
   "bufferView": 23,
   "componentType": 5123,
   "count": 20304,
   "type": "SCALAR"
  },
  {
   "bufferView": 24,
   "componentType": 5126,
   "count": 1344,
   "max": [
    1.534999966621399,
    2.081662654876709,
    3.1091175079345703
   ],
   "min": [
    0.8499999046325684,
    0.044785741716623306,
    -1.2400000095367432
   ],
   "type": "VEC3"
  },
  {
   "bufferView": 25,
   "componentType": 5126,
   "count": 1344,
   "type": "VEC3"
  },
  {
   "bufferView": 26,
   "componentType": 5126,
   "count": 1344,
   "type": "VEC2"
  },
  {
   "bufferView": 27,
   "componentType": 5123,
   "count": 1860,
   "type": "SCALAR"
  },
  {
   "bufferView": 28,
   "componentType": 5126,
   "count": 74,
   "max": [
    1.4700000286102295,
    1.7999999523162842,
    -0.5699999928474426
   ],
   "min": [
    1.465999960899353,
    1.340000033378601,
    -1.190000057220459
   ],
   "type": "VEC3"
  },
  {
   "bufferView": 29,
   "componentType": 5126,
   "count": 74,
   "type": "VEC3"
  },
  {
   "bufferView": 30,
   "componentType": 5126,
   "count": 74,
   "type": "VEC2"
  },
  {
   "bufferView": 31,
   "componentType": 5123,
   "count": 120,
   "type": "SCALAR"
  },
  {
   "bufferView": 32,
   "componentType": 5126,
   "count": 72,
   "max": [
    0.9149999022483826,
    1.8964203596115112,
    2.974632740020752
   ],
   "min": [
    0.8949999213218689,
    0.19417217373847961,
    2.026339292526245
   ],
   "type": "VEC3"
  },
  {
   "bufferView": 33,
   "componentType": 5126,
   "count": 72,
   "type": "VEC3"
  },
  {
   "bufferView": 34,
   "componentType": 5126,
   "count": 72,
   "type": "VEC2"
  },
  {
   "bufferView": 35,
   "componentType": 5123,
   "count": 108,
   "type": "SCALAR"
  },
  {
   "bufferView": 36,
   "componentType": 5126,
   "count": 528,
   "max": [
    1.3799999952316284,
    1.9500000476837158,
    0.8500000238418579
   ],
   "min": [
    -1.4049999713897705,
    0.2199999988079071,
    -1.909999966621399
   ],
   "type": "VEC3"
  },
  {
   "bufferView": 37,
   "componentType": 5126,
   "count": 528,
   "type": "VEC3"
  },
  {
   "bufferView": 38,
   "componentType": 5126,
   "count": 528,
   "type": "VEC2"
  },
  {
   "bufferView": 39,
   "componentType": 5123,
   "count": 924,
   "type": "SCALAR"
  },
  {
   "bufferView": 40,
   "componentType": 5126,
   "count": 608,
   "max": [
    -0.7499998211860657,
    1.8999998569488525,
    0.8100000619888306
   ],
   "min": [
    -1.375,
    0,
    -1.7100001573562622
   ],
   "type": "VEC3"
  },
  {
   "bufferView": 41,
   "componentType": 5126,
   "count": 608,
   "type": "VEC3"
  },
  {
   "bufferView": 42,
   "componentType": 5126,
   "count": 608,
   "type": "VEC2"
  },
  {
   "bufferView": 43,
   "componentType": 5123,
   "count": 1212,
   "type": "SCALAR"
  },
  {
   "bufferView": 44,
   "componentType": 5126,
   "count": 626,
   "max": [
    1.2503999471664429,
    1.850000023841858,
    0.5199999809265137
   ],
   "min": [
    -1.375,
    0.8999999761581421,
    -1.909999966621399
   ],
   "type": "VEC3"
  },
  {
   "bufferView": 45,
   "componentType": 5126,
   "count": 626,
   "type": "VEC3"
  },
  {
   "bufferView": 46,
   "componentType": 5126,
   "count": 626,
   "type": "VEC2"
  },
  {
   "bufferView": 47,
   "componentType": 5123,
   "count": 1128,
   "type": "SCALAR"
  },
  {
   "bufferView": 48,
   "componentType": 5126,
   "count": 374,
   "max": [
    2.434999942779541,
    2.7379281520843506,
    2.134999990463257
   ],
   "min": [
    -0.8350000381469727,
    -0.11583980172872543,
    -0.9333375096321106
   ],
   "type": "VEC3"
  },
  {
   "bufferView": 49,
   "componentType": 5126,
   "count": 374,
   "type": "VEC3"
  },
  {
   "bufferView": 50,
   "componentType": 5126,
   "count": 374,
   "type": "VEC2"
  },
  {
   "bufferView": 51,
   "componentType": 5123,
   "count": 1920,
   "type": "SCALAR"
  },
  {
   "bufferView": 52,
   "componentType": 5126,
   "count": 80,
   "max": [
    1.0226906538009644,
    2.8597302436828613,
    1.2082408666610718
   ],
   "min": [
    0.27554720640182495,
    2.434109926223755,
    -1.6151992082595825
   ],
   "type": "VEC3"
  },
  {
   "bufferView": 53,
   "componentType": 5126,
   "count": 80,
   "type": "VEC3"
  },
  {
   "bufferView": 54,
   "componentType": 5126,
   "count": 80,
   "type": "VEC2"
  },
  {
   "bufferView": 55,
   "componentType": 5123,
   "count": 120,
   "type": "SCALAR"
  },
  {
   "bufferView": 56,
   "componentType": 5126,
   "count": 2168,
   "max": [
    1.3719514608383179,
    2.240000009536743,
    2.181084632873535
   ],
   "min": [
    -2.1686999797821045,
    0.3199999928474426,
    -2.9974911212921143
   ],
   "type": "VEC3"
  },
  {
   "bufferView": 57,
   "componentType": 5126,
   "count": 2168,
   "type": "VEC3"
  },
  {
   "bufferView": 58,
   "componentType": 5126,
   "count": 2168,
   "type": "VEC2"
  },
  {
   "bufferView": 59,
   "componentType": 5123,
   "count": 7338,
   "type": "SCALAR"
  },
  {
   "bufferView": 60,
   "componentType": 5126,
   "count": 3073,
   "max": [
    1.3018925189971924,
    2.5199999809265137,
    2.0609700679779053
   ],
   "min": [
    -2.2253456115722656,
    -0.021333925426006317,
    -2.9035356044769287
   ],
   "type": "VEC3"
  },
  {
   "bufferView": 61,
   "componentType": 5126,
   "count": 3073,
   "type": "VEC3"
  },
  {
   "bufferView": 62,
   "componentType": 5126,
   "count": 3073,
   "type": "VEC2"
  },
  {
   "bufferView": 63,
   "componentType": 5123,
   "count": 6648,
   "type": "SCALAR"
  },
  {
   "bufferView": 64,
   "componentType": 5126,
   "count": 2821,
   "max": [
    1.2872792482376099,
    0.75,
    1.686889410018921
   ],
   "min": [
    -2.45072865486145,
    -0.10000000149011612,
    -2.0658979415893555
   ],
   "type": "VEC3"
  },
  {
   "bufferView": 65,
   "componentType": 5126,
   "count": 2821,
   "type": "VEC3"
  },
  {
   "bufferView": 66,
   "componentType": 5126,
   "count": 2821,
   "type": "VEC2"
  },
  {
   "bufferView": 67,
   "componentType": 5123,
   "count": 5916,
   "type": "SCALAR"
  },
  {
   "bufferView": 68,
   "componentType": 5126,
   "count": 1089,
   "max": [
    1.207281231880188,
    2.4785468578338623,
    2.105781078338623
   ],
   "min": [
    -1.399999976158142,
    0.007877202704548836,
    -2.9090001583099365
   ],
   "type": "VEC3"
  },
  {
   "bufferView": 69,
   "componentType": 5126,
   "count": 1089,
   "type": "VEC3"
  },
  {
   "bufferView": 70,
   "componentType": 5126,
   "count": 1089,
   "type": "VEC2"
  },
  {
   "bufferView": 71,
   "componentType": 5123,
   "count": 3204,
   "type": "SCALAR"
  },
  {
   "bufferView": 72,
   "componentType": 5126,
   "count": 3460,
   "max": [
    3.0684192180633545,
    2.2111926078796387,
    2.469719409942627
   ],
   "min": [
    -2.396376609802246,
    -0.14000000059604645,
    -2.9386370182037354
   ],
   "type": "VEC3"
  },
  {
   "bufferView": 73,
   "componentType": 5126,
   "count": 3460,
   "type": "VEC3"
  },
  {
   "bufferView": 74,
   "componentType": 5126,
   "count": 3460,
   "type": "VEC2"
  },
  {
   "bufferView": 75,
   "componentType": 5123,
   "count": 8760,
   "type": "SCALAR"
  },
  {
   "bufferView": 76,
   "componentType": 5126,
   "count": 1581,
   "max": [
    1.3323795795440674,
    2.4611237049102783,
    1.5339475870132446
   ],
   "min": [
    -2.379730463027954,
    -0.07999999821186066,
    -3.0309689044952393
   ],
   "type": "VEC3"
  },
  {
   "bufferView": 77,
   "componentType": 5126,
   "count": 1581,
   "type": "VEC3"
  },
  {
   "bufferView": 78,
   "componentType": 5126,
   "count": 1581,
   "type": "VEC2"
  },
  {
   "bufferView": 79,
   "componentType": 5123,
   "count": 5772,
   "type": "SCALAR"
  },
  {
   "bufferView": 80,
   "componentType": 5126,
   "count": 154,
   "max": [
    3.0424489974975586,
    0.3186200261116028,
    1.1500000953674316
   ],
   "min": [
    1.857551097869873,
    -0.14000000059604645,
    -1.5500000715255737
   ],
   "type": "VEC3"
  },
  {
   "bufferView": 81,
   "componentType": 5126,
   "count": 154,
   "type": "VEC3"
  },
  {
   "bufferView": 82,
   "componentType": 5126,
   "count": 154,
   "type": "VEC2"
  },
  {
   "bufferView": 83,
   "componentType": 5123,
   "count": 747,
   "type": "SCALAR"
  },
  {
   "bufferView": 84,
   "componentType": 5126,
   "count": 9146,
   "max": [
    3.1228137016296387,
    1.3973746299743652,
    2.5646774768829346
   ],
   "min": [
    -2.3738865852355957,
    -0.14717808365821838,
    -2.9388411045074463
   ],
   "type": "VEC3"
  },
  {
   "bufferView": 85,
   "componentType": 5126,
   "count": 9146,
   "type": "VEC3"
  },
  {
   "bufferView": 86,
   "componentType": 5126,
   "count": 9146,
   "type": "VEC2"
  },
  {
   "bufferView": 87,
   "componentType": 5123,
   "count": 16134,
   "type": "SCALAR"
  },
  {
   "bufferView": 88,
   "componentType": 5126,
   "count": 390,
   "max": [
    -0.42650407552719116,
    1.403628945350647,
    -2.031003952026367
   ],
   "min": [
    -1.11445951461792,
    -0.10525903105735779,
    -2.060981035232544
   ],
   "type": "VEC3"
  },
  {
   "bufferView": 89,
   "componentType": 5126,
   "count": 390,
   "type": "VEC3"
  },
  {
   "bufferView": 90,
   "componentType": 5126,
   "count": 390,
   "type": "VEC2"
  },
  {
   "bufferView": 91,
   "componentType": 5123,
   "count": 1002,
   "type": "SCALAR"
  },
  {
   "bufferView": 92,
   "componentType": 5126,
   "count": 24,
   "max": [
    1.5800000429153442,
    0,
    2.0799999237060547
   ],
   "min": [
    -1.5800000429153442,
    -1.5,
    -2.0799999237060547
   ],
   "type": "VEC3"
  },
  {
   "bufferView": 93,
   "componentType": 5126,
   "count": 24,
   "type": "VEC3"
  },
  {
   "bufferView": 94,
   "componentType": 5126,
   "count": 24,
   "type": "VEC2"
  },
  {
   "bufferView": 95,
   "componentType": 5126,
   "count": 24,
   "max": [
    -0.19499999284744263,
    2.619999885559082,
    2.0299999713897705
   ],
   "min": [
    -1.5,
    0,
    1.909999966621399
   ],
   "type": "VEC3"
  },
  {
   "bufferView": 96,
   "componentType": 5126,
   "count": 24,
   "type": "VEC3"
  },
  {
   "bufferView": 97,
   "componentType": 5126,
   "count": 24,
   "type": "VEC2"
  },
  {
   "bufferView": 98,
   "componentType": 5126,
   "count": 24,
   "max": [
    1.5,
    2.619999885559082,
    2.0299999713897705
   ],
   "min": [
    0.8450000286102295,
    0,
    1.909999966621399
   ],
   "type": "VEC3"
  },
  {
   "bufferView": 99,
   "componentType": 5126,
   "count": 24,
   "type": "VEC3"
  },
  {
   "bufferView": 100,
   "componentType": 5126,
   "count": 24,
   "type": "VEC2"
  },
  {
   "bufferView": 101,
   "componentType": 5126,
   "count": 24,
   "max": [
    0.8450000286102295,
    2.619999885559082,
    2.0299999713897705
   ],
   "min": [
    -0.19499999284744263,
    2.0899999141693115,
    1.909999966621399
   ],
   "type": "VEC3"
  },
  {
   "bufferView": 102,
   "componentType": 5126,
   "count": 24,
   "type": "VEC3"
  },
  {
   "bufferView": 103,
   "componentType": 5126,
   "count": 24,
   "type": "VEC2"
  },
  {
   "bufferView": 104,
   "componentType": 5126,
   "count": 24,
   "max": [
    -1.409999966621399,
    2.619999885559082,
    2
   ],
   "min": [
    -1.5299999713897705,
    0,
    -2
   ],
   "type": "VEC3"
  },
  {
   "bufferView": 105,
   "componentType": 5126,
   "count": 24,
   "type": "VEC3"
  },
  {
   "bufferView": 106,
   "componentType": 5126,
   "count": 24,
   "type": "VEC2"
  },
  {
   "bufferView": 107,
   "componentType": 5126,
   "count": 24,
   "max": [
    1.5,
    2.2699999809265137,
    -1.909999966621399
   ],
   "min": [
    -1.5,
    0,
    -2.0299999713897705
   ],
   "type": "VEC3"
  },
  {
   "bufferView": 108,
   "componentType": 5126,
   "count": 24,
   "type": "VEC3"
  },
  {
   "bufferView": 109,
   "componentType": 5126,
   "count": 24,
   "type": "VEC2"
  },
  {
   "bufferView": 110,
   "componentType": 5126,
   "count": 24,
   "max": [
    1.5299999713897705,
    2.619999885559082,
    2
   ],
   "min": [
    1.409999966621399,
    0,
    -0.5199999809265137
   ],
   "type": "VEC3"
  },
  {
   "bufferView": 111,
   "componentType": 5126,
   "count": 24,
   "type": "VEC3"
  },
  {
   "bufferView": 112,
   "componentType": 5126,
   "count": 24,
   "type": "VEC2"
  },
  {
   "bufferView": 113,
   "componentType": 5126,
   "count": 24,
   "max": [
    1.5299999713897705,
    2.619999885559082,
    -1.2400000095367432
   ],
   "min": [
    1.409999966621399,
    0,
    -2
   ],
   "type": "VEC3"
  },
  {
   "bufferView": 114,
   "componentType": 5126,
   "count": 24,
   "type": "VEC3"
  },
  {
   "bufferView": 115,
   "componentType": 5126,
   "count": 24,
   "type": "VEC2"
  },
  {
   "bufferView": 116,
   "componentType": 5126,
   "count": 24,
   "max": [
    1.5299999713897705,
    1.2699999809265137,
    -0.5199999809265137
   ],
   "min": [
    1.409999966621399,
    0,
    -1.2400000095367432
   ],
   "type": "VEC3"
  },
  {
   "bufferView": 117,
   "componentType": 5126,
   "count": 24,
   "type": "VEC3"
  },
  {
   "bufferView": 118,
   "componentType": 5126,
   "count": 24,
   "type": "VEC2"
  },
  {
   "bufferView": 119,
   "componentType": 5126,
   "count": 24,
   "max": [
    1.5299999713897705,
    2.619999885559082,
    -0.5199999809265137
   ],
   "min": [
    1.409999966621399,
    1.850000023841858,
    -1.2400000095367432
   ],
   "type": "VEC3"
  },
  {
   "bufferView": 120,
   "componentType": 5126,
   "count": 24,
   "type": "VEC3"
  },
  {
   "bufferView": 121,
   "componentType": 5126,
   "count": 24,
   "type": "VEC2"
  },
  {
   "bufferView": 122,
   "componentType": 5126,
   "count": 24,
   "max": [
    1.6699999570846558,
    2.819999933242798,
    2.200000047683716
   ],
   "min": [
    -1.6699999570846558,
    2.440000057220459,
    0
   ],
   "type": "VEC3"
  },
  {
   "bufferView": 123,
   "componentType": 5126,
   "count": 24,
   "type": "VEC3"
  },
  {
   "bufferView": 124,
   "componentType": 5126,
   "count": 24,
   "type": "VEC2"
  },
  {
   "bufferView": 125,
   "componentType": 5126,
   "count": 24,
   "max": [
    1.6699999570846558,
    2.619999885559082,
    0
   ],
   "min": [
    -1.6699999570846558,
    2.259999990463257,
    -2.299999952316284
   ],
   "type": "VEC3"
  },
  {
   "bufferView": 126,
   "componentType": 5126,
   "count": 24,
   "type": "VEC3"
  },
  {
   "bufferView": 127,
   "componentType": 5126,
   "count": 24,
   "type": "VEC2"
  },
  {
   "bufferView": 128,
   "componentType": 5126,
   "count": 24,
   "max": [
    0.9049999713897705,
    2,
    2.9800000190734863
   ],
   "min": [
    0.8450000286102295,
    0,
    2.0299999713897705
   ],
   "type": "VEC3"
  },
  {
   "bufferView": 129,
   "componentType": 5126,
   "count": 24,
   "type": "VEC3"
  },
  {
   "bufferView": 130,
   "componentType": 5126,
   "count": 24,
   "type": "VEC2"
  },
  {
   "bufferView": 131,
   "componentType": 5126,
   "count": 24,
   "max": [
    -0.729999840259552,
    0.8999999761581421,
    0.8499999642372131
   ],
   "min": [
    -1.3900001049041748,
    0,
    -1.75
   ],
   "type": "VEC3"
  },
  {
   "bufferView": 132,
   "componentType": 5126,
   "count": 24,
   "type": "VEC3"
  },
  {
   "bufferView": 133,
   "componentType": 5126,
   "count": 24,
   "type": "VEC2"
  },
  {
   "bufferView": 134,
   "componentType": 5126,
   "count": 24,
   "max": [
    -1.0099999904632568,
    1,
    -1.0500000715255737
   ],
   "min": [
    -1.1099998950958252,
    0.8999999761581421,
    -1.149999976158142
   ],
   "type": "VEC3"
  },
  {
   "bufferView": 135,
   "componentType": 5126,
   "count": 24,
   "type": "VEC3"
  },
  {
   "bufferView": 136,
   "componentType": 5126,
   "count": 24,
   "type": "VEC2"
  },
  {
   "bufferView": 137,
   "componentType": 5126,
   "count": 24,
   "max": [
    -1.0099999904632568,
    1,
    -0.20000000298023224
   ],
   "min": [
    -1.1099998950958252,
    0.8999999761581421,
    -0.30000001192092896
   ],
   "type": "VEC3"
  },
  {
   "bufferView": 138,
   "componentType": 5126,
   "count": 24,
   "type": "VEC3"
  },
  {
   "bufferView": 139,
   "componentType": 5126,
   "count": 24,
   "type": "VEC2"
  },
  {
   "bufferView": 140,
   "componentType": 5126,
   "count": 24,
   "max": [
    1.399999976158142,
    0.6000000238418579,
    0
   ],
   "min": [
    0.6499999761581421,
    0,
    -1.7000000476837158
   ],
   "type": "VEC3"
  },
  {
   "bufferView": 141,
   "componentType": 5126,
   "count": 24,
   "type": "VEC3"
  },
  {
   "bufferView": 142,
   "componentType": 5126,
   "count": 24,
   "type": "VEC2"
  },
  {
   "bufferView": 143,
   "componentType": 5126,
   "count": 24,
   "max": [
    1.2799999713897705,
    0.44999998807907104,
    1.0800000429153442
   ],
   "min": [
    0.6200000047683716,
    0,
    0.6200000047683716
   ],
   "type": "VEC3"
  },
  {
   "bufferView": 144,
   "componentType": 5126,
   "count": 24,
   "type": "VEC3"
  },
  {
   "bufferView": 145,
   "componentType": 5126,
   "count": 24,
   "type": "VEC2"
  },
  {
   "bufferView": 146,
   "componentType": 5126,
   "count": 24,
   "max": [
    0.05000000074505806,
    2.169999837875366,
    0.05000000074505806
   ],
   "min": [
    -0.05000000074505806,
    2.069999933242798,
    -0.05000000074505806
   ],
   "type": "VEC3"
  },
  {
   "bufferView": 147,
   "componentType": 5126,
   "count": 24,
   "type": "VEC3"
  },
  {
   "bufferView": 148,
   "componentType": 5126,
   "count": 24,
   "type": "VEC2"
  },
  {
   "bufferView": 149,
   "componentType": 5126,
   "count": 24,
   "max": [
    3.075000047683716,
    0.3199999928474426,
    1.1500000953674316
   ],
   "min": [
    1.8249999284744263,
    -0.14000000059604645,
    -1.5500000715255737
   ],
   "type": "VEC3"
  },
  {
   "bufferView": 150,
   "componentType": 5126,
   "count": 24,
   "type": "VEC3"
  },
  {
   "bufferView": 151,
   "componentType": 5126,
   "count": 24,
   "type": "VEC2"
  },
  {
   "bufferView": 152,
   "componentType": 5126,
   "count": 24,
   "max": [
    -1.7000000476837158,
    0.20000000298023224,
    1.5
   ],
   "min": [
    -2.450000047683716,
    -0.10000000149011612,
    0.20000000298023224
   ],
   "type": "VEC3"
  },
  {
   "bufferView": 153,
   "componentType": 5126,
   "count": 24,
   "type": "VEC3"
  },
  {
   "bufferView": 154,
   "componentType": 5126,
   "count": 24,
   "type": "VEC2"
  },
  {
   "bufferView": 155,
   "componentType": 5126,
   "count": 24,
   "max": [
    -1.6800000667572021,
    0.75,
    -1.5299999713897705
   ],
   "min": [
    -2.2200000286102295,
    -0.10000000149011612,
    -2.069999933242798
   ],
   "type": "VEC3"
  },
  {
   "bufferView": 156,
   "componentType": 5126,
   "count": 24,
   "type": "VEC3"
  },
  {
   "bufferView": 157,
   "componentType": 5126,
   "count": 24,
   "type": "VEC2"
  },
  {
   "bufferView": 158,
   "componentType": 5126,
   "count": 24,
   "max": [
    1.3499999046325684,
    1.25,
    -2.8500001430511475
   ],
   "min": [
    -1.649999976158142,
    -0.10000000149011612,
    -2.950000047683716
   ],
   "type": "VEC3"
  },
  {
   "bufferView": 159,
   "componentType": 5126,
   "count": 24,
   "type": "VEC3"
  },
  {
   "bufferView": 160,
   "componentType": 5126,
   "count": 24,
   "type": "VEC2"
  }
 ],
 "bufferViews": [
  {
   "buffer": 0,
   "byteLength": 288,
   "byteOffset": 0,
   "target": 34962
  },
  {
   "buffer": 0,
   "byteLength": 288,
   "byteOffset": 288,
   "target": 34962
  },
  {
   "buffer": 0,
   "byteLength": 192,
   "byteOffset": 576,
   "target": 34962
  },
  {
   "buffer": 0,
   "byteLength": 72,
   "byteOffset": 768,
   "target": 34963
  },
  {
   "buffer": 0,
   "byteLength": 15360,
   "byteOffset": 840,
   "target": 34962
  },
  {
   "buffer": 0,
   "byteLength": 15360,
   "byteOffset": 16200,
   "target": 34962
  },
  {
   "buffer": 0,
   "byteLength": 10240,
   "byteOffset": 31560,
   "target": 34962
  },
  {
   "buffer": 0,
   "byteLength": 5280,
   "byteOffset": 41800,
   "target": 34963
  },
  {
   "buffer": 0,
   "byteLength": 18816,
   "byteOffset": 47080,
   "target": 34962
  },
  {
   "buffer": 0,
   "byteLength": 18816,
   "byteOffset": 65896,
   "target": 34962
  },
  {
   "buffer": 0,
   "byteLength": 12544,
   "byteOffset": 84712,
   "target": 34962
  },
  {
   "buffer": 0,
   "byteLength": 5544,
   "byteOffset": 97256,
   "target": 34963
  },
  {
   "buffer": 0,
   "byteLength": 48864,
   "byteOffset": 102800,
   "target": 34962
  },
  {
   "buffer": 0,
   "byteLength": 48864,
   "byteOffset": 151664,
   "target": 34962
  },
  {
   "buffer": 0,
   "byteLength": 32576,
   "byteOffset": 200528,
   "target": 34962
  },
  {
   "buffer": 0,
   "byteLength": 24072,
   "byteOffset": 233104,
   "target": 34963
  },
  {
   "buffer": 0,
   "byteLength": 4032,
   "byteOffset": 257176,
   "target": 34962
  },
  {
   "buffer": 0,
   "byteLength": 4032,
   "byteOffset": 261208,
   "target": 34962
  },
  {
   "buffer": 0,
   "byteLength": 2688,
   "byteOffset": 265240,
   "target": 34962
  },
  {
   "buffer": 0,
   "byteLength": 1848,
   "byteOffset": 267928,
   "target": 34963
  },
  {
   "buffer": 0,
   "byteLength": 54912,
   "byteOffset": 269776,
   "target": 34962
  },
  {
   "buffer": 0,
   "byteLength": 54912,
   "byteOffset": 324688,
   "target": 34962
  },
  {
   "buffer": 0,
   "byteLength": 36608,
   "byteOffset": 379600,
   "target": 34962
  },
  {
   "buffer": 0,
   "byteLength": 40608,
   "byteOffset": 416208,
   "target": 34963
  },
  {
   "buffer": 0,
   "byteLength": 16128,
   "byteOffset": 456816,
   "target": 34962
  },
  {
   "buffer": 0,
   "byteLength": 16128,
   "byteOffset": 472944,
   "target": 34962
  },
  {
   "buffer": 0,
   "byteLength": 10752,
   "byteOffset": 489072,
   "target": 34962
  },
  {
   "buffer": 0,
   "byteLength": 3720,
   "byteOffset": 499824,
   "target": 34963
  },
  {
   "buffer": 0,
   "byteLength": 888,
   "byteOffset": 503544,
   "target": 34962
  },
  {
   "buffer": 0,
   "byteLength": 888,
   "byteOffset": 504432,
   "target": 34962
  },
  {
   "buffer": 0,
   "byteLength": 592,
   "byteOffset": 505320,
   "target": 34962
  },
  {
   "buffer": 0,
   "byteLength": 240,
   "byteOffset": 505912,
   "target": 34963
  },
  {
   "buffer": 0,
   "byteLength": 864,
   "byteOffset": 506152,
   "target": 34962
  },
  {
   "buffer": 0,
   "byteLength": 864,
   "byteOffset": 507016,
   "target": 34962
  },
  {
   "buffer": 0,
   "byteLength": 576,
   "byteOffset": 507880,
   "target": 34962
  },
  {
   "buffer": 0,
   "byteLength": 216,
   "byteOffset": 508456,
   "target": 34963
  },
  {
   "buffer": 0,
   "byteLength": 6336,
   "byteOffset": 508672,
   "target": 34962
  },
  {
   "buffer": 0,
   "byteLength": 6336,
   "byteOffset": 515008,
   "target": 34962
  },
  {
   "buffer": 0,
   "byteLength": 4224,
   "byteOffset": 521344,
   "target": 34962
  },
  {
   "buffer": 0,
   "byteLength": 1848,
   "byteOffset": 525568,
   "target": 34963
  },
  {
   "buffer": 0,
   "byteLength": 7296,
   "byteOffset": 527416,
   "target": 34962
  },
  {
   "buffer": 0,
   "byteLength": 7296,
   "byteOffset": 534712,
   "target": 34962
  },
  {
   "buffer": 0,
   "byteLength": 4864,
   "byteOffset": 542008,
   "target": 34962
  },
  {
   "buffer": 0,
   "byteLength": 2424,
   "byteOffset": 546872,
   "target": 34963
  },
  {
   "buffer": 0,
   "byteLength": 7512,
   "byteOffset": 549296,
   "target": 34962
  },
  {
   "buffer": 0,
   "byteLength": 7512,
   "byteOffset": 556808,
   "target": 34962
  },
  {
   "buffer": 0,
   "byteLength": 5008,
   "byteOffset": 564320,
   "target": 34962
  },
  {
   "buffer": 0,
   "byteLength": 2256,
   "byteOffset": 569328,
   "target": 34963
  },
  {
   "buffer": 0,
   "byteLength": 4488,
   "byteOffset": 571584,
   "target": 34962
  },
  {
   "buffer": 0,
   "byteLength": 4488,
   "byteOffset": 576072,
   "target": 34962
  },
  {
   "buffer": 0,
   "byteLength": 2992,
   "byteOffset": 580560,
   "target": 34962
  },
  {
   "buffer": 0,
   "byteLength": 3840,
   "byteOffset": 583552,
   "target": 34963
  },
  {
   "buffer": 0,
   "byteLength": 960,
   "byteOffset": 587392,
   "target": 34962
  },
  {
   "buffer": 0,
   "byteLength": 960,
   "byteOffset": 588352,
   "target": 34962
  },
  {
   "buffer": 0,
   "byteLength": 640,
   "byteOffset": 589312,
   "target": 34962
  },
  {
   "buffer": 0,
   "byteLength": 240,
   "byteOffset": 589952,
   "target": 34963
  },
  {
   "buffer": 0,
   "byteLength": 26016,
   "byteOffset": 590192,
   "target": 34962
  },
  {
   "buffer": 0,
   "byteLength": 26016,
   "byteOffset": 616208,
   "target": 34962
  },
  {
   "buffer": 0,
   "byteLength": 17344,
   "byteOffset": 642224,
   "target": 34962
  },
  {
   "buffer": 0,
   "byteLength": 14676,
   "byteOffset": 659568,
   "target": 34963
  },
  {
   "buffer": 0,
   "byteLength": 36876,
   "byteOffset": 674244,
   "target": 34962
  },
  {
   "buffer": 0,
   "byteLength": 36876,
   "byteOffset": 711120,
   "target": 34962
  },
  {
   "buffer": 0,
   "byteLength": 24584,
   "byteOffset": 747996,
   "target": 34962
  },
  {
   "buffer": 0,
   "byteLength": 13296,
   "byteOffset": 772580,
   "target": 34963
  },
  {
   "buffer": 0,
   "byteLength": 33852,
   "byteOffset": 785876,
   "target": 34962
  },
  {
   "buffer": 0,
   "byteLength": 33852,
   "byteOffset": 819728,
   "target": 34962
  },
  {
   "buffer": 0,
   "byteLength": 22568,
   "byteOffset": 853580,
   "target": 34962
  },
  {
   "buffer": 0,
   "byteLength": 11832,
   "byteOffset": 876148,
   "target": 34963
  },
  {
   "buffer": 0,
   "byteLength": 13068,
   "byteOffset": 887980,
   "target": 34962
  },
  {
   "buffer": 0,
   "byteLength": 13068,
   "byteOffset": 901048,
   "target": 34962
  },
  {
   "buffer": 0,
   "byteLength": 8712,
   "byteOffset": 914116,
   "target": 34962
  },
  {
   "buffer": 0,
   "byteLength": 6408,
   "byteOffset": 922828,
   "target": 34963
  },
  {
   "buffer": 0,
   "byteLength": 41520,
   "byteOffset": 929236,
   "target": 34962
  },
  {
   "buffer": 0,
   "byteLength": 41520,
   "byteOffset": 970756,
   "target": 34962
  },
  {
   "buffer": 0,
   "byteLength": 27680,
   "byteOffset": 1012276,
   "target": 34962
  },
  {
   "buffer": 0,
   "byteLength": 17520,
   "byteOffset": 1039956,
   "target": 34963
  },
  {
   "buffer": 0,
   "byteLength": 18972,
   "byteOffset": 1057476,
   "target": 34962
  },
  {
   "buffer": 0,
   "byteLength": 18972,
   "byteOffset": 1076448,
   "target": 34962
  },
  {
   "buffer": 0,
   "byteLength": 12648,
   "byteOffset": 1095420,
   "target": 34962
  },
  {
   "buffer": 0,
   "byteLength": 11544,
   "byteOffset": 1108068,
   "target": 34963
  },
  {
   "buffer": 0,
   "byteLength": 1848,
   "byteOffset": 1119612,
   "target": 34962
  },
  {
   "buffer": 0,
   "byteLength": 1848,
   "byteOffset": 1121460,
   "target": 34962
  },
  {
   "buffer": 0,
   "byteLength": 1232,
   "byteOffset": 1123308,
   "target": 34962
  },
  {
   "buffer": 0,
   "byteLength": 1494,
   "byteOffset": 1124540,
   "target": 34963
  },
  {
   "buffer": 0,
   "byteLength": 109752,
   "byteOffset": 1126036,
   "target": 34962
  },
  {
   "buffer": 0,
   "byteLength": 109752,
   "byteOffset": 1235788,
   "target": 34962
  },
  {
   "buffer": 0,
   "byteLength": 73168,
   "byteOffset": 1345540,
   "target": 34962
  },
  {
   "buffer": 0,
   "byteLength": 32268,
   "byteOffset": 1418708,
   "target": 34963
  },
  {
   "buffer": 0,
   "byteLength": 4680,
   "byteOffset": 1450976,
   "target": 34962
  },
  {
   "buffer": 0,
   "byteLength": 4680,
   "byteOffset": 1455656,
   "target": 34962
  },
  {
   "buffer": 0,
   "byteLength": 3120,
   "byteOffset": 1460336,
   "target": 34962
  },
  {
   "buffer": 0,
   "byteLength": 2004,
   "byteOffset": 1463456,
   "target": 34963
  },
  {
   "buffer": 0,
   "byteLength": 288,
   "byteOffset": 1465460,
   "target": 34962
  },
  {
   "buffer": 0,
   "byteLength": 288,
   "byteOffset": 1465748,
   "target": 34962
  },
  {
   "buffer": 0,
   "byteLength": 192,
   "byteOffset": 1466036,
   "target": 34962
  },
  {
   "buffer": 0,
   "byteLength": 288,
   "byteOffset": 1466228,
   "target": 34962
  },
  {
   "buffer": 0,
   "byteLength": 288,
   "byteOffset": 1466516,
   "target": 34962
  },
  {
   "buffer": 0,
   "byteLength": 192,
   "byteOffset": 1466804,
   "target": 34962
  },
  {
   "buffer": 0,
   "byteLength": 288,
   "byteOffset": 1466996,
   "target": 34962
  },
  {
   "buffer": 0,
   "byteLength": 288,
   "byteOffset": 1467284,
   "target": 34962
  },
  {
   "buffer": 0,
   "byteLength": 192,
   "byteOffset": 1467572,
   "target": 34962
  },
  {
   "buffer": 0,
   "byteLength": 288,
   "byteOffset": 1467764,
   "target": 34962
  },
  {
   "buffer": 0,
   "byteLength": 288,
   "byteOffset": 1468052,
   "target": 34962
  },
  {
   "buffer": 0,
   "byteLength": 192,
   "byteOffset": 1468340,
   "target": 34962
  },
  {
   "buffer": 0,
   "byteLength": 288,
   "byteOffset": 1468532,
   "target": 34962
  },
  {
   "buffer": 0,
   "byteLength": 288,
   "byteOffset": 1468820,
   "target": 34962
  },
  {
   "buffer": 0,
   "byteLength": 192,
   "byteOffset": 1469108,
   "target": 34962
  },
  {
   "buffer": 0,
   "byteLength": 288,
   "byteOffset": 1469300,
   "target": 34962
  },
  {
   "buffer": 0,
   "byteLength": 288,
   "byteOffset": 1469588,
   "target": 34962
  },
  {
   "buffer": 0,
   "byteLength": 192,
   "byteOffset": 1469876,
   "target": 34962
  },
  {
   "buffer": 0,
   "byteLength": 288,
   "byteOffset": 1470068,
   "target": 34962
  },
  {
   "buffer": 0,
   "byteLength": 288,
   "byteOffset": 1470356,
   "target": 34962
  },
  {
   "buffer": 0,
   "byteLength": 192,
   "byteOffset": 1470644,
   "target": 34962
  },
  {
   "buffer": 0,
   "byteLength": 288,
   "byteOffset": 1470836,
   "target": 34962
  },
  {
   "buffer": 0,
   "byteLength": 288,
   "byteOffset": 1471124,
   "target": 34962
  },
  {
   "buffer": 0,
   "byteLength": 192,
   "byteOffset": 1471412,
   "target": 34962
  },
  {
   "buffer": 0,
   "byteLength": 288,
   "byteOffset": 1471604,
   "target": 34962
  },
  {
   "buffer": 0,
   "byteLength": 288,
   "byteOffset": 1471892,
   "target": 34962
  },
  {
   "buffer": 0,
   "byteLength": 192,
   "byteOffset": 1472180,
   "target": 34962
  },
  {
   "buffer": 0,
   "byteLength": 288,
   "byteOffset": 1472372,
   "target": 34962
  },
  {
   "buffer": 0,
   "byteLength": 288,
   "byteOffset": 1472660,
   "target": 34962
  },
  {
   "buffer": 0,
   "byteLength": 192,
   "byteOffset": 1472948,
   "target": 34962
  },
  {
   "buffer": 0,
   "byteLength": 288,
   "byteOffset": 1473140,
   "target": 34962
  },
  {
   "buffer": 0,
   "byteLength": 288,
   "byteOffset": 1473428,
   "target": 34962
  },
  {
   "buffer": 0,
   "byteLength": 192,
   "byteOffset": 1473716,
   "target": 34962
  },
  {
   "buffer": 0,
   "byteLength": 288,
   "byteOffset": 1473908,
   "target": 34962
  },
  {
   "buffer": 0,
   "byteLength": 288,
   "byteOffset": 1474196,
   "target": 34962
  },
  {
   "buffer": 0,
   "byteLength": 192,
   "byteOffset": 1474484,
   "target": 34962
  },
  {
   "buffer": 0,
   "byteLength": 288,
   "byteOffset": 1474676,
   "target": 34962
  },
  {
   "buffer": 0,
   "byteLength": 288,
   "byteOffset": 1474964,
   "target": 34962
  },
  {
   "buffer": 0,
   "byteLength": 192,
   "byteOffset": 1475252,
   "target": 34962
  },
  {
   "buffer": 0,
   "byteLength": 288,
   "byteOffset": 1475444,
   "target": 34962
  },
  {
   "buffer": 0,
   "byteLength": 288,
   "byteOffset": 1475732,
   "target": 34962
  },
  {
   "buffer": 0,
   "byteLength": 192,
   "byteOffset": 1476020,
   "target": 34962
  },
  {
   "buffer": 0,
   "byteLength": 288,
   "byteOffset": 1476212,
   "target": 34962
  },
  {
   "buffer": 0,
   "byteLength": 288,
   "byteOffset": 1476500,
   "target": 34962
  },
  {
   "buffer": 0,
   "byteLength": 192,
   "byteOffset": 1476788,
   "target": 34962
  },
  {
   "buffer": 0,
   "byteLength": 288,
   "byteOffset": 1476980,
   "target": 34962
  },
  {
   "buffer": 0,
   "byteLength": 288,
   "byteOffset": 1477268,
   "target": 34962
  },
  {
   "buffer": 0,
   "byteLength": 192,
   "byteOffset": 1477556,
   "target": 34962
  },
  {
   "buffer": 0,
   "byteLength": 288,
   "byteOffset": 1477748,
   "target": 34962
  },
  {
   "buffer": 0,
   "byteLength": 288,
   "byteOffset": 1478036,
   "target": 34962
  },
  {
   "buffer": 0,
   "byteLength": 192,
   "byteOffset": 1478324,
   "target": 34962
  },
  {
   "buffer": 0,
   "byteLength": 288,
   "byteOffset": 1478516,
   "target": 34962
  },
  {
   "buffer": 0,
   "byteLength": 288,
   "byteOffset": 1478804,
   "target": 34962
  },
  {
   "buffer": 0,
   "byteLength": 192,
   "byteOffset": 1479092,
   "target": 34962
  },
  {
   "buffer": 0,
   "byteLength": 288,
   "byteOffset": 1479284,
   "target": 34962
  },
  {
   "buffer": 0,
   "byteLength": 288,
   "byteOffset": 1479572,
   "target": 34962
  },
  {
   "buffer": 0,
   "byteLength": 192,
   "byteOffset": 1479860,
   "target": 34962
  },
  {
   "buffer": 0,
   "byteLength": 288,
   "byteOffset": 1480052,
   "target": 34962
  },
  {
   "buffer": 0,
   "byteLength": 288,
   "byteOffset": 1480340,
   "target": 34962
  },
  {
   "buffer": 0,
   "byteLength": 192,
   "byteOffset": 1480628,
   "target": 34962
  },
  {
   "buffer": 0,
   "byteLength": 288,
   "byteOffset": 1480820,
   "target": 34962
  },
  {
   "buffer": 0,
   "byteLength": 288,
   "byteOffset": 1481108,
   "target": 34962
  },
  {
   "buffer": 0,
   "byteLength": 192,
   "byteOffset": 1481396,
   "target": 34962
  },
  {
   "buffer": 0,
   "byteLength": 288,
   "byteOffset": 1481588,
   "target": 34962
  },
  {
   "buffer": 0,
   "byteLength": 288,
   "byteOffset": 1481876,
   "target": 34962
  },
  {
   "buffer": 0,
   "byteLength": 192,
   "byteOffset": 1482164,
   "target": 34962
  },
  {
   "buffer": 0,
   "byteLength": 288,
   "byteOffset": 1482356,
   "target": 34962
  },
  {
   "buffer": 0,
   "byteLength": 288,
   "byteOffset": 1482644,
   "target": 34962
  },
  {
   "buffer": 0,
   "byteLength": 192,
   "byteOffset": 1482932,
   "target": 34962
  }
 ],
 "samplers": [
  {
   "magFilter": 9729,
   "minFilter": 9987
  }
 ],
 "buffers": [
  {
   "byteLength": 1483124,
   "uri": "bld_shed.bin"
  }
 ]
}