{
 "asset": {
  "generator": "Khronos glTF Blender I/O v4.5.51",
  "version": "2.0"
 },
 "scene": 0,
 "scenes": [
  {
   "name": "Scene",
   "nodes": [
    0,
    1,
    2,
    3
   ]
  }
 ],
 "nodes": [
  {
   "mesh": 0,
   "name": "body"
  },
  {
   "mesh": 1,
   "name": "wheel_1",
   "translation": [
    0,
    0.5460000038146973,
    -1.5
   ]
  },
  {
   "mesh": 2,
   "name": "wheel_2",
   "translation": [
    0,
    0.5460000038146973,
    -0.10000000149011612
   ]
  },
  {
   "mesh": 3,
   "name": "wheel_3",
   "translation": [
    0,
    0.5460000038146973,
    1.2999999523162842
   ]
  }
 ],
 "materials": [
  {
   "name": "chequer_plate",
   "normalTexture": {
    "index": 0
   },
   "occlusionTexture": {
    "index": 1
   },
   "pbrMetallicRoughness": {
    "baseColorTexture": {
     "index": 2
    },
    "metallicRoughnessTexture": {
     "index": 1
    }
   }
  },
  {
   "name": "loco_black",
   "normalTexture": {
    "index": 3
   },
   "occlusionTexture": {
    "index": 4
   },
   "pbrMetallicRoughness": {
    "baseColorTexture": {
     "index": 5
    },
    "metallicRoughnessTexture": {
     "index": 4
    }
   }
  },
  {
   "name": "wasp_stripes",
   "normalTexture": {
    "index": 6
   },
   "occlusionTexture": {
    "index": 7
   },
   "pbrMetallicRoughness": {
    "baseColorTexture": {
     "index": 8
    },
    "metallicRoughnessTexture": {
     "index": 7
    }
   }
  },
  {
   "name": "rust_iron",
   "normalTexture": {
    "index": 9
   },
   "occlusionTexture": {
    "index": 10
   },
   "pbrMetallicRoughness": {
    "baseColorTexture": {
     "index": 11
    },
    "metallicRoughnessTexture": {
     "index": 10
    }
   }
  },
  {
   "name": "loco_green",
   "normalTexture": {
    "index": 12
   },
   "occlusionTexture": {
    "index": 13
   },
   "pbrMetallicRoughness": {
    "baseColorTexture": {
     "index": 14
    },
    "metallicRoughnessTexture": {
     "index": 13
    }
   }
  },
  {
   "name": "soot",
   "normalTexture": {
    "index": 15
   },
   "occlusionTexture": {
    "index": 16
   },
   "pbrMetallicRoughness": {
    "baseColorTexture": {
     "index": 17
    },
    "metallicRoughnessTexture": {
     "index": 16
    }
   }
  },
  {
   "name": "glass_dirty",
   "normalTexture": {
    "index": 18
   },
   "occlusionTexture": {
    "index": 19
   },
   "pbrMetallicRoughness": {
    "baseColorTexture": {
     "index": 20
    },
    "metallicRoughnessTexture": {
     "index": 19
    }
   }
  }
 ],
 "meshes": [
  {
   "name": "body",
   "primitives": [
    {
     "attributes": {
      "POSITION": 0,
      "NORMAL": 1,
      "TEXCOORD_0": 2
     },
     "indices": 3,
     "material": 0
    },
    {
     "attributes": {
      "POSITION": 4,
      "NORMAL": 5,
      "TEXCOORD_0": 6
     },
     "indices": 7,
     "material": 1
    },
    {
     "attributes": {
      "POSITION": 8,
      "NORMAL": 9,
      "TEXCOORD_0": 10
     },
     "indices": 11,
     "material": 2
    },
    {
     "attributes": {
      "POSITION": 12,
      "NORMAL": 13,
      "TEXCOORD_0": 14
     },
     "indices": 15,
     "material": 3
    },
    {
     "attributes": {
      "POSITION": 16,
      "NORMAL": 17,
      "TEXCOORD_0": 18
     },
     "indices": 19,
     "material": 4
    },
    {
     "attributes": {
      "POSITION": 20,
      "NORMAL": 21,
      "TEXCOORD_0": 22
     },
     "indices": 23,
     "material": 5
    },
    {
     "attributes": {
      "POSITION": 24,
      "NORMAL": 25,
      "TEXCOORD_0": 26
     },
     "indices": 27,
     "material": 6
    }
   ]
  },
  {
   "name": "wheel_1",
   "primitives": [
    {
     "attributes": {
      "POSITION": 28,
      "NORMAL": 29,
      "TEXCOORD_0": 30
     },
     "indices": 31,
     "material": 1
    }
   ]
  },
  {
   "name": "wheel_2",
   "primitives": [
    {
     "attributes": {
      "POSITION": 32,
      "NORMAL": 33,
      "TEXCOORD_0": 34
     },
     "indices": 31,
     "material": 1
    }
   ]
  },
  {
   "name": "wheel_3",
   "primitives": [
    {
     "attributes": {
      "POSITION": 35,
      "NORMAL": 36,
      "TEXCOORD_0": 37
     },
     "indices": 31,
     "material": 1
    }
   ]
  }
 ],
 "textures": [
  {
   "sampler": 0,
   "source": 0
  },
  {
   "sampler": 0,
   "source": 1
  },
  {
   "sampler": 0,
   "source": 2
  },
  {
   "sampler": 0,
   "source": 3
  },
  {
   "sampler": 0,
   "source": 4
  },
  {
   "sampler": 0,
   "source": 5
  },
  {
   "sampler": 0,
   "source": 6
  },
  {
   "sampler": 0,
   "source": 7
  },
  {
   "sampler": 0,
   "source": 8
  },
  {
   "sampler": 0,
   "source": 9
  },
  {
   "sampler": 0,
   "source": 10
  },
  {
   "sampler": 0,
   "source": 11
  },
  {
   "sampler": 0,
   "source": 12
  },
  {
   "sampler": 0,
   "source": 13
  },
  {
   "sampler": 0,
   "source": 14
  },
  {
   "sampler": 0,
   "source": 15
  },
  {
   "sampler": 0,
   "source": 16
  },
  {
   "sampler": 0,
   "source": 17
  },
  {
   "sampler": 0,
   "source": 18
  },
  {
   "sampler": 0,
   "source": 19
  },
  {
   "sampler": 0,
   "source": 20
  }
 ],
 "images": [
  {
   "mimeType": "image/png",
   "name": "chequer_plate_normal.png",
   "uri": "../_library/chequer_plate_normal.png"
  },
  {
   "mimeType": "image/png",
   "name": "chequer_plate_orm.png",
   "uri": "../_library/chequer_plate_orm.png"
  },
  {
   "mimeType": "image/png",
   "name": "chequer_plate_albedo.png",
   "uri": "../_library/chequer_plate_albedo.png"
  },
  {
   "mimeType": "image/png",
   "name": "loco_black_normal.png",
   "uri": "../_library/loco_black_normal.png"
  },
  {
   "mimeType": "image/png",
   "name": "loco_black_orm.png",
   "uri": "../_library/loco_black_orm.png"
  },
  {
   "mimeType": "image/png",
   "name": "loco_black_albedo.png",
   "uri": "../_library/loco_black_albedo.png"
  },
  {
   "mimeType": "image/png",
   "name": "wasp_stripes_normal.png",
   "uri": "../_library/wasp_stripes_normal.png"
  },
  {
   "mimeType": "image/png",
   "name": "wasp_stripes_orm.png",
   "uri": "../_library/wasp_stripes_orm.png"
  },
  {
   "mimeType": "image/png",
   "name": "wasp_stripes_albedo.png",
   "uri": "../_library/wasp_stripes_albedo.png"
  },
  {
   "mimeType": "image/png",
   "name": "rust_iron_normal.png",
   "uri": "../_library/rust_iron_normal.png"
  },
  {
   "mimeType": "image/png",
   "name": "rust_iron_orm.png",
   "uri": "../_library/rust_iron_orm.png"
  },
  {
   "mimeType": "image/png",
   "name": "rust_iron_albedo.png",
   "uri": "../_library/rust_iron_albedo.png"
  },
  {
   "mimeType": "image/png",
   "name": "loco_green_normal.png",
   "uri": "../_library/loco_green_normal.png"
  },
  {
   "mimeType": "image/png",
   "name": "loco_green_orm.png",
   "uri": "../_library/loco_green_orm.png"
  },
  {
   "mimeType": "image/png",
   "name": "loco_green_albedo.png",
   "uri": "../_library/loco_green_albedo.png"
  },
  {
   "mimeType": "image/png",
   "name": "soot_normal.png",
   "uri": "../_library/soot_normal.png"
  },
  {
   "mimeType": "image/png",
   "name": "soot_orm.png",
   "uri": "../_library/soot_orm.png"
  },
  {
   "mimeType": "image/png",
   "name": "soot_albedo.png",
   "uri": "../_library/soot_albedo.png"
  },
  {
   "mimeType": "image/png",
   "name": "glass_dirty_normal.png",
   "uri": "../_library/glass_dirty_normal.png"
  },
  {
   "mimeType": "image/png",
   "name": "glass_dirty_orm.png",
   "uri": "../_library/glass_dirty_orm.png"
  },
  {
   "mimeType": "image/png",
   "name": "glass_dirty_albedo.png",
   "uri": "../_library/glass_dirty_albedo.png"
  }
 ],
 "accessors": [
  {
   "bufferView": 0,
   "componentType": 5126,
   "count": 4,
   "max": [
    1.2999999523162842,
    1.2999999523162842,
    3.5
   ],
   "min": [
    -1.2999999523162842,
    1.2999999523162842,
    -3.5
   ],
   "type": "VEC3"
  },
  {
   "bufferView": 1,
   "componentType": 5126,
   "count": 4,
   "type": "VEC3"
  },
  {
   "bufferView": 2,
   "componentType": 5126,
   "count": 4,
   "type": "VEC2"
  },
  {
   "bufferView": 3,
   "componentType": 5123,
   "count": 6,
   "type": "SCALAR"
  },
  {
   "bufferView": 4,
   "componentType": 5126,
   "count": 1047,
   "max": [
    1.7000000476837158,
    3.619999885559082,
    4
   ],
   "min": [
    -1.7000000476837158,
    0.05000000447034836,
    -4
   ],
   "type": "VEC3"
  },
  {
   "bufferView": 5,
   "componentType": 5126,
   "count": 1047,
   "type": "VEC3"
  },
  {
   "bufferView": 6,
   "componentType": 5126,
   "count": 1047,
   "type": "VEC2"
  },
  {
   "bufferView": 7,
   "componentType": 5123,
   "count": 1782,
   "type": "SCALAR"
  },
  {
   "bufferView": 8,
   "componentType": 5126,
   "count": 24,
   "max": [
    1.2999999523162842,
    2.140000104904175,
    3.5
   ],
   "min": [
    -1.2999999523162842,
    0.699999988079071,
    -3.5
   ],
   "type": "VEC3"
  },
  {
   "bufferView": 9,
   "componentType": 5126,
   "count": 24,
   "type": "VEC3"
  },
  {
   "bufferView": 10,
   "componentType": 5126,
   "count": 24,
   "type": "VEC2"
  },
  {
   "bufferView": 11,
   "componentType": 5123,
   "count": 36,
   "type": "SCALAR"
  },
  {
   "bufferView": 12,
   "componentType": 5126,
   "count": 48,
   "max": [
    0.029999999329447746,
    1.0800000429153442,
    3.8000001907348633
   ],
   "min": [
    -0.029999999329447746,
    0.9399999380111694,
    -3.8000001907348633
   ],
   "type": "VEC3"
  },
  {
   "bufferView": 13,
   "componentType": 5126,
   "count": 48,
   "type": "VEC3"
  },
  {
   "bufferView": 14,
   "componentType": 5126,
   "count": 48,
   "type": "VEC2"
  },
  {
   "bufferView": 15,
   "componentType": 5123,
   "count": 72,
   "type": "SCALAR"
  },
  {
   "bufferView": 16,
   "componentType": 5126,
   "count": 76,
   "max": [
    1.2999999523162842,
    3.5899999141693115,
    3.299999952316284
   ],
   "min": [
    -1.2999999523162842,
    1.2999999523162842,
    -3.0999999046325684
   ],
   "type": "VEC3"
  },
  {
   "bufferView": 17,
   "componentType": 5126,
   "count": 76,
   "type": "VEC3"
  },
  {
   "bufferView": 18,
   "componentType": 5126,
   "count": 76,
   "type": "VEC2"
  },
  {
   "bufferView": 19,
   "componentType": 5123,
   "count": 138,
   "type": "SCALAR"
  },
  {
   "bufferView": 20,
   "componentType": 5126,
   "count": 12,
   "max": [
    1.3040000200271606,
    3.200000047683716,
    3.1500000953674316
   ],
   "min": [
    -1.3040000200271606,
    1.2999999523162842,
    -3.1019999980926514
   ],
   "type": "VEC3"
  },
  {
   "bufferView": 21,
   "componentType": 5126,
   "count": 12,
   "type": "VEC3"
  },
  {
   "bufferView": 22,
   "componentType": 5126,
   "count": 12,
   "type": "VEC2"
  },
  {
   "bufferView": 23,
   "componentType": 5123,
   "count": 18,
   "type": "SCALAR"
  },
  {
   "bufferView": 24,
   "componentType": 5126,
   "count": 24,
   "max": [
    1.3040000200271606,
    3,
    3.303999900817871
   ],
   "min": [
    -1.3040000200271606,
    2.2699999809265137,
    1.1959999799728394
   ],
   "type": "VEC3"
  },
  {
   "bufferView": 25,
   "componentType": 5126,
   "count": 24,
   "type": "VEC3"
  },
  {
   "bufferView": 26,
   "componentType": 5126,
   "count": 24,
   "type": "VEC2"
  },
  {
   "bufferView": 27,
   "componentType": 5123,
   "count": 36,
   "type": "SCALAR"
  },
  {
   "bufferView": 28,
   "componentType": 5126,
   "count": 280,
   "max": [
    0.815000057220459,
    0.5740000009536743,
    0.5740000009536743
   ],
   "min": [
    -0.815000057220459,
    -0.5740000009536743,
    -0.5739998817443848
   ],
   "type": "VEC3"
  },
  {
   "bufferView": 29,
   "componentType": 5126,
   "count": 280,
   "type": "VEC3"
  },
  {
   "bufferView": 30,
   "componentType": 5126,
   "count": 280,
   "type": "VEC2"
  },
  {
   "bufferView": 31,
   "componentType": 5123,
   "count": 612,
   "type": "SCALAR"
  },
  {
   "bufferView": 32,
   "componentType": 5126,
   "count": 280,
   "max": [
    0.815000057220459,
    0.5740000009536743,
    0.5740000009536743
   ],
   "min": [
    -0.815000057220459,
    -0.5740000009536743,
    -0.5740000009536743
   ],
   "type": "VEC3"
  },
  {
   "bufferView": 33,
   "componentType": 5126,
   "count": 280,
   "type": "VEC3"
  },
  {
   "bufferView": 34,
   "componentType": 5126,
   "count": 280,
   "type": "VEC2"
  },
  {
   "bufferView": 35,
   "componentType": 5126,
   "count": 280,
   "max": [
    0.815000057220459,
    0.5740000009536743,
    0.5740000009536743
   ],
   "min": [
    -0.815000057220459,
    -0.5740000009536743,
    -0.5740000009536743
   ],
   "type": "VEC3"
  },
  {
   "bufferView": 36,
   "componentType": 5126,
   "count": 280,
   "type": "VEC3"
  },
  {
   "bufferView": 37,
   "componentType": 5126,
   "count": 280,
   "type": "VEC2"
  }
 ],
 "bufferViews": [
  {
   "buffer": 0,
   "byteLength": 48,
   "byteOffset": 0,
   "target": 34962
  },
  {
   "buffer": 0,
   "byteLength": 48,
   "byteOffset": 48,
   "target": 34962
  },
  {
   "buffer": 0,
   "byteLength": 32,
   "byteOffset": 96,
   "target": 34962
  },
  {
   "buffer": 0,
   "byteLength": 12,
   "byteOffset": 128,
   "target": 34963
  },
  {
   "buffer": 0,
   "byteLength": 12564,
   "byteOffset": 140,
   "target": 34962
  },
  {
   "buffer": 0,
   "byteLength": 12564,
   "byteOffset": 12704,
   "target": 34962
  },
  {
   "buffer": 0,
   "byteLength": 8376,
   "byteOffset": 25268,
   "target": 34962
  },
  {
   "buffer": 0,
   "byteLength": 3564,
   "byteOffset": 33644,
   "target": 34963
  },
  {
   "buffer": 0,
   "byteLength": 288,
   "byteOffset": 37208,
   "target": 34962
  },
  {
   "buffer": 0,
   "byteLength": 288,
   "byteOffset": 37496,
   "target": 34962
  },
  {
   "buffer": 0,
   "byteLength": 192,
   "byteOffset": 37784,
   "target": 34962
  },
  {
   "buffer": 0,
   "byteLength": 72,
   "byteOffset": 37976,
   "target": 34963
  },
  {
   "buffer": 0,
   "byteLength": 576,
   "byteOffset": 38048,
   "target": 34962
  },
  {
   "buffer": 0,
   "byteLength": 576,
   "byteOffset": 38624,
   "target": 34962
  },
  {
   "buffer": 0,
   "byteLength": 384,
   "byteOffset": 39200,
   "target": 34962
  },
  {
   "buffer": 0,
   "byteLength": 144,
   "byteOffset": 39584,
   "target": 34963
  },
  {
   "buffer": 0,
   "byteLength": 912,
   "byteOffset": 39728,
   "target": 34962
  },
  {
   "buffer": 0,
   "byteLength": 912,
   "byteOffset": 40640,
   "target": 34962
  },
  {
   "buffer": 0,
   "byteLength": 608,
   "byteOffset": 41552,
   "target": 34962
  },
  {
   "buffer": 0,
   "byteLength": 276,
   "byteOffset": 42160,
   "target": 34963
  },
  {
   "buffer": 0,
   "byteLength": 144,
   "byteOffset": 42436,
   "target": 34962
  },
  {
   "buffer": 0,
   "byteLength": 144,
   "byteOffset": 42580,
   "target": 34962
  },
  {
   "buffer": 0,
   "byteLength": 96,
   "byteOffset": 42724,
   "target": 34962
  },
  {
   "buffer": 0,
   "byteLength": 36,
   "byteOffset": 42820,
   "target": 34963
  },
  {
   "buffer": 0,
   "byteLength": 288,
   "byteOffset": 42856,
   "target": 34962
  },
  {
   "buffer": 0,
   "byteLength": 288,
   "byteOffset": 43144,
   "target": 34962
  },
  {
   "buffer": 0,
   "byteLength": 192,
   "byteOffset": 43432,
   "target": 34962
  },
  {
   "buffer": 0,
   "byteLength": 72,
   "byteOffset": 43624,
   "target": 34963
  },
  {
   "buffer": 0,
   "byteLength": 3360,
   "byteOffset": 43696,
   "target": 34962
  },
  {
   "buffer": 0,
   "byteLength": 3360,
   "byteOffset": 47056,
   "target": 34962
  },
  {
   "buffer": 0,
   "byteLength": 2240,
   "byteOffset": 50416,
   "target": 34962
  },
  {
   "buffer": 0,
   "byteLength": 1224,
   "byteOffset": 52656,
   "target": 34963
  },
  {
   "buffer": 0,
   "byteLength": 3360,
   "byteOffset": 53880,
   "target": 34962
  },
  {
   "buffer": 0,
   "byteLength": 3360,
   "byteOffset": 57240,
   "target": 34962
  },
  {
   "buffer": 0,
   "byteLength": 2240,
   "byteOffset": 60600,
   "target": 34962
  },
  {
   "buffer": 0,
   "byteLength": 3360,
   "byteOffset": 62840,
   "target": 34962
  },
  {
   "buffer": 0,
   "byteLength": 3360,
   "byteOffset": 66200,
   "target": 34962
  },
  {
   "buffer": 0,
   "byteLength": 2240,
   "byteOffset": 69560,
   "target": 34962
  }
 ],
 "samplers": [
  {
   "magFilter": 9729,
   "minFilter": 9987
  }
 ],
 "buffers": [
  {
   "byteLength": 71800,
   "uri": "train_locomotive_far.bin"
  }
 ]
}