{
 "asset": {
  "generator": "Khronos glTF Blender I/O v4.5.51",
  "version": "2.0"
 },
 "scene": 0,
 "scenes": [
  {
   "name": "Scene",
   "nodes": [
    0,
    1,
    2,
    3,
    4
   ]
  }
 ],
 "nodes": [
  {
   "mesh": 0,
   "name": "body"
  },
  {
   "mesh": 1,
   "name": "wheel_fl",
   "translation": [
    0.7749999761581421,
    0.4000000059604645,
    1.3969999551773071
   ]
  },
  {
   "mesh": 2,
   "name": "wheel_fr",
   "translation": [
    -0.7749999761581421,
    0.4000000059604645,
    1.3969999551773071
   ]
  },
  {
   "mesh": 3,
   "name": "wheel_rl",
   "translation": [
    0.7749999761581421,
    0.4000000059604645,
    -1.3969999551773071
   ]
  },
  {
   "mesh": 4,
   "name": "wheel_rr",
   "translation": [
    -0.7749999761581421,
    0.4000000059604645,
    -1.3969999551773071
   ]
  }
 ],
 "materials": [
  {
   "doubleSided": true,
   "name": "veh_rover_hull",
   "normalTexture": {
    "index": 0
   },
   "occlusionTexture": {
    "index": 1
   },
   "pbrMetallicRoughness": {
    "baseColorTexture": {
     "index": 2
    },
    "metallicRoughnessTexture": {
     "index": 1
    }
   }
  },
  {
   "doubleSided": true,
   "name": "veh_rover_wheel",
   "normalTexture": {
    "index": 3
   },
   "occlusionTexture": {
    "index": 4
   },
   "pbrMetallicRoughness": {
    "baseColorTexture": {
     "index": 5
    },
    "metallicRoughnessTexture": {
     "index": 4
    }
   }
  }
 ],
 "meshes": [
  {
   "name": "body",
   "primitives": [
    {
     "attributes": {
      "POSITION": 0,
      "NORMAL": 1,
      "TEXCOORD_0": 2
     },
     "indices": 3,
     "material": 0
    }
   ]
  },
  {
   "name": "wheel_fl",
   "primitives": [
    {
     "attributes": {
      "POSITION": 4,
      "NORMAL": 5,
      "TEXCOORD_0": 6
     },
     "indices": 7,
     "material": 1
    }
   ]
  },
  {
   "name": "wheel_fr",
   "primitives": [
    {
     "attributes": {
      "POSITION": 8,
      "NORMAL": 9,
      "TEXCOORD_0": 10
     },
     "indices": 7,
     "material": 1
    }
   ]
  },
  {
   "name": "wheel_rl",
   "primitives": [
    {
     "attributes": {
      "POSITION": 11,
      "NORMAL": 12,
      "TEXCOORD_0": 13
     },
     "indices": 7,
     "material": 1
    }
   ]
  },
  {
   "name": "wheel_rr",
   "primitives": [
    {
     "attributes": {
      "POSITION": 14,
      "NORMAL": 15,
      "TEXCOORD_0": 16
     },
     "indices": 7,
     "material": 1
    }
   ]
  }
 ],
 "textures": [
  {
   "sampler": 0,
   "source": 0
  },
  {
   "sampler": 0,
   "source": 1
  },
  {
   "sampler": 0,
   "source": 2
  },
  {
   "sampler": 0,
   "source": 3
  },
  {
   "sampler": 0,
   "source": 4
  },
  {
   "sampler": 0,
   "source": 5
  }
 ],
 "images": [
  {
   "mimeType": "image/png",
   "name": "veh_rover_hull_normal",
   "uri": "../veh_rover/veh_rover_hull_normal.png"
  },
  {
   "mimeType": "image/png",
   "name": "veh_rover_hull_orm",
   "uri": "../veh_rover/veh_rover_hull_orm.png"
  },
  {
   "mimeType": "image/png",
   "name": "veh_rover_hull_albedo",
   "uri": "../veh_rover/veh_rover_hull_albedo.png"
  },
  {
   "mimeType": "image/png",
   "name": "veh_rover_wheel_normal",
   "uri": "../veh_rover/veh_rover_wheel_normal.png"
  },
  {
   "mimeType": "image/png",
   "name": "veh_rover_wheel_orm",
   "uri": "../veh_rover/veh_rover_wheel_orm.png"
  },
  {
   "mimeType": "image/png",
   "name": "veh_rover_wheel_albedo",
   "uri": "../veh_rover/veh_rover_wheel_albedo.png"
  }
 ],
 "accessors": [
  {
   "bufferView": 0,
   "componentType": 5126,
   "count": 194,
   "max": [
    1,
    2.559999942779541,
    2.260000228881836
   ],
   "min": [
    -0.8600000143051147,
    0.4700000286102295,
    -2.200000047683716
   ],
   "type": "VEC3"
  },
  {
   "bufferView": 1,
   "componentType": 5126,
   "count": 194,
   "type": "VEC3"
  },
  {
   "bufferView": 2,
   "componentType": 5126,
   "count": 194,
   "type": "VEC2"
  },
  {
   "bufferView": 3,
   "componentType": 5123,
   "count": 336,
   "type": "SCALAR"
  },
  {
   "bufferView": 4,
   "componentType": 5126,
   "count": 108,
   "max": [
    0.1549999713897705,
    0.4000000059604645,
    0.3999999761581421
   ],
   "min": [
    -0.13499999046325684,
    -0.4000000059604645,
    -0.3999999761581421
   ],
   "type": "VEC3"
  },
  {
   "bufferView": 5,
   "componentType": 5126,
   "count": 108,
   "type": "VEC3"
  },
  {
   "bufferView": 6,
   "componentType": 5126,
   "count": 108,
   "type": "VEC2"
  },
  {
   "bufferView": 7,
   "componentType": 5123,
   "count": 264,
   "type": "SCALAR"
  },
  {
   "bufferView": 8,
   "componentType": 5126,
   "count": 108,
   "max": [
    0.13500002026557922,
    0.4000000059604645,
    0.3999999761581421
   ],
   "min": [
    -0.1549999862909317,
    -0.4000000059604645,
    -0.3999999761581421
   ],
   "type": "VEC3"
  },
  {
   "bufferView": 9,
   "componentType": 5126,
   "count": 108,
   "type": "VEC3"
  },
  {
   "bufferView": 10,
   "componentType": 5126,
   "count": 108,
   "type": "VEC2"
  },
  {
   "bufferView": 11,
   "componentType": 5126,
   "count": 108,
   "max": [
    0.1549999713897705,
    0.4000000059604645,
    0.3999999761581421
   ],
   "min": [
    -0.13499999046325684,
    -0.4000000059604645,
    -0.3999999761581421
   ],
   "type": "VEC3"
  },
  {
   "bufferView": 12,
   "componentType": 5126,
   "count": 108,
   "type": "VEC3"
  },
  {
   "bufferView": 13,
   "componentType": 5126,
   "count": 108,
   "type": "VEC2"
  },
  {
   "bufferView": 14,
   "componentType": 5126,
   "count": 108,
   "max": [
    0.13500002026557922,
    0.4000000059604645,
    0.3999999761581421
   ],
   "min": [
    -0.1549999862909317,
    -0.4000000059604645,
    -0.3999999761581421
   ],
   "type": "VEC3"
  },
  {
   "bufferView": 15,
   "componentType": 5126,
   "count": 108,
   "type": "VEC3"
  },
  {
   "bufferView": 16,
   "componentType": 5126,
   "count": 108,
   "type": "VEC2"
  }
 ],
 "bufferViews": [
  {
   "buffer": 0,
   "byteLength": 2328,
   "byteOffset": 0,
   "target": 34962
  },
  {
   "buffer": 0,
   "byteLength": 2328,
   "byteOffset": 2328,
   "target": 34962
  },
  {
   "buffer": 0,
   "byteLength": 1552,
   "byteOffset": 4656,
   "target": 34962
  },
  {
   "buffer": 0,
   "byteLength": 672,
   "byteOffset": 6208,
   "target": 34963
  },
  {
   "buffer": 0,
   "byteLength": 1296,
   "byteOffset": 6880,
   "target": 34962
  },
  {
   "buffer": 0,
   "byteLength": 1296,
   "byteOffset": 8176,
   "target": 34962
  },
  {
   "buffer": 0,
   "byteLength": 864,
   "byteOffset": 9472,
   "target": 34962
  },
  {
   "buffer": 0,
   "byteLength": 528,
   "byteOffset": 10336,
   "target": 34963
  },
  {
   "buffer": 0,
   "byteLength": 1296,
   "byteOffset": 10864,
   "target": 34962
  },
  {
   "buffer": 0,
   "byteLength": 1296,
   "byteOffset": 12160,
   "target": 34962
  },
  {
   "buffer": 0,
   "byteLength": 864,
   "byteOffset": 13456,
   "target": 34962
  },
  {
   "buffer": 0,
   "byteLength": 1296,
   "byteOffset": 14320,
   "target": 34962
  },
  {
   "buffer": 0,
   "byteLength": 1296,
   "byteOffset": 15616,
   "target": 34962
  },
  {
   "buffer": 0,
   "byteLength": 864,
   "byteOffset": 16912,
   "target": 34962
  },
  {
   "buffer": 0,
   "byteLength": 1296,
   "byteOffset": 17776,
   "target": 34962
  },
  {
   "buffer": 0,
   "byteLength": 1296,
   "byteOffset": 19072,
   "target": 34962
  },
  {
   "buffer": 0,
   "byteLength": 864,
   "byteOffset": 20368,
   "target": 34962
  }
 ],
 "samplers": [
  {
   "magFilter": 9729,
   "minFilter": 9987
  }
 ],
 "buffers": [
  {
   "byteLength": 21232,
   "uri": "veh_rover_far.bin"
  }
 ]
}