{
 "asset": {
  "generator": "zero point flora",
  "version": "2.0"
 },
 "scene": 0,
 "scenes": [
  {
   "name": "Scene",
   "nodes": [
    0,
    1
   ]
  }
 ],
 "nodes": [
  {
   "mesh": 0,
   "name": "trunk"
  },
  {
   "mesh": 1,
   "name": "foliage"
  }
 ],
 "materials": [
  {
   "name": "bark",
   "doubleSided": false,
   "pbrMetallicRoughness": {
    "baseColorTexture": {
     "index": 0
    },
    "metallicRoughnessTexture": {
     "index": 2
    },
    "metallicFactor": 0.0,
    "roughnessFactor": 1.0
   },
   "normalTexture": {
    "index": 1
   },
   "occlusionTexture": {
    "index": 2
   }
  },
  {
   "name": "leaf",
   "doubleSided": true,
   "pbrMetallicRoughness": {
    "baseColorTexture": {
     "index": 3
    },
    "metallicRoughnessTexture": {
     "index": 5
    },
    "metallicFactor": 0.0,
    "roughnessFactor": 1.0
   },
   "normalTexture": {
    "index": 4
   },
   "occlusionTexture": {
    "index": 5
   },
   "alphaMode": "MASK",
   "alphaCutoff": 0.5
  }
 ],
 "meshes": [
  {
   "name": "flora_oak_1_far_bark",
   "primitives": [
    {
     "attributes": {
      "POSITION": 0,
      "NORMAL": 1,
      "TEXCOORD_0": 2
     },
     "indices": 3,
     "material": 0
    }
   ]
  },
  {
   "name": "flora_oak_1_far_foliage",
   "primitives": [
    {
     "attributes": {
      "POSITION": 4,
      "NORMAL": 5,
      "TEXCOORD_0": 6
     },
     "indices": 7,
     "material": 1
    }
   ]
  }
 ],
 "textures": [
  {
   "sampler": 0,
   "source": 0
  },
  {
   "sampler": 0,
   "source": 1
  },
  {
   "sampler": 0,
   "source": 2
  },
  {
   "sampler": 0,
   "source": 3
  },
  {
   "sampler": 0,
   "source": 4
  },
  {
   "sampler": 0,
   "source": 5
  }
 ],
 "images": [
  {
   "mimeType": "image/png",
   "name": "flora_oak_bark_diff_2k.png",
   "uri": "../flora_oak_0/flora_oak_bark_diff_2k.png"
  },
  {
   "mimeType": "image/png",
   "name": "flora_oak_bark_nor_gl_2k.png",
   "uri": "../flora_oak_0/flora_oak_bark_nor_gl_2k.png"
  },
  {
   "mimeType": "image/png",
   "name": "flora_oak_bark_arm_2k.png",
   "uri": "../flora_oak_0/flora_oak_bark_arm_2k.png"
  },
  {
   "mimeType": "image/png",
   "name": "flora_oak_leaf_diff_2k.png",
   "uri": "../flora_oak_0/flora_oak_leaf_diff_2k.png"
  },
  {
   "mimeType": "image/png",
   "name": "flora_oak_leaf_nor_gl_2k.png",
   "uri": "../flora_oak_0/flora_oak_leaf_nor_gl_2k.png"
  },
  {
   "mimeType": "image/png",
   "name": "flora_oak_leaf_arm_2k.png",
   "uri": "../flora_oak_0/flora_oak_leaf_arm_2k.png"
  }
 ],
 "accessors": [
  {
   "bufferView": 0,
   "componentType": 5126,
   "count": 978,
   "max": [
    4.984938144683838,
    12.138541221618652,
    5.462369918823242
   ],
   "min": [
    -2.5618960857391357,
    -0.6454020738601685,
    -3.6907408237457275
   ],
   "type": "VEC3"
  },
  {
   "bufferView": 1,
   "componentType": 5126,
   "count": 978,
   "type": "VEC3"
  },
  {
   "bufferView": 2,
   "componentType": 5126,
   "count": 978,
   "type": "VEC2"
  },
  {
   "bufferView": 3,
   "componentType": 5123,
   "count": 2928,
   "type": "SCALAR"
  },
  {
   "bufferView": 4,
   "componentType": 5126,
   "count": 1536,
   "max": [
    7.117823600769043,
    13.295974731445312,
    6.643502712249756
   ],
   "min": [
    -5.220020294189453,
    2.7850377559661865,
    -5.7986531257629395
   ],
   "type": "VEC3"
  },
  {
   "bufferView": 5,
   "componentType": 5126,
   "count": 1536,
   "type": "VEC3"
  },
  {
   "bufferView": 6,
   "componentType": 5126,
   "count": 1536,
   "type": "VEC2"
  },
  {
   "bufferView": 7,
   "componentType": 5123,
   "count": 2304,
   "type": "SCALAR"
  }
 ],
 "bufferViews": [
  {
   "buffer": 0,
   "byteLength": 11736,
   "byteOffset": 0,
   "target": 34962
  },
  {
   "buffer": 0,
   "byteLength": 11736,
   "byteOffset": 11736,
   "target": 34962
  },
  {
   "buffer": 0,
   "byteLength": 7824,
   "byteOffset": 23472,
   "target": 34962
  },
  {
   "buffer": 0,
   "byteLength": 5856,
   "byteOffset": 31296,
   "target": 34963
  },
  {
   "buffer": 0,
   "byteLength": 18432,
   "byteOffset": 37152,
   "target": 34962
  },
  {
   "buffer": 0,
   "byteLength": 18432,
   "byteOffset": 55584,
   "target": 34962
  },
  {
   "buffer": 0,
   "byteLength": 12288,
   "byteOffset": 74016,
   "target": 34962
  },
  {
   "buffer": 0,
   "byteLength": 4608,
   "byteOffset": 86304,
   "target": 34963
  }
 ],
 "samplers": [
  {
   "magFilter": 9729,
   "minFilter": 9987,
   "wrapS": 10497,
   "wrapT": 10497
  }
 ],
 "buffers": [
  {
   "byteLength": 90912,
   "uri": "flora_oak_1_far.bin"
  }
 ]
}