{
 "asset": {
  "generator": "Khronos glTF Blender I/O v4.5.51",
  "version": "2.0"
 },
 "scene": 0,
 "scenes": [
  {
   "name": "Scene",
   "nodes": [
    0,
    1,
    2,
    3,
    4,
    5,
    6,
    7,
    8,
    9,
    10,
    11,
    12,
    13,
    14,
    15,
    16,
    17,
    18,
    19,
    20,
    21,
    22,
    23,
    24,
    25,
    26,
    27,
    28,
    29,
    30,
    31,
    32,
    33,
    34,
    35,
    36,
    37,
    38
   ]
  }
 ],
 "nodes": [
  {
   "mesh": 0,
   "name": "frame"
  },
  {
   "mesh": 1,
   "name": "detail"
  },
  {
   "mesh": 2,
   "name": "wheel_1",
   "translation": [
    0,
    0.5460000038146973,
    -1.5
   ]
  },
  {
   "mesh": 3,
   "name": "wheel_2",
   "translation": [
    0,
    0.5460000038146973,
    -0.10000000149011612
   ]
  },
  {
   "mesh": 4,
   "name": "wheel_3",
   "translation": [
    0,
    0.5460000038146973,
    1.2999999523162842
   ]
  },
  {
   "mesh": 5,
   "name": "body"
  },
  {
   "mesh": 6,
   "name": "cab"
  },
  {
   "mesh": 7,
   "name": "glass"
  },
  {
   "mesh": 8,
   "name": "engine"
  },
  {
   "mesh": 9,
   "name": "col_metal_step_1"
  },
  {
   "mesh": 10,
   "name": "col_metal_step_2"
  },
  {
   "mesh": 11,
   "name": "col_metal_step_3"
  },
  {
   "mesh": 12,
   "name": "col_metal_step_4"
  },
  {
   "mesh": 13,
   "name": "col_metal_step_5"
  },
  {
   "mesh": 14,
   "name": "col_metal_step_6"
  },
  {
   "mesh": 15,
   "name": "col_metal_step_7"
  },
  {
   "mesh": 16,
   "name": "col_metal_step_8"
  },
  {
   "mesh": 17,
   "name": "col_metal_step_9"
  },
  {
   "mesh": 18,
   "name": "col_metal_step_10"
  },
  {
   "mesh": 19,
   "name": "col_metal_step_11"
  },
  {
   "mesh": 20,
   "name": "col_metal_step_12"
  },
  {
   "mesh": 21,
   "name": "col_metal_frame_1"
  },
  {
   "mesh": 22,
   "name": "light_warm_1"
  },
  {
   "mesh": 23,
   "name": "col_metal_bonnet_1"
  },
  {
   "mesh": 24,
   "name": "light_warm_2"
  },
  {
   "mesh": 25,
   "name": "col_metal_cab_front_1"
  },
  {
   "mesh": 26,
   "name": "col_metal_cab_rear_1"
  },
  {
   "mesh": 27,
   "name": "col_metal_cab_side_1"
  },
  {
   "mesh": 28,
   "name": "col_metal_cab_side_2"
  },
  {
   "mesh": 29,
   "name": "col_metal_cab_side_3"
  },
  {
   "mesh": 30,
   "name": "col_metal_cab_side_4"
  },
  {
   "mesh": 31,
   "name": "col_metal_cab_roof_1"
  },
  {
   "mesh": 32,
   "name": "col_fabric_seat_1"
  },
  {
   "mesh": 33,
   "name": "col_fabric_seat_2"
  },
  {
   "mesh": 34,
   "name": "col_metal_handbrake_1"
  },
  {
   "mesh": 35,
   "name": "col_metal_locker_1"
  },
  {
   "mesh": 36,
   "name": "light_warm_3"
  },
  {
   "mesh": 37,
   "name": "col_metal_desk_1"
  },
  {
   "mesh": 38,
   "name": "col_metal_heater_1"
  }
 ],
 "materials": [
  {
   "name": "chequer_plate",
   "normalTexture": {
    "index": 0
   },
   "occlusionTexture": {
    "index": 1
   },
   "pbrMetallicRoughness": {
    "baseColorTexture": {
     "index": 2
    },
    "metallicRoughnessTexture": {
     "index": 1
    }
   }
  },
  {
   "name": "loco_black",
   "normalTexture": {
    "index": 3
   },
   "occlusionTexture": {
    "index": 4
   },
   "pbrMetallicRoughness": {
    "baseColorTexture": {
     "index": 5
    },
    "metallicRoughnessTexture": {
     "index": 4
    }
   }
  },
  {
   "name": "wasp_stripes",
   "normalTexture": {
    "index": 6
   },
   "occlusionTexture": {
    "index": 7
   },
   "pbrMetallicRoughness": {
    "baseColorTexture": {
     "index": 8
    },
    "metallicRoughnessTexture": {
     "index": 7
    }
   }
  },
  {
   "name": "rust_iron",
   "normalTexture": {
    "index": 9
   },
   "occlusionTexture": {
    "index": 10
   },
   "pbrMetallicRoughness": {
    "baseColorTexture": {
     "index": 11
    },
    "metallicRoughnessTexture": {
     "index": 10
    }
   }
  },
  {
   "name": "rail_signs",
   "normalTexture": {
    "index": 12
   },
   "occlusionTexture": {
    "index": 13
   },
   "pbrMetallicRoughness": {
    "baseColorTexture": {
     "index": 14
    },
    "metallicRoughnessTexture": {
     "index": 13
    }
   }
  },
  {
   "name": "loco_green",
   "normalTexture": {
    "index": 15
   },
   "occlusionTexture": {
    "index": 16
   },
   "pbrMetallicRoughness": {
    "baseColorTexture": {
     "index": 17
    },
    "metallicRoughnessTexture": {
     "index": 16
    }
   }
  },
  {
   "name": "soot",
   "normalTexture": {
    "index": 18
   },
   "occlusionTexture": {
    "index": 19
   },
   "pbrMetallicRoughness": {
    "baseColorTexture": {
     "index": 20
    },
    "metallicRoughnessTexture": {
     "index": 19
    }
   }
  },
  {
   "name": "timber_beam",
   "normalTexture": {
    "index": 21
   },
   "occlusionTexture": {
    "index": 22
   },
   "pbrMetallicRoughness": {
    "baseColorTexture": {
     "index": 23
    },
    "metallicRoughnessTexture": {
     "index": 22
    }
   }
  },
  {
   "name": "rail_steel",
   "normalTexture": {
    "index": 24
   },
   "occlusionTexture": {
    "index": 25
   },
   "pbrMetallicRoughness": {
    "baseColorTexture": {
     "index": 26
    },
    "metallicRoughnessTexture": {
     "index": 25
    }
   }
  },
  {
   "name": "coach_livery",
   "normalTexture": {
    "index": 27
   },
   "occlusionTexture": {
    "index": 28
   },
   "pbrMetallicRoughness": {
    "baseColorTexture": {
     "index": 29
    },
    "metallicRoughnessTexture": {
     "index": 28
    }
   }
  },
  {
   "name": "floorboards",
   "normalTexture": {
    "index": 30
   },
   "occlusionTexture": {
    "index": 31
   },
   "pbrMetallicRoughness": {
    "baseColorTexture": {
     "index": 32
    },
    "metallicRoughnessTexture": {
     "index": 31
    }
   }
  },
  {
   "name": "leather_brown",
   "normalTexture": {
    "index": 33
   },
   "occlusionTexture": {
    "index": 34
   },
   "pbrMetallicRoughness": {
    "baseColorTexture": {
     "index": 35
    },
    "metallicRoughnessTexture": {
     "index": 34
    }
   }
  },
  {
   "name": "glass_dirty",
   "normalTexture": {
    "index": 36
   },
   "occlusionTexture": {
    "index": 37
   },
   "pbrMetallicRoughness": {
    "baseColorTexture": {
     "index": 38
    },
    "metallicRoughnessTexture": {
     "index": 37
    }
   }
  }
 ],
 "meshes": [
  {
   "name": "frame",
   "primitives": [
    {
     "attributes": {
      "POSITION": 0,
      "NORMAL": 1,
      "TEXCOORD_0": 2
     },
     "indices": 3,
     "material": 0
    },
    {
     "attributes": {
      "POSITION": 4,
      "NORMAL": 5,
      "TEXCOORD_0": 6
     },
     "indices": 7,
     "material": 1
    },
    {
     "attributes": {
      "POSITION": 8,
      "NORMAL": 9,
      "TEXCOORD_0": 10
     },
     "indices": 11,
     "material": 2
    },
    {
     "attributes": {
      "POSITION": 12,
      "NORMAL": 13,
      "TEXCOORD_0": 14
     },
     "indices": 15,
     "material": 3
    }
   ]
  },
  {
   "name": "detail",
   "primitives": [
    {
     "attributes": {
      "POSITION": 16,
      "NORMAL": 17,
      "TEXCOORD_0": 18
     },
     "indices": 19,
     "material": 1
    },
    {
     "attributes": {
      "POSITION": 20,
      "NORMAL": 21,
      "TEXCOORD_0": 22
     },
     "indices": 23,
     "material": 3
    },
    {
     "attributes": {
      "POSITION": 24,
      "NORMAL": 25,
      "TEXCOORD_0": 26
     },
     "indices": 27,
     "material": 4
    },
    {
     "attributes": {
      "POSITION": 28,
      "NORMAL": 29,
      "TEXCOORD_0": 30
     },
     "indices": 31,
     "material": 5
    },
    {
     "attributes": {
      "POSITION": 32,
      "NORMAL": 33,
      "TEXCOORD_0": 34
     },
     "indices": 35,
     "material": 6
    },
    {
     "attributes": {
      "POSITION": 36,
      "NORMAL": 37,
      "TEXCOORD_0": 38
     },
     "indices": 39,
     "material": 7
    },
    {
     "attributes": {
      "POSITION": 40,
      "NORMAL": 41,
      "TEXCOORD_0": 42
     },
     "indices": 43,
     "material": 0
    }
   ]
  },
  {
   "name": "wheel_1",
   "primitives": [
    {
     "attributes": {
      "POSITION": 44,
      "NORMAL": 45,
      "TEXCOORD_0": 46
     },
     "indices": 47,
     "material": 8
    },
    {
     "attributes": {
      "POSITION": 48,
      "NORMAL": 49,
      "TEXCOORD_0": 50
     },
     "indices": 51,
     "material": 1
    }
   ]
  },
  {
   "name": "wheel_2",
   "primitives": [
    {
     "attributes": {
      "POSITION": 52,
      "NORMAL": 53,
      "TEXCOORD_0": 54
     },
     "indices": 47,
     "material": 8
    },
    {
     "attributes": {
      "POSITION": 55,
      "NORMAL": 56,
      "TEXCOORD_0": 57
     },
     "indices": 58,
     "material": 1
    }
   ]
  },
  {
   "name": "wheel_3",
   "primitives": [
    {
     "attributes": {
      "POSITION": 59,
      "NORMAL": 60,
      "TEXCOORD_0": 61
     },
     "indices": 47,
     "material": 8
    },
    {
     "attributes": {
      "POSITION": 62,
      "NORMAL": 63,
      "TEXCOORD_0": 64
     },
     "indices": 65,
     "material": 1
    }
   ]
  },
  {
   "name": "body",
   "primitives": [
    {
     "attributes": {
      "POSITION": 66,
      "NORMAL": 67,
      "TEXCOORD_0": 68
     },
     "indices": 69,
     "material": 5
    },
    {
     "attributes": {
      "POSITION": 70,
      "NORMAL": 71,
      "TEXCOORD_0": 72
     },
     "indices": 73,
     "material": 6
    },
    {
     "attributes": {
      "POSITION": 74,
      "NORMAL": 75,
      "TEXCOORD_0": 76
     },
     "indices": 77,
     "material": 2
    },
    {
     "attributes": {
      "POSITION": 78,
      "NORMAL": 79,
      "TEXCOORD_0": 80
     },
     "indices": 81,
     "material": 1
    }
   ]
  },
  {
   "name": "cab",
   "primitives": [
    {
     "attributes": {
      "POSITION": 82,
      "NORMAL": 83,
      "TEXCOORD_0": 84
     },
     "indices": 85,
     "material": 5
    },
    {
     "attributes": {
      "POSITION": 86,
      "NORMAL": 87,
      "TEXCOORD_0": 88
     },
     "indices": 89,
     "material": 9
    },
    {
     "attributes": {
      "POSITION": 90,
      "NORMAL": 91,
      "TEXCOORD_0": 92
     },
     "indices": 93,
     "material": 10
    },
    {
     "attributes": {
      "POSITION": 94,
      "NORMAL": 95,
      "TEXCOORD_0": 96
     },
     "indices": 97,
     "material": 0
    },
    {
     "attributes": {
      "POSITION": 98,
      "NORMAL": 99,
      "TEXCOORD_0": 100
     },
     "indices": 101,
     "material": 4
    },
    {
     "attributes": {
      "POSITION": 102,
      "NORMAL": 103,
      "TEXCOORD_0": 104
     },
     "indices": 105,
     "material": 1
    },
    {
     "attributes": {
      "POSITION": 106,
      "NORMAL": 107,
      "TEXCOORD_0": 108
     },
     "indices": 109,
     "material": 11
    }
   ]
  },
  {
   "name": "glass",
   "primitives": [
    {
     "attributes": {
      "POSITION": 110,
      "NORMAL": 111,
      "TEXCOORD_0": 112
     },
     "indices": 113,
     "material": 12
    }
   ]
  },
  {
   "name": "engine",
   "primitives": [
    {
     "attributes": {
      "POSITION": 114,
      "NORMAL": 115,
      "TEXCOORD_0": 116
     },
     "indices": 117,
     "material": 6
    },
    {
     "attributes": {
      "POSITION": 118,
      "NORMAL": 119,
      "TEXCOORD_0": 120
     },
     "indices": 121,
     "material": 1
    },
    {
     "attributes": {
      "POSITION": 122,
      "NORMAL": 123,
      "TEXCOORD_0": 124
     },
     "indices": 125,
     "material": 3
    },
    {
     "attributes": {
      "POSITION": 126,
      "NORMAL": 127,
      "TEXCOORD_0": 128
     },
     "indices": 129,
     "material": 4
    }
   ]
  },
  {
   "name": "col_metal_step_1",
   "primitives": [
    {
     "attributes": {
      "POSITION": 130,
      "NORMAL": 131,
      "TEXCOORD_0": 132
     },
     "indices": 133,
     "material": 0
    }
   ]
  },
  {
   "name": "col_metal_step_2",
   "primitives": [
    {
     "attributes": {
      "POSITION": 134,
      "NORMAL": 135,
      "TEXCOORD_0": 136
     },
     "indices": 133,
     "material": 0
    }
   ]
  },
  {
   "name": "col_metal_step_3",
   "primitives": [
    {
     "attributes": {
      "POSITION": 137,
      "NORMAL": 138,
      "TEXCOORD_0": 139
     },
     "indices": 133,
     "material": 0
    }
   ]
  },
  {
   "name": "col_metal_step_4",
   "primitives": [
    {
     "attributes": {
      "POSITION": 140,
      "NORMAL": 141,
      "TEXCOORD_0": 142
     },
     "indices": 133,
     "material": 0
    }
   ]
  },
  {
   "name": "col_metal_step_5",
   "primitives": [
    {
     "attributes": {
      "POSITION": 143,
      "NORMAL": 144,
      "TEXCOORD_0": 145
     },
     "indices": 133,
     "material": 0
    }
   ]
  },
  {
   "name": "col_metal_step_6",
   "primitives": [
    {
     "attributes": {
      "POSITION": 146,
      "NORMAL": 147,
      "TEXCOORD_0": 148
     },
     "indices": 133,
     "material": 0
    }
   ]
  },
  {
   "name": "col_metal_step_7",
   "primitives": [
    {
     "attributes": {
      "POSITION": 149,
      "NORMAL": 150,
      "TEXCOORD_0": 151
     },
     "indices": 133,
     "material": 0
    }
   ]
  },
  {
   "name": "col_metal_step_8",
   "primitives": [
    {
     "attributes": {
      "POSITION": 152,
      "NORMAL": 153,
      "TEXCOORD_0": 154
     },
     "indices": 133,
     "material": 0
    }
   ]
  },
  {
   "name": "col_metal_step_9",
   "primitives": [
    {
     "attributes": {
      "POSITION": 155,
      "NORMAL": 156,
      "TEXCOORD_0": 157
     },
     "indices": 133,
     "material": 0
    }
   ]
  },
  {
   "name": "col_metal_step_10",
   "primitives": [
    {
     "attributes": {
      "POSITION": 158,
      "NORMAL": 159,
      "TEXCOORD_0": 160
     },
     "indices": 133,
     "material": 0
    }
   ]
  },
  {
   "name": "col_metal_step_11",
   "primitives": [
    {
     "attributes": {
      "POSITION": 161,
      "NORMAL": 162,
      "TEXCOORD_0": 163
     },
     "indices": 133,
     "material": 0
    }
   ]
  },
  {
   "name": "col_metal_step_12",
   "primitives": [
    {
     "attributes": {
      "POSITION": 164,
      "NORMAL": 165,
      "TEXCOORD_0": 166
     },
     "indices": 133,
     "material": 0
    }
   ]
  },
  {
   "name": "col_metal_frame_1",
   "primitives": [
    {
     "attributes": {
      "POSITION": 167,
      "NORMAL": 168,
      "TEXCOORD_0": 169
     },
     "indices": 133,
     "material": 0
    }
   ]
  },
  {
   "name": "light_warm_1",
   "primitives": [
    {
     "attributes": {
      "POSITION": 170,
      "NORMAL": 171,
      "TEXCOORD_0": 172
     },
     "indices": 133,
     "material": 0
    }
   ]
  },
  {
   "name": "col_metal_bonnet_1",
   "primitives": [
    {
     "attributes": {
      "POSITION": 173,
      "NORMAL": 174,
      "TEXCOORD_0": 175
     },
     "indices": 133,
     "material": 0
    }
   ]
  },
  {
   "name": "light_warm_2",
   "primitives": [
    {
     "attributes": {
      "POSITION": 176,
      "NORMAL": 177,
      "TEXCOORD_0": 178
     },
     "indices": 133,
     "material": 0
    }
   ]
  },
  {
   "name": "col_metal_cab_front_1",
   "primitives": [
    {
     "attributes": {
      "POSITION": 179,
      "NORMAL": 180,
      "TEXCOORD_0": 181
     },
     "indices": 133,
     "material": 0
    }
   ]
  },
  {
   "name": "col_metal_cab_rear_1",
   "primitives": [
    {
     "attributes": {
      "POSITION": 182,
      "NORMAL": 183,
      "TEXCOORD_0": 184
     },
     "indices": 133,
     "material": 0
    }
   ]
  },
  {
   "name": "col_metal_cab_side_1",
   "primitives": [
    {
     "attributes": {
      "POSITION": 185,
      "NORMAL": 186,
      "TEXCOORD_0": 187
     },
     "indices": 133,
     "material": 0
    }
   ]
  },
  {
   "name": "col_metal_cab_side_2",
   "primitives": [
    {
     "attributes": {
      "POSITION": 188,
      "NORMAL": 189,
      "TEXCOORD_0": 190
     },
     "indices": 133,
     "material": 0
    }
   ]
  },
  {
   "name": "col_metal_cab_side_3",
   "primitives": [
    {
     "attributes": {
      "POSITION": 191,
      "NORMAL": 192,
      "TEXCOORD_0": 193
     },
     "indices": 133,
     "material": 0
    }
   ]
  },
  {
   "name": "col_metal_cab_side_4",
   "primitives": [
    {
     "attributes": {
      "POSITION": 194,
      "NORMAL": 195,
      "TEXCOORD_0": 196
     },
     "indices": 133,
     "material": 0
    }
   ]
  },
  {
   "name": "col_metal_cab_roof_1",
   "primitives": [
    {
     "attributes": {
      "POSITION": 197,
      "NORMAL": 198,
      "TEXCOORD_0": 199
     },
     "indices": 133,
     "material": 0
    }
   ]
  },
  {
   "name": "col_fabric_seat_1",
   "primitives": [
    {
     "attributes": {
      "POSITION": 200,
      "NORMAL": 201,
      "TEXCOORD_0": 202
     },
     "indices": 133,
     "material": 0
    }
   ]
  },
  {
   "name": "col_fabric_seat_2",
   "primitives": [
    {
     "attributes": {
      "POSITION": 203,
      "NORMAL": 204,
      "TEXCOORD_0": 205
     },
     "indices": 133,
     "material": 0
    }
   ]
  },
  {
   "name": "col_metal_handbrake_1",
   "primitives": [
    {
     "attributes": {
      "POSITION": 206,
      "NORMAL": 207,
      "TEXCOORD_0": 208
     },
     "indices": 133,
     "material": 0
    }
   ]
  },
  {
   "name": "col_metal_locker_1",
   "primitives": [
    {
     "attributes": {
      "POSITION": 209,
      "NORMAL": 210,
      "TEXCOORD_0": 211
     },
     "indices": 133,
     "material": 0
    }
   ]
  },
  {
   "name": "light_warm_3",
   "primitives": [
    {
     "attributes": {
      "POSITION": 212,
      "NORMAL": 213,
      "TEXCOORD_0": 214
     },
     "indices": 133,
     "material": 0
    }
   ]
  },
  {
   "name": "col_metal_desk_1",
   "primitives": [
    {
     "attributes": {
      "POSITION": 215,
      "NORMAL": 216,
      "TEXCOORD_0": 217
     },
     "indices": 133,
     "material": 0
    }
   ]
  },
  {
   "name": "col_metal_heater_1",
   "primitives": [
    {
     "attributes": {
      "POSITION": 218,
      "NORMAL": 219,
      "TEXCOORD_0": 220
     },
     "indices": 133,
     "material": 0
    }
   ]
  }
 ],
 "textures": [
  {
   "sampler": 0,
   "source": 0
  },
  {
   "sampler": 0,
   "source": 1
  },
  {
   "sampler": 0,
   "source": 2
  },
  {
   "sampler": 0,
   "source": 3
  },
  {
   "sampler": 0,
   "source": 4
  },
  {
   "sampler": 0,
   "source": 5
  },
  {
   "sampler": 0,
   "source": 6
  },
  {
   "sampler": 0,
   "source": 7
  },
  {
   "sampler": 0,
   "source": 8
  },
  {
   "sampler": 0,
   "source": 9
  },
  {
   "sampler": 0,
   "source": 10
  },
  {
   "sampler": 0,
   "source": 11
  },
  {
   "sampler": 0,
   "source": 12
  },
  {
   "sampler": 0,
   "source": 13
  },
  {
   "sampler": 0,
   "source": 14
  },
  {
   "sampler": 0,
   "source": 15
  },
  {
   "sampler": 0,
   "source": 16
  },
  {
   "sampler": 0,
   "source": 17
  },
  {
   "sampler": 0,
   "source": 18
  },
  {
   "sampler": 0,
   "source": 19
  },
  {
   "sampler": 0,
   "source": 20
  },
  {
   "sampler": 0,
   "source": 21
  },
  {
   "sampler": 0,
   "source": 22
  },
  {
   "sampler": 0,
   "source": 23
  },
  {
   "sampler": 0,
   "source": 24
  },
  {
   "sampler": 0,
   "source": 25
  },
  {
   "sampler": 0,
   "source": 26
  },
  {
   "sampler": 0,
   "source": 27
  },
  {
   "sampler": 0,
   "source": 28
  },
  {
   "sampler": 0,
   "source": 29
  },
  {
   "sampler": 0,
   "source": 30
  },
  {
   "sampler": 0,
   "source": 31
  },
  {
   "sampler": 0,
   "source": 32
  },
  {
   "sampler": 0,
   "source": 33
  },
  {
   "sampler": 0,
   "source": 34
  },
  {
   "sampler": 0,
   "source": 35
  },
  {
   "sampler": 0,
   "source": 36
  },
  {
   "sampler": 0,
   "source": 37
  },
  {
   "sampler": 0,
   "source": 38
  }
 ],
 "images": [
  {
   "mimeType": "image/png",
   "name": "chequer_plate_normal.png",
   "uri": "../_library/chequer_plate_normal.png"
  },
  {
   "mimeType": "image/png",
   "name": "chequer_plate_orm.png",
   "uri": "../_library/chequer_plate_orm.png"
  },
  {
   "mimeType": "image/png",
   "name": "chequer_plate_albedo.png",
   "uri": "../_library/chequer_plate_albedo.png"
  },
  {
   "mimeType": "image/png",
   "name": "loco_black_normal.png",
   "uri": "../_library/loco_black_normal.png"
  },
  {
   "mimeType": "image/png",
   "name": "loco_black_orm.png",
   "uri": "../_library/loco_black_orm.png"
  },
  {
   "mimeType": "image/png",
   "name": "loco_black_albedo.png",
   "uri": "../_library/loco_black_albedo.png"
  },
  {
   "mimeType": "image/png",
   "name": "wasp_stripes_normal.png",
   "uri": "../_library/wasp_stripes_normal.png"
  },
  {
   "mimeType": "image/png",
   "name": "wasp_stripes_orm.png",
   "uri": "../_library/wasp_stripes_orm.png"
  },
  {
   "mimeType": "image/png",
   "name": "wasp_stripes_albedo.png",
   "uri": "../_library/wasp_stripes_albedo.png"
  },
  {
   "mimeType": "image/png",
   "name": "rust_iron_normal.png",
   "uri": "../_library/rust_iron_normal.png"
  },
  {
   "mimeType": "image/png",
   "name": "rust_iron_orm.png",
   "uri": "../_library/rust_iron_orm.png"
  },
  {
   "mimeType": "image/png",
   "name": "rust_iron_albedo.png",
   "uri": "../_library/rust_iron_albedo.png"
  },
  {
   "mimeType": "image/png",
   "name": "rail_signs_normal.png",
   "uri": "../_library/rail_signs_normal.png"
  },
  {
   "mimeType": "image/png",
   "name": "rail_signs_orm.png",
   "uri": "../_library/rail_signs_orm.png"
  },
  {
   "mimeType": "image/png",
   "name": "rail_signs_albedo.png",
   "uri": "../_library/rail_signs_albedo.png"
  },
  {
   "mimeType": "image/png",
   "name": "loco_green_normal.png",
   "uri": "../_library/loco_green_normal.png"
  },
  {
   "mimeType": "image/png",
   "name": "loco_green_orm.png",
   "uri": "../_library/loco_green_orm.png"
  },
  {
   "mimeType": "image/png",
   "name": "loco_green_albedo.png",
   "uri": "../_library/loco_green_albedo.png"
  },
  {
   "mimeType": "image/png",
   "name": "soot_normal.png",
   "uri": "../_library/soot_normal.png"
  },
  {
   "mimeType": "image/png",
   "name": "soot_orm.png",
   "uri": "../_library/soot_orm.png"
  },
  {
   "mimeType": "image/png",
   "name": "soot_albedo.png",
   "uri": "../_library/soot_albedo.png"
  },
  {
   "mimeType": "image/png",
   "name": "timber_beam_normal.png",
   "uri": "../_library/timber_beam_normal.png"
  },
  {
   "mimeType": "image/png",
   "name": "timber_beam_orm.png",
   "uri": "../_library/timber_beam_orm.png"
  },
  {
   "mimeType": "image/png",
   "name": "timber_beam_albedo.png",
   "uri": "../_library/timber_beam_albedo.png"
  },
  {
   "mimeType": "image/png",
   "name": "rail_steel_normal.png",
   "uri": "../_library/rail_steel_normal.png"
  },
  {
   "mimeType": "image/png",
   "name": "rail_steel_orm.png",
   "uri": "../_library/rail_steel_orm.png"
  },
  {
   "mimeType": "image/png",
   "name": "rail_steel_albedo.png",
   "uri": "../_library/rail_steel_albedo.png"
  },
  {
   "mimeType": "image/png",
   "name": "coach_livery_normal.png",
   "uri": "../_library/coach_livery_normal.png"
  },
  {
   "mimeType": "image/png",
   "name": "coach_livery_orm.png",
   "uri": "../_library/coach_livery_orm.png"
  },
  {
   "mimeType": "image/png",
   "name": "coach_livery_albedo.png",
   "uri": "../_library/coach_livery_albedo.png"
  },
  {
   "mimeType": "image/png",
   "name": "floorboards_normal.png",
   "uri": "../_library/floorboards_normal.png"
  },
  {
   "mimeType": "image/png",
   "name": "floorboards_orm.png",
   "uri": "../_library/floorboards_orm.png"
  },
  {
   "mimeType": "image/png",
   "name": "floorboards_albedo.png",
   "uri": "../_library/floorboards_albedo.png"
  },
  {
   "mimeType": "image/png",
   "name": "leather_brown_normal.png",
   "uri": "../_library/leather_brown_normal.png"
  },
  {
   "mimeType": "image/png",
   "name": "leather_brown_orm.png",
   "uri": "../_library/leather_brown_orm.png"
  },
  {
   "mimeType": "image/png",
   "name": "leather_brown_albedo.png",
   "uri": "../_library/leather_brown_albedo.png"
  },
  {
   "mimeType": "image/png",
   "name": "glass_dirty_normal.png",
   "uri": "../_library/glass_dirty_normal.png"
  },
  {
   "mimeType": "image/png",
   "name": "glass_dirty_orm.png",
   "uri": "../_library/glass_dirty_orm.png"
  },
  {
   "mimeType": "image/png",
   "name": "glass_dirty_albedo.png",
   "uri": "../_library/glass_dirty_albedo.png"
  }
 ],
 "accessors": [
  {
   "bufferView": 0,
   "componentType": 5126,
   "count": 52,
   "max": [
    1.7000000476837158,
    1.2999999523162842,
    3.5
   ],
   "min": [
    -1.7000000476837158,
    0.10000000149011612,
    -3.5
   ],
   "type": "VEC3"
  },
  {
   "bufferView": 1,
   "componentType": 5126,
   "count": 52,
   "type": "VEC3"
  },
  {
   "bufferView": 2,
   "componentType": 5126,
   "count": 52,
   "type": "VEC2"
  },
  {
   "bufferView": 3,
   "componentType": 5123,
   "count": 78,
   "type": "SCALAR"
  },
  {
   "bufferView": 4,
   "componentType": 5126,
   "count": 2698,
   "max": [
    1.725000023841858,
    1.3199999332427979,
    3.5
   ],
   "min": [
    -1.725000023841858,
    0.05000000074505806,
    -3.5
   ],
   "type": "VEC3"
  },
  {
   "bufferView": 5,
   "componentType": 5126,
   "count": 2698,
   "type": "VEC3"
  },
  {
   "bufferView": 6,
   "componentType": 5126,
   "count": 2698,
   "type": "VEC2"
  },
  {
   "bufferView": 7,
   "componentType": 5123,
   "count": 4902,
   "type": "SCALAR"
  },
  {
   "bufferView": 8,
   "componentType": 5126,
   "count": 16,
   "max": [
    1.2799999713897705,
    1.2999999523162842,
    3.5
   ],
   "min": [
    -1.2799999713897705,
    0.699999988079071,
    -3.5
   ],
   "type": "VEC3"
  },
  {
   "bufferView": 9,
   "componentType": 5126,
   "count": 16,
   "type": "VEC3"
  },
  {
   "bufferView": 10,
   "componentType": 5126,
   "count": 16,
   "type": "VEC2"
  },
  {
   "bufferView": 11,
   "componentType": 5123,
   "count": 24,
   "type": "SCALAR"
  },
  {
   "bufferView": 12,
   "componentType": 5126,
   "count": 1032,
   "max": [
    1.100000023841858,
    1.350000023841858,
    2.1050000190734863
   ],
   "min": [
    -1.100000023841858,
    0.07969969511032104,
    -2.3399999141693115
   ],
   "type": "VEC3"
  },
  {
   "bufferView": 13,
   "componentType": 5126,
   "count": 1032,
   "type": "VEC3"
  },
  {
   "bufferView": 14,
   "componentType": 5126,
   "count": 1032,
   "type": "VEC2"
  },
  {
   "bufferView": 15,
   "componentType": 5123,
   "count": 2280,
   "type": "SCALAR"
  },
  {
   "bufferView": 16,
   "componentType": 5126,
   "count": 19568,
   "max": [
    1.376999855041504,
    3.694999933242798,
    3.7899999618530273
   ],
   "min": [
    -1.376999855041504,
    0.08229230344295502,
    -3.7899999618530273
   ],
   "type": "VEC3"
  },
  {
   "bufferView": 17,
   "componentType": 5126,
   "count": 19568,
   "type": "VEC3"
  },
  {
   "bufferView": 18,
   "componentType": 5126,
   "count": 19568,
   "type": "VEC2"
  },
  {
   "bufferView": 19,
   "componentType": 5123,
   "count": 37704,
   "type": "SCALAR"
  },
  {
   "bufferView": 20,
   "componentType": 5126,
   "count": 16419,
   "max": [
    1.7185659408569336,
    3.6672327518463135,
    4
   ],
   "min": [
    -1.3210924863815308,
    0.2199999988079071,
    -4
   ],
   "type": "VEC3"
  },
  {
   "bufferView": 21,
   "componentType": 5126,
   "count": 16419,
   "type": "VEC3"
  },
  {
   "bufferView": 22,
   "componentType": 5126,
   "count": 16419,
   "type": "VEC2"
  },
  {
   "bufferView": 23,
   "componentType": 5123,
   "count": 34560,
   "type": "SCALAR"
  },
  {
   "bufferView": 24,
   "componentType": 5126,
   "count": 1623,
   "max": [
    1.303999900817871,
    3.5299999713897705,
    3.5850000381469727
   ],
   "min": [
    -1.303999900817871,
    1.5100001096725464,
    -3.5850000381469727
   ],
   "type": "VEC3"
  },
  {
   "bufferView": 25,
   "componentType": 5126,
   "count": 1623,
   "type": "VEC3"
  },
  {
   "bufferView": 26,
   "componentType": 5126,
   "count": 1623,
   "type": "VEC2"
  },
  {
   "bufferView": 27,
   "componentType": 5123,
   "count": 3600,
   "type": "SCALAR"
  },
  {
   "bufferView": 28,
   "componentType": 5126,
   "count": 14179,
   "max": [
    1.308579921722412,
    3.1786932945251465,
    3.309579849243164
   ],
   "min": [
    -1.308579921722412,
    1.3413066864013672,
    -3.1055798530578613
   ],
   "type": "VEC3"
  },
  {
   "bufferView": 29,
   "componentType": 5126,
   "count": 14179,
   "type": "VEC3"
  },
  {
   "bufferView": 30,
   "componentType": 5126,
   "count": 14179,
   "type": "VEC2"
  },
  {
   "bufferView": 31,
   "componentType": 5123,
   "count": 24354,
   "type": "SCALAR"
  },
  {
   "bufferView": 32,
   "componentType": 5126,
   "count": 94,
   "max": [
    0.16437211632728577,
    3.4200000762939453,
    -2.035627841949463
   ],
   "min": [
    -0.16437211632728577,
    2.930000066757202,
    -2.3643722534179688
   ],
   "type": "VEC3"
  },
  {
   "bufferView": 33,
   "componentType": 5126,
   "count": 94,
   "type": "VEC3"
  },
  {
   "bufferView": 34,
   "componentType": 5126,
   "count": 94,
   "type": "VEC2"
  },
  {
   "bufferView": 35,
   "componentType": 5123,
   "count": 270,
   "type": "SCALAR"
  },
  {
   "bufferView": 36,
   "componentType": 5126,
   "count": 84,
   "max": [
    0.7700000405311584,
    3.0260987281799316,
    1.9620000123977661
   ],
   "min": [
    -1.1399929523468018,
    1.3020000457763672,
    -2.3005292415618896
   ],
   "type": "VEC3"
  },
  {
   "bufferView": 37,
   "componentType": 5126,
   "count": 84,
   "type": "VEC3"
  },
  {
   "bufferView": 38,
   "componentType": 5126,
   "count": 84,
   "type": "VEC2"
  },
  {
   "bufferView": 39,
   "componentType": 5123,
   "count": 144,
   "type": "SCALAR"
  },
  {
   "bufferView": 40,
   "componentType": 5126,
   "count": 24,
   "max": [
    -0.7199999690055847,
    1.4091496467590332,
    1.905966877937317
   ],
   "min": [
    -0.8399999737739563,
    1.3208503723144531,
    1.6540330648422241
   ],
   "type": "VEC3"
  },
  {
   "bufferView": 41,
   "componentType": 5126,
   "count": 24,
   "type": "VEC3"
  },
  {
   "bufferView": 42,
   "componentType": 5126,
   "count": 24,
   "type": "VEC2"
  },
  {
   "bufferView": 43,
   "componentType": 5123,
   "count": 36,
   "type": "SCALAR"
  },
  {
   "bufferView": 44,
   "componentType": 5126,
   "count": 910,
   "max": [
    0.815000057220459,
    0.5737364292144775,
    0.5737364292144775
   ],
   "min": [
    -0.815000057220459,
    -0.5737364292144775,
    -0.5737364292144775
   ],
   "type": "VEC3"
  },
  {
   "bufferView": 45,
   "componentType": 5126,
   "count": 910,
   "type": "VEC3"
  },
  {
   "bufferView": 46,
   "componentType": 5126,
   "count": 910,
   "type": "VEC2"
  },
  {
   "bufferView": 47,
   "componentType": 5123,
   "count": 3840,
   "type": "SCALAR"
  },
  {
   "bufferView": 48,
   "componentType": 5126,
   "count": 2070,
   "max": [
    0.8950000405311584,
    0.5737364292144775,
    0.5737364292144775
   ],
   "min": [
    -0.8950000405311584,
    -0.5737364292144775,
    -0.5737364292144775
   ],
   "type": "VEC3"
  },
  {
   "bufferView": 49,
   "componentType": 5126,
   "count": 2070,
   "type": "VEC3"
  },
  {
   "bufferView": 50,
   "componentType": 5126,
   "count": 2070,
   "type": "VEC2"
  },
  {
   "bufferView": 51,
   "componentType": 5123,
   "count": 4992,
   "type": "SCALAR"
  },
  {
   "bufferView": 52,
   "componentType": 5126,
   "count": 910,
   "max": [
    0.815000057220459,
    0.5736789703369141,
    0.5736789703369141
   ],
   "min": [
    -0.815000057220459,
    -0.5736789703369141,
    -0.5736789107322693
   ],
   "type": "VEC3"
  },
  {
   "bufferView": 53,
   "componentType": 5126,
   "count": 910,
   "type": "VEC3"
  },
  {
   "bufferView": 54,
   "componentType": 5126,
   "count": 910,
   "type": "VEC2"
  },
  {
   "bufferView": 55,
   "componentType": 5126,
   "count": 2070,
   "max": [
    0.8950000405311584,
    0.5736789703369141,
    0.5736789703369141
   ],
   "min": [
    -0.8950000405311584,
    -0.5736789703369141,
    -0.5736789107322693
   ],
   "type": "VEC3"
  },
  {
   "bufferView": 56,
   "componentType": 5126,
   "count": 2070,
   "type": "VEC3"
  },
  {
   "bufferView": 57,
   "componentType": 5126,
   "count": 2070,
   "type": "VEC2"
  },
  {
   "bufferView": 58,
   "componentType": 5123,
   "count": 4992,
   "type": "SCALAR"
  },
  {
   "bufferView": 59,
   "componentType": 5126,
   "count": 910,
   "max": [
    0.815000057220459,
    0.5739201307296753,
    0.5739201307296753
   ],
   "min": [
    -0.815000057220459,
    -0.5739201307296753,
    -0.5739201307296753
   ],
   "type": "VEC3"
  },
  {
   "bufferView": 60,
   "componentType": 5126,
   "count": 910,
   "type": "VEC3"
  },
  {
   "bufferView": 61,
   "componentType": 5126,
   "count": 910,
   "type": "VEC2"
  },
  {
   "bufferView": 62,
   "componentType": 5126,
   "count": 2070,
   "max": [
    0.8950000405311584,
    0.5739201307296753,
    0.5739201307296753
   ],
   "min": [
    -0.8950000405311584,
    -0.5739201307296753,
    -0.5739201307296753
   ],
   "type": "VEC3"
  },
  {
   "bufferView": 63,
   "componentType": 5126,
   "count": 2070,
   "type": "VEC3"
  },
  {
   "bufferView": 64,
   "componentType": 5126,
   "count": 2070,
   "type": "VEC2"
  },
  {
   "bufferView": 65,
   "componentType": 5123,
   "count": 4992,
   "type": "SCALAR"
  },
  {
   "bufferView": 66,
   "componentType": 5126,
   "count": 1709,
   "max": [
    1.7730120420455933,
    3.5899999141693115,
    3.30400013923645
   ],
   "min": [
    -1.303999900817871,
    1.2999999523162842,
    -3.0999999046325684
   ],
   "type": "VEC3"
  },
  {
   "bufferView": 67,
   "componentType": 5126,
   "count": 1709,
   "type": "VEC3"
  },
  {
   "bufferView": 68,
   "componentType": 5126,
   "count": 1709,
   "type": "VEC2"
  },
  {
   "bufferView": 69,
   "componentType": 5123,
   "count": 3948,
   "type": "SCALAR"
  },
  {
   "bufferView": 70,
   "componentType": 5126,
   "count": 4,
   "max": [
    0.6200000047683716,
    2.619999885559082,
    -3.0399999618530273
   ],
   "min": [
    -0.6200000047683716,
    1.3799999952316284,
    -3.0399999618530273
   ],
   "type": "VEC3"
  },
  {
   "bufferView": 71,
   "componentType": 5126,
   "count": 4,
   "type": "VEC3"
  },
  {
   "bufferView": 72,
   "componentType": 5126,
   "count": 4,
   "type": "VEC2"
  },
  {
   "bufferView": 73,
   "componentType": 5123,
   "count": 6,
   "type": "SCALAR"
  },
  {
   "bufferView": 74,
   "componentType": 5126,
   "count": 8,
   "max": [
    1.2999999523162842,
    2.140000104904175,
    3.299999952316284
   ],
   "min": [
    -1.2999999523162842,
    1.2999999523162842,
    3.299999952316284
   ],
   "type": "VEC3"
  },
  {
   "bufferView": 75,
   "componentType": 5126,
   "count": 8,
   "type": "VEC3"
  },
  {
   "bufferView": 76,
   "componentType": 5126,
   "count": 8,
   "type": "VEC2"
  },
  {
   "bufferView": 77,
   "componentType": 5123,
   "count": 12,
   "type": "SCALAR"
  },
  {
   "bufferView": 78,
   "componentType": 5126,
   "count": 286,
   "max": [
    1.3600000143051147,
    3.621000051498413,
    3.390000104904175
   ],
   "min": [
    -1.3600000143051147,
    3.200000047683716,
    1.1100000143051147
   ],
   "type": "VEC3"
  },
  {
   "bufferView": 79,
   "componentType": 5126,
   "count": 286,
   "type": "VEC3"
  },
  {
   "bufferView": 80,
   "componentType": 5126,
   "count": 286,
   "type": "VEC2"
  },
  {
   "bufferView": 81,
   "componentType": 5123,
   "count": 960,
   "type": "SCALAR"
  },
  {
   "bufferView": 82,
   "componentType": 5126,
   "count": 716,
   "max": [
    1.2799999713897705,
    3.140000343322754,
    3.2799999713897705
   ],
   "min": [
    -1.2799999713897705,
    1.2999999523162842,
    1.2200000286102295
   ],
   "type": "VEC3"
  },
  {
   "bufferView": 83,
   "componentType": 5126,
   "count": 716,
   "type": "VEC3"
  },
  {
   "bufferView": 84,
   "componentType": 5126,
   "count": 716,
   "type": "VEC2"
  },
  {
   "bufferView": 85,
   "componentType": 5123,
   "count": 1440,
   "type": "SCALAR"
  },
  {
   "bufferView": 86,
   "componentType": 5126,
   "count": 422,
   "max": [
    1.2799999713897705,
    3.569999933242798,
    3.2799999713897705
   ],
   "min": [
    -1.2799999713897705,
    2.200000047683716,
    1.2200000286102295
   ],
   "type": "VEC3"
  },
  {
   "bufferView": 87,
   "componentType": 5126,
   "count": 422,
   "type": "VEC3"
  },
  {
   "bufferView": 88,
   "componentType": 5126,
   "count": 422,
   "type": "VEC2"
  },
  {
   "bufferView": 89,
   "componentType": 5123,
   "count": 984,
   "type": "SCALAR"
  },
  {
   "bufferView": 90,
   "componentType": 5126,
   "count": 560,
   "max": [
    1.2580000162124634,
    2.7850000858306885,
    3.259999990463257
   ],
   "min": [
    -1.2580000162124634,
    1.2990436553955078,
    1.2400000095367432
   ],
   "type": "VEC3"
  },
  {
   "bufferView": 91,
   "componentType": 5126,
   "count": 560,
   "type": "VEC3"
  },
  {
   "bufferView": 92,
   "componentType": 5126,
   "count": 560,
   "type": "VEC2"
  },
  {
   "bufferView": 93,
   "componentType": 5123,
   "count": 900,
   "type": "SCALAR"
  },
  {
   "bufferView": 94,
   "componentType": 5126,
   "count": 48,
   "max": [
    1.2999999523162842,
    1.3259999752044678,
    3.1500000953674316
   ],
   "min": [
    -1.2999999523162842,
    1.2999999523162842,
    2.299999713897705
   ],
   "type": "VEC3"
  },
  {
   "bufferView": 95,
   "componentType": 5126,
   "count": 48,
   "type": "VEC3"
  },
  {
   "bufferView": 96,
   "componentType": 5126,
   "count": 48,
   "type": "VEC2"
  },
  {
   "bufferView": 97,
   "componentType": 5123,
   "count": 72,
   "type": "SCALAR"
  },
  {
   "bufferView": 98,
   "componentType": 5126,
   "count": 102,
   "max": [
    0.2280000001192093,
    2.3348822593688965,
    1.7167060375213623
   ],
   "min": [
    -0.2280000001192093,
    2.1001763343811035,
    1.591529369354248
   ],
   "type": "VEC3"
  },
  {
   "bufferView": 99,
   "componentType": 5126,
   "count": 102,
   "type": "VEC3"
  },
  {
   "bufferView": 100,
   "componentType": 5126,
   "count": 102,
   "type": "VEC2"
  },
  {
   "bufferView": 101,
   "componentType": 5123,
   "count": 288,
   "type": "SCALAR"
  },
  {
   "bufferView": 102,
   "componentType": 5126,
   "count": 256,
   "max": [
    1.2000000476837158,
    2.819999933242798,
    2.200000047683716
   ],
   "min": [
    -1.258000135421753,
    1.3250000476837158,
    1.2400000095367432
   ],
   "type": "VEC3"
  },
  {
   "bufferView": 103,
   "componentType": 5126,
   "count": 256,
   "type": "VEC3"
  },
  {
   "bufferView": 104,
   "componentType": 5126,
   "count": 256,
   "type": "VEC2"
  },
  {
   "bufferView": 105,
   "componentType": 5123,
   "count": 528,
   "type": "SCALAR"
  },
  {
   "bufferView": 106,
   "componentType": 5126,
   "count": 256,
   "max": [
    0.9799999594688416,
    2.2760403156280518,
    2.263730764389038
   ],
   "min": [
    -0.9799999594688416,
    1.8650000095367432,
    1.8299999237060547
   ],
   "type": "VEC3"
  },
  {
   "bufferView": 107,
   "componentType": 5126,
   "count": 256,
   "type": "VEC3"
  },
  {
   "bufferView": 108,
   "componentType": 5126,
   "count": 256,
   "type": "VEC2"
  },
  {
   "bufferView": 109,
   "componentType": 5123,
   "count": 528,
   "type": "SCALAR"
  },
  {
   "bufferView": 110,
   "componentType": 5126,
   "count": 192,
   "max": [
    1.2899999618530273,
    3.119999885559082,
    3.2899999618530273
   ],
   "min": [
    -1.2000000476837158,
    2.25,
    1.2100000381469727
   ],
   "type": "VEC3"
  },
  {
   "bufferView": 111,
   "componentType": 5126,
   "count": 192,
   "type": "VEC3"
  },
  {
   "bufferView": 112,
   "componentType": 5126,
   "count": 192,
   "type": "VEC2"
  },
  {
   "bufferView": 113,
   "componentType": 5123,
   "count": 312,
   "type": "SCALAR"
  },
  {
   "bufferView": 114,
   "componentType": 5126,
   "count": 16,
   "max": [
    0.7135000228881836,
    2.7100000381469727,
    1.1899999380111694
   ],
   "min": [
    -0.7139999866485596,
    1.3000000715255737,
    -2.9699997901916504
   ],
   "type": "VEC3"
  },
  {
   "bufferView": 115,
   "componentType": 5126,
   "count": 16,
   "type": "VEC3"
  },
  {
   "bufferView": 116,
   "componentType": 5126,
   "count": 16,
   "type": "VEC2"
  },
  {
   "bufferView": 117,
   "componentType": 5123,
   "count": 24,
   "type": "SCALAR"
  },
  {
   "bufferView": 118,
   "componentType": 5126,
   "count": 409,
   "max": [
    0.5,
    2.4087307453155518,
    0.8100000023841858
   ],
   "min": [
    -0.41999998688697815,
    1.2999999523162842,
    -2.6500000953674316
   ],
   "type": "VEC3"
  },
  {
   "bufferView": 119,
   "componentType": 5126,
   "count": 409,
   "type": "VEC3"
  },
  {
   "bufferView": 120,
   "componentType": 5126,
   "count": 409,
   "type": "VEC2"
  },
  {
   "bufferView": 121,
   "componentType": 5123,
   "count": 852,
   "type": "SCALAR"
  },
  {
   "bufferView": 122,
   "componentType": 5126,
   "count": 2442,
   "max": [
    0.5169333219528198,
    2.719284772872925,
    0.5199999809265137
   ],
   "min": [
    -0.42139074206352234,
    1.553066611289978,
    -2.2473301887512207
   ],
   "type": "VEC3"
  },
  {
   "bufferView": 123,
   "componentType": 5126,
   "count": 2442,
   "type": "VEC3"
  },
  {
   "bufferView": 124,
   "componentType": 5126,
   "count": 2442,
   "type": "VEC2"
  },
  {
   "bufferView": 125,
   "componentType": 5123,
   "count": 4692,
   "type": "SCALAR"
  },
  {
   "bufferView": 126,
   "componentType": 5126,
   "count": 800,
   "max": [
    0.41499999165534973,
    2.159316062927246,
    0.4046873450279236
   ],
   "min": [
    0.11870961636304855,
    1.7999999523162842,
    -1.7049497365951538
   ],
   "type": "VEC3"
  },
  {
   "bufferView": 127,
   "componentType": 5126,
   "count": 800,
   "type": "VEC3"
  },
  {
   "bufferView": 128,
   "componentType": 5126,
   "count": 800,
   "type": "VEC2"
  },
  {
   "bufferView": 129,
   "componentType": 5123,
   "count": 2160,
   "type": "SCALAR"
  },
  {
   "bufferView": 130,
   "componentType": 5126,
   "count": 24,
   "max": [
    -1.2999999523162842,
    0.10000000149011612,
    3.1500000953674316
   ],
   "min": [
    -1.7000000476837158,
    -0.30000001192092896,
    2.299999952316284
   ],
   "type": "VEC3"
  },
  {
   "bufferView": 131,
   "componentType": 5126,
   "count": 24,
   "type": "VEC3"
  },
  {
   "bufferView": 132,
   "componentType": 5126,
   "count": 24,
   "type": "VEC2"
  },
  {
   "bufferView": 133,
   "componentType": 5123,
   "count": 36,
   "type": "SCALAR"
  },
  {
   "bufferView": 134,
   "componentType": 5126,
   "count": 24,
   "max": [
    -1.2999999523162842,
    0.5,
    3.1500000953674316
   ],
   "min": [
    -1.5700000524520874,
    0.10000000149011612,
    2.299999952316284
   ],
   "type": "VEC3"
  },
  {
   "bufferView": 135,
   "componentType": 5126,
   "count": 24,
   "type": "VEC3"
  },
  {
   "bufferView": 136,
   "componentType": 5126,
   "count": 24,
   "type": "VEC2"
  },
  {
   "bufferView": 137,
   "componentType": 5126,
   "count": 24,
   "max": [
    -1.2999999523162842,
    0.8999999761581421,
    3.1500000953674316
   ],
   "min": [
    -1.440000057220459,
    0.5,
    2.299999952316284
   ],
   "type": "VEC3"
  },
  {
   "bufferView": 138,
   "componentType": 5126,
   "count": 24,
   "type": "VEC3"
  },
  {
   "bufferView": 139,
   "componentType": 5126,
   "count": 24,
   "type": "VEC2"
  },
  {
   "bufferView": 140,
   "componentType": 5126,
   "count": 24,
   "max": [
    -1.2999999523162842,
    0.10000000149011612,
    -2.9000000953674316
   ],
   "min": [
    -1.7000000476837158,
    -0.30000001192092896,
    -3.440000057220459
   ],
   "type": "VEC3"
  },
  {
   "bufferView": 141,
   "componentType": 5126,
   "count": 24,
   "type": "VEC3"
  },
  {
   "bufferView": 142,
   "componentType": 5126,
   "count": 24,
   "type": "VEC2"
  },
  {
   "bufferView": 143,
   "componentType": 5126,
   "count": 24,
   "max": [
    -1.2999999523162842,
    0.5,
    -2.9000000953674316
   ],
   "min": [
    -1.5700000524520874,
    0.10000000149011612,
    -3.440000057220459
   ],
   "type": "VEC3"
  },
  {
   "bufferView": 144,
   "componentType": 5126,
   "count": 24,
   "type": "VEC3"
  },
  {
   "bufferView": 145,
   "componentType": 5126,
   "count": 24,
   "type": "VEC2"
  },
  {
   "bufferView": 146,
   "componentType": 5126,
   "count": 24,
   "max": [
    -1.2999999523162842,
    0.8999999761581421,
    -2.9000000953674316
   ],
   "min": [
    -1.440000057220459,
    0.5,
    -3.440000057220459
   ],
   "type": "VEC3"
  },
  {
   "bufferView": 147,
   "componentType": 5126,
   "count": 24,
   "type": "VEC3"
  },
  {
   "bufferView": 148,
   "componentType": 5126,
   "count": 24,
   "type": "VEC2"
  },
  {
   "bufferView": 149,
   "componentType": 5126,
   "count": 24,
   "max": [
    1.7000000476837158,
    0.10000000149011612,
    3.1500000953674316
   ],
   "min": [
    1.2999999523162842,
    -0.30000001192092896,
    2.299999952316284
   ],
   "type": "VEC3"
  },
  {
   "bufferView": 150,
   "componentType": 5126,
   "count": 24,
   "type": "VEC3"
  },
  {
   "bufferView": 151,
   "componentType": 5126,
   "count": 24,
   "type": "VEC2"
  },
  {
   "bufferView": 152,
   "componentType": 5126,
   "count": 24,
   "max": [
    1.5700000524520874,
    0.5,
    3.1500000953674316
   ],
   "min": [
    1.2999999523162842,
    0.10000000149011612,
    2.299999952316284
   ],
   "type": "VEC3"
  },
  {
   "bufferView": 153,
   "componentType": 5126,
   "count": 24,
   "type": "VEC3"
  },
  {
   "bufferView": 154,
   "componentType": 5126,
   "count": 24,
   "type": "VEC2"
  },
  {
   "bufferView": 155,
   "componentType": 5126,
   "count": 24,
   "max": [
    1.440000057220459,
    0.8999999761581421,
    3.1500000953674316
   ],
   "min": [
    1.2999999523162842,
    0.5,
    2.299999952316284
   ],
   "type": "VEC3"
  },
  {
   "bufferView": 156,
   "componentType": 5126,
   "count": 24,
   "type": "VEC3"
  },
  {
   "bufferView": 157,
   "componentType": 5126,
   "count": 24,
   "type": "VEC2"
  },
  {
   "bufferView": 158,
   "componentType": 5126,
   "count": 24,
   "max": [
    1.7000000476837158,
    0.10000000149011612,
    -2.9000000953674316
   ],
   "min": [
    1.2999999523162842,
    -0.30000001192092896,
    -3.440000057220459
   ],
   "type": "VEC3"
  },
  {
   "bufferView": 159,
   "componentType": 5126,
   "count": 24,
   "type": "VEC3"
  },
  {
   "bufferView": 160,
   "componentType": 5126,
   "count": 24,
   "type": "VEC2"
  },
  {
   "bufferView": 161,
   "componentType": 5126,
   "count": 24,
   "max": [
    1.5700000524520874,
    0.5,
    -2.9000000953674316
   ],
   "min": [
    1.2999999523162842,
    0.10000000149011612,
    -3.440000057220459
   ],
   "type": "VEC3"
  },
  {
   "bufferView": 162,
   "componentType": 5126,
   "count": 24,
   "type": "VEC3"
  },
  {
   "bufferView": 163,
   "componentType": 5126,
   "count": 24,
   "type": "VEC2"
  },
  {
   "bufferView": 164,
   "componentType": 5126,
   "count": 24,
   "max": [
    1.440000057220459,
    0.8999999761581421,
    -2.9000000953674316
   ],
   "min": [
    1.2999999523162842,
    0.5,
    -3.440000057220459
   ],
   "type": "VEC3"
  },
  {
   "bufferView": 165,
   "componentType": 5126,
   "count": 24,
   "type": "VEC3"
  },
  {
   "bufferView": 166,
   "componentType": 5126,
   "count": 24,
   "type": "VEC2"
  },
  {
   "bufferView": 167,
   "componentType": 5126,
   "count": 24,
   "max": [
    1.2999999523162842,
    1.2999999523162842,
    3.5
   ],
   "min": [
    -1.2999999523162842,
    0.3499999940395355,
    -3.5
   ],
   "type": "VEC3"
  },
  {
   "bufferView": 168,
   "componentType": 5126,
   "count": 24,
   "type": "VEC3"
  },
  {
   "bufferView": 169,
   "componentType": 5126,
   "count": 24,
   "type": "VEC2"
  },
  {
   "bufferView": 170,
   "componentType": 5126,
   "count": 24,
   "max": [
    0.05000000074505806,
    2.669999837875366,
    -3.2100000381469727
   ],
   "min": [
    -0.05000000074505806,
    2.569999933242798,
    -3.309999942779541
   ],
   "type": "VEC3"
  },
  {
   "bufferView": 171,
   "componentType": 5126,
   "count": 24,
   "type": "VEC3"
  },
  {
   "bufferView": 172,
   "componentType": 5126,
   "count": 24,
   "type": "VEC2"
  },
  {
   "bufferView": 173,
   "componentType": 5126,
   "count": 24,
   "max": [
    0.7200000286102295,
    2.7200000286102295,
    1.2000000476837158
   ],
   "min": [
    -0.7200000286102295,
    1.2999999523162842,
    -3.119999885559082
   ],
   "type": "VEC3"
  },
  {
   "bufferView": 174,
   "componentType": 5126,
   "count": 24,
   "type": "VEC3"
  },
  {
   "bufferView": 175,
   "componentType": 5126,
   "count": 24,
   "type": "VEC2"
  },
  {
   "bufferView": 176,
   "componentType": 5126,
   "count": 24,
   "max": [
    0.05000000074505806,
    3.169999837875366,
    3.509999990463257
   ],
   "min": [
    -0.05000000074505806,
    3.069999933242798,
    3.4100000858306885
   ],
   "type": "VEC3"
  },
  {
   "bufferView": 177,
   "componentType": 5126,
   "count": 24,
   "type": "VEC3"
  },
  {
   "bufferView": 178,
   "componentType": 5126,
   "count": 24,
   "type": "VEC2"
  },
  {
   "bufferView": 179,
   "componentType": 5126,
   "count": 24,
   "max": [
    1.2999999523162842,
    3.25,
    1.2400000095367432
   ],
   "min": [
    -1.2999999523162842,
    1.2999999523162842,
    1.2000000476837158
   ],
   "type": "VEC3"
  },
  {
   "bufferView": 180,
   "componentType": 5126,
   "count": 24,
   "type": "VEC3"
  },
  {
   "bufferView": 181,
   "componentType": 5126,
   "count": 24,
   "type": "VEC2"
  },
  {
   "bufferView": 182,
   "componentType": 5126,
   "count": 24,
   "max": [
    1.2999999523162842,
    3.25,
    3.299999952316284
   ],
   "min": [
    -1.2999999523162842,
    1.2999999523162842,
    3.259999990463257
   ],
   "type": "VEC3"
  },
  {
   "bufferView": 183,
   "componentType": 5126,
   "count": 24,
   "type": "VEC3"
  },
  {
   "bufferView": 184,
   "componentType": 5126,
   "count": 24,
   "type": "VEC2"
  },
  {
   "bufferView": 185,
   "componentType": 5126,
   "count": 24,
   "max": [
    -1.2599999904632568,
    3.25,
    2.299999952316284
   ],
   "min": [
    -1.2999999523162842,
    1.2999999523162842,
    1.2000000476837158
   ],
   "type": "VEC3"
  },
  {
   "bufferView": 186,
   "componentType": 5126,
   "count": 24,
   "type": "VEC3"
  },
  {
   "bufferView": 187,
   "componentType": 5126,
   "count": 24,
   "type": "VEC2"
  },
  {
   "bufferView": 188,
   "componentType": 5126,
   "count": 24,
   "max": [
    -1.2599999904632568,
    3.25,
    3.299999952316284
   ],
   "min": [
    -1.2999999523162842,
    1.2999999523162842,
    3.1500000953674316
   ],
   "type": "VEC3"
  },
  {
   "bufferView": 189,
   "componentType": 5126,
   "count": 24,
   "type": "VEC3"
  },
  {
   "bufferView": 190,
   "componentType": 5126,
   "count": 24,
   "type": "VEC2"
  },
  {
   "bufferView": 191,
   "componentType": 5126,
   "count": 24,
   "max": [
    1.2999999523162842,
    3.25,
    2.299999952316284
   ],
   "min": [
    1.2599999904632568,
    1.2999999523162842,
    1.2000000476837158
   ],
   "type": "VEC3"
  },
  {
   "bufferView": 192,
   "componentType": 5126,
   "count": 24,
   "type": "VEC3"
  },
  {
   "bufferView": 193,
   "componentType": 5126,
   "count": 24,
   "type": "VEC2"
  },
  {
   "bufferView": 194,
   "componentType": 5126,
   "count": 24,
   "max": [
    1.2999999523162842,
    3.25,
    3.299999952316284
   ],
   "min": [
    1.2599999904632568,
    1.2999999523162842,
    3.1500000953674316
   ],
   "type": "VEC3"
  },
  {
   "bufferView": 195,
   "componentType": 5126,
   "count": 24,
   "type": "VEC3"
  },
  {
   "bufferView": 196,
   "componentType": 5126,
   "count": 24,
   "type": "VEC2"
  },
  {
   "bufferView": 197,
   "componentType": 5126,
   "count": 24,
   "max": [
    1.3600000143051147,
    3.630000114440918,
    3.390000104904175
   ],
   "min": [
    -1.3600000143051147,
    3.25,
    1.1100000143051147
   ],
   "type": "VEC3"
  },
  {
   "bufferView": 198,
   "componentType": 5126,
   "count": 24,
   "type": "VEC3"
  },
  {
   "bufferView": 199,
   "componentType": 5126,
   "count": 24,
   "type": "VEC2"
  },
  {
   "bufferView": 200,
   "componentType": 5126,
   "count": 24,
   "max": [
    -0.5799999833106995,
    1.9450000524520874,
    2.240000009536743
   ],
   "min": [
    -0.9799999594688416,
    1.3250000476837158,
    1.8299999237060547
   ],
   "type": "VEC3"
  },
  {
   "bufferView": 201,
   "componentType": 5126,
   "count": 24,
   "type": "VEC3"
  },
  {
   "bufferView": 202,
   "componentType": 5126,
   "count": 24,
   "type": "VEC2"
  },
  {
   "bufferView": 203,
   "componentType": 5126,
   "count": 24,
   "max": [
    0.9799999594688416,
    1.9450000524520874,
    2.240000009536743
   ],
   "min": [
    0.5799999833106995,
    1.3250000476837158,
    1.8299999237060547
   ],
   "type": "VEC3"
  },
  {
   "bufferView": 204,
   "componentType": 5126,
   "count": 24,
   "type": "VEC3"
  },
  {
   "bufferView": 205,
   "componentType": 5126,
   "count": 24,
   "type": "VEC2"
  },
  {
   "bufferView": 206,
   "componentType": 5126,
   "count": 24,
   "max": [
    1.0799999237060547,
    2.325000047683716,
    2.7799999713897705
   ],
   "min": [
    0.9599999785423279,
    1.3250000476837158,
    2.6600000858306885
   ],
   "type": "VEC3"
  },
  {
   "bufferView": 207,
   "componentType": 5126,
   "count": 24,
   "type": "VEC3"
  },
  {
   "bufferView": 208,
   "componentType": 5126,
   "count": 24,
   "type": "VEC2"
  },
  {
   "bufferView": 209,
   "componentType": 5126,
   "count": 24,
   "max": [
    -0.6399999856948853,
    2.2249999046325684,
    1.659999966621399
   ],
   "min": [
    -1.2400000095367432,
    1.3250000476837158,
    1.2400000095367432
   ],
   "type": "VEC3"
  },
  {
   "bufferView": 210,
   "componentType": 5126,
   "count": 24,
   "type": "VEC3"
  },
  {
   "bufferView": 211,
   "componentType": 5126,
   "count": 24,
   "type": "VEC2"
  },
  {
   "bufferView": 212,
   "componentType": 5126,
   "count": 24,
   "max": [
    0.05000000074505806,
    3.4600000381469727,
    2.299999952316284
   ],
   "min": [
    -0.05000000074505806,
    3.3600001335144043,
    2.200000047683716
   ],
   "type": "VEC3"
  },
  {
   "bufferView": 213,
   "componentType": 5126,
   "count": 24,
   "type": "VEC3"
  },
  {
   "bufferView": 214,
   "componentType": 5126,
   "count": 24,
   "type": "VEC2"
  },
  {
   "bufferView": 215,
   "componentType": 5126,
   "count": 24,
   "max": [
    0.5600000023841858,
    2.359999895095825,
    1.7200000286102295
   ],
   "min": [
    -0.5600000023841858,
    1.3250000476837158,
    1.2400000095367432
   ],
   "type": "VEC3"
  },
  {
   "bufferView": 216,
   "componentType": 5126,
   "count": 24,
   "type": "VEC3"
  },
  {
   "bufferView": 217,
   "componentType": 5126,
   "count": 24,
   "type": "VEC2"
  },
  {
   "bufferView": 218,
   "componentType": 5126,
   "count": 24,
   "max": [
    1.2000000476837158,
    1.7450000047683716,
    1.5199999809265137
   ],
   "min": [
    0.6200000047683716,
    1.3250000476837158,
    1.2400000095367432
   ],
   "type": "VEC3"
  },
  {
   "bufferView": 219,
   "componentType": 5126,
   "count": 24,
   "type": "VEC3"
  },
  {
   "bufferView": 220,
   "componentType": 5126,
   "count": 24,
   "type": "VEC2"
  }
 ],
 "bufferViews": [
  {
   "buffer": 0,
   "byteLength": 624,
   "byteOffset": 0,
   "target": 34962
  },
  {
   "buffer": 0,
   "byteLength": 624,
   "byteOffset": 624,
   "target": 34962
  },
  {
   "buffer": 0,
   "byteLength": 416,
   "byteOffset": 1248,
   "target": 34962
  },
  {
   "buffer": 0,
   "byteLength": 156,
   "byteOffset": 1664,
   "target": 34963
  },
  {
   "buffer": 0,
   "byteLength": 32376,
   "byteOffset": 1820,
   "target": 34962
  },
  {
   "buffer": 0,
   "byteLength": 32376,
   "byteOffset": 34196,
   "target": 34962
  },
  {
   "buffer": 0,
   "byteLength": 21584,
   "byteOffset": 66572,
   "target": 34962
  },
  {
   "buffer": 0,
   "byteLength": 9804,
   "byteOffset": 88156,
   "target": 34963
  },
  {
   "buffer": 0,
   "byteLength": 192,
   "byteOffset": 97960,
   "target": 34962
  },
  {
   "buffer": 0,
   "byteLength": 192,
   "byteOffset": 98152,
   "target": 34962
  },
  {
   "buffer": 0,
   "byteLength": 128,
   "byteOffset": 98344,
   "target": 34962
  },
  {
   "buffer": 0,
   "byteLength": 48,
   "byteOffset": 98472,
   "target": 34963
  },
  {
   "buffer": 0,
   "byteLength": 12384,
   "byteOffset": 98520,
   "target": 34962
  },
  {
   "buffer": 0,
   "byteLength": 12384,
   "byteOffset": 110904,
   "target": 34962
  },
  {
   "buffer": 0,
   "byteLength": 8256,
   "byteOffset": 123288,
   "target": 34962
  },
  {
   "buffer": 0,
   "byteLength": 4560,
   "byteOffset": 131544,
   "target": 34963
  },
  {
   "buffer": 0,
   "byteLength": 234816,
   "byteOffset": 136104,
   "target": 34962
  },
  {
   "buffer": 0,
   "byteLength": 234816,
   "byteOffset": 370920,
   "target": 34962
  },
  {
   "buffer": 0,
   "byteLength": 156544,
   "byteOffset": 605736,
   "target": 34962
  },
  {
   "buffer": 0,
   "byteLength": 75408,
   "byteOffset": 762280,
   "target": 34963
  },
  {
   "buffer": 0,
   "byteLength": 197028,
   "byteOffset": 837688,
   "target": 34962
  },
  {
   "buffer": 0,
   "byteLength": 197028,
   "byteOffset": 1034716,
   "target": 34962
  },
  {
   "buffer": 0,
   "byteLength": 131352,
   "byteOffset": 1231744,
   "target": 34962
  },
  {
   "buffer": 0,
   "byteLength": 69120,
   "byteOffset": 1363096,
   "target": 34963
  },
  {
   "buffer": 0,
   "byteLength": 19476,
   "byteOffset": 1432216,
   "target": 34962
  },
  {
   "buffer": 0,
   "byteLength": 19476,
   "byteOffset": 1451692,
   "target": 34962
  },
  {
   "buffer": 0,
   "byteLength": 12984,
   "byteOffset": 1471168,
   "target": 34962
  },
  {
   "buffer": 0,
   "byteLength": 7200,
   "byteOffset": 1484152,
   "target": 34963
  },
  {
   "buffer": 0,
   "byteLength": 170148,
   "byteOffset": 1491352,
   "target": 34962
  },
  {
   "buffer": 0,
   "byteLength": 170148,
   "byteOffset": 1661500,
   "target": 34962
  },
  {
   "buffer": 0,
   "byteLength": 113432,
   "byteOffset": 1831648,
   "target": 34962
  },
  {
   "buffer": 0,
   "byteLength": 48708,
   "byteOffset": 1945080,
   "target": 34963
  },
  {
   "buffer": 0,
   "byteLength": 1128,
   "byteOffset": 1993788,
   "target": 34962
  },
  {
   "buffer": 0,
   "byteLength": 1128,
   "byteOffset": 1994916,
   "target": 34962
  },
  {
   "buffer": 0,
   "byteLength": 752,
   "byteOffset": 1996044,
   "target": 34962
  },
  {
   "buffer": 0,
   "byteLength": 540,
   "byteOffset": 1996796,
   "target": 34963
  },
  {
   "buffer": 0,
   "byteLength": 1008,
   "byteOffset": 1997336,
   "target": 34962
  },
  {
   "buffer": 0,
   "byteLength": 1008,
   "byteOffset": 1998344,
   "target": 34962
  },
  {
   "buffer": 0,
   "byteLength": 672,
   "byteOffset": 1999352,
   "target": 34962
  },
  {
   "buffer": 0,
   "byteLength": 288,
   "byteOffset": 2000024,
   "target": 34963
  },
  {
   "buffer": 0,
   "byteLength": 288,
   "byteOffset": 2000312,
   "target": 34962
  },
  {
   "buffer": 0,
   "byteLength": 288,
   "byteOffset": 2000600,
   "target": 34962
  },
  {
   "buffer": 0,
   "byteLength": 192,
   "byteOffset": 2000888,
   "target": 34962
  },
  {
   "buffer": 0,
   "byteLength": 72,
   "byteOffset": 2001080,
   "target": 34963
  },
  {
   "buffer": 0,
   "byteLength": 10920,
   "byteOffset": 2001152,
   "target": 34962
  },
  {
   "buffer": 0,
   "byteLength": 10920,
   "byteOffset": 2012072,
   "target": 34962
  },
  {
   "buffer": 0,
   "byteLength": 7280,
   "byteOffset": 2022992,
   "target": 34962
  },
  {
   "buffer": 0,
   "byteLength": 7680,
   "byteOffset": 2030272,
   "target": 34963
  },
  {
   "buffer": 0,
   "byteLength": 24840,
   "byteOffset": 2037952,
   "target": 34962
  },
  {
   "buffer": 0,
   "byteLength": 24840,
   "byteOffset": 2062792,
   "target": 34962
  },
  {
   "buffer": 0,
   "byteLength": 16560,
   "byteOffset": 2087632,
   "target": 34962
  },
  {
   "buffer": 0,
   "byteLength": 9984,
   "byteOffset": 2104192,
   "target": 34963
  },
  {
   "buffer": 0,
   "byteLength": 10920,
   "byteOffset": 2114176,
   "target": 34962
  },
  {
   "buffer": 0,
   "byteLength": 10920,
   "byteOffset": 2125096,
   "target": 34962
  },
  {
   "buffer": 0,
   "byteLength": 7280,
   "byteOffset": 2136016,
   "target": 34962
  },
  {
   "buffer": 0,
   "byteLength": 24840,
   "byteOffset": 2143296,
   "target": 34962
  },
  {
   "buffer": 0,
   "byteLength": 24840,
   "byteOffset": 2168136,
   "target": 34962
  },
  {
   "buffer": 0,
   "byteLength": 16560,
   "byteOffset": 2192976,
   "target": 34962
  },
  {
   "buffer": 0,
   "byteLength": 9984,
   "byteOffset": 2209536,
   "target": 34963
  },
  {
   "buffer": 0,
   "byteLength": 10920,
   "byteOffset": 2219520,
   "target": 34962
  },
  {
   "buffer": 0,
   "byteLength": 10920,
   "byteOffset": 2230440,
   "target": 34962
  },
  {
   "buffer": 0,
   "byteLength": 7280,
   "byteOffset": 2241360,
   "target": 34962
  },
  {
   "buffer": 0,
   "byteLength": 24840,
   "byteOffset": 2248640,
   "target": 34962
  },
  {
   "buffer": 0,
   "byteLength": 24840,
   "byteOffset": 2273480,
   "target": 34962
  },
  {
   "buffer": 0,
   "byteLength": 16560,
   "byteOffset": 2298320,
   "target": 34962
  },
  {
   "buffer": 0,
   "byteLength": 9984,
   "byteOffset": 2314880,
   "target": 34963
  },
  {
   "buffer": 0,
   "byteLength": 20508,
   "byteOffset": 2324864,
   "target": 34962
  },
  {
   "buffer": 0,
   "byteLength": 20508,
   "byteOffset": 2345372,
   "target": 34962
  },
  {
   "buffer": 0,
   "byteLength": 13672,
   "byteOffset": 2365880,
   "target": 34962
  },
  {
   "buffer": 0,
   "byteLength": 7896,
   "byteOffset": 2379552,
   "target": 34963
  },
  {
   "buffer": 0,
   "byteLength": 48,
   "byteOffset": 2387448,
   "target": 34962
  },
  {
   "buffer": 0,
   "byteLength": 48,
   "byteOffset": 2387496,
   "target": 34962
  },
  {
   "buffer": 0,
   "byteLength": 32,
   "byteOffset": 2387544,
   "target": 34962
  },
  {
   "buffer": 0,
   "byteLength": 12,
   "byteOffset": 2387576,
   "target": 34963
  },
  {
   "buffer": 0,
   "byteLength": 96,
   "byteOffset": 2387588,
   "target": 34962
  },
  {
   "buffer": 0,
   "byteLength": 96,
   "byteOffset": 2387684,
   "target": 34962
  },
  {
   "buffer": 0,
   "byteLength": 64,
   "byteOffset": 2387780,
   "target": 34962
  },
  {
   "buffer": 0,
   "byteLength": 24,
   "byteOffset": 2387844,
   "target": 34963
  },
  {
   "buffer": 0,
   "byteLength": 3432,
   "byteOffset": 2387868,
   "target": 34962
  },
  {
   "buffer": 0,
   "byteLength": 3432,
   "byteOffset": 2391300,
   "target": 34962
  },
  {
   "buffer": 0,
   "byteLength": 2288,
   "byteOffset": 2394732,
   "target": 34962
  },
  {
   "buffer": 0,
   "byteLength": 1920,
   "byteOffset": 2397020,
   "target": 34963
  },
  {
   "buffer": 0,
   "byteLength": 8592,
   "byteOffset": 2398940,
   "target": 34962
  },
  {
   "buffer": 0,
   "byteLength": 8592,
   "byteOffset": 2407532,
   "target": 34962
  },
  {
   "buffer": 0,
   "byteLength": 5728,
   "byteOffset": 2416124,
   "target": 34962
  },
  {
   "buffer": 0,
   "byteLength": 2880,
   "byteOffset": 2421852,
   "target": 34963
  },
  {
   "buffer": 0,
   "byteLength": 5064,
   "byteOffset": 2424732,
   "target": 34962
  },
  {
   "buffer": 0,
   "byteLength": 5064,
   "byteOffset": 2429796,
   "target": 34962
  },
  {
   "buffer": 0,
   "byteLength": 3376,
   "byteOffset": 2434860,
   "target": 34962
  },
  {
   "buffer": 0,
   "byteLength": 1968,
   "byteOffset": 2438236,
   "target": 34963
  },
  {
   "buffer": 0,
   "byteLength": 6720,
   "byteOffset": 2440204,
   "target": 34962
  },
  {
   "buffer": 0,
   "byteLength": 6720,
   "byteOffset": 2446924,
   "target": 34962
  },
  {
   "buffer": 0,
   "byteLength": 4480,
   "byteOffset": 2453644,
   "target": 34962
  },
  {
   "buffer": 0,
   "byteLength": 1800,
   "byteOffset": 2458124,
   "target": 34963
  },
  {
   "buffer": 0,
   "byteLength": 576,
   "byteOffset": 2459924,
   "target": 34962
  },
  {
   "buffer": 0,
   "byteLength": 576,
   "byteOffset": 2460500,
   "target": 34962
  },
  {
   "buffer": 0,
   "byteLength": 384,
   "byteOffset": 2461076,
   "target": 34962
  },
  {
   "buffer": 0,
   "byteLength": 144,
   "byteOffset": 2461460,
   "target": 34963
  },
  {
   "buffer": 0,
   "byteLength": 1224,
   "byteOffset": 2461604,
   "target": 34962
  },
  {
   "buffer": 0,
   "byteLength": 1224,
   "byteOffset": 2462828,
   "target": 34962
  },
  {
   "buffer": 0,
   "byteLength": 816,
   "byteOffset": 2464052,
   "target": 34962
  },
  {
   "buffer": 0,
   "byteLength": 576,
   "byteOffset": 2464868,
   "target": 34963
  },
  {
   "buffer": 0,
   "byteLength": 3072,
   "byteOffset": 2465444,
   "target": 34962
  },
  {
   "buffer": 0,
   "byteLength": 3072,
   "byteOffset": 2468516,
   "target": 34962
  },
  {
   "buffer": 0,
   "byteLength": 2048,
   "byteOffset": 2471588,
   "target": 34962
  },
  {
   "buffer": 0,
   "byteLength": 1056,
   "byteOffset": 2473636,
   "target": 34963
  },
  {
   "buffer": 0,
   "byteLength": 3072,
   "byteOffset": 2474692,
   "target": 34962
  },
  {
   "buffer": 0,
   "byteLength": 3072,
   "byteOffset": 2477764,
   "target": 34962
  },
  {
   "buffer": 0,
   "byteLength": 2048,
   "byteOffset": 2480836,
   "target": 34962
  },
  {
   "buffer": 0,
   "byteLength": 1056,
   "byteOffset": 2482884,
   "target": 34963
  },
  {
   "buffer": 0,
   "byteLength": 2304,
   "byteOffset": 2483940,
   "target": 34962
  },
  {
   "buffer": 0,
   "byteLength": 2304,
   "byteOffset": 2486244,
   "target": 34962
  },
  {
   "buffer": 0,
   "byteLength": 1536,
   "byteOffset": 2488548,
   "target": 34962
  },
  {
   "buffer": 0,
   "byteLength": 624,
   "byteOffset": 2490084,
   "target": 34963
  },
  {
   "buffer": 0,
   "byteLength": 192,
   "byteOffset": 2490708,
   "target": 34962
  },
  {
   "buffer": 0,
   "byteLength": 192,
   "byteOffset": 2490900,
   "target": 34962
  },
  {
   "buffer": 0,
   "byteLength": 128,
   "byteOffset": 2491092,
   "target": 34962
  },
  {
   "buffer": 0,
   "byteLength": 48,
   "byteOffset": 2491220,
   "target": 34963
  },
  {
   "buffer": 0,
   "byteLength": 4908,
   "byteOffset": 2491268,
   "target": 34962
  },
  {
   "buffer": 0,
   "byteLength": 4908,
   "byteOffset": 2496176,
   "target": 34962
  },
  {
   "buffer": 0,
   "byteLength": 3272,
   "byteOffset": 2501084,
   "target": 34962
  },
  {
   "buffer": 0,
   "byteLength": 1704,
   "byteOffset": 2504356,
   "target": 34963
  },
  {
   "buffer": 0,
   "byteLength": 29304,
   "byteOffset": 2506060,
   "target": 34962
  },
  {
   "buffer": 0,
   "byteLength": 29304,
   "byteOffset": 2535364,
   "target": 34962
  },
  {
   "buffer": 0,
   "byteLength": 19536,
   "byteOffset": 2564668,
   "target": 34962
  },
  {
   "buffer": 0,
   "byteLength": 9384,
   "byteOffset": 2584204,
   "target": 34963
  },
  {
   "buffer": 0,
   "byteLength": 9600,
   "byteOffset": 2593588,
   "target": 34962
  },
  {
   "buffer": 0,
   "byteLength": 9600,
   "byteOffset": 2603188,
   "target": 34962
  },
  {
   "buffer": 0,
   "byteLength": 6400,
   "byteOffset": 2612788,
   "target": 34962
  },
  {
   "buffer": 0,
   "byteLength": 4320,
   "byteOffset": 2619188,
   "target": 34963
  },
  {
   "buffer": 0,
   "byteLength": 288,
   "byteOffset": 2623508,
   "target": 34962
  },
  {
   "buffer": 0,
   "byteLength": 288,
   "byteOffset": 2623796,
   "target": 34962
  },
  {
   "buffer": 0,
   "byteLength": 192,
   "byteOffset": 2624084,
   "target": 34962
  },
  {
   "buffer": 0,
   "byteLength": 72,
   "byteOffset": 2624276,
   "target": 34963
  },
  {
   "buffer": 0,
   "byteLength": 288,
   "byteOffset": 2624348,
   "target": 34962
  },
  {
   "buffer": 0,
   "byteLength": 288,
   "byteOffset": 2624636,
   "target": 34962
  },
  {
   "buffer": 0,
   "byteLength": 192,
   "byteOffset": 2624924,
   "target": 34962
  },
  {
   "buffer": 0,
   "byteLength": 288,
   "byteOffset": 2625116,
   "target": 34962
  },
  {
   "buffer": 0,
   "byteLength": 288,
   "byteOffset": 2625404,
   "target": 34962
  },
  {
   "buffer": 0,
   "byteLength": 192,
   "byteOffset": 2625692,
   "target": 34962
  },
  {
   "buffer": 0,
   "byteLength": 288,
   "byteOffset": 2625884,
   "target": 34962
  },
  {
   "buffer": 0,
   "byteLength": 288,
   "byteOffset": 2626172,
   "target": 34962
  },
  {
   "buffer": 0,
   "byteLength": 192,
   "byteOffset": 2626460,
   "target": 34962
  },
  {
   "buffer": 0,
   "byteLength": 288,
   "byteOffset": 2626652,
   "target": 34962
  },
  {
   "buffer": 0,
   "byteLength": 288,
   "byteOffset": 2626940,
   "target": 34962
  },
  {
   "buffer": 0,
   "byteLength": 192,
   "byteOffset": 2627228,
   "target": 34962
  },
  {
   "buffer": 0,
   "byteLength": 288,
   "byteOffset": 2627420,
   "target": 34962
  },
  {
   "buffer": 0,
   "byteLength": 288,
   "byteOffset": 2627708,
   "target": 34962
  },
  {
   "buffer": 0,
   "byteLength": 192,
   "byteOffset": 2627996,
   "target": 34962
  },
  {
   "buffer": 0,
   "byteLength": 288,
   "byteOffset": 2628188,
   "target": 34962
  },
  {
   "buffer": 0,
   "byteLength": 288,
   "byteOffset": 2628476,
   "target": 34962
  },
  {
   "buffer": 0,
   "byteLength": 192,
   "byteOffset": 2628764,
   "target": 34962
  },
  {
   "buffer": 0,
   "byteLength": 288,
   "byteOffset": 2628956,
   "target": 34962
  },
  {
   "buffer": 0,
   "byteLength": 288,
   "byteOffset": 2629244,
   "target": 34962
  },
  {
   "buffer": 0,
   "byteLength": 192,
   "byteOffset": 2629532,
   "target": 34962
  },
  {
   "buffer": 0,
   "byteLength": 288,
   "byteOffset": 2629724,
   "target": 34962
  },
  {
   "buffer": 0,
   "byteLength": 288,
   "byteOffset": 2630012,
   "target": 34962
  },
  {
   "buffer": 0,
   "byteLength": 192,
   "byteOffset": 2630300,
   "target": 34962
  },
  {
   "buffer": 0,
   "byteLength": 288,
   "byteOffset": 2630492,
   "target": 34962
  },
  {
   "buffer": 0,
   "byteLength": 288,
   "byteOffset": 2630780,
   "target": 34962
  },
  {
   "buffer": 0,
   "byteLength": 192,
   "byteOffset": 2631068,
   "target": 34962
  },
  {
   "buffer": 0,
   "byteLength": 288,
   "byteOffset": 2631260,
   "target": 34962
  },
  {
   "buffer": 0,
   "byteLength": 288,
   "byteOffset": 2631548,
   "target": 34962
  },
  {
   "buffer": 0,
   "byteLength": 192,
   "byteOffset": 2631836,
   "target": 34962
  },
  {
   "buffer": 0,
   "byteLength": 288,
   "byteOffset": 2632028,
   "target": 34962
  },
  {
   "buffer": 0,
   "byteLength": 288,
   "byteOffset": 2632316,
   "target": 34962
  },
  {
   "buffer": 0,
   "byteLength": 192,
   "byteOffset": 2632604,
   "target": 34962
  },
  {
   "buffer": 0,
   "byteLength": 288,
   "byteOffset": 2632796,
   "target": 34962
  },
  {
   "buffer": 0,
   "byteLength": 288,
   "byteOffset": 2633084,
   "target": 34962
  },
  {
   "buffer": 0,
   "byteLength": 192,
   "byteOffset": 2633372,
   "target": 34962
  },
  {
   "buffer": 0,
   "byteLength": 288,
   "byteOffset": 2633564,
   "target": 34962
  },
  {
   "buffer": 0,
   "byteLength": 288,
   "byteOffset": 2633852,
   "target": 34962
  },
  {
   "buffer": 0,
   "byteLength": 192,
   "byteOffset": 2634140,
   "target": 34962
  },
  {
   "buffer": 0,
   "byteLength": 288,
   "byteOffset": 2634332,
   "target": 34962
  },
  {
   "buffer": 0,
   "byteLength": 288,
   "byteOffset": 2634620,
   "target": 34962
  },
  {
   "buffer": 0,
   "byteLength": 192,
   "byteOffset": 2634908,
   "target": 34962
  },
  {
   "buffer": 0,
   "byteLength": 288,
   "byteOffset": 2635100,
   "target": 34962
  },
  {
   "buffer": 0,
   "byteLength": 288,
   "byteOffset": 2635388,
   "target": 34962
  },
  {
   "buffer": 0,
   "byteLength": 192,
   "byteOffset": 2635676,
   "target": 34962
  },
  {
   "buffer": 0,
   "byteLength": 288,
   "byteOffset": 2635868,
   "target": 34962
  },
  {
   "buffer": 0,
   "byteLength": 288,
   "byteOffset": 2636156,
   "target": 34962
  },
  {
   "buffer": 0,
   "byteLength": 192,
   "byteOffset": 2636444,
   "target": 34962
  },
  {
   "buffer": 0,
   "byteLength": 288,
   "byteOffset": 2636636,
   "target": 34962
  },
  {
   "buffer": 0,
   "byteLength": 288,
   "byteOffset": 2636924,
   "target": 34962
  },
  {
   "buffer": 0,
   "byteLength": 192,
   "byteOffset": 2637212,
   "target": 34962
  },
  {
   "buffer": 0,
   "byteLength": 288,
   "byteOffset": 2637404,
   "target": 34962
  },
  {
   "buffer": 0,
   "byteLength": 288,
   "byteOffset": 2637692,
   "target": 34962
  },
  {
   "buffer": 0,
   "byteLength": 192,
   "byteOffset": 2637980,
   "target": 34962
  },
  {
   "buffer": 0,
   "byteLength": 288,
   "byteOffset": 2638172,
   "target": 34962
  },
  {
   "buffer": 0,
   "byteLength": 288,
   "byteOffset": 2638460,
   "target": 34962
  },
  {
   "buffer": 0,
   "byteLength": 192,
   "byteOffset": 2638748,
   "target": 34962
  },
  {
   "buffer": 0,
   "byteLength": 288,
   "byteOffset": 2638940,
   "target": 34962
  },
  {
   "buffer": 0,
   "byteLength": 288,
   "byteOffset": 2639228,
   "target": 34962
  },
  {
   "buffer": 0,
   "byteLength": 192,
   "byteOffset": 2639516,
   "target": 34962
  },
  {
   "buffer": 0,
   "byteLength": 288,
   "byteOffset": 2639708,
   "target": 34962
  },
  {
   "buffer": 0,
   "byteLength": 288,
   "byteOffset": 2639996,
   "target": 34962
  },
  {
   "buffer": 0,
   "byteLength": 192,
   "byteOffset": 2640284,
   "target": 34962
  },
  {
   "buffer": 0,
   "byteLength": 288,
   "byteOffset": 2640476,
   "target": 34962
  },
  {
   "buffer": 0,
   "byteLength": 288,
   "byteOffset": 2640764,
   "target": 34962
  },
  {
   "buffer": 0,
   "byteLength": 192,
   "byteOffset": 2641052,
   "target": 34962
  },
  {
   "buffer": 0,
   "byteLength": 288,
   "byteOffset": 2641244,
   "target": 34962
  },
  {
   "buffer": 0,
   "byteLength": 288,
   "byteOffset": 2641532,
   "target": 34962
  },
  {
   "buffer": 0,
   "byteLength": 192,
   "byteOffset": 2641820,
   "target": 34962
  },
  {
   "buffer": 0,
   "byteLength": 288,
   "byteOffset": 2642012,
   "target": 34962
  },
  {
   "buffer": 0,
   "byteLength": 288,
   "byteOffset": 2642300,
   "target": 34962
  },
  {
   "buffer": 0,
   "byteLength": 192,
   "byteOffset": 2642588,
   "target": 34962
  },
  {
   "buffer": 0,
   "byteLength": 288,
   "byteOffset": 2642780,
   "target": 34962
  },
  {
   "buffer": 0,
   "byteLength": 288,
   "byteOffset": 2643068,
   "target": 34962
  },
  {
   "buffer": 0,
   "byteLength": 192,
   "byteOffset": 2643356,
   "target": 34962
  },
  {
   "buffer": 0,
   "byteLength": 288,
   "byteOffset": 2643548,
   "target": 34962
  },
  {
   "buffer": 0,
   "byteLength": 288,
   "byteOffset": 2643836,
   "target": 34962
  },
  {
   "buffer": 0,
   "byteLength": 192,
   "byteOffset": 2644124,
   "target": 34962
  },
  {
   "buffer": 0,
   "byteLength": 288,
   "byteOffset": 2644316,
   "target": 34962
  },
  {
   "buffer": 0,
   "byteLength": 288,
   "byteOffset": 2644604,
   "target": 34962
  },
  {
   "buffer": 0,
   "byteLength": 192,
   "byteOffset": 2644892,
   "target": 34962
  },
  {
   "buffer": 0,
   "byteLength": 288,
   "byteOffset": 2645084,
   "target": 34962
  },
  {
   "buffer": 0,
   "byteLength": 288,
   "byteOffset": 2645372,
   "target": 34962
  },
  {
   "buffer": 0,
   "byteLength": 192,
   "byteOffset": 2645660,
   "target": 34962
  },
  {
   "buffer": 0,
   "byteLength": 288,
   "byteOffset": 2645852,
   "target": 34962
  },
  {
   "buffer": 0,
   "byteLength": 288,
   "byteOffset": 2646140,
   "target": 34962
  },
  {
   "buffer": 0,
   "byteLength": 192,
   "byteOffset": 2646428,
   "target": 34962
  }
 ],
 "samplers": [
  {
   "magFilter": 9729,
   "minFilter": 9987
  }
 ],
 "buffers": [
  {
   "byteLength": 2646620,
   "uri": "train_locomotive.bin"
  }
 ]
}