{
 "asset": {
  "generator": "Khronos glTF Blender I/O v4.5.51",
  "version": "2.0"
 },
 "scene": 0,
 "scenes": [
  {
   "name": "Scene",
   "nodes": [
    0,
    1,
    2,
    3,
    4,
    5,
    6,
    7,
    8,
    9,
    10,
    11,
    12,
    13,
    14,
    15
   ]
  }
 ],
 "nodes": [
  {
   "mesh": 0,
   "name": "body"
  },
  {
   "mesh": 1,
   "name": "steering",
   "translation": [
    -0.41999998688697815,
    1.4199999570846558,
    0.41999998688697815
   ]
  },
  {
   "mesh": 2,
   "name": "wheel_fl",
   "translation": [
    0.7749999761581421,
    0.4000000059604645,
    1.3969999551773071
   ]
  },
  {
   "mesh": 3,
   "name": "wheel_fr",
   "translation": [
    -0.7749999761581421,
    0.4000000059604645,
    1.3969999551773071
   ]
  },
  {
   "mesh": 4,
   "name": "wheel_rl",
   "translation": [
    0.7749999761581421,
    0.4000000059604645,
    -1.3969999551773071
   ]
  },
  {
   "mesh": 5,
   "name": "wheel_rr",
   "translation": [
    -0.7749999761581421,
    0.4000000059604645,
    -1.3969999551773071
   ]
  },
  {
   "mesh": 6,
   "name": "col_metal_1"
  },
  {
   "mesh": 7,
   "name": "col_metal_2"
  },
  {
   "mesh": 8,
   "name": "col_metal_3"
  },
  {
   "mesh": 9,
   "name": "col_metal_4"
  },
  {
   "mesh": 10,
   "name": "col_metal_5"
  },
  {
   "mesh": 11,
   "name": "exhaust"
  },
  {
   "mesh": 12,
   "name": "seat_driver"
  },
  {
   "mesh": 13,
   "name": "seat_passenger"
  },
  {
   "mesh": 14,
   "name": "light_head_l"
  },
  {
   "mesh": 15,
   "name": "light_head_r"
  }
 ],
 "materials": [
  {
   "doubleSided": true,
   "name": "veh_rover_hull",
   "normalTexture": {
    "index": 0
   },
   "occlusionTexture": {
    "index": 1
   },
   "pbrMetallicRoughness": {
    "baseColorTexture": {
     "index": 2
    },
    "metallicRoughnessTexture": {
     "index": 1
    }
   }
  },
  {
   "doubleSided": true,
   "name": "veh_rover_frame",
   "normalTexture": {
    "index": 3
   },
   "occlusionTexture": {
    "index": 4
   },
   "pbrMetallicRoughness": {
    "baseColorTexture": {
     "index": 5
    },
    "metallicRoughnessTexture": {
     "index": 4
    }
   }
  },
  {
   "doubleSided": true,
   "name": "veh_rover_cab",
   "normalTexture": {
    "index": 6
   },
   "occlusionTexture": {
    "index": 7
   },
   "pbrMetallicRoughness": {
    "baseColorTexture": {
     "index": 8
    },
    "metallicRoughnessTexture": {
     "index": 7
    }
   }
  },
  {
   "doubleSided": true,
   "name": "veh_rover_kit",
   "normalTexture": {
    "index": 9
   },
   "occlusionTexture": {
    "index": 10
   },
   "pbrMetallicRoughness": {
    "baseColorTexture": {
     "index": 11
    },
    "metallicRoughnessTexture": {
     "index": 10
    }
   }
  },
  {
   "doubleSided": true,
   "name": "veh_rover_wheel",
   "normalTexture": {
    "index": 12
   },
   "occlusionTexture": {
    "index": 13
   },
   "pbrMetallicRoughness": {
    "baseColorTexture": {
     "index": 14
    },
    "metallicRoughnessTexture": {
     "index": 13
    }
   }
  }
 ],
 "meshes": [
  {
   "name": "body",
   "primitives": [
    {
     "attributes": {
      "POSITION": 0,
      "NORMAL": 1,
      "TEXCOORD_0": 2
     },
     "indices": 3,
     "material": 0
    },
    {
     "attributes": {
      "POSITION": 4,
      "NORMAL": 5,
      "TEXCOORD_0": 6
     },
     "indices": 7,
     "material": 1
    },
    {
     "attributes": {
      "POSITION": 8,
      "NORMAL": 9,
      "TEXCOORD_0": 10
     },
     "indices": 11,
     "material": 2
    },
    {
     "attributes": {
      "POSITION": 12,
      "NORMAL": 13,
      "TEXCOORD_0": 14
     },
     "indices": 15,
     "material": 3
    },
    {
     "attributes": {
      "POSITION": 16,
      "NORMAL": 17,
      "TEXCOORD_0": 18
     },
     "indices": 19,
     "material": 4
    }
   ]
  },
  {
   "name": "steering",
   "primitives": [
    {
     "attributes": {
      "POSITION": 20,
      "NORMAL": 21,
      "TEXCOORD_0": 22
     },
     "indices": 23,
     "material": 2
    }
   ]
  },
  {
   "name": "wheel_fl",
   "primitives": [
    {
     "attributes": {
      "POSITION": 24,
      "NORMAL": 25,
      "TEXCOORD_0": 26
     },
     "indices": 27,
     "material": 4
    }
   ]
  },
  {
   "name": "wheel_fr",
   "primitives": [
    {
     "attributes": {
      "POSITION": 28,
      "NORMAL": 29,
      "TEXCOORD_0": 30
     },
     "indices": 31,
     "material": 4
    }
   ]
  },
  {
   "name": "wheel_rl",
   "primitives": [
    {
     "attributes": {
      "POSITION": 32,
      "NORMAL": 33,
      "TEXCOORD_0": 34
     },
     "indices": 27,
     "material": 4
    }
   ]
  },
  {
   "name": "wheel_rr",
   "primitives": [
    {
     "attributes": {
      "POSITION": 35,
      "NORMAL": 36,
      "TEXCOORD_0": 37
     },
     "indices": 31,
     "material": 4
    }
   ]
  },
  {
   "name": "col_metal_1",
   "primitives": [
    {
     "attributes": {
      "POSITION": 38,
      "NORMAL": 39,
      "TEXCOORD_0": 40
     },
     "indices": 41,
     "material": 0
    }
   ]
  },
  {
   "name": "col_metal_2",
   "primitives": [
    {
     "attributes": {
      "POSITION": 42,
      "NORMAL": 43,
      "TEXCOORD_0": 44
     },
     "indices": 41,
     "material": 0
    }
   ]
  },
  {
   "name": "col_metal_3",
   "primitives": [
    {
     "attributes": {
      "POSITION": 45,
      "NORMAL": 46,
      "TEXCOORD_0": 47
     },
     "indices": 41,
     "material": 0
    }
   ]
  },
  {
   "name": "col_metal_4",
   "primitives": [
    {
     "attributes": {
      "POSITION": 48,
      "NORMAL": 49,
      "TEXCOORD_0": 50
     },
     "indices": 41,
     "material": 0
    }
   ]
  },
  {
   "name": "col_metal_5",
   "primitives": [
    {
     "attributes": {
      "POSITION": 51,
      "NORMAL": 52,
      "TEXCOORD_0": 53
     },
     "indices": 41,
     "material": 0
    }
   ]
  },
  {
   "name": "exhaust",
   "primitives": [
    {
     "attributes": {
      "POSITION": 54,
      "NORMAL": 55,
      "TEXCOORD_0": 56
     },
     "indices": 41,
     "material": 0
    }
   ]
  },
  {
   "name": "seat_driver",
   "primitives": [
    {
     "attributes": {
      "POSITION": 57,
      "NORMAL": 58,
      "TEXCOORD_0": 59
     },
     "indices": 41,
     "material": 0
    }
   ]
  },
  {
   "name": "seat_passenger",
   "primitives": [
    {
     "attributes": {
      "POSITION": 60,
      "NORMAL": 61,
      "TEXCOORD_0": 62
     },
     "indices": 41,
     "material": 0
    }
   ]
  },
  {
   "name": "light_head_l",
   "primitives": [
    {
     "attributes": {
      "POSITION": 63,
      "NORMAL": 64,
      "TEXCOORD_0": 65
     },
     "indices": 41,
     "material": 0
    }
   ]
  },
  {
   "name": "light_head_r",
   "primitives": [
    {
     "attributes": {
      "POSITION": 66,
      "NORMAL": 67,
      "TEXCOORD_0": 68
     },
     "indices": 41,
     "material": 0
    }
   ]
  }
 ],
 "textures": [
  {
   "sampler": 0,
   "source": 0
  },
  {
   "sampler": 0,
   "source": 1
  },
  {
   "sampler": 0,
   "source": 2
  },
  {
   "sampler": 0,
   "source": 3
  },
  {
   "sampler": 0,
   "source": 4
  },
  {
   "sampler": 0,
   "source": 5
  },
  {
   "sampler": 0,
   "source": 6
  },
  {
   "sampler": 0,
   "source": 7
  },
  {
   "sampler": 0,
   "source": 8
  },
  {
   "sampler": 0,
   "source": 9
  },
  {
   "sampler": 0,
   "source": 10
  },
  {
   "sampler": 0,
   "source": 11
  },
  {
   "sampler": 0,
   "source": 12
  },
  {
   "sampler": 0,
   "source": 13
  },
  {
   "sampler": 0,
   "source": 14
  }
 ],
 "images": [
  {
   "mimeType": "image/png",
   "name": "veh_rover_hull_normal",
   "uri": "veh_rover_hull_normal.png"
  },
  {
   "mimeType": "image/png",
   "name": "veh_rover_hull_orm",
   "uri": "veh_rover_hull_orm.png"
  },
  {
   "mimeType": "image/png",
   "name": "veh_rover_hull_albedo",
   "uri": "veh_rover_hull_albedo.png"
  },
  {
   "mimeType": "image/png",
   "name": "veh_rover_frame_normal",
   "uri": "veh_rover_frame_normal.png"
  },
  {
   "mimeType": "image/png",
   "name": "veh_rover_frame_orm",
   "uri": "veh_rover_frame_orm.png"
  },
  {
   "mimeType": "image/png",
   "name": "veh_rover_frame_albedo",
   "uri": "veh_rover_frame_albedo.png"
  },
  {
   "mimeType": "image/png",
   "name": "veh_rover_cab_normal",
   "uri": "veh_rover_cab_normal.png"
  },
  {
   "mimeType": "image/png",
   "name": "veh_rover_cab_orm",
   "uri": "veh_rover_cab_orm.png"
  },
  {
   "mimeType": "image/png",
   "name": "veh_rover_cab_albedo",
   "uri": "veh_rover_cab_albedo.png"
  },
  {
   "mimeType": "image/png",
   "name": "veh_rover_kit_normal",
   "uri": "veh_rover_kit_normal.png"
  },
  {
   "mimeType": "image/png",
   "name": "veh_rover_kit_orm",
   "uri": "veh_rover_kit_orm.png"
  },
  {
   "mimeType": "image/png",
   "name": "veh_rover_kit_albedo",
   "uri": "veh_rover_kit_albedo.png"
  },
  {
   "mimeType": "image/png",
   "name": "veh_rover_wheel_normal",
   "uri": "veh_rover_wheel_normal.png"
  },
  {
   "mimeType": "image/png",
   "name": "veh_rover_wheel_orm",
   "uri": "veh_rover_wheel_orm.png"
  },
  {
   "mimeType": "image/png",
   "name": "veh_rover_wheel_albedo",
   "uri": "veh_rover_wheel_albedo.png"
  }
 ],
 "accessors": [
  {
   "bufferView": 0,
   "componentType": 5126,
   "count": 13841,
   "max": [
    0.8720000386238098,
    2,
    2
   ],
   "min": [
    -0.8720000386238098,
    0.3959536552429199,
    -2.0999999046325684
   ],
   "type": "VEC3"
  },
  {
   "bufferView": 1,
   "componentType": 5126,
   "count": 13841,
   "type": "VEC3"
  },
  {
   "bufferView": 2,
   "componentType": 5126,
   "count": 13841,
   "type": "VEC2"
  },
  {
   "bufferView": 3,
   "componentType": 5123,
   "count": 27396,
   "type": "SCALAR"
  },
  {
   "bufferView": 4,
   "componentType": 5126,
   "count": 23737,
   "max": [
    1.0180000066757202,
    2.559999942779541,
    2.3982298374176025
   ],
   "min": [
    -0.9599999189376831,
    0.22999998927116394,
    -2.4118921756744385
   ],
   "type": "VEC3"
  },
  {
   "bufferView": 5,
   "componentType": 5126,
   "count": 23737,
   "type": "VEC3"
  },
  {
   "bufferView": 6,
   "componentType": 5126,
   "count": 23737,
   "type": "VEC2"
  },
  {
   "bufferView": 7,
   "componentType": 5123,
   "count": 49716,
   "type": "SCALAR"
  },
  {
   "bufferView": 8,
   "componentType": 5126,
   "count": 1889,
   "max": [
    0.800000011920929,
    1.723291039466858,
    0.8500000238418579
   ],
   "min": [
    -0.800000011920929,
    0.7400000095367432,
    -0.6000000238418579
   ],
   "type": "VEC3"
  },
  {
   "bufferView": 9,
   "componentType": 5126,
   "count": 1889,
   "type": "VEC3"
  },
  {
   "bufferView": 10,
   "componentType": 5126,
   "count": 1889,
   "type": "VEC2"
  },
  {
   "bufferView": 11,
   "componentType": 5123,
   "count": 4968,
   "type": "SCALAR"
  },
  {
   "bufferView": 12,
   "componentType": 5126,
   "count": 16254,
   "max": [
    1.0019999742507935,
    3.2304842472076416,
    2.2654671669006348
   ],
   "min": [
    -0.9164818525314331,
    0.21435171365737915,
    -2.3361804485321045
   ],
   "type": "VEC3"
  },
  {
   "bufferView": 13,
   "componentType": 5126,
   "count": 16254,
   "type": "VEC3"
  },
  {
   "bufferView": 14,
   "componentType": 5126,
   "count": 16254,
   "type": "VEC2"
  },
  {
   "bufferView": 15,
   "componentType": 5123,
   "count": 32556,
   "type": "SCALAR"
  },
  {
   "bufferView": 16,
   "componentType": 5126,
   "count": 4644,
   "max": [
    0.6508033275604248,
    2.4485204219818115,
    0.15080320835113525
   ],
   "min": [
    -0.15080326795578003,
    2.151479482650757,
    -0.65080326795578
   ],
   "type": "VEC3"
  },
  {
   "bufferView": 17,
   "componentType": 5126,
   "count": 4644,
   "type": "VEC3"
  },
  {
   "bufferView": 18,
   "componentType": 5126,
   "count": 4644,
   "type": "VEC2"
  },
  {
   "bufferView": 19,
   "componentType": 5123,
   "count": 11349,
   "type": "SCALAR"
  },
  {
   "bufferView": 20,
   "componentType": 5126,
   "count": 666,
   "max": [
    0.21441550552845,
    0.1756976842880249,
    0.13461527228355408
   ],
   "min": [
    -0.2144155204296112,
    -0.1756976842880249,
    -0.13461527228355408
   ],
   "type": "VEC3"
  },
  {
   "bufferView": 21,
   "componentType": 5126,
   "count": 666,
   "type": "VEC3"
  },
  {
   "bufferView": 22,
   "componentType": 5126,
   "count": 666,
   "type": "VEC2"
  },
  {
   "bufferView": 23,
   "componentType": 5123,
   "count": 1572,
   "type": "SCALAR"
  },
  {
   "bufferView": 24,
   "componentType": 5126,
   "count": 4644,
   "max": [
    0.1485203504562378,
    0.4008032977581024,
    0.40080320835113525
   ],
   "min": [
    -0.1485203504562378,
    -0.40080326795578003,
    -0.40080326795578003
   ],
   "type": "VEC3"
  },
  {
   "bufferView": 25,
   "componentType": 5126,
   "count": 4644,
   "type": "VEC3"
  },
  {
   "bufferView": 26,
   "componentType": 5126,
   "count": 4644,
   "type": "VEC2"
  },
  {
   "bufferView": 27,
   "componentType": 5123,
   "count": 11349,
   "type": "SCALAR"
  },
  {
   "bufferView": 28,
   "componentType": 5126,
   "count": 4644,
   "max": [
    0.14852038025856018,
    0.4008032977581024,
    0.40080326795578003
   ],
   "min": [
    -0.14852038025856018,
    -0.40080326795578003,
    -0.40080320835113525
   ],
   "type": "VEC3"
  },
  {
   "bufferView": 29,
   "componentType": 5126,
   "count": 4644,
   "type": "VEC3"
  },
  {
   "bufferView": 30,
   "componentType": 5126,
   "count": 4644,
   "type": "VEC2"
  },
  {
   "bufferView": 31,
   "componentType": 5123,
   "count": 11349,
   "type": "SCALAR"
  },
  {
   "bufferView": 32,
   "componentType": 5126,
   "count": 4644,
   "max": [
    0.1485203504562378,
    0.4008032977581024,
    0.40080320835113525
   ],
   "min": [
    -0.1485203504562378,
    -0.40080326795578003,
    -0.40080326795578003
   ],
   "type": "VEC3"
  },
  {
   "bufferView": 33,
   "componentType": 5126,
   "count": 4644,
   "type": "VEC3"
  },
  {
   "bufferView": 34,
   "componentType": 5126,
   "count": 4644,
   "type": "VEC2"
  },
  {
   "bufferView": 35,
   "componentType": 5126,
   "count": 4644,
   "max": [
    0.14852038025856018,
    0.4008032977581024,
    0.40080326795578003
   ],
   "min": [
    -0.14852038025856018,
    -0.40080326795578003,
    -0.40080320835113525
   ],
   "type": "VEC3"
  },
  {
   "bufferView": 36,
   "componentType": 5126,
   "count": 4644,
   "type": "VEC3"
  },
  {
   "bufferView": 37,
   "componentType": 5126,
   "count": 4644,
   "type": "VEC2"
  },
  {
   "bufferView": 38,
   "componentType": 5126,
   "count": 24,
   "max": [
    0.9200000166893005,
    2,
    2
   ],
   "min": [
    -0.9200000166893005,
    0.44999998807907104,
    -2.059999942779541
   ],
   "type": "VEC3"
  },
  {
   "bufferView": 39,
   "componentType": 5126,
   "count": 24,
   "type": "VEC3"
  },
  {
   "bufferView": 40,
   "componentType": 5126,
   "count": 24,
   "type": "VEC2"
  },
  {
   "bufferView": 41,
   "componentType": 5123,
   "count": 36,
   "type": "SCALAR"
  },
  {
   "bufferView": 42,
   "componentType": 5126,
   "count": 24,
   "max": [
    0.8799999952316284,
    2.630000114440918,
    0.7799999713897705
   ],
   "min": [
    -0.8799999952316284,
    2,
    -1.9500000476837158
   ],
   "type": "VEC3"
  },
  {
   "bufferView": 43,
   "componentType": 5126,
   "count": 24,
   "type": "VEC3"
  },
  {
   "bufferView": 44,
   "componentType": 5126,
   "count": 24,
   "type": "VEC2"
  },
  {
   "bufferView": 45,
   "componentType": 5126,
   "count": 24,
   "max": [
    0.8500000238418579,
    1.2999999523162842,
    2.359999895095825
   ],
   "min": [
    -0.8500000238418579,
    0.41999998688697815,
    2
   ],
   "type": "VEC3"
  },
  {
   "bufferView": 46,
   "componentType": 5126,
   "count": 24,
   "type": "VEC3"
  },
  {
   "bufferView": 47,
   "componentType": 5126,
   "count": 24,
   "type": "VEC2"
  },
  {
   "bufferView": 48,
   "componentType": 5126,
   "count": 24,
   "max": [
    0.8199999928474426,
    0.6600000262260437,
    -2.059999942779541
   ],
   "min": [
    -0.8199999928474426,
    0.41999998688697815,
    -2.4000000953674316
   ],
   "type": "VEC3"
  },
  {
   "bufferView": 49,
   "componentType": 5126,
   "count": 24,
   "type": "VEC3"
  },
  {
   "bufferView": 50,
   "componentType": 5126,
   "count": 24,
   "type": "VEC2"
  },
  {
   "bufferView": 51,
   "componentType": 5126,
   "count": 24,
   "max": [
    1.0199999809265137,
    2.559999942779541,
    -0.36000001430511475
   ],
   "min": [
    0.8899999856948853,
    0.6000000238418579,
    -0.47999998927116394
   ],
   "type": "VEC3"
  },
  {
   "bufferView": 52,
   "componentType": 5126,
   "count": 24,
   "type": "VEC3"
  },
  {
   "bufferView": 53,
   "componentType": 5126,
   "count": 24,
   "type": "VEC2"
  },
  {
   "bufferView": 54,
   "componentType": 5126,
   "count": 24,
   "max": [
    0.9649999737739563,
    2.575000047683716,
    -0.4050000011920929
   ],
   "min": [
    0.9350000023841858,
    2.544999837875366,
    -0.4349999725818634
   ],
   "type": "VEC3"
  },
  {
   "bufferView": 55,
   "componentType": 5126,
   "count": 24,
   "type": "VEC3"
  },
  {
   "bufferView": 56,
   "componentType": 5126,
   "count": 24,
   "type": "VEC2"
  },
  {
   "bufferView": 57,
   "componentType": 5126,
   "count": 24,
   "max": [
    -0.4050000011920929,
    1.774999976158142,
    0.14499999582767487
   ],
   "min": [
    -0.4349999725818634,
    1.7450000047683716,
    0.11499999463558197
   ],
   "type": "VEC3"
  },
  {
   "bufferView": 58,
   "componentType": 5126,
   "count": 24,
   "type": "VEC3"
  },
  {
   "bufferView": 59,
   "componentType": 5126,
   "count": 24,
   "type": "VEC2"
  },
  {
   "bufferView": 60,
   "componentType": 5126,
   "count": 24,
   "max": [
    0.4349999725818634,
    1.774999976158142,
    0.14499999582767487
   ],
   "min": [
    0.4050000011920929,
    1.7450000047683716,
    0.11499999463558197
   ],
   "type": "VEC3"
  },
  {
   "bufferView": 61,
   "componentType": 5126,
   "count": 24,
   "type": "VEC3"
  },
  {
   "bufferView": 62,
   "componentType": 5126,
   "count": 24,
   "type": "VEC2"
  },
  {
   "bufferView": 63,
   "componentType": 5126,
   "count": 24,
   "max": [
    0.6949999928474426,
    1.0149999856948853,
    2.065000057220459
   ],
   "min": [
    0.6650000214576721,
    0.9850000143051147,
    2.0349998474121094
   ],
   "type": "VEC3"
  },
  {
   "bufferView": 64,
   "componentType": 5126,
   "count": 24,
   "type": "VEC3"
  },
  {
   "bufferView": 65,
   "componentType": 5126,
   "count": 24,
   "type": "VEC2"
  },
  {
   "bufferView": 66,
   "componentType": 5126,
   "count": 24,
   "max": [
    -0.6650000214576721,
    1.0149999856948853,
    2.065000057220459
   ],
   "min": [
    -0.6949999928474426,
    0.9850000143051147,
    2.0349998474121094
   ],
   "type": "VEC3"
  },
  {
   "bufferView": 67,
   "componentType": 5126,
   "count": 24,
   "type": "VEC3"
  },
  {
   "bufferView": 68,
   "componentType": 5126,
   "count": 24,
   "type": "VEC2"
  }
 ],
 "bufferViews": [
  {
   "buffer": 0,
   "byteLength": 166092,
   "byteOffset": 0,
   "target": 34962
  },
  {
   "buffer": 0,
   "byteLength": 166092,
   "byteOffset": 166092,
   "target": 34962
  },
  {
   "buffer": 0,
   "byteLength": 110728,
   "byteOffset": 332184,
   "target": 34962
  },
  {
   "buffer": 0,
   "byteLength": 54792,
   "byteOffset": 442912,
   "target": 34963
  },
  {
   "buffer": 0,
   "byteLength": 284844,
   "byteOffset": 497704,
   "target": 34962
  },
  {
   "buffer": 0,
   "byteLength": 284844,
   "byteOffset": 782548,
   "target": 34962
  },
  {
   "buffer": 0,
   "byteLength": 189896,
   "byteOffset": 1067392,
   "target": 34962
  },
  {
   "buffer": 0,
   "byteLength": 99432,
   "byteOffset": 1257288,
   "target": 34963
  },
  {
   "buffer": 0,
   "byteLength": 22668,
   "byteOffset": 1356720,
   "target": 34962
  },
  {
   "buffer": 0,
   "byteLength": 22668,
   "byteOffset": 1379388,
   "target": 34962
  },
  {
   "buffer": 0,
   "byteLength": 15112,
   "byteOffset": 1402056,
   "target": 34962
  },
  {
   "buffer": 0,
   "byteLength": 9936,
   "byteOffset": 1417168,
   "target": 34963
  },
  {
   "buffer": 0,
   "byteLength": 195048,
   "byteOffset": 1427104,
   "target": 34962
  },
  {
   "buffer": 0,
   "byteLength": 195048,
   "byteOffset": 1622152,
   "target": 34962
  },
  {
   "buffer": 0,
   "byteLength": 130032,
   "byteOffset": 1817200,
   "target": 34962
  },
  {
   "buffer": 0,
   "byteLength": 65112,
   "byteOffset": 1947232,
   "target": 34963
  },
  {
   "buffer": 0,
   "byteLength": 55728,
   "byteOffset": 2012344,
   "target": 34962
  },
  {
   "buffer": 0,
   "byteLength": 55728,
   "byteOffset": 2068072,
   "target": 34962
  },
  {
   "buffer": 0,
   "byteLength": 37152,
   "byteOffset": 2123800,
   "target": 34962
  },
  {
   "buffer": 0,
   "byteLength": 22698,
   "byteOffset": 2160952,
   "target": 34963
  },
  {
   "buffer": 0,
   "byteLength": 7992,
   "byteOffset": 2183652,
   "target": 34962
  },
  {
   "buffer": 0,
   "byteLength": 7992,
   "byteOffset": 2191644,
   "target": 34962
  },
  {
   "buffer": 0,
   "byteLength": 5328,
   "byteOffset": 2199636,
   "target": 34962
  },
  {
   "buffer": 0,
   "byteLength": 3144,
   "byteOffset": 2204964,
   "target": 34963
  },
  {
   "buffer": 0,
   "byteLength": 55728,
   "byteOffset": 2208108,
   "target": 34962
  },
  {
   "buffer": 0,
   "byteLength": 55728,
   "byteOffset": 2263836,
   "target": 34962
  },
  {
   "buffer": 0,
   "byteLength": 37152,
   "byteOffset": 2319564,
   "target": 34962
  },
  {
   "buffer": 0,
   "byteLength": 22698,
   "byteOffset": 2356716,
   "target": 34963
  },
  {
   "buffer": 0,
   "byteLength": 55728,
   "byteOffset": 2379416,
   "target": 34962
  },
  {
   "buffer": 0,
   "byteLength": 55728,
   "byteOffset": 2435144,
   "target": 34962
  },
  {
   "buffer": 0,
   "byteLength": 37152,
   "byteOffset": 2490872,
   "target": 34962
  },
  {
   "buffer": 0,
   "byteLength": 22698,
   "byteOffset": 2528024,
   "target": 34963
  },
  {
   "buffer": 0,
   "byteLength": 55728,
   "byteOffset": 2550724,
   "target": 34962
  },
  {
   "buffer": 0,
   "byteLength": 55728,
   "byteOffset": 2606452,
   "target": 34962
  },
  {
   "buffer": 0,
   "byteLength": 37152,
   "byteOffset": 2662180,
   "target": 34962
  },
  {
   "buffer": 0,
   "byteLength": 55728,
   "byteOffset": 2699332,
   "target": 34962
  },
  {
   "buffer": 0,
   "byteLength": 55728,
   "byteOffset": 2755060,
   "target": 34962
  },
  {
   "buffer": 0,
   "byteLength": 37152,
   "byteOffset": 2810788,
   "target": 34962
  },
  {
   "buffer": 0,
   "byteLength": 288,
   "byteOffset": 2847940,
   "target": 34962
  },
  {
   "buffer": 0,
   "byteLength": 288,
   "byteOffset": 2848228,
   "target": 34962
  },
  {
   "buffer": 0,
   "byteLength": 192,
   "byteOffset": 2848516,
   "target": 34962
  },
  {
   "buffer": 0,
   "byteLength": 72,
   "byteOffset": 2848708,
   "target": 34963
  },
  {
   "buffer": 0,
   "byteLength": 288,
   "byteOffset": 2848780,
   "target": 34962
  },
  {
   "buffer": 0,
   "byteLength": 288,
   "byteOffset": 2849068,
   "target": 34962
  },
  {
   "buffer": 0,
   "byteLength": 192,
   "byteOffset": 2849356,
   "target": 34962
  },
  {
   "buffer": 0,
   "byteLength": 288,
   "byteOffset": 2849548,
   "target": 34962
  },
  {
   "buffer": 0,
   "byteLength": 288,
   "byteOffset": 2849836,
   "target": 34962
  },
  {
   "buffer": 0,
   "byteLength": 192,
   "byteOffset": 2850124,
   "target": 34962
  },
  {
   "buffer": 0,
   "byteLength": 288,
   "byteOffset": 2850316,
   "target": 34962
  },
  {
   "buffer": 0,
   "byteLength": 288,
   "byteOffset": 2850604,
   "target": 34962
  },
  {
   "buffer": 0,
   "byteLength": 192,
   "byteOffset": 2850892,
   "target": 34962
  },
  {
   "buffer": 0,
   "byteLength": 288,
   "byteOffset": 2851084,
   "target": 34962
  },
  {
   "buffer": 0,
   "byteLength": 288,
   "byteOffset": 2851372,
   "target": 34962
  },
  {
   "buffer": 0,
   "byteLength": 192,
   "byteOffset": 2851660,
   "target": 34962
  },
  {
   "buffer": 0,
   "byteLength": 288,
   "byteOffset": 2851852,
   "target": 34962
  },
  {
   "buffer": 0,
   "byteLength": 288,
   "byteOffset": 2852140,
   "target": 34962
  },
  {
   "buffer": 0,
   "byteLength": 192,
   "byteOffset": 2852428,
   "target": 34962
  },
  {
   "buffer": 0,
   "byteLength": 288,
   "byteOffset": 2852620,
   "target": 34962
  },
  {
   "buffer": 0,
   "byteLength": 288,
   "byteOffset": 2852908,
   "target": 34962
  },
  {
   "buffer": 0,
   "byteLength": 192,
   "byteOffset": 2853196,
   "target": 34962
  },
  {
   "buffer": 0,
   "byteLength": 288,
   "byteOffset": 2853388,
   "target": 34962
  },
  {
   "buffer": 0,
   "byteLength": 288,
   "byteOffset": 2853676,
   "target": 34962
  },
  {
   "buffer": 0,
   "byteLength": 192,
   "byteOffset": 2853964,
   "target": 34962
  },
  {
   "buffer": 0,
   "byteLength": 288,
   "byteOffset": 2854156,
   "target": 34962
  },
  {
   "buffer": 0,
   "byteLength": 288,
   "byteOffset": 2854444,
   "target": 34962
  },
  {
   "buffer": 0,
   "byteLength": 192,
   "byteOffset": 2854732,
   "target": 34962
  },
  {
   "buffer": 0,
   "byteLength": 288,
   "byteOffset": 2854924,
   "target": 34962
  },
  {
   "buffer": 0,
   "byteLength": 288,
   "byteOffset": 2855212,
   "target": 34962
  },
  {
   "buffer": 0,
   "byteLength": 192,
   "byteOffset": 2855500,
   "target": 34962
  }
 ],
 "samplers": [
  {
   "magFilter": 9729,
   "minFilter": 9987
  }
 ],
 "buffers": [
  {
   "byteLength": 2855692,
   "uri": "veh_rover.bin"
  }
 ]
}