{
 "asset": {
  "generator": "zero point flora",
  "version": "2.0"
 },
 "scene": 0,
 "scenes": [
  {
   "name": "Scene",
   "nodes": [
    0,
    1
   ]
  }
 ],
 "nodes": [
  {
   "mesh": 0,
   "name": "trunk"
  },
  {
   "mesh": 1,
   "name": "foliage"
  }
 ],
 "materials": [
  {
   "name": "bark",
   "doubleSided": false,
   "pbrMetallicRoughness": {
    "baseColorTexture": {
     "index": 0
    },
    "metallicRoughnessTexture": {
     "index": 2
    },
    "metallicFactor": 0.0,
    "roughnessFactor": 1.0
   },
   "normalTexture": {
    "index": 1
   },
   "occlusionTexture": {
    "index": 2
   }
  },
  {
   "name": "leaf",
   "doubleSided": true,
   "pbrMetallicRoughness": {
    "baseColorTexture": {
     "index": 3
    },
    "metallicRoughnessTexture": {
     "index": 5
    },
    "metallicFactor": 0.0,
    "roughnessFactor": 1.0
   },
   "normalTexture": {
    "index": 4
   },
   "occlusionTexture": {
    "index": 5
   },
   "alphaMode": "MASK",
   "alphaCutoff": 0.5
  }
 ],
 "meshes": [
  {
   "name": "flora_birch_0_far_bark",
   "primitives": [
    {
     "attributes": {
      "POSITION": 0,
      "NORMAL": 1,
      "TEXCOORD_0": 2
     },
     "indices": 3,
     "material": 0
    }
   ]
  },
  {
   "name": "flora_birch_0_far_foliage",
   "primitives": [
    {
     "attributes": {
      "POSITION": 4,
      "NORMAL": 5,
      "TEXCOORD_0": 6
     },
     "indices": 7,
     "material": 1
    }
   ]
  }
 ],
 "textures": [
  {
   "sampler": 0,
   "source": 0
  },
  {
   "sampler": 0,
   "source": 1
  },
  {
   "sampler": 0,
   "source": 2
  },
  {
   "sampler": 0,
   "source": 3
  },
  {
   "sampler": 0,
   "source": 4
  },
  {
   "sampler": 0,
   "source": 5
  }
 ],
 "images": [
  {
   "mimeType": "image/png",
   "name": "flora_birch_bark_diff_2k.png",
   "uri": "../flora_birch_0/flora_birch_bark_diff_2k.png"
  },
  {
   "mimeType": "image/png",
   "name": "flora_birch_bark_nor_gl_2k.png",
   "uri": "../flora_birch_0/flora_birch_bark_nor_gl_2k.png"
  },
  {
   "mimeType": "image/png",
   "name": "flora_birch_bark_arm_2k.png",
   "uri": "../flora_birch_0/flora_birch_bark_arm_2k.png"
  },
  {
   "mimeType": "image/png",
   "name": "flora_birch_leaf_diff_2k.png",
   "uri": "../flora_birch_0/flora_birch_leaf_diff_2k.png"
  },
  {
   "mimeType": "image/png",
   "name": "flora_birch_leaf_nor_gl_2k.png",
   "uri": "../flora_birch_0/flora_birch_leaf_nor_gl_2k.png"
  },
  {
   "mimeType": "image/png",
   "name": "flora_birch_leaf_arm_2k.png",
   "uri": "../flora_birch_0/flora_birch_leaf_arm_2k.png"
  }
 ],
 "accessors": [
  {
   "bufferView": 0,
   "componentType": 5126,
   "count": 2033,
   "max": [
    2.797853946685791,
    11.640161514282227,
    2.6154181957244873
   ],
   "min": [
    -2.340156078338623,
    -0.5109180212020874,
    -2.5973424911499023
   ],
   "type": "VEC3"
  },
  {
   "bufferView": 1,
   "componentType": 5126,
   "count": 2033,
   "type": "VEC3"
  },
  {
   "bufferView": 2,
   "componentType": 5126,
   "count": 2033,
   "type": "VEC2"
  },
  {
   "bufferView": 3,
   "componentType": 5123,
   "count": 5172,
   "type": "SCALAR"
  },
  {
   "bufferView": 4,
   "componentType": 5126,
   "count": 1616,
   "max": [
    2.8879106044769287,
    12.022353172302246,
    3.288065195083618
   ],
   "min": [
    -2.9051787853240967,
    3.962982177734375,
    -2.9026427268981934
   ],
   "type": "VEC3"
  },
  {
   "bufferView": 5,
   "componentType": 5126,
   "count": 1616,
   "type": "VEC3"
  },
  {
   "bufferView": 6,
   "componentType": 5126,
   "count": 1616,
   "type": "VEC2"
  },
  {
   "bufferView": 7,
   "componentType": 5123,
   "count": 2424,
   "type": "SCALAR"
  }
 ],
 "bufferViews": [
  {
   "buffer": 0,
   "byteLength": 24396,
   "byteOffset": 0,
   "target": 34962
  },
  {
   "buffer": 0,
   "byteLength": 24396,
   "byteOffset": 24396,
   "target": 34962
  },
  {
   "buffer": 0,
   "byteLength": 16264,
   "byteOffset": 48792,
   "target": 34962
  },
  {
   "buffer": 0,
   "byteLength": 10344,
   "byteOffset": 65056,
   "target": 34963
  },
  {
   "buffer": 0,
   "byteLength": 19392,
   "byteOffset": 75400,
   "target": 34962
  },
  {
   "buffer": 0,
   "byteLength": 19392,
   "byteOffset": 94792,
   "target": 34962
  },
  {
   "buffer": 0,
   "byteLength": 12928,
   "byteOffset": 114184,
   "target": 34962
  },
  {
   "buffer": 0,
   "byteLength": 4848,
   "byteOffset": 127112,
   "target": 34963
  }
 ],
 "samplers": [
  {
   "magFilter": 9729,
   "minFilter": 9987,
   "wrapS": 10497,
   "wrapT": 10497
  }
 ],
 "buffers": [
  {
   "byteLength": 131960,
   "uri": "flora_birch_0_far.bin"
  }
 ]
}