{
 "asset": {
  "generator": "Khronos glTF Blender I/O v4.5.51",
  "version": "2.0"
 },
 "scene": 0,
 "scenes": [
  {
   "name": "Scene",
   "nodes": [
    0,
    1,
    2
   ]
  }
 ],
 "nodes": [
  {
   "mesh": 0,
   "name": "body"
  },
  {
   "mesh": 1,
   "name": "rotor_main",
   "translation": [
    0,
    2.619999885559082,
    -0.25
   ]
  },
  {
   "mesh": 2,
   "name": "rotor_tail",
   "translation": [
    0.33000001311302185,
    1.9299999475479126,
    -6.21999979019165
   ]
  }
 ],
 "materials": [
  {
   "doubleSided": true,
   "name": "veh_heli_hull",
   "normalTexture": {
    "index": 0
   },
   "occlusionTexture": {
    "index": 1
   },
   "pbrMetallicRoughness": {
    "baseColorTexture": {
     "index": 2
    },
    "metallicRoughnessTexture": {
     "index": 1
    }
   }
  },
  {
   "doubleSided": true,
   "name": "veh_heli_rotor",
   "normalTexture": {
    "index": 3
   },
   "occlusionTexture": {
    "index": 4
   },
   "pbrMetallicRoughness": {
    "baseColorTexture": {
     "index": 5
    },
    "metallicRoughnessTexture": {
     "index": 4
    }
   }
  }
 ],
 "meshes": [
  {
   "name": "body",
   "primitives": [
    {
     "attributes": {
      "POSITION": 0,
      "NORMAL": 1,
      "TEXCOORD_0": 2
     },
     "indices": 3,
     "material": 0
    }
   ]
  },
  {
   "name": "rotor_main",
   "primitives": [
    {
     "attributes": {
      "POSITION": 4,
      "NORMAL": 5,
      "TEXCOORD_0": 6
     },
     "indices": 7,
     "material": 1
    }
   ]
  },
  {
   "name": "rotor_tail",
   "primitives": [
    {
     "attributes": {
      "POSITION": 8,
      "NORMAL": 9,
      "TEXCOORD_0": 10
     },
     "indices": 11,
     "material": 1
    }
   ]
  }
 ],
 "textures": [
  {
   "sampler": 0,
   "source": 0
  },
  {
   "sampler": 0,
   "source": 1
  },
  {
   "sampler": 0,
   "source": 2
  },
  {
   "sampler": 0,
   "source": 3
  },
  {
   "sampler": 0,
   "source": 4
  },
  {
   "sampler": 0,
   "source": 5
  }
 ],
 "images": [
  {
   "mimeType": "image/png",
   "name": "veh_heli_hull_normal",
   "uri": "../veh_heli/veh_heli_hull_normal.png"
  },
  {
   "mimeType": "image/png",
   "name": "veh_heli_hull_orm",
   "uri": "../veh_heli/veh_heli_hull_orm.png"
  },
  {
   "mimeType": "image/png",
   "name": "veh_heli_hull_albedo",
   "uri": "../veh_heli/veh_heli_hull_albedo.png"
  },
  {
   "mimeType": "image/png",
   "name": "veh_heli_rotor_normal",
   "uri": "../veh_heli/veh_heli_rotor_normal.png"
  },
  {
   "mimeType": "image/png",
   "name": "veh_heli_rotor_orm",
   "uri": "../veh_heli/veh_heli_rotor_orm.png"
  },
  {
   "mimeType": "image/png",
   "name": "veh_heli_rotor_albedo",
   "uri": "../veh_heli/veh_heli_rotor_albedo.png"
  }
 ],
 "accessors": [
  {
   "bufferView": 0,
   "componentType": 5126,
   "count": 568,
   "max": [
    1.0399999618530273,
    2.950000047683716,
    2.559999942779541
   ],
   "min": [
    -1.0399999618530273,
    0,
    -6.71999979019165
   ],
   "type": "VEC3"
  },
  {
   "bufferView": 1,
   "componentType": 5126,
   "count": 568,
   "type": "VEC3"
  },
  {
   "bufferView": 2,
   "componentType": 5126,
   "count": 568,
   "type": "VEC2"
  },
  {
   "bufferView": 3,
   "componentType": 5123,
   "count": 852,
   "type": "SCALAR"
  },
  {
   "bufferView": 4,
   "componentType": 5126,
   "count": 74,
   "max": [
    4,
    0.04999995231628418,
    0.12999999523162842
   ],
   "min": [
    -4,
    -0.25,
    -0.12999999523162842
   ],
   "type": "VEC3"
  },
  {
   "bufferView": 5,
   "componentType": 5126,
   "count": 74,
   "type": "VEC3"
  },
  {
   "bufferView": 6,
   "componentType": 5126,
   "count": 74,
   "type": "VEC2"
  },
  {
   "bufferView": 7,
   "componentType": 5123,
   "count": 132,
   "type": "SCALAR"
  },
  {
   "bufferView": 8,
   "componentType": 5126,
   "count": 24,
   "max": [
    0.009999990463256836,
    0.6999999284744263,
    0.059999942779541016
   ],
   "min": [
    -0.009999990463256836,
    -0.6999999284744263,
    -0.059999942779541016
   ],
   "type": "VEC3"
  },
  {
   "bufferView": 9,
   "componentType": 5126,
   "count": 24,
   "type": "VEC3"
  },
  {
   "bufferView": 10,
   "componentType": 5126,
   "count": 24,
   "type": "VEC2"
  },
  {
   "bufferView": 11,
   "componentType": 5123,
   "count": 36,
   "type": "SCALAR"
  }
 ],
 "bufferViews": [
  {
   "buffer": 0,
   "byteLength": 6816,
   "byteOffset": 0,
   "target": 34962
  },
  {
   "buffer": 0,
   "byteLength": 6816,
   "byteOffset": 6816,
   "target": 34962
  },
  {
   "buffer": 0,
   "byteLength": 4544,
   "byteOffset": 13632,
   "target": 34962
  },
  {
   "buffer": 0,
   "byteLength": 1704,
   "byteOffset": 18176,
   "target": 34963
  },
  {
   "buffer": 0,
   "byteLength": 888,
   "byteOffset": 19880,
   "target": 34962
  },
  {
   "buffer": 0,
   "byteLength": 888,
   "byteOffset": 20768,
   "target": 34962
  },
  {
   "buffer": 0,
   "byteLength": 592,
   "byteOffset": 21656,
   "target": 34962
  },
  {
   "buffer": 0,
   "byteLength": 264,
   "byteOffset": 22248,
   "target": 34963
  },
  {
   "buffer": 0,
   "byteLength": 288,
   "byteOffset": 22512,
   "target": 34962
  },
  {
   "buffer": 0,
   "byteLength": 288,
   "byteOffset": 22800,
   "target": 34962
  },
  {
   "buffer": 0,
   "byteLength": 192,
   "byteOffset": 23088,
   "target": 34962
  },
  {
   "buffer": 0,
   "byteLength": 72,
   "byteOffset": 23280,
   "target": 34963
  }
 ],
 "samplers": [
  {
   "magFilter": 9729,
   "minFilter": 9987
  }
 ],
 "buffers": [
  {
   "byteLength": 23352,
   "uri": "veh_heli_far.bin"
  }
 ]
}