{
 "asset": {
  "generator": "Khronos glTF Blender I/O v4.5.51",
  "version": "2.0"
 },
 "scene": 0,
 "scenes": [
  {
   "name": "Scene",
   "nodes": [
    0
   ]
  }
 ],
 "nodes": [
  {
   "mesh": 0,
   "name": "leaf"
  }
 ],
 "materials": [
  {
   "name": "painted_wood_white",
   "normalTexture": {
    "index": 0
   },
   "occlusionTexture": {
    "index": 1
   },
   "pbrMetallicRoughness": {
    "baseColorTexture": {
     "index": 2
    },
    "metallicRoughnessTexture": {
     "index": 1
    }
   }
  },
  {
   "name": "rail_signs",
   "normalTexture": {
    "index": 3
   },
   "occlusionTexture": {
    "index": 4
   },
   "pbrMetallicRoughness": {
    "baseColorTexture": {
     "index": 5
    },
    "metallicRoughnessTexture": {
     "index": 4
    }
   }
  }
 ],
 "meshes": [
  {
   "name": "leaf",
   "primitives": [
    {
     "attributes": {
      "POSITION": 0,
      "NORMAL": 1,
      "TEXCOORD_0": 2
     },
     "indices": 3,
     "material": 0
    },
    {
     "attributes": {
      "POSITION": 4,
      "NORMAL": 5,
      "TEXCOORD_0": 6
     },
     "indices": 7,
     "material": 1
    }
   ]
  }
 ],
 "textures": [
  {
   "sampler": 0,
   "source": 0
  },
  {
   "sampler": 0,
   "source": 1
  },
  {
   "sampler": 0,
   "source": 2
  },
  {
   "sampler": 0,
   "source": 3
  },
  {
   "sampler": 0,
   "source": 4
  },
  {
   "sampler": 0,
   "source": 5
  }
 ],
 "images": [
  {
   "mimeType": "image/png",
   "name": "painted_wood_white_normal.png",
   "uri": "../_library/painted_wood_white_normal.png"
  },
  {
   "mimeType": "image/png",
   "name": "painted_wood_white_orm.png",
   "uri": "../_library/painted_wood_white_orm.png"
  },
  {
   "mimeType": "image/png",
   "name": "painted_wood_white_albedo.png",
   "uri": "../_library/painted_wood_white_albedo.png"
  },
  {
   "mimeType": "image/png",
   "name": "rail_signs_normal.png",
   "uri": "../_library/rail_signs_normal.png"
  },
  {
   "mimeType": "image/png",
   "name": "rail_signs_orm.png",
   "uri": "../_library/rail_signs_orm.png"
  },
  {
   "mimeType": "image/png",
   "name": "rail_signs_albedo.png",
   "uri": "../_library/rail_signs_albedo.png"
  }
 ],
 "accessors": [
  {
   "bufferView": 0,
   "componentType": 5126,
   "count": 280,
   "max": [
    2.3499999046325684,
    1.559999942779541,
    0.07999999821186066
   ],
   "min": [
    0.034999996423721313,
    0.10000002384185791,
    -0.0560000017285347
   ],
   "type": "VEC3"
  },
  {
   "bufferView": 1,
   "componentType": 5126,
   "count": 280,
   "type": "VEC3"
  },
  {
   "bufferView": 2,
   "componentType": 5126,
   "count": 280,
   "type": "VEC2"
  },
  {
   "bufferView": 3,
   "componentType": 5123,
   "count": 420,
   "type": "SCALAR"
  },
  {
   "bufferView": 4,
   "componentType": 5126,
   "count": 22,
   "max": [
    1.5350000858306885,
    1.2653169631958008,
    0.09200000017881393
   ],
   "min": [
    0.9350000023841858,
    0.6946830749511719,
    -0.06800000369548798
   ],
   "type": "VEC3"
  },
  {
   "bufferView": 5,
   "componentType": 5126,
   "count": 22,
   "type": "VEC3"
  },
  {
   "bufferView": 6,
   "componentType": 5126,
   "count": 22,
   "type": "VEC2"
  },
  {
   "bufferView": 7,
   "componentType": 5123,
   "count": 60,
   "type": "SCALAR"
  }
 ],
 "bufferViews": [
  {
   "buffer": 0,
   "byteLength": 3360,
   "byteOffset": 0,
   "target": 34962
  },
  {
   "buffer": 0,
   "byteLength": 3360,
   "byteOffset": 3360,
   "target": 34962
  },
  {
   "buffer": 0,
   "byteLength": 2240,
   "byteOffset": 6720,
   "target": 34962
  },
  {
   "buffer": 0,
   "byteLength": 840,
   "byteOffset": 8960,
   "target": 34963
  },
  {
   "buffer": 0,
   "byteLength": 264,
   "byteOffset": 9800,
   "target": 34962
  },
  {
   "buffer": 0,
   "byteLength": 264,
   "byteOffset": 10064,
   "target": 34962
  },
  {
   "buffer": 0,
   "byteLength": 176,
   "byteOffset": 10328,
   "target": 34962
  },
  {
   "buffer": 0,
   "byteLength": 120,
   "byteOffset": 10504,
   "target": 34963
  }
 ],
 "samplers": [
  {
   "magFilter": 9729,
   "minFilter": 9987
  }
 ],
 "buffers": [
  {
   "byteLength": 10624,
   "uri": "rail_crossing_gate_far.bin"
  }
 ]
}