{
 "asset": {
  "generator": "Khronos glTF Blender I/O v4.5.51",
  "version": "2.0"
 },
 "scene": 0,
 "scenes": [
  {
   "name": "Scene",
   "nodes": [
    0,
    1,
    2,
    3,
    4,
    5,
    6,
    7,
    8,
    9,
    10,
    11,
    12,
    13,
    14,
    15,
    16,
    17,
    18,
    19,
    20,
    21,
    22,
    23,
    24,
    25,
    26,
    27,
    28,
    29,
    30,
    31,
    32,
    33,
    34,
    35,
    36,
    37,
    38,
    39,
    40,
    41,
    42
   ]
  }
 ],
 "nodes": [
  {
   "mesh": 0,
   "name": "frame"
  },
  {
   "mesh": 1,
   "name": "detail"
  },
  {
   "mesh": 2,
   "name": "body"
  },
  {
   "mesh": 3,
   "name": "inside"
  },
  {
   "mesh": 4,
   "name": "glass"
  },
  {
   "mesh": 5,
   "name": "col_metal_end_1"
  },
  {
   "mesh": 6,
   "name": "col_wood_neck_1"
  },
  {
   "mesh": 7,
   "name": "col_metal_step_1"
  },
  {
   "mesh": 8,
   "name": "col_metal_step_2"
  },
  {
   "mesh": 9,
   "name": "col_metal_step_3"
  },
  {
   "mesh": 10,
   "name": "col_metal_step_4"
  },
  {
   "mesh": 11,
   "name": "col_metal_step_5"
  },
  {
   "mesh": 12,
   "name": "col_metal_step_6"
  },
  {
   "mesh": 13,
   "name": "col_metal_end_2"
  },
  {
   "mesh": 14,
   "name": "col_wood_neck_2"
  },
  {
   "mesh": 15,
   "name": "col_metal_step_7"
  },
  {
   "mesh": 16,
   "name": "col_metal_step_8"
  },
  {
   "mesh": 17,
   "name": "col_metal_step_9"
  },
  {
   "mesh": 18,
   "name": "col_metal_step_10"
  },
  {
   "mesh": 19,
   "name": "col_metal_step_11"
  },
  {
   "mesh": 20,
   "name": "col_metal_step_12"
  },
  {
   "mesh": 21,
   "name": "col_metal_side_wall_1"
  },
  {
   "mesh": 22,
   "name": "col_metal_side_wall_2"
  },
  {
   "mesh": 23,
   "name": "col_metal_end_wall_1"
  },
  {
   "mesh": 24,
   "name": "col_metal_end_wall_2"
  },
  {
   "mesh": 25,
   "name": "col_metal_end_wall_3"
  },
  {
   "mesh": 26,
   "name": "col_metal_end_wall_4"
  },
  {
   "mesh": 27,
   "name": "light_warm_1"
  },
  {
   "mesh": 28,
   "name": "light_warm_2"
  },
  {
   "mesh": 29,
   "name": "light_warm_3"
  },
  {
   "mesh": 30,
   "name": "col_fabric_seat_1"
  },
  {
   "mesh": 31,
   "name": "col_fabric_seat_2"
  },
  {
   "mesh": 32,
   "name": "col_fabric_seat_3"
  },
  {
   "mesh": 33,
   "name": "col_fabric_seat_4"
  },
  {
   "mesh": 34,
   "name": "col_fabric_seat_5"
  },
  {
   "mesh": 35,
   "name": "col_fabric_seat_6"
  },
  {
   "mesh": 36,
   "name": "col_fabric_seat_7"
  },
  {
   "mesh": 37,
   "name": "col_fabric_seat_8"
  },
  {
   "mesh": 38,
   "name": "loot_box_1"
  },
  {
   "mesh": 39,
   "name": "loot_food_1"
  },
  {
   "mesh": 40,
   "name": "loot_medical_1"
  },
  {
   "mesh": 41,
   "name": "col_wood_deck_1"
  },
  {
   "mesh": 42,
   "name": "col_metal_roof_1"
  }
 ],
 "materials": [
  {
   "name": "loco_black",
   "normalTexture": {
    "index": 0
   },
   "occlusionTexture": {
    "index": 1
   },
   "pbrMetallicRoughness": {
    "baseColorTexture": {
     "index": 2
    },
    "metallicRoughnessTexture": {
     "index": 1
    }
   }
  },
  {
   "name": "chequer_plate",
   "normalTexture": {
    "index": 3
   },
   "occlusionTexture": {
    "index": 4
   },
   "pbrMetallicRoughness": {
    "baseColorTexture": {
     "index": 5
    },
    "metallicRoughnessTexture": {
     "index": 4
    }
   }
  },
  {
   "name": "floorboards",
   "normalTexture": {
    "index": 6
   },
   "occlusionTexture": {
    "index": 7
   },
   "pbrMetallicRoughness": {
    "baseColorTexture": {
     "index": 8
    },
    "metallicRoughnessTexture": {
     "index": 7
    }
   }
  },
  {
   "name": "rust_iron",
   "normalTexture": {
    "index": 9
   },
   "occlusionTexture": {
    "index": 10
   },
   "pbrMetallicRoughness": {
    "baseColorTexture": {
     "index": 11
    },
    "metallicRoughnessTexture": {
     "index": 10
    }
   }
  },
  {
   "name": "rail_signs",
   "normalTexture": {
    "index": 12
   },
   "occlusionTexture": {
    "index": 13
   },
   "pbrMetallicRoughness": {
    "baseColorTexture": {
     "index": 14
    },
    "metallicRoughnessTexture": {
     "index": 13
    }
   }
  },
  {
   "name": "timber_beam",
   "normalTexture": {
    "index": 15
   },
   "occlusionTexture": {
    "index": 16
   },
   "pbrMetallicRoughness": {
    "baseColorTexture": {
     "index": 17
    },
    "metallicRoughnessTexture": {
     "index": 16
    }
   }
  },
  {
   "name": "lamp_glow_dim",
   "normalTexture": {
    "index": 18
   },
   "occlusionTexture": {
    "index": 19
   },
   "pbrMetallicRoughness": {
    "baseColorTexture": {
     "index": 20
    },
    "metallicRoughnessTexture": {
     "index": 19
    }
   },
   "emissiveFactor": [
    1.0,
    0.8,
    0.56
   ],
   "extensions": {
    "KHR_materials_emissive_strength": {
     "emissiveStrength": 2.0
    }
   }
  },
  {
   "name": "coach_livery",
   "normalTexture": {
    "index": 21
   },
   "occlusionTexture": {
    "index": 22
   },
   "pbrMetallicRoughness": {
    "baseColorTexture": {
     "index": 23
    },
    "metallicRoughnessTexture": {
     "index": 22
    }
   }
  },
  {
   "name": "leather_brown",
   "normalTexture": {
    "index": 24
   },
   "occlusionTexture": {
    "index": 25
   },
   "pbrMetallicRoughness": {
    "baseColorTexture": {
     "index": 26
    },
    "metallicRoughnessTexture": {
     "index": 25
    }
   }
  },
  {
   "name": "glass_dirty",
   "normalTexture": {
    "index": 27
   },
   "occlusionTexture": {
    "index": 28
   },
   "pbrMetallicRoughness": {
    "baseColorTexture": {
     "index": 29
    },
    "metallicRoughnessTexture": {
     "index": 28
    }
   }
  }
 ],
 "meshes": [
  {
   "name": "frame",
   "primitives": [
    {
     "attributes": {
      "POSITION": 0,
      "NORMAL": 1,
      "TEXCOORD_0": 2
     },
     "indices": 3,
     "material": 0
    },
    {
     "attributes": {
      "POSITION": 4,
      "NORMAL": 5,
      "TEXCOORD_0": 6
     },
     "indices": 7,
     "material": 1
    },
    {
     "attributes": {
      "POSITION": 8,
      "NORMAL": 9,
      "TEXCOORD_0": 10
     },
     "indices": 11,
     "material": 2
    },
    {
     "attributes": {
      "POSITION": 12,
      "NORMAL": 13,
      "TEXCOORD_0": 14
     },
     "indices": 15,
     "material": 3
    }
   ]
  },
  {
   "name": "detail",
   "primitives": [
    {
     "attributes": {
      "POSITION": 16,
      "NORMAL": 17,
      "TEXCOORD_0": 18
     },
     "indices": 19,
     "material": 0
    },
    {
     "attributes": {
      "POSITION": 20,
      "NORMAL": 21,
      "TEXCOORD_0": 22
     },
     "indices": 23,
     "material": 3
    },
    {
     "attributes": {
      "POSITION": 24,
      "NORMAL": 25,
      "TEXCOORD_0": 26
     },
     "indices": 27,
     "material": 4
    },
    {
     "attributes": {
      "POSITION": 28,
      "NORMAL": 29,
      "TEXCOORD_0": 30
     },
     "indices": 31,
     "material": 5
    },
    {
     "attributes": {
      "POSITION": 32,
      "NORMAL": 33,
      "TEXCOORD_0": 34
     },
     "indices": 35,
     "material": 6
    }
   ]
  },
  {
   "name": "body",
   "primitives": [
    {
     "attributes": {
      "POSITION": 36,
      "NORMAL": 37,
      "TEXCOORD_0": 38
     },
     "indices": 39,
     "material": 7
    },
    {
     "attributes": {
      "POSITION": 40,
      "NORMAL": 41,
      "TEXCOORD_0": 42
     },
     "indices": 43,
     "material": 0
    }
   ]
  },
  {
   "name": "inside",
   "primitives": [
    {
     "attributes": {
      "POSITION": 44,
      "NORMAL": 45,
      "TEXCOORD_0": 46
     },
     "indices": 47,
     "material": 2
    },
    {
     "attributes": {
      "POSITION": 48,
      "NORMAL": 49,
      "TEXCOORD_0": 50
     },
     "indices": 51,
     "material": 5
    },
    {
     "attributes": {
      "POSITION": 52,
      "NORMAL": 53,
      "TEXCOORD_0": 54
     },
     "indices": 55,
     "material": 7
    },
    {
     "attributes": {
      "POSITION": 56,
      "NORMAL": 57,
      "TEXCOORD_0": 58
     },
     "indices": 59,
     "material": 8
    }
   ]
  },
  {
   "name": "glass",
   "primitives": [
    {
     "attributes": {
      "POSITION": 60,
      "NORMAL": 61,
      "TEXCOORD_0": 62
     },
     "indices": 63,
     "material": 9
    }
   ]
  },
  {
   "name": "col_metal_end_1",
   "primitives": [
    {
     "attributes": {
      "POSITION": 64,
      "NORMAL": 65,
      "TEXCOORD_0": 66
     },
     "indices": 67,
     "material": 0
    }
   ]
  },
  {
   "name": "col_wood_neck_1",
   "primitives": [
    {
     "attributes": {
      "POSITION": 68,
      "NORMAL": 69,
      "TEXCOORD_0": 70
     },
     "indices": 67,
     "material": 0
    }
   ]
  },
  {
   "name": "col_metal_step_1",
   "primitives": [
    {
     "attributes": {
      "POSITION": 71,
      "NORMAL": 72,
      "TEXCOORD_0": 73
     },
     "indices": 67,
     "material": 0
    }
   ]
  },
  {
   "name": "col_metal_step_2",
   "primitives": [
    {
     "attributes": {
      "POSITION": 74,
      "NORMAL": 75,
      "TEXCOORD_0": 76
     },
     "indices": 67,
     "material": 0
    }
   ]
  },
  {
   "name": "col_metal_step_3",
   "primitives": [
    {
     "attributes": {
      "POSITION": 77,
      "NORMAL": 78,
      "TEXCOORD_0": 79
     },
     "indices": 67,
     "material": 0
    }
   ]
  },
  {
   "name": "col_metal_step_4",
   "primitives": [
    {
     "attributes": {
      "POSITION": 80,
      "NORMAL": 81,
      "TEXCOORD_0": 82
     },
     "indices": 67,
     "material": 0
    }
   ]
  },
  {
   "name": "col_metal_step_5",
   "primitives": [
    {
     "attributes": {
      "POSITION": 83,
      "NORMAL": 84,
      "TEXCOORD_0": 85
     },
     "indices": 67,
     "material": 0
    }
   ]
  },
  {
   "name": "col_metal_step_6",
   "primitives": [
    {
     "attributes": {
      "POSITION": 86,
      "NORMAL": 87,
      "TEXCOORD_0": 88
     },
     "indices": 67,
     "material": 0
    }
   ]
  },
  {
   "name": "col_metal_end_2",
   "primitives": [
    {
     "attributes": {
      "POSITION": 89,
      "NORMAL": 90,
      "TEXCOORD_0": 91
     },
     "indices": 67,
     "material": 0
    }
   ]
  },
  {
   "name": "col_wood_neck_2",
   "primitives": [
    {
     "attributes": {
      "POSITION": 92,
      "NORMAL": 93,
      "TEXCOORD_0": 94
     },
     "indices": 67,
     "material": 0
    }
   ]
  },
  {
   "name": "col_metal_step_7",
   "primitives": [
    {
     "attributes": {
      "POSITION": 95,
      "NORMAL": 96,
      "TEXCOORD_0": 97
     },
     "indices": 67,
     "material": 0
    }
   ]
  },
  {
   "name": "col_metal_step_8",
   "primitives": [
    {
     "attributes": {
      "POSITION": 98,
      "NORMAL": 99,
      "TEXCOORD_0": 100
     },
     "indices": 67,
     "material": 0
    }
   ]
  },
  {
   "name": "col_metal_step_9",
   "primitives": [
    {
     "attributes": {
      "POSITION": 101,
      "NORMAL": 102,
      "TEXCOORD_0": 103
     },
     "indices": 67,
     "material": 0
    }
   ]
  },
  {
   "name": "col_metal_step_10",
   "primitives": [
    {
     "attributes": {
      "POSITION": 104,
      "NORMAL": 105,
      "TEXCOORD_0": 106
     },
     "indices": 67,
     "material": 0
    }
   ]
  },
  {
   "name": "col_metal_step_11",
   "primitives": [
    {
     "attributes": {
      "POSITION": 107,
      "NORMAL": 108,
      "TEXCOORD_0": 109
     },
     "indices": 67,
     "material": 0
    }
   ]
  },
  {
   "name": "col_metal_step_12",
   "primitives": [
    {
     "attributes": {
      "POSITION": 110,
      "NORMAL": 111,
      "TEXCOORD_0": 112
     },
     "indices": 67,
     "material": 0
    }
   ]
  },
  {
   "name": "col_metal_side_wall_1",
   "primitives": [
    {
     "attributes": {
      "POSITION": 113,
      "NORMAL": 114,
      "TEXCOORD_0": 115
     },
     "indices": 67,
     "material": 0
    }
   ]
  },
  {
   "name": "col_metal_side_wall_2",
   "primitives": [
    {
     "attributes": {
      "POSITION": 116,
      "NORMAL": 117,
      "TEXCOORD_0": 118
     },
     "indices": 67,
     "material": 0
    }
   ]
  },
  {
   "name": "col_metal_end_wall_1",
   "primitives": [
    {
     "attributes": {
      "POSITION": 119,
      "NORMAL": 120,
      "TEXCOORD_0": 121
     },
     "indices": 67,
     "material": 0
    }
   ]
  },
  {
   "name": "col_metal_end_wall_2",
   "primitives": [
    {
     "attributes": {
      "POSITION": 122,
      "NORMAL": 123,
      "TEXCOORD_0": 124
     },
     "indices": 67,
     "material": 0
    }
   ]
  },
  {
   "name": "col_metal_end_wall_3",
   "primitives": [
    {
     "attributes": {
      "POSITION": 125,
      "NORMAL": 126,
      "TEXCOORD_0": 127
     },
     "indices": 67,
     "material": 0
    }
   ]
  },
  {
   "name": "col_metal_end_wall_4",
   "primitives": [
    {
     "attributes": {
      "POSITION": 128,
      "NORMAL": 129,
      "TEXCOORD_0": 130
     },
     "indices": 67,
     "material": 0
    }
   ]
  },
  {
   "name": "light_warm_1",
   "primitives": [
    {
     "attributes": {
      "POSITION": 131,
      "NORMAL": 132,
      "TEXCOORD_0": 133
     },
     "indices": 67,
     "material": 0
    }
   ]
  },
  {
   "name": "light_warm_2",
   "primitives": [
    {
     "attributes": {
      "POSITION": 134,
      "NORMAL": 135,
      "TEXCOORD_0": 136
     },
     "indices": 67,
     "material": 0
    }
   ]
  },
  {
   "name": "light_warm_3",
   "primitives": [
    {
     "attributes": {
      "POSITION": 137,
      "NORMAL": 138,
      "TEXCOORD_0": 139
     },
     "indices": 67,
     "material": 0
    }
   ]
  },
  {
   "name": "col_fabric_seat_1",
   "primitives": [
    {
     "attributes": {
      "POSITION": 140,
      "NORMAL": 141,
      "TEXCOORD_0": 142
     },
     "indices": 67,
     "material": 0
    }
   ]
  },
  {
   "name": "col_fabric_seat_2",
   "primitives": [
    {
     "attributes": {
      "POSITION": 143,
      "NORMAL": 144,
      "TEXCOORD_0": 145
     },
     "indices": 67,
     "material": 0
    }
   ]
  },
  {
   "name": "col_fabric_seat_3",
   "primitives": [
    {
     "attributes": {
      "POSITION": 146,
      "NORMAL": 147,
      "TEXCOORD_0": 148
     },
     "indices": 67,
     "material": 0
    }
   ]
  },
  {
   "name": "col_fabric_seat_4",
   "primitives": [
    {
     "attributes": {
      "POSITION": 149,
      "NORMAL": 150,
      "TEXCOORD_0": 151
     },
     "indices": 67,
     "material": 0
    }
   ]
  },
  {
   "name": "col_fabric_seat_5",
   "primitives": [
    {
     "attributes": {
      "POSITION": 152,
      "NORMAL": 153,
      "TEXCOORD_0": 154
     },
     "indices": 67,
     "material": 0
    }
   ]
  },
  {
   "name": "col_fabric_seat_6",
   "primitives": [
    {
     "attributes": {
      "POSITION": 155,
      "NORMAL": 156,
      "TEXCOORD_0": 157
     },
     "indices": 67,
     "material": 0
    }
   ]
  },
  {
   "name": "col_fabric_seat_7",
   "primitives": [
    {
     "attributes": {
      "POSITION": 158,
      "NORMAL": 159,
      "TEXCOORD_0": 160
     },
     "indices": 67,
     "material": 0
    }
   ]
  },
  {
   "name": "col_fabric_seat_8",
   "primitives": [
    {
     "attributes": {
      "POSITION": 161,
      "NORMAL": 162,
      "TEXCOORD_0": 163
     },
     "indices": 67,
     "material": 0
    }
   ]
  },
  {
   "name": "loot_box_1",
   "primitives": [
    {
     "attributes": {
      "POSITION": 164,
      "NORMAL": 165,
      "TEXCOORD_0": 166
     },
     "indices": 67,
     "material": 0
    }
   ]
  },
  {
   "name": "loot_food_1",
   "primitives": [
    {
     "attributes": {
      "POSITION": 167,
      "NORMAL": 168,
      "TEXCOORD_0": 169
     },
     "indices": 67,
     "material": 0
    }
   ]
  },
  {
   "name": "loot_medical_1",
   "primitives": [
    {
     "attributes": {
      "POSITION": 170,
      "NORMAL": 171,
      "TEXCOORD_0": 172
     },
     "indices": 67,
     "material": 0
    }
   ]
  },
  {
   "name": "col_wood_deck_1",
   "primitives": [
    {
     "attributes": {
      "POSITION": 173,
      "NORMAL": 174,
      "TEXCOORD_0": 175
     },
     "indices": 67,
     "material": 0
    }
   ]
  },
  {
   "name": "col_metal_roof_1",
   "primitives": [
    {
     "attributes": {
      "POSITION": 176,
      "NORMAL": 177,
      "TEXCOORD_0": 178
     },
     "indices": 67,
     "material": 0
    }
   ]
  }
 ],
 "textures": [
  {
   "sampler": 0,
   "source": 0
  },
  {
   "sampler": 0,
   "source": 1
  },
  {
   "sampler": 0,
   "source": 2
  },
  {
   "sampler": 0,
   "source": 3
  },
  {
   "sampler": 0,
   "source": 4
  },
  {
   "sampler": 0,
   "source": 5
  },
  {
   "sampler": 0,
   "source": 6
  },
  {
   "sampler": 0,
   "source": 7
  },
  {
   "sampler": 0,
   "source": 8
  },
  {
   "sampler": 0,
   "source": 9
  },
  {
   "sampler": 0,
   "source": 10
  },
  {
   "sampler": 0,
   "source": 11
  },
  {
   "sampler": 0,
   "source": 12
  },
  {
   "sampler": 0,
   "source": 13
  },
  {
   "sampler": 0,
   "source": 14
  },
  {
   "sampler": 0,
   "source": 15
  },
  {
   "sampler": 0,
   "source": 16
  },
  {
   "sampler": 0,
   "source": 17
  },
  {
   "sampler": 0,
   "source": 12
  },
  {
   "sampler": 0,
   "source": 13
  },
  {
   "sampler": 0,
   "source": 14
  },
  {
   "sampler": 0,
   "source": 18
  },
  {
   "sampler": 0,
   "source": 19
  },
  {
   "sampler": 0,
   "source": 20
  },
  {
   "sampler": 0,
   "source": 21
  },
  {
   "sampler": 0,
   "source": 22
  },
  {
   "sampler": 0,
   "source": 23
  },
  {
   "sampler": 0,
   "source": 24
  },
  {
   "sampler": 0,
   "source": 25
  },
  {
   "sampler": 0,
   "source": 26
  }
 ],
 "images": [
  {
   "mimeType": "image/png",
   "name": "loco_black_normal.png",
   "uri": "../_library/loco_black_normal.png"
  },
  {
   "mimeType": "image/png",
   "name": "loco_black_orm.png",
   "uri": "../_library/loco_black_orm.png"
  },
  {
   "mimeType": "image/png",
   "name": "loco_black_albedo.png",
   "uri": "../_library/loco_black_albedo.png"
  },
  {
   "mimeType": "image/png",
   "name": "chequer_plate_normal.png",
   "uri": "../_library/chequer_plate_normal.png"
  },
  {
   "mimeType": "image/png",
   "name": "chequer_plate_orm.png",
   "uri": "../_library/chequer_plate_orm.png"
  },
  {
   "mimeType": "image/png",
   "name": "chequer_plate_albedo.png",
   "uri": "../_library/chequer_plate_albedo.png"
  },
  {
   "mimeType": "image/png",
   "name": "floorboards_normal.png",
   "uri": "../_library/floorboards_normal.png"
  },
  {
   "mimeType": "image/png",
   "name": "floorboards_orm.png",
   "uri": "../_library/floorboards_orm.png"
  },
  {
   "mimeType": "image/png",
   "name": "floorboards_albedo.png",
   "uri": "../_library/floorboards_albedo.png"
  },
  {
   "mimeType": "image/png",
   "name": "rust_iron_normal.png",
   "uri": "../_library/rust_iron_normal.png"
  },
  {
   "mimeType": "image/png",
   "name": "rust_iron_orm.png",
   "uri": "../_library/rust_iron_orm.png"
  },
  {
   "mimeType": "image/png",
   "name": "rust_iron_albedo.png",
   "uri": "../_library/rust_iron_albedo.png"
  },
  {
   "mimeType": "image/png",
   "name": "rail_signs_normal.png",
   "uri": "../_library/rail_signs_normal.png"
  },
  {
   "mimeType": "image/png",
   "name": "rail_signs_orm.png",
   "uri": "../_library/rail_signs_orm.png"
  },
  {
   "mimeType": "image/png",
   "name": "rail_signs_albedo.png",
   "uri": "../_library/rail_signs_albedo.png"
  },
  {
   "mimeType": "image/png",
   "name": "timber_beam_normal.png",
   "uri": "../_library/timber_beam_normal.png"
  },
  {
   "mimeType": "image/png",
   "name": "timber_beam_orm.png",
   "uri": "../_library/timber_beam_orm.png"
  },
  {
   "mimeType": "image/png",
   "name": "timber_beam_albedo.png",
   "uri": "../_library/timber_beam_albedo.png"
  },
  {
   "mimeType": "image/png",
   "name": "coach_livery_normal.png",
   "uri": "../_library/coach_livery_normal.png"
  },
  {
   "mimeType": "image/png",
   "name": "coach_livery_orm.png",
   "uri": "../_library/coach_livery_orm.png"
  },
  {
   "mimeType": "image/png",
   "name": "coach_livery_albedo.png",
   "uri": "../_library/coach_livery_albedo.png"
  },
  {
   "mimeType": "image/png",
   "name": "leather_brown_normal.png",
   "uri": "../_library/leather_brown_normal.png"
  },
  {
   "mimeType": "image/png",
   "name": "leather_brown_orm.png",
   "uri": "../_library/leather_brown_orm.png"
  },
  {
   "mimeType": "image/png",
   "name": "leather_brown_albedo.png",
   "uri": "../_library/leather_brown_albedo.png"
  },
  {
   "mimeType": "image/png",
   "name": "glass_dirty_normal.png",
   "uri": "../_library/glass_dirty_normal.png"
  },
  {
   "mimeType": "image/png",
   "name": "glass_dirty_orm.png",
   "uri": "../_library/glass_dirty_orm.png"
  },
  {
   "mimeType": "image/png",
   "name": "glass_dirty_albedo.png",
   "uri": "../_library/glass_dirty_albedo.png"
  }
 ],
 "accessors": [
  {
   "bufferView": 0,
   "componentType": 5126,
   "count": 5884,
   "max": [
    1.399999976158142,
    1.2699999809265137,
    5.940000534057617
   ],
   "min": [
    -1.399999976158142,
    0.07999999821186066,
    -5.940000534057617
   ],
   "type": "VEC3"
  },
  {
   "bufferView": 1,
   "componentType": 5126,
   "count": 5884,
   "type": "VEC3"
  },
  {
   "bufferView": 2,
   "componentType": 5126,
   "count": 5884,
   "type": "VEC2"
  },
  {
   "bufferView": 3,
   "componentType": 5123,
   "count": 11580,
   "type": "SCALAR"
  },
  {
   "bufferView": 4,
   "componentType": 5126,
   "count": 56,
   "max": [
    1.3799999952316284,
    1.2699999809265137,
    5.940000057220459
   ],
   "min": [
    -1.3799999952316284,
    0.18000000715255737,
    -5.940000057220459
   ],
   "type": "VEC3"
  },
  {
   "bufferView": 5,
   "componentType": 5126,
   "count": 56,
   "type": "VEC3"
  },
  {
   "bufferView": 6,
   "componentType": 5126,
   "count": 56,
   "type": "VEC2"
  },
  {
   "bufferView": 7,
   "componentType": 5123,
   "count": 84,
   "type": "SCALAR"
  },
  {
   "bufferView": 8,
   "componentType": 5126,
   "count": 288,
   "max": [
    0.5400000214576721,
    1.270581841468811,
    5.497999668121338
   ],
   "min": [
    -0.5400000214576721,
    1.1992815732955933,
    -5.498000144958496
   ],
   "type": "VEC3"
  },
  {
   "bufferView": 9,
   "componentType": 5126,
   "count": 288,
   "type": "VEC3"
  },
  {
   "bufferView": 10,
   "componentType": 5126,
   "count": 288,
   "type": "VEC2"
  },
  {
   "bufferView": 11,
   "componentType": 5123,
   "count": 432,
   "type": "SCALAR"
  },
  {
   "bufferView": 12,
   "componentType": 5126,
   "count": 7248,
   "max": [
    1.1129999160766602,
    0.7599999904632568,
    4.325999736785889
   ],
   "min": [
    -1.1129999160766602,
    0.4049999713897705,
    -4.325999736785889
   ],
   "type": "VEC3"
  },
  {
   "bufferView": 13,
   "componentType": 5126,
   "count": 7248,
   "type": "VEC3"
  },
  {
   "bufferView": 14,
   "componentType": 5126,
   "count": 7248,
   "type": "VEC2"
  },
  {
   "bufferView": 15,
   "componentType": 5123,
   "count": 17184,
   "type": "SCALAR"
  },
  {
   "bufferView": 16,
   "componentType": 5126,
   "count": 18065,
   "max": [
    1.375,
    3.7699999809265137,
    5.908693313598633
   ],
   "min": [
    -1.375,
    0.11937481164932251,
    -5.908693313598633
   ],
   "type": "VEC3"
  },
  {
   "bufferView": 17,
   "componentType": 5126,
   "count": 18065,
   "type": "VEC3"
  },
  {
   "bufferView": 18,
   "componentType": 5126,
   "count": 18065,
   "type": "VEC2"
  },
  {
   "bufferView": 19,
   "componentType": 5123,
   "count": 35316,
   "type": "SCALAR"
  },
  {
   "bufferView": 20,
   "componentType": 5126,
   "count": 9490,
   "max": [
    1.3222688436508179,
    1.2400000095367432,
    6
   ],
   "min": [
    -1.3222688436508179,
    0.18000000715255737,
    -6
   ],
   "type": "VEC3"
  },
  {
   "bufferView": 21,
   "componentType": 5126,
   "count": 9490,
   "type": "VEC3"
  },
  {
   "bufferView": 22,
   "componentType": 5126,
   "count": 9490,
   "type": "VEC2"
  },
  {
   "bufferView": 23,
   "componentType": 5123,
   "count": 19560,
   "type": "SCALAR"
  },
  {
   "bufferView": 24,
   "componentType": 5126,
   "count": 7703,
   "max": [
    1.2480000257492065,
    3.5799999237060547,
    4.47599983215332
   ],
   "min": [
    -1.2480000257492065,
    1.0074999332427979,
    -4.47599983215332
   ],
   "type": "VEC3"
  },
  {
   "bufferView": 25,
   "componentType": 5126,
   "count": 7703,
   "type": "VEC3"
  },
  {
   "bufferView": 26,
   "componentType": 5126,
   "count": 7703,
   "type": "VEC2"
  },
  {
   "bufferView": 27,
   "componentType": 5123,
   "count": 11988,
   "type": "SCALAR"
  },
  {
   "bufferView": 28,
   "componentType": 5126,
   "count": 2208,
   "max": [
    1.309999942779541,
    3.3350000381469727,
    4.5420002937316895
   ],
   "min": [
    -1.309999942779541,
    1.2000000476837158,
    -4.5420002937316895
   ],
   "type": "VEC3"
  },
  {
   "bufferView": 29,
   "componentType": 5126,
   "count": 2208,
   "type": "VEC3"
  },
  {
   "bufferView": 30,
   "componentType": 5126,
   "count": 2208,
   "type": "VEC2"
  },
  {
   "bufferView": 31,
   "componentType": 5123,
   "count": 3312,
   "type": "SCALAR"
  },
  {
   "bufferView": 32,
   "componentType": 5126,
   "count": 252,
   "max": [
    0.0949999988079071,
    3.559999942779541,
    3.0950000286102295
   ],
   "min": [
    -0.0949999988079071,
    3.429999828338623,
    -3.0950000286102295
   ],
   "type": "VEC3"
  },
  {
   "bufferView": 33,
   "componentType": 5126,
   "count": 252,
   "type": "VEC3"
  },
  {
   "bufferView": 34,
   "componentType": 5126,
   "count": 252,
   "type": "VEC2"
  },
  {
   "bufferView": 35,
   "componentType": 5123,
   "count": 1008,
   "type": "SCALAR"
  },
  {
   "bufferView": 36,
   "componentType": 5126,
   "count": 696,
   "max": [
    1.2999999523162842,
    3.5999999046325684,
    5.453999996185303
   ],
   "min": [
    -1.2999999523162842,
    1.2000000476837158,
    -5.453999996185303
   ],
   "type": "VEC3"
  },
  {
   "bufferView": 37,
   "componentType": 5126,
   "count": 696,
   "type": "VEC3"
  },
  {
   "bufferView": 38,
   "componentType": 5126,
   "count": 696,
   "type": "VEC2"
  },
  {
   "bufferView": 39,
   "componentType": 5123,
   "count": 1584,
   "type": "SCALAR"
  },
  {
   "bufferView": 40,
   "componentType": 5126,
   "count": 798,
   "max": [
    1.3600000143051147,
    3.640000104904175,
    5.539999961853027
   ],
   "min": [
    -1.3600000143051147,
    3.2100000381469727,
    -5.539999961853027
   ],
   "type": "VEC3"
  },
  {
   "bufferView": 41,
   "componentType": 5126,
   "count": 798,
   "type": "VEC3"
  },
  {
   "bufferView": 42,
   "componentType": 5126,
   "count": 798,
   "type": "VEC2"
  },
  {
   "bufferView": 43,
   "componentType": 5123,
   "count": 2976,
   "type": "SCALAR"
  },
  {
   "bufferView": 44,
   "componentType": 5126,
   "count": 720,
   "max": [
    1.2480000257492065,
    1.2709481716156006,
    4.480000019073486
   ],
   "min": [
    -1.2480000257492065,
    1.1990259885787964,
    -4.480000019073486
   ],
   "type": "VEC3"
  },
  {
   "bufferView": 45,
   "componentType": 5126,
   "count": 720,
   "type": "VEC3"
  },
  {
   "bufferView": 46,
   "componentType": 5126,
   "count": 720,
   "type": "VEC2"
  },
  {
   "bufferView": 47,
   "componentType": 5123,
   "count": 1080,
   "type": "SCALAR"
  },
  {
   "bufferView": 48,
   "componentType": 5126,
   "count": 4304,
   "max": [
    1.2799999713897705,
    3.5959999561309814,
    4.510000228881836
   ],
   "min": [
    -1.2799999713897705,
    1.2699999809265137,
    -4.510000228881836
   ],
   "type": "VEC3"
  },
  {
   "bufferView": 49,
   "componentType": 5126,
   "count": 4304,
   "type": "VEC3"
  },
  {
   "bufferView": 50,
   "componentType": 5126,
   "count": 4304,
   "type": "VEC2"
  },
  {
   "bufferView": 51,
   "componentType": 5123,
   "count": 8940,
   "type": "SCALAR"
  },
  {
   "bufferView": 52,
   "componentType": 5126,
   "count": 630,
   "max": [
    1.2799999713897705,
    3.5959999561309814,
    4.510000228881836
   ],
   "min": [
    -1.2799999713897705,
    2.200000047683716,
    -4.510000228881836
   ],
   "type": "VEC3"
  },
  {
   "bufferView": 53,
   "componentType": 5126,
   "count": 630,
   "type": "VEC3"
  },
  {
   "bufferView": 54,
   "componentType": 5126,
   "count": 630,
   "type": "VEC2"
  },
  {
   "bufferView": 55,
   "componentType": 5123,
   "count": 1524,
   "type": "SCALAR"
  },
  {
   "bufferView": 56,
   "componentType": 5126,
   "count": 2880,
   "max": [
    1.249809980392456,
    3.3550000190734863,
    4.477961540222168
   ],
   "min": [
    -1.257387399673462,
    1.2699999809265137,
    -4.477961540222168
   ],
   "type": "VEC3"
  },
  {
   "bufferView": 57,
   "componentType": 5126,
   "count": 2880,
   "type": "VEC3"
  },
  {
   "bufferView": 58,
   "componentType": 5126,
   "count": 2880,
   "type": "VEC2"
  },
  {
   "bufferView": 59,
   "componentType": 5123,
   "count": 5940,
   "type": "SCALAR"
  },
  {
   "bufferView": 60,
   "componentType": 5126,
   "count": 868,
   "max": [
    1.2879999876022339,
    3.200000047683716,
    4.51800012588501
   ],
   "min": [
    -1.2879999876022339,
    2.200000047683716,
    -4.51800012588501
   ],
   "type": "VEC3"
  },
  {
   "bufferView": 61,
   "componentType": 5126,
   "count": 868,
   "type": "VEC3"
  },
  {
   "bufferView": 62,
   "componentType": 5126,
   "count": 868,
   "type": "VEC2"
  },
  {
   "bufferView": 63,
   "componentType": 5123,
   "count": 1404,
   "type": "SCALAR"
  },
  {
   "bufferView": 64,
   "componentType": 5126,
   "count": 24,
   "max": [
    1.059999942779541,
    1.2699999809265137,
    6
   ],
   "min": [
    -1.059999942779541,
    0.8600000143051147,
    5.409999847412109
   ],
   "type": "VEC3"
  },
  {
   "bufferView": 65,
   "componentType": 5126,
   "count": 24,
   "type": "VEC3"
  },
  {
   "bufferView": 66,
   "componentType": 5126,
   "count": 24,
   "type": "VEC2"
  },
  {
   "bufferView": 67,
   "componentType": 5123,
   "count": 36,
   "type": "SCALAR"
  },
  {
   "bufferView": 68,
   "componentType": 5126,
   "count": 24,
   "max": [
    0.5400000214576721,
    1.2699999809265137,
    5.409999847412109
   ],
   "min": [
    -0.5400000214576721,
    0.44999998807907104,
    4.53000020980835
   ],
   "type": "VEC3"
  },
  {
   "bufferView": 69,
   "componentType": 5126,
   "count": 24,
   "type": "VEC3"
  },
  {
   "bufferView": 70,
   "componentType": 5126,
   "count": 24,
   "type": "VEC2"
  },
  {
   "bufferView": 71,
   "componentType": 5126,
   "count": 24,
   "max": [
    -0.5400000214576721,
    0.18000000715255737,
    5.409999847412109
   ],
   "min": [
    -1.3799999952316284,
    -0.10000000149011612,
    4.53000020980835
   ],
   "type": "VEC3"
  },
  {
   "bufferView": 72,
   "componentType": 5126,
   "count": 24,
   "type": "VEC3"
  },
  {
   "bufferView": 73,
   "componentType": 5126,
   "count": 24,
   "type": "VEC2"
  },
  {
   "bufferView": 74,
   "componentType": 5126,
   "count": 24,
   "max": [
    -0.5400000214576721,
    0.5400000214576721,
    5.409999847412109
   ],
   "min": [
    -1.100000023841858,
    0.18000000715255737,
    4.53000020980835
   ],
   "type": "VEC3"
  },
  {
   "bufferView": 75,
   "componentType": 5126,
   "count": 24,
   "type": "VEC3"
  },
  {
   "bufferView": 76,
   "componentType": 5126,
   "count": 24,
   "type": "VEC2"
  },
  {
   "bufferView": 77,
   "componentType": 5126,
   "count": 24,
   "max": [
    -0.5400000214576721,
    0.8999999761581421,
    5.409999847412109
   ],
   "min": [
    -0.8199999928474426,
    0.5400000214576721,
    4.53000020980835
   ],
   "type": "VEC3"
  },
  {
   "bufferView": 78,
   "componentType": 5126,
   "count": 24,
   "type": "VEC3"
  },
  {
   "bufferView": 79,
   "componentType": 5126,
   "count": 24,
   "type": "VEC2"
  },
  {
   "bufferView": 80,
   "componentType": 5126,
   "count": 24,
   "max": [
    1.3799999952316284,
    0.18000000715255737,
    5.409999847412109
   ],
   "min": [
    0.5400000214576721,
    -0.10000000149011612,
    4.53000020980835
   ],
   "type": "VEC3"
  },
  {
   "bufferView": 81,
   "componentType": 5126,
   "count": 24,
   "type": "VEC3"
  },
  {
   "bufferView": 82,
   "componentType": 5126,
   "count": 24,
   "type": "VEC2"
  },
  {
   "bufferView": 83,
   "componentType": 5126,
   "count": 24,
   "max": [
    1.100000023841858,
    0.5400000214576721,
    5.409999847412109
   ],
   "min": [
    0.5400000214576721,
    0.18000000715255737,
    4.53000020980835
   ],
   "type": "VEC3"
  },
  {
   "bufferView": 84,
   "componentType": 5126,
   "count": 24,
   "type": "VEC3"
  },
  {
   "bufferView": 85,
   "componentType": 5126,
   "count": 24,
   "type": "VEC2"
  },
  {
   "bufferView": 86,
   "componentType": 5126,
   "count": 24,
   "max": [
    0.8199999928474426,
    0.8999999761581421,
    5.409999847412109
   ],
   "min": [
    0.5400000214576721,
    0.5400000214576721,
    4.53000020980835
   ],
   "type": "VEC3"
  },
  {
   "bufferView": 87,
   "componentType": 5126,
   "count": 24,
   "type": "VEC3"
  },
  {
   "bufferView": 88,
   "componentType": 5126,
   "count": 24,
   "type": "VEC2"
  },
  {
   "bufferView": 89,
   "componentType": 5126,
   "count": 24,
   "max": [
    1.059999942779541,
    1.2699999809265137,
    -5.409999847412109
   ],
   "min": [
    -1.059999942779541,
    0.8600000143051147,
    -6
   ],
   "type": "VEC3"
  },
  {
   "bufferView": 90,
   "componentType": 5126,
   "count": 24,
   "type": "VEC3"
  },
  {
   "bufferView": 91,
   "componentType": 5126,
   "count": 24,
   "type": "VEC2"
  },
  {
   "bufferView": 92,
   "componentType": 5126,
   "count": 24,
   "max": [
    0.5400000214576721,
    1.2699999809265137,
    -4.53000020980835
   ],
   "min": [
    -0.5400000214576721,
    0.44999998807907104,
    -5.409999847412109
   ],
   "type": "VEC3"
  },
  {
   "bufferView": 93,
   "componentType": 5126,
   "count": 24,
   "type": "VEC3"
  },
  {
   "bufferView": 94,
   "componentType": 5126,
   "count": 24,
   "type": "VEC2"
  },
  {
   "bufferView": 95,
   "componentType": 5126,
   "count": 24,
   "max": [
    -0.5400000214576721,
    0.18000000715255737,
    -4.53000020980835
   ],
   "min": [
    -1.3799999952316284,
    -0.10000000149011612,
    -5.409999847412109
   ],
   "type": "VEC3"
  },
  {
   "bufferView": 96,
   "componentType": 5126,
   "count": 24,
   "type": "VEC3"
  },
  {
   "bufferView": 97,
   "componentType": 5126,
   "count": 24,
   "type": "VEC2"
  },
  {
   "bufferView": 98,
   "componentType": 5126,
   "count": 24,
   "max": [
    -0.5400000214576721,
    0.5400000214576721,
    -4.53000020980835
   ],
   "min": [
    -1.100000023841858,
    0.18000000715255737,
    -5.409999847412109
   ],
   "type": "VEC3"
  },
  {
   "bufferView": 99,
   "componentType": 5126,
   "count": 24,
   "type": "VEC3"
  },
  {
   "bufferView": 100,
   "componentType": 5126,
   "count": 24,
   "type": "VEC2"
  },
  {
   "bufferView": 101,
   "componentType": 5126,
   "count": 24,
   "max": [
    -0.5400000214576721,
    0.8999999761581421,
    -4.53000020980835
   ],
   "min": [
    -0.8199999928474426,
    0.5400000214576721,
    -5.409999847412109
   ],
   "type": "VEC3"
  },
  {
   "bufferView": 102,
   "componentType": 5126,
   "count": 24,
   "type": "VEC3"
  },
  {
   "bufferView": 103,
   "componentType": 5126,
   "count": 24,
   "type": "VEC2"
  },
  {
   "bufferView": 104,
   "componentType": 5126,
   "count": 24,
   "max": [
    1.3799999952316284,
    0.18000000715255737,
    -4.53000020980835
   ],
   "min": [
    0.5400000214576721,
    -0.10000000149011612,
    -5.409999847412109
   ],
   "type": "VEC3"
  },
  {
   "bufferView": 105,
   "componentType": 5126,
   "count": 24,
   "type": "VEC3"
  },
  {
   "bufferView": 106,
   "componentType": 5126,
   "count": 24,
   "type": "VEC2"
  },
  {
   "bufferView": 107,
   "componentType": 5126,
   "count": 24,
   "max": [
    1.100000023841858,
    0.5400000214576721,
    -4.53000020980835
   ],
   "min": [
    0.5400000214576721,
    0.18000000715255737,
    -5.409999847412109
   ],
   "type": "VEC3"
  },
  {
   "bufferView": 108,
   "componentType": 5126,
   "count": 24,
   "type": "VEC3"
  },
  {
   "bufferView": 109,
   "componentType": 5126,
   "count": 24,
   "type": "VEC2"
  },
  {
   "bufferView": 110,
   "componentType": 5126,
   "count": 24,
   "max": [
    0.8199999928474426,
    0.8999999761581421,
    -4.53000020980835
   ],
   "min": [
    0.5400000214576721,
    0.5400000214576721,
    -5.409999847412109
   ],
   "type": "VEC3"
  },
  {
   "bufferView": 111,
   "componentType": 5126,
   "count": 24,
   "type": "VEC3"
  },
  {
   "bufferView": 112,
   "componentType": 5126,
   "count": 24,
   "type": "VEC2"
  },
  {
   "bufferView": 113,
   "componentType": 5126,
   "count": 24,
   "max": [
    -1.2400000095367432,
    3.3299999237060547,
    4.53000020980835
   ],
   "min": [
    -1.2999999523162842,
    1.2699999809265137,
    -4.53000020980835
   ],
   "type": "VEC3"
  },
  {
   "bufferView": 114,
   "componentType": 5126,
   "count": 24,
   "type": "VEC3"
  },
  {
   "bufferView": 115,
   "componentType": 5126,
   "count": 24,
   "type": "VEC2"
  },
  {
   "bufferView": 116,
   "componentType": 5126,
   "count": 24,
   "max": [
    1.2999999523162842,
    3.3299999237060547,
    4.53000020980835
   ],
   "min": [
    1.2400000095367432,
    1.2699999809265137,
    -4.53000020980835
   ],
   "type": "VEC3"
  },
  {
   "bufferView": 117,
   "componentType": 5126,
   "count": 24,
   "type": "VEC3"
  },
  {
   "bufferView": 118,
   "componentType": 5126,
   "count": 24,
   "type": "VEC2"
  },
  {
   "bufferView": 119,
   "componentType": 5126,
   "count": 24,
   "max": [
    -0.47999998927116394,
    3.3299999237060547,
    4.53000020980835
   ],
   "min": [
    -1.2999999523162842,
    1.2699999809265137,
    3.9700000286102295
   ],
   "type": "VEC3"
  },
  {
   "bufferView": 120,
   "componentType": 5126,
   "count": 24,
   "type": "VEC3"
  },
  {
   "bufferView": 121,
   "componentType": 5126,
   "count": 24,
   "type": "VEC2"
  },
  {
   "bufferView": 122,
   "componentType": 5126,
   "count": 24,
   "max": [
    1.2999999523162842,
    3.3299999237060547,
    4.53000020980835
   ],
   "min": [
    0.47999998927116394,
    1.2699999809265137,
    3.9700000286102295
   ],
   "type": "VEC3"
  },
  {
   "bufferView": 123,
   "componentType": 5126,
   "count": 24,
   "type": "VEC3"
  },
  {
   "bufferView": 124,
   "componentType": 5126,
   "count": 24,
   "type": "VEC2"
  },
  {
   "bufferView": 125,
   "componentType": 5126,
   "count": 24,
   "max": [
    -0.47999998927116394,
    3.3299999237060547,
    -3.9700000286102295
   ],
   "min": [
    -1.2999999523162842,
    1.2699999809265137,
    -4.53000020980835
   ],
   "type": "VEC3"
  },
  {
   "bufferView": 126,
   "componentType": 5126,
   "count": 24,
   "type": "VEC3"
  },
  {
   "bufferView": 127,
   "componentType": 5126,
   "count": 24,
   "type": "VEC2"
  },
  {
   "bufferView": 128,
   "componentType": 5126,
   "count": 24,
   "max": [
    1.2999999523162842,
    3.3299999237060547,
    -3.9700000286102295
   ],
   "min": [
    0.47999998927116394,
    1.2699999809265137,
    -4.53000020980835
   ],
   "type": "VEC3"
  },
  {
   "bufferView": 129,
   "componentType": 5126,
   "count": 24,
   "type": "VEC3"
  },
  {
   "bufferView": 130,
   "componentType": 5126,
   "count": 24,
   "type": "VEC2"
  },
  {
   "bufferView": 131,
   "componentType": 5126,
   "count": 24,
   "max": [
    0.05000000074505806,
    3.4099998474121094,
    3.049999952316284
   ],
   "min": [
    -0.05000000074505806,
    3.309999942779541,
    2.950000047683716
   ],
   "type": "VEC3"
  },
  {
   "bufferView": 132,
   "componentType": 5126,
   "count": 24,
   "type": "VEC3"
  },
  {
   "bufferView": 133,
   "componentType": 5126,
   "count": 24,
   "type": "VEC2"
  },
  {
   "bufferView": 134,
   "componentType": 5126,
   "count": 24,
   "max": [
    0.05000000074505806,
    3.4099998474121094,
    0.05000000074505806
   ],
   "min": [
    -0.05000000074505806,
    3.309999942779541,
    -0.05000000074505806
   ],
   "type": "VEC3"
  },
  {
   "bufferView": 135,
   "componentType": 5126,
   "count": 24,
   "type": "VEC3"
  },
  {
   "bufferView": 136,
   "componentType": 5126,
   "count": 24,
   "type": "VEC2"
  },
  {
   "bufferView": 137,
   "componentType": 5126,
   "count": 24,
   "max": [
    0.05000000074505806,
    3.4099998474121094,
    -2.950000047683716
   ],
   "min": [
    -0.05000000074505806,
    3.309999942779541,
    -3.049999952316284
   ],
   "type": "VEC3"
  },
  {
   "bufferView": 138,
   "componentType": 5126,
   "count": 24,
   "type": "VEC3"
  },
  {
   "bufferView": 139,
   "componentType": 5126,
   "count": 24,
   "type": "VEC2"
  },
  {
   "bufferView": 140,
   "componentType": 5126,
   "count": 24,
   "max": [
    -0.5,
    2.3299999237060547,
    3.242000102996826
   ],
   "min": [
    -1.2599999904632568,
    1.2699999809265137,
    2.181999921798706
   ],
   "type": "VEC3"
  },
  {
   "bufferView": 141,
   "componentType": 5126,
   "count": 24,
   "type": "VEC3"
  },
  {
   "bufferView": 142,
   "componentType": 5126,
   "count": 24,
   "type": "VEC2"
  },
  {
   "bufferView": 143,
   "componentType": 5126,
   "count": 24,
   "max": [
    -0.5,
    2.3299999237060547,
    1.434000015258789
   ],
   "min": [
    -1.2599999904632568,
    1.2699999809265137,
    0.37400001287460327
   ],
   "type": "VEC3"
  },
  {
   "bufferView": 144,
   "componentType": 5126,
   "count": 24,
   "type": "VEC3"
  },
  {
   "bufferView": 145,
   "componentType": 5126,
   "count": 24,
   "type": "VEC2"
  },
  {
   "bufferView": 146,
   "componentType": 5126,
   "count": 24,
   "max": [
    -0.5,
    2.3299999237060547,
    -0.37400001287460327
   ],
   "min": [
    -1.2599999904632568,
    1.2699999809265137,
    -1.434000015258789
   ],
   "type": "VEC3"
  },
  {
   "bufferView": 147,
   "componentType": 5126,
   "count": 24,
   "type": "VEC3"
  },
  {
   "bufferView": 148,
   "componentType": 5126,
   "count": 24,
   "type": "VEC2"
  },
  {
   "bufferView": 149,
   "componentType": 5126,
   "count": 24,
   "max": [
    -0.5,
    2.3299999237060547,
    -2.181999921798706
   ],
   "min": [
    -1.2599999904632568,
    1.2699999809265137,
    -3.242000102996826
   ],
   "type": "VEC3"
  },
  {
   "bufferView": 150,
   "componentType": 5126,
   "count": 24,
   "type": "VEC3"
  },
  {
   "bufferView": 151,
   "componentType": 5126,
   "count": 24,
   "type": "VEC2"
  },
  {
   "bufferView": 152,
   "componentType": 5126,
   "count": 24,
   "max": [
    1.2599999904632568,
    2.3299999237060547,
    3.242000102996826
   ],
   "min": [
    0.5,
    1.2699999809265137,
    2.181999921798706
   ],
   "type": "VEC3"
  },
  {
   "bufferView": 153,
   "componentType": 5126,
   "count": 24,
   "type": "VEC3"
  },
  {
   "bufferView": 154,
   "componentType": 5126,
   "count": 24,
   "type": "VEC2"
  },
  {
   "bufferView": 155,
   "componentType": 5126,
   "count": 24,
   "max": [
    1.2599999904632568,
    2.3299999237060547,
    1.434000015258789
   ],
   "min": [
    0.5,
    1.2699999809265137,
    0.37400001287460327
   ],
   "type": "VEC3"
  },
  {
   "bufferView": 156,
   "componentType": 5126,
   "count": 24,
   "type": "VEC3"
  },
  {
   "bufferView": 157,
   "componentType": 5126,
   "count": 24,
   "type": "VEC2"
  },
  {
   "bufferView": 158,
   "componentType": 5126,
   "count": 24,
   "max": [
    1.2599999904632568,
    2.3299999237060547,
    -0.37400001287460327
   ],
   "min": [
    0.5,
    1.2699999809265137,
    -1.434000015258789
   ],
   "type": "VEC3"
  },
  {
   "bufferView": 159,
   "componentType": 5126,
   "count": 24,
   "type": "VEC3"
  },
  {
   "bufferView": 160,
   "componentType": 5126,
   "count": 24,
   "type": "VEC2"
  },
  {
   "bufferView": 161,
   "componentType": 5126,
   "count": 24,
   "max": [
    1.2599999904632568,
    2.3299999237060547,
    -2.181999921798706
   ],
   "min": [
    0.5,
    1.2699999809265137,
    -3.242000102996826
   ],
   "type": "VEC3"
  },
  {
   "bufferView": 162,
   "componentType": 5126,
   "count": 24,
   "type": "VEC3"
  },
  {
   "bufferView": 163,
   "componentType": 5126,
   "count": 24,
   "type": "VEC2"
  },
  {
   "bufferView": 164,
   "componentType": 5126,
   "count": 24,
   "max": [
    -0.8499999642372131,
    1.5700000524520874,
    3.6659998893737793
   ],
   "min": [
    -0.949999988079071,
    1.4700000286102295,
    3.565999984741211
   ],
   "type": "VEC3"
  },
  {
   "bufferView": 165,
   "componentType": 5126,
   "count": 24,
   "type": "VEC3"
  },
  {
   "bufferView": 166,
   "componentType": 5126,
   "count": 24,
   "type": "VEC2"
  },
  {
   "bufferView": 167,
   "componentType": 5126,
   "count": 24,
   "max": [
    1,
    2.0999999046325684,
    0.25
   ],
   "min": [
    0.8999999761581421,
    2,
    0.15000000596046448
   ],
   "type": "VEC3"
  },
  {
   "bufferView": 168,
   "componentType": 5126,
   "count": 24,
   "type": "VEC3"
  },
  {
   "bufferView": 169,
   "componentType": 5126,
   "count": 24,
   "type": "VEC2"
  },
  {
   "bufferView": 170,
   "componentType": 5126,
   "count": 24,
   "max": [
    0.949999988079071,
    1.3700000047683716,
    -3.450000047683716
   ],
   "min": [
    0.8499999642372131,
    1.2699999809265137,
    -3.549999952316284
   ],
   "type": "VEC3"
  },
  {
   "bufferView": 171,
   "componentType": 5126,
   "count": 24,
   "type": "VEC3"
  },
  {
   "bufferView": 172,
   "componentType": 5126,
   "count": 24,
   "type": "VEC2"
  },
  {
   "bufferView": 173,
   "componentType": 5126,
   "count": 24,
   "max": [
    1.2999999523162842,
    1.2699999809265137,
    4.53000020980835
   ],
   "min": [
    -1.2999999523162842,
    0.44999998807907104,
    -4.53000020980835
   ],
   "type": "VEC3"
  },
  {
   "bufferView": 174,
   "componentType": 5126,
   "count": 24,
   "type": "VEC3"
  },
  {
   "bufferView": 175,
   "componentType": 5126,
   "count": 24,
   "type": "VEC2"
  },
  {
   "bufferView": 176,
   "componentType": 5126,
   "count": 24,
   "max": [
    1.3600000143051147,
    3.680000066757202,
    5.5
   ],
   "min": [
    -1.3600000143051147,
    3.3299999237060547,
    -5.5
   ],
   "type": "VEC3"
  },
  {
   "bufferView": 177,
   "componentType": 5126,
   "count": 24,
   "type": "VEC3"
  },
  {
   "bufferView": 178,
   "componentType": 5126,
   "count": 24,
   "type": "VEC2"
  }
 ],
 "bufferViews": [
  {
   "buffer": 0,
   "byteLength": 70608,
   "byteOffset": 0,
   "target": 34962
  },
  {
   "buffer": 0,
   "byteLength": 70608,
   "byteOffset": 70608,
   "target": 34962
  },
  {
   "buffer": 0,
   "byteLength": 47072,
   "byteOffset": 141216,
   "target": 34962
  },
  {
   "buffer": 0,
   "byteLength": 23160,
   "byteOffset": 188288,
   "target": 34963
  },
  {
   "buffer": 0,
   "byteLength": 672,
   "byteOffset": 211448,
   "target": 34962
  },
  {
   "buffer": 0,
   "byteLength": 672,
   "byteOffset": 212120,
   "target": 34962
  },
  {
   "buffer": 0,
   "byteLength": 448,
   "byteOffset": 212792,
   "target": 34962
  },
  {
   "buffer": 0,
   "byteLength": 168,
   "byteOffset": 213240,
   "target": 34963
  },
  {
   "buffer": 0,
   "byteLength": 3456,
   "byteOffset": 213408,
   "target": 34962
  },
  {
   "buffer": 0,
   "byteLength": 3456,
   "byteOffset": 216864,
   "target": 34962
  },
  {
   "buffer": 0,
   "byteLength": 2304,
   "byteOffset": 220320,
   "target": 34962
  },
  {
   "buffer": 0,
   "byteLength": 864,
   "byteOffset": 222624,
   "target": 34963
  },
  {
   "buffer": 0,
   "byteLength": 86976,
   "byteOffset": 223488,
   "target": 34962
  },
  {
   "buffer": 0,
   "byteLength": 86976,
   "byteOffset": 310464,
   "target": 34962
  },
  {
   "buffer": 0,
   "byteLength": 57984,
   "byteOffset": 397440,
   "target": 34962
  },
  {
   "buffer": 0,
   "byteLength": 34368,
   "byteOffset": 455424,
   "target": 34963
  },
  {
   "buffer": 0,
   "byteLength": 216780,
   "byteOffset": 489792,
   "target": 34962
  },
  {
   "buffer": 0,
   "byteLength": 216780,
   "byteOffset": 706572,
   "target": 34962
  },
  {
   "buffer": 0,
   "byteLength": 144520,
   "byteOffset": 923352,
   "target": 34962
  },
  {
   "buffer": 0,
   "byteLength": 70632,
   "byteOffset": 1067872,
   "target": 34963
  },
  {
   "buffer": 0,
   "byteLength": 113880,
   "byteOffset": 1138504,
   "target": 34962
  },
  {
   "buffer": 0,
   "byteLength": 113880,
   "byteOffset": 1252384,
   "target": 34962
  },
  {
   "buffer": 0,
   "byteLength": 75920,
   "byteOffset": 1366264,
   "target": 34962
  },
  {
   "buffer": 0,
   "byteLength": 39120,
   "byteOffset": 1442184,
   "target": 34963
  },
  {
   "buffer": 0,
   "byteLength": 92436,
   "byteOffset": 1481304,
   "target": 34962
  },
  {
   "buffer": 0,
   "byteLength": 92436,
   "byteOffset": 1573740,
   "target": 34962
  },
  {
   "buffer": 0,
   "byteLength": 61624,
   "byteOffset": 1666176,
   "target": 34962
  },
  {
   "buffer": 0,
   "byteLength": 23976,
   "byteOffset": 1727800,
   "target": 34963
  },
  {
   "buffer": 0,
   "byteLength": 26496,
   "byteOffset": 1751776,
   "target": 34962
  },
  {
   "buffer": 0,
   "byteLength": 26496,
   "byteOffset": 1778272,
   "target": 34962
  },
  {
   "buffer": 0,
   "byteLength": 17664,
   "byteOffset": 1804768,
   "target": 34962
  },
  {
   "buffer": 0,
   "byteLength": 6624,
   "byteOffset": 1822432,
   "target": 34963
  },
  {
   "buffer": 0,
   "byteLength": 3024,
   "byteOffset": 1829056,
   "target": 34962
  },
  {
   "buffer": 0,
   "byteLength": 3024,
   "byteOffset": 1832080,
   "target": 34962
  },
  {
   "buffer": 0,
   "byteLength": 2016,
   "byteOffset": 1835104,
   "target": 34962
  },
  {
   "buffer": 0,
   "byteLength": 2016,
   "byteOffset": 1837120,
   "target": 34963
  },
  {
   "buffer": 0,
   "byteLength": 8352,
   "byteOffset": 1839136,
   "target": 34962
  },
  {
   "buffer": 0,
   "byteLength": 8352,
   "byteOffset": 1847488,
   "target": 34962
  },
  {
   "buffer": 0,
   "byteLength": 5568,
   "byteOffset": 1855840,
   "target": 34962
  },
  {
   "buffer": 0,
   "byteLength": 3168,
   "byteOffset": 1861408,
   "target": 34963
  },
  {
   "buffer": 0,
   "byteLength": 9576,
   "byteOffset": 1864576,
   "target": 34962
  },
  {
   "buffer": 0,
   "byteLength": 9576,
   "byteOffset": 1874152,
   "target": 34962
  },
  {
   "buffer": 0,
   "byteLength": 6384,
   "byteOffset": 1883728,
   "target": 34962
  },
  {
   "buffer": 0,
   "byteLength": 5952,
   "byteOffset": 1890112,
   "target": 34963
  },
  {
   "buffer": 0,
   "byteLength": 8640,
   "byteOffset": 1896064,
   "target": 34962
  },
  {
   "buffer": 0,
   "byteLength": 8640,
   "byteOffset": 1904704,
   "target": 34962
  },
  {
   "buffer": 0,
   "byteLength": 5760,
   "byteOffset": 1913344,
   "target": 34962
  },
  {
   "buffer": 0,
   "byteLength": 2160,
   "byteOffset": 1919104,
   "target": 34963
  },
  {
   "buffer": 0,
   "byteLength": 51648,
   "byteOffset": 1921264,
   "target": 34962
  },
  {
   "buffer": 0,
   "byteLength": 51648,
   "byteOffset": 1972912,
   "target": 34962
  },
  {
   "buffer": 0,
   "byteLength": 34432,
   "byteOffset": 2024560,
   "target": 34962
  },
  {
   "buffer": 0,
   "byteLength": 17880,
   "byteOffset": 2058992,
   "target": 34963
  },
  {
   "buffer": 0,
   "byteLength": 7560,
   "byteOffset": 2076872,
   "target": 34962
  },
  {
   "buffer": 0,
   "byteLength": 7560,
   "byteOffset": 2084432,
   "target": 34962
  },
  {
   "buffer": 0,
   "byteLength": 5040,
   "byteOffset": 2091992,
   "target": 34962
  },
  {
   "buffer": 0,
   "byteLength": 3048,
   "byteOffset": 2097032,
   "target": 34963
  },
  {
   "buffer": 0,
   "byteLength": 34560,
   "byteOffset": 2100080,
   "target": 34962
  },
  {
   "buffer": 0,
   "byteLength": 34560,
   "byteOffset": 2134640,
   "target": 34962
  },
  {
   "buffer": 0,
   "byteLength": 23040,
   "byteOffset": 2169200,
   "target": 34962
  },
  {
   "buffer": 0,
   "byteLength": 11880,
   "byteOffset": 2192240,
   "target": 34963
  },
  {
   "buffer": 0,
   "byteLength": 10416,
   "byteOffset": 2204120,
   "target": 34962
  },
  {
   "buffer": 0,
   "byteLength": 10416,
   "byteOffset": 2214536,
   "target": 34962
  },
  {
   "buffer": 0,
   "byteLength": 6944,
   "byteOffset": 2224952,
   "target": 34962
  },
  {
   "buffer": 0,
   "byteLength": 2808,
   "byteOffset": 2231896,
   "target": 34963
  },
  {
   "buffer": 0,
   "byteLength": 288,
   "byteOffset": 2234704,
   "target": 34962
  },
  {
   "buffer": 0,
   "byteLength": 288,
   "byteOffset": 2234992,
   "target": 34962
  },
  {
   "buffer": 0,
   "byteLength": 192,
   "byteOffset": 2235280,
   "target": 34962
  },
  {
   "buffer": 0,
   "byteLength": 72,
   "byteOffset": 2235472,
   "target": 34963
  },
  {
   "buffer": 0,
   "byteLength": 288,
   "byteOffset": 2235544,
   "target": 34962
  },
  {
   "buffer": 0,
   "byteLength": 288,
   "byteOffset": 2235832,
   "target": 34962
  },
  {
   "buffer": 0,
   "byteLength": 192,
   "byteOffset": 2236120,
   "target": 34962
  },
  {
   "buffer": 0,
   "byteLength": 288,
   "byteOffset": 2236312,
   "target": 34962
  },
  {
   "buffer": 0,
   "byteLength": 288,
   "byteOffset": 2236600,
   "target": 34962
  },
  {
   "buffer": 0,
   "byteLength": 192,
   "byteOffset": 2236888,
   "target": 34962
  },
  {
   "buffer": 0,
   "byteLength": 288,
   "byteOffset": 2237080,
   "target": 34962
  },
  {
   "buffer": 0,
   "byteLength": 288,
   "byteOffset": 2237368,
   "target": 34962
  },
  {
   "buffer": 0,
   "byteLength": 192,
   "byteOffset": 2237656,
   "target": 34962
  },
  {
   "buffer": 0,
   "byteLength": 288,
   "byteOffset": 2237848,
   "target": 34962
  },
  {
   "buffer": 0,
   "byteLength": 288,
   "byteOffset": 2238136,
   "target": 34962
  },
  {
   "buffer": 0,
   "byteLength": 192,
   "byteOffset": 2238424,
   "target": 34962
  },
  {
   "buffer": 0,
   "byteLength": 288,
   "byteOffset": 2238616,
   "target": 34962
  },
  {
   "buffer": 0,
   "byteLength": 288,
   "byteOffset": 2238904,
   "target": 34962
  },
  {
   "buffer": 0,
   "byteLength": 192,
   "byteOffset": 2239192,
   "target": 34962
  },
  {
   "buffer": 0,
   "byteLength": 288,
   "byteOffset": 2239384,
   "target": 34962
  },
  {
   "buffer": 0,
   "byteLength": 288,
   "byteOffset": 2239672,
   "target": 34962
  },
  {
   "buffer": 0,
   "byteLength": 192,
   "byteOffset": 2239960,
   "target": 34962
  },
  {
   "buffer": 0,
   "byteLength": 288,
   "byteOffset": 2240152,
   "target": 34962
  },
  {
   "buffer": 0,
   "byteLength": 288,
   "byteOffset": 2240440,
   "target": 34962
  },
  {
   "buffer": 0,
   "byteLength": 192,
   "byteOffset": 2240728,
   "target": 34962
  },
  {
   "buffer": 0,
   "byteLength": 288,
   "byteOffset": 2240920,
   "target": 34962
  },
  {
   "buffer": 0,
   "byteLength": 288,
   "byteOffset": 2241208,
   "target": 34962
  },
  {
   "buffer": 0,
   "byteLength": 192,
   "byteOffset": 2241496,
   "target": 34962
  },
  {
   "buffer": 0,
   "byteLength": 288,
   "byteOffset": 2241688,
   "target": 34962
  },
  {
   "buffer": 0,
   "byteLength": 288,
   "byteOffset": 2241976,
   "target": 34962
  },
  {
   "buffer": 0,
   "byteLength": 192,
   "byteOffset": 2242264,
   "target": 34962
  },
  {
   "buffer": 0,
   "byteLength": 288,
   "byteOffset": 2242456,
   "target": 34962
  },
  {
   "buffer": 0,
   "byteLength": 288,
   "byteOffset": 2242744,
   "target": 34962
  },
  {
   "buffer": 0,
   "byteLength": 192,
   "byteOffset": 2243032,
   "target": 34962
  },
  {
   "buffer": 0,
   "byteLength": 288,
   "byteOffset": 2243224,
   "target": 34962
  },
  {
   "buffer": 0,
   "byteLength": 288,
   "byteOffset": 2243512,
   "target": 34962
  },
  {
   "buffer": 0,
   "byteLength": 192,
   "byteOffset": 2243800,
   "target": 34962
  },
  {
   "buffer": 0,
   "byteLength": 288,
   "byteOffset": 2243992,
   "target": 34962
  },
  {
   "buffer": 0,
   "byteLength": 288,
   "byteOffset": 2244280,
   "target": 34962
  },
  {
   "buffer": 0,
   "byteLength": 192,
   "byteOffset": 2244568,
   "target": 34962
  },
  {
   "buffer": 0,
   "byteLength": 288,
   "byteOffset": 2244760,
   "target": 34962
  },
  {
   "buffer": 0,
   "byteLength": 288,
   "byteOffset": 2245048,
   "target": 34962
  },
  {
   "buffer": 0,
   "byteLength": 192,
   "byteOffset": 2245336,
   "target": 34962
  },
  {
   "buffer": 0,
   "byteLength": 288,
   "byteOffset": 2245528,
   "target": 34962
  },
  {
   "buffer": 0,
   "byteLength": 288,
   "byteOffset": 2245816,
   "target": 34962
  },
  {
   "buffer": 0,
   "byteLength": 192,
   "byteOffset": 2246104,
   "target": 34962
  },
  {
   "buffer": 0,
   "byteLength": 288,
   "byteOffset": 2246296,
   "target": 34962
  },
  {
   "buffer": 0,
   "byteLength": 288,
   "byteOffset": 2246584,
   "target": 34962
  },
  {
   "buffer": 0,
   "byteLength": 192,
   "byteOffset": 2246872,
   "target": 34962
  },
  {
   "buffer": 0,
   "byteLength": 288,
   "byteOffset": 2247064,
   "target": 34962
  },
  {
   "buffer": 0,
   "byteLength": 288,
   "byteOffset": 2247352,
   "target": 34962
  },
  {
   "buffer": 0,
   "byteLength": 192,
   "byteOffset": 2247640,
   "target": 34962
  },
  {
   "buffer": 0,
   "byteLength": 288,
   "byteOffset": 2247832,
   "target": 34962
  },
  {
   "buffer": 0,
   "byteLength": 288,
   "byteOffset": 2248120,
   "target": 34962
  },
  {
   "buffer": 0,
   "byteLength": 192,
   "byteOffset": 2248408,
   "target": 34962
  },
  {
   "buffer": 0,
   "byteLength": 288,
   "byteOffset": 2248600,
   "target": 34962
  },
  {
   "buffer": 0,
   "byteLength": 288,
   "byteOffset": 2248888,
   "target": 34962
  },
  {
   "buffer": 0,
   "byteLength": 192,
   "byteOffset": 2249176,
   "target": 34962
  },
  {
   "buffer": 0,
   "byteLength": 288,
   "byteOffset": 2249368,
   "target": 34962
  },
  {
   "buffer": 0,
   "byteLength": 288,
   "byteOffset": 2249656,
   "target": 34962
  },
  {
   "buffer": 0,
   "byteLength": 192,
   "byteOffset": 2249944,
   "target": 34962
  },
  {
   "buffer": 0,
   "byteLength": 288,
   "byteOffset": 2250136,
   "target": 34962
  },
  {
   "buffer": 0,
   "byteLength": 288,
   "byteOffset": 2250424,
   "target": 34962
  },
  {
   "buffer": 0,
   "byteLength": 192,
   "byteOffset": 2250712,
   "target": 34962
  },
  {
   "buffer": 0,
   "byteLength": 288,
   "byteOffset": 2250904,
   "target": 34962
  },
  {
   "buffer": 0,
   "byteLength": 288,
   "byteOffset": 2251192,
   "target": 34962
  },
  {
   "buffer": 0,
   "byteLength": 192,
   "byteOffset": 2251480,
   "target": 34962
  },
  {
   "buffer": 0,
   "byteLength": 288,
   "byteOffset": 2251672,
   "target": 34962
  },
  {
   "buffer": 0,
   "byteLength": 288,
   "byteOffset": 2251960,
   "target": 34962
  },
  {
   "buffer": 0,
   "byteLength": 192,
   "byteOffset": 2252248,
   "target": 34962
  },
  {
   "buffer": 0,
   "byteLength": 288,
   "byteOffset": 2252440,
   "target": 34962
  },
  {
   "buffer": 0,
   "byteLength": 288,
   "byteOffset": 2252728,
   "target": 34962
  },
  {
   "buffer": 0,
   "byteLength": 192,
   "byteOffset": 2253016,
   "target": 34962
  },
  {
   "buffer": 0,
   "byteLength": 288,
   "byteOffset": 2253208,
   "target": 34962
  },
  {
   "buffer": 0,
   "byteLength": 288,
   "byteOffset": 2253496,
   "target": 34962
  },
  {
   "buffer": 0,
   "byteLength": 192,
   "byteOffset": 2253784,
   "target": 34962
  },
  {
   "buffer": 0,
   "byteLength": 288,
   "byteOffset": 2253976,
   "target": 34962
  },
  {
   "buffer": 0,
   "byteLength": 288,
   "byteOffset": 2254264,
   "target": 34962
  },
  {
   "buffer": 0,
   "byteLength": 192,
   "byteOffset": 2254552,
   "target": 34962
  },
  {
   "buffer": 0,
   "byteLength": 288,
   "byteOffset": 2254744,
   "target": 34962
  },
  {
   "buffer": 0,
   "byteLength": 288,
   "byteOffset": 2255032,
   "target": 34962
  },
  {
   "buffer": 0,
   "byteLength": 192,
   "byteOffset": 2255320,
   "target": 34962
  },
  {
   "buffer": 0,
   "byteLength": 288,
   "byteOffset": 2255512,
   "target": 34962
  },
  {
   "buffer": 0,
   "byteLength": 288,
   "byteOffset": 2255800,
   "target": 34962
  },
  {
   "buffer": 0,
   "byteLength": 192,
   "byteOffset": 2256088,
   "target": 34962
  },
  {
   "buffer": 0,
   "byteLength": 288,
   "byteOffset": 2256280,
   "target": 34962
  },
  {
   "buffer": 0,
   "byteLength": 288,
   "byteOffset": 2256568,
   "target": 34962
  },
  {
   "buffer": 0,
   "byteLength": 192,
   "byteOffset": 2256856,
   "target": 34962
  },
  {
   "buffer": 0,
   "byteLength": 288,
   "byteOffset": 2257048,
   "target": 34962
  },
  {
   "buffer": 0,
   "byteLength": 288,
   "byteOffset": 2257336,
   "target": 34962
  },
  {
   "buffer": 0,
   "byteLength": 192,
   "byteOffset": 2257624,
   "target": 34962
  },
  {
   "buffer": 0,
   "byteLength": 288,
   "byteOffset": 2257816,
   "target": 34962
  },
  {
   "buffer": 0,
   "byteLength": 288,
   "byteOffset": 2258104,
   "target": 34962
  },
  {
   "buffer": 0,
   "byteLength": 192,
   "byteOffset": 2258392,
   "target": 34962
  },
  {
   "buffer": 0,
   "byteLength": 288,
   "byteOffset": 2258584,
   "target": 34962
  },
  {
   "buffer": 0,
   "byteLength": 288,
   "byteOffset": 2258872,
   "target": 34962
  },
  {
   "buffer": 0,
   "byteLength": 192,
   "byteOffset": 2259160,
   "target": 34962
  },
  {
   "buffer": 0,
   "byteLength": 288,
   "byteOffset": 2259352,
   "target": 34962
  },
  {
   "buffer": 0,
   "byteLength": 288,
   "byteOffset": 2259640,
   "target": 34962
  },
  {
   "buffer": 0,
   "byteLength": 192,
   "byteOffset": 2259928,
   "target": 34962
  },
  {
   "buffer": 0,
   "byteLength": 288,
   "byteOffset": 2260120,
   "target": 34962
  },
  {
   "buffer": 0,
   "byteLength": 288,
   "byteOffset": 2260408,
   "target": 34962
  },
  {
   "buffer": 0,
   "byteLength": 192,
   "byteOffset": 2260696,
   "target": 34962
  },
  {
   "buffer": 0,
   "byteLength": 288,
   "byteOffset": 2260888,
   "target": 34962
  },
  {
   "buffer": 0,
   "byteLength": 288,
   "byteOffset": 2261176,
   "target": 34962
  },
  {
   "buffer": 0,
   "byteLength": 192,
   "byteOffset": 2261464,
   "target": 34962
  },
  {
   "buffer": 0,
   "byteLength": 288,
   "byteOffset": 2261656,
   "target": 34962
  },
  {
   "buffer": 0,
   "byteLength": 288,
   "byteOffset": 2261944,
   "target": 34962
  },
  {
   "buffer": 0,
   "byteLength": 192,
   "byteOffset": 2262232,
   "target": 34962
  },
  {
   "buffer": 0,
   "byteLength": 288,
   "byteOffset": 2262424,
   "target": 34962
  },
  {
   "buffer": 0,
   "byteLength": 288,
   "byteOffset": 2262712,
   "target": 34962
  },
  {
   "buffer": 0,
   "byteLength": 192,
   "byteOffset": 2263000,
   "target": 34962
  },
  {
   "buffer": 0,
   "byteLength": 288,
   "byteOffset": 2263192,
   "target": 34962
  },
  {
   "buffer": 0,
   "byteLength": 288,
   "byteOffset": 2263480,
   "target": 34962
  },
  {
   "buffer": 0,
   "byteLength": 192,
   "byteOffset": 2263768,
   "target": 34962
  }
 ],
 "samplers": [
  {
   "magFilter": 9729,
   "minFilter": 9987
  }
 ],
 "buffers": [
  {
   "byteLength": 2263960,
   "uri": "train_coach.bin"
  }
 ],
 "extensionsUsed": [
  "KHR_materials_emissive_strength"
 ]
}