{
 "asset": {
  "generator": "zero point flora",
  "version": "2.0"
 },
 "scene": 0,
 "scenes": [
  {
   "name": "Scene",
   "nodes": [
    0,
    1
   ]
  }
 ],
 "nodes": [
  {
   "mesh": 0,
   "name": "trunk"
  },
  {
   "mesh": 1,
   "name": "foliage"
  }
 ],
 "materials": [
  {
   "name": "bark",
   "doubleSided": false,
   "pbrMetallicRoughness": {
    "baseColorTexture": {
     "index": 0
    },
    "metallicRoughnessTexture": {
     "index": 2
    },
    "metallicFactor": 0.0,
    "roughnessFactor": 1.0
   },
   "normalTexture": {
    "index": 1
   },
   "occlusionTexture": {
    "index": 2
   }
  },
  {
   "name": "leaf",
   "doubleSided": true,
   "pbrMetallicRoughness": {
    "baseColorTexture": {
     "index": 3
    },
    "metallicRoughnessTexture": {
     "index": 5
    },
    "metallicFactor": 0.0,
    "roughnessFactor": 1.0
   },
   "normalTexture": {
    "index": 4
   },
   "occlusionTexture": {
    "index": 5
   },
   "alphaMode": "MASK",
   "alphaCutoff": 0.5
  }
 ],
 "meshes": [
  {
   "name": "flora_birch_2_shadow_bark",
   "primitives": [
    {
     "attributes": {
      "POSITION": 0,
      "NORMAL": 1,
      "TEXCOORD_0": 2
     },
     "indices": 3,
     "material": 0
    }
   ]
  },
  {
   "name": "flora_birch_2_shadow_foliage",
   "primitives": [
    {
     "attributes": {
      "POSITION": 4,
      "NORMAL": 5,
      "TEXCOORD_0": 6
     },
     "indices": 7,
     "material": 1
    }
   ]
  }
 ],
 "textures": [
  {
   "sampler": 0,
   "source": 0
  },
  {
   "sampler": 0,
   "source": 1
  },
  {
   "sampler": 0,
   "source": 2
  },
  {
   "sampler": 0,
   "source": 3
  },
  {
   "sampler": 0,
   "source": 4
  },
  {
   "sampler": 0,
   "source": 5
  }
 ],
 "images": [
  {
   "mimeType": "image/png",
   "name": "flora_birch_bark_diff_2k.png",
   "uri": "../flora_birch_0/flora_birch_bark_diff_2k.png"
  },
  {
   "mimeType": "image/png",
   "name": "flora_birch_bark_nor_gl_2k.png",
   "uri": "../flora_birch_0/flora_birch_bark_nor_gl_2k.png"
  },
  {
   "mimeType": "image/png",
   "name": "flora_birch_bark_arm_2k.png",
   "uri": "../flora_birch_0/flora_birch_bark_arm_2k.png"
  },
  {
   "mimeType": "image/png",
   "name": "flora_birch_leaf_diff_2k.png",
   "uri": "../flora_birch_0/flora_birch_leaf_diff_2k.png"
  },
  {
   "mimeType": "image/png",
   "name": "flora_birch_leaf_nor_gl_2k.png",
   "uri": "../flora_birch_0/flora_birch_leaf_nor_gl_2k.png"
  },
  {
   "mimeType": "image/png",
   "name": "flora_birch_leaf_arm_2k.png",
   "uri": "../flora_birch_0/flora_birch_leaf_arm_2k.png"
  }
 ],
 "accessors": [
  {
   "bufferView": 0,
   "componentType": 5126,
   "count": 346,
   "max": [
    1.3561384677886963,
    8.855640411376953,
    1.5767465829849243
   ],
   "min": [
    -1.084649682044983,
    -0.5541593432426453,
    -1.3736658096313477
   ],
   "type": "VEC3"
  },
  {
   "bufferView": 1,
   "componentType": 5126,
   "count": 346,
   "type": "VEC3"
  },
  {
   "bufferView": 2,
   "componentType": 5126,
   "count": 346,
   "type": "VEC2"
  },
  {
   "bufferView": 3,
   "componentType": 5123,
   "count": 864,
   "type": "SCALAR"
  },
  {
   "bufferView": 4,
   "componentType": 5126,
   "count": 652,
   "max": [
    3.1266889572143555,
    9.601675987243652,
    3.653879165649414
   ],
   "min": [
    -2.524151086807251,
    2.6702613830566406,
    -1.8683838844299316
   ],
   "type": "VEC3"
  },
  {
   "bufferView": 5,
   "componentType": 5126,
   "count": 652,
   "type": "VEC3"
  },
  {
   "bufferView": 6,
   "componentType": 5126,
   "count": 652,
   "type": "VEC2"
  },
  {
   "bufferView": 7,
   "componentType": 5123,
   "count": 978,
   "type": "SCALAR"
  }
 ],
 "bufferViews": [
  {
   "buffer": 0,
   "byteLength": 4152,
   "byteOffset": 0,
   "target": 34962
  },
  {
   "buffer": 0,
   "byteLength": 4152,
   "byteOffset": 4152,
   "target": 34962
  },
  {
   "buffer": 0,
   "byteLength": 2768,
   "byteOffset": 8304,
   "target": 34962
  },
  {
   "buffer": 0,
   "byteLength": 1728,
   "byteOffset": 11072,
   "target": 34963
  },
  {
   "buffer": 0,
   "byteLength": 7824,
   "byteOffset": 12800,
   "target": 34962
  },
  {
   "buffer": 0,
   "byteLength": 7824,
   "byteOffset": 20624,
   "target": 34962
  },
  {
   "buffer": 0,
   "byteLength": 5216,
   "byteOffset": 28448,
   "target": 34962
  },
  {
   "buffer": 0,
   "byteLength": 1956,
   "byteOffset": 33664,
   "target": 34963
  }
 ],
 "samplers": [
  {
   "magFilter": 9729,
   "minFilter": 9987,
   "wrapS": 10497,
   "wrapT": 10497
  }
 ],
 "buffers": [
  {
   "byteLength": 35620,
   "uri": "flora_birch_2_shadow.bin"
  }
 ]
}