{
 "asset": {
  "generator": "Khronos glTF Blender I/O v4.5.51",
  "version": "2.0"
 },
 "scene": 0,
 "scenes": [
  {
   "name": "Scene",
   "nodes": [
    0,
    1
   ]
  }
 ],
 "nodes": [
  {
   "mesh": 0,
   "name": "trunk"
  },
  {
   "mesh": 1,
   "name": "foliage"
  }
 ],
 "materials": [
  {
   "doubleSided": true,
   "name": "bark",
   "normalTexture": {
    "index": 0
   },
   "pbrMetallicRoughness": {
    "baseColorTexture": {
     "index": 1
    },
    "metallicFactor": 0,
    "roughnessFactor": 0.8500000238418579
   }
  },
  {
   "doubleSided": true,
   "name": "spray",
   "normalTexture": {
    "index": 2
   },
   "pbrMetallicRoughness": {
    "baseColorTexture": {
     "index": 3
    },
    "metallicFactor": 0,
    "roughnessFactor": 0.6200000047683716
   },
   "alphaMode": "MASK",
   "alphaCutoff": 0.5
  }
 ],
 "meshes": [
  {
   "name": "conifer_fir_3_bark",
   "primitives": [
    {
     "attributes": {
      "POSITION": 0,
      "NORMAL": 1,
      "TEXCOORD_0": 2
     },
     "indices": 3,
     "material": 0
    }
   ]
  },
  {
   "name": "conifer_fir_3_foliage",
   "primitives": [
    {
     "attributes": {
      "POSITION": 4,
      "NORMAL": 5,
      "TEXCOORD_0": 6
     },
     "indices": 7,
     "material": 1
    }
   ]
  }
 ],
 "textures": [
  {
   "sampler": 0,
   "source": 0
  },
  {
   "sampler": 0,
   "source": 1
  },
  {
   "sampler": 0,
   "source": 2
  },
  {
   "sampler": 0,
   "source": 3
  }
 ],
 "images": [
  {
   "mimeType": "image/jpeg",
   "name": "fir_tree_01_bark_nor_gl_2k.jpg",
   "uri": "../../../source/trees/fir_tree_01/fir_tree_01_bark_nor_gl_2k.jpg"
  },
  {
   "mimeType": "image/jpeg",
   "name": "fir_tree_01_bark_diff_2k.jpg",
   "uri": "../../../source/trees/fir_tree_01/fir_tree_01_bark_diff_2k.jpg"
  },
  {
   "mimeType": "image/png",
   "name": "conifer_spray_nor_gl_2k.png",
   "uri": "../../../source/trees/conifer_spray/conifer_spray_nor_gl_2k.png"
  },
  {
   "mimeType": "image/png",
   "name": "conifer_spray_diff_2k.png",
   "uri": "../../../source/trees/conifer_spray/conifer_spray_diff_2k.png"
  }
 ],
 "accessors": [
  {
   "bufferView": 0,
   "componentType": 5126,
   "count": 10787,
   "max": [
    3.1246743202209473,
    14.094648361206055,
    3.232921600341797
   ],
   "min": [
    -3.4478771686553955,
    -0.6000000238418579,
    -3.2903318405151367
   ],
   "type": "VEC3"
  },
  {
   "bufferView": 1,
   "componentType": 5126,
   "count": 10787,
   "type": "VEC3"
  },
  {
   "bufferView": 2,
   "componentType": 5126,
   "count": 10787,
   "type": "VEC2"
  },
  {
   "bufferView": 3,
   "componentType": 5123,
   "count": 42168,
   "type": "SCALAR"
  },
  {
   "bufferView": 4,
   "componentType": 5126,
   "count": 34986,
   "max": [
    3.5866734981536865,
    14.179238319396973,
    3.6420955657958984
   ],
   "min": [
    -3.9400670528411865,
    0.6004780530929565,
    -3.6610445976257324
   ],
   "type": "VEC3"
  },
  {
   "bufferView": 5,
   "componentType": 5126,
   "count": 34986,
   "type": "VEC3"
  },
  {
   "bufferView": 6,
   "componentType": 5126,
   "count": 34986,
   "type": "VEC2"
  },
  {
   "bufferView": 7,
   "componentType": 5123,
   "count": 69972,
   "type": "SCALAR"
  }
 ],
 "bufferViews": [
  {
   "buffer": 0,
   "byteLength": 129444,
   "byteOffset": 0,
   "target": 34962
  },
  {
   "buffer": 0,
   "byteLength": 129444,
   "byteOffset": 129444,
   "target": 34962
  },
  {
   "buffer": 0,
   "byteLength": 86296,
   "byteOffset": 258888,
   "target": 34962
  },
  {
   "buffer": 0,
   "byteLength": 84336,
   "byteOffset": 345184,
   "target": 34963
  },
  {
   "buffer": 0,
   "byteLength": 419832,
   "byteOffset": 429520,
   "target": 34962
  },
  {
   "buffer": 0,
   "byteLength": 419832,
   "byteOffset": 849352,
   "target": 34962
  },
  {
   "buffer": 0,
   "byteLength": 279888,
   "byteOffset": 1269184,
   "target": 34962
  },
  {
   "buffer": 0,
   "byteLength": 139944,
   "byteOffset": 1549072,
   "target": 34963
  }
 ],
 "samplers": [
  {
   "magFilter": 9729,
   "minFilter": 9987
  }
 ],
 "buffers": [
  {
   "byteLength": 1689016,
   "uri": "conifer_fir_3.bin"
  }
 ]
}