{
 "asset": {
  "generator": "Khronos glTF Blender I/O v4.5.51",
  "version": "2.0"
 },
 "scene": 0,
 "scenes": [
  {
   "name": "Scene",
   "nodes": [
    0,
    1,
    2,
    3,
    4,
    5,
    6,
    7,
    8,
    9,
    10,
    11,
    12,
    13,
    14,
    15,
    16,
    17,
    18,
    19,
    20,
    21,
    22,
    23,
    24,
    25,
    26,
    27,
    28,
    29,
    30,
    31,
    32,
    33,
    34,
    35,
    36,
    37,
    38,
    39,
    40,
    41,
    42,
    43,
    44,
    45,
    46,
    47,
    48,
    49,
    50,
    51,
    52,
    53,
    54,
    55,
    56,
    57,
    58,
    59,
    60,
    61
   ]
  }
 ],
 "nodes": [
  {
   "mesh": 0,
   "name": "ruin_shell"
  },
  {
   "mesh": 1,
   "name": "ruin_timbers"
  },
  {
   "mesh": 2,
   "name": "ruin_floors"
  },
  {
   "mesh": 3,
   "name": "ruin_clutter"
  },
  {
   "mesh": 4,
   "name": "ruin_debris"
  },
  {
   "mesh": 5,
   "name": "ruin_plants"
  },
  {
   "mesh": 6,
   "name": "col_rock_front_1"
  },
  {
   "mesh": 7,
   "name": "col_rock_front_2"
  },
  {
   "mesh": 8,
   "name": "col_rock_front_3"
  },
  {
   "mesh": 9,
   "name": "col_rock_front_4"
  },
  {
   "mesh": 10,
   "name": "col_rock_front_5"
  },
  {
   "mesh": 11,
   "name": "col_rock_front_6"
  },
  {
   "mesh": 12,
   "name": "col_rock_front_7"
  },
  {
   "mesh": 13,
   "name": "col_rock_front_8"
  },
  {
   "mesh": 14,
   "name": "col_rock_front_9"
  },
  {
   "mesh": 15,
   "name": "col_rock_front_10"
  },
  {
   "mesh": 16,
   "name": "col_rock_left_1"
  },
  {
   "mesh": 17,
   "name": "col_rock_left_2"
  },
  {
   "mesh": 18,
   "name": "col_rock_left_3"
  },
  {
   "mesh": 19,
   "name": "col_rock_left_4"
  },
  {
   "mesh": 20,
   "name": "col_rock_left_5"
  },
  {
   "mesh": 21,
   "name": "col_rock_left_6"
  },
  {
   "mesh": 22,
   "name": "col_rock_left_7"
  },
  {
   "mesh": 23,
   "name": "col_rock_left_8"
  },
  {
   "mesh": 24,
   "name": "col_rock_left_9"
  },
  {
   "mesh": 25,
   "name": "col_rock_left_10"
  },
  {
   "mesh": 26,
   "name": "col_rock_left_11"
  },
  {
   "mesh": 27,
   "name": "col_rock_left_12"
  },
  {
   "mesh": 28,
   "name": "col_rock_right_1"
  },
  {
   "mesh": 29,
   "name": "col_rock_right_2"
  },
  {
   "mesh": 30,
   "name": "col_rock_right_3"
  },
  {
   "mesh": 31,
   "name": "col_rock_right_4"
  },
  {
   "mesh": 32,
   "name": "col_rock_right_5"
  },
  {
   "mesh": 33,
   "name": "col_rock_right_6"
  },
  {
   "mesh": 34,
   "name": "col_rock_right_7"
  },
  {
   "mesh": 35,
   "name": "col_rock_back_1"
  },
  {
   "mesh": 36,
   "name": "col_rock_back_2"
  },
  {
   "mesh": 37,
   "name": "col_rock_back_3"
  },
  {
   "mesh": 38,
   "name": "col_rock_back_4"
  },
  {
   "mesh": 39,
   "name": "col_rock_back_5"
  },
  {
   "mesh": 40,
   "name": "col_rock_back_6"
  },
  {
   "mesh": 41,
   "name": "col_rock_back_7"
  },
  {
   "mesh": 42,
   "name": "col_rock_back_8"
  },
  {
   "mesh": 43,
   "name": "col_rock_back_9"
  },
  {
   "mesh": 44,
   "name": "col_rock_back_10"
  },
  {
   "mesh": 45,
   "name": "col_rock_breast_1"
  },
  {
   "mesh": 46,
   "name": "col_rock_breast_2"
  },
  {
   "mesh": 47,
   "name": "col_rock_breast_3"
  },
  {
   "mesh": 48,
   "name": "light_fire_1"
  },
  {
   "mesh": 49,
   "name": "col_dirt_floor_1"
  },
  {
   "mesh": 50,
   "name": "ramp_nx_wood_beam_1"
  },
  {
   "mesh": 51,
   "name": "ramp_ny_rock_roof_1"
  },
  {
   "mesh": 52,
   "name": "col_rock_rubble_1"
  },
  {
   "mesh": 53,
   "name": "col_rock_rubble_2"
  },
  {
   "mesh": 54,
   "name": "col_rock_rubble_3"
  },
  {
   "mesh": 55,
   "name": "col_rock_rubble_4"
  },
  {
   "mesh": 56,
   "name": "col_rock_rubble_5"
  },
  {
   "mesh": 57,
   "name": "col_rock_rubble_6"
  },
  {
   "mesh": 58,
   "name": "col_metal_bed_1"
  },
  {
   "mesh": 59,
   "name": "loot_toolbox_1"
  },
  {
   "mesh": 60,
   "name": "loot_military_1"
  },
  {
   "mesh": 61,
   "name": "loot_box_1"
  }
 ],
 "materials": [
  {
   "name": "granite_rubble",
   "normalTexture": {
    "index": 0
   },
   "occlusionTexture": {
    "index": 1
   },
   "pbrMetallicRoughness": {
    "baseColorTexture": {
     "index": 2
    },
    "metallicRoughnessTexture": {
     "index": 1
    }
   }
  },
  {
   "name": "granite_ashlar",
   "normalTexture": {
    "index": 3
   },
   "occlusionTexture": {
    "index": 4
   },
   "pbrMetallicRoughness": {
    "baseColorTexture": {
     "index": 5
    },
    "metallicRoughnessTexture": {
     "index": 4
    }
   }
  },
  {
   "name": "granite_rubble_damp",
   "normalTexture": {
    "index": 6
   },
   "occlusionTexture": {
    "index": 7
   },
   "pbrMetallicRoughness": {
    "baseColorTexture": {
     "index": 8
    },
    "metallicRoughnessTexture": {
     "index": 7
    }
   }
  },
  {
   "name": "soot",
   "normalTexture": {
    "index": 9
   },
   "occlusionTexture": {
    "index": 10
   },
   "pbrMetallicRoughness": {
    "baseColorTexture": {
     "index": 11
    },
    "metallicRoughnessTexture": {
     "index": 10
    }
   }
  },
  {
   "name": "timber_charred",
   "normalTexture": {
    "index": 12
   },
   "occlusionTexture": {
    "index": 13
   },
   "pbrMetallicRoughness": {
    "baseColorTexture": {
     "index": 14
    },
    "metallicRoughnessTexture": {
     "index": 13
    }
   }
  },
  {
   "name": "slate_roof",
   "normalTexture": {
    "index": 15
   },
   "occlusionTexture": {
    "index": 16
   },
   "pbrMetallicRoughness": {
    "baseColorTexture": {
     "index": 17
    },
    "metallicRoughnessTexture": {
     "index": 16
    }
   }
  },
  {
   "name": "roof_moss",
   "normalTexture": {
    "index": 18
   },
   "occlusionTexture": {
    "index": 19
   },
   "pbrMetallicRoughness": {
    "baseColorTexture": {
     "index": 20
    },
    "metallicRoughnessTexture": {
     "index": 19
    }
   }
  },
  {
   "name": "dirt_debris",
   "normalTexture": {
    "index": 21
   },
   "occlusionTexture": {
    "index": 22
   },
   "pbrMetallicRoughness": {
    "baseColorTexture": {
     "index": 23
    },
    "metallicRoughnessTexture": {
     "index": 22
    }
   }
  },
  {
   "name": "rusty_metal",
   "normalTexture": {
    "index": 24
   },
   "occlusionTexture": {
    "index": 25
   },
   "pbrMetallicRoughness": {
    "baseColorTexture": {
     "index": 26
    },
    "metallicRoughnessTexture": {
     "index": 25
    }
   }
  },
  {
   "name": "glass_dirty",
   "normalTexture": {
    "index": 27
   },
   "occlusionTexture": {
    "index": 28
   },
   "pbrMetallicRoughness": {
    "baseColorTexture": {
     "index": 29
    },
    "metallicRoughnessTexture": {
     "index": 28
    }
   }
  },
  {
   "doubleSided": true,
   "name": "fabric_worn",
   "normalTexture": {
    "index": 30
   },
   "occlusionTexture": {
    "index": 31
   },
   "pbrMetallicRoughness": {
    "baseColorTexture": {
     "index": 32
    },
    "metallicRoughnessTexture": {
     "index": 31
    }
   }
  },
  {
   "doubleSided": true,
   "name": "foliage",
   "normalTexture": {
    "index": 33
   },
   "occlusionTexture": {
    "index": 34
   },
   "pbrMetallicRoughness": {
    "baseColorTexture": {
     "index": 35
    },
    "metallicRoughnessTexture": {
     "index": 34
    }
   }
  },
  {
   "name": "timber_beam",
   "normalTexture": {
    "index": 36
   },
   "occlusionTexture": {
    "index": 37
   },
   "pbrMetallicRoughness": {
    "baseColorTexture": {
     "index": 38
    },
    "metallicRoughnessTexture": {
     "index": 37
    }
   }
  },
  {
   "name": "timber_planks_weathered",
   "normalTexture": {
    "index": 39
   },
   "occlusionTexture": {
    "index": 40
   },
   "pbrMetallicRoughness": {
    "baseColorTexture": {
     "index": 41
    },
    "metallicRoughnessTexture": {
     "index": 40
    }
   }
  }
 ],
 "meshes": [
  {
   "name": "ruin_shell",
   "primitives": [
    {
     "attributes": {
      "POSITION": 0,
      "NORMAL": 1,
      "TEXCOORD_0": 2
     },
     "indices": 3,
     "material": 0
    },
    {
     "attributes": {
      "POSITION": 4,
      "NORMAL": 5,
      "TEXCOORD_0": 6
     },
     "indices": 7,
     "material": 1
    },
    {
     "attributes": {
      "POSITION": 8,
      "NORMAL": 9,
      "TEXCOORD_0": 10
     },
     "indices": 11,
     "material": 2
    },
    {
     "attributes": {
      "POSITION": 12,
      "NORMAL": 13,
      "TEXCOORD_0": 14
     },
     "indices": 15,
     "material": 3
    }
   ]
  },
  {
   "name": "ruin_timbers",
   "primitives": [
    {
     "attributes": {
      "POSITION": 16,
      "NORMAL": 17,
      "TEXCOORD_0": 18
     },
     "indices": 19,
     "material": 4
    },
    {
     "attributes": {
      "POSITION": 20,
      "NORMAL": 21,
      "TEXCOORD_0": 22
     },
     "indices": 23,
     "material": 5
    },
    {
     "attributes": {
      "POSITION": 24,
      "NORMAL": 25,
      "TEXCOORD_0": 26
     },
     "indices": 27,
     "material": 6
    }
   ]
  },
  {
   "name": "ruin_floors",
   "primitives": [
    {
     "attributes": {
      "POSITION": 28,
      "NORMAL": 29,
      "TEXCOORD_0": 30
     },
     "indices": 31,
     "material": 7
    },
    {
     "attributes": {
      "POSITION": 32,
      "NORMAL": 33,
      "TEXCOORD_0": 34
     },
     "indices": 35,
     "material": 1
    }
   ]
  },
  {
   "name": "ruin_clutter",
   "primitives": [
    {
     "attributes": {
      "POSITION": 36,
      "NORMAL": 37,
      "TEXCOORD_0": 38
     },
     "indices": 39,
     "material": 0
    },
    {
     "attributes": {
      "POSITION": 40,
      "NORMAL": 41,
      "TEXCOORD_0": 42
     },
     "indices": 43,
     "material": 3
    },
    {
     "attributes": {
      "POSITION": 44,
      "NORMAL": 45,
      "TEXCOORD_0": 46
     },
     "indices": 47,
     "material": 4
    },
    {
     "attributes": {
      "POSITION": 48,
      "NORMAL": 49,
      "TEXCOORD_0": 50
     },
     "indices": 51,
     "material": 8
    },
    {
     "attributes": {
      "POSITION": 52,
      "NORMAL": 53,
      "TEXCOORD_0": 54
     },
     "indices": 55,
     "material": 9
    },
    {
     "attributes": {
      "POSITION": 56,
      "NORMAL": 57,
      "TEXCOORD_0": 58
     },
     "indices": 59,
     "material": 10
    }
   ]
  },
  {
   "name": "ruin_debris",
   "primitives": [
    {
     "attributes": {
      "POSITION": 60,
      "NORMAL": 61,
      "TEXCOORD_0": 62
     },
     "indices": 63,
     "material": 1
    },
    {
     "attributes": {
      "POSITION": 64,
      "NORMAL": 65,
      "TEXCOORD_0": 66
     },
     "indices": 67,
     "material": 0
    },
    {
     "attributes": {
      "POSITION": 68,
      "NORMAL": 69,
      "TEXCOORD_0": 70
     },
     "indices": 71,
     "material": 3
    },
    {
     "attributes": {
      "POSITION": 72,
      "NORMAL": 73,
      "TEXCOORD_0": 74
     },
     "indices": 75,
     "material": 4
    },
    {
     "attributes": {
      "POSITION": 76,
      "NORMAL": 77,
      "TEXCOORD_0": 78
     },
     "indices": 79,
     "material": 5
    },
    {
     "attributes": {
      "POSITION": 80,
      "NORMAL": 81,
      "TEXCOORD_0": 82
     },
     "indices": 83,
     "material": 7
    }
   ]
  },
  {
   "name": "ruin_plants",
   "primitives": [
    {
     "attributes": {
      "POSITION": 84,
      "NORMAL": 85,
      "TEXCOORD_0": 86
     },
     "indices": 87,
     "material": 6
    },
    {
     "attributes": {
      "POSITION": 88,
      "NORMAL": 89,
      "TEXCOORD_0": 90
     },
     "indices": 91,
     "material": 11
    },
    {
     "attributes": {
      "POSITION": 92,
      "NORMAL": 93,
      "TEXCOORD_0": 94
     },
     "indices": 95,
     "material": 12
    },
    {
     "attributes": {
      "POSITION": 96,
      "NORMAL": 97,
      "TEXCOORD_0": 98
     },
     "indices": 99,
     "material": 13
    }
   ]
  },
  {
   "name": "col_rock_front_1",
   "primitives": [
    {
     "attributes": {
      "POSITION": 100,
      "NORMAL": 101,
      "TEXCOORD_0": 102
     },
     "indices": 103,
     "material": 0
    }
   ]
  },
  {
   "name": "col_rock_front_2",
   "primitives": [
    {
     "attributes": {
      "POSITION": 104,
      "NORMAL": 105,
      "TEXCOORD_0": 106
     },
     "indices": 103,
     "material": 0
    }
   ]
  },
  {
   "name": "col_rock_front_3",
   "primitives": [
    {
     "attributes": {
      "POSITION": 107,
      "NORMAL": 108,
      "TEXCOORD_0": 109
     },
     "indices": 103,
     "material": 0
    }
   ]
  },
  {
   "name": "col_rock_front_4",
   "primitives": [
    {
     "attributes": {
      "POSITION": 110,
      "NORMAL": 111,
      "TEXCOORD_0": 112
     },
     "indices": 103,
     "material": 0
    }
   ]
  },
  {
   "name": "col_rock_front_5",
   "primitives": [
    {
     "attributes": {
      "POSITION": 113,
      "NORMAL": 114,
      "TEXCOORD_0": 115
     },
     "indices": 103,
     "material": 0
    }
   ]
  },
  {
   "name": "col_rock_front_6",
   "primitives": [
    {
     "attributes": {
      "POSITION": 116,
      "NORMAL": 117,
      "TEXCOORD_0": 118
     },
     "indices": 103,
     "material": 0
    }
   ]
  },
  {
   "name": "col_rock_front_7",
   "primitives": [
    {
     "attributes": {
      "POSITION": 119,
      "NORMAL": 120,
      "TEXCOORD_0": 121
     },
     "indices": 103,
     "material": 0
    }
   ]
  },
  {
   "name": "col_rock_front_8",
   "primitives": [
    {
     "attributes": {
      "POSITION": 122,
      "NORMAL": 123,
      "TEXCOORD_0": 124
     },
     "indices": 103,
     "material": 0
    }
   ]
  },
  {
   "name": "col_rock_front_9",
   "primitives": [
    {
     "attributes": {
      "POSITION": 125,
      "NORMAL": 126,
      "TEXCOORD_0": 127
     },
     "indices": 103,
     "material": 0
    }
   ]
  },
  {
   "name": "col_rock_front_10",
   "primitives": [
    {
     "attributes": {
      "POSITION": 128,
      "NORMAL": 129,
      "TEXCOORD_0": 130
     },
     "indices": 103,
     "material": 0
    }
   ]
  },
  {
   "name": "col_rock_left_1",
   "primitives": [
    {
     "attributes": {
      "POSITION": 131,
      "NORMAL": 132,
      "TEXCOORD_0": 133
     },
     "indices": 103,
     "material": 0
    }
   ]
  },
  {
   "name": "col_rock_left_2",
   "primitives": [
    {
     "attributes": {
      "POSITION": 134,
      "NORMAL": 135,
      "TEXCOORD_0": 136
     },
     "indices": 103,
     "material": 0
    }
   ]
  },
  {
   "name": "col_rock_left_3",
   "primitives": [
    {
     "attributes": {
      "POSITION": 137,
      "NORMAL": 138,
      "TEXCOORD_0": 139
     },
     "indices": 103,
     "material": 0
    }
   ]
  },
  {
   "name": "col_rock_left_4",
   "primitives": [
    {
     "attributes": {
      "POSITION": 140,
      "NORMAL": 141,
      "TEXCOORD_0": 142
     },
     "indices": 103,
     "material": 0
    }
   ]
  },
  {
   "name": "col_rock_left_5",
   "primitives": [
    {
     "attributes": {
      "POSITION": 143,
      "NORMAL": 144,
      "TEXCOORD_0": 145
     },
     "indices": 103,
     "material": 0
    }
   ]
  },
  {
   "name": "col_rock_left_6",
   "primitives": [
    {
     "attributes": {
      "POSITION": 146,
      "NORMAL": 147,
      "TEXCOORD_0": 148
     },
     "indices": 103,
     "material": 0
    }
   ]
  },
  {
   "name": "col_rock_left_7",
   "primitives": [
    {
     "attributes": {
      "POSITION": 149,
      "NORMAL": 150,
      "TEXCOORD_0": 151
     },
     "indices": 103,
     "material": 0
    }
   ]
  },
  {
   "name": "col_rock_left_8",
   "primitives": [
    {
     "attributes": {
      "POSITION": 152,
      "NORMAL": 153,
      "TEXCOORD_0": 154
     },
     "indices": 103,
     "material": 0
    }
   ]
  },
  {
   "name": "col_rock_left_9",
   "primitives": [
    {
     "attributes": {
      "POSITION": 155,
      "NORMAL": 156,
      "TEXCOORD_0": 157
     },
     "indices": 103,
     "material": 0
    }
   ]
  },
  {
   "name": "col_rock_left_10",
   "primitives": [
    {
     "attributes": {
      "POSITION": 158,
      "NORMAL": 159,
      "TEXCOORD_0": 160
     },
     "indices": 103,
     "material": 0
    }
   ]
  },
  {
   "name": "col_rock_left_11",
   "primitives": [
    {
     "attributes": {
      "POSITION": 161,
      "NORMAL": 162,
      "TEXCOORD_0": 163
     },
     "indices": 103,
     "material": 0
    }
   ]
  },
  {
   "name": "col_rock_left_12",
   "primitives": [
    {
     "attributes": {
      "POSITION": 164,
      "NORMAL": 165,
      "TEXCOORD_0": 166
     },
     "indices": 103,
     "material": 0
    }
   ]
  },
  {
   "name": "col_rock_right_1",
   "primitives": [
    {
     "attributes": {
      "POSITION": 167,
      "NORMAL": 168,
      "TEXCOORD_0": 169
     },
     "indices": 103,
     "material": 0
    }
   ]
  },
  {
   "name": "col_rock_right_2",
   "primitives": [
    {
     "attributes": {
      "POSITION": 170,
      "NORMAL": 171,
      "TEXCOORD_0": 172
     },
     "indices": 103,
     "material": 0
    }
   ]
  },
  {
   "name": "col_rock_right_3",
   "primitives": [
    {
     "attributes": {
      "POSITION": 173,
      "NORMAL": 174,
      "TEXCOORD_0": 175
     },
     "indices": 103,
     "material": 0
    }
   ]
  },
  {
   "name": "col_rock_right_4",
   "primitives": [
    {
     "attributes": {
      "POSITION": 176,
      "NORMAL": 177,
      "TEXCOORD_0": 178
     },
     "indices": 103,
     "material": 0
    }
   ]
  },
  {
   "name": "col_rock_right_5",
   "primitives": [
    {
     "attributes": {
      "POSITION": 179,
      "NORMAL": 180,
      "TEXCOORD_0": 181
     },
     "indices": 103,
     "material": 0
    }
   ]
  },
  {
   "name": "col_rock_right_6",
   "primitives": [
    {
     "attributes": {
      "POSITION": 182,
      "NORMAL": 183,
      "TEXCOORD_0": 184
     },
     "indices": 103,
     "material": 0
    }
   ]
  },
  {
   "name": "col_rock_right_7",
   "primitives": [
    {
     "attributes": {
      "POSITION": 185,
      "NORMAL": 186,
      "TEXCOORD_0": 187
     },
     "indices": 103,
     "material": 0
    }
   ]
  },
  {
   "name": "col_rock_back_1",
   "primitives": [
    {
     "attributes": {
      "POSITION": 188,
      "NORMAL": 189,
      "TEXCOORD_0": 190
     },
     "indices": 103,
     "material": 0
    }
   ]
  },
  {
   "name": "col_rock_back_2",
   "primitives": [
    {
     "attributes": {
      "POSITION": 191,
      "NORMAL": 192,
      "TEXCOORD_0": 193
     },
     "indices": 103,
     "material": 0
    }
   ]
  },
  {
   "name": "col_rock_back_3",
   "primitives": [
    {
     "attributes": {
      "POSITION": 194,
      "NORMAL": 195,
      "TEXCOORD_0": 196
     },
     "indices": 103,
     "material": 0
    }
   ]
  },
  {
   "name": "col_rock_back_4",
   "primitives": [
    {
     "attributes": {
      "POSITION": 197,
      "NORMAL": 198,
      "TEXCOORD_0": 199
     },
     "indices": 103,
     "material": 0
    }
   ]
  },
  {
   "name": "col_rock_back_5",
   "primitives": [
    {
     "attributes": {
      "POSITION": 200,
      "NORMAL": 201,
      "TEXCOORD_0": 202
     },
     "indices": 103,
     "material": 0
    }
   ]
  },
  {
   "name": "col_rock_back_6",
   "primitives": [
    {
     "attributes": {
      "POSITION": 203,
      "NORMAL": 204,
      "TEXCOORD_0": 205
     },
     "indices": 103,
     "material": 0
    }
   ]
  },
  {
   "name": "col_rock_back_7",
   "primitives": [
    {
     "attributes": {
      "POSITION": 206,
      "NORMAL": 207,
      "TEXCOORD_0": 208
     },
     "indices": 103,
     "material": 0
    }
   ]
  },
  {
   "name": "col_rock_back_8",
   "primitives": [
    {
     "attributes": {
      "POSITION": 209,
      "NORMAL": 210,
      "TEXCOORD_0": 211
     },
     "indices": 103,
     "material": 0
    }
   ]
  },
  {
   "name": "col_rock_back_9",
   "primitives": [
    {
     "attributes": {
      "POSITION": 212,
      "NORMAL": 213,
      "TEXCOORD_0": 214
     },
     "indices": 103,
     "material": 0
    }
   ]
  },
  {
   "name": "col_rock_back_10",
   "primitives": [
    {
     "attributes": {
      "POSITION": 215,
      "NORMAL": 216,
      "TEXCOORD_0": 217
     },
     "indices": 103,
     "material": 0
    }
   ]
  },
  {
   "name": "col_rock_breast_1",
   "primitives": [
    {
     "attributes": {
      "POSITION": 218,
      "NORMAL": 219,
      "TEXCOORD_0": 220
     },
     "indices": 103,
     "material": 0
    }
   ]
  },
  {
   "name": "col_rock_breast_2",
   "primitives": [
    {
     "attributes": {
      "POSITION": 221,
      "NORMAL": 222,
      "TEXCOORD_0": 223
     },
     "indices": 103,
     "material": 0
    }
   ]
  },
  {
   "name": "col_rock_breast_3",
   "primitives": [
    {
     "attributes": {
      "POSITION": 224,
      "NORMAL": 225,
      "TEXCOORD_0": 226
     },
     "indices": 103,
     "material": 0
    }
   ]
  },
  {
   "name": "light_fire_1",
   "primitives": [
    {
     "attributes": {
      "POSITION": 227,
      "NORMAL": 228,
      "TEXCOORD_0": 229
     },
     "indices": 103,
     "material": 0
    }
   ]
  },
  {
   "name": "col_dirt_floor_1",
   "primitives": [
    {
     "attributes": {
      "POSITION": 230,
      "NORMAL": 231,
      "TEXCOORD_0": 232
     },
     "indices": 103,
     "material": 0
    }
   ]
  },
  {
   "name": "ramp_nx_wood_beam_1",
   "primitives": [
    {
     "attributes": {
      "POSITION": 233,
      "NORMAL": 234,
      "TEXCOORD_0": 235
     },
     "indices": 103,
     "material": 0
    }
   ]
  },
  {
   "name": "ramp_ny_rock_roof_1",
   "primitives": [
    {
     "attributes": {
      "POSITION": 236,
      "NORMAL": 237,
      "TEXCOORD_0": 238
     },
     "indices": 103,
     "material": 0
    }
   ]
  },
  {
   "name": "col_rock_rubble_1",
   "primitives": [
    {
     "attributes": {
      "POSITION": 239,
      "NORMAL": 240,
      "TEXCOORD_0": 241
     },
     "indices": 103,
     "material": 0
    }
   ]
  },
  {
   "name": "col_rock_rubble_2",
   "primitives": [
    {
     "attributes": {
      "POSITION": 242,
      "NORMAL": 243,
      "TEXCOORD_0": 244
     },
     "indices": 103,
     "material": 0
    }
   ]
  },
  {
   "name": "col_rock_rubble_3",
   "primitives": [
    {
     "attributes": {
      "POSITION": 245,
      "NORMAL": 246,
      "TEXCOORD_0": 247
     },
     "indices": 103,
     "material": 0
    }
   ]
  },
  {
   "name": "col_rock_rubble_4",
   "primitives": [
    {
     "attributes": {
      "POSITION": 248,
      "NORMAL": 249,
      "TEXCOORD_0": 250
     },
     "indices": 103,
     "material": 0
    }
   ]
  },
  {
   "name": "col_rock_rubble_5",
   "primitives": [
    {
     "attributes": {
      "POSITION": 251,
      "NORMAL": 252,
      "TEXCOORD_0": 253
     },
     "indices": 103,
     "material": 0
    }
   ]
  },
  {
   "name": "col_rock_rubble_6",
   "primitives": [
    {
     "attributes": {
      "POSITION": 254,
      "NORMAL": 255,
      "TEXCOORD_0": 256
     },
     "indices": 103,
     "material": 0
    }
   ]
  },
  {
   "name": "col_metal_bed_1",
   "primitives": [
    {
     "attributes": {
      "POSITION": 257,
      "NORMAL": 258,
      "TEXCOORD_0": 259
     },
     "indices": 103,
     "material": 0
    }
   ]
  },
  {
   "name": "loot_toolbox_1",
   "primitives": [
    {
     "attributes": {
      "POSITION": 260,
      "NORMAL": 261,
      "TEXCOORD_0": 262
     },
     "indices": 103,
     "material": 0
    }
   ]
  },
  {
   "name": "loot_military_1",
   "primitives": [
    {
     "attributes": {
      "POSITION": 263,
      "NORMAL": 264,
      "TEXCOORD_0": 265
     },
     "indices": 103,
     "material": 0
    }
   ]
  },
  {
   "name": "loot_box_1",
   "primitives": [
    {
     "attributes": {
      "POSITION": 266,
      "NORMAL": 267,
      "TEXCOORD_0": 268
     },
     "indices": 103,
     "material": 0
    }
   ]
  }
 ],
 "textures": [
  {
   "sampler": 0,
   "source": 0
  },
  {
   "sampler": 0,
   "source": 1
  },
  {
   "sampler": 0,
   "source": 2
  },
  {
   "sampler": 0,
   "source": 3
  },
  {
   "sampler": 0,
   "source": 4
  },
  {
   "sampler": 0,
   "source": 5
  },
  {
   "sampler": 0,
   "source": 6
  },
  {
   "sampler": 0,
   "source": 7
  },
  {
   "sampler": 0,
   "source": 8
  },
  {
   "sampler": 0,
   "source": 9
  },
  {
   "sampler": 0,
   "source": 10
  },
  {
   "sampler": 0,
   "source": 11
  },
  {
   "sampler": 0,
   "source": 12
  },
  {
   "sampler": 0,
   "source": 13
  },
  {
   "sampler": 0,
   "source": 14
  },
  {
   "sampler": 0,
   "source": 15
  },
  {
   "sampler": 0,
   "source": 16
  },
  {
   "sampler": 0,
   "source": 17
  },
  {
   "sampler": 0,
   "source": 18
  },
  {
   "sampler": 0,
   "source": 19
  },
  {
   "sampler": 0,
   "source": 20
  },
  {
   "sampler": 0,
   "source": 21
  },
  {
   "sampler": 0,
   "source": 22
  },
  {
   "sampler": 0,
   "source": 23
  },
  {
   "sampler": 0,
   "source": 24
  },
  {
   "sampler": 0,
   "source": 25
  },
  {
   "sampler": 0,
   "source": 26
  },
  {
   "sampler": 0,
   "source": 27
  },
  {
   "sampler": 0,
   "source": 28
  },
  {
   "sampler": 0,
   "source": 29
  },
  {
   "sampler": 0,
   "source": 30
  },
  {
   "sampler": 0,
   "source": 31
  },
  {
   "sampler": 0,
   "source": 32
  },
  {
   "sampler": 0,
   "source": 33
  },
  {
   "sampler": 0,
   "source": 34
  },
  {
   "sampler": 0,
   "source": 35
  },
  {
   "sampler": 0,
   "source": 36
  },
  {
   "sampler": 0,
   "source": 37
  },
  {
   "sampler": 0,
   "source": 38
  },
  {
   "sampler": 0,
   "source": 39
  },
  {
   "sampler": 0,
   "source": 40
  },
  {
   "sampler": 0,
   "source": 41
  }
 ],
 "images": [
  {
   "mimeType": "image/png",
   "name": "granite_rubble_normal.png",
   "uri": "../_library/granite_rubble_normal.png"
  },
  {
   "mimeType": "image/png",
   "name": "granite_rubble_orm.png",
   "uri": "../_library/granite_rubble_orm.png"
  },
  {
   "mimeType": "image/png",
   "name": "granite_rubble_albedo.png",
   "uri": "../_library/granite_rubble_albedo.png"
  },
  {
   "mimeType": "image/png",
   "name": "granite_ashlar_normal.png",
   "uri": "../_library/granite_ashlar_normal.png"
  },
  {
   "mimeType": "image/png",
   "name": "granite_ashlar_orm.png",
   "uri": "../_library/granite_ashlar_orm.png"
  },
  {
   "mimeType": "image/png",
   "name": "granite_ashlar_albedo.png",
   "uri": "../_library/granite_ashlar_albedo.png"
  },
  {
   "mimeType": "image/png",
   "name": "granite_rubble_damp_normal.png",
   "uri": "../_library/granite_rubble_damp_normal.png"
  },
  {
   "mimeType": "image/png",
   "name": "granite_rubble_damp_orm.png",
   "uri": "../_library/granite_rubble_damp_orm.png"
  },
  {
   "mimeType": "image/png",
   "name": "granite_rubble_damp_albedo.png",
   "uri": "../_library/granite_rubble_damp_albedo.png"
  },
  {
   "mimeType": "image/png",
   "name": "soot_normal.png",
   "uri": "../_library/soot_normal.png"
  },
  {
   "mimeType": "image/png",
   "name": "soot_orm.png",
   "uri": "../_library/soot_orm.png"
  },
  {
   "mimeType": "image/png",
   "name": "soot_albedo.png",
   "uri": "../_library/soot_albedo.png"
  },
  {
   "mimeType": "image/png",
   "name": "timber_charred_normal.png",
   "uri": "../_library/timber_charred_normal.png"
  },
  {
   "mimeType": "image/png",
   "name": "timber_charred_orm.png",
   "uri": "../_library/timber_charred_orm.png"
  },
  {
   "mimeType": "image/png",
   "name": "timber_charred_albedo.png",
   "uri": "../_library/timber_charred_albedo.png"
  },
  {
   "mimeType": "image/png",
   "name": "slate_roof_normal.png",
   "uri": "../_library/slate_roof_normal.png"
  },
  {
   "mimeType": "image/png",
   "name": "slate_roof_orm.png",
   "uri": "../_library/slate_roof_orm.png"
  },
  {
   "mimeType": "image/png",
   "name": "slate_roof_albedo.png",
   "uri": "../_library/slate_roof_albedo.png"
  },
  {
   "mimeType": "image/png",
   "name": "roof_moss_normal.png",
   "uri": "../_library/roof_moss_normal.png"
  },
  {
   "mimeType": "image/png",
   "name": "roof_moss_orm.png",
   "uri": "../_library/roof_moss_orm.png"
  },
  {
   "mimeType": "image/png",
   "name": "roof_moss_albedo.png",
   "uri": "../_library/roof_moss_albedo.png"
  },
  {
   "mimeType": "image/png",
   "name": "dirt_debris_normal.png",
   "uri": "../_library/dirt_debris_normal.png"
  },
  {
   "mimeType": "image/png",
   "name": "dirt_debris_orm.png",
   "uri": "../_library/dirt_debris_orm.png"
  },
  {
   "mimeType": "image/png",
   "name": "dirt_debris_albedo.png",
   "uri": "../_library/dirt_debris_albedo.png"
  },
  {
   "mimeType": "image/png",
   "name": "rusty_metal_normal.png",
   "uri": "../_library/rusty_metal_normal.png"
  },
  {
   "mimeType": "image/png",
   "name": "rusty_metal_orm.png",
   "uri": "../_library/rusty_metal_orm.png"
  },
  {
   "mimeType": "image/png",
   "name": "rusty_metal_albedo.png",
   "uri": "../_library/rusty_metal_albedo.png"
  },
  {
   "mimeType": "image/png",
   "name": "glass_dirty_normal.png",
   "uri": "../_library/glass_dirty_normal.png"
  },
  {
   "mimeType": "image/png",
   "name": "glass_dirty_orm.png",
   "uri": "../_library/glass_dirty_orm.png"
  },
  {
   "mimeType": "image/png",
   "name": "glass_dirty_albedo.png",
   "uri": "../_library/glass_dirty_albedo.png"
  },
  {
   "mimeType": "image/png",
   "name": "fabric_worn_normal.png",
   "uri": "../_library/fabric_worn_normal.png"
  },
  {
   "mimeType": "image/png",
   "name": "fabric_worn_orm.png",
   "uri": "../_library/fabric_worn_orm.png"
  },
  {
   "mimeType": "image/png",
   "name": "fabric_worn_albedo.png",
   "uri": "../_library/fabric_worn_albedo.png"
  },
  {
   "mimeType": "image/png",
   "name": "foliage_normal.png",
   "uri": "../_library/foliage_normal.png"
  },
  {
   "mimeType": "image/png",
   "name": "foliage_orm.png",
   "uri": "../_library/foliage_orm.png"
  },
  {
   "mimeType": "image/png",
   "name": "foliage_albedo.png",
   "uri": "../_library/foliage_albedo.png"
  },
  {
   "mimeType": "image/png",
   "name": "timber_beam_normal.png",
   "uri": "../_library/timber_beam_normal.png"
  },
  {
   "mimeType": "image/png",
   "name": "timber_beam_orm.png",
   "uri": "../_library/timber_beam_orm.png"
  },
  {
   "mimeType": "image/png",
   "name": "timber_beam_albedo.png",
   "uri": "../_library/timber_beam_albedo.png"
  },
  {
   "mimeType": "image/png",
   "name": "timber_planks_weathered_normal.png",
   "uri": "../_library/timber_planks_weathered_normal.png"
  },
  {
   "mimeType": "image/png",
   "name": "timber_planks_weathered_orm.png",
   "uri": "../_library/timber_planks_weathered_orm.png"
  },
  {
   "mimeType": "image/png",
   "name": "timber_planks_weathered_albedo.png",
   "uri": "../_library/timber_planks_weathered_albedo.png"
  }
 ],
 "accessors": [
  {
   "bufferView": 0,
   "componentType": 5126,
   "count": 1024,
   "max": [
    4,
    5.25,
    2.75
   ],
   "min": [
    -4,
    -1.5,
    -2.75
   ],
   "type": "VEC3"
  },
  {
   "bufferView": 1,
   "componentType": 5126,
   "count": 1024,
   "type": "VEC3"
  },
  {
   "bufferView": 2,
   "componentType": 5126,
   "count": 1024,
   "type": "VEC2"
  },
  {
   "bufferView": 3,
   "componentType": 5123,
   "count": 2052,
   "type": "SCALAR"
  },
  {
   "bufferView": 4,
   "componentType": 5126,
   "count": 5760,
   "max": [
    4.031298637390137,
    2.5940001010894775,
    2.9700000286102295
   ],
   "min": [
    -4.0323967933654785,
    -0.2939999997615814,
    -2.809999942779541
   ],
   "type": "VEC3"
  },
  {
   "bufferView": 5,
   "componentType": 5126,
   "count": 5760,
   "type": "VEC3"
  },
  {
   "bufferView": 6,
   "componentType": 5126,
   "count": 5760,
   "type": "VEC2"
  },
  {
   "bufferView": 7,
   "componentType": 5123,
   "count": 7920,
   "type": "SCALAR"
  },
  {
   "bufferView": 8,
   "componentType": 5126,
   "count": 362,
   "max": [
    4.002999782562256,
    0.6940451264381409,
    2.753000020980835
   ],
   "min": [
    -4.002999782562256,
    -0.20000000298023224,
    -2.753000020980835
   ],
   "type": "VEC3"
  },
  {
   "bufferView": 9,
   "componentType": 5126,
   "count": 362,
   "type": "VEC3"
  },
  {
   "bufferView": 10,
   "componentType": 5126,
   "count": 362,
   "type": "VEC2"
  },
  {
   "bufferView": 11,
   "componentType": 5123,
   "count": 942,
   "type": "SCALAR"
  },
  {
   "bufferView": 12,
   "componentType": 5126,
   "count": 96,
   "max": [
    -2.9000000953674316,
    1.2400000095367432,
    0.7200000286102295
   ],
   "min": [
    -3.4000000953674316,
    0,
    -0.7200000286102295
   ],
   "type": "VEC3"
  },
  {
   "bufferView": 13,
   "componentType": 5126,
   "count": 96,
   "type": "VEC3"
  },
  {
   "bufferView": 14,
   "componentType": 5126,
   "count": 96,
   "type": "VEC2"
  },
  {
   "bufferView": 15,
   "componentType": 5123,
   "count": 144,
   "type": "SCALAR"
  },
  {
   "bufferView": 16,
   "componentType": 5126,
   "count": 1872,
   "max": [
    3.0135107040405273,
    3.390625,
    2.6050000190734863
   ],
   "min": [
    -3.5743775367736816,
    -0.0014165602624416351,
    -2.3949999809265137
   ],
   "type": "VEC3"
  },
  {
   "bufferView": 17,
   "componentType": 5126,
   "count": 1872,
   "type": "VEC3"
  },
  {
   "bufferView": 18,
   "componentType": 5126,
   "count": 1872,
   "type": "VEC2"
  },
  {
   "bufferView": 19,
   "componentType": 5123,
   "count": 2616,
   "type": "SCALAR"
  },
  {
   "bufferView": 20,
   "componentType": 5126,
   "count": 291,
   "max": [
    -0.6592822074890137,
    1.8477429151535034,
    2.012359857559204
   ],
   "min": [
    -1.6196370124816895,
    0.12197475880384445,
    0.8344309329986572
   ],
   "type": "VEC3"
  },
  {
   "bufferView": 21,
   "componentType": 5126,
   "count": 291,
   "type": "VEC3"
  },
  {
   "bufferView": 22,
   "componentType": 5126,
   "count": 291,
   "type": "VEC2"
  },
  {
   "bufferView": 23,
   "componentType": 5123,
   "count": 441,
   "type": "SCALAR"
  },
  {
   "bufferView": 24,
   "componentType": 5126,
   "count": 147,
   "max": [
    -0.6594842672348022,
    1.8463997840881348,
    2.011453866958618
   ],
   "min": [
    -1.6199991703033447,
    0.2923295795917511,
    0.9415939450263977
   ],
   "type": "VEC3"
  },
  {
   "bufferView": 25,
   "componentType": 5126,
   "count": 147,
   "type": "VEC3"
  },
  {
   "bufferView": 26,
   "componentType": 5126,
   "count": 147,
   "type": "VEC2"
  },
  {
   "bufferView": 27,
   "componentType": 5123,
   "count": 225,
   "type": "SCALAR"
  },
  {
   "bufferView": 28,
   "componentType": 5126,
   "count": 1335,
   "max": [
    3.450000047683716,
    0.08593332022428513,
    2.5017151832580566
   ],
   "min": [
    -3.5092389583587646,
    -0.3499999940395355,
    -2.200000047683716
   ],
   "type": "VEC3"
  },
  {
   "bufferView": 29,
   "componentType": 5126,
   "count": 1335,
   "type": "VEC3"
  },
  {
   "bufferView": 30,
   "componentType": 5126,
   "count": 1335,
   "type": "VEC2"
  },
  {
   "bufferView": 31,
   "componentType": 5123,
   "count": 3912,
   "type": "SCALAR"
  },
  {
   "bufferView": 32,
   "componentType": 5126,
   "count": 1632,
   "max": [
    -0.806999921798706,
    0.0014789626002311707,
    1.4930000305175781
   ],
   "min": [
    -2.8930001258850098,
    -0.0718107521533966,
    -1.4930000305175781
   ],
   "type": "VEC3"
  },
  {
   "bufferView": 33,
   "componentType": 5126,
   "count": 1632,
   "type": "VEC3"
  },
  {
   "bufferView": 34,
   "componentType": 5126,
   "count": 1632,
   "type": "VEC2"
  },
  {
   "bufferView": 35,
   "componentType": 5123,
   "count": 2244,
   "type": "SCALAR"
  },
  {
   "bufferView": 36,
   "componentType": 5126,
   "count": 321,
   "max": [
    -0.9633582234382629,
    0.1319999247789383,
    0.2304619401693344
   ],
   "min": [
    -1.7299339771270752,
    -0.03175109997391701,
    -0.5492810606956482
   ],
   "type": "VEC3"
  },
  {
   "bufferView": 37,
   "componentType": 5126,
   "count": 321,
   "type": "VEC3"
  },
  {
   "bufferView": 38,
   "componentType": 5126,
   "count": 321,
   "type": "VEC2"
  },
  {
   "bufferView": 39,
   "componentType": 5123,
   "count": 540,
   "type": "SCALAR"
  },
  {
   "bufferView": 40,
   "componentType": 5126,
   "count": 79,
   "max": [
    -1.1006827354431152,
    0.05116017162799835,
    0.0836019366979599
   ],
   "min": [
    -1.619030237197876,
    0,
    -0.43888819217681885
   ],
   "type": "VEC3"
  },
  {
   "bufferView": 41,
   "componentType": 5126,
   "count": 79,
   "type": "VEC3"
  },
  {
   "bufferView": 42,
   "componentType": 5126,
   "count": 79,
   "type": "VEC2"
  },
  {
   "bufferView": 43,
   "componentType": 5123,
   "count": 240,
   "type": "SCALAR"
  },
  {
   "bufferView": 44,
   "componentType": 5126,
   "count": 144,
   "max": [
    -1.2441575527191162,
    0.14553576707839966,
    0.0013268813490867615
   ],
   "min": [
    -1.5743436813354492,
    0.03446423262357712,
    -0.3066293001174927
   ],
   "type": "VEC3"
  },
  {
   "bufferView": 45,
   "componentType": 5126,
   "count": 144,
   "type": "VEC3"
  },
  {
   "bufferView": 46,
   "componentType": 5126,
   "count": 144,
   "type": "VEC2"
  },
  {
   "bufferView": 47,
   "componentType": 5123,
   "count": 240,
   "type": "SCALAR"
  },
  {
   "bufferView": 48,
   "componentType": 5126,
   "count": 2300,
   "max": [
    2.475004196166992,
    1.2432557344436646,
    1.9804021120071411
   ],
   "min": [
    -1.9942739009857178,
    -0.0038336883299052715,
    -1.827418565750122
   ],
   "type": "VEC3"
  },
  {
   "bufferView": 49,
   "componentType": 5126,
   "count": 2300,
   "type": "VEC3"
  },
  {
   "bufferView": 50,
   "componentType": 5126,
   "count": 2300,
   "type": "VEC2"
  },
  {
   "bufferView": 51,
   "componentType": 5123,
   "count": 4536,
   "type": "SCALAR"
  },
  {
   "bufferView": 52,
   "componentType": 5126,
   "count": 595,
   "max": [
    -0.644986093044281,
    0.27727508544921875,
    0.6681612730026245
   ],
   "min": [
    -2.2739174365997314,
    -6.695601406647711e-09,
    -1.0608385801315308
   ],
   "type": "VEC3"
  },
  {
   "bufferView": 53,
   "componentType": 5126,
   "count": 595,
   "type": "VEC3"
  },
  {
   "bufferView": 54,
   "componentType": 5126,
   "count": 595,
   "type": "VEC2"
  },
  {
   "bufferView": 55,
   "componentType": 5123,
   "count": 2100,
   "type": "SCALAR"
  },
  {
   "bufferView": 56,
   "componentType": 5126,
   "count": 119,
   "max": [
    -2.8105411529541016,
    0.4798305034637451,
    -1.249865174293518
   ],
   "min": [
    -3.2762908935546875,
    0,
    -1.6469743251800537
   ],
   "type": "VEC3"
  },
  {
   "bufferView": 57,
   "componentType": 5126,
   "count": 119,
   "type": "VEC3"
  },
  {
   "bufferView": 58,
   "componentType": 5126,
   "count": 119,
   "type": "VEC2"
  },
  {
   "bufferView": 59,
   "componentType": 5123,
   "count": 300,
   "type": "SCALAR"
  },
  {
   "bufferView": 60,
   "componentType": 5126,
   "count": 5704,
   "max": [
    5.665956974029541,
    5.236037731170654,
    4.151871204376221
   ],
   "min": [
    -3.9996085166931152,
    -0.19067896902561188,
    -3.4244754314422607
   ],
   "type": "VEC3"
  },
  {
   "bufferView": 61,
   "componentType": 5126,
   "count": 5704,
   "type": "VEC3"
  },
  {
   "bufferView": 62,
   "componentType": 5126,
   "count": 5704,
   "type": "VEC2"
  },
  {
   "bufferView": 63,
   "componentType": 5123,
   "count": 8580,
   "type": "SCALAR"
  },
  {
   "bufferView": 64,
   "componentType": 5126,
   "count": 3279,
   "max": [
    5.567439079284668,
    5.219356060028076,
    3.7978622913360596
   ],
   "min": [
    -3.990273952484131,
    -0.13035616278648376,
    -2.933706045150757
   ],
   "type": "VEC3"
  },
  {
   "bufferView": 65,
   "componentType": 5126,
   "count": 3279,
   "type": "VEC3"
  },
  {
   "bufferView": 66,
   "componentType": 5126,
   "count": 3279,
   "type": "VEC2"
  },
  {
   "bufferView": 67,
   "componentType": 5123,
   "count": 4920,
   "type": "SCALAR"
  },
  {
   "bufferView": 68,
   "componentType": 5126,
   "count": 358,
   "max": [
    2.437805652618408,
    0.08165700733661652,
    1.9727600812911987
   ],
   "min": [
    -3.4198572635650635,
    -0.009999999776482582,
    -1.3542793989181519
   ],
   "type": "VEC3"
  },
  {
   "bufferView": 69,
   "componentType": 5126,
   "count": 358,
   "type": "VEC3"
  },
  {
   "bufferView": 70,
   "componentType": 5126,
   "count": 358,
   "type": "VEC2"
  },
  {
   "bufferView": 71,
   "componentType": 5123,
   "count": 840,
   "type": "SCALAR"
  },
  {
   "bufferView": 72,
   "componentType": 5126,
   "count": 384,
   "max": [
    2.564255475997925,
    0.12191653251647949,
    2.0578911304473877
   ],
   "min": [
    -2.6872689723968506,
    0.00013358984142541885,
    -1.45883309841156
   ],
   "type": "VEC3"
  },
  {
   "bufferView": 73,
   "componentType": 5126,
   "count": 384,
   "type": "VEC3"
  },
  {
   "bufferView": 74,
   "componentType": 5126,
   "count": 384,
   "type": "VEC2"
  },
  {
   "bufferView": 75,
   "componentType": 5123,
   "count": 576,
   "type": "SCALAR"
  },
  {
   "bufferView": 76,
   "componentType": 5126,
   "count": 3536,
   "max": [
    3.984804391860962,
    0.06064030900597572,
    3.863187551498413
   ],
   "min": [
    -4.768019199371338,
    -0.14783869683742523,
    -1.9302445650100708
   ],
   "type": "VEC3"
  },
  {
   "bufferView": 77,
   "componentType": 5126,
   "count": 3536,
   "type": "VEC3"
  },
  {
   "bufferView": 78,
   "componentType": 5126,
   "count": 3536,
   "type": "VEC2"
  },
  {
   "bufferView": 79,
   "componentType": 5123,
   "count": 6624,
   "type": "SCALAR"
  },
  {
   "bufferView": 80,
   "componentType": 5126,
   "count": 295,
   "max": [
    5.665453910827637,
    0.49869394302368164,
    4.042505264282227
   ],
   "min": [
    0.21678559482097626,
    -0.11999999731779099,
    -3.3482704162597656
   ],
   "type": "VEC3"
  },
  {
   "bufferView": 81,
   "componentType": 5126,
   "count": 295,
   "type": "VEC3"
  },
  {
   "bufferView": 82,
   "componentType": 5126,
   "count": 295,
   "type": "VEC2"
  },
  {
   "bufferView": 83,
   "componentType": 5123,
   "count": 960,
   "type": "SCALAR"
  },
  {
   "bufferView": 84,
   "componentType": 5126,
   "count": 641,
   "max": [
    4.048890113830566,
    5.156636714935303,
    2.785418748855591
   ],
   "min": [
    -3.9686498641967773,
    0.7631387710571289,
    -2.73822283744812
   ],
   "type": "VEC3"
  },
  {
   "bufferView": 85,
   "componentType": 5126,
   "count": 641,
   "type": "VEC3"
  },
  {
   "bufferView": 86,
   "componentType": 5126,
   "count": 641,
   "type": "VEC2"
  },
  {
   "bufferView": 87,
   "componentType": 5123,
   "count": 1260,
   "type": "SCALAR"
  },
  {
   "bufferView": 88,
   "componentType": 5126,
   "count": 50213,
   "max": [
    5.362254619598389,
    3.191969156265259,
    3.586805582046509
   ],
   "min": [
    -4.8272624015808105,
    -0.14008845388889313,
    -4.137994289398193
   ],
   "type": "VEC3"
  },
  {
   "bufferView": 89,
   "componentType": 5126,
   "count": 50213,
   "type": "VEC3"
  },
  {
   "bufferView": 90,
   "componentType": 5126,
   "count": 50213,
   "type": "VEC2"
  },
  {
   "bufferView": 91,
   "componentType": 5123,
   "count": 86043,
   "type": "SCALAR"
  },
  {
   "bufferView": 92,
   "componentType": 5126,
   "count": 5532,
   "max": [
    5.293659210205078,
    3.151099920272827,
    2.7912821769714355
   ],
   "min": [
    -4.041443824768066,
    -0.10599999874830246,
    -3.7442359924316406
   ],
   "type": "VEC3"
  },
  {
   "bufferView": 93,
   "componentType": 5126,
   "count": 5532,
   "type": "VEC3"
  },
  {
   "bufferView": 94,
   "componentType": 5126,
   "count": 5532,
   "type": "VEC2"
  },
  {
   "bufferView": 95,
   "componentType": 5123,
   "count": 14844,
   "type": "SCALAR"
  },
  {
   "bufferView": 96,
   "componentType": 5126,
   "count": 1014,
   "max": [
    2.295285940170288,
    3.1502320766448975,
    1.2973777055740356
   ],
   "min": [
    -0.6438401937484741,
    -0.15439076721668243,
    -3.9651284217834473
   ],
   "type": "VEC3"
  },
  {
   "bufferView": 97,
   "componentType": 5126,
   "count": 1014,
   "type": "VEC3"
  },
  {
   "bufferView": 98,
   "componentType": 5126,
   "count": 1014,
   "type": "VEC2"
  },
  {
   "bufferView": 99,
   "componentType": 5123,
   "count": 2244,
   "type": "SCALAR"
  },
  {
   "bufferView": 100,
   "componentType": 5126,
   "count": 24,
   "max": [
    -2.5999999046325684,
    2.5999999046325684,
    2.75
   ],
   "min": [
    -3.450000047683716,
    -1.5,
    2.200000047683716
   ],
   "type": "VEC3"
  },
  {
   "bufferView": 101,
   "componentType": 5126,
   "count": 24,
   "type": "VEC3"
  },
  {
   "bufferView": 102,
   "componentType": 5126,
   "count": 24,
   "type": "VEC2"
  },
  {
   "bufferView": 103,
   "componentType": 5123,
   "count": 36,
   "type": "SCALAR"
  },
  {
   "bufferView": 104,
   "componentType": 5126,
   "count": 24,
   "max": [
    -1.7000000476837158,
    0.8999999761581421,
    2.75
   ],
   "min": [
    -2.5999999046325684,
    -1.5,
    2.200000047683716
   ],
   "type": "VEC3"
  },
  {
   "bufferView": 105,
   "componentType": 5126,
   "count": 24,
   "type": "VEC3"
  },
  {
   "bufferView": 106,
   "componentType": 5126,
   "count": 24,
   "type": "VEC2"
  },
  {
   "bufferView": 107,
   "componentType": 5126,
   "count": 24,
   "max": [
    -1.7000000476837158,
    2.5,
    2.75
   ],
   "min": [
    -2.5999999046325684,
    1.899999976158142,
    2.200000047683716
   ],
   "type": "VEC3"
  },
  {
   "bufferView": 108,
   "componentType": 5126,
   "count": 24,
   "type": "VEC3"
  },
  {
   "bufferView": 109,
   "componentType": 5126,
   "count": 24,
   "type": "VEC2"
  },
  {
   "bufferView": 110,
   "componentType": 5126,
   "count": 24,
   "max": [
    -0.6502527594566345,
    2.327029228210449,
    2.75
   ],
   "min": [
    -1.7000000476837158,
    -1.5,
    2.200000047683716
   ],
   "type": "VEC3"
  },
  {
   "bufferView": 111,
   "componentType": 5126,
   "count": 24,
   "type": "VEC3"
  },
  {
   "bufferView": 112,
   "componentType": 5126,
   "count": 24,
   "type": "VEC2"
  },
  {
   "bufferView": 113,
   "componentType": 5126,
   "count": 24,
   "max": [
    0.5299999713897705,
    0,
    2.75
   ],
   "min": [
    -0.5299999713897705,
    -1.5,
    2.200000047683716
   ],
   "type": "VEC3"
  },
  {
   "bufferView": 114,
   "componentType": 5126,
   "count": 24,
   "type": "VEC3"
  },
  {
   "bufferView": 115,
   "componentType": 5126,
   "count": 24,
   "type": "VEC2"
  },
  {
   "bufferView": 116,
   "componentType": 5126,
   "count": 24,
   "max": [
    0.7876406908035278,
    2.0514261722564697,
    2.75
   ],
   "min": [
    0.5299999713897705,
    -1.5,
    2.200000047683716
   ],
   "type": "VEC3"
  },
  {
   "bufferView": 117,
   "componentType": 5126,
   "count": 24,
   "type": "VEC3"
  },
  {
   "bufferView": 118,
   "componentType": 5126,
   "count": 24,
   "type": "VEC2"
  },
  {
   "bufferView": 119,
   "componentType": 5126,
   "count": 24,
   "max": [
    1.6799999475479126,
    1.4450830221176147,
    2.75
   ],
   "min": [
    0.8476406931877136,
    -1.5,
    2.200000047683716
   ],
   "type": "VEC3"
  },
  {
   "bufferView": 120,
   "componentType": 5126,
   "count": 24,
   "type": "VEC3"
  },
  {
   "bufferView": 121,
   "componentType": 5126,
   "count": 24,
   "type": "VEC2"
  },
  {
   "bufferView": 122,
   "componentType": 5126,
   "count": 24,
   "max": [
    2.5999999046325684,
    0.949999988079071,
    2.75
   ],
   "min": [
    1.7000000476837158,
    -1.5,
    2.200000047683716
   ],
   "type": "VEC3"
  },
  {
   "bufferView": 123,
   "componentType": 5126,
   "count": 24,
   "type": "VEC3"
  },
  {
   "bufferView": 124,
   "componentType": 5126,
   "count": 24,
   "type": "VEC2"
  },
  {
   "bufferView": 125,
   "componentType": 5126,
   "count": 24,
   "max": [
    3.021469831466675,
    1.3109939098358154,
    2.75
   ],
   "min": [
    2.619999885559082,
    -1.5,
    2.200000047683716
   ],
   "type": "VEC3"
  },
  {
   "bufferView": 126,
   "componentType": 5126,
   "count": 24,
   "type": "VEC3"
  },
  {
   "bufferView": 127,
   "componentType": 5126,
   "count": 24,
   "type": "VEC2"
  },
  {
   "bufferView": 128,
   "componentType": 5126,
   "count": 24,
   "max": [
    3.450000047683716,
    1.67704439163208,
    2.75
   ],
   "min": [
    3.081469774246216,
    -1.5,
    2.200000047683716
   ],
   "type": "VEC3"
  },
  {
   "bufferView": 129,
   "componentType": 5126,
   "count": 24,
   "type": "VEC3"
  },
  {
   "bufferView": 130,
   "componentType": 5126,
   "count": 24,
   "type": "VEC2"
  },
  {
   "bufferView": 131,
   "componentType": 5126,
   "count": 24,
   "max": [
    -3.450000047683716,
    2.4741063117980957,
    -2.4994170665740967
   ],
   "min": [
    -4,
    -1.5,
    -2.75
   ],
   "type": "VEC3"
  },
  {
   "bufferView": 132,
   "componentType": 5126,
   "count": 24,
   "type": "VEC3"
  },
  {
   "bufferView": 133,
   "componentType": 5126,
   "count": 24,
   "type": "VEC2"
  },
  {
   "bufferView": 134,
   "componentType": 5126,
   "count": 24,
   "max": [
    -3.450000047683716,
    2.731642484664917,
    -1.901735782623291
   ],
   "min": [
    -4,
    -1.5,
    -2.4394171237945557
   ],
   "type": "VEC3"
  },
  {
   "bufferView": 135,
   "componentType": 5126,
   "count": 24,
   "type": "VEC3"
  },
  {
   "bufferView": 136,
   "componentType": 5126,
   "count": 24,
   "type": "VEC2"
  },
  {
   "bufferView": 137,
   "componentType": 5126,
   "count": 24,
   "max": [
    -3.450000047683716,
    3.018162727355957,
    -1.4318441152572632
   ],
   "min": [
    -4,
    -1.5,
    -1.8417357206344604
   ],
   "type": "VEC3"
  },
  {
   "bufferView": 138,
   "componentType": 5126,
   "count": 24,
   "type": "VEC3"
  },
  {
   "bufferView": 139,
   "componentType": 5126,
   "count": 24,
   "type": "VEC2"
  },
  {
   "bufferView": 140,
   "componentType": 5126,
   "count": 24,
   "max": [
    -3.450000047683716,
    3.5159449577331543,
    -1.0535504817962646
   ],
   "min": [
    -4,
    -1.5,
    -1.3718440532684326
   ],
   "type": "VEC3"
  },
  {
   "bufferView": 141,
   "componentType": 5126,
   "count": 24,
   "type": "VEC3"
  },
  {
   "bufferView": 142,
   "componentType": 5126,
   "count": 24,
   "type": "VEC2"
  },
  {
   "bufferView": 143,
   "componentType": 5126,
   "count": 24,
   "max": [
    -3.450000047683716,
    4.017044544219971,
    -0.8322290182113647
   ],
   "min": [
    -4,
    -1.5,
    -0.9935504198074341
   ],
   "type": "VEC3"
  },
  {
   "bufferView": 144,
   "componentType": 5126,
   "count": 24,
   "type": "VEC3"
  },
  {
   "bufferView": 145,
   "componentType": 5126,
   "count": 24,
   "type": "VEC2"
  },
  {
   "bufferView": 146,
   "componentType": 5126,
   "count": 24,
   "max": [
    -3.450000047683716,
    4.562077522277832,
    -0.550000011920929
   ],
   "min": [
    -4,
    -1.5,
    -0.7722290754318237
   ],
   "type": "VEC3"
  },
  {
   "bufferView": 147,
   "componentType": 5126,
   "count": 24,
   "type": "VEC3"
  },
  {
   "bufferView": 148,
   "componentType": 5126,
   "count": 24,
   "type": "VEC2"
  },
  {
   "bufferView": 149,
   "componentType": 5126,
   "count": 24,
   "max": [
    -3.450000047683716,
    5.099999904632568,
    0.550000011920929
   ],
   "min": [
    -4,
    -1.5,
    -0.550000011920929
   ],
   "type": "VEC3"
  },
  {
   "bufferView": 150,
   "componentType": 5126,
   "count": 24,
   "type": "VEC3"
  },
  {
   "bufferView": 151,
   "componentType": 5126,
   "count": 24,
   "type": "VEC2"
  },
  {
   "bufferView": 152,
   "componentType": 5126,
   "count": 24,
   "max": [
    -3.450000047683716,
    4.544573783874512,
    0.6886383295059204
   ],
   "min": [
    -4,
    -1.5,
    0.550000011920929
   ],
   "type": "VEC3"
  },
  {
   "bufferView": 153,
   "componentType": 5126,
   "count": 24,
   "type": "VEC3"
  },
  {
   "bufferView": 154,
   "componentType": 5126,
   "count": 24,
   "type": "VEC2"
  },
  {
   "bufferView": 155,
   "componentType": 5126,
   "count": 24,
   "max": [
    -3.450000047683716,
    4.27936315536499,
    0.941949725151062
   ],
   "min": [
    -4,
    -1.5,
    0.7486383318901062
   ],
   "type": "VEC3"
  },
  {
   "bufferView": 156,
   "componentType": 5126,
   "count": 24,
   "type": "VEC3"
  },
  {
   "bufferView": 157,
   "componentType": 5126,
   "count": 24,
   "type": "VEC2"
  },
  {
   "bufferView": 158,
   "componentType": 5126,
   "count": 24,
   "max": [
    -3.450000047683716,
    4.009990692138672,
    1.1469500064849854
   ],
   "min": [
    -4,
    -1.5,
    1.001949667930603
   ],
   "type": "VEC3"
  },
  {
   "bufferView": 159,
   "componentType": 5126,
   "count": 24,
   "type": "VEC3"
  },
  {
   "bufferView": 160,
   "componentType": 5126,
   "count": 24,
   "type": "VEC2"
  },
  {
   "bufferView": 161,
   "componentType": 5126,
   "count": 24,
   "max": [
    -3.450000047683716,
    3.5304179191589355,
    2.1854677200317383
   ],
   "min": [
    -4,
    -1.5,
    1.2069499492645264
   ],
   "type": "VEC3"
  },
  {
   "bufferView": 162,
   "componentType": 5126,
   "count": 24,
   "type": "VEC3"
  },
  {
   "bufferView": 163,
   "componentType": 5126,
   "count": 24,
   "type": "VEC2"
  },
  {
   "bufferView": 164,
   "componentType": 5126,
   "count": 24,
   "max": [
    -3.450000047683716,
    2.8380684852600098,
    2.75
   ],
   "min": [
    -4,
    -1.5,
    2.2454676628112793
   ],
   "type": "VEC3"
  },
  {
   "bufferView": 165,
   "componentType": 5126,
   "count": 24,
   "type": "VEC3"
  },
  {
   "bufferView": 166,
   "componentType": 5126,
   "count": 24,
   "type": "VEC2"
  },
  {
   "bufferView": 167,
   "componentType": 5126,
   "count": 24,
   "max": [
    4,
    1.9368412494659424,
    2.75
   ],
   "min": [
    3.450000047683716,
    -1.5,
    2.385364294052124
   ],
   "type": "VEC3"
  },
  {
   "bufferView": 168,
   "componentType": 5126,
   "count": 24,
   "type": "VEC3"
  },
  {
   "bufferView": 169,
   "componentType": 5126,
   "count": 24,
   "type": "VEC2"
  },
  {
   "bufferView": 170,
   "componentType": 5126,
   "count": 24,
   "max": [
    4,
    1.5538041591644287,
    2.325364351272583
   ],
   "min": [
    3.450000047683716,
    -1.5,
    2.1041204929351807
   ],
   "type": "VEC3"
  },
  {
   "bufferView": 171,
   "componentType": 5126,
   "count": 24,
   "type": "VEC3"
  },
  {
   "bufferView": 172,
   "componentType": 5126,
   "count": 24,
   "type": "VEC2"
  },
  {
   "bufferView": 173,
   "componentType": 5126,
   "count": 24,
   "max": [
    4,
    1.1648420095443726,
    2.0441203117370605
   ],
   "min": [
    3.450000047683716,
    -1.5,
    0.9759779572486877
   ],
   "type": "VEC3"
  },
  {
   "bufferView": 174,
   "componentType": 5126,
   "count": 24,
   "type": "VEC3"
  },
  {
   "bufferView": 175,
   "componentType": 5126,
   "count": 24,
   "type": "VEC2"
  },
  {
   "bufferView": 176,
   "componentType": 5126,
   "count": 24,
   "max": [
    4,
    0.7802353501319885,
    0.915977954864502
   ],
   "min": [
    3.450000047683716,
    -1.5,
    0.10042817145586014
   ],
   "type": "VEC3"
  },
  {
   "bufferView": 177,
   "componentType": 5126,
   "count": 24,
   "type": "VEC3"
  },
  {
   "bufferView": 178,
   "componentType": 5126,
   "count": 24,
   "type": "VEC2"
  },
  {
   "bufferView": 179,
   "componentType": 5126,
   "count": 24,
   "max": [
    4,
    1.0161268711090088,
    0.040428172796964645
   ],
   "min": [
    3.450000047683716,
    -1.5,
    -1.7871180772781372
   ],
   "type": "VEC3"
  },
  {
   "bufferView": 180,
   "componentType": 5126,
   "count": 24,
   "type": "VEC3"
  },
  {
   "bufferView": 181,
   "componentType": 5126,
   "count": 24,
   "type": "VEC2"
  },
  {
   "bufferView": 182,
   "componentType": 5126,
   "count": 24,
   "max": [
    4,
    1.2820985317230225,
    -1.8471180200576782
   ],
   "min": [
    3.450000047683716,
    -1.5,
    -1.9930559396743774
   ],
   "type": "VEC3"
  },
  {
   "bufferView": 183,
   "componentType": 5126,
   "count": 24,
   "type": "VEC3"
  },
  {
   "bufferView": 184,
   "componentType": 5126,
   "count": 24,
   "type": "VEC2"
  },
  {
   "bufferView": 185,
   "componentType": 5126,
   "count": 24,
   "max": [
    4,
    1.673547387123108,
    -2.053056001663208
   ],
   "min": [
    3.450000047683716,
    -1.5,
    -2.75
   ],
   "type": "VEC3"
  },
  {
   "bufferView": 186,
   "componentType": 5126,
   "count": 24,
   "type": "VEC3"
  },
  {
   "bufferView": 187,
   "componentType": 5126,
   "count": 24,
   "type": "VEC2"
  },
  {
   "bufferView": 188,
   "componentType": 5126,
   "count": 24,
   "max": [
    3.450000047683716,
    1.9592632055282593,
    -2.200000047683716
   ],
   "min": [
    3.094566822052002,
    -1.5,
    -2.75
   ],
   "type": "VEC3"
  },
  {
   "bufferView": 189,
   "componentType": 5126,
   "count": 24,
   "type": "VEC3"
  },
  {
   "bufferView": 190,
   "componentType": 5126,
   "count": 24,
   "type": "VEC2"
  },
  {
   "bufferView": 191,
   "componentType": 5126,
   "count": 24,
   "max": [
    3.034566640853882,
    1.271461844444275,
    -2.200000047683716
   ],
   "min": [
    2.117326259613037,
    -1.5,
    -2.75
   ],
   "type": "VEC3"
  },
  {
   "bufferView": 192,
   "componentType": 5126,
   "count": 24,
   "type": "VEC3"
  },
  {
   "bufferView": 193,
   "componentType": 5126,
   "count": 24,
   "type": "VEC2"
  },
  {
   "bufferView": 194,
   "componentType": 5126,
   "count": 24,
   "max": [
    2.057326316833496,
    1.0294357538223267,
    -2.200000047683716
   ],
   "min": [
    1.4700000286102295,
    -1.5,
    -2.75
   ],
   "type": "VEC3"
  },
  {
   "bufferView": 195,
   "componentType": 5126,
   "count": 24,
   "type": "VEC3"
  },
  {
   "bufferView": 196,
   "componentType": 5126,
   "count": 24,
   "type": "VEC2"
  },
  {
   "bufferView": 197,
   "componentType": 5126,
   "count": 24,
   "max": [
    1.4500000476837158,
    0.4000000059604645,
    -2.200000047683716
   ],
   "min": [
    0.550000011920929,
    -1.5,
    -2.75
   ],
   "type": "VEC3"
  },
  {
   "bufferView": 198,
   "componentType": 5126,
   "count": 24,
   "type": "VEC3"
  },
  {
   "bufferView": 199,
   "componentType": 5126,
   "count": 24,
   "type": "VEC2"
  },
  {
   "bufferView": 200,
   "componentType": 5126,
   "count": 24,
   "max": [
    0.5299999713897705,
    1.2993738651275635,
    -2.200000047683716
   ],
   "min": [
    -0.5144109129905701,
    -1.5,
    -2.75
   ],
   "type": "VEC3"
  },
  {
   "bufferView": 201,
   "componentType": 5126,
   "count": 24,
   "type": "VEC3"
  },
  {
   "bufferView": 202,
   "componentType": 5126,
   "count": 24,
   "type": "VEC2"
  },
  {
   "bufferView": 203,
   "componentType": 5126,
   "count": 24,
   "max": [
    -0.5744109153747559,
    1.9454458951950073,
    -2.200000047683716
   ],
   "min": [
    -0.930101215839386,
    -1.5,
    -2.75
   ],
   "type": "VEC3"
  },
  {
   "bufferView": 204,
   "componentType": 5126,
   "count": 24,
   "type": "VEC3"
  },
  {
   "bufferView": 205,
   "componentType": 5126,
   "count": 24,
   "type": "VEC2"
  },
  {
   "bufferView": 206,
   "componentType": 5126,
   "count": 24,
   "max": [
    -0.990101158618927,
    2.2347095012664795,
    -2.200000047683716
   ],
   "min": [
    -1.2300000190734863,
    -1.5,
    -2.75
   ],
   "type": "VEC3"
  },
  {
   "bufferView": 207,
   "componentType": 5126,
   "count": 24,
   "type": "VEC3"
  },
  {
   "bufferView": 208,
   "componentType": 5126,
   "count": 24,
   "type": "VEC2"
  },
  {
   "bufferView": 209,
   "componentType": 5126,
   "count": 24,
   "max": [
    -1.25,
    1,
    -2.200000047683716
   ],
   "min": [
    -2.049999952316284,
    -1.5,
    -2.75
   ],
   "type": "VEC3"
  },
  {
   "bufferView": 210,
   "componentType": 5126,
   "count": 24,
   "type": "VEC3"
  },
  {
   "bufferView": 211,
   "componentType": 5126,
   "count": 24,
   "type": "VEC2"
  },
  {
   "bufferView": 212,
   "componentType": 5126,
   "count": 24,
   "max": [
    -2.069999933242798,
    2.212122678756714,
    -2.200000047683716
   ],
   "min": [
    -2.7777981758117676,
    -1.5,
    -2.75
   ],
   "type": "VEC3"
  },
  {
   "bufferView": 213,
   "componentType": 5126,
   "count": 24,
   "type": "VEC3"
  },
  {
   "bufferView": 214,
   "componentType": 5126,
   "count": 24,
   "type": "VEC2"
  },
  {
   "bufferView": 215,
   "componentType": 5126,
   "count": 24,
   "max": [
    -2.8377981185913086,
    2.467287540435791,
    -2.200000047683716
   ],
   "min": [
    -3.450000047683716,
    -1.5,
    -2.75
   ],
   "type": "VEC3"
  },
  {
   "bufferView": 216,
   "componentType": 5126,
   "count": 24,
   "type": "VEC3"
  },
  {
   "bufferView": 217,
   "componentType": 5126,
   "count": 24,
   "type": "VEC2"
  },
  {
   "bufferView": 218,
   "componentType": 5126,
   "count": 24,
   "max": [
    -2.9000000953674316,
    3.0999999046325684,
    1.100000023841858
   ],
   "min": [
    -3.450000047683716,
    0,
    0.699999988079071
   ],
   "type": "VEC3"
  },
  {
   "bufferView": 219,
   "componentType": 5126,
   "count": 24,
   "type": "VEC3"
  },
  {
   "bufferView": 220,
   "componentType": 5126,
   "count": 24,
   "type": "VEC2"
  },
  {
   "bufferView": 221,
   "componentType": 5126,
   "count": 24,
   "max": [
    -2.9000000953674316,
    3.0999999046325684,
    -0.699999988079071
   ],
   "min": [
    -3.450000047683716,
    0,
    -1.100000023841858
   ],
   "type": "VEC3"
  },
  {
   "bufferView": 222,
   "componentType": 5126,
   "count": 24,
   "type": "VEC3"
  },
  {
   "bufferView": 223,
   "componentType": 5126,
   "count": 24,
   "type": "VEC2"
  },
  {
   "bufferView": 224,
   "componentType": 5126,
   "count": 24,
   "max": [
    -2.9000000953674316,
    3.5999999046325684,
    0.699999988079071
   ],
   "min": [
    -3.450000047683716,
    1.2200000286102295,
    -0.699999988079071
   ],
   "type": "VEC3"
  },
  {
   "bufferView": 225,
   "componentType": 5126,
   "count": 24,
   "type": "VEC3"
  },
  {
   "bufferView": 226,
   "componentType": 5126,
   "count": 24,
   "type": "VEC2"
  },
  {
   "bufferView": 227,
   "componentType": 5126,
   "count": 24,
   "max": [
    -1.3000000715255737,
    0.30000001192092896,
    -0.10000000894069672
   ],
   "min": [
    -1.399999976158142,
    0.20000000298023224,
    -0.20000000298023224
   ],
   "type": "VEC3"
  },
  {
   "bufferView": 228,
   "componentType": 5126,
   "count": 24,
   "type": "VEC3"
  },
  {
   "bufferView": 229,
   "componentType": 5126,
   "count": 24,
   "type": "VEC2"
  },
  {
   "bufferView": 230,
   "componentType": 5126,
   "count": 24,
   "max": [
    3.450000047683716,
    0,
    2.200000047683716
   ],
   "min": [
    -3.450000047683716,
    -0.4000000059604645,
    -2.200000047683716
   ],
   "type": "VEC3"
  },
  {
   "bufferView": 231,
   "componentType": 5126,
   "count": 24,
   "type": "VEC3"
  },
  {
   "bufferView": 232,
   "componentType": 5126,
   "count": 24,
   "type": "VEC2"
  },
  {
   "bufferView": 233,
   "componentType": 5126,
   "count": 24,
   "max": [
    0.44999998807907104,
    2.8499999046325684,
    -1.7200000286102295
   ],
   "min": [
    -3.450000047683716,
    0,
    -2.0799999237060547
   ],
   "type": "VEC3"
  },
  {
   "bufferView": 234,
   "componentType": 5126,
   "count": 24,
   "type": "VEC3"
  },
  {
   "bufferView": 235,
   "componentType": 5126,
   "count": 24,
   "type": "VEC2"
  },
  {
   "bufferView": 236,
   "componentType": 5126,
   "count": 24,
   "max": [
    -0.6600000262260437,
    1.9500000476837158,
    2.0799999237060547
   ],
   "min": [
    -1.6200000047683716,
    0,
    0.7799999713897705
   ],
   "type": "VEC3"
  },
  {
   "bufferView": 237,
   "componentType": 5126,
   "count": 24,
   "type": "VEC3"
  },
  {
   "bufferView": 238,
   "componentType": 5126,
   "count": 24,
   "type": "VEC2"
  },
  {
   "bufferView": 239,
   "componentType": 5126,
   "count": 24,
   "max": [
    3.450000047683716,
    0.3499999940395355,
    1.100000023841858
   ],
   "min": [
    2,
    0,
    -0.5
   ],
   "type": "VEC3"
  },
  {
   "bufferView": 240,
   "componentType": 5126,
   "count": 24,
   "type": "VEC3"
  },
  {
   "bufferView": 241,
   "componentType": 5126,
   "count": 24,
   "type": "VEC2"
  },
  {
   "bufferView": 242,
   "componentType": 5126,
   "count": 24,
   "max": [
    3.450000047683716,
    0.6200000047683716,
    0.800000011920929
   ],
   "min": [
    2.5,
    0.3499999940395355,
    -0.20000000298023224
   ],
   "type": "VEC3"
  },
  {
   "bufferView": 243,
   "componentType": 5126,
   "count": 24,
   "type": "VEC3"
  },
  {
   "bufferView": 244,
   "componentType": 5126,
   "count": 24,
   "type": "VEC2"
  },
  {
   "bufferView": 245,
   "componentType": 5126,
   "count": 24,
   "max": [
    5.400000095367432,
    0.2800000011920929,
    1.149999976158142
   ],
   "min": [
    4,
    -0.11999999731779099,
    -0.3499999940395355
   ],
   "type": "VEC3"
  },
  {
   "bufferView": 246,
   "componentType": 5126,
   "count": 24,
   "type": "VEC3"
  },
  {
   "bufferView": 247,
   "componentType": 5126,
   "count": 24,
   "type": "VEC2"
  },
  {
   "bufferView": 248,
   "componentType": 5126,
   "count": 24,
   "max": [
    4.75,
    0.5799999833106995,
    0.8500000238418579
   ],
   "min": [
    4,
    0.2800000011920929,
    -0.05000000074505806
   ],
   "type": "VEC3"
  },
  {
   "bufferView": 249,
   "componentType": 5126,
   "count": 24,
   "type": "VEC3"
  },
  {
   "bufferView": 250,
   "componentType": 5126,
   "count": 24,
   "type": "VEC2"
  },
  {
   "bufferView": 251,
   "componentType": 5126,
   "count": 24,
   "max": [
    1.649999976158142,
    0.20000000298023224,
    -2
   ],
   "min": [
    0.3499999940395355,
    -0.05000000074505806,
    -3.200000047683716
   ],
   "type": "VEC3"
  },
  {
   "bufferView": 252,
   "componentType": 5126,
   "count": 24,
   "type": "VEC3"
  },
  {
   "bufferView": 253,
   "componentType": 5126,
   "count": 24,
   "type": "VEC2"
  },
  {
   "bufferView": 254,
   "componentType": 5126,
   "count": 24,
   "max": [
    3,
    0.2199999988079071,
    4.050000190734863
   ],
   "min": [
    1.600000023841858,
    -0.11999999731779099,
    2.75
   ],
   "type": "VEC3"
  },
  {
   "bufferView": 255,
   "componentType": 5126,
   "count": 24,
   "type": "VEC3"
  },
  {
   "bufferView": 256,
   "componentType": 5126,
   "count": 24,
   "type": "VEC2"
  },
  {
   "bufferView": 257,
   "componentType": 5126,
   "count": 24,
   "max": [
    2.4401791095733643,
    0.6200000047683716,
    -0.7074064612388611
   ],
   "min": [
    0.45982107520103455,
    0.33000001311302185,
    -1.7925934791564941
   ],
   "type": "VEC3"
  },
  {
   "bufferView": 258,
   "componentType": 5126,
   "count": 24,
   "type": "VEC3"
  },
  {
   "bufferView": 259,
   "componentType": 5126,
   "count": 24,
   "type": "VEC2"
  },
  {
   "bufferView": 260,
   "componentType": 5126,
   "count": 24,
   "max": [
    -1.9500000476837158,
    0.10000000149011612,
    1.7999999523162842
   ],
   "min": [
    -2.049999952316284,
    0,
    1.7000000476837158
   ],
   "type": "VEC3"
  },
  {
   "bufferView": 261,
   "componentType": 5126,
   "count": 24,
   "type": "VEC3"
  },
  {
   "bufferView": 262,
   "componentType": 5126,
   "count": 24,
   "type": "VEC2"
  },
  {
   "bufferView": 263,
   "componentType": 5126,
   "count": 24,
   "max": [
    3,
    0.10000000149011612,
    -1.6500000953674316
   ],
   "min": [
    2.9000000953674316,
    0,
    -1.75
   ],
   "type": "VEC3"
  },
  {
   "bufferView": 264,
   "componentType": 5126,
   "count": 24,
   "type": "VEC3"
  },
  {
   "bufferView": 265,
   "componentType": 5126,
   "count": 24,
   "type": "VEC2"
  },
  {
   "bufferView": 266,
   "componentType": 5126,
   "count": 24,
   "max": [
    2.8999998569488525,
    0.10000000149011612,
    1.8499999046325684
   ],
   "min": [
    2.799999952316284,
    0,
    1.75
   ],
   "type": "VEC3"
  },
  {
   "bufferView": 267,
   "componentType": 5126,
   "count": 24,
   "type": "VEC3"
  },
  {
   "bufferView": 268,
   "componentType": 5126,
   "count": 24,
   "type": "VEC2"
  }
 ],
 "bufferViews": [
  {
   "buffer": 0,
   "byteLength": 12288,
   "byteOffset": 0,
   "target": 34962
  },
  {
   "buffer": 0,
   "byteLength": 12288,
   "byteOffset": 12288,
   "target": 34962
  },
  {
   "buffer": 0,
   "byteLength": 8192,
   "byteOffset": 24576,
   "target": 34962
  },
  {
   "buffer": 0,
   "byteLength": 4104,
   "byteOffset": 32768,
   "target": 34963
  },
  {
   "buffer": 0,
   "byteLength": 69120,
   "byteOffset": 36872,
   "target": 34962
  },
  {
   "buffer": 0,
   "byteLength": 69120,
   "byteOffset": 105992,
   "target": 34962
  },
  {
   "buffer": 0,
   "byteLength": 46080,
   "byteOffset": 175112,
   "target": 34962
  },
  {
   "buffer": 0,
   "byteLength": 15840,
   "byteOffset": 221192,
   "target": 34963
  },
  {
   "buffer": 0,
   "byteLength": 4344,
   "byteOffset": 237032,
   "target": 34962
  },
  {
   "buffer": 0,
   "byteLength": 4344,
   "byteOffset": 241376,
   "target": 34962
  },
  {
   "buffer": 0,
   "byteLength": 2896,
   "byteOffset": 245720,
   "target": 34962
  },
  {
   "buffer": 0,
   "byteLength": 1884,
   "byteOffset": 248616,
   "target": 34963
  },
  {
   "buffer": 0,
   "byteLength": 1152,
   "byteOffset": 250500,
   "target": 34962
  },
  {
   "buffer": 0,
   "byteLength": 1152,
   "byteOffset": 251652,
   "target": 34962
  },
  {
   "buffer": 0,
   "byteLength": 768,
   "byteOffset": 252804,
   "target": 34962
  },
  {
   "buffer": 0,
   "byteLength": 288,
   "byteOffset": 253572,
   "target": 34963
  },
  {
   "buffer": 0,
   "byteLength": 22464,
   "byteOffset": 253860,
   "target": 34962
  },
  {
   "buffer": 0,
   "byteLength": 22464,
   "byteOffset": 276324,
   "target": 34962
  },
  {
   "buffer": 0,
   "byteLength": 14976,
   "byteOffset": 298788,
   "target": 34962
  },
  {
   "buffer": 0,
   "byteLength": 5232,
   "byteOffset": 313764,
   "target": 34963
  },
  {
   "buffer": 0,
   "byteLength": 3492,
   "byteOffset": 318996,
   "target": 34962
  },
  {
   "buffer": 0,
   "byteLength": 3492,
   "byteOffset": 322488,
   "target": 34962
  },
  {
   "buffer": 0,
   "byteLength": 2328,
   "byteOffset": 325980,
   "target": 34962
  },
  {
   "buffer": 0,
   "byteLength": 882,
   "byteOffset": 328308,
   "target": 34963
  },
  {
   "buffer": 0,
   "byteLength": 1764,
   "byteOffset": 329192,
   "target": 34962
  },
  {
   "buffer": 0,
   "byteLength": 1764,
   "byteOffset": 330956,
   "target": 34962
  },
  {
   "buffer": 0,
   "byteLength": 1176,
   "byteOffset": 332720,
   "target": 34962
  },
  {
   "buffer": 0,
   "byteLength": 450,
   "byteOffset": 333896,
   "target": 34963
  },
  {
   "buffer": 0,
   "byteLength": 16020,
   "byteOffset": 334348,
   "target": 34962
  },
  {
   "buffer": 0,
   "byteLength": 16020,
   "byteOffset": 350368,
   "target": 34962
  },
  {
   "buffer": 0,
   "byteLength": 10680,
   "byteOffset": 366388,
   "target": 34962
  },
  {
   "buffer": 0,
   "byteLength": 7824,
   "byteOffset": 377068,
   "target": 34963
  },
  {
   "buffer": 0,
   "byteLength": 19584,
   "byteOffset": 384892,
   "target": 34962
  },
  {
   "buffer": 0,
   "byteLength": 19584,
   "byteOffset": 404476,
   "target": 34962
  },
  {
   "buffer": 0,
   "byteLength": 13056,
   "byteOffset": 424060,
   "target": 34962
  },
  {
   "buffer": 0,
   "byteLength": 4488,
   "byteOffset": 437116,
   "target": 34963
  },
  {
   "buffer": 0,
   "byteLength": 3852,
   "byteOffset": 441604,
   "target": 34962
  },
  {
   "buffer": 0,
   "byteLength": 3852,
   "byteOffset": 445456,
   "target": 34962
  },
  {
   "buffer": 0,
   "byteLength": 2568,
   "byteOffset": 449308,
   "target": 34962
  },
  {
   "buffer": 0,
   "byteLength": 1080,
   "byteOffset": 451876,
   "target": 34963
  },
  {
   "buffer": 0,
   "byteLength": 948,
   "byteOffset": 452956,
   "target": 34962
  },
  {
   "buffer": 0,
   "byteLength": 948,
   "byteOffset": 453904,
   "target": 34962
  },
  {
   "buffer": 0,
   "byteLength": 632,
   "byteOffset": 454852,
   "target": 34962
  },
  {
   "buffer": 0,
   "byteLength": 480,
   "byteOffset": 455484,
   "target": 34963
  },
  {
   "buffer": 0,
   "byteLength": 1728,
   "byteOffset": 455964,
   "target": 34962
  },
  {
   "buffer": 0,
   "byteLength": 1728,
   "byteOffset": 457692,
   "target": 34962
  },
  {
   "buffer": 0,
   "byteLength": 1152,
   "byteOffset": 459420,
   "target": 34962
  },
  {
   "buffer": 0,
   "byteLength": 480,
   "byteOffset": 460572,
   "target": 34963
  },
  {
   "buffer": 0,
   "byteLength": 27600,
   "byteOffset": 461052,
   "target": 34962
  },
  {
   "buffer": 0,
   "byteLength": 27600,
   "byteOffset": 488652,
   "target": 34962
  },
  {
   "buffer": 0,
   "byteLength": 18400,
   "byteOffset": 516252,
   "target": 34962
  },
  {
   "buffer": 0,
   "byteLength": 9072,
   "byteOffset": 534652,
   "target": 34963
  },
  {
   "buffer": 0,
   "byteLength": 7140,
   "byteOffset": 543724,
   "target": 34962
  },
  {
   "buffer": 0,
   "byteLength": 7140,
   "byteOffset": 550864,
   "target": 34962
  },
  {
   "buffer": 0,
   "byteLength": 4760,
   "byteOffset": 558004,
   "target": 34962
  },
  {
   "buffer": 0,
   "byteLength": 4200,
   "byteOffset": 562764,
   "target": 34963
  },
  {
   "buffer": 0,
   "byteLength": 1428,
   "byteOffset": 566964,
   "target": 34962
  },
  {
   "buffer": 0,
   "byteLength": 1428,
   "byteOffset": 568392,
   "target": 34962
  },
  {
   "buffer": 0,
   "byteLength": 952,
   "byteOffset": 569820,
   "target": 34962
  },
  {
   "buffer": 0,
   "byteLength": 600,
   "byteOffset": 570772,
   "target": 34963
  },
  {
   "buffer": 0,
   "byteLength": 68448,
   "byteOffset": 571372,
   "target": 34962
  },
  {
   "buffer": 0,
   "byteLength": 68448,
   "byteOffset": 639820,
   "target": 34962
  },
  {
   "buffer": 0,
   "byteLength": 45632,
   "byteOffset": 708268,
   "target": 34962
  },
  {
   "buffer": 0,
   "byteLength": 17160,
   "byteOffset": 753900,
   "target": 34963
  },
  {
   "buffer": 0,
   "byteLength": 39348,
   "byteOffset": 771060,
   "target": 34962
  },
  {
   "buffer": 0,
   "byteLength": 39348,
   "byteOffset": 810408,
   "target": 34962
  },
  {
   "buffer": 0,
   "byteLength": 26232,
   "byteOffset": 849756,
   "target": 34962
  },
  {
   "buffer": 0,
   "byteLength": 9840,
   "byteOffset": 875988,
   "target": 34963
  },
  {
   "buffer": 0,
   "byteLength": 4296,
   "byteOffset": 885828,
   "target": 34962
  },
  {
   "buffer": 0,
   "byteLength": 4296,
   "byteOffset": 890124,
   "target": 34962
  },
  {
   "buffer": 0,
   "byteLength": 2864,
   "byteOffset": 894420,
   "target": 34962
  },
  {
   "buffer": 0,
   "byteLength": 1680,
   "byteOffset": 897284,
   "target": 34963
  },
  {
   "buffer": 0,
   "byteLength": 4608,
   "byteOffset": 898964,
   "target": 34962
  },
  {
   "buffer": 0,
   "byteLength": 4608,
   "byteOffset": 903572,
   "target": 34962
  },
  {
   "buffer": 0,
   "byteLength": 3072,
   "byteOffset": 908180,
   "target": 34962
  },
  {
   "buffer": 0,
   "byteLength": 1152,
   "byteOffset": 911252,
   "target": 34963
  },
  {
   "buffer": 0,
   "byteLength": 42432,
   "byteOffset": 912404,
   "target": 34962
  },
  {
   "buffer": 0,
   "byteLength": 42432,
   "byteOffset": 954836,
   "target": 34962
  },
  {
   "buffer": 0,
   "byteLength": 28288,
   "byteOffset": 997268,
   "target": 34962
  },
  {
   "buffer": 0,
   "byteLength": 13248,
   "byteOffset": 1025556,
   "target": 34963
  },
  {
   "buffer": 0,
   "byteLength": 3540,
   "byteOffset": 1038804,
   "target": 34962
  },
  {
   "buffer": 0,
   "byteLength": 3540,
   "byteOffset": 1042344,
   "target": 34962
  },
  {
   "buffer": 0,
   "byteLength": 2360,
   "byteOffset": 1045884,
   "target": 34962
  },
  {
   "buffer": 0,
   "byteLength": 1920,
   "byteOffset": 1048244,
   "target": 34963
  },
  {
   "buffer": 0,
   "byteLength": 7692,
   "byteOffset": 1050164,
   "target": 34962
  },
  {
   "buffer": 0,
   "byteLength": 7692,
   "byteOffset": 1057856,
   "target": 34962
  },
  {
   "buffer": 0,
   "byteLength": 5128,
   "byteOffset": 1065548,
   "target": 34962
  },
  {
   "buffer": 0,
   "byteLength": 2520,
   "byteOffset": 1070676,
   "target": 34963
  },
  {
   "buffer": 0,
   "byteLength": 602556,
   "byteOffset": 1073196,
   "target": 34962
  },
  {
   "buffer": 0,
   "byteLength": 602556,
   "byteOffset": 1675752,
   "target": 34962
  },
  {
   "buffer": 0,
   "byteLength": 401704,
   "byteOffset": 2278308,
   "target": 34962
  },
  {
   "buffer": 0,
   "byteLength": 172086,
   "byteOffset": 2680012,
   "target": 34963
  },
  {
   "buffer": 0,
   "byteLength": 66384,
   "byteOffset": 2852100,
   "target": 34962
  },
  {
   "buffer": 0,
   "byteLength": 66384,
   "byteOffset": 2918484,
   "target": 34962
  },
  {
   "buffer": 0,
   "byteLength": 44256,
   "byteOffset": 2984868,
   "target": 34962
  },
  {
   "buffer": 0,
   "byteLength": 29688,
   "byteOffset": 3029124,
   "target": 34963
  },
  {
   "buffer": 0,
   "byteLength": 12168,
   "byteOffset": 3058812,
   "target": 34962
  },
  {
   "buffer": 0,
   "byteLength": 12168,
   "byteOffset": 3070980,
   "target": 34962
  },
  {
   "buffer": 0,
   "byteLength": 8112,
   "byteOffset": 3083148,
   "target": 34962
  },
  {
   "buffer": 0,
   "byteLength": 4488,
   "byteOffset": 3091260,
   "target": 34963
  },
  {
   "buffer": 0,
   "byteLength": 288,
   "byteOffset": 3095748,
   "target": 34962
  },
  {
   "buffer": 0,
   "byteLength": 288,
   "byteOffset": 3096036,
   "target": 34962
  },
  {
   "buffer": 0,
   "byteLength": 192,
   "byteOffset": 3096324,
   "target": 34962
  },
  {
   "buffer": 0,
   "byteLength": 72,
   "byteOffset": 3096516,
   "target": 34963
  },
  {
   "buffer": 0,
   "byteLength": 288,
   "byteOffset": 3096588,
   "target": 34962
  },
  {
   "buffer": 0,
   "byteLength": 288,
   "byteOffset": 3096876,
   "target": 34962
  },
  {
   "buffer": 0,
   "byteLength": 192,
   "byteOffset": 3097164,
   "target": 34962
  },
  {
   "buffer": 0,
   "byteLength": 288,
   "byteOffset": 3097356,
   "target": 34962
  },
  {
   "buffer": 0,
   "byteLength": 288,
   "byteOffset": 3097644,
   "target": 34962
  },
  {
   "buffer": 0,
   "byteLength": 192,
   "byteOffset": 3097932,
   "target": 34962
  },
  {
   "buffer": 0,
   "byteLength": 288,
   "byteOffset": 3098124,
   "target": 34962
  },
  {
   "buffer": 0,
   "byteLength": 288,
   "byteOffset": 3098412,
   "target": 34962
  },
  {
   "buffer": 0,
   "byteLength": 192,
   "byteOffset": 3098700,
   "target": 34962
  },
  {
   "buffer": 0,
   "byteLength": 288,
   "byteOffset": 3098892,
   "target": 34962
  },
  {
   "buffer": 0,
   "byteLength": 288,
   "byteOffset": 3099180,
   "target": 34962
  },
  {
   "buffer": 0,
   "byteLength": 192,
   "byteOffset": 3099468,
   "target": 34962
  },
  {
   "buffer": 0,
   "byteLength": 288,
   "byteOffset": 3099660,
   "target": 34962
  },
  {
   "buffer": 0,
   "byteLength": 288,
   "byteOffset": 3099948,
   "target": 34962
  },
  {
   "buffer": 0,
   "byteLength": 192,
   "byteOffset": 3100236,
   "target": 34962
  },
  {
   "buffer": 0,
   "byteLength": 288,
   "byteOffset": 3100428,
   "target": 34962
  },
  {
   "buffer": 0,
   "byteLength": 288,
   "byteOffset": 3100716,
   "target": 34962
  },
  {
   "buffer": 0,
   "byteLength": 192,
   "byteOffset": 3101004,
   "target": 34962
  },
  {
   "buffer": 0,
   "byteLength": 288,
   "byteOffset": 3101196,
   "target": 34962
  },
  {
   "buffer": 0,
   "byteLength": 288,
   "byteOffset": 3101484,
   "target": 34962
  },
  {
   "buffer": 0,
   "byteLength": 192,
   "byteOffset": 3101772,
   "target": 34962
  },
  {
   "buffer": 0,
   "byteLength": 288,
   "byteOffset": 3101964,
   "target": 34962
  },
  {
   "buffer": 0,
   "byteLength": 288,
   "byteOffset": 3102252,
   "target": 34962
  },
  {
   "buffer": 0,
   "byteLength": 192,
   "byteOffset": 3102540,
   "target": 34962
  },
  {
   "buffer": 0,
   "byteLength": 288,
   "byteOffset": 3102732,
   "target": 34962
  },
  {
   "buffer": 0,
   "byteLength": 288,
   "byteOffset": 3103020,
   "target": 34962
  },
  {
   "buffer": 0,
   "byteLength": 192,
   "byteOffset": 3103308,
   "target": 34962
  },
  {
   "buffer": 0,
   "byteLength": 288,
   "byteOffset": 3103500,
   "target": 34962
  },
  {
   "buffer": 0,
   "byteLength": 288,
   "byteOffset": 3103788,
   "target": 34962
  },
  {
   "buffer": 0,
   "byteLength": 192,
   "byteOffset": 3104076,
   "target": 34962
  },
  {
   "buffer": 0,
   "byteLength": 288,
   "byteOffset": 3104268,
   "target": 34962
  },
  {
   "buffer": 0,
   "byteLength": 288,
   "byteOffset": 3104556,
   "target": 34962
  },
  {
   "buffer": 0,
   "byteLength": 192,
   "byteOffset": 3104844,
   "target": 34962
  },
  {
   "buffer": 0,
   "byteLength": 288,
   "byteOffset": 3105036,
   "target": 34962
  },
  {
   "buffer": 0,
   "byteLength": 288,
   "byteOffset": 3105324,
   "target": 34962
  },
  {
   "buffer": 0,
   "byteLength": 192,
   "byteOffset": 3105612,
   "target": 34962
  },
  {
   "buffer": 0,
   "byteLength": 288,
   "byteOffset": 3105804,
   "target": 34962
  },
  {
   "buffer": 0,
   "byteLength": 288,
   "byteOffset": 3106092,
   "target": 34962
  },
  {
   "buffer": 0,
   "byteLength": 192,
   "byteOffset": 3106380,
   "target": 34962
  },
  {
   "buffer": 0,
   "byteLength": 288,
   "byteOffset": 3106572,
   "target": 34962
  },
  {
   "buffer": 0,
   "byteLength": 288,
   "byteOffset": 3106860,
   "target": 34962
  },
  {
   "buffer": 0,
   "byteLength": 192,
   "byteOffset": 3107148,
   "target": 34962
  },
  {
   "buffer": 0,
   "byteLength": 288,
   "byteOffset": 3107340,
   "target": 34962
  },
  {
   "buffer": 0,
   "byteLength": 288,
   "byteOffset": 3107628,
   "target": 34962
  },
  {
   "buffer": 0,
   "byteLength": 192,
   "byteOffset": 3107916,
   "target": 34962
  },
  {
   "buffer": 0,
   "byteLength": 288,
   "byteOffset": 3108108,
   "target": 34962
  },
  {
   "buffer": 0,
   "byteLength": 288,
   "byteOffset": 3108396,
   "target": 34962
  },
  {
   "buffer": 0,
   "byteLength": 192,
   "byteOffset": 3108684,
   "target": 34962
  },
  {
   "buffer": 0,
   "byteLength": 288,
   "byteOffset": 3108876,
   "target": 34962
  },
  {
   "buffer": 0,
   "byteLength": 288,
   "byteOffset": 3109164,
   "target": 34962
  },
  {
   "buffer": 0,
   "byteLength": 192,
   "byteOffset": 3109452,
   "target": 34962
  },
  {
   "buffer": 0,
   "byteLength": 288,
   "byteOffset": 3109644,
   "target": 34962
  },
  {
   "buffer": 0,
   "byteLength": 288,
   "byteOffset": 3109932,
   "target": 34962
  },
  {
   "buffer": 0,
   "byteLength": 192,
   "byteOffset": 3110220,
   "target": 34962
  },
  {
   "buffer": 0,
   "byteLength": 288,
   "byteOffset": 3110412,
   "target": 34962
  },
  {
   "buffer": 0,
   "byteLength": 288,
   "byteOffset": 3110700,
   "target": 34962
  },
  {
   "buffer": 0,
   "byteLength": 192,
   "byteOffset": 3110988,
   "target": 34962
  },
  {
   "buffer": 0,
   "byteLength": 288,
   "byteOffset": 3111180,
   "target": 34962
  },
  {
   "buffer": 0,
   "byteLength": 288,
   "byteOffset": 3111468,
   "target": 34962
  },
  {
   "buffer": 0,
   "byteLength": 192,
   "byteOffset": 3111756,
   "target": 34962
  },
  {
   "buffer": 0,
   "byteLength": 288,
   "byteOffset": 3111948,
   "target": 34962
  },
  {
   "buffer": 0,
   "byteLength": 288,
   "byteOffset": 3112236,
   "target": 34962
  },
  {
   "buffer": 0,
   "byteLength": 192,
   "byteOffset": 3112524,
   "target": 34962
  },
  {
   "buffer": 0,
   "byteLength": 288,
   "byteOffset": 3112716,
   "target": 34962
  },
  {
   "buffer": 0,
   "byteLength": 288,
   "byteOffset": 3113004,
   "target": 34962
  },
  {
   "buffer": 0,
   "byteLength": 192,
   "byteOffset": 3113292,
   "target": 34962
  },
  {
   "buffer": 0,
   "byteLength": 288,
   "byteOffset": 3113484,
   "target": 34962
  },
  {
   "buffer": 0,
   "byteLength": 288,
   "byteOffset": 3113772,
   "target": 34962
  },
  {
   "buffer": 0,
   "byteLength": 192,
   "byteOffset": 3114060,
   "target": 34962
  },
  {
   "buffer": 0,
   "byteLength": 288,
   "byteOffset": 3114252,
   "target": 34962
  },
  {
   "buffer": 0,
   "byteLength": 288,
   "byteOffset": 3114540,
   "target": 34962
  },
  {
   "buffer": 0,
   "byteLength": 192,
   "byteOffset": 3114828,
   "target": 34962
  },
  {
   "buffer": 0,
   "byteLength": 288,
   "byteOffset": 3115020,
   "target": 34962
  },
  {
   "buffer": 0,
   "byteLength": 288,
   "byteOffset": 3115308,
   "target": 34962
  },
  {
   "buffer": 0,
   "byteLength": 192,
   "byteOffset": 3115596,
   "target": 34962
  },
  {
   "buffer": 0,
   "byteLength": 288,
   "byteOffset": 3115788,
   "target": 34962
  },
  {
   "buffer": 0,
   "byteLength": 288,
   "byteOffset": 3116076,
   "target": 34962
  },
  {
   "buffer": 0,
   "byteLength": 192,
   "byteOffset": 3116364,
   "target": 34962
  },
  {
   "buffer": 0,
   "byteLength": 288,
   "byteOffset": 3116556,
   "target": 34962
  },
  {
   "buffer": 0,
   "byteLength": 288,
   "byteOffset": 3116844,
   "target": 34962
  },
  {
   "buffer": 0,
   "byteLength": 192,
   "byteOffset": 3117132,
   "target": 34962
  },
  {
   "buffer": 0,
   "byteLength": 288,
   "byteOffset": 3117324,
   "target": 34962
  },
  {
   "buffer": 0,
   "byteLength": 288,
   "byteOffset": 3117612,
   "target": 34962
  },
  {
   "buffer": 0,
   "byteLength": 192,
   "byteOffset": 3117900,
   "target": 34962
  },
  {
   "buffer": 0,
   "byteLength": 288,
   "byteOffset": 3118092,
   "target": 34962
  },
  {
   "buffer": 0,
   "byteLength": 288,
   "byteOffset": 3118380,
   "target": 34962
  },
  {
   "buffer": 0,
   "byteLength": 192,
   "byteOffset": 3118668,
   "target": 34962
  },
  {
   "buffer": 0,
   "byteLength": 288,
   "byteOffset": 3118860,
   "target": 34962
  },
  {
   "buffer": 0,
   "byteLength": 288,
   "byteOffset": 3119148,
   "target": 34962
  },
  {
   "buffer": 0,
   "byteLength": 192,
   "byteOffset": 3119436,
   "target": 34962
  },
  {
   "buffer": 0,
   "byteLength": 288,
   "byteOffset": 3119628,
   "target": 34962
  },
  {
   "buffer": 0,
   "byteLength": 288,
   "byteOffset": 3119916,
   "target": 34962
  },
  {
   "buffer": 0,
   "byteLength": 192,
   "byteOffset": 3120204,
   "target": 34962
  },
  {
   "buffer": 0,
   "byteLength": 288,
   "byteOffset": 3120396,
   "target": 34962
  },
  {
   "buffer": 0,
   "byteLength": 288,
   "byteOffset": 3120684,
   "target": 34962
  },
  {
   "buffer": 0,
   "byteLength": 192,
   "byteOffset": 3120972,
   "target": 34962
  },
  {
   "buffer": 0,
   "byteLength": 288,
   "byteOffset": 3121164,
   "target": 34962
  },
  {
   "buffer": 0,
   "byteLength": 288,
   "byteOffset": 3121452,
   "target": 34962
  },
  {
   "buffer": 0,
   "byteLength": 192,
   "byteOffset": 3121740,
   "target": 34962
  },
  {
   "buffer": 0,
   "byteLength": 288,
   "byteOffset": 3121932,
   "target": 34962
  },
  {
   "buffer": 0,
   "byteLength": 288,
   "byteOffset": 3122220,
   "target": 34962
  },
  {
   "buffer": 0,
   "byteLength": 192,
   "byteOffset": 3122508,
   "target": 34962
  },
  {
   "buffer": 0,
   "byteLength": 288,
   "byteOffset": 3122700,
   "target": 34962
  },
  {
   "buffer": 0,
   "byteLength": 288,
   "byteOffset": 3122988,
   "target": 34962
  },
  {
   "buffer": 0,
   "byteLength": 192,
   "byteOffset": 3123276,
   "target": 34962
  },
  {
   "buffer": 0,
   "byteLength": 288,
   "byteOffset": 3123468,
   "target": 34962
  },
  {
   "buffer": 0,
   "byteLength": 288,
   "byteOffset": 3123756,
   "target": 34962
  },
  {
   "buffer": 0,
   "byteLength": 192,
   "byteOffset": 3124044,
   "target": 34962
  },
  {
   "buffer": 0,
   "byteLength": 288,
   "byteOffset": 3124236,
   "target": 34962
  },
  {
   "buffer": 0,
   "byteLength": 288,
   "byteOffset": 3124524,
   "target": 34962
  },
  {
   "buffer": 0,
   "byteLength": 192,
   "byteOffset": 3124812,
   "target": 34962
  },
  {
   "buffer": 0,
   "byteLength": 288,
   "byteOffset": 3125004,
   "target": 34962
  },
  {
   "buffer": 0,
   "byteLength": 288,
   "byteOffset": 3125292,
   "target": 34962
  },
  {
   "buffer": 0,
   "byteLength": 192,
   "byteOffset": 3125580,
   "target": 34962
  },
  {
   "buffer": 0,
   "byteLength": 288,
   "byteOffset": 3125772,
   "target": 34962
  },
  {
   "buffer": 0,
   "byteLength": 288,
   "byteOffset": 3126060,
   "target": 34962
  },
  {
   "buffer": 0,
   "byteLength": 192,
   "byteOffset": 3126348,
   "target": 34962
  },
  {
   "buffer": 0,
   "byteLength": 288,
   "byteOffset": 3126540,
   "target": 34962
  },
  {
   "buffer": 0,
   "byteLength": 288,
   "byteOffset": 3126828,
   "target": 34962
  },
  {
   "buffer": 0,
   "byteLength": 192,
   "byteOffset": 3127116,
   "target": 34962
  },
  {
   "buffer": 0,
   "byteLength": 288,
   "byteOffset": 3127308,
   "target": 34962
  },
  {
   "buffer": 0,
   "byteLength": 288,
   "byteOffset": 3127596,
   "target": 34962
  },
  {
   "buffer": 0,
   "byteLength": 192,
   "byteOffset": 3127884,
   "target": 34962
  },
  {
   "buffer": 0,
   "byteLength": 288,
   "byteOffset": 3128076,
   "target": 34962
  },
  {
   "buffer": 0,
   "byteLength": 288,
   "byteOffset": 3128364,
   "target": 34962
  },
  {
   "buffer": 0,
   "byteLength": 192,
   "byteOffset": 3128652,
   "target": 34962
  },
  {
   "buffer": 0,
   "byteLength": 288,
   "byteOffset": 3128844,
   "target": 34962
  },
  {
   "buffer": 0,
   "byteLength": 288,
   "byteOffset": 3129132,
   "target": 34962
  },
  {
   "buffer": 0,
   "byteLength": 192,
   "byteOffset": 3129420,
   "target": 34962
  },
  {
   "buffer": 0,
   "byteLength": 288,
   "byteOffset": 3129612,
   "target": 34962
  },
  {
   "buffer": 0,
   "byteLength": 288,
   "byteOffset": 3129900,
   "target": 34962
  },
  {
   "buffer": 0,
   "byteLength": 192,
   "byteOffset": 3130188,
   "target": 34962
  },
  {
   "buffer": 0,
   "byteLength": 288,
   "byteOffset": 3130380,
   "target": 34962
  },
  {
   "buffer": 0,
   "byteLength": 288,
   "byteOffset": 3130668,
   "target": 34962
  },
  {
   "buffer": 0,
   "byteLength": 192,
   "byteOffset": 3130956,
   "target": 34962
  },
  {
   "buffer": 0,
   "byteLength": 288,
   "byteOffset": 3131148,
   "target": 34962
  },
  {
   "buffer": 0,
   "byteLength": 288,
   "byteOffset": 3131436,
   "target": 34962
  },
  {
   "buffer": 0,
   "byteLength": 192,
   "byteOffset": 3131724,
   "target": 34962
  },
  {
   "buffer": 0,
   "byteLength": 288,
   "byteOffset": 3131916,
   "target": 34962
  },
  {
   "buffer": 0,
   "byteLength": 288,
   "byteOffset": 3132204,
   "target": 34962
  },
  {
   "buffer": 0,
   "byteLength": 192,
   "byteOffset": 3132492,
   "target": 34962
  },
  {
   "buffer": 0,
   "byteLength": 288,
   "byteOffset": 3132684,
   "target": 34962
  },
  {
   "buffer": 0,
   "byteLength": 288,
   "byteOffset": 3132972,
   "target": 34962
  },
  {
   "buffer": 0,
   "byteLength": 192,
   "byteOffset": 3133260,
   "target": 34962
  },
  {
   "buffer": 0,
   "byteLength": 288,
   "byteOffset": 3133452,
   "target": 34962
  },
  {
   "buffer": 0,
   "byteLength": 288,
   "byteOffset": 3133740,
   "target": 34962
  },
  {
   "buffer": 0,
   "byteLength": 192,
   "byteOffset": 3134028,
   "target": 34962
  },
  {
   "buffer": 0,
   "byteLength": 288,
   "byteOffset": 3134220,
   "target": 34962
  },
  {
   "buffer": 0,
   "byteLength": 288,
   "byteOffset": 3134508,
   "target": 34962
  },
  {
   "buffer": 0,
   "byteLength": 192,
   "byteOffset": 3134796,
   "target": 34962
  },
  {
   "buffer": 0,
   "byteLength": 288,
   "byteOffset": 3134988,
   "target": 34962
  },
  {
   "buffer": 0,
   "byteLength": 288,
   "byteOffset": 3135276,
   "target": 34962
  },
  {
   "buffer": 0,
   "byteLength": 192,
   "byteOffset": 3135564,
   "target": 34962
  },
  {
   "buffer": 0,
   "byteLength": 288,
   "byteOffset": 3135756,
   "target": 34962
  },
  {
   "buffer": 0,
   "byteLength": 288,
   "byteOffset": 3136044,
   "target": 34962
  },
  {
   "buffer": 0,
   "byteLength": 192,
   "byteOffset": 3136332,
   "target": 34962
  },
  {
   "buffer": 0,
   "byteLength": 288,
   "byteOffset": 3136524,
   "target": 34962
  },
  {
   "buffer": 0,
   "byteLength": 288,
   "byteOffset": 3136812,
   "target": 34962
  },
  {
   "buffer": 0,
   "byteLength": 192,
   "byteOffset": 3137100,
   "target": 34962
  },
  {
   "buffer": 0,
   "byteLength": 288,
   "byteOffset": 3137292,
   "target": 34962
  },
  {
   "buffer": 0,
   "byteLength": 288,
   "byteOffset": 3137580,
   "target": 34962
  },
  {
   "buffer": 0,
   "byteLength": 192,
   "byteOffset": 3137868,
   "target": 34962
  },
  {
   "buffer": 0,
   "byteLength": 288,
   "byteOffset": 3138060,
   "target": 34962
  },
  {
   "buffer": 0,
   "byteLength": 288,
   "byteOffset": 3138348,
   "target": 34962
  },
  {
   "buffer": 0,
   "byteLength": 192,
   "byteOffset": 3138636,
   "target": 34962
  }
 ],
 "samplers": [
  {
   "magFilter": 9729,
   "minFilter": 9987
  }
 ],
 "buffers": [
  {
   "byteLength": 3138828,
   "uri": "bld_ruin.bin"
  }
 ]
}