{
 "asset": {
  "generator": "Khronos glTF Blender I/O v4.5.51",
  "version": "2.0"
 },
 "scene": 0,
 "scenes": [
  {
   "name": "Scene",
   "nodes": [
    0,
    1,
    2,
    3,
    4,
    5,
    6,
    7
   ]
  }
 ],
 "nodes": [
  {
   "mesh": 0,
   "name": "prop_market_stall_a"
  },
  {
   "mesh": 1,
   "name": "col_wood_1"
  },
  {
   "mesh": 2,
   "name": "col_wood_2"
  },
  {
   "mesh": 3,
   "name": "col_wood_3"
  },
  {
   "mesh": 4,
   "name": "col_wood_4"
  },
  {
   "mesh": 5,
   "name": "loot_food_1"
  },
  {
   "mesh": 6,
   "name": "col_wood_5"
  },
  {
   "mesh": 7,
   "name": "col_wood_6"
  }
 ],
 "materials": [
  {
   "doubleSided": true,
   "name": "prop_market_stall_a",
   "normalTexture": {
    "index": 0
   },
   "occlusionTexture": {
    "index": 1
   },
   "pbrMetallicRoughness": {
    "baseColorTexture": {
     "index": 2
    },
    "metallicRoughnessTexture": {
     "index": 1
    }
   }
  }
 ],
 "meshes": [
  {
   "name": "prop_market_stall_a",
   "primitives": [
    {
     "attributes": {
      "POSITION": 0,
      "NORMAL": 1,
      "TEXCOORD_0": 2
     },
     "indices": 3,
     "material": 0
    }
   ]
  },
  {
   "name": "col_wood_1",
   "primitives": [
    {
     "attributes": {
      "POSITION": 4,
      "NORMAL": 5,
      "TEXCOORD_0": 6
     },
     "indices": 7,
     "material": 0
    }
   ]
  },
  {
   "name": "col_wood_2",
   "primitives": [
    {
     "attributes": {
      "POSITION": 8,
      "NORMAL": 9,
      "TEXCOORD_0": 10
     },
     "indices": 7,
     "material": 0
    }
   ]
  },
  {
   "name": "col_wood_3",
   "primitives": [
    {
     "attributes": {
      "POSITION": 11,
      "NORMAL": 12,
      "TEXCOORD_0": 13
     },
     "indices": 7,
     "material": 0
    }
   ]
  },
  {
   "name": "col_wood_4",
   "primitives": [
    {
     "attributes": {
      "POSITION": 14,
      "NORMAL": 15,
      "TEXCOORD_0": 16
     },
     "indices": 7,
     "material": 0
    }
   ]
  },
  {
   "name": "loot_food_1",
   "primitives": [
    {
     "attributes": {
      "POSITION": 17,
      "NORMAL": 18,
      "TEXCOORD_0": 19
     },
     "indices": 7,
     "material": 0
    }
   ]
  },
  {
   "name": "col_wood_5",
   "primitives": [
    {
     "attributes": {
      "POSITION": 20,
      "NORMAL": 21,
      "TEXCOORD_0": 22
     },
     "indices": 7,
     "material": 0
    }
   ]
  },
  {
   "name": "col_wood_6",
   "primitives": [
    {
     "attributes": {
      "POSITION": 23,
      "NORMAL": 24,
      "TEXCOORD_0": 25
     },
     "indices": 7,
     "material": 0
    }
   ]
  }
 ],
 "textures": [
  {
   "sampler": 0,
   "source": 0
  },
  {
   "sampler": 0,
   "source": 1
  },
  {
   "sampler": 0,
   "source": 2
  }
 ],
 "images": [
  {
   "mimeType": "image/png",
   "name": "prop_market_stall_a_normal",
   "uri": "prop_market_stall_a_normal.png"
  },
  {
   "mimeType": "image/png",
   "name": "prop_market_stall_a_orm",
   "uri": "prop_market_stall_a_orm.png"
  },
  {
   "mimeType": "image/png",
   "name": "prop_market_stall_a_albedo",
   "uri": "prop_market_stall_a_albedo.png"
  }
 ],
 "accessors": [
  {
   "bufferView": 0,
   "componentType": 5126,
   "count": 9348,
   "max": [
    1.6556986570358276,
    2.368000030517578,
    1.197884440422058
   ],
   "min": [
    -1.4029983282089233,
    -0.04999995231628418,
    -0.8013604879379272
   ],
   "type": "VEC3"
  },
  {
   "bufferView": 1,
   "componentType": 5126,
   "count": 9348,
   "type": "VEC3"
  },
  {
   "bufferView": 2,
   "componentType": 5126,
   "count": 9348,
   "type": "VEC2"
  },
  {
   "bufferView": 3,
   "componentType": 5123,
   "count": 23904,
   "type": "SCALAR"
  },
  {
   "bufferView": 4,
   "componentType": 5126,
   "count": 24,
   "max": [
    -1.159999966621399,
    2.049999952316284,
    0.6399999856948853
   ],
   "min": [
    -1.2400000095367432,
    0,
    0.5600000023841858
   ],
   "type": "VEC3"
  },
  {
   "bufferView": 5,
   "componentType": 5126,
   "count": 24,
   "type": "VEC3"
  },
  {
   "bufferView": 6,
   "componentType": 5126,
   "count": 24,
   "type": "VEC2"
  },
  {
   "bufferView": 7,
   "componentType": 5123,
   "count": 36,
   "type": "SCALAR"
  },
  {
   "bufferView": 8,
   "componentType": 5126,
   "count": 24,
   "max": [
    -1.159999966621399,
    2.319999933242798,
    -0.5600000023841858
   ],
   "min": [
    -1.2400000095367432,
    0,
    -0.6399999856948853
   ],
   "type": "VEC3"
  },
  {
   "bufferView": 9,
   "componentType": 5126,
   "count": 24,
   "type": "VEC3"
  },
  {
   "bufferView": 10,
   "componentType": 5126,
   "count": 24,
   "type": "VEC2"
  },
  {
   "bufferView": 11,
   "componentType": 5126,
   "count": 24,
   "max": [
    1.2400000095367432,
    2.049999952316284,
    0.6399999856948853
   ],
   "min": [
    1.159999966621399,
    0,
    0.5600000023841858
   ],
   "type": "VEC3"
  },
  {
   "bufferView": 12,
   "componentType": 5126,
   "count": 24,
   "type": "VEC3"
  },
  {
   "bufferView": 13,
   "componentType": 5126,
   "count": 24,
   "type": "VEC2"
  },
  {
   "bufferView": 14,
   "componentType": 5126,
   "count": 24,
   "max": [
    1.2400000095367432,
    2.319999933242798,
    -0.5600000023841858
   ],
   "min": [
    1.159999966621399,
    0,
    -0.6399999856948853
   ],
   "type": "VEC3"
  },
  {
   "bufferView": 15,
   "componentType": 5126,
   "count": 24,
   "type": "VEC3"
  },
  {
   "bufferView": 16,
   "componentType": 5126,
   "count": 24,
   "type": "VEC2"
  },
  {
   "bufferView": 17,
   "componentType": 5126,
   "count": 24,
   "max": [
    0.25,
    0.9900000095367432,
    0.3500000238418579
   ],
   "min": [
    0.15000000596046448,
    0.8899999856948853,
    0.25
   ],
   "type": "VEC3"
  },
  {
   "bufferView": 18,
   "componentType": 5126,
   "count": 24,
   "type": "VEC3"
  },
  {
   "bufferView": 19,
   "componentType": 5126,
   "count": 24,
   "type": "VEC2"
  },
  {
   "bufferView": 20,
   "componentType": 5126,
   "count": 24,
   "max": [
    1.149999976158142,
    0.8899999856948853,
    0.5600000023841858
   ],
   "min": [
    -1.149999976158142,
    0,
    0.03999999910593033
   ],
   "type": "VEC3"
  },
  {
   "bufferView": 21,
   "componentType": 5126,
   "count": 24,
   "type": "VEC3"
  },
  {
   "bufferView": 22,
   "componentType": 5126,
   "count": 24,
   "type": "VEC2"
  },
  {
   "bufferView": 23,
   "componentType": 5126,
   "count": 24,
   "max": [
    1.0499999523162842,
    0.5,
    0
   ],
   "min": [
    0.44999998807907104,
    0,
    -0.5
   ],
   "type": "VEC3"
  },
  {
   "bufferView": 24,
   "componentType": 5126,
   "count": 24,
   "type": "VEC3"
  },
  {
   "bufferView": 25,
   "componentType": 5126,
   "count": 24,
   "type": "VEC2"
  }
 ],
 "bufferViews": [
  {
   "buffer": 0,
   "byteLength": 112176,
   "byteOffset": 0,
   "target": 34962
  },
  {
   "buffer": 0,
   "byteLength": 112176,
   "byteOffset": 112176,
   "target": 34962
  },
  {
   "buffer": 0,
   "byteLength": 74784,
   "byteOffset": 224352,
   "target": 34962
  },
  {
   "buffer": 0,
   "byteLength": 47808,
   "byteOffset": 299136,
   "target": 34963
  },
  {
   "buffer": 0,
   "byteLength": 288,
   "byteOffset": 346944,
   "target": 34962
  },
  {
   "buffer": 0,
   "byteLength": 288,
   "byteOffset": 347232,
   "target": 34962
  },
  {
   "buffer": 0,
   "byteLength": 192,
   "byteOffset": 347520,
   "target": 34962
  },
  {
   "buffer": 0,
   "byteLength": 72,
   "byteOffset": 347712,
   "target": 34963
  },
  {
   "buffer": 0,
   "byteLength": 288,
   "byteOffset": 347784,
   "target": 34962
  },
  {
   "buffer": 0,
   "byteLength": 288,
   "byteOffset": 348072,
   "target": 34962
  },
  {
   "buffer": 0,
   "byteLength": 192,
   "byteOffset": 348360,
   "target": 34962
  },
  {
   "buffer": 0,
   "byteLength": 288,
   "byteOffset": 348552,
   "target": 34962
  },
  {
   "buffer": 0,
   "byteLength": 288,
   "byteOffset": 348840,
   "target": 34962
  },
  {
   "buffer": 0,
   "byteLength": 192,
   "byteOffset": 349128,
   "target": 34962
  },
  {
   "buffer": 0,
   "byteLength": 288,
   "byteOffset": 349320,
   "target": 34962
  },
  {
   "buffer": 0,
   "byteLength": 288,
   "byteOffset": 349608,
   "target": 34962
  },
  {
   "buffer": 0,
   "byteLength": 192,
   "byteOffset": 349896,
   "target": 34962
  },
  {
   "buffer": 0,
   "byteLength": 288,
   "byteOffset": 350088,
   "target": 34962
  },
  {
   "buffer": 0,
   "byteLength": 288,
   "byteOffset": 350376,
   "target": 34962
  },
  {
   "buffer": 0,
   "byteLength": 192,
   "byteOffset": 350664,
   "target": 34962
  },
  {
   "buffer": 0,
   "byteLength": 288,
   "byteOffset": 350856,
   "target": 34962
  },
  {
   "buffer": 0,
   "byteLength": 288,
   "byteOffset": 351144,
   "target": 34962
  },
  {
   "buffer": 0,
   "byteLength": 192,
   "byteOffset": 351432,
   "target": 34962
  },
  {
   "buffer": 0,
   "byteLength": 288,
   "byteOffset": 351624,
   "target": 34962
  },
  {
   "buffer": 0,
   "byteLength": 288,
   "byteOffset": 351912,
   "target": 34962
  },
  {
   "buffer": 0,
   "byteLength": 192,
   "byteOffset": 352200,
   "target": 34962
  }
 ],
 "samplers": [
  {
   "magFilter": 9729,
   "minFilter": 9987
  }
 ],
 "buffers": [
  {
   "byteLength": 352392,
   "uri": "prop_market_stall_a.bin"
  }
 ]
}