{
 "asset": {
  "generator": "zero point flora",
  "version": "2.0"
 },
 "scene": 0,
 "scenes": [
  {
   "name": "Scene",
   "nodes": [
    0,
    1
   ]
  }
 ],
 "nodes": [
  {
   "mesh": 0,
   "name": "trunk"
  },
  {
   "mesh": 1,
   "name": "foliage"
  }
 ],
 "materials": [
  {
   "name": "bark",
   "doubleSided": false,
   "pbrMetallicRoughness": {
    "baseColorTexture": {
     "index": 0
    },
    "metallicRoughnessTexture": {
     "index": 2
    },
    "metallicFactor": 0.0,
    "roughnessFactor": 1.0
   },
   "normalTexture": {
    "index": 1
   },
   "occlusionTexture": {
    "index": 2
   }
  },
  {
   "name": "leaf",
   "doubleSided": true,
   "pbrMetallicRoughness": {
    "baseColorTexture": {
     "index": 3
    },
    "metallicRoughnessTexture": {
     "index": 5
    },
    "metallicFactor": 0.0,
    "roughnessFactor": 1.0
   },
   "normalTexture": {
    "index": 4
   },
   "occlusionTexture": {
    "index": 5
   },
   "alphaMode": "MASK",
   "alphaCutoff": 0.5
  }
 ],
 "meshes": [
  {
   "name": "flora_birch_2_far_bark",
   "primitives": [
    {
     "attributes": {
      "POSITION": 0,
      "NORMAL": 1,
      "TEXCOORD_0": 2
     },
     "indices": 3,
     "material": 0
    }
   ]
  },
  {
   "name": "flora_birch_2_far_foliage",
   "primitives": [
    {
     "attributes": {
      "POSITION": 4,
      "NORMAL": 5,
      "TEXCOORD_0": 6
     },
     "indices": 7,
     "material": 1
    }
   ]
  }
 ],
 "textures": [
  {
   "sampler": 0,
   "source": 0
  },
  {
   "sampler": 0,
   "source": 1
  },
  {
   "sampler": 0,
   "source": 2
  },
  {
   "sampler": 0,
   "source": 3
  },
  {
   "sampler": 0,
   "source": 4
  },
  {
   "sampler": 0,
   "source": 5
  }
 ],
 "images": [
  {
   "mimeType": "image/png",
   "name": "flora_birch_bark_diff_2k.png",
   "uri": "../flora_birch_0/flora_birch_bark_diff_2k.png"
  },
  {
   "mimeType": "image/png",
   "name": "flora_birch_bark_nor_gl_2k.png",
   "uri": "../flora_birch_0/flora_birch_bark_nor_gl_2k.png"
  },
  {
   "mimeType": "image/png",
   "name": "flora_birch_bark_arm_2k.png",
   "uri": "../flora_birch_0/flora_birch_bark_arm_2k.png"
  },
  {
   "mimeType": "image/png",
   "name": "flora_birch_leaf_diff_2k.png",
   "uri": "../flora_birch_0/flora_birch_leaf_diff_2k.png"
  },
  {
   "mimeType": "image/png",
   "name": "flora_birch_leaf_nor_gl_2k.png",
   "uri": "../flora_birch_0/flora_birch_leaf_nor_gl_2k.png"
  },
  {
   "mimeType": "image/png",
   "name": "flora_birch_leaf_arm_2k.png",
   "uri": "../flora_birch_0/flora_birch_leaf_arm_2k.png"
  }
 ],
 "accessors": [
  {
   "bufferView": 0,
   "componentType": 5126,
   "count": 1240,
   "max": [
    2.4367823600769043,
    8.855746269226074,
    2.790546417236328
   ],
   "min": [
    -2.062544345855713,
    -0.5402081608772278,
    -1.3745735883712769
   ],
   "type": "VEC3"
  },
  {
   "bufferView": 1,
   "componentType": 5126,
   "count": 1240,
   "type": "VEC3"
  },
  {
   "bufferView": 2,
   "componentType": 5126,
   "count": 1240,
   "type": "VEC2"
  },
  {
   "bufferView": 3,
   "componentType": 5123,
   "count": 3258,
   "type": "SCALAR"
  },
  {
   "bufferView": 4,
   "componentType": 5126,
   "count": 1304,
   "max": [
    3.0501105785369873,
    9.476930618286133,
    3.5753631591796875
   ],
   "min": [
    -2.566455364227295,
    2.7771377563476562,
    -1.8517496585845947
   ],
   "type": "VEC3"
  },
  {
   "bufferView": 5,
   "componentType": 5126,
   "count": 1304,
   "type": "VEC3"
  },
  {
   "bufferView": 6,
   "componentType": 5126,
   "count": 1304,
   "type": "VEC2"
  },
  {
   "bufferView": 7,
   "componentType": 5123,
   "count": 1956,
   "type": "SCALAR"
  }
 ],
 "bufferViews": [
  {
   "buffer": 0,
   "byteLength": 14880,
   "byteOffset": 0,
   "target": 34962
  },
  {
   "buffer": 0,
   "byteLength": 14880,
   "byteOffset": 14880,
   "target": 34962
  },
  {
   "buffer": 0,
   "byteLength": 9920,
   "byteOffset": 29760,
   "target": 34962
  },
  {
   "buffer": 0,
   "byteLength": 6516,
   "byteOffset": 39680,
   "target": 34963
  },
  {
   "buffer": 0,
   "byteLength": 15648,
   "byteOffset": 46196,
   "target": 34962
  },
  {
   "buffer": 0,
   "byteLength": 15648,
   "byteOffset": 61844,
   "target": 34962
  },
  {
   "buffer": 0,
   "byteLength": 10432,
   "byteOffset": 77492,
   "target": 34962
  },
  {
   "buffer": 0,
   "byteLength": 3912,
   "byteOffset": 87924,
   "target": 34963
  }
 ],
 "samplers": [
  {
   "magFilter": 9729,
   "minFilter": 9987,
   "wrapS": 10497,
   "wrapT": 10497
  }
 ],
 "buffers": [
  {
   "byteLength": 91836,
   "uri": "flora_birch_2_far.bin"
  }
 ]
}