{
 "asset": {
  "generator": "Khronos glTF Blender I/O v4.5.51",
  "version": "2.0"
 },
 "scene": 0,
 "scenes": [
  {
   "name": "Scene",
   "nodes": [
    0
   ]
  }
 ],
 "nodes": [
  {
   "mesh": 0,
   "name": "prop_litter_bin_far"
  }
 ],
 "materials": [
  {
   "doubleSided": true,
   "name": "prop_litter_bin",
   "normalTexture": {
    "index": 0
   },
   "occlusionTexture": {
    "index": 1
   },
   "pbrMetallicRoughness": {
    "baseColorTexture": {
     "index": 2
    },
    "metallicRoughnessTexture": {
     "index": 1
    }
   }
  }
 ],
 "meshes": [
  {
   "name": "prop_litter_bin_far",
   "primitives": [
    {
     "attributes": {
      "POSITION": 0,
      "NORMAL": 1,
      "TEXCOORD_0": 2
     },
     "indices": 3,
     "material": 0
    }
   ]
  }
 ],
 "textures": [
  {
   "sampler": 0,
   "source": 0
  },
  {
   "sampler": 0,
   "source": 1
  },
  {
   "sampler": 0,
   "source": 2
  }
 ],
 "images": [
  {
   "mimeType": "image/png",
   "name": "prop_litter_bin_normal",
   "uri": "../prop_litter_bin/prop_litter_bin_normal.png"
  },
  {
   "mimeType": "image/png",
   "name": "prop_litter_bin_orm",
   "uri": "../prop_litter_bin/prop_litter_bin_orm.png"
  },
  {
   "mimeType": "image/png",
   "name": "prop_litter_bin_albedo",
   "uri": "../prop_litter_bin/prop_litter_bin_albedo.png"
  }
 ],
 "accessors": [
  {
   "bufferView": 0,
   "componentType": 5126,
   "count": 154,
   "max": [
    0.25999996066093445,
    1.0399999618530273,
    0.25999999046325684
   ],
   "min": [
    -0.2600000202655792,
    -1.0927847071684482e-08,
    -0.25999999046325684
   ],
   "type": "VEC3"
  },
  {
   "bufferView": 1,
   "componentType": 5126,
   "count": 154,
   "type": "VEC3"
  },
  {
   "bufferView": 2,
   "componentType": 5126,
   "count": 154,
   "type": "VEC2"
  },
  {
   "bufferView": 3,
   "componentType": 5123,
   "count": 336,
   "type": "SCALAR"
  }
 ],
 "bufferViews": [
  {
   "buffer": 0,
   "byteLength": 1848,
   "byteOffset": 0,
   "target": 34962
  },
  {
   "buffer": 0,
   "byteLength": 1848,
   "byteOffset": 1848,
   "target": 34962
  },
  {
   "buffer": 0,
   "byteLength": 1232,
   "byteOffset": 3696,
   "target": 34962
  },
  {
   "buffer": 0,
   "byteLength": 672,
   "byteOffset": 4928,
   "target": 34963
  }
 ],
 "samplers": [
  {
   "magFilter": 9729,
   "minFilter": 9987
  }
 ],
 "buffers": [
  {
   "byteLength": 5600,
   "uri": "prop_litter_bin_far.bin"
  }
 ]
}