{
 "asset": {
  "generator": "Khronos glTF Blender I/O v4.5.51",
  "version": "2.0"
 },
 "scene": 0,
 "scenes": [
  {
   "name": "Scene",
   "nodes": [
    0,
    1,
    2,
    3,
    4,
    5,
    6,
    7,
    8,
    9,
    10,
    11,
    12,
    13,
    14
   ]
  }
 ],
 "nodes": [
  {
   "mesh": 0,
   "name": "body"
  },
  {
   "mesh": 1,
   "name": "rotor_main",
   "translation": [
    0,
    2.619999885559082,
    -0.25
   ]
  },
  {
   "mesh": 2,
   "name": "rotor_tail",
   "translation": [
    0.33000001311302185,
    1.9299999475479126,
    -6.21999979019165
   ]
  },
  {
   "mesh": 3,
   "name": "col_metal_1"
  },
  {
   "mesh": 4,
   "name": "col_metal_2"
  },
  {
   "mesh": 5,
   "name": "col_metal_3"
  },
  {
   "mesh": 6,
   "name": "col_metal_4"
  },
  {
   "mesh": 7,
   "name": "col_metal_5"
  },
  {
   "mesh": 8,
   "name": "col_metal_6"
  },
  {
   "mesh": 9,
   "name": "seat_pilot"
  },
  {
   "mesh": 10,
   "name": "seat_passenger"
  },
  {
   "mesh": 11,
   "name": "light_head"
  },
  {
   "mesh": 12,
   "name": "light_nav_l"
  },
  {
   "mesh": 13,
   "name": "light_nav_r"
  },
  {
   "mesh": 14,
   "name": "light_tail"
  }
 ],
 "materials": [
  {
   "doubleSided": true,
   "name": "veh_heli_hull",
   "normalTexture": {
    "index": 0
   },
   "occlusionTexture": {
    "index": 1
   },
   "pbrMetallicRoughness": {
    "baseColorTexture": {
     "index": 2
    },
    "metallicRoughnessTexture": {
     "index": 1
    }
   }
  },
  {
   "doubleSided": true,
   "name": "veh_heli_frame",
   "normalTexture": {
    "index": 3
   },
   "occlusionTexture": {
    "index": 4
   },
   "pbrMetallicRoughness": {
    "baseColorTexture": {
     "index": 5
    },
    "metallicRoughnessTexture": {
     "index": 4
    }
   }
  },
  {
   "doubleSided": true,
   "name": "veh_heli_engine",
   "normalTexture": {
    "index": 6
   },
   "occlusionTexture": {
    "index": 7
   },
   "pbrMetallicRoughness": {
    "baseColorTexture": {
     "index": 8
    },
    "metallicRoughnessTexture": {
     "index": 7
    }
   }
  },
  {
   "doubleSided": true,
   "name": "veh_heli_rotor",
   "normalTexture": {
    "index": 9
   },
   "occlusionTexture": {
    "index": 10
   },
   "pbrMetallicRoughness": {
    "baseColorTexture": {
     "index": 11
    },
    "metallicRoughnessTexture": {
     "index": 10
    }
   }
  }
 ],
 "meshes": [
  {
   "name": "body",
   "primitives": [
    {
     "attributes": {
      "POSITION": 0,
      "NORMAL": 1,
      "TEXCOORD_0": 2
     },
     "indices": 3,
     "material": 0
    },
    {
     "attributes": {
      "POSITION": 4,
      "NORMAL": 5,
      "TEXCOORD_0": 6
     },
     "indices": 7,
     "material": 1
    },
    {
     "attributes": {
      "POSITION": 8,
      "NORMAL": 9,
      "TEXCOORD_0": 10
     },
     "indices": 11,
     "material": 2
    }
   ]
  },
  {
   "name": "rotor_main",
   "primitives": [
    {
     "attributes": {
      "POSITION": 12,
      "NORMAL": 13,
      "TEXCOORD_0": 14
     },
     "indices": 15,
     "material": 3
    }
   ]
  },
  {
   "name": "rotor_tail",
   "primitives": [
    {
     "attributes": {
      "POSITION": 16,
      "NORMAL": 17,
      "TEXCOORD_0": 18
     },
     "indices": 19,
     "material": 3
    }
   ]
  },
  {
   "name": "col_metal_1",
   "primitives": [
    {
     "attributes": {
      "POSITION": 20,
      "NORMAL": 21,
      "TEXCOORD_0": 22
     },
     "indices": 23,
     "material": 0
    }
   ]
  },
  {
   "name": "col_metal_2",
   "primitives": [
    {
     "attributes": {
      "POSITION": 24,
      "NORMAL": 25,
      "TEXCOORD_0": 26
     },
     "indices": 23,
     "material": 0
    }
   ]
  },
  {
   "name": "col_metal_3",
   "primitives": [
    {
     "attributes": {
      "POSITION": 27,
      "NORMAL": 28,
      "TEXCOORD_0": 29
     },
     "indices": 23,
     "material": 0
    }
   ]
  },
  {
   "name": "col_metal_4",
   "primitives": [
    {
     "attributes": {
      "POSITION": 30,
      "NORMAL": 31,
      "TEXCOORD_0": 32
     },
     "indices": 23,
     "material": 0
    }
   ]
  },
  {
   "name": "col_metal_5",
   "primitives": [
    {
     "attributes": {
      "POSITION": 33,
      "NORMAL": 34,
      "TEXCOORD_0": 35
     },
     "indices": 23,
     "material": 0
    }
   ]
  },
  {
   "name": "col_metal_6",
   "primitives": [
    {
     "attributes": {
      "POSITION": 36,
      "NORMAL": 37,
      "TEXCOORD_0": 38
     },
     "indices": 23,
     "material": 0
    }
   ]
  },
  {
   "name": "seat_pilot",
   "primitives": [
    {
     "attributes": {
      "POSITION": 39,
      "NORMAL": 40,
      "TEXCOORD_0": 41
     },
     "indices": 23,
     "material": 0
    }
   ]
  },
  {
   "name": "seat_passenger",
   "primitives": [
    {
     "attributes": {
      "POSITION": 42,
      "NORMAL": 43,
      "TEXCOORD_0": 44
     },
     "indices": 23,
     "material": 0
    }
   ]
  },
  {
   "name": "light_head",
   "primitives": [
    {
     "attributes": {
      "POSITION": 45,
      "NORMAL": 46,
      "TEXCOORD_0": 47
     },
     "indices": 23,
     "material": 0
    }
   ]
  },
  {
   "name": "light_nav_l",
   "primitives": [
    {
     "attributes": {
      "POSITION": 48,
      "NORMAL": 49,
      "TEXCOORD_0": 50
     },
     "indices": 23,
     "material": 0
    }
   ]
  },
  {
   "name": "light_nav_r",
   "primitives": [
    {
     "attributes": {
      "POSITION": 51,
      "NORMAL": 52,
      "TEXCOORD_0": 53
     },
     "indices": 23,
     "material": 0
    }
   ]
  },
  {
   "name": "light_tail",
   "primitives": [
    {
     "attributes": {
      "POSITION": 54,
      "NORMAL": 55,
      "TEXCOORD_0": 56
     },
     "indices": 23,
     "material": 0
    }
   ]
  }
 ],
 "textures": [
  {
   "sampler": 0,
   "source": 0
  },
  {
   "sampler": 0,
   "source": 1
  },
  {
   "sampler": 0,
   "source": 2
  },
  {
   "sampler": 0,
   "source": 3
  },
  {
   "sampler": 0,
   "source": 4
  },
  {
   "sampler": 0,
   "source": 5
  },
  {
   "sampler": 0,
   "source": 6
  },
  {
   "sampler": 0,
   "source": 7
  },
  {
   "sampler": 0,
   "source": 8
  },
  {
   "sampler": 0,
   "source": 9
  },
  {
   "sampler": 0,
   "source": 10
  },
  {
   "sampler": 0,
   "source": 11
  }
 ],
 "images": [
  {
   "mimeType": "image/png",
   "name": "veh_heli_hull_normal",
   "uri": "veh_heli_hull_normal.png"
  },
  {
   "mimeType": "image/png",
   "name": "veh_heli_hull_orm",
   "uri": "veh_heli_hull_orm.png"
  },
  {
   "mimeType": "image/png",
   "name": "veh_heli_hull_albedo",
   "uri": "veh_heli_hull_albedo.png"
  },
  {
   "mimeType": "image/png",
   "name": "veh_heli_frame_normal",
   "uri": "veh_heli_frame_normal.png"
  },
  {
   "mimeType": "image/png",
   "name": "veh_heli_frame_orm",
   "uri": "veh_heli_frame_orm.png"
  },
  {
   "mimeType": "image/png",
   "name": "veh_heli_frame_albedo",
   "uri": "veh_heli_frame_albedo.png"
  },
  {
   "mimeType": "image/png",
   "name": "veh_heli_engine_normal",
   "uri": "veh_heli_engine_normal.png"
  },
  {
   "mimeType": "image/png",
   "name": "veh_heli_engine_orm",
   "uri": "veh_heli_engine_orm.png"
  },
  {
   "mimeType": "image/png",
   "name": "veh_heli_engine_albedo",
   "uri": "veh_heli_engine_albedo.png"
  },
  {
   "mimeType": "image/png",
   "name": "veh_heli_rotor_normal",
   "uri": "veh_heli_rotor_normal.png"
  },
  {
   "mimeType": "image/png",
   "name": "veh_heli_rotor_orm",
   "uri": "veh_heli_rotor_orm.png"
  },
  {
   "mimeType": "image/png",
   "name": "veh_heli_rotor_albedo",
   "uri": "veh_heli_rotor_albedo.png"
  }
 ],
 "accessors": [
  {
   "bufferView": 0,
   "componentType": 5126,
   "count": 6602,
   "max": [
    0.8450000286102295,
    2.950000047683716,
    2.631995916366577
   ],
   "min": [
    -0.8450000286102295,
    0.6399999856948853,
    -6.719579219818115
   ],
   "type": "VEC3"
  },
  {
   "bufferView": 1,
   "componentType": 5126,
   "count": 6602,
   "type": "VEC3"
  },
  {
   "bufferView": 2,
   "componentType": 5126,
   "count": 6602,
   "type": "VEC2"
  },
  {
   "bufferView": 3,
   "componentType": 5123,
   "count": 13140,
   "type": "SCALAR"
  },
  {
   "bufferView": 4,
   "componentType": 5126,
   "count": 18165,
   "max": [
    1.059999942779541,
    2.1875104904174805,
    2.572000026702881
   ],
   "min": [
    -1.059999942779541,
    -0.0010554678738117218,
    -6.721949577331543
   ],
   "type": "VEC3"
  },
  {
   "bufferView": 5,
   "componentType": 5126,
   "count": 18165,
   "type": "VEC3"
  },
  {
   "bufferView": 6,
   "componentType": 5126,
   "count": 18165,
   "type": "VEC2"
  },
  {
   "bufferView": 7,
   "componentType": 5123,
   "count": 39132,
   "type": "SCALAR"
  },
  {
   "bufferView": 8,
   "componentType": 5126,
   "count": 10069,
   "max": [
    0.625499963760376,
    2.43999981880188,
    1.9500000476837158
   ],
   "min": [
    -0.9399999976158142,
    0.6600000262260437,
    -6.420000076293945
   ],
   "type": "VEC3"
  },
  {
   "bufferView": 9,
   "componentType": 5126,
   "count": 10069,
   "type": "VEC3"
  },
  {
   "bufferView": 10,
   "componentType": 5126,
   "count": 10069,
   "type": "VEC2"
  },
  {
   "bufferView": 11,
   "componentType": 5123,
   "count": 23460,
   "type": "SCALAR"
  },
  {
   "bufferView": 12,
   "componentType": 5126,
   "count": 1662,
   "max": [
    4,
    0.09999990463256836,
    0.20999999344348907
   ],
   "min": [
    -4,
    -0.2999999523162842,
    -0.20999997854232788
   ],
   "type": "VEC3"
  },
  {
   "bufferView": 13,
   "componentType": 5126,
   "count": 1662,
   "type": "VEC3"
  },
  {
   "bufferView": 14,
   "componentType": 5126,
   "count": 1662,
   "type": "VEC2"
  },
  {
   "bufferView": 15,
   "componentType": 5123,
   "count": 4236,
   "type": "SCALAR"
  },
  {
   "bufferView": 16,
   "componentType": 5126,
   "count": 416,
   "max": [
    0.08000001311302185,
    0.6999999284744263,
    0.06099987030029297
   ],
   "min": [
    -0.06000000238418579,
    -0.6999999284744263,
    -0.06099987030029297
   ],
   "type": "VEC3"
  },
  {
   "bufferView": 17,
   "componentType": 5126,
   "count": 416,
   "type": "VEC3"
  },
  {
   "bufferView": 18,
   "componentType": 5126,
   "count": 416,
   "type": "VEC2"
  },
  {
   "bufferView": 19,
   "componentType": 5123,
   "count": 1368,
   "type": "SCALAR"
  },
  {
   "bufferView": 20,
   "componentType": 5126,
   "count": 24,
   "max": [
    0.800000011920929,
    2.059999942779541,
    2.5999999046325684
   ],
   "min": [
    -0.800000011920929,
    0.6000000238418579,
    -0.11999999731779099
   ],
   "type": "VEC3"
  },
  {
   "bufferView": 21,
   "componentType": 5126,
   "count": 24,
   "type": "VEC3"
  },
  {
   "bufferView": 22,
   "componentType": 5126,
   "count": 24,
   "type": "VEC2"
  },
  {
   "bufferView": 23,
   "componentType": 5123,
   "count": 36,
   "type": "SCALAR"
  },
  {
   "bufferView": 24,
   "componentType": 5126,
   "count": 24,
   "max": [
    0.7599999904632568,
    2.180000066757202,
    -0.11999999731779099
   ],
   "min": [
    -0.7599999904632568,
    0.6000000238418579,
    -1.7000000476837158
   ],
   "type": "VEC3"
  },
  {
   "bufferView": 25,
   "componentType": 5126,
   "count": 24,
   "type": "VEC3"
  },
  {
   "bufferView": 26,
   "componentType": 5126,
   "count": 24,
   "type": "VEC2"
  },
  {
   "bufferView": 27,
   "componentType": 5126,
   "count": 24,
   "max": [
    0.3799999952316284,
    2.0999999046325684,
    -1.7000000476837158
   ],
   "min": [
    -0.3799999952316284,
    1.4500000476837158,
    -6.449999809265137
   ],
   "type": "VEC3"
  },
  {
   "bufferView": 28,
   "componentType": 5126,
   "count": 24,
   "type": "VEC3"
  },
  {
   "bufferView": 29,
   "componentType": 5126,
   "count": 24,
   "type": "VEC2"
  },
  {
   "bufferView": 30,
   "componentType": 5126,
   "count": 24,
   "max": [
    0.07000000029802322,
    2.9800000190734863,
    -5.900000095367432
   ],
   "min": [
    -0.07000000029802322,
    1.7000000476837158,
    -6.75
   ],
   "type": "VEC3"
  },
  {
   "bufferView": 31,
   "componentType": 5126,
   "count": 24,
   "type": "VEC3"
  },
  {
   "bufferView": 32,
   "componentType": 5126,
   "count": 24,
   "type": "VEC2"
  },
  {
   "bufferView": 33,
   "componentType": 5126,
   "count": 24,
   "max": [
    -0.949999988079071,
    0.10000000149011612,
    1.850000023841858
   ],
   "min": [
    -1.0499999523162842,
    0,
    -2.049999952316284
   ],
   "type": "VEC3"
  },
  {
   "bufferView": 34,
   "componentType": 5126,
   "count": 24,
   "type": "VEC3"
  },
  {
   "bufferView": 35,
   "componentType": 5126,
   "count": 24,
   "type": "VEC2"
  },
  {
   "bufferView": 36,
   "componentType": 5126,
   "count": 24,
   "max": [
    1.0499999523162842,
    0.10000000149011612,
    1.850000023841858
   ],
   "min": [
    0.949999988079071,
    0,
    -2.049999952316284
   ],
   "type": "VEC3"
  },
  {
   "bufferView": 37,
   "componentType": 5126,
   "count": 24,
   "type": "VEC3"
  },
  {
   "bufferView": 38,
   "componentType": 5126,
   "count": 24,
   "type": "VEC2"
  },
  {
   "bufferView": 39,
   "componentType": 5126,
   "count": 24,
   "max": [
    -0.33500000834465027,
    1.7549999952316284,
    1.215000033378601
   ],
   "min": [
    -0.3649999797344208,
    1.725000023841858,
    1.1850000619888306
   ],
   "type": "VEC3"
  },
  {
   "bufferView": 40,
   "componentType": 5126,
   "count": 24,
   "type": "VEC3"
  },
  {
   "bufferView": 41,
   "componentType": 5126,
   "count": 24,
   "type": "VEC2"
  },
  {
   "bufferView": 42,
   "componentType": 5126,
   "count": 24,
   "max": [
    0.3649999797344208,
    1.7549999952316284,
    1.215000033378601
   ],
   "min": [
    0.33500000834465027,
    1.725000023841858,
    1.1850000619888306
   ],
   "type": "VEC3"
  },
  {
   "bufferView": 43,
   "componentType": 5126,
   "count": 24,
   "type": "VEC3"
  },
  {
   "bufferView": 44,
   "componentType": 5126,
   "count": 24,
   "type": "VEC2"
  },
  {
   "bufferView": 45,
   "componentType": 5126,
   "count": 24,
   "max": [
    0.014999999664723873,
    0.8450000286102295,
    2.5350000858306885
   ],
   "min": [
    -0.014999999664723873,
    0.815000057220459,
    2.504999876022339
   ],
   "type": "VEC3"
  },
  {
   "bufferView": 46,
   "componentType": 5126,
   "count": 24,
   "type": "VEC3"
  },
  {
   "bufferView": 47,
   "componentType": 5126,
   "count": 24,
   "type": "VEC2"
  },
  {
   "bufferView": 48,
   "componentType": 5126,
   "count": 24,
   "max": [
    0.824999988079071,
    0.9749999642372131,
    1.0149999856948853
   ],
   "min": [
    0.7950000166893005,
    0.9449999928474426,
    0.9850000143051147
   ],
   "type": "VEC3"
  },
  {
   "bufferView": 49,
   "componentType": 5126,
   "count": 24,
   "type": "VEC3"
  },
  {
   "bufferView": 50,
   "componentType": 5126,
   "count": 24,
   "type": "VEC2"
  },
  {
   "bufferView": 51,
   "componentType": 5126,
   "count": 24,
   "max": [
    -0.7950000166893005,
    0.9749999642372131,
    1.0149999856948853
   ],
   "min": [
    -0.824999988079071,
    0.9449999928474426,
    0.9850000143051147
   ],
   "type": "VEC3"
  },
  {
   "bufferView": 52,
   "componentType": 5126,
   "count": 24,
   "type": "VEC3"
  },
  {
   "bufferView": 53,
   "componentType": 5126,
   "count": 24,
   "type": "VEC2"
  },
  {
   "bufferView": 54,
   "componentType": 5126,
   "count": 24,
   "max": [
    0.014999999664723873,
    2.9150002002716064,
    -6.585000038146973
   ],
   "min": [
    -0.014999999664723873,
    2.884999990463257,
    -6.614999771118164
   ],
   "type": "VEC3"
  },
  {
   "bufferView": 55,
   "componentType": 5126,
   "count": 24,
   "type": "VEC3"
  },
  {
   "bufferView": 56,
   "componentType": 5126,
   "count": 24,
   "type": "VEC2"
  }
 ],
 "bufferViews": [
  {
   "buffer": 0,
   "byteLength": 79224,
   "byteOffset": 0,
   "target": 34962
  },
  {
   "buffer": 0,
   "byteLength": 79224,
   "byteOffset": 79224,
   "target": 34962
  },
  {
   "buffer": 0,
   "byteLength": 52816,
   "byteOffset": 158448,
   "target": 34962
  },
  {
   "buffer": 0,
   "byteLength": 26280,
   "byteOffset": 211264,
   "target": 34963
  },
  {
   "buffer": 0,
   "byteLength": 217980,
   "byteOffset": 237544,
   "target": 34962
  },
  {
   "buffer": 0,
   "byteLength": 217980,
   "byteOffset": 455524,
   "target": 34962
  },
  {
   "buffer": 0,
   "byteLength": 145320,
   "byteOffset": 673504,
   "target": 34962
  },
  {
   "buffer": 0,
   "byteLength": 78264,
   "byteOffset": 818824,
   "target": 34963
  },
  {
   "buffer": 0,
   "byteLength": 120828,
   "byteOffset": 897088,
   "target": 34962
  },
  {
   "buffer": 0,
   "byteLength": 120828,
   "byteOffset": 1017916,
   "target": 34962
  },
  {
   "buffer": 0,
   "byteLength": 80552,
   "byteOffset": 1138744,
   "target": 34962
  },
  {
   "buffer": 0,
   "byteLength": 46920,
   "byteOffset": 1219296,
   "target": 34963
  },
  {
   "buffer": 0,
   "byteLength": 19944,
   "byteOffset": 1266216,
   "target": 34962
  },
  {
   "buffer": 0,
   "byteLength": 19944,
   "byteOffset": 1286160,
   "target": 34962
  },
  {
   "buffer": 0,
   "byteLength": 13296,
   "byteOffset": 1306104,
   "target": 34962
  },
  {
   "buffer": 0,
   "byteLength": 8472,
   "byteOffset": 1319400,
   "target": 34963
  },
  {
   "buffer": 0,
   "byteLength": 4992,
   "byteOffset": 1327872,
   "target": 34962
  },
  {
   "buffer": 0,
   "byteLength": 4992,
   "byteOffset": 1332864,
   "target": 34962
  },
  {
   "buffer": 0,
   "byteLength": 3328,
   "byteOffset": 1337856,
   "target": 34962
  },
  {
   "buffer": 0,
   "byteLength": 2736,
   "byteOffset": 1341184,
   "target": 34963
  },
  {
   "buffer": 0,
   "byteLength": 288,
   "byteOffset": 1343920,
   "target": 34962
  },
  {
   "buffer": 0,
   "byteLength": 288,
   "byteOffset": 1344208,
   "target": 34962
  },
  {
   "buffer": 0,
   "byteLength": 192,
   "byteOffset": 1344496,
   "target": 34962
  },
  {
   "buffer": 0,
   "byteLength": 72,
   "byteOffset": 1344688,
   "target": 34963
  },
  {
   "buffer": 0,
   "byteLength": 288,
   "byteOffset": 1344760,
   "target": 34962
  },
  {
   "buffer": 0,
   "byteLength": 288,
   "byteOffset": 1345048,
   "target": 34962
  },
  {
   "buffer": 0,
   "byteLength": 192,
   "byteOffset": 1345336,
   "target": 34962
  },
  {
   "buffer": 0,
   "byteLength": 288,
   "byteOffset": 1345528,
   "target": 34962
  },
  {
   "buffer": 0,
   "byteLength": 288,
   "byteOffset": 1345816,
   "target": 34962
  },
  {
   "buffer": 0,
   "byteLength": 192,
   "byteOffset": 1346104,
   "target": 34962
  },
  {
   "buffer": 0,
   "byteLength": 288,
   "byteOffset": 1346296,
   "target": 34962
  },
  {
   "buffer": 0,
   "byteLength": 288,
   "byteOffset": 1346584,
   "target": 34962
  },
  {
   "buffer": 0,
   "byteLength": 192,
   "byteOffset": 1346872,
   "target": 34962
  },
  {
   "buffer": 0,
   "byteLength": 288,
   "byteOffset": 1347064,
   "target": 34962
  },
  {
   "buffer": 0,
   "byteLength": 288,
   "byteOffset": 1347352,
   "target": 34962
  },
  {
   "buffer": 0,
   "byteLength": 192,
   "byteOffset": 1347640,
   "target": 34962
  },
  {
   "buffer": 0,
   "byteLength": 288,
   "byteOffset": 1347832,
   "target": 34962
  },
  {
   "buffer": 0,
   "byteLength": 288,
   "byteOffset": 1348120,
   "target": 34962
  },
  {
   "buffer": 0,
   "byteLength": 192,
   "byteOffset": 1348408,
   "target": 34962
  },
  {
   "buffer": 0,
   "byteLength": 288,
   "byteOffset": 1348600,
   "target": 34962
  },
  {
   "buffer": 0,
   "byteLength": 288,
   "byteOffset": 1348888,
   "target": 34962
  },
  {
   "buffer": 0,
   "byteLength": 192,
   "byteOffset": 1349176,
   "target": 34962
  },
  {
   "buffer": 0,
   "byteLength": 288,
   "byteOffset": 1349368,
   "target": 34962
  },
  {
   "buffer": 0,
   "byteLength": 288,
   "byteOffset": 1349656,
   "target": 34962
  },
  {
   "buffer": 0,
   "byteLength": 192,
   "byteOffset": 1349944,
   "target": 34962
  },
  {
   "buffer": 0,
   "byteLength": 288,
   "byteOffset": 1350136,
   "target": 34962
  },
  {
   "buffer": 0,
   "byteLength": 288,
   "byteOffset": 1350424,
   "target": 34962
  },
  {
   "buffer": 0,
   "byteLength": 192,
   "byteOffset": 1350712,
   "target": 34962
  },
  {
   "buffer": 0,
   "byteLength": 288,
   "byteOffset": 1350904,
   "target": 34962
  },
  {
   "buffer": 0,
   "byteLength": 288,
   "byteOffset": 1351192,
   "target": 34962
  },
  {
   "buffer": 0,
   "byteLength": 192,
   "byteOffset": 1351480,
   "target": 34962
  },
  {
   "buffer": 0,
   "byteLength": 288,
   "byteOffset": 1351672,
   "target": 34962
  },
  {
   "buffer": 0,
   "byteLength": 288,
   "byteOffset": 1351960,
   "target": 34962
  },
  {
   "buffer": 0,
   "byteLength": 192,
   "byteOffset": 1352248,
   "target": 34962
  },
  {
   "buffer": 0,
   "byteLength": 288,
   "byteOffset": 1352440,
   "target": 34962
  },
  {
   "buffer": 0,
   "byteLength": 288,
   "byteOffset": 1352728,
   "target": 34962
  },
  {
   "buffer": 0,
   "byteLength": 192,
   "byteOffset": 1353016,
   "target": 34962
  }
 ],
 "samplers": [
  {
   "magFilter": 9729,
   "minFilter": 9987
  }
 ],
 "buffers": [
  {
   "byteLength": 1353208,
   "uri": "veh_heli.bin"
  }
 ]
}