{
 "asset": {
  "generator": "Khronos glTF Blender I/O v4.5.51",
  "version": "2.0"
 },
 "scene": 0,
 "scenes": [
  {
   "name": "Scene",
   "nodes": [
    0,
    1
   ]
  }
 ],
 "nodes": [
  {
   "mesh": 0,
   "name": "trunk"
  },
  {
   "mesh": 1,
   "name": "foliage"
  }
 ],
 "materials": [
  {
   "doubleSided": true,
   "name": "bark",
   "normalTexture": {
    "index": 0
   },
   "pbrMetallicRoughness": {
    "baseColorTexture": {
     "index": 1
    },
    "metallicFactor": 0,
    "roughnessFactor": 0.8500000238418579
   }
  },
  {
   "doubleSided": true,
   "name": "spray",
   "normalTexture": {
    "index": 2
   },
   "pbrMetallicRoughness": {
    "baseColorTexture": {
     "index": 3
    },
    "metallicFactor": 0,
    "roughnessFactor": 0.6200000047683716
   },
   "alphaMode": "MASK",
   "alphaCutoff": 0.5
  }
 ],
 "meshes": [
  {
   "name": "conifer_fir_0_shadow_bark",
   "primitives": [
    {
     "attributes": {
      "POSITION": 0,
      "NORMAL": 1,
      "TEXCOORD_0": 2
     },
     "indices": 3,
     "material": 0
    }
   ]
  },
  {
   "name": "conifer_fir_0_shadow_foliage",
   "primitives": [
    {
     "attributes": {
      "POSITION": 4,
      "NORMAL": 5,
      "TEXCOORD_0": 6
     },
     "indices": 7,
     "material": 1
    }
   ]
  }
 ],
 "textures": [
  {
   "sampler": 0,
   "source": 0
  },
  {
   "sampler": 0,
   "source": 1
  },
  {
   "sampler": 0,
   "source": 2
  },
  {
   "sampler": 0,
   "source": 3
  }
 ],
 "images": [
  {
   "mimeType": "image/jpeg",
   "name": "fir_tree_01_bark_nor_gl_2k.jpg",
   "uri": "../../../source/trees/fir_tree_01/fir_tree_01_bark_nor_gl_2k.jpg"
  },
  {
   "mimeType": "image/jpeg",
   "name": "fir_tree_01_bark_diff_2k.jpg",
   "uri": "../../../source/trees/fir_tree_01/fir_tree_01_bark_diff_2k.jpg"
  },
  {
   "mimeType": "image/png",
   "name": "conifer_spray_nor_gl_2k.png",
   "uri": "../../../source/trees/conifer_spray/conifer_spray_nor_gl_2k.png"
  },
  {
   "mimeType": "image/png",
   "name": "conifer_spray_diff_2k.png",
   "uri": "../../../source/trees/conifer_spray/conifer_spray_diff_2k.png"
  }
 ],
 "accessors": [
  {
   "bufferView": 0,
   "componentType": 5126,
   "count": 18,
   "max": [
    0.4730285704135895,
    11.31539249420166,
    0.3464213013648987
   ],
   "min": [
    -0.38578054308891296,
    -0.6135575175285339,
    -0.47060710191726685
   ],
   "type": "VEC3"
  },
  {
   "bufferView": 1,
   "componentType": 5126,
   "count": 18,
   "type": "VEC3"
  },
  {
   "bufferView": 2,
   "componentType": 5126,
   "count": 18,
   "type": "VEC2"
  },
  {
   "bufferView": 3,
   "componentType": 5123,
   "count": 60,
   "type": "SCALAR"
  },
  {
   "bufferView": 4,
   "componentType": 5126,
   "count": 740,
   "max": [
    4.844343185424805,
    18.074607849121094,
    4.983346939086914
   ],
   "min": [
    -4.967506408691406,
    2.1150999069213867,
    -4.869775772094727
   ],
   "type": "VEC3"
  },
  {
   "bufferView": 5,
   "componentType": 5126,
   "count": 740,
   "type": "VEC3"
  },
  {
   "bufferView": 6,
   "componentType": 5126,
   "count": 740,
   "type": "VEC2"
  },
  {
   "bufferView": 7,
   "componentType": 5123,
   "count": 1110,
   "type": "SCALAR"
  }
 ],
 "bufferViews": [
  {
   "buffer": 0,
   "byteLength": 216,
   "byteOffset": 0,
   "target": 34962
  },
  {
   "buffer": 0,
   "byteLength": 216,
   "byteOffset": 216,
   "target": 34962
  },
  {
   "buffer": 0,
   "byteLength": 144,
   "byteOffset": 432,
   "target": 34962
  },
  {
   "buffer": 0,
   "byteLength": 120,
   "byteOffset": 576,
   "target": 34963
  },
  {
   "buffer": 0,
   "byteLength": 8880,
   "byteOffset": 696,
   "target": 34962
  },
  {
   "buffer": 0,
   "byteLength": 8880,
   "byteOffset": 9576,
   "target": 34962
  },
  {
   "buffer": 0,
   "byteLength": 5920,
   "byteOffset": 18456,
   "target": 34962
  },
  {
   "buffer": 0,
   "byteLength": 2220,
   "byteOffset": 24376,
   "target": 34963
  }
 ],
 "samplers": [
  {
   "magFilter": 9729,
   "minFilter": 9987
  }
 ],
 "buffers": [
  {
   "byteLength": 26596,
   "uri": "conifer_fir_0_shadow.bin"
  }
 ]
}