{
 "asset": {
  "generator": "zero point flora",
  "version": "2.0"
 },
 "scene": 0,
 "scenes": [
  {
   "name": "Scene",
   "nodes": [
    0,
    1
   ]
  }
 ],
 "nodes": [
  {
   "mesh": 0,
   "name": "trunk"
  },
  {
   "mesh": 1,
   "name": "foliage"
  }
 ],
 "materials": [
  {
   "name": "bark",
   "doubleSided": false,
   "pbrMetallicRoughness": {
    "baseColorTexture": {
     "index": 0
    },
    "metallicRoughnessTexture": {
     "index": 2
    },
    "metallicFactor": 0.0,
    "roughnessFactor": 1.0
   },
   "normalTexture": {
    "index": 1
   },
   "occlusionTexture": {
    "index": 2
   }
  },
  {
   "name": "leaf",
   "doubleSided": true,
   "pbrMetallicRoughness": {
    "baseColorTexture": {
     "index": 3
    },
    "metallicRoughnessTexture": {
     "index": 5
    },
    "metallicFactor": 0.0,
    "roughnessFactor": 1.0
   },
   "normalTexture": {
    "index": 4
   },
   "occlusionTexture": {
    "index": 5
   },
   "alphaMode": "MASK",
   "alphaCutoff": 0.5
  }
 ],
 "meshes": [
  {
   "name": "flora_hawthorn_1_bark",
   "primitives": [
    {
     "attributes": {
      "POSITION": 0,
      "NORMAL": 1,
      "TEXCOORD_0": 2
     },
     "indices": 3,
     "material": 0
    }
   ]
  },
  {
   "name": "flora_hawthorn_1_foliage",
   "primitives": [
    {
     "attributes": {
      "POSITION": 4,
      "NORMAL": 5,
      "TEXCOORD_0": 6
     },
     "indices": 7,
     "material": 1
    }
   ]
  }
 ],
 "textures": [
  {
   "sampler": 0,
   "source": 0
  },
  {
   "sampler": 0,
   "source": 1
  },
  {
   "sampler": 0,
   "source": 2
  },
  {
   "sampler": 0,
   "source": 3
  },
  {
   "sampler": 0,
   "source": 4
  },
  {
   "sampler": 0,
   "source": 5
  }
 ],
 "images": [
  {
   "mimeType": "image/png",
   "name": "flora_hawthorn_bark_diff_2k.png",
   "uri": "../flora_hawthorn_0/flora_hawthorn_bark_diff_2k.png"
  },
  {
   "mimeType": "image/png",
   "name": "flora_hawthorn_bark_nor_gl_2k.png",
   "uri": "../flora_hawthorn_0/flora_hawthorn_bark_nor_gl_2k.png"
  },
  {
   "mimeType": "image/png",
   "name": "flora_hawthorn_bark_arm_2k.png",
   "uri": "../flora_hawthorn_0/flora_hawthorn_bark_arm_2k.png"
  },
  {
   "mimeType": "image/png",
   "name": "flora_hawthorn_leaf_diff_2k.png",
   "uri": "../flora_hawthorn_0/flora_hawthorn_leaf_diff_2k.png"
  },
  {
   "mimeType": "image/png",
   "name": "flora_hawthorn_leaf_nor_gl_2k.png",
   "uri": "../flora_hawthorn_0/flora_hawthorn_leaf_nor_gl_2k.png"
  },
  {
   "mimeType": "image/png",
   "name": "flora_hawthorn_leaf_arm_2k.png",
   "uri": "../flora_hawthorn_0/flora_hawthorn_leaf_arm_2k.png"
  }
 ],
 "accessors": [
  {
   "bufferView": 0,
   "componentType": 5126,
   "count": 3824,
   "max": [
    3.364417552947998,
    3.1647162437438965,
    1.6854166984558105
   ],
   "min": [
    -0.40564319491386414,
    -0.40444257855415344,
    -1.6147770881652832
   ],
   "type": "VEC3"
  },
  {
   "bufferView": 1,
   "componentType": 5126,
   "count": 3824,
   "type": "VEC3"
  },
  {
   "bufferView": 2,
   "componentType": 5126,
   "count": 3824,
   "type": "VEC2"
  },
  {
   "bufferView": 3,
   "componentType": 5123,
   "count": 12456,
   "type": "SCALAR"
  },
  {
   "bufferView": 4,
   "componentType": 5126,
   "count": 8874,
   "max": [
    3.871417999267578,
    3.507765531539917,
    2.1897380352020264
   ],
   "min": [
    -0.7512067556381226,
    0.6797780394554138,
    -2.09121036529541
   ],
   "type": "VEC3"
  },
  {
   "bufferView": 5,
   "componentType": 5126,
   "count": 8874,
   "type": "VEC3"
  },
  {
   "bufferView": 6,
   "componentType": 5126,
   "count": 8874,
   "type": "VEC2"
  },
  {
   "bufferView": 7,
   "componentType": 5123,
   "count": 23664,
   "type": "SCALAR"
  }
 ],
 "bufferViews": [
  {
   "buffer": 0,
   "byteLength": 45888,
   "byteOffset": 0,
   "target": 34962
  },
  {
   "buffer": 0,
   "byteLength": 45888,
   "byteOffset": 45888,
   "target": 34962
  },
  {
   "buffer": 0,
   "byteLength": 30592,
   "byteOffset": 91776,
   "target": 34962
  },
  {
   "buffer": 0,
   "byteLength": 24912,
   "byteOffset": 122368,
   "target": 34963
  },
  {
   "buffer": 0,
   "byteLength": 106488,
   "byteOffset": 147280,
   "target": 34962
  },
  {
   "buffer": 0,
   "byteLength": 106488,
   "byteOffset": 253768,
   "target": 34962
  },
  {
   "buffer": 0,
   "byteLength": 70992,
   "byteOffset": 360256,
   "target": 34962
  },
  {
   "buffer": 0,
   "byteLength": 47328,
   "byteOffset": 431248,
   "target": 34963
  }
 ],
 "samplers": [
  {
   "magFilter": 9729,
   "minFilter": 9987,
   "wrapS": 10497,
   "wrapT": 10497
  }
 ],
 "buffers": [
  {
   "byteLength": 478576,
   "uri": "flora_hawthorn_1.bin"
  }
 ]
}