{
 "asset": {
  "generator": "Khronos glTF Blender I/O v4.5.51",
  "version": "2.0"
 },
 "scene": 0,
 "scenes": [
  {
   "name": "Scene",
   "nodes": [
    0
   ]
  }
 ],
 "nodes": [
  {
   "mesh": 0,
   "name": "prop_war_memorial_far"
  }
 ],
 "materials": [
  {
   "doubleSided": true,
   "name": "prop_war_memorial",
   "normalTexture": {
    "index": 0
   },
   "occlusionTexture": {
    "index": 1
   },
   "pbrMetallicRoughness": {
    "baseColorTexture": {
     "index": 2
    },
    "metallicRoughnessTexture": {
     "index": 1
    }
   }
  }
 ],
 "meshes": [
  {
   "name": "prop_war_memorial_far",
   "primitives": [
    {
     "attributes": {
      "POSITION": 0,
      "NORMAL": 1,
      "TEXCOORD_0": 2
     },
     "indices": 3,
     "material": 0
    }
   ]
  }
 ],
 "textures": [
  {
   "sampler": 0,
   "source": 0
  },
  {
   "sampler": 0,
   "source": 1
  },
  {
   "sampler": 0,
   "source": 2
  }
 ],
 "images": [
  {
   "mimeType": "image/png",
   "name": "prop_war_memorial_normal",
   "uri": "../prop_war_memorial/prop_war_memorial_normal.png"
  },
  {
   "mimeType": "image/png",
   "name": "prop_war_memorial_orm",
   "uri": "../prop_war_memorial/prop_war_memorial_orm.png"
  },
  {
   "mimeType": "image/png",
   "name": "prop_war_memorial_albedo",
   "uri": "../prop_war_memorial/prop_war_memorial_albedo.png"
  }
 ],
 "accessors": [
  {
   "bufferView": 0,
   "componentType": 5126,
   "count": 164,
   "max": [
    1.2999999523162842,
    5.71999979019165,
    1.2999999523162842
   ],
   "min": [
    -1.2999999523162842,
    -0.03999999165534973,
    -1.2999999523162842
   ],
   "type": "VEC3"
  },
  {
   "bufferView": 1,
   "componentType": 5126,
   "count": 164,
   "type": "VEC3"
  },
  {
   "bufferView": 2,
   "componentType": 5126,
   "count": 164,
   "type": "VEC2"
  },
  {
   "bufferView": 3,
   "componentType": 5123,
   "count": 252,
   "type": "SCALAR"
  }
 ],
 "bufferViews": [
  {
   "buffer": 0,
   "byteLength": 1968,
   "byteOffset": 0,
   "target": 34962
  },
  {
   "buffer": 0,
   "byteLength": 1968,
   "byteOffset": 1968,
   "target": 34962
  },
  {
   "buffer": 0,
   "byteLength": 1312,
   "byteOffset": 3936,
   "target": 34962
  },
  {
   "buffer": 0,
   "byteLength": 504,
   "byteOffset": 5248,
   "target": 34963
  }
 ],
 "samplers": [
  {
   "magFilter": 9729,
   "minFilter": 9987
  }
 ],
 "buffers": [
  {
   "byteLength": 5752,
   "uri": "prop_war_memorial_far.bin"
  }
 ]
}