{
 "asset": {
  "generator": "Khronos glTF Blender I/O v4.5.51",
  "version": "2.0"
 },
 "scene": 0,
 "scenes": [
  {
   "name": "Scene",
   "nodes": [
    0
   ]
  }
 ],
 "nodes": [
  {
   "mesh": 0,
   "name": "fish_mackerel"
  }
 ],
 "materials": [
  {
   "name": "fish_mackerel",
   "normalTexture": {
    "index": 0
   },
   "occlusionTexture": {
    "index": 1
   },
   "pbrMetallicRoughness": {
    "baseColorTexture": {
     "index": 2
    },
    "metallicRoughnessTexture": {
     "index": 1
    },
    "metallicFactor": 0.0,
    "roughnessFactor": 1.0
   },
   "doubleSided": false
  }
 ],
 "meshes": [
  {
   "name": "fish_mackerel",
   "primitives": [
    {
     "attributes": {
      "POSITION": 0,
      "NORMAL": 1,
      "TEXCOORD_0": 2
     },
     "indices": 3,
     "material": 0
    }
   ]
  }
 ],
 "textures": [
  {
   "sampler": 0,
   "source": 0
  },
  {
   "sampler": 0,
   "source": 1
  },
  {
   "sampler": 0,
   "source": 2
  }
 ],
 "images": [
  {
   "mimeType": "image/png",
   "name": "fish_mackerel_normal.png",
   "uri": "fish_mackerel_normal.png"
  },
  {
   "mimeType": "image/png",
   "name": "fish_mackerel_orm.png",
   "uri": "fish_mackerel_orm.png"
  },
  {
   "mimeType": "image/png",
   "name": "fish_mackerel_albedo.png",
   "uri": "fish_mackerel_albedo.png"
  }
 ],
 "accessors": [
  {
   "bufferView": 0,
   "componentType": 5126,
   "count": 1112,
   "max": [
    0.02250000089406967,
    0.04977591708302498,
    0.1770000010728836
   ],
   "min": [
    -0.02250000089406967,
    -0.04500000178813934,
    -0.1770000010728836
   ],
   "type": "VEC3"
  },
  {
   "bufferView": 1,
   "componentType": 5126,
   "count": 1112,
   "type": "VEC3"
  },
  {
   "bufferView": 2,
   "componentType": 5126,
   "count": 1112,
   "type": "VEC2"
  },
  {
   "bufferView": 3,
   "componentType": 5123,
   "count": 5160,
   "type": "SCALAR"
  }
 ],
 "bufferViews": [
  {
   "buffer": 0,
   "byteLength": 13344,
   "byteOffset": 0,
   "target": 34962
  },
  {
   "buffer": 0,
   "byteLength": 13344,
   "byteOffset": 13344,
   "target": 34962
  },
  {
   "buffer": 0,
   "byteLength": 8896,
   "byteOffset": 26688,
   "target": 34962
  },
  {
   "buffer": 0,
   "byteLength": 10320,
   "byteOffset": 35584,
   "target": 34963
  }
 ],
 "samplers": [
  {
   "magFilter": 9729,
   "minFilter": 9987
  }
 ],
 "buffers": [
  {
   "byteLength": 45904,
   "uri": "fish_mackerel.bin"
  }
 ]
}