{
 "asset": {
  "generator": "zero point flora",
  "version": "2.0"
 },
 "scene": 0,
 "scenes": [
  {
   "name": "Scene",
   "nodes": [
    0,
    1
   ]
  }
 ],
 "nodes": [
  {
   "mesh": 0,
   "name": "trunk"
  },
  {
   "mesh": 1,
   "name": "foliage"
  }
 ],
 "materials": [
  {
   "name": "bark",
   "doubleSided": false,
   "pbrMetallicRoughness": {
    "baseColorTexture": {
     "index": 0
    },
    "metallicRoughnessTexture": {
     "index": 2
    },
    "metallicFactor": 0.0,
    "roughnessFactor": 1.0
   },
   "normalTexture": {
    "index": 1
   },
   "occlusionTexture": {
    "index": 2
   }
  },
  {
   "name": "leaf",
   "doubleSided": true,
   "pbrMetallicRoughness": {
    "baseColorTexture": {
     "index": 3
    },
    "metallicRoughnessTexture": {
     "index": 5
    },
    "metallicFactor": 0.0,
    "roughnessFactor": 1.0
   },
   "normalTexture": {
    "index": 4
   },
   "occlusionTexture": {
    "index": 5
   },
   "alphaMode": "MASK",
   "alphaCutoff": 0.5
  }
 ],
 "meshes": [
  {
   "name": "flora_willow_1_far_bark",
   "primitives": [
    {
     "attributes": {
      "POSITION": 0,
      "NORMAL": 1,
      "TEXCOORD_0": 2
     },
     "indices": 3,
     "material": 0
    }
   ]
  },
  {
   "name": "flora_willow_1_far_foliage",
   "primitives": [
    {
     "attributes": {
      "POSITION": 4,
      "NORMAL": 5,
      "TEXCOORD_0": 6
     },
     "indices": 7,
     "material": 1
    }
   ]
  }
 ],
 "textures": [
  {
   "sampler": 0,
   "source": 0
  },
  {
   "sampler": 0,
   "source": 1
  },
  {
   "sampler": 0,
   "source": 2
  },
  {
   "sampler": 0,
   "source": 3
  },
  {
   "sampler": 0,
   "source": 4
  },
  {
   "sampler": 0,
   "source": 5
  }
 ],
 "images": [
  {
   "mimeType": "image/png",
   "name": "flora_willow_bark_diff_2k.png",
   "uri": "../flora_willow_0/flora_willow_bark_diff_2k.png"
  },
  {
   "mimeType": "image/png",
   "name": "flora_willow_bark_nor_gl_2k.png",
   "uri": "../flora_willow_0/flora_willow_bark_nor_gl_2k.png"
  },
  {
   "mimeType": "image/png",
   "name": "flora_willow_bark_arm_2k.png",
   "uri": "../flora_willow_0/flora_willow_bark_arm_2k.png"
  },
  {
   "mimeType": "image/png",
   "name": "flora_willow_leaf_diff_2k.png",
   "uri": "../flora_willow_0/flora_willow_leaf_diff_2k.png"
  },
  {
   "mimeType": "image/png",
   "name": "flora_willow_leaf_nor_gl_2k.png",
   "uri": "../flora_willow_0/flora_willow_leaf_nor_gl_2k.png"
  },
  {
   "mimeType": "image/png",
   "name": "flora_willow_leaf_arm_2k.png",
   "uri": "../flora_willow_0/flora_willow_leaf_arm_2k.png"
  }
 ],
 "accessors": [
  {
   "bufferView": 0,
   "componentType": 5126,
   "count": 635,
   "max": [
    4.093890190124512,
    6.691479682922363,
    3.0144333839416504
   ],
   "min": [
    -3.3238821029663086,
    -0.44999998807907104,
    -3.5512428283691406
   ],
   "type": "VEC3"
  },
  {
   "bufferView": 1,
   "componentType": 5126,
   "count": 635,
   "type": "VEC3"
  },
  {
   "bufferView": 2,
   "componentType": 5126,
   "count": 635,
   "type": "VEC2"
  },
  {
   "bufferView": 3,
   "componentType": 5123,
   "count": 1848,
   "type": "SCALAR"
  },
  {
   "bufferView": 4,
   "componentType": 5126,
   "count": 2340,
   "max": [
    5.285212993621826,
    8.23204517364502,
    4.2560906410217285
   ],
   "min": [
    -4.58821439743042,
    1.4571932554244995,
    -4.684693336486816
   ],
   "type": "VEC3"
  },
  {
   "bufferView": 5,
   "componentType": 5126,
   "count": 2340,
   "type": "VEC3"
  },
  {
   "bufferView": 6,
   "componentType": 5126,
   "count": 2340,
   "type": "VEC2"
  },
  {
   "bufferView": 7,
   "componentType": 5123,
   "count": 3510,
   "type": "SCALAR"
  }
 ],
 "bufferViews": [
  {
   "buffer": 0,
   "byteLength": 7620,
   "byteOffset": 0,
   "target": 34962
  },
  {
   "buffer": 0,
   "byteLength": 7620,
   "byteOffset": 7620,
   "target": 34962
  },
  {
   "buffer": 0,
   "byteLength": 5080,
   "byteOffset": 15240,
   "target": 34962
  },
  {
   "buffer": 0,
   "byteLength": 3696,
   "byteOffset": 20320,
   "target": 34963
  },
  {
   "buffer": 0,
   "byteLength": 28080,
   "byteOffset": 24016,
   "target": 34962
  },
  {
   "buffer": 0,
   "byteLength": 28080,
   "byteOffset": 52096,
   "target": 34962
  },
  {
   "buffer": 0,
   "byteLength": 18720,
   "byteOffset": 80176,
   "target": 34962
  },
  {
   "buffer": 0,
   "byteLength": 7020,
   "byteOffset": 98896,
   "target": 34963
  }
 ],
 "samplers": [
  {
   "magFilter": 9729,
   "minFilter": 9987,
   "wrapS": 10497,
   "wrapT": 10497
  }
 ],
 "buffers": [
  {
   "byteLength": 105916,
   "uri": "flora_willow_1_far.bin"
  }
 ]
}