{
 "asset": {
  "generator": "zero point flora",
  "version": "2.0"
 },
 "scene": 0,
 "scenes": [
  {
   "name": "Scene",
   "nodes": [
    0,
    1
   ]
  }
 ],
 "nodes": [
  {
   "mesh": 0,
   "name": "trunk"
  },
  {
   "mesh": 1,
   "name": "foliage"
  }
 ],
 "materials": [
  {
   "name": "bark",
   "doubleSided": false,
   "pbrMetallicRoughness": {
    "baseColorTexture": {
     "index": 0
    },
    "metallicRoughnessTexture": {
     "index": 2
    },
    "metallicFactor": 0.0,
    "roughnessFactor": 1.0
   },
   "normalTexture": {
    "index": 1
   },
   "occlusionTexture": {
    "index": 2
   }
  },
  {
   "name": "leaf",
   "doubleSided": true,
   "pbrMetallicRoughness": {
    "baseColorTexture": {
     "index": 3
    },
    "metallicRoughnessTexture": {
     "index": 5
    },
    "metallicFactor": 0.0,
    "roughnessFactor": 1.0
   },
   "normalTexture": {
    "index": 4
   },
   "occlusionTexture": {
    "index": 5
   },
   "alphaMode": "MASK",
   "alphaCutoff": 0.5
  }
 ],
 "meshes": [
  {
   "name": "flora_pine_2_far_bark",
   "primitives": [
    {
     "attributes": {
      "POSITION": 0,
      "NORMAL": 1,
      "TEXCOORD_0": 2
     },
     "indices": 3,
     "material": 0
    }
   ]
  },
  {
   "name": "flora_pine_2_far_foliage",
   "primitives": [
    {
     "attributes": {
      "POSITION": 4,
      "NORMAL": 5,
      "TEXCOORD_0": 6
     },
     "indices": 7,
     "material": 1
    }
   ]
  }
 ],
 "textures": [
  {
   "sampler": 0,
   "source": 0
  },
  {
   "sampler": 0,
   "source": 1
  },
  {
   "sampler": 0,
   "source": 2
  },
  {
   "sampler": 0,
   "source": 3
  },
  {
   "sampler": 0,
   "source": 4
  },
  {
   "sampler": 0,
   "source": 5
  }
 ],
 "images": [
  {
   "mimeType": "image/png",
   "name": "flora_pine_bark_diff_2k.png",
   "uri": "../flora_pine_0/flora_pine_bark_diff_2k.png"
  },
  {
   "mimeType": "image/png",
   "name": "flora_pine_bark_nor_gl_2k.png",
   "uri": "../flora_pine_0/flora_pine_bark_nor_gl_2k.png"
  },
  {
   "mimeType": "image/png",
   "name": "flora_pine_bark_arm_2k.png",
   "uri": "../flora_pine_0/flora_pine_bark_arm_2k.png"
  },
  {
   "mimeType": "image/png",
   "name": "flora_pine_leaf_diff_2k.png",
   "uri": "../flora_pine_0/flora_pine_leaf_diff_2k.png"
  },
  {
   "mimeType": "image/png",
   "name": "flora_pine_leaf_nor_gl_2k.png",
   "uri": "../flora_pine_0/flora_pine_leaf_nor_gl_2k.png"
  },
  {
   "mimeType": "image/png",
   "name": "flora_pine_leaf_arm_2k.png",
   "uri": "../flora_pine_0/flora_pine_leaf_arm_2k.png"
  }
 ],
 "accessors": [
  {
   "bufferView": 0,
   "componentType": 5126,
   "count": 1440,
   "max": [
    4.426414966583252,
    12.103373527526855,
    4.2059807777404785
   ],
   "min": [
    -5.5255913734436035,
    -0.5212461948394775,
    -5.1902756690979
   ],
   "type": "VEC3"
  },
  {
   "bufferView": 1,
   "componentType": 5126,
   "count": 1440,
   "type": "VEC3"
  },
  {
   "bufferView": 2,
   "componentType": 5126,
   "count": 1440,
   "type": "VEC2"
  },
  {
   "bufferView": 3,
   "componentType": 5123,
   "count": 4098,
   "type": "SCALAR"
  },
  {
   "bufferView": 4,
   "componentType": 5126,
   "count": 1888,
   "max": [
    5.289273262023926,
    12.254090309143066,
    5.243506908416748
   ],
   "min": [
    -6.4496073722839355,
    5.090744972229004,
    -5.871814727783203
   ],
   "type": "VEC3"
  },
  {
   "bufferView": 5,
   "componentType": 5126,
   "count": 1888,
   "type": "VEC3"
  },
  {
   "bufferView": 6,
   "componentType": 5126,
   "count": 1888,
   "type": "VEC2"
  },
  {
   "bufferView": 7,
   "componentType": 5123,
   "count": 2832,
   "type": "SCALAR"
  }
 ],
 "bufferViews": [
  {
   "buffer": 0,
   "byteLength": 17280,
   "byteOffset": 0,
   "target": 34962
  },
  {
   "buffer": 0,
   "byteLength": 17280,
   "byteOffset": 17280,
   "target": 34962
  },
  {
   "buffer": 0,
   "byteLength": 11520,
   "byteOffset": 34560,
   "target": 34962
  },
  {
   "buffer": 0,
   "byteLength": 8196,
   "byteOffset": 46080,
   "target": 34963
  },
  {
   "buffer": 0,
   "byteLength": 22656,
   "byteOffset": 54276,
   "target": 34962
  },
  {
   "buffer": 0,
   "byteLength": 22656,
   "byteOffset": 76932,
   "target": 34962
  },
  {
   "buffer": 0,
   "byteLength": 15104,
   "byteOffset": 99588,
   "target": 34962
  },
  {
   "buffer": 0,
   "byteLength": 5664,
   "byteOffset": 114692,
   "target": 34963
  }
 ],
 "samplers": [
  {
   "magFilter": 9729,
   "minFilter": 9987,
   "wrapS": 10497,
   "wrapT": 10497
  }
 ],
 "buffers": [
  {
   "byteLength": 120356,
   "uri": "flora_pine_2_far.bin"
  }
 ]
}