{
 "asset": {
  "generator": "Khronos glTF Blender I/O v4.5.51",
  "version": "2.0"
 },
 "scene": 0,
 "scenes": [
  {
   "name": "Scene",
   "nodes": [
    0
   ]
  }
 ],
 "nodes": [
  {
   "mesh": 0,
   "name": "prop_street_sign_far"
  }
 ],
 "materials": [
  {
   "doubleSided": true,
   "name": "prop_street_sign",
   "normalTexture": {
    "index": 0
   },
   "occlusionTexture": {
    "index": 1
   },
   "pbrMetallicRoughness": {
    "baseColorTexture": {
     "index": 2
    },
    "metallicRoughnessTexture": {
     "index": 1
    }
   }
  }
 ],
 "meshes": [
  {
   "name": "prop_street_sign_far",
   "primitives": [
    {
     "attributes": {
      "POSITION": 0,
      "NORMAL": 1,
      "TEXCOORD_0": 2
     },
     "indices": 3,
     "material": 0
    }
   ]
  }
 ],
 "textures": [
  {
   "sampler": 0,
   "source": 0
  },
  {
   "sampler": 0,
   "source": 1
  },
  {
   "sampler": 0,
   "source": 2
  }
 ],
 "images": [
  {
   "mimeType": "image/png",
   "name": "prop_street_sign_normal",
   "uri": "../prop_street_sign/prop_street_sign_normal.png"
  },
  {
   "mimeType": "image/png",
   "name": "prop_street_sign_orm",
   "uri": "../prop_street_sign/prop_street_sign_orm.png"
  },
  {
   "mimeType": "image/png",
   "name": "prop_street_sign_albedo",
   "uri": "../prop_street_sign/prop_street_sign_albedo.png"
  }
 ],
 "accessors": [
  {
   "bufferView": 0,
   "componentType": 5126,
   "count": 157,
   "max": [
    0.9714049696922302,
    2.7391438484191895,
    0.7217010259628296
   ],
   "min": [
    -0.4993039667606354,
    -0.02259156107902527,
    -0.7526441812515259
   ],
   "type": "VEC3"
  },
  {
   "bufferView": 1,
   "componentType": 5126,
   "count": 157,
   "type": "VEC3"
  },
  {
   "bufferView": 2,
   "componentType": 5126,
   "count": 157,
   "type": "VEC2"
  },
  {
   "bufferView": 3,
   "componentType": 5123,
   "count": 315,
   "type": "SCALAR"
  }
 ],
 "bufferViews": [
  {
   "buffer": 0,
   "byteLength": 1884,
   "byteOffset": 0,
   "target": 34962
  },
  {
   "buffer": 0,
   "byteLength": 1884,
   "byteOffset": 1884,
   "target": 34962
  },
  {
   "buffer": 0,
   "byteLength": 1256,
   "byteOffset": 3768,
   "target": 34962
  },
  {
   "buffer": 0,
   "byteLength": 630,
   "byteOffset": 5024,
   "target": 34963
  }
 ],
 "samplers": [
  {
   "magFilter": 9729,
   "minFilter": 9987
  }
 ],
 "buffers": [
  {
   "byteLength": 5656,
   "uri": "prop_street_sign_far.bin"
  }
 ]
}