{
 "asset": {
  "generator": "zero point flora",
  "version": "2.0"
 },
 "scene": 0,
 "scenes": [
  {
   "name": "Scene",
   "nodes": [
    0,
    1
   ]
  }
 ],
 "nodes": [
  {
   "mesh": 0,
   "name": "trunk"
  },
  {
   "mesh": 1,
   "name": "foliage"
  }
 ],
 "materials": [
  {
   "name": "bark",
   "doubleSided": false,
   "pbrMetallicRoughness": {
    "baseColorTexture": {
     "index": 0
    },
    "metallicRoughnessTexture": {
     "index": 2
    },
    "metallicFactor": 0.0,
    "roughnessFactor": 1.0
   },
   "normalTexture": {
    "index": 1
   },
   "occlusionTexture": {
    "index": 2
   }
  },
  {
   "name": "leaf",
   "doubleSided": true,
   "pbrMetallicRoughness": {
    "baseColorTexture": {
     "index": 3
    },
    "metallicRoughnessTexture": {
     "index": 5
    },
    "metallicFactor": 0.0,
    "roughnessFactor": 1.0
   },
   "normalTexture": {
    "index": 4
   },
   "occlusionTexture": {
    "index": 5
   },
   "alphaMode": "MASK",
   "alphaCutoff": 0.5
  }
 ],
 "meshes": [
  {
   "name": "flora_oak_0_far_bark",
   "primitives": [
    {
     "attributes": {
      "POSITION": 0,
      "NORMAL": 1,
      "TEXCOORD_0": 2
     },
     "indices": 3,
     "material": 0
    }
   ]
  },
  {
   "name": "flora_oak_0_far_foliage",
   "primitives": [
    {
     "attributes": {
      "POSITION": 4,
      "NORMAL": 5,
      "TEXCOORD_0": 6
     },
     "indices": 7,
     "material": 1
    }
   ]
  }
 ],
 "textures": [
  {
   "sampler": 0,
   "source": 0
  },
  {
   "sampler": 0,
   "source": 1
  },
  {
   "sampler": 0,
   "source": 2
  },
  {
   "sampler": 0,
   "source": 3
  },
  {
   "sampler": 0,
   "source": 4
  },
  {
   "sampler": 0,
   "source": 5
  }
 ],
 "images": [
  {
   "mimeType": "image/png",
   "name": "flora_oak_bark_diff_2k.png",
   "uri": "../flora_oak_0/flora_oak_bark_diff_2k.png"
  },
  {
   "mimeType": "image/png",
   "name": "flora_oak_bark_nor_gl_2k.png",
   "uri": "../flora_oak_0/flora_oak_bark_nor_gl_2k.png"
  },
  {
   "mimeType": "image/png",
   "name": "flora_oak_bark_arm_2k.png",
   "uri": "../flora_oak_0/flora_oak_bark_arm_2k.png"
  },
  {
   "mimeType": "image/png",
   "name": "flora_oak_leaf_diff_2k.png",
   "uri": "../flora_oak_0/flora_oak_leaf_diff_2k.png"
  },
  {
   "mimeType": "image/png",
   "name": "flora_oak_leaf_nor_gl_2k.png",
   "uri": "../flora_oak_0/flora_oak_leaf_nor_gl_2k.png"
  },
  {
   "mimeType": "image/png",
   "name": "flora_oak_leaf_arm_2k.png",
   "uri": "../flora_oak_0/flora_oak_leaf_arm_2k.png"
  }
 ],
 "accessors": [
  {
   "bufferView": 0,
   "componentType": 5126,
   "count": 1663,
   "max": [
    7.858722686767578,
    14.123479843139648,
    6.204360485076904
   ],
   "min": [
    -5.946182727813721,
    -0.637503445148468,
    -5.63237190246582
   ],
   "type": "VEC3"
  },
  {
   "bufferView": 1,
   "componentType": 5126,
   "count": 1663,
   "type": "VEC3"
  },
  {
   "bufferView": 2,
   "componentType": 5126,
   "count": 1663,
   "type": "VEC2"
  },
  {
   "bufferView": 3,
   "componentType": 5123,
   "count": 5010,
   "type": "SCALAR"
  },
  {
   "bufferView": 4,
   "componentType": 5126,
   "count": 2688,
   "max": [
    9.024386405944824,
    14.883505821228027,
    8.510915756225586
   ],
   "min": [
    -8.43619155883789,
    2.2627532482147217,
    -8.531073570251465
   ],
   "type": "VEC3"
  },
  {
   "bufferView": 5,
   "componentType": 5126,
   "count": 2688,
   "type": "VEC3"
  },
  {
   "bufferView": 6,
   "componentType": 5126,
   "count": 2688,
   "type": "VEC2"
  },
  {
   "bufferView": 7,
   "componentType": 5123,
   "count": 4032,
   "type": "SCALAR"
  }
 ],
 "bufferViews": [
  {
   "buffer": 0,
   "byteLength": 19956,
   "byteOffset": 0,
   "target": 34962
  },
  {
   "buffer": 0,
   "byteLength": 19956,
   "byteOffset": 19956,
   "target": 34962
  },
  {
   "buffer": 0,
   "byteLength": 13304,
   "byteOffset": 39912,
   "target": 34962
  },
  {
   "buffer": 0,
   "byteLength": 10020,
   "byteOffset": 53216,
   "target": 34963
  },
  {
   "buffer": 0,
   "byteLength": 32256,
   "byteOffset": 63236,
   "target": 34962
  },
  {
   "buffer": 0,
   "byteLength": 32256,
   "byteOffset": 95492,
   "target": 34962
  },
  {
   "buffer": 0,
   "byteLength": 21504,
   "byteOffset": 127748,
   "target": 34962
  },
  {
   "buffer": 0,
   "byteLength": 8064,
   "byteOffset": 149252,
   "target": 34963
  }
 ],
 "samplers": [
  {
   "magFilter": 9729,
   "minFilter": 9987,
   "wrapS": 10497,
   "wrapT": 10497
  }
 ],
 "buffers": [
  {
   "byteLength": 157316,
   "uri": "flora_oak_0_far.bin"
  }
 ]
}