{
 "asset": {
  "generator": "Khronos glTF Blender I/O v4.5.51",
  "version": "2.0"
 },
 "scene": 0,
 "scenes": [
  {
   "name": "Scene",
   "nodes": [
    82
   ]
  }
 ],
 "nodes": [
  {
   "name": "Bip01 REye",
   "rotation": [
    6.5564195210754406e-06,
    4.615200396074215e-06,
    0.6514644026756287,
    0.758679211139679
   ],
   "scale": [
    1.000000238418579,
    1.0000001192092896,
    1
   ],
   "translation": [
    11.082088470458984,
    6.991767406463623,
    -3.1885080337524414
   ]
  },
  {
   "name": "Bip01 LEye",
   "rotation": [
    -6.5035696934501175e-06,
    -8.357444130524527e-06,
    0.6514644026756287,
    0.758679211139679
   ],
   "scale": [
    1.000000238418579,
    1.0000001192092896,
    1
   ],
   "translation": [
    11.082087516784668,
    6.991749286651611,
    3.1885480880737305
   ]
  },
  {
   "name": "Bip01 MBottomLip",
   "rotation": [
    -7.739286616015306e-07,
    2.1547280084632803e-06,
    -0.1736481785774231,
    0.9848077893257141
   ],
   "scale": [
    1,
    1.000000238418579,
    1.0000001192092896
   ],
   "translation": [
    10.55405330657959,
    -2.333179473876953,
    -0.0890064388513565
   ]
  },
  {
   "name": "Bip01 MTongue",
   "rotation": [
    0.0030304105021059513,
    0.01334307435899973,
    -0.17570440471172333,
    0.9843478798866272
   ],
   "scale": [
    1.0000001192092896,
    1,
    1
   ],
   "translation": [
    7.251125335693359,
    -1.5665702819824219,
    0.06097445636987686
   ]
  },
  {
   "name": "Bip01 LMouthBottom",
   "rotation": [
    -0.03838109225034714,
    -0.21606487035751343,
    -0.16940715909004211,
    0.9608038663864136
   ],
   "scale": [
    1,
    1.0000001192092896,
    1
   ],
   "translation": [
    10.33531665802002,
    -2.4357235431671143,
    1.3072664737701416
   ]
  },
  {
   "name": "Bip01 RMouthBottom",
   "rotation": [
    0.038288358598947525,
    0.2155410796403885,
    -0.1694263070821762,
    0.9609218239784241
   ],
   "translation": [
    10.314969062805176,
    -2.421560525894165,
    -1.4824950695037842
   ]
  },
  {
   "children": [
    2,
    3,
    4,
    5
   ],
   "name": "Bip01 MJaw",
   "rotation": [
    0.0012046440970152617,
    -0.004261418245732784,
    0.764102041721344,
    0.6450802087783813
   ],
   "scale": [
    1.000000238418579,
    1.0000001192092896,
    1
   ],
   "translation": [
    3.289451837539673,
    1.2400202751159668,
    1.7227646367246052e-06
   ]
  },
  {
   "name": "Bip01 RMasseter",
   "rotation": [
    -0.25819817185401917,
    0.282449334859848,
    0.6814050078392029,
    0.6238937377929688
   ],
   "scale": [
    1.0000001192092896,
    1,
    1.0000001192092896
   ],
   "translation": [
    4.580337047576904,
    7.721067905426025,
    -5.719388961791992
   ]
  },
  {
   "name": "Bip01 LMasseter",
   "rotation": [
    0.25820016860961914,
    -0.2824551463127136,
    0.6814025640487671,
    0.6238928437232971
   ],
   "scale": [
    1,
    1.0000001192092896,
    1
   ],
   "translation": [
    4.580336570739746,
    7.721036434173584,
    5.719433784484863
   ]
  },
  {
   "name": "Bip01 MUpperLip",
   "rotation": [
    -1.4061848219171225e-07,
    -2.7231587864662288e-06,
    0.6758842468261719,
    0.7370077967643738
   ],
   "scale": [
    1.000000238418579,
    1.0000001192092896,
    1
   ],
   "translation": [
    5.0816545486450195,
    11.831405639648438,
    1.705518843664322e-05
   ]
  },
  {
   "name": "Bip01 RCaninus",
   "rotation": [
    -0.19061283767223358,
    0.17508260905742645,
    0.6528335809707642,
    0.7119137644767761
   ],
   "translation": [
    6.248234748840332,
    10.813017845153809,
    -2.9446988105773926
   ]
  },
  {
   "name": "Bip01 LCaninus",
   "rotation": [
    0.19061286747455597,
    -0.17508628964424133,
    0.6528326272964478,
    0.7119137048721313
   ],
   "scale": [
    1.000000238418579,
    1.0000001192092896,
    1
   ],
   "translation": [
    6.248234272003174,
    10.81300163269043,
    2.944758653640747
   ]
  },
  {
   "name": "Bip01 REyeBlinkBottom",
   "rotation": [
    -0.09612921625375748,
    0.08829661458730698,
    0.6701017022132874,
    0.7307027578353882
   ],
   "scale": [
    1.000000238418579,
    1.0000001192092896,
    1.0000001192092896
   ],
   "translation": [
    10.374651908874512,
    8.750556945800781,
    -3.4110543727874756
   ]
  },
  {
   "name": "Bip01 LEyeBlinkBottom",
   "rotation": [
    0.09612917900085449,
    -0.08830036967992783,
    0.6701012253761292,
    0.730702817440033
   ],
   "scale": [
    1.000000238418579,
    1,
    1
   ],
   "translation": [
    10.374651908874512,
    8.75053882598877,
    3.411104202270508
   ]
  },
  {
   "name": "Bip01 RUpperlip",
   "rotation": [
    -0.1703149974346161,
    0.17054717242717743,
    0.6865417957305908,
    0.6859787702560425
   ],
   "scale": [
    1,
    0.9999999403953552,
    1
   ],
   "translation": [
    5.02488374710083,
    11.684235572814941,
    -1.4255620241165161
   ]
  },
  {
   "name": "Bip01 LUpperlip",
   "rotation": [
    0.1702120453119278,
    -0.17044802010059357,
    0.6865665316581726,
    0.6860041618347168
   ],
   "scale": [
    1.000000238418579,
    1.0000001192092896,
    1.0000001192092896
   ],
   "translation": [
    5.024884223937988,
    11.684228897094727,
    1.4256272315979004
   ]
  },
  {
   "name": "Bip01 RMouthCorner",
   "rotation": [
    -0.15812988579273224,
    0.20154573023319244,
    0.7146279215812683,
    0.6509079933166504
   ],
   "scale": [
    1,
    1,
    1.0000001192092896
   ],
   "translation": [
    4.082604885101318,
    10.714229583740234,
    -2.770092010498047
   ]
  },
  {
   "name": "Bip01 LMouthCorner",
   "rotation": [
    0.15813294053077698,
    -0.20155294239521027,
    0.714625895023346,
    0.6509072780609131
   ],
   "translation": [
    4.082604885101318,
    10.714216232299805,
    2.7701516151428223
   ]
  },
  {
   "name": "Bip01 RCheek",
   "rotation": [
    -0.13256320357322693,
    0.1349373161792755,
    0.6999219059944153,
    0.6887149214744568
   ],
   "scale": [
    1.0000001192092896,
    1,
    1
   ],
   "translation": [
    8.475457191467285,
    9.653765678405762,
    -4.137372016906738
   ]
  },
  {
   "name": "Bip01 LCheek",
   "rotation": [
    0.1325690895318985,
    -0.13494715094566345,
    0.6999201774597168,
    0.6887136101722717
   ],
   "scale": [
    1.0000001192092896,
    1,
    1.0000001192092896
   ],
   "translation": [
    8.475456237792969,
    9.653741836547852,
    4.137425899505615
   ]
  },
  {
   "name": "Bip01 REyeBlinkTop",
   "rotation": [
    -0.10190211981534958,
    0.10861621797084808,
    0.5618585348129272,
    0.8137158155441284
   ],
   "scale": [
    1.000000238418579,
    1,
    1.0000001192092896
   ],
   "translation": [
    11.867840766906738,
    8.4396390914917,
    -3.335810899734497
   ]
  },
  {
   "name": "Bip01 LEyeBlinkTop",
   "rotation": [
    0.10190214216709137,
    -0.10861937701702118,
    0.5618579387664795,
    0.8137158155441284
   ],
   "scale": [
    1.0000001192092896,
    1.0000001192092896,
    1
   ],
   "translation": [
    11.867839813232422,
    8.439620018005371,
    3.335858106613159
   ]
  },
  {
   "name": "Bip01 RInnerEyebrow",
   "rotation": [
    -0.06418655812740326,
    0.05895674601197243,
    0.6733119487762451,
    0.7342038750648499
   ],
   "scale": [
    1.0000001192092896,
    1,
    1
   ],
   "translation": [
    13.00536060333252,
    9.465072631835938,
    -2.6413161754608154
   ]
  },
  {
   "name": "Bip01 LInnerEyebrow",
   "rotation": [
    0.06418649107217789,
    -0.05896049365401268,
    0.6733115911483765,
    0.7342038750648499
   ],
   "translation": [
    13.00536060333252,
    9.465055465698242,
    2.6413698196411133
   ]
  },
  {
   "name": "Bip01 MMiddleEyebrow",
   "rotation": [
    -1.2687957351431578e-08,
    -1.8977262925545801e-06,
    0.6769024133682251,
    0.7360727787017822
   ],
   "scale": [
    1.0000001192092896,
    1,
    1
   ],
   "translation": [
    12.706502914428711,
    10.01290512084961,
    1.4362392903422005e-05
   ]
  },
  {
   "name": "Bip01 ROuterEyebrow",
   "rotation": [
    -0.18039090931415558,
    0.18558624386787415,
    0.6560015082359314,
    0.7089985013008118
   ],
   "scale": [
    1.0000001192092896,
    1.0000001192092896,
    1.0000001192092896
   ],
   "translation": [
    12.541572570800781,
    8.292973518371582,
    -4.926669120788574
   ]
  },
  {
   "name": "Bip01 LOuterEyebrow",
   "rotation": [
    0.1803908795118332,
    -0.18558987975120544,
    0.6560004949569702,
    0.7089985013008118
   ],
   "scale": [
    1.000000238418579,
    1.0000001192092896,
    1.0000001192092896
   ],
   "translation": [
    12.541572570800781,
    8.292945861816406,
    4.926715850830078
   ]
  },
  {
   "name": "Bip01 MNose",
   "rotation": [
    -1.3446843638575956e-07,
    -2.7377743663237197e-06,
    0.6731289625167847,
    0.7395251393318176
   ],
   "scale": [
    1.0000001192092896,
    1,
    1
   ],
   "translation": [
    8.708162307739258,
    12.19327449798584,
    1.7228489014087245e-05
   ]
  },
  {
   "children": [
    0,
    1,
    6,
    7,
    8,
    9,
    10,
    11,
    12,
    13,
    14,
    15,
    16,
    17,
    18,
    19,
    20,
    21,
    22,
    23,
    24,
    25,
    26,
    27
   ],
   "name": "Bip01 Head",
   "rotation": [
    2.7342579311806503e-09,
    2.1106973235873738e-07,
    -0.07293804734945297,
    0.9973364472389221
   ],
   "scale": [
    1,
    1.0000001192092896,
    1
   ],
   "translation": [
    6.926529884338379,
    6.258492703636875e-06,
    -2.801201617330662e-06
   ]
  },
  {
   "name": "Bip01 L Finger02",
   "rotation": [
    2.9973946880090807e-07,
    5.620115040017026e-09,
    0.1068587452173233,
    0.9942741990089417
   ],
   "translation": [
    3.1003386974334717,
    3.814697265625e-06,
    2.002716064453125e-05
   ]
  },
  {
   "children": [
    29
   ],
   "name": "Bip01 L Finger01",
   "rotation": [
    -7.68576882137495e-08,
    1.6871197772161395e-08,
    0.11265218257904053,
    0.9936344623565674
   ],
   "scale": [
    1.0000001192092896,
    1,
    1.0000001192092896
   ],
   "translation": [
    2.82783842086792,
    1.33514404296875e-05,
    1.430511474609375e-06
   ]
  },
  {
   "children": [
    30
   ],
   "name": "Bip01 L Finger0",
   "rotation": [
    0.653939425945282,
    0.3667513430118561,
    -0.03328166529536247,
    0.6608698964118958
   ],
   "scale": [
    0.9999998807907104,
    1.000000238418579,
    0.9999999403953552
   ],
   "translation": [
    2.6760661602020264,
    0.6282026767730713,
    -3.1982545852661133
   ]
  },
  {
   "name": "Bip01 L Finger12",
   "rotation": [
    -3.4093989143002545e-07,
    1.1178357084418167e-07,
    0.02109173685312271,
    0.9997775554656982
   ],
   "translation": [
    2.379056453704834,
    1.4066696166992188e-05,
    -9.5367431640625e-07
   ]
  },
  {
   "children": [
    32
   ],
   "name": "Bip01 L Finger11",
   "rotation": [
    -3.9755258285367745e-07,
    -1.8521272693305946e-07,
    0.09346999228000641,
    0.9956220984458923
   ],
   "scale": [
    1,
    1,
    0.9999999403953552
   ],
   "translation": [
    3.128960132598877,
    5.9604644775390625e-06,
    3.337860107421875e-06
   ]
  },
  {
   "children": [
    33
   ],
   "name": "Bip01 L Finger1",
   "rotation": [
    -0.0005937397363595665,
    0.0041244495660066605,
    0.10714012384414673,
    0.9942352175712585
   ],
   "scale": [
    1,
    0.9999998807907104,
    1
   ],
   "translation": [
    9.438959121704102,
    -0.20393049716949463,
    -2.242450714111328
   ]
  },
  {
   "name": "Bip01 L Finger22",
   "rotation": [
    -1.8878516527820466e-08,
    2.8257529720576713e-06,
    0.09046696126461029,
    0.9958994388580322
   ],
   "scale": [
    1.0000001192092896,
    1.0000001192092896,
    0.9999999403953552
   ],
   "translation": [
    2.848818302154541,
    -1.1529773473739624e-05,
    9.5367431640625e-07
   ]
  },
  {
   "children": [
    35
   ],
   "name": "Bip01 L Finger21",
   "rotation": [
    1.1299905366968233e-07,
    -4.4126221609985805e-07,
    0.06659213453531265,
    0.9977803230285645
   ],
   "scale": [
    0.9999999403953552,
    1,
    1
   ],
   "translation": [
    3.801406145095825,
    6.16908073425293e-06,
    1.1920928955078125e-06
   ]
  },
  {
   "children": [
    36
   ],
   "name": "Bip01 L Finger2",
   "rotation": [
    -0.13920117914676666,
    -0.02846570312976837,
    0.14461666345596313,
    0.9792337417602539
   ],
   "scale": [
    1,
    0.9999998807907104,
    1
   ],
   "translation": [
    9.559270858764648,
    -0.18642985820770264,
    0.14534759521484375
   ]
  },
  {
   "name": "Bip01 L Finger32",
   "rotation": [
    1.0364228586468016e-08,
    -1.1738362104551925e-07,
    0.025095250457525253,
    0.9996850490570068
   ],
   "scale": [
    0.9999999403953552,
    0.9999998211860657,
    1
   ],
   "translation": [
    2.4442179203033447,
    -8.344650268554688e-06,
    9.5367431640625e-07
   ]
  },
  {
   "children": [
    38
   ],
   "name": "Bip01 L Finger31",
   "rotation": [
    -1.5921935414553445e-07,
    1.3054586744942753e-08,
    0.04960637539625168,
    0.9987688660621643
   ],
   "scale": [
    1,
    0.9999998807907104,
    0.9999999403953552
   ],
   "translation": [
    3.3696341514587402,
    9.03010368347168e-06,
    -2.384185791015625e-06
   ]
  },
  {
   "children": [
    39
   ],
   "name": "Bip01 L Finger3",
   "rotation": [
    -0.1477331519126892,
    -0.01908581331372261,
    0.18398885428905487,
    0.9715753793716431
   ],
   "translation": [
    8.993622779846191,
    0.22696328163146973,
    2.3016815185546875
   ]
  },
  {
   "name": "Bip01 L Finger42",
   "rotation": [
    2.5264171199523844e-07,
    1.4096463019086514e-07,
    0.024951238185167313,
    0.9996886849403381
   ],
   "scale": [
    1,
    0.9999999403953552,
    0.9999999403953552
   ],
   "translation": [
    1.5358189344406128,
    -7.867813110351562e-06,
    -3.814697265625e-06
   ]
  },
  {
   "children": [
    41
   ],
   "name": "Bip01 L Finger41",
   "rotation": [
    8.826309283449518e-08,
    -1.576625692223388e-07,
    0.021445419639348984,
    0.9997700452804565
   ],
   "scale": [
    1,
    1.0000001192092896,
    1.000000238418579
   ],
   "translation": [
    2.9087867736816406,
    1.5497207641601562e-06,
    6.67572021484375e-06
   ]
  },
  {
   "children": [
    42
   ],
   "name": "Bip01 L Finger4",
   "rotation": [
    -0.2242332249879837,
    -0.04356108978390694,
    0.26742023229599,
    0.9361134171485901
   ],
   "scale": [
    0.9999999403953552,
    1,
    1
   ],
   "translation": [
    8.023808479309082,
    1.2018942832946777,
    3.974728584289551
   ]
  },
  {
   "children": [
    31,
    34,
    37,
    40,
    43
   ],
   "name": "Bip01 L Hand",
   "rotation": [
    -0.7147622108459473,
    0.012448759749531746,
    0.03602425754070282,
    0.6983282566070557
   ],
   "scale": [
    0.9999999403953552,
    0.9999998211860657,
    0.9999998807907104
   ],
   "translation": [
    27.091943740844727,
    -5.7220458984375e-06,
    2.2649765014648438e-06
   ]
  },
  {
   "children": [
    44
   ],
   "name": "Bip01 L Forearm",
   "rotation": [
    -3.2187266185701446e-08,
    -8.916582316942367e-08,
    -0.17941702902317047,
    0.9837731122970581
   ],
   "translation": [
    28.580158233642578,
    -4.410743713378906e-06,
    -1.9878149032592773e-05
   ]
  },
  {
   "children": [
    45
   ],
   "name": "Bip01 L UpperArm",
   "rotation": [
    0.0900089293718338,
    0.2669895589351654,
    -0.029684152454137802,
    0.9590275287628174
   ],
   "scale": [
    0.9999999403953552,
    0.9999998807907104,
    0.9999999403953552
   ],
   "translation": [
    14.107975006103516,
    6.377696990966797e-06,
    3.328174352645874e-05
   ]
  },
  {
   "children": [
    46
   ],
   "name": "Bip01 L Clavicle",
   "rotation": [
    0.6135298609733582,
    -0.11396149545907974,
    0.7713326215744019,
    0.1250595897436142
   ],
   "scale": [
    1.0000003576278687,
    1.0000001192092896,
    1.0000001192092896
   ],
   "translation": [
    -6.20653772354126,
    0.7088306546211243,
    7.282190799713135
   ]
  },
  {
   "name": "Bip01 R Finger02",
   "rotation": [
    -3.5781400242740347e-07,
    1.1895911455894748e-07,
    0.10685882717370987,
    0.9942741990089417
   ],
   "scale": [
    0.9999999403953552,
    1.0000001192092896,
    0.9999998807907104
   ],
   "translation": [
    3.1003353595733643,
    -1.621246337890625e-05,
    1.430511474609375e-06
   ]
  },
  {
   "children": [
    48
   ],
   "name": "Bip01 R Finger01",
   "rotation": [
    1.1997299509403092e-07,
    1.4996624386753865e-08,
    0.11265213787555695,
    0.9936344623565674
   ],
   "scale": [
    1,
    0.9999998807907104,
    0.9999999403953552
   ],
   "translation": [
    2.8278307914733887,
    1.049041748046875e-05,
    1.0013580322265625e-05
   ]
  },
  {
   "children": [
    49
   ],
   "name": "Bip01 R Finger0",
   "rotation": [
    -0.6539389491081238,
    -0.3667515814304352,
    -0.03328155353665352,
    0.6608703136444092
   ],
   "scale": [
    1.0000001192092896,
    1,
    1
   ],
   "translation": [
    2.676081418991089,
    0.6282151937484741,
    3.1982502937316895
   ]
  },
  {
   "name": "Bip01 R Finger12",
   "rotation": [
    -8.756379799024216e-08,
    -1.8630593956459052e-08,
    0.021091626957058907,
    0.9997775554656982
   ],
   "scale": [
    1,
    1,
    0.9999999403953552
   ],
   "translation": [
    2.3790664672851562,
    1.4781951904296875e-05,
    -4.76837158203125e-06
   ]
  },
  {
   "children": [
    51
   ],
   "name": "Bip01 R Finger11",
   "rotation": [
    3.5265247788629495e-07,
    4.8641723537912185e-08,
    0.09346981346607208,
    0.9956220984458923
   ],
   "translation": [
    3.1289520263671875,
    0,
    1.2874603271484375e-05
   ]
  },
  {
   "children": [
    52
   ],
   "name": "Bip01 R Finger1",
   "rotation": [
    0.000593953300267458,
    -0.0041245524771511555,
    0.10714056342840195,
    0.9942351579666138
   ],
   "scale": [
    1.0000001192092896,
    1,
    1
   ],
   "translation": [
    9.438957214355469,
    -0.20390474796295166,
    2.24245023727417
   ]
  },
  {
   "name": "Bip01 R Finger22",
   "rotation": [
    -3.192392910023045e-07,
    -5.143364489867963e-08,
    0.09046696871519089,
    0.995899498462677
   ],
   "translation": [
    2.848802328109741,
    1.2662261724472046e-05,
    -1.430511474609375e-06
   ]
  },
  {
   "children": [
    54
   ],
   "name": "Bip01 R Finger21",
   "rotation": [
    6.253742412809515e-08,
    -3.616903043734965e-08,
    0.06659198552370071,
    0.9977803230285645
   ],
   "scale": [
    1,
    0.9999999403953552,
    1
   ],
   "translation": [
    3.8014025688171387,
    3.2782554626464844e-06,
    3.5762786865234375e-06
   ]
  },
  {
   "children": [
    55
   ],
   "name": "Bip01 R Finger2",
   "rotation": [
    0.13920123875141144,
    0.028465837240219116,
    0.14461705088615417,
    0.9792337417602539
   ],
   "scale": [
    1.0000001192092896,
    1.000000238418579,
    1
   ],
   "translation": [
    9.559269905090332,
    -0.1864020824432373,
    -0.14534616470336914
   ]
  },
  {
   "name": "Bip01 R Finger32",
   "rotation": [
    2.107781149618404e-08,
    6.99876494536511e-08,
    0.02509526163339615,
    0.9996850490570068
   ],
   "translation": [
    2.444222927093506,
    6.256625056266785e-06,
    -2.384185791015625e-07
   ]
  },
  {
   "children": [
    57
   ],
   "name": "Bip01 R Finger31",
   "rotation": [
    8.32229929415007e-08,
    -1.8649413124904868e-09,
    0.049606338143348694,
    0.9987688660621643
   ],
   "scale": [
    0.9999999403953552,
    1.0000001192092896,
    1
   ],
   "translation": [
    3.369628667831421,
    -1.5497207641601562e-06,
    4.5299530029296875e-06
   ]
  },
  {
   "children": [
    58
   ],
   "name": "Bip01 R Finger3",
   "rotation": [
    0.14773321151733398,
    0.01908583752810955,
    0.18398916721343994,
    0.9715753793716431
   ],
   "scale": [
    1.0000001192092896,
    1,
    0.9999999403953552
   ],
   "translation": [
    8.993624687194824,
    0.22699034214019775,
    -2.3016858100891113
   ]
  },
  {
   "name": "Bip01 R Finger42",
   "rotation": [
    -1.9319314503718488e-07,
    -8.372867910111381e-08,
    0.024951064959168434,
    0.9996886849403381
   ],
   "scale": [
    1,
    1.0000001192092896,
    1
   ],
   "translation": [
    1.53579843044281,
    -2.3245811462402344e-05,
    1.9073486328125e-06
   ]
  },
  {
   "children": [
    60
   ],
   "name": "Bip01 R Finger41",
   "rotation": [
    -3.230103686746588e-07,
    -1.280862989005982e-07,
    0.021445443853735924,
    0.9997700452804565
   ],
   "scale": [
    0.9999999403953552,
    0.9999999403953552,
    1
   ],
   "translation": [
    2.9087791442871094,
    -1.6689300537109375e-06,
    3.814697265625e-06
   ]
  },
  {
   "children": [
    61
   ],
   "name": "Bip01 R Finger4",
   "rotation": [
    0.224233478307724,
    0.04356164112687111,
    0.26742076873779297,
    0.936113178730011
   ],
   "scale": [
    1,
    0.9999999403953552,
    1
   ],
   "translation": [
    8.023795127868652,
    1.2019386291503906,
    -3.9747233390808105
   ]
  },
  {
   "children": [
    50,
    53,
    56,
    59,
    62
   ],
   "name": "Bip01 R Hand",
   "rotation": [
    0.7147617936134338,
    -0.012448589317500591,
    0.036024127155542374,
    0.6983286738395691
   ],
   "scale": [
    1,
    0.9999998211860657,
    0.9999998807907104
   ],
   "translation": [
    27.091930389404297,
    -3.266334533691406e-05,
    1.1205673217773438e-05
   ]
  },
  {
   "children": [
    63
   ],
   "name": "Bip01 R Forearm",
   "rotation": [
    1.70403168908706e-07,
    8.259820560851949e-08,
    -0.17941702902317047,
    0.9837731122970581
   ],
   "scale": [
    1,
    1.0000001192092896,
    1
   ],
   "translation": [
    28.580137252807617,
    -2.5033950805664062e-05,
    3.191828727722168e-05
   ]
  },
  {
   "children": [
    64
   ],
   "name": "Bip01 R UpperArm",
   "rotation": [
    -0.09000896662473679,
    -0.2669893503189087,
    -0.029684031382203102,
    0.9590276479721069
   ],
   "scale": [
    1,
    0.9999999403953552,
    1.0000001192092896
   ],
   "translation": [
    14.107951164245605,
    -3.3080577850341797e-06,
    1.0013580322265625e-05
   ]
  },
  {
   "children": [
    65
   ],
   "name": "Bip01 R Clavicle",
   "rotation": [
    -0.6135294437408447,
    0.11395939439535141,
    0.7713329792022705,
    0.12506121397018433
   ],
   "scale": [
    1.0000014305114746,
    1.0000001192092896,
    1.000000238418579
   ],
   "translation": [
    -6.206521987915039,
    0.7088670134544373,
    -7.28218412399292
   ]
  },
  {
   "children": [
    28,
    47,
    66
   ],
   "name": "Bip01 Neck",
   "rotation": [
    1.0528377281104895e-08,
    -3.77330934497877e-07,
    0.16845473647117615,
    0.9857093691825867
   ],
   "scale": [
    1,
    0.9999997615814209,
    0.9999998807907104
   ],
   "translation": [
    19.9141788482666,
    1.5633808374404907,
    -7.242124411277473e-07
   ]
  },
  {
   "children": [
    67
   ],
   "name": "Bip01 Spine2",
   "rotation": [
    1.2372791680093087e-09,
    -1.1736145921759089e-07,
    0.015563408844172955,
    0.9998788833618164
   ],
   "scale": [
    1,
    1.0000001192092896,
    1
   ],
   "translation": [
    15.31758975982666,
    -0.012191414833068848,
    -1.148468982137274e-07
   ]
  },
  {
   "children": [
    68
   ],
   "name": "Bip01 Spine1",
   "rotation": [
    6.75307920694479e-10,
    -1.6703173955079365e-08,
    -0.013679503463208675,
    0.9999064207077026
   ],
   "scale": [
    0.9999999403953552,
    1,
    1.0000001192092896
   ],
   "translation": [
    15.316869735717773,
    -0.01219189167022705,
    1.5592803492836538e-06
   ]
  },
  {
   "name": "Bip01 L Toe0",
   "rotation": [
    -6.084239316805906e-07,
    5.880078788322862e-07,
    0.70710688829422,
    0.7071066498756409
   ],
   "scale": [
    1,
    0.9999999403953552,
    0.9999999403953552
   ],
   "translation": [
    10.162383079528809,
    13.629579544067383,
    -2.2691732738167048e-05
   ]
  },
  {
   "children": [
    70
   ],
   "name": "Bip01 L Foot",
   "rotation": [
    0.014937197789549828,
    -0.0197177454829216,
    0.04391249641776085,
    0.9987290501594543
   ],
   "scale": [
    0.9999998807907104,
    0.9999998807907104,
    0.9999998807907104
   ],
   "translation": [
    39.66891860961914,
    -7.331371307373047e-06,
    -4.708766937255859e-06
   ]
  },
  {
   "children": [
    71
   ],
   "name": "Bip01 L Calf",
   "rotation": [
    2.781801811124751e-08,
    -7.58143059442773e-08,
    -0.06167902797460556,
    0.9980961084365845
   ],
   "scale": [
    0.9999999403953552,
    0.9999999403953552,
    0.9999999403953552
   ],
   "translation": [
    39.90353012084961,
    4.0531158447265625e-06,
    4.172325134277344e-07
   ]
  },
  {
   "children": [
    72
   ],
   "name": "Bip01 L Thigh",
   "rotation": [
    -0.0018706987611949444,
    -0.9900749921798706,
    -0.138014554977417,
    0.026459569111466408
   ],
   "scale": [
    0.9999999403953552,
    0.9999999403953552,
    1.0000001192092896
   ],
   "translation": [
    -12.021279335021973,
    -0.3724934756755829,
    8.836847305297852
   ]
  },
  {
   "name": "Bip01 R Toe0",
   "rotation": [
    5.40535666004871e-07,
    -6.704027555315406e-07,
    0.7071066498756409,
    0.70710688829422
   ],
   "scale": [
    0.9999999403953552,
    0.9999999403953552,
    1
   ],
   "translation": [
    10.162364959716797,
    13.6295747756958,
    2.1905521862208843e-05
   ]
  },
  {
   "children": [
    74
   ],
   "name": "Bip01 R Foot",
   "rotation": [
    -0.014937276020646095,
    0.01971806026995182,
    0.04391273111104965,
    0.9987290501594543
   ],
   "scale": [
    1.0000001192092896,
    0.9999999403953552,
    1
   ],
   "translation": [
    39.66889572143555,
    4.76837158203125e-07,
    -1.043081283569336e-06
   ]
  },
  {
   "children": [
    75
   ],
   "name": "Bip01 R Calf",
   "rotation": [
    3.2891740886498155e-08,
    -1.0264089667089138e-07,
    -0.06167902797460556,
    0.9980961084365845
   ],
   "scale": [
    0.9999999403953552,
    0.9999999403953552,
    1.0000001192092896
   ],
   "translation": [
    39.903533935546875,
    -7.152557373046875e-06,
    2.86102294921875e-06
   ]
  },
  {
   "children": [
    76
   ],
   "name": "Bip01 R Thigh",
   "rotation": [
    0.001870813430286944,
    0.9900753498077393,
    -0.13801179826259613,
    0.026459699496626854
   ],
   "scale": [
    0.9999999403953552,
    0.9999997615814209,
    1
   ],
   "translation": [
    -12.02127742767334,
    -0.3724438548088074,
    -8.836851119995117
   ]
  },
  {
   "children": [
    69,
    73,
    77
   ],
   "name": "Bip01 Spine",
   "rotation": [
    -2.0949328245478682e-06,
    8.043550110414799e-07,
    -0.02225603722035885,
    0.9997522830963135
   ],
   "scale": [
    1,
    1.0000001192092896,
    1
   ],
   "translation": [
    12.02593994140625,
    -0.1628580242395401,
    -1.7503118215245195e-05
   ]
  },
  {
   "children": [
    78
   ],
   "name": "Bip01 Pelvis",
   "rotation": [
    0.7071067690849304,
    0.7071067690849304,
    -1.0115257964571356e-06,
    3.09099092987708e-08
   ],
   "scale": [
    1,
    0.9999998807907104,
    1
   ],
   "translation": [
    3.019806626980426e-13,
    0,
    7.453889935837843e-20
   ]
  },
  {
   "mesh": 0,
   "name": "survivor_male",
   "skin": 0
  },
  {
   "mesh": 1,
   "name": "survivor_male_underwear",
   "skin": 0
  },
  {
   "children": [
    80,
    81,
    79
   ],
   "name": "Bip01",
   "rotation": [
    0,
    -0.7071062922477722,
    0,
    0.7071073651313782
   ],
   "scale": [
    0.009999999776482582,
    0.009999999776482582,
    0.009999999776482582
   ],
   "translation": [
    0,
    0.8951848149299622,
    0
   ]
  }
 ],
 "materials": [
  {
   "name": "survivor_male_body",
   "normalTexture": {
    "index": 0
   },
   "occlusionTexture": {
    "index": 1
   },
   "pbrMetallicRoughness": {
    "baseColorTexture": {
     "index": 2
    },
    "metallicRoughnessTexture": {
     "index": 1
    }
   }
  },
  {
   "name": "survivor_male_head",
   "normalTexture": {
    "index": 3
   },
   "occlusionTexture": {
    "index": 4
   },
   "pbrMetallicRoughness": {
    "baseColorTexture": {
     "index": 5
    },
    "metallicRoughnessTexture": {
     "index": 4
    }
   }
  },
  {
   "name": "survivor_male_eye",
   "normalTexture": {
    "index": 6
   },
   "occlusionTexture": {
    "index": 7
   },
   "pbrMetallicRoughness": {
    "baseColorTexture": {
     "index": 8
    },
    "metallicRoughnessTexture": {
     "index": 7
    }
   }
  },
  {
   "alphaMode": "MASK",
   "doubleSided": true,
   "name": "survivor_male_hair",
   "normalTexture": {
    "index": 9
   },
   "occlusionTexture": {
    "index": 10
   },
   "pbrMetallicRoughness": {
    "baseColorTexture": {
     "index": 11
    },
    "metallicRoughnessTexture": {
     "index": 10
    }
   }
  },
  {
   "alphaMode": "MASK",
   "doubleSided": true,
   "name": "survivor_male_lashes",
   "pbrMetallicRoughness": {
    "baseColorTexture": {
     "index": 12
    },
    "metallicFactor": 0,
    "roughnessFactor": 0.6000000238418579
   }
  },
  {
   "name": "survivor_male_underwear",
   "normalTexture": {
    "index": 13
   },
   "occlusionTexture": {
    "index": 14
   },
   "pbrMetallicRoughness": {
    "baseColorTexture": {
     "index": 15
    },
    "metallicRoughnessTexture": {
     "index": 14
    }
   }
  }
 ],
 "meshes": [
  {
   "name": "survivor_male",
   "primitives": [
    {
     "attributes": {
      "POSITION": 0,
      "NORMAL": 1,
      "TEXCOORD_0": 2,
      "TANGENT": 3,
      "JOINTS_0": 4,
      "WEIGHTS_0": 5
     },
     "indices": 6,
     "material": 0
    },
    {
     "attributes": {
      "POSITION": 7,
      "NORMAL": 8,
      "TEXCOORD_0": 9,
      "TANGENT": 10,
      "JOINTS_0": 11,
      "WEIGHTS_0": 12
     },
     "indices": 13,
     "material": 1
    },
    {
     "attributes": {
      "POSITION": 14,
      "NORMAL": 15,
      "TEXCOORD_0": 16,
      "TANGENT": 17,
      "JOINTS_0": 18,
      "WEIGHTS_0": 19
     },
     "indices": 20,
     "material": 2
    },
    {
     "attributes": {
      "POSITION": 21,
      "NORMAL": 22,
      "TEXCOORD_0": 23,
      "TANGENT": 24,
      "JOINTS_0": 25,
      "WEIGHTS_0": 26
     },
     "indices": 27,
     "material": 3
    },
    {
     "attributes": {
      "POSITION": 28,
      "NORMAL": 29,
      "TEXCOORD_0": 30,
      "TANGENT": 31,
      "JOINTS_0": 32,
      "WEIGHTS_0": 33
     },
     "indices": 34,
     "material": 4
    }
   ]
  },
  {
   "name": "20_underwear",
   "primitives": [
    {
     "attributes": {
      "POSITION": 36,
      "NORMAL": 37,
      "TEXCOORD_0": 38,
      "TANGENT": 39,
      "JOINTS_0": 40,
      "WEIGHTS_0": 41
     },
     "indices": 42,
     "material": 5
    }
   ]
  }
 ],
 "textures": [
  {
   "sampler": 0,
   "source": 0
  },
  {
   "sampler": 0,
   "source": 1
  },
  {
   "sampler": 0,
   "source": 2
  },
  {
   "sampler": 0,
   "source": 3
  },
  {
   "sampler": 0,
   "source": 4
  },
  {
   "sampler": 0,
   "source": 5
  },
  {
   "sampler": 0,
   "source": 6
  },
  {
   "sampler": 0,
   "source": 7
  },
  {
   "sampler": 0,
   "source": 8
  },
  {
   "sampler": 0,
   "source": 9
  },
  {
   "sampler": 0,
   "source": 10
  },
  {
   "sampler": 0,
   "source": 11
  },
  {
   "sampler": 0,
   "source": 12
  },
  {
   "sampler": 0,
   "source": 13
  },
  {
   "sampler": 0,
   "source": 14
  },
  {
   "sampler": 0,
   "source": 15
  }
 ],
 "images": [
  {
   "mimeType": "image/png",
   "name": "survivor_male_body_nor_gl",
   "uri": "survivor_male_body_nor_gl.png"
  },
  {
   "mimeType": "image/png",
   "name": "survivor_male_body_orm",
   "uri": "survivor_male_body_orm.png"
  },
  {
   "mimeType": "image/png",
   "name": "survivor_male_body_albedo",
   "uri": "survivor_male_body_albedo.png"
  },
  {
   "mimeType": "image/png",
   "name": "survivor_male_head_nor_gl",
   "uri": "survivor_male_head_nor_gl.png"
  },
  {
   "mimeType": "image/png",
   "name": "survivor_male_head_orm",
   "uri": "survivor_male_head_orm.png"
  },
  {
   "mimeType": "image/png",
   "name": "survivor_male_head_albedo",
   "uri": "survivor_male_head_albedo.png"
  },
  {
   "mimeType": "image/png",
   "name": "survivor_male_eye_nor_gl",
   "uri": "survivor_male_eye_nor_gl.png"
  },
  {
   "mimeType": "image/png",
   "name": "survivor_male_eye_orm",
   "uri": "survivor_male_eye_orm.png"
  },
  {
   "mimeType": "image/png",
   "name": "survivor_male_eye_albedo",
   "uri": "survivor_male_eye_albedo.png"
  },
  {
   "mimeType": "image/png",
   "name": "survivor_male_hair_nor_gl",
   "uri": "survivor_male_hair_nor_gl.png"
  },
  {
   "mimeType": "image/png",
   "name": "survivor_male_hair_orm",
   "uri": "survivor_male_hair_orm.png"
  },
  {
   "mimeType": "image/png",
   "name": "survivor_male_hair_albedo",
   "uri": "survivor_male_hair_albedo.png"
  },
  {
   "mimeType": "image/png",
   "name": "survivor_male_lashes_albedo",
   "uri": "survivor_male_lashes_albedo.png"
  },
  {
   "mimeType": "image/png",
   "name": "survivor_male_underwear_nor_gl",
   "uri": "survivor_male_underwear_nor_gl.png"
  },
  {
   "mimeType": "image/png",
   "name": "survivor_male_underwear_orm",
   "uri": "survivor_male_underwear_orm.png"
  },
  {
   "mimeType": "image/png",
   "name": "survivor_male_underwear_albedo",
   "uri": "survivor_male_underwear_albedo.png"
  }
 ],
 "skins": [
  {
   "inverseBindMatrices": 35,
   "joints": [
    79,
    78,
    69,
    68,
    67,
    28,
    0,
    1,
    6,
    2,
    3,
    4,
    5,
    7,
    8,
    9,
    10,
    11,
    12,
    13,
    14,
    15,
    16,
    17,
    18,
    19,
    20,
    21,
    22,
    23,
    24,
    25,
    26,
    27,
    47,
    46,
    45,
    44,
    31,
    30,
    29,
    34,
    33,
    32,
    37,
    36,
    35,
    40,
    39,
    38,
    43,
    42,
    41,
    66,
    65,
    64,
    63,
    50,
    49,
    48,
    53,
    52,
    51,
    56,
    55,
    54,
    59,
    58,
    57,
    62,
    61,
    60,
    73,
    72,
    71,
    70,
    77,
    76,
    75,
    74
   ],
   "name": "Bip01"
  }
 ],
 "accessors": [
  {
   "bufferView": 0,
   "componentType": 5126,
   "count": 26670,
   "max": [
    0.6717531085014343,
    1.598488211631775,
    0.1853019744157791
   ],
   "min": [
    -0.6717531085014343,
    -0.001484591281041503,
    -0.11977937072515488
   ],
   "type": "VEC3"
  },
  {
   "bufferView": 1,
   "componentType": 5126,
   "count": 26670,
   "type": "VEC3"
  },
  {
   "bufferView": 2,
   "componentType": 5126,
   "count": 26670,
   "type": "VEC2"
  },
  {
   "bufferView": 3,
   "componentType": 5126,
   "count": 26670,
   "type": "VEC4"
  },
  {
   "bufferView": 4,
   "componentType": 5121,
   "count": 26670,
   "type": "VEC4"
  },
  {
   "bufferView": 5,
   "componentType": 5126,
   "count": 26670,
   "type": "VEC4"
  },
  {
   "bufferView": 6,
   "componentType": 5123,
   "count": 150519,
   "type": "SCALAR"
  },
  {
   "bufferView": 7,
   "componentType": 5126,
   "count": 8336,
   "max": [
    0.08766544610261917,
    1.7937536239624023,
    0.14660073816776276
   ],
   "min": [
    -0.08777934312820435,
    1.5129289627075195,
    -0.0783534124493599
   ],
   "type": "VEC3"
  },
  {
   "bufferView": 8,
   "componentType": 5126,
   "count": 8336,
   "type": "VEC3"
  },
  {
   "bufferView": 9,
   "componentType": 5126,
   "count": 8336,
   "type": "VEC2"
  },
  {
   "bufferView": 10,
   "componentType": 5126,
   "count": 8336,
   "type": "VEC4"
  },
  {
   "bufferView": 11,
   "componentType": 5121,
   "count": 8336,
   "type": "VEC4"
  },
  {
   "bufferView": 12,
   "componentType": 5126,
   "count": 8336,
   "type": "VEC4"
  },
  {
   "bufferView": 13,
   "componentType": 5123,
   "count": 48228,
   "type": "SCALAR"
  },
  {
   "bufferView": 14,
   "componentType": 5126,
   "count": 1130,
   "max": [
    0.049993593245744705,
    1.7040513753890991,
    0.11318635940551758
   ],
   "min": [
    -0.04999367147684097,
    1.6680641174316406,
    0.08594202995300293
   ],
   "type": "VEC3"
  },
  {
   "bufferView": 15,
   "componentType": 5126,
   "count": 1130,
   "type": "VEC3"
  },
  {
   "bufferView": 16,
   "componentType": 5126,
   "count": 1130,
   "type": "VEC2"
  },
  {
   "bufferView": 17,
   "componentType": 5126,
   "count": 1130,
   "type": "VEC4"
  },
  {
   "bufferView": 18,
   "componentType": 5121,
   "count": 1130,
   "type": "VEC4"
  },
  {
   "bufferView": 19,
   "componentType": 5126,
   "count": 1130,
   "type": "VEC4"
  },
  {
   "bufferView": 20,
   "componentType": 5123,
   "count": 6552,
   "type": "SCALAR"
  },
  {
   "bufferView": 21,
   "componentType": 5126,
   "count": 29100,
   "max": [
    0.591591477394104,
    1.8089451789855957,
    0.14275965094566345
   ],
   "min": [
    -0.6007062196731567,
    0.12763100862503052,
    -0.08447755873203278
   ],
   "type": "VEC3"
  },
  {
   "bufferView": 22,
   "componentType": 5126,
   "count": 29100,
   "type": "VEC3"
  },
  {
   "bufferView": 23,
   "componentType": 5126,
   "count": 29100,
   "type": "VEC2"
  },
  {
   "bufferView": 24,
   "componentType": 5126,
   "count": 29100,
   "type": "VEC4"
  },
  {
   "bufferView": 25,
   "componentType": 5121,
   "count": 29100,
   "type": "VEC4"
  },
  {
   "bufferView": 26,
   "componentType": 5126,
   "count": 29100,
   "type": "VEC4"
  },
  {
   "bufferView": 27,
   "componentType": 5123,
   "count": 55644,
   "type": "SCALAR"
  },
  {
   "bufferView": 28,
   "componentType": 5126,
   "count": 456,
   "max": [
    0.06545484811067581,
    1.7082535028457642,
    0.126566082239151
   ],
   "min": [
    -0.06511276960372925,
    1.6759109497070312,
    0.07860854268074036
   ],
   "type": "VEC3"
  },
  {
   "bufferView": 29,
   "componentType": 5126,
   "count": 456,
   "type": "VEC3"
  },
  {
   "bufferView": 30,
   "componentType": 5126,
   "count": 456,
   "type": "VEC2"
  },
  {
   "bufferView": 31,
   "componentType": 5126,
   "count": 456,
   "type": "VEC4"
  },
  {
   "bufferView": 32,
   "componentType": 5121,
   "count": 456,
   "type": "VEC4"
  },
  {
   "bufferView": 33,
   "componentType": 5126,
   "count": 456,
   "type": "VEC4"
  },
  {
   "bufferView": 34,
   "componentType": 5123,
   "count": 1056,
   "type": "SCALAR"
  },
  {
   "bufferView": 35,
   "componentType": 5126,
   "count": 80,
   "type": "MAT4"
  },
  {
   "bufferView": 36,
   "componentType": 5126,
   "count": 4854,
   "max": [
    0.1798035055398941,
    1.0134867429733276,
    0.12992243468761444
   ],
   "min": [
    -0.1798826903104782,
    0.6799707412719727,
    -0.11401169747114182
   ],
   "type": "VEC3"
  },
  {
   "bufferView": 37,
   "componentType": 5126,
   "count": 4854,
   "type": "VEC3"
  },
  {
   "bufferView": 38,
   "componentType": 5126,
   "count": 4854,
   "type": "VEC2"
  },
  {
   "bufferView": 39,
   "componentType": 5126,
   "count": 4854,
   "type": "VEC4"
  },
  {
   "bufferView": 40,
   "componentType": 5121,
   "count": 4854,
   "type": "VEC4"
  },
  {
   "bufferView": 41,
   "componentType": 5126,
   "count": 4854,
   "type": "VEC4"
  },
  {
   "bufferView": 42,
   "componentType": 5123,
   "count": 25803,
   "type": "SCALAR"
  }
 ],
 "bufferViews": [
  {
   "buffer": 0,
   "byteLength": 320040,
   "byteOffset": 0,
   "target": 34962
  },
  {
   "buffer": 0,
   "byteLength": 320040,
   "byteOffset": 320040,
   "target": 34962
  },
  {
   "buffer": 0,
   "byteLength": 213360,
   "byteOffset": 640080,
   "target": 34962
  },
  {
   "buffer": 0,
   "byteLength": 426720,
   "byteOffset": 853440,
   "target": 34962
  },
  {
   "buffer": 0,
   "byteLength": 106680,
   "byteOffset": 1280160,
   "target": 34962
  },
  {
   "buffer": 0,
   "byteLength": 426720,
   "byteOffset": 1386840,
   "target": 34962
  },
  {
   "buffer": 0,
   "byteLength": 301038,
   "byteOffset": 1813560,
   "target": 34963
  },
  {
   "buffer": 0,
   "byteLength": 100032,
   "byteOffset": 2114600,
   "target": 34962
  },
  {
   "buffer": 0,
   "byteLength": 100032,
   "byteOffset": 2214632,
   "target": 34962
  },
  {
   "buffer": 0,
   "byteLength": 66688,
   "byteOffset": 2314664,
   "target": 34962
  },
  {
   "buffer": 0,
   "byteLength": 133376,
   "byteOffset": 2381352,
   "target": 34962
  },
  {
   "buffer": 0,
   "byteLength": 33344,
   "byteOffset": 2514728,
   "target": 34962
  },
  {
   "buffer": 0,
   "byteLength": 133376,
   "byteOffset": 2548072,
   "target": 34962
  },
  {
   "buffer": 0,
   "byteLength": 96456,
   "byteOffset": 2681448,
   "target": 34963
  },
  {
   "buffer": 0,
   "byteLength": 13560,
   "byteOffset": 2777904,
   "target": 34962
  },
  {
   "buffer": 0,
   "byteLength": 13560,
   "byteOffset": 2791464,
   "target": 34962
  },
  {
   "buffer": 0,
   "byteLength": 9040,
   "byteOffset": 2805024,
   "target": 34962
  },
  {
   "buffer": 0,
   "byteLength": 18080,
   "byteOffset": 2814064,
   "target": 34962
  },
  {
   "buffer": 0,
   "byteLength": 4520,
   "byteOffset": 2832144,
   "target": 34962
  },
  {
   "buffer": 0,
   "byteLength": 18080,
   "byteOffset": 2836664,
   "target": 34962
  },
  {
   "buffer": 0,
   "byteLength": 13104,
   "byteOffset": 2854744,
   "target": 34963
  },
  {
   "buffer": 0,
   "byteLength": 349200,
   "byteOffset": 2867848,
   "target": 34962
  },
  {
   "buffer": 0,
   "byteLength": 349200,
   "byteOffset": 3217048,
   "target": 34962
  },
  {
   "buffer": 0,
   "byteLength": 232800,
   "byteOffset": 3566248,
   "target": 34962
  },
  {
   "buffer": 0,
   "byteLength": 465600,
   "byteOffset": 3799048,
   "target": 34962
  },
  {
   "buffer": 0,
   "byteLength": 116400,
   "byteOffset": 4264648,
   "target": 34962
  },
  {
   "buffer": 0,
   "byteLength": 465600,
   "byteOffset": 4381048,
   "target": 34962
  },
  {
   "buffer": 0,
   "byteLength": 111288,
   "byteOffset": 4846648,
   "target": 34963
  },
  {
   "buffer": 0,
   "byteLength": 5472,
   "byteOffset": 4957936,
   "target": 34962
  },
  {
   "buffer": 0,
   "byteLength": 5472,
   "byteOffset": 4963408,
   "target": 34962
  },
  {
   "buffer": 0,
   "byteLength": 3648,
   "byteOffset": 4968880,
   "target": 34962
  },
  {
   "buffer": 0,
   "byteLength": 7296,
   "byteOffset": 4972528,
   "target": 34962
  },
  {
   "buffer": 0,
   "byteLength": 1824,
   "byteOffset": 4979824,
   "target": 34962
  },
  {
   "buffer": 0,
   "byteLength": 7296,
   "byteOffset": 4981648,
   "target": 34962
  },
  {
   "buffer": 0,
   "byteLength": 2112,
   "byteOffset": 4988944,
   "target": 34963
  },
  {
   "buffer": 0,
   "byteLength": 5120,
   "byteOffset": 4991056
  },
  {
   "buffer": 0,
   "byteLength": 58248,
   "byteOffset": 4996176,
   "target": 34962
  },
  {
   "buffer": 0,
   "byteLength": 58248,
   "byteOffset": 5054424,
   "target": 34962
  },
  {
   "buffer": 0,
   "byteLength": 38832,
   "byteOffset": 5112672,
   "target": 34962
  },
  {
   "buffer": 0,
   "byteLength": 77664,
   "byteOffset": 5151504,
   "target": 34962
  },
  {
   "buffer": 0,
   "byteLength": 19416,
   "byteOffset": 5229168,
   "target": 34962
  },
  {
   "buffer": 0,
   "byteLength": 77664,
   "byteOffset": 5248584,
   "target": 34962
  },
  {
   "buffer": 0,
   "byteLength": 51606,
   "byteOffset": 5326248,
   "target": 34963
  }
 ],
 "samplers": [
  {
   "magFilter": 9729,
   "minFilter": 9987
  }
 ],
 "buffers": [
  {
   "byteLength": 5377854,
   "uri": "survivor_male.bin"
  }
 ]
}