{
	"asset":{
		"generator":"Khronos glTF Blender I/O v4.5.51",
		"version":"2.0"
	},
	"scene":0,
	"scenes":[
		{
			"name":"Scene",
			"nodes":[
				0,
				1,
				2,
				3
			]
		}
	],
	"nodes":[
		{
			"mesh":0,
			"name":"workbench_1"
		},
		{
			"mesh":1,
			"name":"workbench_2"
		},
		{
			"mesh":2,
			"name":"workbench_3"
		},
		{
			"mesh":3,
			"name":"research_table"
		}
	],
	"materials":[
		{
			"doubleSided":true,
			"name":"workbench_1_baked",
			"normalTexture":{
				"index":0
			},
			"occlusionTexture":{
				"index":1
			},
			"pbrMetallicRoughness":{
				"baseColorTexture":{
					"index":2
				},
				"metallicRoughnessTexture":{
					"index":1
				}
			}
		},
		{
			"doubleSided":true,
			"name":"workbench_2_baked",
			"normalTexture":{
				"index":3
			},
			"occlusionTexture":{
				"index":4
			},
			"pbrMetallicRoughness":{
				"baseColorTexture":{
					"index":5
				},
				"metallicRoughnessTexture":{
					"index":4
				}
			}
		},
		{
			"doubleSided":true,
			"name":"workbench_3_baked",
			"normalTexture":{
				"index":6
			},
			"occlusionTexture":{
				"index":7
			},
			"pbrMetallicRoughness":{
				"baseColorTexture":{
					"index":8
				},
				"metallicRoughnessTexture":{
					"index":7
				}
			}
		},
		{
			"doubleSided":true,
			"name":"research_table_baked",
			"normalTexture":{
				"index":9
			},
			"occlusionTexture":{
				"index":10
			},
			"pbrMetallicRoughness":{
				"baseColorTexture":{
					"index":11
				},
				"metallicRoughnessTexture":{
					"index":10
				}
			}
		}
	],
	"meshes":[
		{
			"name":"workbench_1",
			"primitives":[
				{
					"attributes":{
						"POSITION":0,
						"NORMAL":1,
						"TEXCOORD_0":2
					},
					"indices":3,
					"material":0
				}
			]
		},
		{
			"name":"workbench_2",
			"primitives":[
				{
					"attributes":{
						"POSITION":4,
						"NORMAL":5,
						"TEXCOORD_0":6
					},
					"indices":7,
					"material":1
				}
			]
		},
		{
			"name":"workbench_3",
			"primitives":[
				{
					"attributes":{
						"POSITION":8,
						"NORMAL":9,
						"TEXCOORD_0":10
					},
					"indices":11,
					"material":2
				}
			]
		},
		{
			"name":"research_table",
			"primitives":[
				{
					"attributes":{
						"POSITION":12,
						"NORMAL":13,
						"TEXCOORD_0":14
					},
					"indices":15,
					"material":3
				}
			]
		}
	],
	"textures":[
		{
			"sampler":0,
			"source":0
		},
		{
			"sampler":0,
			"source":1
		},
		{
			"sampler":0,
			"source":2
		},
		{
			"sampler":0,
			"source":3
		},
		{
			"sampler":0,
			"source":4
		},
		{
			"sampler":0,
			"source":5
		},
		{
			"sampler":0,
			"source":6
		},
		{
			"sampler":0,
			"source":7
		},
		{
			"sampler":0,
			"source":8
		},
		{
			"sampler":0,
			"source":9
		},
		{
			"sampler":0,
			"source":10
		},
		{
			"sampler":0,
			"source":11
		}
	],
	"images":[
		{
			"mimeType":"image/png",
			"name":"workbench_1_normal",
			"uri":"workbench_1_normal.png"
		},
		{
			"mimeType":"image/png",
			"name":"workbench_1_orm",
			"uri":"workbench_1_orm.png"
		},
		{
			"mimeType":"image/png",
			"name":"workbench_1_albedo",
			"uri":"workbench_1_albedo.png"
		},
		{
			"mimeType":"image/png",
			"name":"workbench_2_normal",
			"uri":"workbench_2_normal.png"
		},
		{
			"mimeType":"image/png",
			"name":"workbench_2_orm",
			"uri":"workbench_2_orm.png"
		},
		{
			"mimeType":"image/png",
			"name":"workbench_2_albedo",
			"uri":"workbench_2_albedo.png"
		},
		{
			"mimeType":"image/png",
			"name":"workbench_3_normal",
			"uri":"workbench_3_normal.png"
		},
		{
			"mimeType":"image/png",
			"name":"workbench_3_orm",
			"uri":"workbench_3_orm.png"
		},
		{
			"mimeType":"image/png",
			"name":"workbench_3_albedo",
			"uri":"workbench_3_albedo.png"
		},
		{
			"mimeType":"image/png",
			"name":"research_table_normal",
			"uri":"research_table_normal.png"
		},
		{
			"mimeType":"image/png",
			"name":"research_table_orm",
			"uri":"research_table_orm.png"
		},
		{
			"mimeType":"image/png",
			"name":"research_table_albedo",
			"uri":"research_table_albedo.png"
		}
	],
	"accessors":[
		{
			"bufferView":0,
			"componentType":5126,
			"count":20925,
			"max":[
				0.8313630223274231,
				1.0507636070251465,
				0.6349999904632568
			],
			"min":[
				-0.8168690204620361,
				-0.0005787589470855892,
				-0.38862866163253784
			],
			"type":"VEC3"
		},
		{
			"bufferView":1,
			"componentType":5126,
			"count":20925,
			"type":"VEC3"
		},
		{
			"bufferView":2,
			"componentType":5126,
			"count":20925,
			"type":"VEC2"
		},
		{
			"bufferView":3,
			"componentType":5123,
			"count":56568,
			"type":"SCALAR"
		},
		{
			"bufferView":4,
			"componentType":5126,
			"count":42337,
			"max":[
				0.8100000023841858,
				1.5399999618530273,
				0.6759999990463257
			],
			"min":[
				-0.8100000023841858,
				0,
				-0.42500001192092896
			],
			"type":"VEC3"
		},
		{
			"bufferView":5,
			"componentType":5126,
			"count":42337,
			"type":"VEC3"
		},
		{
			"bufferView":6,
			"componentType":5126,
			"count":42337,
			"type":"VEC2"
		},
		{
			"bufferView":7,
			"componentType":5123,
			"count":117816,
			"type":"SCALAR"
		},
		{
			"bufferView":8,
			"componentType":5126,
			"count":15322,
			"max":[
				1.1100000143051147,
				1.8600000143051147,
				0.4099999964237213
			],
			"min":[
				-0.8199999928474426,
				0,
				-0.49000000953674316
			],
			"type":"VEC3"
		},
		{
			"bufferView":9,
			"componentType":5126,
			"count":15322,
			"type":"VEC3"
		},
		{
			"bufferView":10,
			"componentType":5126,
			"count":15322,
			"type":"VEC2"
		},
		{
			"bufferView":11,
			"componentType":5123,
			"count":44052,
			"type":"SCALAR"
		},
		{
			"bufferView":12,
			"componentType":5126,
			"count":15347,
			"max":[
				0.6092690229415894,
				1.1340000629425049,
				0.36399999260902405
			],
			"min":[
				-0.6098966002464294,
				0,
				-0.3714943826198578
			],
			"type":"VEC3"
		},
		{
			"bufferView":13,
			"componentType":5126,
			"count":15347,
			"type":"VEC3"
		},
		{
			"bufferView":14,
			"componentType":5126,
			"count":15347,
			"type":"VEC2"
		},
		{
			"bufferView":15,
			"componentType":5123,
			"count":38856,
			"type":"SCALAR"
		}
	],
	"bufferViews":[
		{
			"buffer":0,
			"byteLength":251100,
			"byteOffset":0,
			"target":34962
		},
		{
			"buffer":0,
			"byteLength":251100,
			"byteOffset":251100,
			"target":34962
		},
		{
			"buffer":0,
			"byteLength":167400,
			"byteOffset":502200,
			"target":34962
		},
		{
			"buffer":0,
			"byteLength":113136,
			"byteOffset":669600,
			"target":34963
		},
		{
			"buffer":0,
			"byteLength":508044,
			"byteOffset":782736,
			"target":34962
		},
		{
			"buffer":0,
			"byteLength":508044,
			"byteOffset":1290780,
			"target":34962
		},
		{
			"buffer":0,
			"byteLength":338696,
			"byteOffset":1798824,
			"target":34962
		},
		{
			"buffer":0,
			"byteLength":235632,
			"byteOffset":2137520,
			"target":34963
		},
		{
			"buffer":0,
			"byteLength":183864,
			"byteOffset":2373152,
			"target":34962
		},
		{
			"buffer":0,
			"byteLength":183864,
			"byteOffset":2557016,
			"target":34962
		},
		{
			"buffer":0,
			"byteLength":122576,
			"byteOffset":2740880,
			"target":34962
		},
		{
			"buffer":0,
			"byteLength":88104,
			"byteOffset":2863456,
			"target":34963
		},
		{
			"buffer":0,
			"byteLength":184164,
			"byteOffset":2951560,
			"target":34962
		},
		{
			"buffer":0,
			"byteLength":184164,
			"byteOffset":3135724,
			"target":34962
		},
		{
			"buffer":0,
			"byteLength":122776,
			"byteOffset":3319888,
			"target":34962
		},
		{
			"buffer":0,
			"byteLength":77712,
			"byteOffset":3442664,
			"target":34963
		}
	],
	"samplers":[
		{
			"magFilter":9729,
			"minFilter":9987
		}
	],
	"buffers":[
		{
			"byteLength":3520376,
			"uri":"deployables.bin"
		}
	]
}
