{
 "asset": {
  "generator": "Khronos glTF Blender I/O v4.5.51",
  "version": "2.0"
 },
 "scene": 0,
 "scenes": [
  {
   "name": "Scene",
   "nodes": [
    0
   ]
  }
 ],
 "nodes": [
  {
   "mesh": 0,
   "name": "boulder_01"
  }
 ],
 "materials": [
  {
   "doubleSided": true,
   "name": "boulder_01",
   "normalTexture": {
    "index": 0
   },
   "pbrMetallicRoughness": {
    "baseColorTexture": {
     "index": 1
    },
    "metallicFactor": 0,
    "metallicRoughnessTexture": {
     "index": 2
    }
   }
  }
 ],
 "meshes": [
  {
   "name": "rock_PROXY_5m.002",
   "primitives": [
    {
     "attributes": {
      "POSITION": 0,
      "NORMAL": 1,
      "TEXCOORD_0": 2
     },
     "indices": 3,
     "material": 0
    }
   ]
  }
 ],
 "textures": [
  {
   "sampler": 0,
   "source": 0
  },
  {
   "sampler": 0,
   "source": 1
  },
  {
   "sampler": 0,
   "source": 2
  }
 ],
 "images": [
  {
   "mimeType": "image/jpeg",
   "name": "boulder_01_nor_gl",
   "uri": "../boulder_01/textures/boulder_01_nor_gl_2k.jpg"
  },
  {
   "mimeType": "image/jpeg",
   "name": "boulder_01_diff",
   "uri": "../boulder_01/textures/boulder_01_diff_2k.jpg"
  },
  {
   "mimeType": "image/jpeg",
   "name": "boulder_01_rough",
   "uri": "../boulder_01/textures/boulder_01_arm_2k.jpg"
  }
 ],
 "accessors": [
  {
   "bufferView": 0,
   "componentType": 5126,
   "count": 1835,
   "max": [
    0.5262805819511414,
    0.9288087487220764,
    0.8805339336395264
   ],
   "min": [
    -0.7483263611793518,
    -0.07003352791070938,
    -0.950101375579834
   ],
   "type": "VEC3"
  },
  {
   "bufferView": 1,
   "componentType": 5126,
   "count": 1835,
   "type": "VEC3"
  },
  {
   "bufferView": 2,
   "componentType": 5126,
   "count": 1835,
   "type": "VEC2"
  },
  {
   "bufferView": 3,
   "componentType": 5123,
   "count": 6000,
   "type": "SCALAR"
  }
 ],
 "bufferViews": [
  {
   "buffer": 0,
   "byteLength": 22020,
   "byteOffset": 0,
   "target": 34962
  },
  {
   "buffer": 0,
   "byteLength": 22020,
   "byteOffset": 22020,
   "target": 34962
  },
  {
   "buffer": 0,
   "byteLength": 14680,
   "byteOffset": 44040,
   "target": 34962
  },
  {
   "buffer": 0,
   "byteLength": 12000,
   "byteOffset": 58720,
   "target": 34963
  }
 ],
 "samplers": [
  {
   "magFilter": 9729,
   "minFilter": 9987
  }
 ],
 "buffers": [
  {
   "byteLength": 70720,
   "uri": "boulder_01_far.bin"
  }
 ]
}