{
 "asset": {
  "generator": "Khronos glTF Blender I/O v4.5.51",
  "version": "2.0"
 },
 "scene": 0,
 "scenes": [
  {
   "name": "Scene",
   "nodes": [
    0,
    1
   ]
  }
 ],
 "nodes": [
  {
   "mesh": 0,
   "name": "prop_litter_bin"
  },
  {
   "mesh": 1,
   "name": "col_metal_1"
  }
 ],
 "materials": [
  {
   "doubleSided": true,
   "name": "prop_litter_bin",
   "normalTexture": {
    "index": 0
   },
   "occlusionTexture": {
    "index": 1
   },
   "pbrMetallicRoughness": {
    "baseColorTexture": {
     "index": 2
    },
    "metallicRoughnessTexture": {
     "index": 1
    }
   }
  }
 ],
 "meshes": [
  {
   "name": "prop_litter_bin",
   "primitives": [
    {
     "attributes": {
      "POSITION": 0,
      "NORMAL": 1,
      "TEXCOORD_0": 2
     },
     "indices": 3,
     "material": 0
    }
   ]
  },
  {
   "name": "col_metal_1",
   "primitives": [
    {
     "attributes": {
      "POSITION": 4,
      "NORMAL": 5,
      "TEXCOORD_0": 6
     },
     "indices": 7,
     "material": 0
    }
   ]
  }
 ],
 "textures": [
  {
   "sampler": 0,
   "source": 0
  },
  {
   "sampler": 0,
   "source": 1
  },
  {
   "sampler": 0,
   "source": 2
  }
 ],
 "images": [
  {
   "mimeType": "image/png",
   "name": "prop_litter_bin_normal",
   "uri": "prop_litter_bin_normal.png"
  },
  {
   "mimeType": "image/png",
   "name": "prop_litter_bin_orm",
   "uri": "prop_litter_bin_orm.png"
  },
  {
   "mimeType": "image/png",
   "name": "prop_litter_bin_albedo",
   "uri": "prop_litter_bin_albedo.png"
  }
 ],
 "accessors": [
  {
   "bufferView": 0,
   "componentType": 5126,
   "count": 5481,
   "max": [
    0.5785591006278992,
    1.0799999237060547,
    0.6506384611129761
   ],
   "min": [
    -0.5074914693832397,
    -0.0061093587428331375,
    -0.4634721577167511
   ],
   "type": "VEC3"
  },
  {
   "bufferView": 1,
   "componentType": 5126,
   "count": 5481,
   "type": "VEC3"
  },
  {
   "bufferView": 2,
   "componentType": 5126,
   "count": 5481,
   "type": "VEC2"
  },
  {
   "bufferView": 3,
   "componentType": 5123,
   "count": 12720,
   "type": "SCALAR"
  },
  {
   "bufferView": 4,
   "componentType": 5126,
   "count": 24,
   "max": [
    0.25999999046325684,
    1.0499999523162842,
    0.25999999046325684
   ],
   "min": [
    -0.25999999046325684,
    0,
    -0.25999999046325684
   ],
   "type": "VEC3"
  },
  {
   "bufferView": 5,
   "componentType": 5126,
   "count": 24,
   "type": "VEC3"
  },
  {
   "bufferView": 6,
   "componentType": 5126,
   "count": 24,
   "type": "VEC2"
  },
  {
   "bufferView": 7,
   "componentType": 5123,
   "count": 36,
   "type": "SCALAR"
  }
 ],
 "bufferViews": [
  {
   "buffer": 0,
   "byteLength": 65772,
   "byteOffset": 0,
   "target": 34962
  },
  {
   "buffer": 0,
   "byteLength": 65772,
   "byteOffset": 65772,
   "target": 34962
  },
  {
   "buffer": 0,
   "byteLength": 43848,
   "byteOffset": 131544,
   "target": 34962
  },
  {
   "buffer": 0,
   "byteLength": 25440,
   "byteOffset": 175392,
   "target": 34963
  },
  {
   "buffer": 0,
   "byteLength": 288,
   "byteOffset": 200832,
   "target": 34962
  },
  {
   "buffer": 0,
   "byteLength": 288,
   "byteOffset": 201120,
   "target": 34962
  },
  {
   "buffer": 0,
   "byteLength": 192,
   "byteOffset": 201408,
   "target": 34962
  },
  {
   "buffer": 0,
   "byteLength": 72,
   "byteOffset": 201600,
   "target": 34963
  }
 ],
 "samplers": [
  {
   "magFilter": 9729,
   "minFilter": 9987
  }
 ],
 "buffers": [
  {
   "byteLength": 201672,
   "uri": "prop_litter_bin.bin"
  }
 ]
}