{
 "asset": {
  "generator": "Khronos glTF Blender I/O v4.5.51",
  "version": "2.0"
 },
 "scene": 0,
 "scenes": [
  {
   "name": "Scene",
   "nodes": [
    0,
    1,
    2,
    3,
    4
   ]
  }
 ],
 "nodes": [
  {
   "mesh": 0,
   "name": "shell"
  },
  {
   "mesh": 1,
   "name": "paving"
  },
  {
   "mesh": 2,
   "name": "plants"
  },
  {
   "mesh": 3,
   "name": "ramp_nx_rock_slope_1"
  },
  {
   "mesh": 4,
   "name": "col_rock_base_1"
  }
 ],
 "materials": [
  {
   "name": "granite_rubble",
   "normalTexture": {
    "index": 0
   },
   "occlusionTexture": {
    "index": 1
   },
   "pbrMetallicRoughness": {
    "baseColorTexture": {
     "index": 2
    },
    "metallicRoughnessTexture": {
     "index": 1
    }
   }
  },
  {
   "name": "platform_edge",
   "normalTexture": {
    "index": 3
   },
   "occlusionTexture": {
    "index": 4
   },
   "pbrMetallicRoughness": {
    "baseColorTexture": {
     "index": 5
    },
    "metallicRoughnessTexture": {
     "index": 4
    }
   }
  },
  {
   "name": "granite_ashlar",
   "normalTexture": {
    "index": 6
   },
   "occlusionTexture": {
    "index": 7
   },
   "pbrMetallicRoughness": {
    "baseColorTexture": {
     "index": 8
    },
    "metallicRoughnessTexture": {
     "index": 7
    }
   }
  },
  {
   "name": "dirt_debris",
   "normalTexture": {
    "index": 9
   },
   "occlusionTexture": {
    "index": 10
   },
   "pbrMetallicRoughness": {
    "baseColorTexture": {
     "index": 11
    },
    "metallicRoughnessTexture": {
     "index": 10
    }
   }
  },
  {
   "doubleSided": true,
   "name": "foliage",
   "normalTexture": {
    "index": 12
   },
   "occlusionTexture": {
    "index": 13
   },
   "pbrMetallicRoughness": {
    "baseColorTexture": {
     "index": 14
    },
    "metallicRoughnessTexture": {
     "index": 13
    }
   }
  }
 ],
 "meshes": [
  {
   "name": "shell",
   "primitives": [
    {
     "attributes": {
      "POSITION": 0,
      "NORMAL": 1,
      "TEXCOORD_0": 2
     },
     "indices": 3,
     "material": 0
    },
    {
     "attributes": {
      "POSITION": 4,
      "NORMAL": 5,
      "TEXCOORD_0": 6
     },
     "indices": 7,
     "material": 1
    },
    {
     "attributes": {
      "POSITION": 8,
      "NORMAL": 9,
      "TEXCOORD_0": 10
     },
     "indices": 11,
     "material": 2
    }
   ]
  },
  {
   "name": "paving",
   "primitives": [
    {
     "attributes": {
      "POSITION": 12,
      "NORMAL": 13,
      "TEXCOORD_0": 14
     },
     "indices": 15,
     "material": 2
    },
    {
     "attributes": {
      "POSITION": 16,
      "NORMAL": 17,
      "TEXCOORD_0": 18
     },
     "indices": 19,
     "material": 3
    }
   ]
  },
  {
   "name": "plants",
   "primitives": [
    {
     "attributes": {
      "POSITION": 20,
      "NORMAL": 21,
      "TEXCOORD_0": 22
     },
     "indices": 23,
     "material": 4
    }
   ]
  },
  {
   "name": "ramp_nx_rock_slope_1",
   "primitives": [
    {
     "attributes": {
      "POSITION": 24,
      "NORMAL": 25,
      "TEXCOORD_0": 26
     },
     "indices": 27,
     "material": 0
    }
   ]
  },
  {
   "name": "col_rock_base_1",
   "primitives": [
    {
     "attributes": {
      "POSITION": 28,
      "NORMAL": 29,
      "TEXCOORD_0": 30
     },
     "indices": 27,
     "material": 0
    }
   ]
  }
 ],
 "textures": [
  {
   "sampler": 0,
   "source": 0
  },
  {
   "sampler": 0,
   "source": 1
  },
  {
   "sampler": 0,
   "source": 2
  },
  {
   "sampler": 0,
   "source": 3
  },
  {
   "sampler": 0,
   "source": 4
  },
  {
   "sampler": 0,
   "source": 5
  },
  {
   "sampler": 0,
   "source": 6
  },
  {
   "sampler": 0,
   "source": 7
  },
  {
   "sampler": 0,
   "source": 8
  },
  {
   "sampler": 0,
   "source": 9
  },
  {
   "sampler": 0,
   "source": 10
  },
  {
   "sampler": 0,
   "source": 11
  },
  {
   "sampler": 0,
   "source": 12
  },
  {
   "sampler": 0,
   "source": 13
  },
  {
   "sampler": 0,
   "source": 14
  }
 ],
 "images": [
  {
   "mimeType": "image/png",
   "name": "granite_rubble_normal.png",
   "uri": "../_library/granite_rubble_normal.png"
  },
  {
   "mimeType": "image/png",
   "name": "granite_rubble_orm.png",
   "uri": "../_library/granite_rubble_orm.png"
  },
  {
   "mimeType": "image/png",
   "name": "granite_rubble_albedo.png",
   "uri": "../_library/granite_rubble_albedo.png"
  },
  {
   "mimeType": "image/png",
   "name": "platform_edge_normal.png",
   "uri": "../_library/platform_edge_normal.png"
  },
  {
   "mimeType": "image/png",
   "name": "platform_edge_orm.png",
   "uri": "../_library/platform_edge_orm.png"
  },
  {
   "mimeType": "image/png",
   "name": "platform_edge_albedo.png",
   "uri": "../_library/platform_edge_albedo.png"
  },
  {
   "mimeType": "image/png",
   "name": "granite_ashlar_normal.png",
   "uri": "../_library/granite_ashlar_normal.png"
  },
  {
   "mimeType": "image/png",
   "name": "granite_ashlar_orm.png",
   "uri": "../_library/granite_ashlar_orm.png"
  },
  {
   "mimeType": "image/png",
   "name": "granite_ashlar_albedo.png",
   "uri": "../_library/granite_ashlar_albedo.png"
  },
  {
   "mimeType": "image/png",
   "name": "dirt_debris_normal.png",
   "uri": "../_library/dirt_debris_normal.png"
  },
  {
   "mimeType": "image/png",
   "name": "dirt_debris_orm.png",
   "uri": "../_library/dirt_debris_orm.png"
  },
  {
   "mimeType": "image/png",
   "name": "dirt_debris_albedo.png",
   "uri": "../_library/dirt_debris_albedo.png"
  },
  {
   "mimeType": "image/png",
   "name": "foliage_normal.png",
   "uri": "../_library/foliage_normal.png"
  },
  {
   "mimeType": "image/png",
   "name": "foliage_orm.png",
   "uri": "../_library/foliage_orm.png"
  },
  {
   "mimeType": "image/png",
   "name": "foliage_albedo.png",
   "uri": "../_library/foliage_albedo.png"
  }
 ],
 "accessors": [
  {
   "bufferView": 0,
   "componentType": 5126,
   "count": 72,
   "max": [
    2.5,
    1.5800000429153442,
    1.9199999570846558
   ],
   "min": [
    -2.5,
    -1,
    -1.9199999570846558
   ],
   "type": "VEC3"
  },
  {
   "bufferView": 1,
   "componentType": 5126,
   "count": 72,
   "type": "VEC3"
  },
  {
   "bufferView": 2,
   "componentType": 5126,
   "count": 72,
   "type": "VEC2"
  },
  {
   "bufferView": 3,
   "componentType": 5123,
   "count": 108,
   "type": "SCALAR"
  },
  {
   "bufferView": 4,
   "componentType": 5126,
   "count": 40,
   "max": [
    2.5,
    1.7024108171463013,
    2
   ],
   "min": [
    -2.5,
    0.0008270646794699132,
    -2
   ],
   "type": "VEC3"
  },
  {
   "bufferView": 5,
   "componentType": 5126,
   "count": 40,
   "type": "VEC3"
  },
  {
   "bufferView": 6,
   "componentType": 5126,
   "count": 40,
   "type": "VEC2"
  },
  {
   "bufferView": 7,
   "componentType": 5123,
   "count": 60,
   "type": "SCALAR"
  },
  {
   "bufferView": 8,
   "componentType": 5126,
   "count": 200,
   "max": [
    2.496000051498413,
    1.7014108896255493,
    2
   ],
   "min": [
    -2.496000051498413,
    -0.1301729381084442,
    -2
   ],
   "type": "VEC3"
  },
  {
   "bufferView": 9,
   "componentType": 5126,
   "count": 200,
   "type": "VEC3"
  },
  {
   "bufferView": 10,
   "componentType": 5126,
   "count": 200,
   "type": "VEC2"
  },
  {
   "bufferView": 11,
   "componentType": 5123,
   "count": 300,
   "type": "SCALAR"
  },
  {
   "bufferView": 12,
   "componentType": 5126,
   "count": 552,
   "max": [
    2.49399995803833,
    1.697712779045105,
    1.3140000104904175
   ],
   "min": [
    -2.49399995803833,
    -0.06998477131128311,
    -1.3140000104904175
   ],
   "type": "VEC3"
  },
  {
   "bufferView": 13,
   "componentType": 5126,
   "count": 552,
   "type": "VEC3"
  },
  {
   "bufferView": 14,
   "componentType": 5126,
   "count": 552,
   "type": "VEC2"
  },
  {
   "bufferView": 15,
   "componentType": 5123,
   "count": 828,
   "type": "SCALAR"
  },
  {
   "bufferView": 16,
   "componentType": 5126,
   "count": 24,
   "max": [
    2.5,
    1.649999976158142,
    1.3200000524520874
   ],
   "min": [
    -2.5,
    -0.25,
    -1.3200000524520874
   ],
   "type": "VEC3"
  },
  {
   "bufferView": 17,
   "componentType": 5126,
   "count": 24,
   "type": "VEC3"
  },
  {
   "bufferView": 18,
   "componentType": 5126,
   "count": 24,
   "type": "VEC2"
  },
  {
   "bufferView": 19,
   "componentType": 5123,
   "count": 36,
   "type": "SCALAR"
  },
  {
   "bufferView": 20,
   "componentType": 5126,
   "count": 1015,
   "max": [
    2.5607993602752686,
    1.8249924182891846,
    2.0333378314971924
   ],
   "min": [
    -2.4141573905944824,
    -0.019999999552965164,
    -1.9848357439041138
   ],
   "type": "VEC3"
  },
  {
   "bufferView": 21,
   "componentType": 5126,
   "count": 1015,
   "type": "VEC3"
  },
  {
   "bufferView": 22,
   "componentType": 5126,
   "count": 1015,
   "type": "VEC2"
  },
  {
   "bufferView": 23,
   "componentType": 5123,
   "count": 1827,
   "type": "SCALAR"
  },
  {
   "bufferView": 24,
   "componentType": 5126,
   "count": 24,
   "max": [
    2.5,
    1.7000000476837158,
    2
   ],
   "min": [
    -2.5,
    0,
    -2
   ],
   "type": "VEC3"
  },
  {
   "bufferView": 25,
   "componentType": 5126,
   "count": 24,
   "type": "VEC3"
  },
  {
   "bufferView": 26,
   "componentType": 5126,
   "count": 24,
   "type": "VEC2"
  },
  {
   "bufferView": 27,
   "componentType": 5123,
   "count": 36,
   "type": "SCALAR"
  },
  {
   "bufferView": 28,
   "componentType": 5126,
   "count": 24,
   "max": [
    2.5,
    0,
    2
   ],
   "min": [
    -2.5,
    -1,
    -2
   ],
   "type": "VEC3"
  },
  {
   "bufferView": 29,
   "componentType": 5126,
   "count": 24,
   "type": "VEC3"
  },
  {
   "bufferView": 30,
   "componentType": 5126,
   "count": 24,
   "type": "VEC2"
  }
 ],
 "bufferViews": [
  {
   "buffer": 0,
   "byteLength": 864,
   "byteOffset": 0,
   "target": 34962
  },
  {
   "buffer": 0,
   "byteLength": 864,
   "byteOffset": 864,
   "target": 34962
  },
  {
   "buffer": 0,
   "byteLength": 576,
   "byteOffset": 1728,
   "target": 34962
  },
  {
   "buffer": 0,
   "byteLength": 216,
   "byteOffset": 2304,
   "target": 34963
  },
  {
   "buffer": 0,
   "byteLength": 480,
   "byteOffset": 2520,
   "target": 34962
  },
  {
   "buffer": 0,
   "byteLength": 480,
   "byteOffset": 3000,
   "target": 34962
  },
  {
   "buffer": 0,
   "byteLength": 320,
   "byteOffset": 3480,
   "target": 34962
  },
  {
   "buffer": 0,
   "byteLength": 120,
   "byteOffset": 3800,
   "target": 34963
  },
  {
   "buffer": 0,
   "byteLength": 2400,
   "byteOffset": 3920,
   "target": 34962
  },
  {
   "buffer": 0,
   "byteLength": 2400,
   "byteOffset": 6320,
   "target": 34962
  },
  {
   "buffer": 0,
   "byteLength": 1600,
   "byteOffset": 8720,
   "target": 34962
  },
  {
   "buffer": 0,
   "byteLength": 600,
   "byteOffset": 10320,
   "target": 34963
  },
  {
   "buffer": 0,
   "byteLength": 6624,
   "byteOffset": 10920,
   "target": 34962
  },
  {
   "buffer": 0,
   "byteLength": 6624,
   "byteOffset": 17544,
   "target": 34962
  },
  {
   "buffer": 0,
   "byteLength": 4416,
   "byteOffset": 24168,
   "target": 34962
  },
  {
   "buffer": 0,
   "byteLength": 1656,
   "byteOffset": 28584,
   "target": 34963
  },
  {
   "buffer": 0,
   "byteLength": 288,
   "byteOffset": 30240,
   "target": 34962
  },
  {
   "buffer": 0,
   "byteLength": 288,
   "byteOffset": 30528,
   "target": 34962
  },
  {
   "buffer": 0,
   "byteLength": 192,
   "byteOffset": 30816,
   "target": 34962
  },
  {
   "buffer": 0,
   "byteLength": 72,
   "byteOffset": 31008,
   "target": 34963
  },
  {
   "buffer": 0,
   "byteLength": 12180,
   "byteOffset": 31080,
   "target": 34962
  },
  {
   "buffer": 0,
   "byteLength": 12180,
   "byteOffset": 43260,
   "target": 34962
  },
  {
   "buffer": 0,
   "byteLength": 8120,
   "byteOffset": 55440,
   "target": 34962
  },
  {
   "buffer": 0,
   "byteLength": 3654,
   "byteOffset": 63560,
   "target": 34963
  },
  {
   "buffer": 0,
   "byteLength": 288,
   "byteOffset": 67216,
   "target": 34962
  },
  {
   "buffer": 0,
   "byteLength": 288,
   "byteOffset": 67504,
   "target": 34962
  },
  {
   "buffer": 0,
   "byteLength": 192,
   "byteOffset": 67792,
   "target": 34962
  },
  {
   "buffer": 0,
   "byteLength": 72,
   "byteOffset": 67984,
   "target": 34963
  },
  {
   "buffer": 0,
   "byteLength": 288,
   "byteOffset": 68056,
   "target": 34962
  },
  {
   "buffer": 0,
   "byteLength": 288,
   "byteOffset": 68344,
   "target": 34962
  },
  {
   "buffer": 0,
   "byteLength": 192,
   "byteOffset": 68632,
   "target": 34962
  }
 ],
 "samplers": [
  {
   "magFilter": 9729,
   "minFilter": 9987
  }
 ],
 "buffers": [
  {
   "byteLength": 68824,
   "uri": "rail_platform_end.bin"
  }
 ]
}