{
 "asset": {
  "generator": "zero point flora",
  "version": "2.0"
 },
 "scene": 0,
 "scenes": [
  {
   "name": "Scene",
   "nodes": [
    0,
    1
   ]
  }
 ],
 "nodes": [
  {
   "mesh": 0,
   "name": "trunk"
  },
  {
   "mesh": 1,
   "name": "foliage"
  }
 ],
 "materials": [
  {
   "name": "bark",
   "doubleSided": false,
   "pbrMetallicRoughness": {
    "baseColorTexture": {
     "index": 0
    },
    "metallicRoughnessTexture": {
     "index": 2
    },
    "metallicFactor": 0.0,
    "roughnessFactor": 1.0
   },
   "normalTexture": {
    "index": 1
   },
   "occlusionTexture": {
    "index": 2
   }
  },
  {
   "name": "leaf",
   "doubleSided": true,
   "pbrMetallicRoughness": {
    "baseColorTexture": {
     "index": 3
    },
    "metallicRoughnessTexture": {
     "index": 5
    },
    "metallicFactor": 0.0,
    "roughnessFactor": 1.0
   },
   "normalTexture": {
    "index": 4
   },
   "occlusionTexture": {
    "index": 5
   },
   "alphaMode": "MASK",
   "alphaCutoff": 0.5
  }
 ],
 "meshes": [
  {
   "name": "flora_pine_2_bark",
   "primitives": [
    {
     "attributes": {
      "POSITION": 0,
      "NORMAL": 1,
      "TEXCOORD_0": 2
     },
     "indices": 3,
     "material": 0
    }
   ]
  },
  {
   "name": "flora_pine_2_foliage",
   "primitives": [
    {
     "attributes": {
      "POSITION": 4,
      "NORMAL": 5,
      "TEXCOORD_0": 6
     },
     "indices": 7,
     "material": 1
    }
   ]
  }
 ],
 "textures": [
  {
   "sampler": 0,
   "source": 0
  },
  {
   "sampler": 0,
   "source": 1
  },
  {
   "sampler": 0,
   "source": 2
  },
  {
   "sampler": 0,
   "source": 3
  },
  {
   "sampler": 0,
   "source": 4
  },
  {
   "sampler": 0,
   "source": 5
  }
 ],
 "images": [
  {
   "mimeType": "image/png",
   "name": "flora_pine_bark_diff_2k.png",
   "uri": "../flora_pine_0/flora_pine_bark_diff_2k.png"
  },
  {
   "mimeType": "image/png",
   "name": "flora_pine_bark_nor_gl_2k.png",
   "uri": "../flora_pine_0/flora_pine_bark_nor_gl_2k.png"
  },
  {
   "mimeType": "image/png",
   "name": "flora_pine_bark_arm_2k.png",
   "uri": "../flora_pine_0/flora_pine_bark_arm_2k.png"
  },
  {
   "mimeType": "image/png",
   "name": "flora_pine_leaf_diff_2k.png",
   "uri": "../flora_pine_0/flora_pine_leaf_diff_2k.png"
  },
  {
   "mimeType": "image/png",
   "name": "flora_pine_leaf_nor_gl_2k.png",
   "uri": "../flora_pine_0/flora_pine_leaf_nor_gl_2k.png"
  },
  {
   "mimeType": "image/png",
   "name": "flora_pine_leaf_arm_2k.png",
   "uri": "../flora_pine_0/flora_pine_leaf_arm_2k.png"
  }
 ],
 "accessors": [
  {
   "bufferView": 0,
   "componentType": 5126,
   "count": 3680,
   "max": [
    4.038635730743408,
    11.651774406433105,
    3.836364984512329
   ],
   "min": [
    -5.526416301727295,
    -0.5112356543540955,
    -5.19029426574707
   ],
   "type": "VEC3"
  },
  {
   "bufferView": 1,
   "componentType": 5126,
   "count": 3680,
   "type": "VEC3"
  },
  {
   "bufferView": 2,
   "componentType": 5126,
   "count": 3680,
   "type": "VEC2"
  },
  {
   "bufferView": 3,
   "componentType": 5123,
   "count": 11919,
   "type": "SCALAR"
  },
  {
   "bufferView": 4,
   "componentType": 5126,
   "count": 13926,
   "max": [
    4.947969436645508,
    12.219934463500977,
    4.902608871459961
   ],
   "min": [
    -6.5851731300354,
    5.001668930053711,
    -5.997058868408203
   ],
   "type": "VEC3"
  },
  {
   "bufferView": 5,
   "componentType": 5126,
   "count": 13926,
   "type": "VEC3"
  },
  {
   "bufferView": 6,
   "componentType": 5126,
   "count": 13926,
   "type": "VEC2"
  },
  {
   "bufferView": 7,
   "componentType": 5123,
   "count": 29064,
   "type": "SCALAR"
  }
 ],
 "bufferViews": [
  {
   "buffer": 0,
   "byteLength": 44160,
   "byteOffset": 0,
   "target": 34962
  },
  {
   "buffer": 0,
   "byteLength": 44160,
   "byteOffset": 44160,
   "target": 34962
  },
  {
   "buffer": 0,
   "byteLength": 29440,
   "byteOffset": 88320,
   "target": 34962
  },
  {
   "buffer": 0,
   "byteLength": 23838,
   "byteOffset": 117760,
   "target": 34963
  },
  {
   "buffer": 0,
   "byteLength": 167112,
   "byteOffset": 141600,
   "target": 34962
  },
  {
   "buffer": 0,
   "byteLength": 167112,
   "byteOffset": 308712,
   "target": 34962
  },
  {
   "buffer": 0,
   "byteLength": 111408,
   "byteOffset": 475824,
   "target": 34962
  },
  {
   "buffer": 0,
   "byteLength": 58128,
   "byteOffset": 587232,
   "target": 34963
  }
 ],
 "samplers": [
  {
   "magFilter": 9729,
   "minFilter": 9987,
   "wrapS": 10497,
   "wrapT": 10497
  }
 ],
 "buffers": [
  {
   "byteLength": 645360,
   "uri": "flora_pine_2.bin"
  }
 ]
}