{
 "asset": {
  "generator": "Khronos glTF Blender I/O v4.5.51",
  "version": "2.0"
 },
 "scene": 0,
 "scenes": [
  {
   "name": "Scene",
   "nodes": [
    0,
    1,
    2,
    3,
    4,
    5,
    6
   ]
  }
 ],
 "nodes": [
  {
   "mesh": 0,
   "name": "shell"
  },
  {
   "mesh": 1,
   "name": "tank"
  },
  {
   "mesh": 2,
   "name": "detail"
  },
  {
   "mesh": 3,
   "name": "joinery"
  },
  {
   "mesh": 4,
   "name": "plants"
  },
  {
   "mesh": 5,
   "name": "col_rock_base_1"
  },
  {
   "mesh": 6,
   "name": "col_metal_tank_1"
  }
 ],
 "materials": [
  {
   "name": "granite_rubble",
   "normalTexture": {
    "index": 0
   },
   "occlusionTexture": {
    "index": 1
   },
   "pbrMetallicRoughness": {
    "baseColorTexture": {
     "index": 2
    },
    "metallicRoughnessTexture": {
     "index": 1
    }
   }
  },
  {
   "name": "granite_ashlar",
   "normalTexture": {
    "index": 3
   },
   "occlusionTexture": {
    "index": 4
   },
   "pbrMetallicRoughness": {
    "baseColorTexture": {
     "index": 5
    },
    "metallicRoughnessTexture": {
     "index": 4
    }
   }
  },
  {
   "name": "granite_rubble_damp",
   "normalTexture": {
    "index": 6
   },
   "occlusionTexture": {
    "index": 7
   },
   "pbrMetallicRoughness": {
    "baseColorTexture": {
     "index": 8
    },
    "metallicRoughnessTexture": {
     "index": 7
    }
   }
  },
  {
   "name": "concrete",
   "normalTexture": {
    "index": 9
   },
   "occlusionTexture": {
    "index": 10
   },
   "pbrMetallicRoughness": {
    "baseColorTexture": {
     "index": 11
    },
    "metallicRoughnessTexture": {
     "index": 10
    }
   }
  },
  {
   "name": "loco_black",
   "normalTexture": {
    "index": 12
   },
   "occlusionTexture": {
    "index": 13
   },
   "pbrMetallicRoughness": {
    "baseColorTexture": {
     "index": 14
    },
    "metallicRoughnessTexture": {
     "index": 13
    }
   }
  },
  {
   "name": "wagon_grey",
   "normalTexture": {
    "index": 15
   },
   "occlusionTexture": {
    "index": 16
   },
   "pbrMetallicRoughness": {
    "baseColorTexture": {
     "index": 17
    },
    "metallicRoughnessTexture": {
     "index": 16
    }
   }
  },
  {
   "name": "rust_iron",
   "normalTexture": {
    "index": 18
   },
   "occlusionTexture": {
    "index": 19
   },
   "pbrMetallicRoughness": {
    "baseColorTexture": {
     "index": 20
    },
    "metallicRoughnessTexture": {
     "index": 19
    }
   }
  },
  {
   "name": "glass_dirty",
   "normalTexture": {
    "index": 21
   },
   "occlusionTexture": {
    "index": 22
   },
   "pbrMetallicRoughness": {
    "baseColorTexture": {
     "index": 23
    },
    "metallicRoughnessTexture": {
     "index": 22
    }
   }
  },
  {
   "doubleSided": true,
   "name": "fabric_worn",
   "normalTexture": {
    "index": 24
   },
   "occlusionTexture": {
    "index": 25
   },
   "pbrMetallicRoughness": {
    "baseColorTexture": {
     "index": 26
    },
    "metallicRoughnessTexture": {
     "index": 25
    }
   }
  },
  {
   "name": "painted_wood_white",
   "normalTexture": {
    "index": 27
   },
   "occlusionTexture": {
    "index": 28
   },
   "pbrMetallicRoughness": {
    "baseColorTexture": {
     "index": 29
    },
    "metallicRoughnessTexture": {
     "index": 28
    }
   }
  },
  {
   "name": "soot",
   "normalTexture": {
    "index": 30
   },
   "occlusionTexture": {
    "index": 31
   },
   "pbrMetallicRoughness": {
    "baseColorTexture": {
     "index": 32
    },
    "metallicRoughnessTexture": {
     "index": 31
    }
   }
  },
  {
   "name": "rail_signs",
   "normalTexture": {
    "index": 33
   },
   "occlusionTexture": {
    "index": 34
   },
   "pbrMetallicRoughness": {
    "baseColorTexture": {
     "index": 35
    },
    "metallicRoughnessTexture": {
     "index": 34
    }
   }
  },
  {
   "name": "painted_wood_green",
   "normalTexture": {
    "index": 36
   },
   "occlusionTexture": {
    "index": 37
   },
   "pbrMetallicRoughness": {
    "baseColorTexture": {
     "index": 38
    },
    "metallicRoughnessTexture": {
     "index": 37
    }
   }
  },
  {
   "name": "rusty_metal",
   "normalTexture": {
    "index": 39
   },
   "occlusionTexture": {
    "index": 40
   },
   "pbrMetallicRoughness": {
    "baseColorTexture": {
     "index": 41
    },
    "metallicRoughnessTexture": {
     "index": 40
    }
   }
  },
  {
   "doubleSided": true,
   "name": "foliage",
   "normalTexture": {
    "index": 42
   },
   "occlusionTexture": {
    "index": 43
   },
   "pbrMetallicRoughness": {
    "baseColorTexture": {
     "index": 44
    },
    "metallicRoughnessTexture": {
     "index": 43
    }
   }
  },
  {
   "name": "timber_beam",
   "normalTexture": {
    "index": 45
   },
   "occlusionTexture": {
    "index": 46
   },
   "pbrMetallicRoughness": {
    "baseColorTexture": {
     "index": 47
    },
    "metallicRoughnessTexture": {
     "index": 46
    }
   }
  }
 ],
 "meshes": [
  {
   "name": "shell",
   "primitives": [
    {
     "attributes": {
      "POSITION": 0,
      "NORMAL": 1,
      "TEXCOORD_0": 2
     },
     "indices": 3,
     "material": 0
    },
    {
     "attributes": {
      "POSITION": 4,
      "NORMAL": 5,
      "TEXCOORD_0": 6
     },
     "indices": 7,
     "material": 1
    },
    {
     "attributes": {
      "POSITION": 8,
      "NORMAL": 9,
      "TEXCOORD_0": 10
     },
     "indices": 11,
     "material": 2
    },
    {
     "attributes": {
      "POSITION": 12,
      "NORMAL": 13,
      "TEXCOORD_0": 14
     },
     "indices": 15,
     "material": 3
    }
   ]
  },
  {
   "name": "tank",
   "primitives": [
    {
     "attributes": {
      "POSITION": 16,
      "NORMAL": 17,
      "TEXCOORD_0": 18
     },
     "indices": 19,
     "material": 4
    },
    {
     "attributes": {
      "POSITION": 20,
      "NORMAL": 21,
      "TEXCOORD_0": 22
     },
     "indices": 23,
     "material": 5
    },
    {
     "attributes": {
      "POSITION": 24,
      "NORMAL": 25,
      "TEXCOORD_0": 26
     },
     "indices": 27,
     "material": 6
    },
    {
     "attributes": {
      "POSITION": 28,
      "NORMAL": 29,
      "TEXCOORD_0": 30
     },
     "indices": 31,
     "material": 7
    },
    {
     "attributes": {
      "POSITION": 32,
      "NORMAL": 33,
      "TEXCOORD_0": 34
     },
     "indices": 35,
     "material": 8
    }
   ]
  },
  {
   "name": "detail",
   "primitives": [
    {
     "attributes": {
      "POSITION": 36,
      "NORMAL": 37,
      "TEXCOORD_0": 38
     },
     "indices": 39,
     "material": 6
    },
    {
     "attributes": {
      "POSITION": 40,
      "NORMAL": 41,
      "TEXCOORD_0": 42
     },
     "indices": 43,
     "material": 4
    },
    {
     "attributes": {
      "POSITION": 44,
      "NORMAL": 45,
      "TEXCOORD_0": 46
     },
     "indices": 47,
     "material": 9
    },
    {
     "attributes": {
      "POSITION": 48,
      "NORMAL": 49,
      "TEXCOORD_0": 50
     },
     "indices": 51,
     "material": 10
    },
    {
     "attributes": {
      "POSITION": 52,
      "NORMAL": 53,
      "TEXCOORD_0": 54
     },
     "indices": 15,
     "material": 11
    }
   ]
  },
  {
   "name": "joinery",
   "primitives": [
    {
     "attributes": {
      "POSITION": 55,
      "NORMAL": 56,
      "TEXCOORD_0": 57
     },
     "indices": 58,
     "material": 12
    },
    {
     "attributes": {
      "POSITION": 59,
      "NORMAL": 60,
      "TEXCOORD_0": 61
     },
     "indices": 62,
     "material": 13
    },
    {
     "attributes": {
      "POSITION": 63,
      "NORMAL": 64,
      "TEXCOORD_0": 65
     },
     "indices": 66,
     "material": 6
    },
    {
     "attributes": {
      "POSITION": 67,
      "NORMAL": 68,
      "TEXCOORD_0": 69
     },
     "indices": 15,
     "material": 10
    }
   ]
  },
  {
   "name": "plants",
   "primitives": [
    {
     "attributes": {
      "POSITION": 70,
      "NORMAL": 71,
      "TEXCOORD_0": 72
     },
     "indices": 73,
     "material": 14
    },
    {
     "attributes": {
      "POSITION": 74,
      "NORMAL": 75,
      "TEXCOORD_0": 76
     },
     "indices": 77,
     "material": 15
    }
   ]
  },
  {
   "name": "col_rock_base_1",
   "primitives": [
    {
     "attributes": {
      "POSITION": 78,
      "NORMAL": 79,
      "TEXCOORD_0": 80
     },
     "indices": 15,
     "material": 0
    }
   ]
  },
  {
   "name": "col_metal_tank_1",
   "primitives": [
    {
     "attributes": {
      "POSITION": 81,
      "NORMAL": 82,
      "TEXCOORD_0": 83
     },
     "indices": 15,
     "material": 0
    }
   ]
  }
 ],
 "textures": [
  {
   "sampler": 0,
   "source": 0
  },
  {
   "sampler": 0,
   "source": 1
  },
  {
   "sampler": 0,
   "source": 2
  },
  {
   "sampler": 0,
   "source": 3
  },
  {
   "sampler": 0,
   "source": 4
  },
  {
   "sampler": 0,
   "source": 5
  },
  {
   "sampler": 0,
   "source": 6
  },
  {
   "sampler": 0,
   "source": 7
  },
  {
   "sampler": 0,
   "source": 8
  },
  {
   "sampler": 0,
   "source": 9
  },
  {
   "sampler": 0,
   "source": 10
  },
  {
   "sampler": 0,
   "source": 11
  },
  {
   "sampler": 0,
   "source": 12
  },
  {
   "sampler": 0,
   "source": 13
  },
  {
   "sampler": 0,
   "source": 14
  },
  {
   "sampler": 0,
   "source": 15
  },
  {
   "sampler": 0,
   "source": 16
  },
  {
   "sampler": 0,
   "source": 17
  },
  {
   "sampler": 0,
   "source": 18
  },
  {
   "sampler": 0,
   "source": 19
  },
  {
   "sampler": 0,
   "source": 20
  },
  {
   "sampler": 0,
   "source": 21
  },
  {
   "sampler": 0,
   "source": 22
  },
  {
   "sampler": 0,
   "source": 23
  },
  {
   "sampler": 0,
   "source": 24
  },
  {
   "sampler": 0,
   "source": 25
  },
  {
   "sampler": 0,
   "source": 26
  },
  {
   "sampler": 0,
   "source": 27
  },
  {
   "sampler": 0,
   "source": 28
  },
  {
   "sampler": 0,
   "source": 29
  },
  {
   "sampler": 0,
   "source": 30
  },
  {
   "sampler": 0,
   "source": 31
  },
  {
   "sampler": 0,
   "source": 32
  },
  {
   "sampler": 0,
   "source": 33
  },
  {
   "sampler": 0,
   "source": 34
  },
  {
   "sampler": 0,
   "source": 35
  },
  {
   "sampler": 0,
   "source": 36
  },
  {
   "sampler": 0,
   "source": 37
  },
  {
   "sampler": 0,
   "source": 38
  },
  {
   "sampler": 0,
   "source": 39
  },
  {
   "sampler": 0,
   "source": 40
  },
  {
   "sampler": 0,
   "source": 41
  },
  {
   "sampler": 0,
   "source": 42
  },
  {
   "sampler": 0,
   "source": 43
  },
  {
   "sampler": 0,
   "source": 44
  },
  {
   "sampler": 0,
   "source": 45
  },
  {
   "sampler": 0,
   "source": 46
  },
  {
   "sampler": 0,
   "source": 47
  }
 ],
 "images": [
  {
   "mimeType": "image/png",
   "name": "granite_rubble_normal.png",
   "uri": "../_library/granite_rubble_normal.png"
  },
  {
   "mimeType": "image/png",
   "name": "granite_rubble_orm.png",
   "uri": "../_library/granite_rubble_orm.png"
  },
  {
   "mimeType": "image/png",
   "name": "granite_rubble_albedo.png",
   "uri": "../_library/granite_rubble_albedo.png"
  },
  {
   "mimeType": "image/png",
   "name": "granite_ashlar_normal.png",
   "uri": "../_library/granite_ashlar_normal.png"
  },
  {
   "mimeType": "image/png",
   "name": "granite_ashlar_orm.png",
   "uri": "../_library/granite_ashlar_orm.png"
  },
  {
   "mimeType": "image/png",
   "name": "granite_ashlar_albedo.png",
   "uri": "../_library/granite_ashlar_albedo.png"
  },
  {
   "mimeType": "image/png",
   "name": "granite_rubble_damp_normal.png",
   "uri": "../_library/granite_rubble_damp_normal.png"
  },
  {
   "mimeType": "image/png",
   "name": "granite_rubble_damp_orm.png",
   "uri": "../_library/granite_rubble_damp_orm.png"
  },
  {
   "mimeType": "image/png",
   "name": "granite_rubble_damp_albedo.png",
   "uri": "../_library/granite_rubble_damp_albedo.png"
  },
  {
   "mimeType": "image/png",
   "name": "concrete_normal.png",
   "uri": "../_library/concrete_normal.png"
  },
  {
   "mimeType": "image/png",
   "name": "concrete_orm.png",
   "uri": "../_library/concrete_orm.png"
  },
  {
   "mimeType": "image/png",
   "name": "concrete_albedo.png",
   "uri": "../_library/concrete_albedo.png"
  },
  {
   "mimeType": "image/png",
   "name": "loco_black_normal.png",
   "uri": "../_library/loco_black_normal.png"
  },
  {
   "mimeType": "image/png",
   "name": "loco_black_orm.png",
   "uri": "../_library/loco_black_orm.png"
  },
  {
   "mimeType": "image/png",
   "name": "loco_black_albedo.png",
   "uri": "../_library/loco_black_albedo.png"
  },
  {
   "mimeType": "image/png",
   "name": "wagon_grey_normal.png",
   "uri": "../_library/wagon_grey_normal.png"
  },
  {
   "mimeType": "image/png",
   "name": "wagon_grey_orm.png",
   "uri": "../_library/wagon_grey_orm.png"
  },
  {
   "mimeType": "image/png",
   "name": "wagon_grey_albedo.png",
   "uri": "../_library/wagon_grey_albedo.png"
  },
  {
   "mimeType": "image/png",
   "name": "rust_iron_normal.png",
   "uri": "../_library/rust_iron_normal.png"
  },
  {
   "mimeType": "image/png",
   "name": "rust_iron_orm.png",
   "uri": "../_library/rust_iron_orm.png"
  },
  {
   "mimeType": "image/png",
   "name": "rust_iron_albedo.png",
   "uri": "../_library/rust_iron_albedo.png"
  },
  {
   "mimeType": "image/png",
   "name": "glass_dirty_normal.png",
   "uri": "../_library/glass_dirty_normal.png"
  },
  {
   "mimeType": "image/png",
   "name": "glass_dirty_orm.png",
   "uri": "../_library/glass_dirty_orm.png"
  },
  {
   "mimeType": "image/png",
   "name": "glass_dirty_albedo.png",
   "uri": "../_library/glass_dirty_albedo.png"
  },
  {
   "mimeType": "image/png",
   "name": "fabric_worn_normal.png",
   "uri": "../_library/fabric_worn_normal.png"
  },
  {
   "mimeType": "image/png",
   "name": "fabric_worn_orm.png",
   "uri": "../_library/fabric_worn_orm.png"
  },
  {
   "mimeType": "image/png",
   "name": "fabric_worn_albedo.png",
   "uri": "../_library/fabric_worn_albedo.png"
  },
  {
   "mimeType": "image/png",
   "name": "painted_wood_white_normal.png",
   "uri": "../_library/painted_wood_white_normal.png"
  },
  {
   "mimeType": "image/png",
   "name": "painted_wood_white_orm.png",
   "uri": "../_library/painted_wood_white_orm.png"
  },
  {
   "mimeType": "image/png",
   "name": "painted_wood_white_albedo.png",
   "uri": "../_library/painted_wood_white_albedo.png"
  },
  {
   "mimeType": "image/png",
   "name": "soot_normal.png",
   "uri": "../_library/soot_normal.png"
  },
  {
   "mimeType": "image/png",
   "name": "soot_orm.png",
   "uri": "../_library/soot_orm.png"
  },
  {
   "mimeType": "image/png",
   "name": "soot_albedo.png",
   "uri": "../_library/soot_albedo.png"
  },
  {
   "mimeType": "image/png",
   "name": "rail_signs_normal.png",
   "uri": "../_library/rail_signs_normal.png"
  },
  {
   "mimeType": "image/png",
   "name": "rail_signs_orm.png",
   "uri": "../_library/rail_signs_orm.png"
  },
  {
   "mimeType": "image/png",
   "name": "rail_signs_albedo.png",
   "uri": "../_library/rail_signs_albedo.png"
  },
  {
   "mimeType": "image/png",
   "name": "painted_wood_green_normal.png",
   "uri": "../_library/painted_wood_green_normal.png"
  },
  {
   "mimeType": "image/png",
   "name": "painted_wood_green_orm.png",
   "uri": "../_library/painted_wood_green_orm.png"
  },
  {
   "mimeType": "image/png",
   "name": "painted_wood_green_albedo.png",
   "uri": "../_library/painted_wood_green_albedo.png"
  },
  {
   "mimeType": "image/png",
   "name": "rusty_metal_normal.png",
   "uri": "../_library/rusty_metal_normal.png"
  },
  {
   "mimeType": "image/png",
   "name": "rusty_metal_orm.png",
   "uri": "../_library/rusty_metal_orm.png"
  },
  {
   "mimeType": "image/png",
   "name": "rusty_metal_albedo.png",
   "uri": "../_library/rusty_metal_albedo.png"
  },
  {
   "mimeType": "image/png",
   "name": "foliage_normal.png",
   "uri": "../_library/foliage_normal.png"
  },
  {
   "mimeType": "image/png",
   "name": "foliage_orm.png",
   "uri": "../_library/foliage_orm.png"
  },
  {
   "mimeType": "image/png",
   "name": "foliage_albedo.png",
   "uri": "../_library/foliage_albedo.png"
  },
  {
   "mimeType": "image/png",
   "name": "timber_beam_normal.png",
   "uri": "../_library/timber_beam_normal.png"
  },
  {
   "mimeType": "image/png",
   "name": "timber_beam_orm.png",
   "uri": "../_library/timber_beam_orm.png"
  },
  {
   "mimeType": "image/png",
   "name": "timber_beam_albedo.png",
   "uri": "../_library/timber_beam_albedo.png"
  }
 ],
 "accessors": [
  {
   "bufferView": 0,
   "componentType": 5126,
   "count": 144,
   "max": [
    1.2999999523162842,
    3.299999952316284,
    1.2999999523162842
   ],
   "min": [
    -1.2999999523162842,
    -1,
    -1.2999999523162842
   ],
   "type": "VEC3"
  },
  {
   "bufferView": 1,
   "componentType": 5126,
   "count": 144,
   "type": "VEC3"
  },
  {
   "bufferView": 2,
   "componentType": 5126,
   "count": 144,
   "type": "VEC2"
  },
  {
   "bufferView": 3,
   "componentType": 5123,
   "count": 264,
   "type": "SCALAR"
  },
  {
   "bufferView": 4,
   "componentType": 5126,
   "count": 7968,
   "max": [
    1.369999885559082,
    3.4499998092651367,
    1.369999885559082
   ],
   "min": [
    -1.369999885559082,
    -0.1940000057220459,
    -1.369999885559082
   ],
   "type": "VEC3"
  },
  {
   "bufferView": 5,
   "componentType": 5126,
   "count": 7968,
   "type": "VEC3"
  },
  {
   "bufferView": 6,
   "componentType": 5126,
   "count": 7968,
   "type": "VEC2"
  },
  {
   "bufferView": 7,
   "componentType": 5123,
   "count": 10956,
   "type": "SCALAR"
  },
  {
   "bufferView": 8,
   "componentType": 5126,
   "count": 96,
   "max": [
    1.3029999732971191,
    0.9245738983154297,
    1.3029999732971191
   ],
   "min": [
    -1.3029999732971191,
    -0.30000001192092896,
    -1.3029999732971191
   ],
   "type": "VEC3"
  },
  {
   "bufferView": 9,
   "componentType": 5126,
   "count": 96,
   "type": "VEC3"
  },
  {
   "bufferView": 10,
   "componentType": 5126,
   "count": 96,
   "type": "VEC2"
  },
  {
   "bufferView": 11,
   "componentType": 5123,
   "count": 228,
   "type": "SCALAR"
  },
  {
   "bufferView": 12,
   "componentType": 5126,
   "count": 24,
   "max": [
    0.8500000238418579,
    3.299999713897705,
    0.8500000238418579
   ],
   "min": [
    -0.8500000238418579,
    3.1500000953674316,
    -0.8500000238418579
   ],
   "type": "VEC3"
  },
  {
   "bufferView": 13,
   "componentType": 5126,
   "count": 24,
   "type": "VEC3"
  },
  {
   "bufferView": 14,
   "componentType": 5126,
   "count": 24,
   "type": "VEC2"
  },
  {
   "bufferView": 15,
   "componentType": 5123,
   "count": 36,
   "type": "SCALAR"
  },
  {
   "bufferView": 16,
   "componentType": 5126,
   "count": 571,
   "max": [
    2.285818338394165,
    4.391150951385498,
    1.974973201751709
   ],
   "min": [
    -1.5,
    3.424999952316284,
    -1.5
   ],
   "type": "VEC3"
  },
  {
   "bufferView": 17,
   "componentType": 5126,
   "count": 571,
   "type": "VEC3"
  },
  {
   "bufferView": 18,
   "componentType": 5126,
   "count": 571,
   "type": "VEC2"
  },
  {
   "bufferView": 19,
   "componentType": 5123,
   "count": 1902,
   "type": "SCALAR"
  },
  {
   "bufferView": 20,
   "componentType": 5126,
   "count": 1920,
   "max": [
    1.5399999618530273,
    4.900000095367432,
    1.5399999618530273
   ],
   "min": [
    -1.5399999618530273,
    3.609999895095825,
    -1.5399999618530273
   ],
   "type": "VEC3"
  },
  {
   "bufferView": 21,
   "componentType": 5126,
   "count": 1920,
   "type": "VEC3"
  },
  {
   "bufferView": 22,
   "componentType": 5126,
   "count": 1920,
   "type": "VEC2"
  },
  {
   "bufferView": 23,
   "componentType": 5123,
   "count": 2880,
   "type": "SCALAR"
  },
  {
   "bufferView": 24,
   "componentType": 5126,
   "count": 36,
   "max": [
    1.5,
    4.900000095367432,
    1.5
   ],
   "min": [
    -1.5,
    3.609999895095825,
    -1.5
   ],
   "type": "VEC3"
  },
  {
   "bufferView": 25,
   "componentType": 5126,
   "count": 36,
   "type": "VEC3"
  },
  {
   "bufferView": 26,
   "componentType": 5126,
   "count": 36,
   "type": "VEC2"
  },
  {
   "bufferView": 27,
   "componentType": 5123,
   "count": 54,
   "type": "SCALAR"
  },
  {
   "bufferView": 28,
   "componentType": 5126,
   "count": 4,
   "max": [
    1.4700000286102295,
    4.599999904632568,
    1.4700000286102295
   ],
   "min": [
    -1.4700000286102295,
    4.599999904632568,
    -1.4700000286102295
   ],
   "type": "VEC3"
  },
  {
   "bufferView": 29,
   "componentType": 5126,
   "count": 4,
   "type": "VEC3"
  },
  {
   "bufferView": 30,
   "componentType": 5126,
   "count": 4,
   "type": "VEC2"
  },
  {
   "bufferView": 31,
   "componentType": 5123,
   "count": 6,
   "type": "SCALAR"
  },
  {
   "bufferView": 32,
   "componentType": 5126,
   "count": 65,
   "max": [
    2.483163833618164,
    4.099999904632568,
    1.9892221689224243
   ],
   "min": [
    2.130812406539917,
    2.674880027770996,
    1.7522112131118774
   ],
   "type": "VEC3"
  },
  {
   "bufferView": 33,
   "componentType": 5126,
   "count": 65,
   "type": "VEC3"
  },
  {
   "bufferView": 34,
   "componentType": 5126,
   "count": 65,
   "type": "VEC2"
  },
  {
   "bufferView": 35,
   "componentType": 5123,
   "count": 288,
   "type": "SCALAR"
  },
  {
   "bufferView": 36,
   "componentType": 5126,
   "count": 20872,
   "max": [
    2.3165924549102783,
    5.209789752960205,
    1.9965925216674805
   ],
   "min": [
    -1.5474399328231812,
    0.06999969482421875,
    -1.6980422735214233
   ],
   "type": "VEC3"
  },
  {
   "bufferView": 37,
   "componentType": 5126,
   "count": 20872,
   "type": "VEC3"
  },
  {
   "bufferView": 38,
   "componentType": 5126,
   "count": 20872,
   "type": "VEC2"
  },
  {
   "bufferView": 39,
   "componentType": 5123,
   "count": 39978,
   "type": "SCALAR"
  },
  {
   "bufferView": 40,
   "componentType": 5126,
   "count": 852,
   "max": [
    -0.5700000524520874,
    5.350083827972412,
    1.809999942779541
   ],
   "min": [
    -1.6624997854232788,
    -8.411148883169517e-05,
    0.39500001072883606
   ],
   "type": "VEC3"
  },
  {
   "bufferView": 41,
   "componentType": 5126,
   "count": 852,
   "type": "VEC3"
  },
  {
   "bufferView": 42,
   "componentType": 5126,
   "count": 852,
   "type": "VEC2"
  },
  {
   "bufferView": 43,
   "componentType": 5123,
   "count": 1392,
   "type": "SCALAR"
  },
  {
   "bufferView": 44,
   "componentType": 5126,
   "count": 80,
   "max": [
    0.8999999761581421,
    4.800000190734863,
    1.5449999570846558
   ],
   "min": [
    0.7200000286102295,
    3.7300002574920654,
    1.524999976158142
   ],
   "type": "VEC3"
  },
  {
   "bufferView": 45,
   "componentType": 5126,
   "count": 80,
   "type": "VEC3"
  },
  {
   "bufferView": 46,
   "componentType": 5126,
   "count": 80,
   "type": "VEC2"
  },
  {
   "bufferView": 47,
   "componentType": 5123,
   "count": 132,
   "type": "SCALAR"
  },
  {
   "bufferView": 48,
   "componentType": 5126,
   "count": 144,
   "max": [
    0.8199999332427979,
    4.815999984741211,
    1.5470000505447388
   ],
   "min": [
    0.7300000190734863,
    3.803999900817871,
    1.5449999570846558
   ],
   "type": "VEC3"
  },
  {
   "bufferView": 49,
   "componentType": 5126,
   "count": 144,
   "type": "VEC3"
  },
  {
   "bufferView": 50,
   "componentType": 5126,
   "count": 144,
   "type": "VEC2"
  },
  {
   "bufferView": 51,
   "componentType": 5123,
   "count": 216,
   "type": "SCALAR"
  },
  {
   "bufferView": 52,
   "componentType": 5126,
   "count": 24,
   "max": [
    0.9300000071525574,
    4.414999961853027,
    1.559000015258789
   ],
   "min": [
    0.7299999594688416,
    4.364999771118164,
    1.5469999313354492
   ],
   "type": "VEC3"
  },
  {
   "bufferView": 53,
   "componentType": 5126,
   "count": 24,
   "type": "VEC3"
  },
  {
   "bufferView": 54,
   "componentType": 5126,
   "count": 24,
   "type": "VEC2"
  },
  {
   "bufferView": 55,
   "componentType": 5126,
   "count": 1104,
   "max": [
    0.4300000071525574,
    2,
    -0.9494004249572754
   ],
   "min": [
    -0.4300000071525574,
    0,
    -1.1399998664855957
   ],
   "type": "VEC3"
  },
  {
   "bufferView": 56,
   "componentType": 5126,
   "count": 1104,
   "type": "VEC3"
  },
  {
   "bufferView": 57,
   "componentType": 5126,
   "count": 1104,
   "type": "VEC2"
  },
  {
   "bufferView": 58,
   "componentType": 5123,
   "count": 1524,
   "type": "SCALAR"
  },
  {
   "bufferView": 59,
   "componentType": 5126,
   "count": 72,
   "max": [
    0.31012848019599915,
    1.781999945640564,
    -0.9949349761009216
   ],
   "min": [
    -0.36000001430511475,
    0.17800000309944153,
    -1.0349931716918945
   ],
   "type": "VEC3"
  },
  {
   "bufferView": 60,
   "componentType": 5126,
   "count": 72,
   "type": "VEC3"
  },
  {
   "bufferView": 61,
   "componentType": 5126,
   "count": 72,
   "type": "VEC2"
  },
  {
   "bufferView": 62,
   "componentType": 5123,
   "count": 108,
   "type": "SCALAR"
  },
  {
   "bufferView": 63,
   "componentType": 5126,
   "count": 48,
   "max": [
    0.07999999821186066,
    2.299999952316284,
    1.1999999284744263
   ],
   "min": [
    -0.07999999821186066,
    1.5,
    1.1799999475479126
   ],
   "type": "VEC3"
  },
  {
   "bufferView": 64,
   "componentType": 5126,
   "count": 48,
   "type": "VEC3"
  },
  {
   "bufferView": 65,
   "componentType": 5126,
   "count": 48,
   "type": "VEC2"
  },
  {
   "bufferView": 66,
   "componentType": 5123,
   "count": 72,
   "type": "SCALAR"
  },
  {
   "bufferView": 67,
   "componentType": 5126,
   "count": 24,
   "max": [
    0.20000000298023224,
    2.299999952316284,
    0.8699999451637268
   ],
   "min": [
    -0.20000000298023224,
    1.5,
    0.8499999642372131
   ],
   "type": "VEC3"
  },
  {
   "bufferView": 68,
   "componentType": 5126,
   "count": 24,
   "type": "VEC3"
  },
  {
   "bufferView": 69,
   "componentType": 5126,
   "count": 24,
   "type": "VEC2"
  },
  {
   "bufferView": 70,
   "componentType": 5126,
   "count": 11070,
   "max": [
    2.067136764526367,
    2.732372999191284,
    2.097179412841797
   ],
   "min": [
    -2.112859010696411,
    -0.05603865906596184,
    -2.1179757118225098
   ],
   "type": "VEC3"
  },
  {
   "bufferView": 71,
   "componentType": 5126,
   "count": 11070,
   "type": "VEC3"
  },
  {
   "bufferView": 72,
   "componentType": 5126,
   "count": 11070,
   "type": "VEC2"
  },
  {
   "bufferView": 73,
   "componentType": 5123,
   "count": 19014,
   "type": "SCALAR"
  },
  {
   "bufferView": 74,
   "componentType": 5126,
   "count": 1160,
   "max": [
    1.3405476808547974,
    2.7725560665130615,
    1.3393950462341309
   ],
   "min": [
    -0.9851832389831543,
    -0.004839319735765457,
    -0.6761069893836975
   ],
   "type": "VEC3"
  },
  {
   "bufferView": 75,
   "componentType": 5126,
   "count": 1160,
   "type": "VEC3"
  },
  {
   "bufferView": 76,
   "componentType": 5126,
   "count": 1160,
   "type": "VEC2"
  },
  {
   "bufferView": 77,
   "componentType": 5123,
   "count": 3144,
   "type": "SCALAR"
  },
  {
   "bufferView": 78,
   "componentType": 5126,
   "count": 24,
   "max": [
    1.2999999523162842,
    3.450000047683716,
    1.2999999523162842
   ],
   "min": [
    -1.2999999523162842,
    -1,
    -1.2999999523162842
   ],
   "type": "VEC3"
  },
  {
   "bufferView": 79,
   "componentType": 5126,
   "count": 24,
   "type": "VEC3"
  },
  {
   "bufferView": 80,
   "componentType": 5126,
   "count": 24,
   "type": "VEC2"
  },
  {
   "bufferView": 81,
   "componentType": 5126,
   "count": 24,
   "max": [
    1.5,
    4.900000095367432,
    1.5
   ],
   "min": [
    -1.5,
    3.450000047683716,
    -1.5
   ],
   "type": "VEC3"
  },
  {
   "bufferView": 82,
   "componentType": 5126,
   "count": 24,
   "type": "VEC3"
  },
  {
   "bufferView": 83,
   "componentType": 5126,
   "count": 24,
   "type": "VEC2"
  }
 ],
 "bufferViews": [
  {
   "buffer": 0,
   "byteLength": 1728,
   "byteOffset": 0,
   "target": 34962
  },
  {
   "buffer": 0,
   "byteLength": 1728,
   "byteOffset": 1728,
   "target": 34962
  },
  {
   "buffer": 0,
   "byteLength": 1152,
   "byteOffset": 3456,
   "target": 34962
  },
  {
   "buffer": 0,
   "byteLength": 528,
   "byteOffset": 4608,
   "target": 34963
  },
  {
   "buffer": 0,
   "byteLength": 95616,
   "byteOffset": 5136,
   "target": 34962
  },
  {
   "buffer": 0,
   "byteLength": 95616,
   "byteOffset": 100752,
   "target": 34962
  },
  {
   "buffer": 0,
   "byteLength": 63744,
   "byteOffset": 196368,
   "target": 34962
  },
  {
   "buffer": 0,
   "byteLength": 21912,
   "byteOffset": 260112,
   "target": 34963
  },
  {
   "buffer": 0,
   "byteLength": 1152,
   "byteOffset": 282024,
   "target": 34962
  },
  {
   "buffer": 0,
   "byteLength": 1152,
   "byteOffset": 283176,
   "target": 34962
  },
  {
   "buffer": 0,
   "byteLength": 768,
   "byteOffset": 284328,
   "target": 34962
  },
  {
   "buffer": 0,
   "byteLength": 456,
   "byteOffset": 285096,
   "target": 34963
  },
  {
   "buffer": 0,
   "byteLength": 288,
   "byteOffset": 285552,
   "target": 34962
  },
  {
   "buffer": 0,
   "byteLength": 288,
   "byteOffset": 285840,
   "target": 34962
  },
  {
   "buffer": 0,
   "byteLength": 192,
   "byteOffset": 286128,
   "target": 34962
  },
  {
   "buffer": 0,
   "byteLength": 72,
   "byteOffset": 286320,
   "target": 34963
  },
  {
   "buffer": 0,
   "byteLength": 6852,
   "byteOffset": 286392,
   "target": 34962
  },
  {
   "buffer": 0,
   "byteLength": 6852,
   "byteOffset": 293244,
   "target": 34962
  },
  {
   "buffer": 0,
   "byteLength": 4568,
   "byteOffset": 300096,
   "target": 34962
  },
  {
   "buffer": 0,
   "byteLength": 3804,
   "byteOffset": 304664,
   "target": 34963
  },
  {
   "buffer": 0,
   "byteLength": 23040,
   "byteOffset": 308468,
   "target": 34962
  },
  {
   "buffer": 0,
   "byteLength": 23040,
   "byteOffset": 331508,
   "target": 34962
  },
  {
   "buffer": 0,
   "byteLength": 15360,
   "byteOffset": 354548,
   "target": 34962
  },
  {
   "buffer": 0,
   "byteLength": 5760,
   "byteOffset": 369908,
   "target": 34963
  },
  {
   "buffer": 0,
   "byteLength": 432,
   "byteOffset": 375668,
   "target": 34962
  },
  {
   "buffer": 0,
   "byteLength": 432,
   "byteOffset": 376100,
   "target": 34962
  },
  {
   "buffer": 0,
   "byteLength": 288,
   "byteOffset": 376532,
   "target": 34962
  },
  {
   "buffer": 0,
   "byteLength": 108,
   "byteOffset": 376820,
   "target": 34963
  },
  {
   "buffer": 0,
   "byteLength": 48,
   "byteOffset": 376928,
   "target": 34962
  },
  {
   "buffer": 0,
   "byteLength": 48,
   "byteOffset": 376976,
   "target": 34962
  },
  {
   "buffer": 0,
   "byteLength": 32,
   "byteOffset": 377024,
   "target": 34962
  },
  {
   "buffer": 0,
   "byteLength": 12,
   "byteOffset": 377056,
   "target": 34963
  },
  {
   "buffer": 0,
   "byteLength": 780,
   "byteOffset": 377068,
   "target": 34962
  },
  {
   "buffer": 0,
   "byteLength": 780,
   "byteOffset": 377848,
   "target": 34962
  },
  {
   "buffer": 0,
   "byteLength": 520,
   "byteOffset": 378628,
   "target": 34962
  },
  {
   "buffer": 0,
   "byteLength": 576,
   "byteOffset": 379148,
   "target": 34963
  },
  {
   "buffer": 0,
   "byteLength": 250464,
   "byteOffset": 379724,
   "target": 34962
  },
  {
   "buffer": 0,
   "byteLength": 250464,
   "byteOffset": 630188,
   "target": 34962
  },
  {
   "buffer": 0,
   "byteLength": 166976,
   "byteOffset": 880652,
   "target": 34962
  },
  {
   "buffer": 0,
   "byteLength": 79956,
   "byteOffset": 1047628,
   "target": 34963
  },
  {
   "buffer": 0,
   "byteLength": 10224,
   "byteOffset": 1127584,
   "target": 34962
  },
  {
   "buffer": 0,
   "byteLength": 10224,
   "byteOffset": 1137808,
   "target": 34962
  },
  {
   "buffer": 0,
   "byteLength": 6816,
   "byteOffset": 1148032,
   "target": 34962
  },
  {
   "buffer": 0,
   "byteLength": 2784,
   "byteOffset": 1154848,
   "target": 34963
  },
  {
   "buffer": 0,
   "byteLength": 960,
   "byteOffset": 1157632,
   "target": 34962
  },
  {
   "buffer": 0,
   "byteLength": 960,
   "byteOffset": 1158592,
   "target": 34962
  },
  {
   "buffer": 0,
   "byteLength": 640,
   "byteOffset": 1159552,
   "target": 34962
  },
  {
   "buffer": 0,
   "byteLength": 264,
   "byteOffset": 1160192,
   "target": 34963
  },
  {
   "buffer": 0,
   "byteLength": 1728,
   "byteOffset": 1160456,
   "target": 34962
  },
  {
   "buffer": 0,
   "byteLength": 1728,
   "byteOffset": 1162184,
   "target": 34962
  },
  {
   "buffer": 0,
   "byteLength": 1152,
   "byteOffset": 1163912,
   "target": 34962
  },
  {
   "buffer": 0,
   "byteLength": 432,
   "byteOffset": 1165064,
   "target": 34963
  },
  {
   "buffer": 0,
   "byteLength": 288,
   "byteOffset": 1165496,
   "target": 34962
  },
  {
   "buffer": 0,
   "byteLength": 288,
   "byteOffset": 1165784,
   "target": 34962
  },
  {
   "buffer": 0,
   "byteLength": 192,
   "byteOffset": 1166072,
   "target": 34962
  },
  {
   "buffer": 0,
   "byteLength": 13248,
   "byteOffset": 1166264,
   "target": 34962
  },
  {
   "buffer": 0,
   "byteLength": 13248,
   "byteOffset": 1179512,
   "target": 34962
  },
  {
   "buffer": 0,
   "byteLength": 8832,
   "byteOffset": 1192760,
   "target": 34962
  },
  {
   "buffer": 0,
   "byteLength": 3048,
   "byteOffset": 1201592,
   "target": 34963
  },
  {
   "buffer": 0,
   "byteLength": 864,
   "byteOffset": 1204640,
   "target": 34962
  },
  {
   "buffer": 0,
   "byteLength": 864,
   "byteOffset": 1205504,
   "target": 34962
  },
  {
   "buffer": 0,
   "byteLength": 576,
   "byteOffset": 1206368,
   "target": 34962
  },
  {
   "buffer": 0,
   "byteLength": 216,
   "byteOffset": 1206944,
   "target": 34963
  },
  {
   "buffer": 0,
   "byteLength": 576,
   "byteOffset": 1207160,
   "target": 34962
  },
  {
   "buffer": 0,
   "byteLength": 576,
   "byteOffset": 1207736,
   "target": 34962
  },
  {
   "buffer": 0,
   "byteLength": 384,
   "byteOffset": 1208312,
   "target": 34962
  },
  {
   "buffer": 0,
   "byteLength": 144,
   "byteOffset": 1208696,
   "target": 34963
  },
  {
   "buffer": 0,
   "byteLength": 288,
   "byteOffset": 1208840,
   "target": 34962
  },
  {
   "buffer": 0,
   "byteLength": 288,
   "byteOffset": 1209128,
   "target": 34962
  },
  {
   "buffer": 0,
   "byteLength": 192,
   "byteOffset": 1209416,
   "target": 34962
  },
  {
   "buffer": 0,
   "byteLength": 132840,
   "byteOffset": 1209608,
   "target": 34962
  },
  {
   "buffer": 0,
   "byteLength": 132840,
   "byteOffset": 1342448,
   "target": 34962
  },
  {
   "buffer": 0,
   "byteLength": 88560,
   "byteOffset": 1475288,
   "target": 34962
  },
  {
   "buffer": 0,
   "byteLength": 38028,
   "byteOffset": 1563848,
   "target": 34963
  },
  {
   "buffer": 0,
   "byteLength": 13920,
   "byteOffset": 1601876,
   "target": 34962
  },
  {
   "buffer": 0,
   "byteLength": 13920,
   "byteOffset": 1615796,
   "target": 34962
  },
  {
   "buffer": 0,
   "byteLength": 9280,
   "byteOffset": 1629716,
   "target": 34962
  },
  {
   "buffer": 0,
   "byteLength": 6288,
   "byteOffset": 1638996,
   "target": 34963
  },
  {
   "buffer": 0,
   "byteLength": 288,
   "byteOffset": 1645284,
   "target": 34962
  },
  {
   "buffer": 0,
   "byteLength": 288,
   "byteOffset": 1645572,
   "target": 34962
  },
  {
   "buffer": 0,
   "byteLength": 192,
   "byteOffset": 1645860,
   "target": 34962
  },
  {
   "buffer": 0,
   "byteLength": 288,
   "byteOffset": 1646052,
   "target": 34962
  },
  {
   "buffer": 0,
   "byteLength": 288,
   "byteOffset": 1646340,
   "target": 34962
  },
  {
   "buffer": 0,
   "byteLength": 192,
   "byteOffset": 1646628,
   "target": 34962
  }
 ],
 "samplers": [
  {
   "magFilter": 9729,
   "minFilter": 9987
  }
 ],
 "buffers": [
  {
   "byteLength": 1646820,
   "uri": "rail_water_tower.bin"
  }
 ]
}