{
	"asset":{
		"generator":"Khronos glTF Blender I/O v4.5.51",
		"version":"2.0"
	},
	"scene":0,
	"scenes":[
		{
			"name":"Scene",
			"nodes":[
				0,
				1
			]
		}
	],
	"nodes":[
		{
			"mesh":0,
			"name":"scrap_rifle_body"
		},
		{
			"mesh":1,
			"name":"scrap_rifle_bolt"
		}
	],
	"materials":[
		{
			"doubleSided":true,
			"name":"scrap_rifle_body_baked",
			"normalTexture":{
				"index":0
			},
			"occlusionTexture":{
				"index":1
			},
			"pbrMetallicRoughness":{
				"baseColorTexture":{
					"index":2
				},
				"metallicRoughnessTexture":{
					"index":1
				}
			}
		},
		{
			"doubleSided":true,
			"name":"scrap_rifle_bolt_baked",
			"normalTexture":{
				"index":3
			},
			"occlusionTexture":{
				"index":4
			},
			"pbrMetallicRoughness":{
				"baseColorTexture":{
					"index":5
				},
				"metallicRoughnessTexture":{
					"index":4
				}
			}
		}
	],
	"meshes":[
		{
			"name":"scrap_rifle_body",
			"primitives":[
				{
					"attributes":{
						"POSITION":0,
						"NORMAL":1,
						"TEXCOORD_0":2
					},
					"indices":3,
					"material":0
				}
			]
		},
		{
			"name":"scrap_rifle_bolt",
			"primitives":[
				{
					"attributes":{
						"POSITION":4,
						"NORMAL":5,
						"TEXCOORD_0":6
					},
					"indices":7,
					"material":1
				}
			]
		}
	],
	"textures":[
		{
			"sampler":0,
			"source":0
		},
		{
			"sampler":0,
			"source":1
		},
		{
			"sampler":0,
			"source":2
		},
		{
			"sampler":0,
			"source":3
		},
		{
			"sampler":0,
			"source":4
		},
		{
			"sampler":0,
			"source":5
		}
	],
	"images":[
		{
			"mimeType":"image/png",
			"name":"scrap_rifle_body_normal",
			"uri":"scrap_rifle_body_normal.png"
		},
		{
			"mimeType":"image/png",
			"name":"scrap_rifle_body_orm",
			"uri":"scrap_rifle_body_orm.png"
		},
		{
			"mimeType":"image/png",
			"name":"scrap_rifle_body_albedo",
			"uri":"scrap_rifle_body_albedo.png"
		},
		{
			"mimeType":"image/png",
			"name":"scrap_rifle_bolt_normal",
			"uri":"scrap_rifle_bolt_normal.png"
		},
		{
			"mimeType":"image/png",
			"name":"scrap_rifle_bolt_orm",
			"uri":"scrap_rifle_bolt_orm.png"
		},
		{
			"mimeType":"image/png",
			"name":"scrap_rifle_bolt_albedo",
			"uri":"scrap_rifle_bolt_albedo.png"
		}
	],
	"accessors":[
		{
			"bufferView":0,
			"componentType":5126,
			"count":104605,
			"max":[
				0.5759999752044678,
				0.09760000556707382,
				0.028119321912527084
			],
			"min":[
				-0.7159942388534546,
				-0.08709999918937683,
				-0.028821762651205063
			],
			"type":"VEC3"
		},
		{
			"bufferView":1,
			"componentType":5126,
			"count":104605,
			"type":"VEC3"
		},
		{
			"bufferView":2,
			"componentType":5126,
			"count":104605,
			"type":"VEC2"
		},
		{
			"bufferView":3,
			"componentType":5125,
			"count":291324,
			"type":"SCALAR"
		},
		{
			"bufferView":4,
			"componentType":5126,
			"count":6219,
			"max":[
				-0.12720000743865967,
				0.0486999973654747,
				0.046000003814697266
			],
			"min":[
				-0.29120001196861267,
				0.011500000953674316,
				-0.01269999984651804
			],
			"type":"VEC3"
		},
		{
			"bufferView":5,
			"componentType":5126,
			"count":6219,
			"type":"VEC3"
		},
		{
			"bufferView":6,
			"componentType":5126,
			"count":6219,
			"type":"VEC2"
		},
		{
			"bufferView":7,
			"componentType":5123,
			"count":21240,
			"type":"SCALAR"
		}
	],
	"bufferViews":[
		{
			"buffer":0,
			"byteLength":1255260,
			"byteOffset":0,
			"target":34962
		},
		{
			"buffer":0,
			"byteLength":1255260,
			"byteOffset":1255260,
			"target":34962
		},
		{
			"buffer":0,
			"byteLength":836840,
			"byteOffset":2510520,
			"target":34962
		},
		{
			"buffer":0,
			"byteLength":1165296,
			"byteOffset":3347360,
			"target":34963
		},
		{
			"buffer":0,
			"byteLength":74628,
			"byteOffset":4512656,
			"target":34962
		},
		{
			"buffer":0,
			"byteLength":74628,
			"byteOffset":4587284,
			"target":34962
		},
		{
			"buffer":0,
			"byteLength":49752,
			"byteOffset":4661912,
			"target":34962
		},
		{
			"buffer":0,
			"byteLength":42480,
			"byteOffset":4711664,
			"target":34963
		}
	],
	"samplers":[
		{
			"magFilter":9729,
			"minFilter":9987
		}
	],
	"buffers":[
		{
			"byteLength":4754144,
			"uri":"scrap_rifle.bin"
		}
	]
}
