{
 "asset": {
  "generator": "Khronos glTF Blender I/O v4.5.51",
  "version": "2.0"
 },
 "scene": 0,
 "scenes": [
  {
   "name": "Scene",
   "nodes": [
    0,
    1
   ]
  }
 ],
 "nodes": [
  {
   "mesh": 0,
   "name": "trunk"
  },
  {
   "mesh": 1,
   "name": "foliage"
  }
 ],
 "materials": [
  {
   "doubleSided": true,
   "name": "bark",
   "normalTexture": {
    "index": 0
   },
   "pbrMetallicRoughness": {
    "baseColorTexture": {
     "index": 1
    },
    "metallicFactor": 0,
    "roughnessFactor": 0.8500000238418579
   }
  },
  {
   "doubleSided": true,
   "name": "spray",
   "normalTexture": {
    "index": 2
   },
   "pbrMetallicRoughness": {
    "baseColorTexture": {
     "index": 3
    },
    "metallicFactor": 0,
    "roughnessFactor": 0.6200000047683716
   },
   "alphaMode": "MASK",
   "alphaCutoff": 0.5
  }
 ],
 "meshes": [
  {
   "name": "conifer_fir_0_far_bark",
   "primitives": [
    {
     "attributes": {
      "POSITION": 0,
      "NORMAL": 1,
      "TEXCOORD_0": 2
     },
     "indices": 3,
     "material": 0
    }
   ]
  },
  {
   "name": "conifer_fir_0_far_foliage",
   "primitives": [
    {
     "attributes": {
      "POSITION": 4,
      "NORMAL": 5,
      "TEXCOORD_0": 6
     },
     "indices": 7,
     "material": 1
    }
   ]
  }
 ],
 "textures": [
  {
   "sampler": 0,
   "source": 0
  },
  {
   "sampler": 0,
   "source": 1
  },
  {
   "sampler": 0,
   "source": 2
  },
  {
   "sampler": 0,
   "source": 3
  }
 ],
 "images": [
  {
   "mimeType": "image/jpeg",
   "name": "fir_tree_01_bark_nor_gl_2k.jpg",
   "uri": "../../../source/trees/fir_tree_01/fir_tree_01_bark_nor_gl_2k.jpg"
  },
  {
   "mimeType": "image/jpeg",
   "name": "fir_tree_01_bark_diff_2k.jpg",
   "uri": "../../../source/trees/fir_tree_01/fir_tree_01_bark_diff_2k.jpg"
  },
  {
   "mimeType": "image/png",
   "name": "conifer_spray_nor_gl_2k.png",
   "uri": "../../../source/trees/conifer_spray/conifer_spray_nor_gl_2k.png"
  },
  {
   "mimeType": "image/png",
   "name": "conifer_spray_diff_2k.png",
   "uri": "../../../source/trees/conifer_spray/conifer_spray_diff_2k.png"
  }
 ],
 "accessors": [
  {
   "bufferView": 0,
   "componentType": 5126,
   "count": 1620,
   "max": [
    4.294540882110596,
    18.856660842895508,
    3.789332389831543
   ],
   "min": [
    -4.375775337219238,
    -0.6000000238418579,
    -4.166258811950684
   ],
   "type": "VEC3"
  },
  {
   "bufferView": 1,
   "componentType": 5126,
   "count": 1620,
   "type": "VEC3"
  },
  {
   "bufferView": 2,
   "componentType": 5126,
   "count": 1620,
   "type": "VEC2"
  },
  {
   "bufferView": 3,
   "componentType": 5123,
   "count": 6318,
   "type": "SCALAR"
  },
  {
   "bufferView": 4,
   "componentType": 5126,
   "count": 8160,
   "max": [
    5.086523532867432,
    19.701391220092773,
    4.7854390144348145
   ],
   "min": [
    -5.637677192687988,
    -0.5222298502922058,
    -5.01148796081543
   ],
   "type": "VEC3"
  },
  {
   "bufferView": 5,
   "componentType": 5126,
   "count": 8160,
   "type": "VEC3"
  },
  {
   "bufferView": 6,
   "componentType": 5126,
   "count": 8160,
   "type": "VEC2"
  },
  {
   "bufferView": 7,
   "componentType": 5123,
   "count": 12240,
   "type": "SCALAR"
  }
 ],
 "bufferViews": [
  {
   "buffer": 0,
   "byteLength": 19440,
   "byteOffset": 0,
   "target": 34962
  },
  {
   "buffer": 0,
   "byteLength": 19440,
   "byteOffset": 19440,
   "target": 34962
  },
  {
   "buffer": 0,
   "byteLength": 12960,
   "byteOffset": 38880,
   "target": 34962
  },
  {
   "buffer": 0,
   "byteLength": 12636,
   "byteOffset": 51840,
   "target": 34963
  },
  {
   "buffer": 0,
   "byteLength": 97920,
   "byteOffset": 64476,
   "target": 34962
  },
  {
   "buffer": 0,
   "byteLength": 97920,
   "byteOffset": 162396,
   "target": 34962
  },
  {
   "buffer": 0,
   "byteLength": 65280,
   "byteOffset": 260316,
   "target": 34962
  },
  {
   "buffer": 0,
   "byteLength": 24480,
   "byteOffset": 325596,
   "target": 34963
  }
 ],
 "samplers": [
  {
   "magFilter": 9729,
   "minFilter": 9987
  }
 ],
 "buffers": [
  {
   "byteLength": 350076,
   "uri": "conifer_fir_0_far.bin"
  }
 ]
}