{
 "asset": {
  "generator": "Khronos glTF Blender I/O v4.5.51",
  "version": "2.0"
 },
 "scene": 0,
 "scenes": [
  {
   "name": "Scene",
   "nodes": [
    0,
    1
   ]
  }
 ],
 "nodes": [
  {
   "mesh": 0,
   "name": "trunk"
  },
  {
   "mesh": 1,
   "name": "foliage"
  }
 ],
 "materials": [
  {
   "doubleSided": true,
   "name": "bark",
   "normalTexture": {
    "index": 0
   },
   "pbrMetallicRoughness": {
    "baseColorTexture": {
     "index": 1
    },
    "metallicFactor": 0,
    "roughnessFactor": 0.8500000238418579
   }
  },
  {
   "doubleSided": true,
   "name": "spray",
   "normalTexture": {
    "index": 2
   },
   "pbrMetallicRoughness": {
    "baseColorTexture": {
     "index": 3
    },
    "metallicFactor": 0,
    "roughnessFactor": 0.6200000047683716
   },
   "alphaMode": "MASK",
   "alphaCutoff": 0.5
  }
 ],
 "meshes": [
  {
   "name": "conifer_fir_5_bark",
   "primitives": [
    {
     "attributes": {
      "POSITION": 0,
      "NORMAL": 1,
      "TEXCOORD_0": 2
     },
     "indices": 3,
     "material": 0
    }
   ]
  },
  {
   "name": "conifer_fir_5_foliage",
   "primitives": [
    {
     "attributes": {
      "POSITION": 4,
      "NORMAL": 5,
      "TEXCOORD_0": 6
     },
     "indices": 7,
     "material": 1
    }
   ]
  }
 ],
 "textures": [
  {
   "sampler": 0,
   "source": 0
  },
  {
   "sampler": 0,
   "source": 1
  },
  {
   "sampler": 0,
   "source": 2
  },
  {
   "sampler": 0,
   "source": 3
  }
 ],
 "images": [
  {
   "mimeType": "image/jpeg",
   "name": "fir_tree_01_bark_nor_gl_2k.jpg",
   "uri": "../../../source/trees/fir_tree_01/fir_tree_01_bark_nor_gl_2k.jpg"
  },
  {
   "mimeType": "image/jpeg",
   "name": "fir_tree_01_bark_diff_2k.jpg",
   "uri": "../../../source/trees/fir_tree_01/fir_tree_01_bark_diff_2k.jpg"
  },
  {
   "mimeType": "image/png",
   "name": "conifer_spray_nor_gl_2k.png",
   "uri": "../../../source/trees/conifer_spray/conifer_spray_nor_gl_2k.png"
  },
  {
   "mimeType": "image/png",
   "name": "conifer_spray_diff_2k.png",
   "uri": "../../../source/trees/conifer_spray/conifer_spray_diff_2k.png"
  }
 ],
 "accessors": [
  {
   "bufferView": 0,
   "componentType": 5126,
   "count": 11897,
   "max": [
    3.447096109390259,
    14.660606384277344,
    3.2210001945495605
   ],
   "min": [
    -3.3777153491973877,
    -0.6000000238418579,
    -3.519040107727051
   ],
   "type": "VEC3"
  },
  {
   "bufferView": 1,
   "componentType": 5126,
   "count": 11897,
   "type": "VEC3"
  },
  {
   "bufferView": 2,
   "componentType": 5126,
   "count": 11897,
   "type": "VEC2"
  },
  {
   "bufferView": 3,
   "componentType": 5123,
   "count": 46512,
   "type": "SCALAR"
  },
  {
   "bufferView": 4,
   "componentType": 5126,
   "count": 40446,
   "max": [
    3.888018846511841,
    14.84776496887207,
    3.7973787784576416
   ],
   "min": [
    -3.9224658012390137,
    -0.3574264645576477,
    -3.9991767406463623
   ],
   "type": "VEC3"
  },
  {
   "bufferView": 5,
   "componentType": 5126,
   "count": 40446,
   "type": "VEC3"
  },
  {
   "bufferView": 6,
   "componentType": 5126,
   "count": 40446,
   "type": "VEC2"
  },
  {
   "bufferView": 7,
   "componentType": 5123,
   "count": 80892,
   "type": "SCALAR"
  }
 ],
 "bufferViews": [
  {
   "buffer": 0,
   "byteLength": 142764,
   "byteOffset": 0,
   "target": 34962
  },
  {
   "buffer": 0,
   "byteLength": 142764,
   "byteOffset": 142764,
   "target": 34962
  },
  {
   "buffer": 0,
   "byteLength": 95176,
   "byteOffset": 285528,
   "target": 34962
  },
  {
   "buffer": 0,
   "byteLength": 93024,
   "byteOffset": 380704,
   "target": 34963
  },
  {
   "buffer": 0,
   "byteLength": 485352,
   "byteOffset": 473728,
   "target": 34962
  },
  {
   "buffer": 0,
   "byteLength": 485352,
   "byteOffset": 959080,
   "target": 34962
  },
  {
   "buffer": 0,
   "byteLength": 323568,
   "byteOffset": 1444432,
   "target": 34962
  },
  {
   "buffer": 0,
   "byteLength": 161784,
   "byteOffset": 1768000,
   "target": 34963
  }
 ],
 "samplers": [
  {
   "magFilter": 9729,
   "minFilter": 9987
  }
 ],
 "buffers": [
  {
   "byteLength": 1929784,
   "uri": "conifer_fir_5.bin"
  }
 ]
}