{
	"asset":{
		"generator":"Khronos glTF Blender I/O v4.5.51",
		"version":"2.0"
	},
	"scene":0,
	"scenes":[
		{
			"name":"Scene",
			"nodes":[
				81
			]
		}
	],
	"nodes":[
		{
			"name":"Bip01 REye",
			"rotation":[
				6.551946626132121e-06,
				4.634149718185654e-06,
				0.6514644026756287,
				0.758679211139679
			],
			"scale":[
				1.0000001192092896,
				1.0000001192092896,
				1
			],
			"translation":[
				11.082051277160645,
				6.991766452789307,
				-3.1885082721710205
			]
		},
		{
			"name":"Bip01 LEye",
			"rotation":[
				-6.484729965450242e-06,
				-8.365648682229221e-06,
				0.6514644622802734,
				0.758679211139679
			],
			"translation":[
				11.082051277160645,
				6.991748332977295,
				3.1885478496551514
			]
		},
		{
			"name":"Bip01 MBottomLip",
			"rotation":[
				-7.822256975487107e-07,
				2.122489604516886e-06,
				-0.1736481934785843,
				0.9848077893257141
			],
			"translation":[
				10.554052352905273,
				-2.3332128524780273,
				-0.08900664746761322
			]
		},
		{
			"name":"Bip01 MTongue",
			"rotation":[
				0.003030406078323722,
				0.013343055732548237,
				-0.1757044941186905,
				0.9843478798866272
			],
			"scale":[
				0.9999999403953552,
				0.9999999403953552,
				1
			],
			"translation":[
				7.251124382019043,
				-1.5666029453277588,
				0.060974329710006714
			]
		},
		{
			"name":"Bip01 LMouthBottom",
			"rotation":[
				-0.038381077349185944,
				-0.21606487035751343,
				-0.16940723359584808,
				0.9608038663864136
			],
			"scale":[
				0.9999999403953552,
				1,
				0.9999998807907104
			],
			"translation":[
				10.335317611694336,
				-2.435741662979126,
				1.3072662353515625
			]
		},
		{
			"name":"Bip01 RMouthBottom",
			"rotation":[
				0.03828731179237366,
				0.21553519368171692,
				-0.16942650079727173,
				0.9609231948852539
			],
			"scale":[
				1,
				1,
				0.9999998807907104
			],
			"translation":[
				10.31496524810791,
				-2.4215939044952393,
				-1.4824954271316528
			]
		},
		{
			"children":[
				2,
				3,
				4,
				5
			],
			"name":"Bip01 MJaw",
			"rotation":[
				0.0012046614428982139,
				-0.004261411726474762,
				0.764102041721344,
				0.6450802087783813
			],
			"scale":[
				1.0000001192092896,
				1.0000001192092896,
				1
			],
			"translation":[
				3.289414882659912,
				1.2400195598602295,
				1.6184949345188215e-06
			]
		},
		{
			"name":"Bip01 RMasseter",
			"rotation":[
				-0.25819820165634155,
				0.2824493646621704,
				0.6814050078392029,
				0.623893678188324
			],
			"scale":[
				1.0000001192092896,
				0.9999999403953552,
				1
			],
			"translation":[
				4.5802998542785645,
				7.721063137054443,
				-5.71938943862915
			]
		},
		{
			"name":"Bip01 LMasseter",
			"rotation":[
				0.2582002282142639,
				-0.2824551463127136,
				0.6814025640487671,
				0.6238928437232971
			],
			"scale":[
				0.9999999403953552,
				1,
				1.0000001192092896
			],
			"translation":[
				4.5802998542785645,
				7.721031665802002,
				5.719433784484863
			]
		},
		{
			"name":"Bip01 MUpperLip",
			"rotation":[
				-1.2744190769353736e-07,
				-2.714155471039703e-06,
				0.6758842468261719,
				0.7370077967643738
			],
			"scale":[
				1.0000001192092896,
				1.0000001192092896,
				1
			],
			"translation":[
				5.0816330909729,
				11.831403732299805,
				1.6894035070436075e-05
			]
		},
		{
			"name":"Bip01 RCaninus",
			"rotation":[
				-0.19061286747455597,
				0.17508265376091003,
				0.6528336405754089,
				0.7119137048721313
			],
			"scale":[
				1,
				1,
				1.0000001192092896
			],
			"translation":[
				6.248197555541992,
				10.81301212310791,
				-2.9446988105773926
			]
		},
		{
			"name":"Bip01 LCaninus",
			"rotation":[
				0.19061286747455597,
				-0.17508630454540253,
				0.6528326869010925,
				0.7119136452674866
			],
			"scale":[
				1,
				1.0000001192092896,
				1
			],
			"translation":[
				6.248197555541992,
				10.812997817993164,
				2.944758653640747
			]
		},
		{
			"name":"Bip01 REyeBlinkBottom",
			"rotation":[
				-0.09612919390201569,
				0.08829664438962936,
				0.6701017618179321,
				0.7307027578353882
			],
			"scale":[
				1.0000001192092896,
				1.0000001192092896,
				1.0000001192092896
			],
			"translation":[
				10.374600410461426,
				8.750556945800781,
				-3.4110546112060547
			]
		},
		{
			"name":"Bip01 LEyeBlinkBottom",
			"rotation":[
				0.09612919390201569,
				-0.08830033987760544,
				0.6701012849807739,
				0.730702817440033
			],
			"scale":[
				1,
				0.9999999403953552,
				1
			],
			"translation":[
				10.374600410461426,
				8.750536918640137,
				3.4111039638519287
			]
		},
		{
			"name":"Bip01 RUpperlip",
			"rotation":[
				-0.17033535242080688,
				0.1705675572156906,
				0.6865367889404297,
				0.685973584651947
			],
			"scale":[
				1,
				0.9999998807907104,
				1
			],
			"translation":[
				5.02484655380249,
				11.68423080444336,
				-1.4255622625350952
			]
		},
		{
			"name":"Bip01 LUpperlip",
			"rotation":[
				0.17018064856529236,
				-0.17041653394699097,
				0.686574399471283,
				0.6860119104385376
			],
			"scale":[
				1.0000001192092896,
				0.9999999403953552,
				1.0000001192092896
			],
			"translation":[
				5.02484655380249,
				11.684224128723145,
				1.4256271123886108
			]
		},
		{
			"name":"Bip01 RMouthCorner",
			"rotation":[
				-0.15812987089157104,
				0.20154573023319244,
				0.7146279811859131,
				0.6509079337120056
			],
			"scale":[
				1.0000001192092896,
				1,
				1.0000001192092896
			],
			"translation":[
				4.082568168640137,
				10.714225769042969,
				-2.770092248916626
			]
		},
		{
			"name":"Bip01 LMouthCorner",
			"rotation":[
				0.15813298523426056,
				-0.20155294239521027,
				0.714625895023346,
				0.6509072780609131
			],
			"scale":[
				0.9999999403953552,
				0.9999998807907104,
				1
			],
			"translation":[
				4.0825676918029785,
				10.71420955657959,
				2.7701516151428223
			]
		},
		{
			"name":"Bip01 RCheek",
			"rotation":[
				-0.13256315886974335,
				0.1349373608827591,
				0.6999219059944153,
				0.6887149214744568
			],
			"scale":[
				1,
				0.9999998807907104,
				1
			],
			"translation":[
				8.475435256958008,
				9.653759956359863,
				-4.1373724937438965
			]
		},
		{
			"name":"Bip01 LCheek",
			"rotation":[
				0.1325691193342209,
				-0.13494710624217987,
				0.6999202370643616,
				0.688713550567627
			],
			"scale":[
				1,
				1,
				0.9999999403953552
			],
			"translation":[
				8.475435256958008,
				9.653738021850586,
				4.137425422668457
			]
		},
		{
			"name":"Bip01 REyeBlinkTop",
			"rotation":[
				-0.10190215706825256,
				0.10861622542142868,
				0.5618585348129272,
				0.8137158155441284
			],
			"scale":[
				1.0000001192092896,
				1,
				1.0000001192092896
			],
			"translation":[
				11.867803573608398,
				8.439638137817383,
				-3.3358116149902344
			]
		},
		{
			"name":"Bip01 LEyeBlinkTop",
			"rotation":[
				0.10190214216709137,
				-0.10861936956644058,
				0.5618579387664795,
				0.8137158155441284
			],
			"scale":[
				1.0000001192092896,
				1.0000001192092896,
				1
			],
			"translation":[
				11.867803573608398,
				8.439620971679688,
				3.3358583450317383
			]
		},
		{
			"name":"Bip01 RInnerEyebrow",
			"rotation":[
				-0.06418651342391968,
				0.05895674601197243,
				0.6733119487762451,
				0.7342038154602051
			],
			"scale":[
				1.0000001192092896,
				1,
				1
			],
			"translation":[
				13.00532341003418,
				9.465070724487305,
				-2.6413166522979736
			]
		},
		{
			"name":"Bip01 LInnerEyebrow",
			"rotation":[
				0.06418650597333908,
				-0.05896046757698059,
				0.6733115911483765,
				0.7342038750648499
			],
			"scale":[
				1,
				0.9999998807907104,
				1
			],
			"translation":[
				13.00532341003418,
				9.465055465698242,
				2.641369342803955
			]
		},
		{
			"name":"Bip01 MMiddleEyebrow",
			"rotation":[
				5.505544464767809e-09,
				-1.8941685766549199e-06,
				0.6769024729728699,
				0.7360727190971375
			],
			"translation":[
				12.706480979919434,
				10.012899398803711,
				1.3959451280243229e-05
			]
		},
		{
			"name":"Bip01 ROuterEyebrow",
			"rotation":[
				-0.18039089441299438,
				0.18558624386787415,
				0.6560015082359314,
				0.7089985013008118
			],
			"scale":[
				1.0000001192092896,
				1.0000001192092896,
				1.0000001192092896
			],
			"translation":[
				12.54155158996582,
				8.292970657348633,
				-4.926669597625732
			]
		},
		{
			"name":"Bip01 LOuterEyebrow",
			"rotation":[
				0.18039089441299438,
				-0.18558987975120544,
				0.6560004949569702,
				0.7089985013008118
			],
			"scale":[
				1.0000001192092896,
				1.0000001192092896,
				1
			],
			"translation":[
				12.541550636291504,
				8.29294204711914,
				4.92671537399292
			]
		},
		{
			"name":"Bip01 MNose",
			"rotation":[
				-1.3010843247229786e-07,
				-2.719114036153769e-06,
				0.6731290221214294,
				0.7395251393318176
			],
			"translation":[
				8.708126068115234,
				12.19327449798584,
				1.695234823273495e-05
			]
		},
		{
			"children":[
				0,
				1,
				6,
				7,
				8,
				9,
				10,
				11,
				12,
				13,
				14,
				15,
				16,
				17,
				18,
				19,
				20,
				21,
				22,
				23,
				24,
				25,
				26,
				27
			],
			"name":"Bip01 Head",
			"rotation":[
				-1.1687603773680166e-08,
				3.766457155052194e-07,
				-0.07293783873319626,
				0.9973364472389221
			],
			"scale":[
				1,
				0.9999999403953552,
				1
			],
			"translation":[
				6.926533222198486,
				-1.4901111171639059e-06,
				-5.320762284100056e-06
			]
		},
		{
			"name":"Bip01 L Finger02",
			"rotation":[
				3.0910632631275803e-07,
				7.493486720022702e-08,
				0.10685860365629196,
				0.9942742586135864
			],
			"translation":[
				3.1003212928771973,
				1.621246337890625e-05,
				2.574920654296875e-05
			]
		},
		{
			"children":[
				29
			],
			"name":"Bip01 L Finger01",
			"rotation":[
				-1.705865884105151e-07,
				1.2372213120670494e-07,
				0.11265207827091217,
				0.9936344623565674
			],
			"translation":[
				2.8278424739837646,
				6.67572021484375e-06,
				8.106231689453125e-06
			]
		},
		{
			"children":[
				30
			],
			"name":"Bip01 L Finger0",
			"rotation":[
				0.6539397239685059,
				0.3667510151863098,
				-0.03328157961368561,
				0.6608697772026062
			],
			"scale":[
				0.9999999403953552,
				1,
				0.9999998807907104
			],
			"translation":[
				2.676091432571411,
				0.6282116174697876,
				-3.198244094848633
			]
		},
		{
			"name":"Bip01 L Finger12",
			"rotation":[
				6.054943924027612e-08,
				2.4406080001426744e-07,
				0.021091453731060028,
				0.9997775554656982
			],
			"scale":[
				1,
				0.9999998807907104,
				0.9999999403953552
			],
			"translation":[
				2.37905216217041,
				0,
				2.86102294921875e-06
			]
		},
		{
			"children":[
				32
			],
			"name":"Bip01 L Finger11",
			"rotation":[
				-2.600461357360473e-07,
				-4.134546429668262e-07,
				0.0934700220823288,
				0.9956220984458923
			],
			"translation":[
				3.128971576690674,
				-5.9604644775390625e-06,
				-3.814697265625e-06
			]
		},
		{
			"children":[
				33
			],
			"name":"Bip01 L Finger1",
			"rotation":[
				-0.000594294280745089,
				0.004124256316572428,
				0.10714028775691986,
				0.9942352175712585
			],
			"scale":[
				0.9999999403953552,
				0.9999998807907104,
				1
			],
			"translation":[
				9.438981056213379,
				-0.20391380786895752,
				-2.242434501647949
			]
		},
		{
			"name":"Bip01 L Finger22",
			"rotation":[
				1.3483796124091896e-07,
				1.2628128160940832e-06,
				0.09046682715415955,
				0.995899498462677
			],
			"scale":[
				1,
				1.0000001192092896,
				1.0000001192092896
			],
			"translation":[
				2.848802328109741,
				2.3543834686279297e-06,
				2.384185791015625e-06
			]
		},
		{
			"children":[
				35
			],
			"name":"Bip01 L Finger21",
			"rotation":[
				9.065593076229561e-08,
				-1.211079165841511e-07,
				0.06659188866615295,
				0.9977803230285645
			],
			"scale":[
				1.0000001192092896,
				1,
				1
			],
			"translation":[
				3.8014156818389893,
				-1.4096498489379883e-05,
				-3.337860107421875e-06
			]
		},
		{
			"children":[
				36
			],
			"name":"Bip01 L Finger2",
			"rotation":[
				-0.13920137286186218,
				-0.028466202318668365,
				0.1446170061826706,
				0.9792336821556091
			],
			"scale":[
				1,
				0.9999998807907104,
				1
			],
			"translation":[
				9.55929183959961,
				-0.18641698360443115,
				0.14536476135253906
			]
		},
		{
			"name":"Bip01 L Finger32",
			"rotation":[
				1.1470521421586e-08,
				-2.3290407380471834e-09,
				0.02509518526494503,
				0.9996851086616516
			],
			"scale":[
				0.9999998211860657,
				0.9999999403953552,
				1
			],
			"translation":[
				2.444215774536133,
				1.4819204807281494e-05,
				2.86102294921875e-06
			]
		},
		{
			"children":[
				38
			],
			"name":"Bip01 L Finger31",
			"rotation":[
				-1.1749128958626898e-07,
				4.2940268940583337e-07,
				0.049606118351221085,
				0.9987688660621643
			],
			"translation":[
				3.3696444034576416,
				-2.676248550415039e-05,
				-2.384185791015625e-06
			]
		},
		{
			"children":[
				39
			],
			"name":"Bip01 L Finger3",
			"rotation":[
				-0.14773334562778473,
				-0.01908629946410656,
				0.18398913741111755,
				0.9715753197669983
			],
			"scale":[
				0.9999998807907104,
				0.9999998807907104,
				1
			],
			"translation":[
				8.993642807006836,
				0.22698354721069336,
				2.30169677734375
			]
		},
		{
			"name":"Bip01 L Finger42",
			"rotation":[
				2.067015003603956e-08,
				-1.8084347175317816e-06,
				0.024951070547103882,
				0.9996886849403381
			],
			"scale":[
				0.9999998807907104,
				1,
				1.0000001192092896
			],
			"translation":[
				1.5358099937438965,
				-1.8715858459472656e-05,
				-1.0013580322265625e-05
			]
		},
		{
			"children":[
				41
			],
			"name":"Bip01 L Finger41",
			"rotation":[
				2.7410467851041176e-07,
				6.052659955457784e-07,
				0.02144550159573555,
				0.9997700452804565
			],
			"scale":[
				1,
				1,
				0.9999999403953552
			],
			"translation":[
				2.908787488937378,
				5.960464477539062e-07,
				5.7220458984375e-06
			]
		},
		{
			"children":[
				42
			],
			"name":"Bip01 L Finger4",
			"rotation":[
				-0.22423341870307922,
				-0.04356156662106514,
				0.26742023229599,
				0.9361133575439453
			],
			"scale":[
				1,
				1,
				0.9999998807907104
			],
			"translation":[
				8.023826599121094,
				1.201903223991394,
				3.9747462272644043
			]
		},
		{
			"children":[
				31,
				34,
				37,
				40,
				43
			],
			"name":"Bip01 L Hand",
			"rotation":[
				-0.714762270450592,
				0.012448790483176708,
				0.03602416813373566,
				0.6983281373977661
			],
			"scale":[
				0.9999999403953552,
				1,
				0.9999998211860657
			],
			"translation":[
				27.091955184936523,
				1.4066696166992188e-05,
				2.0265579223632812e-05
			]
		},
		{
			"children":[
				44
			],
			"name":"Bip01 L Forearm",
			"rotation":[
				4.354748384116647e-08,
				1.35080014729283e-07,
				-0.17941711843013763,
				0.9837731122970581
			],
			"scale":[
				1,
				0.9999999403953552,
				0.9999998807907104
			],
			"translation":[
				28.580177307128906,
				9.417533874511719e-06,
				-9.5367431640625e-07
			]
		},
		{
			"children":[
				45
			],
			"name":"Bip01 L UpperArm",
			"rotation":[
				0.09000936150550842,
				0.2669893503189087,
				-0.02968396246433258,
				0.9590275883674622
			],
			"scale":[
				0.9999999403953552,
				0.9999998211860657,
				0.9999999403953552
			],
			"translation":[
				14.107985496520996,
				7.68899917602539e-06,
				-1.3560056686401367e-06
			]
		},
		{
			"children":[
				46
			],
			"name":"Bip01 L Clavicle",
			"rotation":[
				0.6135298609733582,
				-0.11396157741546631,
				0.7713325619697571,
				0.12505993247032166
			],
			"scale":[
				0.9999991655349731,
				1.0000001192092896,
				0.9999999403953552
			],
			"translation":[
				-6.206559181213379,
				0.7088330388069153,
				7.282194137573242
			]
		},
		{
			"name":"Bip01 R Finger02",
			"rotation":[
				9.179521498481336e-08,
				1.826537356919289e-07,
				0.1068587526679039,
				0.9942741990089417
			],
			"translation":[
				3.1003365516662598,
				2.86102294921875e-06,
				-8.58306884765625e-06
			]
		},
		{
			"children":[
				48
			],
			"name":"Bip01 R Finger01",
			"rotation":[
				-3.7491552973278885e-08,
				1.3590687331088702e-07,
				0.11265195161104202,
				0.9936345219612122
			],
			"scale":[
				1.0000001192092896,
				1.0000001192092896,
				1.0000001192092896
			],
			"translation":[
				2.8278326988220215,
				1.239776611328125e-05,
				8.58306884765625e-06
			]
		},
		{
			"children":[
				49
			],
			"name":"Bip01 R Finger0",
			"rotation":[
				-0.6539392471313477,
				-0.3667512536048889,
				-0.0332815982401371,
				0.6608701348304749
			],
			"scale":[
				1.0000001192092896,
				1,
				1
			],
			"translation":[
				2.676081895828247,
				0.6282029151916504,
				3.198251247406006
			]
		},
		{
			"name":"Bip01 R Finger12",
			"rotation":[
				7.638544019528126e-08,
				2.9808951751419954e-08,
				0.021091468632221222,
				0.9997775554656982
			],
			"scale":[
				0.9999998807907104,
				1,
				1
			],
			"translation":[
				2.379016160964966,
				4.76837158203125e-06,
				7.62939453125e-06
			]
		},
		{
			"children":[
				51
			],
			"name":"Bip01 R Finger11",
			"rotation":[
				3.058815991607844e-07,
				7.296257820144092e-08,
				0.09347014129161835,
				0.9956220984458923
			],
			"scale":[
				1.0000001192092896,
				1,
				1.0000001192092896
			],
			"translation":[
				3.128976821899414,
				1.4066696166992188e-05,
				2.384185791015625e-06
			]
		},
		{
			"children":[
				52
			],
			"name":"Bip01 R Finger1",
			"rotation":[
				0.0005939607508480549,
				-0.0041245655156672,
				0.10714009404182434,
				0.9942352175712585
			],
			"scale":[
				1,
				1.0000001192092896,
				1.0000001192092896
			],
			"translation":[
				9.438953399658203,
				-0.20392465591430664,
				2.2424540519714355
			]
		},
		{
			"name":"Bip01 R Finger22",
			"rotation":[
				-3.3238998753404303e-07,
				-8.007283724964509e-08,
				0.09046708792448044,
				0.995899498462677
			],
			"scale":[
				1,
				0.9999998211860657,
				0.9999999403953552
			],
			"translation":[
				2.84879732131958,
				-3.1962990760803223e-06,
				-5.245208740234375e-06
			]
		},
		{
			"children":[
				54
			],
			"name":"Bip01 R Finger21",
			"rotation":[
				-3.76857975936673e-08,
				-3.243545165787509e-08,
				0.06659185141324997,
				0.9977803230285645
			],
			"scale":[
				1.0000001192092896,
				1,
				1.0000001192092896
			],
			"translation":[
				3.8014118671417236,
				7.241964340209961e-06,
				2.384185791015625e-06
			]
		},
		{
			"children":[
				55
			],
			"name":"Bip01 R Finger2",
			"rotation":[
				0.13920126855373383,
				0.02846583165228367,
				0.14461678266525269,
				0.9792337417602539
			],
			"scale":[
				0.9999998807907104,
				1.0000001192092896,
				1.0000001192092896
			],
			"translation":[
				9.5592622756958,
				-0.186417818069458,
				-0.14534616470336914
			]
		},
		{
			"name":"Bip01 R Finger32",
			"rotation":[
				-9.490838337455898e-09,
				1.2017846984235803e-07,
				0.025095218792557716,
				0.9996850490570068
			],
			"scale":[
				1,
				0.9999999403953552,
				1.0000001192092896
			],
			"translation":[
				2.444234609603882,
				7.724389433860779e-06,
				-9.5367431640625e-07
			]
		},
		{
			"children":[
				57
			],
			"name":"Bip01 R Finger31",
			"rotation":[
				1.2961342577000323e-07,
				-1.2052183251398674e-07,
				0.049606405198574066,
				0.9987688660621643
			],
			"scale":[
				0.9999999403953552,
				0.9999998807907104,
				0.9999999403953552
			],
			"translation":[
				3.3696374893188477,
				2.384185791015625e-06,
				6.67572021484375e-06
			]
		},
		{
			"children":[
				58
			],
			"name":"Bip01 R Finger3",
			"rotation":[
				0.14773313701152802,
				0.019085878506302834,
				0.18398888409137726,
				0.9715753793716431
			],
			"scale":[
				0.9999999403953552,
				1,
				1
			],
			"translation":[
				8.993614196777344,
				0.22697460651397705,
				-2.3016810417175293
			]
		},
		{
			"name":"Bip01 R Finger42",
			"rotation":[
				-3.976821005835518e-08,
				-8.081738656073867e-08,
				0.024951113387942314,
				0.9996886849403381
			],
			"scale":[
				0.9999999403953552,
				0.9999998807907104,
				1
			],
			"translation":[
				1.535796046257019,
				-1.990795135498047e-05,
				4.76837158203125e-06
			]
		},
		{
			"children":[
				60
			],
			"name":"Bip01 R Finger41",
			"rotation":[
				-1.6744372999255575e-07,
				-1.9073216606102505e-07,
				0.02144552581012249,
				0.9997700452804565
			],
			"scale":[
				1,
				1,
				0.9999999403953552
			],
			"translation":[
				2.908769130706787,
				1.6808509826660156e-05,
				1.9073486328125e-06
			]
		},
		{
			"children":[
				61
			],
			"name":"Bip01 R Finger4",
			"rotation":[
				0.22423331439495087,
				0.04356155917048454,
				0.26742035150527954,
				0.9361133575439453
			],
			"scale":[
				0.9999999403953552,
				1.0000001192092896,
				1
			],
			"translation":[
				8.023805618286133,
				1.201918601989746,
				-3.9747209548950195
			]
		},
		{
			"children":[
				50,
				53,
				56,
				59,
				62
			],
			"name":"Bip01 R Hand",
			"rotation":[
				0.7147617936134338,
				-0.012448879890143871,
				0.03602440655231476,
				0.6983286738395691
			],
			"scale":[
				0.9999999403953552,
				0.9999999403953552,
				0.9999998211860657
			],
			"translation":[
				27.0919246673584,
				-3.528594970703125e-05,
				2.3245811462402344e-05
			]
		},
		{
			"children":[
				63
			],
			"name":"Bip01 R Forearm",
			"rotation":[
				2.2909760843958793e-07,
				1.7087653247926937e-07,
				-0.17941699922084808,
				0.9837731122970581
			],
			"scale":[
				0.9999998807907104,
				0.9999999403953552,
				1
			],
			"translation":[
				28.580101013183594,
				-2.086162567138672e-05,
				5.781650543212891e-06
			]
		},
		{
			"children":[
				64
			],
			"name":"Bip01 R UpperArm",
			"rotation":[
				-0.09000933170318604,
				-0.266989529132843,
				-0.02968386933207512,
				0.9590275287628174
			],
			"scale":[
				0.9999999403953552,
				1,
				1
			],
			"translation":[
				14.107945442199707,
				-4.410743713378906e-06,
				-1.169741153717041e-06
			]
		},
		{
			"children":[
				65
			],
			"name":"Bip01 R Clavicle",
			"rotation":[
				-0.6135293245315552,
				0.11395953595638275,
				0.7713329792022705,
				0.1250613033771515
			],
			"scale":[
				1.0000016689300537,
				1,
				1
			],
			"translation":[
				-6.206563949584961,
				0.7088732123374939,
				-7.282181739807129
			]
		},
		{
			"children":[
				28,
				47,
				66
			],
			"name":"Bip01 Neck",
			"rotation":[
				2.233010754082443e-08,
				-6.668259402431431e-07,
				0.1684548556804657,
				0.9857093691825867
			],
			"scale":[
				0.9999998807907104,
				1.0000001192092896,
				1
			],
			"translation":[
				19.914196014404297,
				1.563376545906067,
				3.7292584238457493e-06
			]
		},
		{
			"children":[
				67
			],
			"name":"Bip01 Spine2",
			"rotation":[
				-4.986395740758098e-10,
				-5.289838345134967e-09,
				0.01556335762143135,
				0.9998788833618164
			],
			"scale":[
				1.0000001192092896,
				1.0000001192092896,
				1
			],
			"translation":[
				15.31757640838623,
				-0.01219022274017334,
				-1.230657744599739e-07
			]
		},
		{
			"children":[
				68
			],
			"name":"Bip01 Spine1",
			"rotation":[
				-1.521343162558253e-09,
				1.4329185660244548e-07,
				-0.013679489493370056,
				0.9999064207077026
			],
			"scale":[
				0.9999999403953552,
				1,
				0.9999998807907104
			],
			"translation":[
				15.316893577575684,
				-0.012189745903015137,
				-3.350640326971188e-06
			]
		},
		{
			"name":"Bip01 L Toe0",
			"rotation":[
				-6.119312843111402e-07,
				6.212648600012471e-07,
				0.70710688829422,
				0.7071066498756409
			],
			"scale":[
				1.000000238418579,
				1,
				1.0000001192092896
			],
			"translation":[
				10.162383079528809,
				13.629582405090332,
				-2.2173597244545817e-05
			]
		},
		{
			"children":[
				70
			],
			"name":"Bip01 L Foot",
			"rotation":[
				0.014937231317162514,
				-0.019717775285243988,
				0.04391248896718025,
				0.9987290501594543
			],
			"scale":[
				1,
				0.9999998807907104,
				0.9999997615814209
			],
			"translation":[
				39.66887664794922,
				-4.231929779052734e-06,
				-8.612871170043945e-06
			]
		},
		{
			"children":[
				71
			],
			"name":"Bip01 L Calf",
			"rotation":[
				9.610921125613459e-08,
				-1.313337065766973e-07,
				-0.061679039150476456,
				0.9980960488319397
			],
			"translation":[
				39.90353012084961,
				-1.1205673217773438e-05,
				-2.980232238769531e-07
			]
		},
		{
			"children":[
				72
			],
			"name":"Bip01 L Thigh",
			"rotation":[
				-0.0018704063259065151,
				-0.9900749325752258,
				-0.13801461458206177,
				0.02645980566740036
			],
			"scale":[
				0.9999999403953552,
				0.9999997615814209,
				0.9999999403953552
			],
			"translation":[
				-12.02125358581543,
				-0.37249961495399475,
				8.836849212646484
			]
		},
		{
			"name":"Bip01 R Toe0",
			"rotation":[
				5.946355372543621e-07,
				-6.327644541670452e-07,
				0.7071067690849304,
				0.7071067690849304
			],
			"scale":[
				0.9999999403953552,
				0.9999999403953552,
				1
			],
			"translation":[
				10.162365913391113,
				13.629565238952637,
				2.2887092200107872e-05
			]
		},
		{
			"children":[
				74
			],
			"name":"Bip01 R Foot",
			"rotation":[
				-0.014937249943614006,
				0.01971798576414585,
				0.043912649154663086,
				0.9987290501594543
			],
			"scale":[
				1,
				0.9999998807907104,
				0.9999998211860657
			],
			"translation":[
				39.66891098022461,
				1.1324882507324219e-05,
				-2.9802322387695312e-06
			]
		},
		{
			"children":[
				75
			],
			"name":"Bip01 R Calf",
			"rotation":[
				2.5077036003295916e-09,
				-8.211271307345669e-08,
				-0.06167910248041153,
				0.9980961084365845
			],
			"scale":[
				0.9999999403953552,
				1,
				1
			],
			"translation":[
				39.90352249145508,
				1.5497207641601562e-05,
				-3.5762786865234375e-07
			]
		},
		{
			"children":[
				76
			],
			"name":"Bip01 R Thigh",
			"rotation":[
				0.0018704633694142103,
				0.9900753498077393,
				-0.13801176846027374,
				0.026459582149982452
			],
			"scale":[
				0.9999998211860657,
				1.000000238418579,
				0.9999998807907104
			],
			"translation":[
				-12.021257400512695,
				-0.3724500238895416,
				-8.836845397949219
			]
		},
		{
			"children":[
				69,
				73,
				77
			],
			"name":"Bip01 Spine",
			"rotation":[
				-2.098500090141897e-06,
				6.441164828174806e-07,
				-0.022256353870034218,
				0.9997522830963135
			],
			"scale":[
				1.0000001192092896,
				1,
				1
			],
			"translation":[
				12.025932312011719,
				-0.1628580242395401,
				-1.750310002535116e-05
			]
		},
		{
			"children":[
				78
			],
			"name":"Bip01 Pelvis",
			"rotation":[
				0.7071067690849304,
				0.7071067690849304,
				-1.0115257964571356e-06,
				3.09099092987708e-08
			],
			"scale":[
				1,
				0.9999998807907104,
				1
			],
			"translation":[
				3.019806626980426e-13,
				0,
				7.453889935837843e-20
			]
		},
		{
			"mesh":0,
			"name":"sm002_hipoly_81_bones",
			"skin":0
		},
		{
			"children":[
				80,
				79
			],
			"name":"Bip01",
			"rotation":[
				0,
				-0.7071062922477722,
				0,
				0.7071073651313782
			],
			"scale":[
				0.009999999776482582,
				0.009999999776482582,
				0.009999999776482582
			],
			"translation":[
				0,
				0.8951848149299622,
				0
			]
		}
	],
	"materials":[
		{
			"doubleSided":true,
			"name":"sm002_body",
			"normalTexture":{
				"index":0
			},
			"pbrMetallicRoughness":{
				"baseColorTexture":{
					"index":1
				},
				"metallicRoughnessTexture":{
					"index":2
				}
			}
		},
		{
			"doubleSided":true,
			"name":"sm002_head",
			"normalTexture":{
				"index":3
			},
			"pbrMetallicRoughness":{
				"baseColorTexture":{
					"index":4
				},
				"metallicRoughnessTexture":{
					"index":5
				}
			}
		},
		{
			"doubleSided":true,
			"name":"sm002_helmet",
			"normalTexture":{
				"index":6
			},
			"pbrMetallicRoughness":{
				"baseColorTexture":{
					"index":7
				},
				"metallicRoughnessTexture":{
					"index":8
				}
			}
		},
		{
			"doubleSided":true,
			"name":"sm002_equipment",
			"normalTexture":{
				"index":9
			},
			"pbrMetallicRoughness":{
				"baseColorTexture":{
					"index":10
				},
				"metallicRoughnessTexture":{
					"index":11
				}
			}
		},
		{
			"doubleSided":true,
			"name":"sm002_combat_knife",
			"normalTexture":{
				"index":12
			},
			"pbrMetallicRoughness":{
				"baseColorTexture":{
					"index":13
				},
				"metallicRoughnessTexture":{
					"index":14
				}
			}
		}
	],
	"meshes":[
		{
			"name":"Mesh",
			"primitives":[
				{
					"attributes":{
						"POSITION":0,
						"NORMAL":1,
						"TEXCOORD_0":2,
						"COLOR_0":3,
						"COLOR_1":4,
						"JOINTS_0":5,
						"WEIGHTS_0":6
					},
					"indices":7,
					"material":0
				},
				{
					"attributes":{
						"POSITION":8,
						"NORMAL":9,
						"TEXCOORD_0":10,
						"COLOR_0":11,
						"COLOR_1":12,
						"JOINTS_0":13,
						"WEIGHTS_0":14
					},
					"indices":15,
					"material":1
				},
				{
					"attributes":{
						"POSITION":16,
						"NORMAL":17,
						"TEXCOORD_0":18,
						"COLOR_0":19,
						"COLOR_1":20,
						"JOINTS_0":21,
						"WEIGHTS_0":22
					},
					"indices":23,
					"material":2
				},
				{
					"attributes":{
						"POSITION":24,
						"NORMAL":25,
						"TEXCOORD_0":26,
						"COLOR_0":27,
						"COLOR_1":28,
						"JOINTS_0":29,
						"WEIGHTS_0":30
					},
					"indices":31,
					"material":3
				},
				{
					"attributes":{
						"POSITION":32,
						"NORMAL":33,
						"TEXCOORD_0":34,
						"COLOR_0":35,
						"COLOR_1":36,
						"JOINTS_0":37,
						"WEIGHTS_0":38
					},
					"indices":39,
					"material":4
				}
			]
		}
	],
	"textures":[
		{
			"sampler":0,
			"source":0
		},
		{
			"sampler":0,
			"source":1
		},
		{
			"sampler":0,
			"source":2
		},
		{
			"sampler":0,
			"source":3
		},
		{
			"sampler":0,
			"source":4
		},
		{
			"sampler":0,
			"source":5
		},
		{
			"sampler":0,
			"source":6
		},
		{
			"sampler":0,
			"source":7
		},
		{
			"sampler":0,
			"source":8
		},
		{
			"sampler":0,
			"source":9
		},
		{
			"sampler":0,
			"source":10
		},
		{
			"sampler":0,
			"source":11
		},
		{
			"sampler":0,
			"source":12
		},
		{
			"sampler":0,
			"source":13
		},
		{
			"sampler":0,
			"source":14
		}
	],
	"images":[
		{
			"mimeType":"image/png",
			"name":"sm002_body_normal",
			"uri":"sm002_body_normal.png"
		},
		{
			"mimeType":"image/png",
			"name":"sm002_body_color",
			"uri":"sm002_body_color.png"
		},
		{
			"mimeType":"image/png",
			"name":"sm002_body_surface",
			"uri":"sm002_body_surface.png"
		},
		{
			"mimeType":"image/png",
			"name":"sm002_head_normal",
			"uri":"sm002_head_normal.png"
		},
		{
			"mimeType":"image/png",
			"name":"sm002_head_color",
			"uri":"sm002_head_color.png"
		},
		{
			"mimeType":"image/png",
			"name":"sm002_head_surface",
			"uri":"sm002_head_surface.png"
		},
		{
			"mimeType":"image/png",
			"name":"sm002_helmet_normal",
			"uri":"sm002_helmet_normal.png"
		},
		{
			"mimeType":"image/png",
			"name":"sm002_helmet_color",
			"uri":"sm002_helmet_color.png"
		},
		{
			"mimeType":"image/png",
			"name":"sm002_helmet_surface",
			"uri":"sm002_helmet_surface.png"
		},
		{
			"mimeType":"image/png",
			"name":"sm002_equipment_normal",
			"uri":"sm002_equipment_normal.png"
		},
		{
			"mimeType":"image/png",
			"name":"sm002_equipment_color",
			"uri":"sm002_equipment_color.png"
		},
		{
			"mimeType":"image/png",
			"name":"sm002_equipment_surface",
			"uri":"sm002_equipment_surface.png"
		},
		{
			"mimeType":"image/png",
			"name":"sm002_combat_knife_normal",
			"uri":"sm002_combat_knife_normal.png"
		},
		{
			"mimeType":"image/png",
			"name":"sm002_combat_knife_color",
			"uri":"sm002_combat_knife_color.png"
		},
		{
			"mimeType":"image/png",
			"name":"sm002_combat_knife_surface",
			"uri":"sm002_combat_knife_surface.png"
		}
	],
	"skins":[
		{
			"inverseBindMatrices":40,
			"joints":[
				79,
				78,
				69,
				68,
				67,
				28,
				0,
				1,
				6,
				2,
				3,
				4,
				5,
				7,
				8,
				9,
				10,
				11,
				12,
				13,
				14,
				15,
				16,
				17,
				18,
				19,
				20,
				21,
				22,
				23,
				24,
				25,
				26,
				27,
				47,
				46,
				45,
				44,
				31,
				30,
				29,
				34,
				33,
				32,
				37,
				36,
				35,
				40,
				39,
				38,
				43,
				42,
				41,
				66,
				65,
				64,
				63,
				50,
				49,
				48,
				53,
				52,
				51,
				56,
				55,
				54,
				59,
				58,
				57,
				62,
				61,
				60,
				73,
				72,
				71,
				70,
				77,
				76,
				75,
				74
			],
			"name":"Bip01"
		}
	],
	"accessors":[
		{
			"bufferView":0,
			"componentType":5126,
			"count":4038,
			"max":[
				0.6781272292137146,
				1.6082549095153809,
				0.18739770352840424
			],
			"min":[
				-0.6781271696090698,
				-0.0033926991745829582,
				-0.2515377998352051
			],
			"type":"VEC3"
		},
		{
			"bufferView":1,
			"componentType":5126,
			"count":4038,
			"type":"VEC3"
		},
		{
			"bufferView":2,
			"componentType":5126,
			"count":4038,
			"type":"VEC2"
		},
		{
			"bufferView":3,
			"componentType":5121,
			"count":4038,
			"normalized":true,
			"type":"VEC4"
		},
		{
			"bufferView":4,
			"componentType":5123,
			"count":4038,
			"normalized":true,
			"type":"VEC4"
		},
		{
			"bufferView":5,
			"componentType":5121,
			"count":4038,
			"type":"VEC4"
		},
		{
			"bufferView":6,
			"componentType":5126,
			"count":4038,
			"type":"VEC4"
		},
		{
			"bufferView":7,
			"componentType":5123,
			"count":16374,
			"type":"SCALAR"
		},
		{
			"bufferView":8,
			"componentType":5126,
			"count":2508,
			"max":[
				0.10471629351377487,
				1.808173656463623,
				0.158391535282135
			],
			"min":[
				-0.11110133677721024,
				1.5015627145767212,
				-0.10390453040599823
			],
			"type":"VEC3"
		},
		{
			"bufferView":9,
			"componentType":5126,
			"count":2508,
			"type":"VEC3"
		},
		{
			"bufferView":10,
			"componentType":5126,
			"count":2508,
			"type":"VEC2"
		},
		{
			"bufferView":11,
			"componentType":5121,
			"count":2508,
			"normalized":true,
			"type":"VEC4"
		},
		{
			"bufferView":12,
			"componentType":5123,
			"count":2508,
			"normalized":true,
			"type":"VEC4"
		},
		{
			"bufferView":13,
			"componentType":5121,
			"count":2508,
			"type":"VEC4"
		},
		{
			"bufferView":14,
			"componentType":5126,
			"count":2508,
			"type":"VEC4"
		},
		{
			"bufferView":15,
			"componentType":5123,
			"count":10596,
			"type":"SCALAR"
		},
		{
			"bufferView":16,
			"componentType":5126,
			"count":1379,
			"max":[
				0.11879120022058487,
				1.8407107591629028,
				0.14813359081745148
			],
			"min":[
				-0.11468245834112167,
				1.5629730224609375,
				-0.11059858649969101
			],
			"type":"VEC3"
		},
		{
			"bufferView":17,
			"componentType":5126,
			"count":1379,
			"type":"VEC3"
		},
		{
			"bufferView":18,
			"componentType":5126,
			"count":1379,
			"type":"VEC2"
		},
		{
			"bufferView":19,
			"componentType":5121,
			"count":1379,
			"normalized":true,
			"type":"VEC4"
		},
		{
			"bufferView":20,
			"componentType":5123,
			"count":1379,
			"normalized":true,
			"type":"VEC4"
		},
		{
			"bufferView":21,
			"componentType":5121,
			"count":1379,
			"type":"VEC4"
		},
		{
			"bufferView":22,
			"componentType":5126,
			"count":1379,
			"type":"VEC4"
		},
		{
			"bufferView":23,
			"componentType":5123,
			"count":4158,
			"type":"SCALAR"
		},
		{
			"bufferView":24,
			"componentType":5126,
			"count":3738,
			"max":[
				0.2083456963300705,
				1.7496401071548462,
				0.19259551167488098
			],
			"min":[
				-0.23163115978240967,
				0.9855976104736328,
				-0.20428051054477692
			],
			"type":"VEC3"
		},
		{
			"bufferView":25,
			"componentType":5126,
			"count":3738,
			"type":"VEC3"
		},
		{
			"bufferView":26,
			"componentType":5126,
			"count":3738,
			"type":"VEC2"
		},
		{
			"bufferView":27,
			"componentType":5121,
			"count":3738,
			"normalized":true,
			"type":"VEC4"
		},
		{
			"bufferView":28,
			"componentType":5123,
			"count":3738,
			"normalized":true,
			"type":"VEC4"
		},
		{
			"bufferView":29,
			"componentType":5121,
			"count":3738,
			"type":"VEC4"
		},
		{
			"bufferView":30,
			"componentType":5126,
			"count":3738,
			"type":"VEC4"
		},
		{
			"bufferView":31,
			"componentType":5123,
			"count":13041,
			"type":"SCALAR"
		},
		{
			"bufferView":32,
			"componentType":5126,
			"count":705,
			"max":[
				0.16697174310684204,
				1.5246516466140747,
				0.20220601558685303
			],
			"min":[
				0.010626252740621567,
				1.2233662605285645,
				0.0524662546813488
			],
			"type":"VEC3"
		},
		{
			"bufferView":33,
			"componentType":5126,
			"count":705,
			"type":"VEC3"
		},
		{
			"bufferView":34,
			"componentType":5126,
			"count":705,
			"type":"VEC2"
		},
		{
			"bufferView":35,
			"componentType":5121,
			"count":705,
			"normalized":true,
			"type":"VEC4"
		},
		{
			"bufferView":36,
			"componentType":5123,
			"count":705,
			"normalized":true,
			"type":"VEC4"
		},
		{
			"bufferView":37,
			"componentType":5121,
			"count":705,
			"type":"VEC4"
		},
		{
			"bufferView":38,
			"componentType":5126,
			"count":705,
			"type":"VEC4"
		},
		{
			"bufferView":39,
			"componentType":5123,
			"count":1992,
			"type":"SCALAR"
		},
		{
			"bufferView":40,
			"componentType":5126,
			"count":80,
			"type":"MAT4"
		}
	],
	"bufferViews":[
		{
			"buffer":0,
			"byteLength":48456,
			"byteOffset":0,
			"target":34962
		},
		{
			"buffer":0,
			"byteLength":48456,
			"byteOffset":48456,
			"target":34962
		},
		{
			"buffer":0,
			"byteLength":32304,
			"byteOffset":96912,
			"target":34962
		},
		{
			"buffer":0,
			"byteLength":16152,
			"byteOffset":129216,
			"target":34962
		},
		{
			"buffer":0,
			"byteLength":32304,
			"byteOffset":145368,
			"target":34962
		},
		{
			"buffer":0,
			"byteLength":16152,
			"byteOffset":177672,
			"target":34962
		},
		{
			"buffer":0,
			"byteLength":64608,
			"byteOffset":193824,
			"target":34962
		},
		{
			"buffer":0,
			"byteLength":32748,
			"byteOffset":258432,
			"target":34963
		},
		{
			"buffer":0,
			"byteLength":30096,
			"byteOffset":291180,
			"target":34962
		},
		{
			"buffer":0,
			"byteLength":30096,
			"byteOffset":321276,
			"target":34962
		},
		{
			"buffer":0,
			"byteLength":20064,
			"byteOffset":351372,
			"target":34962
		},
		{
			"buffer":0,
			"byteLength":10032,
			"byteOffset":371436,
			"target":34962
		},
		{
			"buffer":0,
			"byteLength":20064,
			"byteOffset":381468,
			"target":34962
		},
		{
			"buffer":0,
			"byteLength":10032,
			"byteOffset":401532,
			"target":34962
		},
		{
			"buffer":0,
			"byteLength":40128,
			"byteOffset":411564,
			"target":34962
		},
		{
			"buffer":0,
			"byteLength":21192,
			"byteOffset":451692,
			"target":34963
		},
		{
			"buffer":0,
			"byteLength":16548,
			"byteOffset":472884,
			"target":34962
		},
		{
			"buffer":0,
			"byteLength":16548,
			"byteOffset":489432,
			"target":34962
		},
		{
			"buffer":0,
			"byteLength":11032,
			"byteOffset":505980,
			"target":34962
		},
		{
			"buffer":0,
			"byteLength":5516,
			"byteOffset":517012,
			"target":34962
		},
		{
			"buffer":0,
			"byteLength":11032,
			"byteOffset":522528,
			"target":34962
		},
		{
			"buffer":0,
			"byteLength":5516,
			"byteOffset":533560,
			"target":34962
		},
		{
			"buffer":0,
			"byteLength":22064,
			"byteOffset":539076,
			"target":34962
		},
		{
			"buffer":0,
			"byteLength":8316,
			"byteOffset":561140,
			"target":34963
		},
		{
			"buffer":0,
			"byteLength":44856,
			"byteOffset":569456,
			"target":34962
		},
		{
			"buffer":0,
			"byteLength":44856,
			"byteOffset":614312,
			"target":34962
		},
		{
			"buffer":0,
			"byteLength":29904,
			"byteOffset":659168,
			"target":34962
		},
		{
			"buffer":0,
			"byteLength":14952,
			"byteOffset":689072,
			"target":34962
		},
		{
			"buffer":0,
			"byteLength":29904,
			"byteOffset":704024,
			"target":34962
		},
		{
			"buffer":0,
			"byteLength":14952,
			"byteOffset":733928,
			"target":34962
		},
		{
			"buffer":0,
			"byteLength":59808,
			"byteOffset":748880,
			"target":34962
		},
		{
			"buffer":0,
			"byteLength":26082,
			"byteOffset":808688,
			"target":34963
		},
		{
			"buffer":0,
			"byteLength":8460,
			"byteOffset":834772,
			"target":34962
		},
		{
			"buffer":0,
			"byteLength":8460,
			"byteOffset":843232,
			"target":34962
		},
		{
			"buffer":0,
			"byteLength":5640,
			"byteOffset":851692,
			"target":34962
		},
		{
			"buffer":0,
			"byteLength":2820,
			"byteOffset":857332,
			"target":34962
		},
		{
			"buffer":0,
			"byteLength":5640,
			"byteOffset":860152,
			"target":34962
		},
		{
			"buffer":0,
			"byteLength":2820,
			"byteOffset":865792,
			"target":34962
		},
		{
			"buffer":0,
			"byteLength":11280,
			"byteOffset":868612,
			"target":34962
		},
		{
			"buffer":0,
			"byteLength":3984,
			"byteOffset":879892,
			"target":34963
		},
		{
			"buffer":0,
			"byteLength":5120,
			"byteOffset":883876
		}
	],
	"samplers":[
		{
			"magFilter":9729,
			"minFilter":9987
		}
	],
	"buffers":[
		{
			"byteLength":888996,
			"uri":"military_male_01.bin"
		}
	]
}
