{
 "asset": {
  "generator": "Khronos glTF Blender I/O v4.5.51",
  "version": "2.0"
 },
 "scene": 0,
 "scenes": [
  {
   "name": "Scene",
   "nodes": [
    40
   ]
  }
 ],
 "nodes": [
  {
   "name": "jaw",
   "translation": [
    0,
    -0.020153939723968506,
    -0.052856624126434326
   ]
  },
  {
   "name": "ear_l",
   "translation": [
    0.08038433641195297,
    -0.05754154920578003,
    0.07261496782302856
   ]
  },
  {
   "name": "ear_r",
   "translation": [
    -0.08038433641195297,
    -0.05754154920578003,
    0.07261496782302856
   ]
  },
  {
   "name": "snout",
   "translation": [
    0,
    -0.33767372369766235,
    -0.1512497067451477
   ]
  },
  {
   "children": [
    0,
    1,
    2,
    3
   ],
   "name": "head",
   "translation": [
    0,
    -0.048318952322006226,
    -0.005361616611480713
   ]
  },
  {
   "children": [
    4
   ],
   "name": "neck_03",
   "translation": [
    0,
    -0.05476146936416626,
    -0.006076455116271973
   ]
  },
  {
   "children": [
    5
   ],
   "name": "neck_02",
   "translation": [
    0,
    -0.05798271298408508,
    -0.006433963775634766
   ]
  },
  {
   "children": [
    6
   ],
   "name": "neck_01",
   "translation": [
    0,
    -0.1599999964237213,
    -0.07499998807907104
   ]
  },
  {
   "name": "hoof_f_l",
   "translation": [
    0,
    -0.02000001072883606,
    -0.05000000447034836
   ]
  },
  {
   "children": [
    8
   ],
   "name": "pastern_f_l",
   "translation": [
    -0.004153348505496979,
    -0.005013376474380493,
    -0.13487160205841064
   ]
  },
  {
   "children": [
    9
   ],
   "name": "cannon_l",
   "translation": [
    -0.00628633052110672,
    -0.06498803198337555,
    -0.21011480689048767
   ]
  },
  {
   "children": [
    10
   ],
   "name": "radius_l",
   "translation": [
    -0.004560321569442749,
    0.120001420378685,
    -0.13501358032226562
   ]
  },
  {
   "children": [
    11
   ],
   "name": "humerus_l",
   "translation": [
    0.05000000074505806,
    -0.15000000596046448,
    -0.24000000953674316
   ]
  },
  {
   "children": [
    12
   ],
   "name": "scapula_l",
   "translation": [
    0.05000000074505806,
    -0.06499999761581421,
    0.07499998807907104
   ]
  },
  {
   "name": "hoof_f_r",
   "translation": [
    0,
    -0.02000001072883606,
    -0.05000000447034836
   ]
  },
  {
   "children": [
    14
   ],
   "name": "pastern_f_r",
   "translation": [
    0.004153348505496979,
    -0.005013376474380493,
    -0.13487160205841064
   ]
  },
  {
   "children": [
    15
   ],
   "name": "cannon_r",
   "translation": [
    0.00628633052110672,
    -0.06498803198337555,
    -0.21011480689048767
   ]
  },
  {
   "children": [
    16
   ],
   "name": "radius_r",
   "translation": [
    0.004560321569442749,
    0.120001420378685,
    -0.13501358032226562
   ]
  },
  {
   "children": [
    17
   ],
   "name": "humerus_r",
   "translation": [
    -0.05000000074505806,
    -0.15000000596046448,
    -0.24000000953674316
   ]
  },
  {
   "children": [
    18
   ],
   "name": "scapula_r",
   "translation": [
    -0.05000000074505806,
    -0.06499999761581421,
    0.07499998807907104
   ]
  },
  {
   "children": [
    7,
    13,
    19
   ],
   "name": "spine_03",
   "translation": [
    0,
    -0.14000000059604645,
    0.004999995231628418
   ]
  },
  {
   "name": "ribs_l",
   "translation": [
    0.14000000059604645,
    -0.03999999165534973,
    -0.14000004529953003
   ]
  },
  {
   "name": "ribs_r",
   "translation": [
    -0.14000000059604645,
    -0.03999999165534973,
    -0.14000004529953003
   ]
  },
  {
   "children": [
    20,
    21,
    22
   ],
   "name": "spine_02",
   "translation": [
    0,
    -0.14000000059604645,
    0.020000040531158447
   ]
  },
  {
   "children": [
    23
   ],
   "name": "spine_01",
   "translation": [
    0,
    -0.07000000774860382,
    0.009999990463256836
   ]
  },
  {
   "name": "hoof_h_l",
   "translation": [
    0,
    -0.019999980926513672,
    -0.05000000447034836
   ]
  },
  {
   "children": [
    25
   ],
   "name": "pastern_h_l",
   "translation": [
    0,
    -0.02000001072883606,
    -0.1850000023841858
   ]
  },
  {
   "children": [
    26
   ],
   "name": "metatarsus_l",
   "translation": [
    0,
    0.20000000298023224,
    -0.16499999165534973
   ]
  },
  {
   "children": [
    27
   ],
   "name": "tibia_l",
   "translation": [
    0,
    -0.10500000417232513,
    -0.19499999284744263
   ]
  },
  {
   "children": [
    28
   ],
   "name": "femur_l",
   "translation": [
    0.08500000089406967,
    0.10999999940395355,
    -0.06499999761581421
   ]
  },
  {
   "name": "hoof_h_r",
   "translation": [
    0,
    -0.019999980926513672,
    -0.05000000447034836
   ]
  },
  {
   "children": [
    30
   ],
   "name": "pastern_h_r",
   "translation": [
    0,
    -0.02000001072883606,
    -0.1850000023841858
   ]
  },
  {
   "children": [
    31
   ],
   "name": "metatarsus_r",
   "translation": [
    0,
    0.20000000298023224,
    -0.16499999165534973
   ]
  },
  {
   "children": [
    32
   ],
   "name": "tibia_r",
   "translation": [
    0,
    -0.10500000417232513,
    -0.19499999284744263
   ]
  },
  {
   "children": [
    33
   ],
   "name": "femur_r",
   "translation": [
    -0.08500000089406967,
    0.10999999940395355,
    -0.06499999761581421
   ]
  },
  {
   "name": "tail_03",
   "translation": [
    0,
    0.017000019550323486,
    -0.07300001382827759
   ]
  },
  {
   "children": [
    35
   ],
   "name": "tail_02",
   "translation": [
    0,
    0.02499997615814209,
    -0.022000014781951904
   ]
  },
  {
   "children": [
    36
   ],
   "name": "tail_01",
   "translation": [
    0,
    0.3920000195503235,
    -0.039999961853027344
   ]
  },
  {
   "children": [
    24,
    29,
    34,
    37
   ],
   "name": "hips",
   "translation": [
    0,
    0.20000000298023224,
    0.699999988079071
   ]
  },
  {
   "children": [
    38
   ],
   "name": "root",
   "rotation": [
    -0.7071067690849304,
    0,
    0,
    0.7071067690849304
   ]
  },
  {
   "children": [
    39
   ],
   "name": "boar_rig"
  }
 ],
 "animations": [
  {
   "channels": [
    {
     "sampler": 0,
     "target": {
      "node": 39,
      "path": "translation"
     }
    },
    {
     "sampler": 1,
     "target": {
      "node": 39,
      "path": "rotation"
     }
    },
    {
     "sampler": 2,
     "target": {
      "node": 38,
      "path": "translation"
     }
    },
    {
     "sampler": 3,
     "target": {
      "node": 38,
      "path": "rotation"
     }
    },
    {
     "sampler": 4,
     "target": {
      "node": 24,
      "path": "translation"
     }
    },
    {
     "sampler": 5,
     "target": {
      "node": 24,
      "path": "rotation"
     }
    },
    {
     "sampler": 6,
     "target": {
      "node": 23,
      "path": "translation"
     }
    },
    {
     "sampler": 7,
     "target": {
      "node": 23,
      "path": "rotation"
     }
    },
    {
     "sampler": 8,
     "target": {
      "node": 20,
      "path": "translation"
     }
    },
    {
     "sampler": 9,
     "target": {
      "node": 20,
      "path": "rotation"
     }
    },
    {
     "sampler": 10,
     "target": {
      "node": 7,
      "path": "translation"
     }
    },
    {
     "sampler": 11,
     "target": {
      "node": 7,
      "path": "rotation"
     }
    },
    {
     "sampler": 12,
     "target": {
      "node": 6,
      "path": "translation"
     }
    },
    {
     "sampler": 13,
     "target": {
      "node": 6,
      "path": "rotation"
     }
    },
    {
     "sampler": 14,
     "target": {
      "node": 5,
      "path": "translation"
     }
    },
    {
     "sampler": 15,
     "target": {
      "node": 5,
      "path": "rotation"
     }
    },
    {
     "sampler": 16,
     "target": {
      "node": 4,
      "path": "translation"
     }
    },
    {
     "sampler": 17,
     "target": {
      "node": 4,
      "path": "rotation"
     }
    },
    {
     "sampler": 18,
     "target": {
      "node": 0,
      "path": "translation"
     }
    },
    {
     "sampler": 19,
     "target": {
      "node": 0,
      "path": "rotation"
     }
    },
    {
     "sampler": 20,
     "target": {
      "node": 1,
      "path": "translation"
     }
    },
    {
     "sampler": 21,
     "target": {
      "node": 1,
      "path": "rotation"
     }
    },
    {
     "sampler": 22,
     "target": {
      "node": 2,
      "path": "translation"
     }
    },
    {
     "sampler": 23,
     "target": {
      "node": 2,
      "path": "rotation"
     }
    },
    {
     "sampler": 24,
     "target": {
      "node": 3,
      "path": "translation"
     }
    },
    {
     "sampler": 25,
     "target": {
      "node": 3,
      "path": "rotation"
     }
    },
    {
     "sampler": 26,
     "target": {
      "node": 13,
      "path": "translation"
     }
    },
    {
     "sampler": 27,
     "target": {
      "node": 13,
      "path": "rotation"
     }
    },
    {
     "sampler": 28,
     "target": {
      "node": 12,
      "path": "translation"
     }
    },
    {
     "sampler": 29,
     "target": {
      "node": 12,
      "path": "rotation"
     }
    },
    {
     "sampler": 30,
     "target": {
      "node": 11,
      "path": "translation"
     }
    },
    {
     "sampler": 31,
     "target": {
      "node": 11,
      "path": "rotation"
     }
    },
    {
     "sampler": 32,
     "target": {
      "node": 10,
      "path": "translation"
     }
    },
    {
     "sampler": 33,
     "target": {
      "node": 10,
      "path": "rotation"
     }
    },
    {
     "sampler": 34,
     "target": {
      "node": 9,
      "path": "translation"
     }
    },
    {
     "sampler": 35,
     "target": {
      "node": 9,
      "path": "rotation"
     }
    },
    {
     "sampler": 36,
     "target": {
      "node": 8,
      "path": "translation"
     }
    },
    {
     "sampler": 37,
     "target": {
      "node": 8,
      "path": "rotation"
     }
    },
    {
     "sampler": 38,
     "target": {
      "node": 19,
      "path": "translation"
     }
    },
    {
     "sampler": 39,
     "target": {
      "node": 19,
      "path": "rotation"
     }
    },
    {
     "sampler": 40,
     "target": {
      "node": 18,
      "path": "translation"
     }
    },
    {
     "sampler": 41,
     "target": {
      "node": 18,
      "path": "rotation"
     }
    },
    {
     "sampler": 42,
     "target": {
      "node": 17,
      "path": "translation"
     }
    },
    {
     "sampler": 43,
     "target": {
      "node": 17,
      "path": "rotation"
     }
    },
    {
     "sampler": 44,
     "target": {
      "node": 16,
      "path": "translation"
     }
    },
    {
     "sampler": 45,
     "target": {
      "node": 16,
      "path": "rotation"
     }
    },
    {
     "sampler": 46,
     "target": {
      "node": 15,
      "path": "translation"
     }
    },
    {
     "sampler": 47,
     "target": {
      "node": 15,
      "path": "rotation"
     }
    },
    {
     "sampler": 48,
     "target": {
      "node": 14,
      "path": "translation"
     }
    },
    {
     "sampler": 49,
     "target": {
      "node": 14,
      "path": "rotation"
     }
    },
    {
     "sampler": 50,
     "target": {
      "node": 21,
      "path": "translation"
     }
    },
    {
     "sampler": 51,
     "target": {
      "node": 21,
      "path": "rotation"
     }
    },
    {
     "sampler": 52,
     "target": {
      "node": 22,
      "path": "translation"
     }
    },
    {
     "sampler": 53,
     "target": {
      "node": 22,
      "path": "rotation"
     }
    },
    {
     "sampler": 54,
     "target": {
      "node": 29,
      "path": "translation"
     }
    },
    {
     "sampler": 55,
     "target": {
      "node": 29,
      "path": "rotation"
     }
    },
    {
     "sampler": 56,
     "target": {
      "node": 28,
      "path": "translation"
     }
    },
    {
     "sampler": 57,
     "target": {
      "node": 28,
      "path": "rotation"
     }
    },
    {
     "sampler": 58,
     "target": {
      "node": 27,
      "path": "translation"
     }
    },
    {
     "sampler": 59,
     "target": {
      "node": 27,
      "path": "rotation"
     }
    },
    {
     "sampler": 60,
     "target": {
      "node": 26,
      "path": "translation"
     }
    },
    {
     "sampler": 61,
     "target": {
      "node": 26,
      "path": "rotation"
     }
    },
    {
     "sampler": 62,
     "target": {
      "node": 25,
      "path": "translation"
     }
    },
    {
     "sampler": 63,
     "target": {
      "node": 25,
      "path": "rotation"
     }
    },
    {
     "sampler": 64,
     "target": {
      "node": 34,
      "path": "translation"
     }
    },
    {
     "sampler": 65,
     "target": {
      "node": 34,
      "path": "rotation"
     }
    },
    {
     "sampler": 66,
     "target": {
      "node": 33,
      "path": "translation"
     }
    },
    {
     "sampler": 67,
     "target": {
      "node": 33,
      "path": "rotation"
     }
    },
    {
     "sampler": 68,
     "target": {
      "node": 32,
      "path": "translation"
     }
    },
    {
     "sampler": 69,
     "target": {
      "node": 32,
      "path": "rotation"
     }
    },
    {
     "sampler": 70,
     "target": {
      "node": 31,
      "path": "translation"
     }
    },
    {
     "sampler": 71,
     "target": {
      "node": 31,
      "path": "rotation"
     }
    },
    {
     "sampler": 72,
     "target": {
      "node": 30,
      "path": "translation"
     }
    },
    {
     "sampler": 73,
     "target": {
      "node": 30,
      "path": "rotation"
     }
    },
    {
     "sampler": 74,
     "target": {
      "node": 37,
      "path": "translation"
     }
    },
    {
     "sampler": 75,
     "target": {
      "node": 37,
      "path": "rotation"
     }
    },
    {
     "sampler": 76,
     "target": {
      "node": 36,
      "path": "translation"
     }
    },
    {
     "sampler": 77,
     "target": {
      "node": 36,
      "path": "rotation"
     }
    },
    {
     "sampler": 78,
     "target": {
      "node": 35,
      "path": "translation"
     }
    },
    {
     "sampler": 79,
     "target": {
      "node": 35,
      "path": "rotation"
     }
    }
   ],
   "name": "boar_attack",
   "samplers": [
    {
     "input": 0,
     "interpolation": "LINEAR",
     "output": 1
    },
    {
     "input": 0,
     "interpolation": "LINEAR",
     "output": 2
    },
    {
     "input": 0,
     "interpolation": "LINEAR",
     "output": 4
    },
    {
     "input": 0,
     "interpolation": "LINEAR",
     "output": 5
    },
    {
     "input": 0,
     "interpolation": "LINEAR",
     "output": 7
    },
    {
     "input": 0,
     "interpolation": "LINEAR",
     "output": 8
    },
    {
     "input": 0,
     "interpolation": "LINEAR",
     "output": 10
    },
    {
     "input": 0,
     "interpolation": "LINEAR",
     "output": 11
    },
    {
     "input": 0,
     "interpolation": "LINEAR",
     "output": 13
    },
    {
     "input": 0,
     "interpolation": "LINEAR",
     "output": 14
    },
    {
     "input": 0,
     "interpolation": "LINEAR",
     "output": 16
    },
    {
     "input": 0,
     "interpolation": "LINEAR",
     "output": 17
    },
    {
     "input": 0,
     "interpolation": "LINEAR",
     "output": 19
    },
    {
     "input": 0,
     "interpolation": "LINEAR",
     "output": 20
    },
    {
     "input": 0,
     "interpolation": "LINEAR",
     "output": 22
    },
    {
     "input": 0,
     "interpolation": "LINEAR",
     "output": 23
    },
    {
     "input": 0,
     "interpolation": "LINEAR",
     "output": 25
    },
    {
     "input": 0,
     "interpolation": "LINEAR",
     "output": 26
    },
    {
     "input": 0,
     "interpolation": "LINEAR",
     "output": 28
    },
    {
     "input": 0,
     "interpolation": "LINEAR",
     "output": 29
    },
    {
     "input": 0,
     "interpolation": "LINEAR",
     "output": 31
    },
    {
     "input": 0,
     "interpolation": "LINEAR",
     "output": 32
    },
    {
     "input": 0,
     "interpolation": "LINEAR",
     "output": 34
    },
    {
     "input": 0,
     "interpolation": "LINEAR",
     "output": 35
    },
    {
     "input": 0,
     "interpolation": "LINEAR",
     "output": 37
    },
    {
     "input": 0,
     "interpolation": "LINEAR",
     "output": 38
    },
    {
     "input": 0,
     "interpolation": "LINEAR",
     "output": 40
    },
    {
     "input": 0,
     "interpolation": "LINEAR",
     "output": 41
    },
    {
     "input": 0,
     "interpolation": "LINEAR",
     "output": 43
    },
    {
     "input": 0,
     "interpolation": "LINEAR",
     "output": 44
    },
    {
     "input": 0,
     "interpolation": "LINEAR",
     "output": 46
    },
    {
     "input": 0,
     "interpolation": "LINEAR",
     "output": 47
    },
    {
     "input": 0,
     "interpolation": "LINEAR",
     "output": 49
    },
    {
     "input": 0,
     "interpolation": "LINEAR",
     "output": 50
    },
    {
     "input": 0,
     "interpolation": "LINEAR",
     "output": 52
    },
    {
     "input": 0,
     "interpolation": "LINEAR",
     "output": 53
    },
    {
     "input": 0,
     "interpolation": "LINEAR",
     "output": 55
    },
    {
     "input": 0,
     "interpolation": "LINEAR",
     "output": 56
    },
    {
     "input": 0,
     "interpolation": "LINEAR",
     "output": 58
    },
    {
     "input": 0,
     "interpolation": "LINEAR",
     "output": 59
    },
    {
     "input": 0,
     "interpolation": "LINEAR",
     "output": 60
    },
    {
     "input": 0,
     "interpolation": "LINEAR",
     "output": 61
    },
    {
     "input": 0,
     "interpolation": "LINEAR",
     "output": 62
    },
    {
     "input": 0,
     "interpolation": "LINEAR",
     "output": 63
    },
    {
     "input": 0,
     "interpolation": "LINEAR",
     "output": 64
    },
    {
     "input": 0,
     "interpolation": "LINEAR",
     "output": 65
    },
    {
     "input": 0,
     "interpolation": "LINEAR",
     "output": 66
    },
    {
     "input": 0,
     "interpolation": "LINEAR",
     "output": 67
    },
    {
     "input": 0,
     "interpolation": "LINEAR",
     "output": 68
    },
    {
     "input": 0,
     "interpolation": "LINEAR",
     "output": 69
    },
    {
     "input": 0,
     "interpolation": "LINEAR",
     "output": 70
    },
    {
     "input": 0,
     "interpolation": "LINEAR",
     "output": 71
    },
    {
     "input": 0,
     "interpolation": "LINEAR",
     "output": 73
    },
    {
     "input": 0,
     "interpolation": "LINEAR",
     "output": 71
    },
    {
     "input": 0,
     "interpolation": "LINEAR",
     "output": 74
    },
    {
     "input": 0,
     "interpolation": "LINEAR",
     "output": 75
    },
    {
     "input": 0,
     "interpolation": "LINEAR",
     "output": 77
    },
    {
     "input": 0,
     "interpolation": "LINEAR",
     "output": 78
    },
    {
     "input": 0,
     "interpolation": "LINEAR",
     "output": 80
    },
    {
     "input": 0,
     "interpolation": "LINEAR",
     "output": 81
    },
    {
     "input": 0,
     "interpolation": "LINEAR",
     "output": 83
    },
    {
     "input": 0,
     "interpolation": "LINEAR",
     "output": 84
    },
    {
     "input": 0,
     "interpolation": "LINEAR",
     "output": 86
    },
    {
     "input": 0,
     "interpolation": "LINEAR",
     "output": 87
    },
    {
     "input": 0,
     "interpolation": "LINEAR",
     "output": 88
    },
    {
     "input": 0,
     "interpolation": "LINEAR",
     "output": 75
    },
    {
     "input": 0,
     "interpolation": "LINEAR",
     "output": 89
    },
    {
     "input": 0,
     "interpolation": "LINEAR",
     "output": 78
    },
    {
     "input": 0,
     "interpolation": "LINEAR",
     "output": 90
    },
    {
     "input": 0,
     "interpolation": "LINEAR",
     "output": 81
    },
    {
     "input": 0,
     "interpolation": "LINEAR",
     "output": 91
    },
    {
     "input": 0,
     "interpolation": "LINEAR",
     "output": 84
    },
    {
     "input": 0,
     "interpolation": "LINEAR",
     "output": 92
    },
    {
     "input": 0,
     "interpolation": "LINEAR",
     "output": 87
    },
    {
     "input": 0,
     "interpolation": "LINEAR",
     "output": 93
    },
    {
     "input": 0,
     "interpolation": "LINEAR",
     "output": 94
    },
    {
     "input": 0,
     "interpolation": "LINEAR",
     "output": 96
    },
    {
     "input": 0,
     "interpolation": "LINEAR",
     "output": 97
    },
    {
     "input": 0,
     "interpolation": "LINEAR",
     "output": 99
    },
    {
     "input": 0,
     "interpolation": "LINEAR",
     "output": 100
    }
   ]
  }
 ],
 "skins": [
  {
   "inverseBindMatrices": 102,
   "joints": [
    39,
    38,
    24,
    23,
    20,
    7,
    6,
    5,
    4,
    0,
    1,
    2,
    3,
    13,
    12,
    11,
    10,
    9,
    8,
    19,
    18,
    17,
    16,
    15,
    14,
    21,
    22,
    29,
    28,
    27,
    26,
    25,
    34,
    33,
    32,
    31,
    30,
    37,
    36,
    35
   ],
   "name": "boar_rig"
  }
 ],
 "accessors": [
  {
   "bufferView": 0,
   "componentType": 5126,
   "count": 25,
   "max": [
    0.8
   ],
   "min": [
    0
   ],
   "type": "SCALAR"
  },
  {
   "bufferView": 1,
   "componentType": 5126,
   "count": 25,
   "type": "VEC3"
  },
  {
   "bufferView": 2,
   "componentType": 5126,
   "count": 25,
   "type": "VEC4"
  },
  {
   "bufferView": 3,
   "componentType": 5126,
   "count": 25,
   "type": "VEC3"
  },
  {
   "bufferView": 4,
   "componentType": 5126,
   "count": 25,
   "type": "VEC3"
  },
  {
   "bufferView": 5,
   "componentType": 5126,
   "count": 25,
   "type": "VEC4"
  },
  {
   "bufferView": 6,
   "componentType": 5126,
   "count": 25,
   "type": "VEC3"
  },
  {
   "bufferView": 7,
   "componentType": 5126,
   "count": 25,
   "type": "VEC3"
  },
  {
   "bufferView": 8,
   "componentType": 5126,
   "count": 25,
   "type": "VEC4"
  },
  {
   "bufferView": 9,
   "componentType": 5126,
   "count": 25,
   "type": "VEC3"
  },
  {
   "bufferView": 10,
   "componentType": 5126,
   "count": 25,
   "type": "VEC3"
  },
  {
   "bufferView": 11,
   "componentType": 5126,
   "count": 25,
   "type": "VEC4"
  },
  {
   "bufferView": 12,
   "componentType": 5126,
   "count": 25,
   "type": "VEC3"
  },
  {
   "bufferView": 13,
   "componentType": 5126,
   "count": 25,
   "type": "VEC3"
  },
  {
   "bufferView": 14,
   "componentType": 5126,
   "count": 25,
   "type": "VEC4"
  },
  {
   "bufferView": 15,
   "componentType": 5126,
   "count": 25,
   "type": "VEC3"
  },
  {
   "bufferView": 16,
   "componentType": 5126,
   "count": 25,
   "type": "VEC3"
  },
  {
   "bufferView": 17,
   "componentType": 5126,
   "count": 25,
   "type": "VEC4"
  },
  {
   "bufferView": 18,
   "componentType": 5126,
   "count": 25,
   "type": "VEC3"
  },
  {
   "bufferView": 19,
   "componentType": 5126,
   "count": 25,
   "type": "VEC3"
  },
  {
   "bufferView": 20,
   "componentType": 5126,
   "count": 25,
   "type": "VEC4"
  },
  {
   "bufferView": 21,
   "componentType": 5126,
   "count": 25,
   "type": "VEC3"
  },
  {
   "bufferView": 22,
   "componentType": 5126,
   "count": 25,
   "type": "VEC3"
  },
  {
   "bufferView": 23,
   "componentType": 5126,
   "count": 25,
   "type": "VEC4"
  },
  {
   "bufferView": 24,
   "componentType": 5126,
   "count": 25,
   "type": "VEC3"
  },
  {
   "bufferView": 25,
   "componentType": 5126,
   "count": 25,
   "type": "VEC3"
  },
  {
   "bufferView": 26,
   "componentType": 5126,
   "count": 25,
   "type": "VEC4"
  },
  {
   "bufferView": 27,
   "componentType": 5126,
   "count": 25,
   "type": "VEC3"
  },
  {
   "bufferView": 28,
   "componentType": 5126,
   "count": 25,
   "type": "VEC3"
  },
  {
   "bufferView": 29,
   "componentType": 5126,
   "count": 25,
   "type": "VEC4"
  },
  {
   "bufferView": 30,
   "componentType": 5126,
   "count": 25,
   "type": "VEC3"
  },
  {
   "bufferView": 31,
   "componentType": 5126,
   "count": 25,
   "type": "VEC3"
  },
  {
   "bufferView": 32,
   "componentType": 5126,
   "count": 25,
   "type": "VEC4"
  },
  {
   "bufferView": 33,
   "componentType": 5126,
   "count": 25,
   "type": "VEC3"
  },
  {
   "bufferView": 34,
   "componentType": 5126,
   "count": 25,
   "type": "VEC3"
  },
  {
   "bufferView": 35,
   "componentType": 5126,
   "count": 25,
   "type": "VEC4"
  },
  {
   "bufferView": 36,
   "componentType": 5126,
   "count": 25,
   "type": "VEC3"
  },
  {
   "bufferView": 37,
   "componentType": 5126,
   "count": 25,
   "type": "VEC3"
  },
  {
   "bufferView": 38,
   "componentType": 5126,
   "count": 25,
   "type": "VEC4"
  },
  {
   "bufferView": 39,
   "componentType": 5126,
   "count": 25,
   "type": "VEC3"
  },
  {
   "bufferView": 40,
   "componentType": 5126,
   "count": 25,
   "type": "VEC3"
  },
  {
   "bufferView": 41,
   "componentType": 5126,
   "count": 25,
   "type": "VEC4"
  },
  {
   "bufferView": 42,
   "componentType": 5126,
   "count": 25,
   "type": "VEC3"
  },
  {
   "bufferView": 43,
   "componentType": 5126,
   "count": 25,
   "type": "VEC3"
  },
  {
   "bufferView": 44,
   "componentType": 5126,
   "count": 25,
   "type": "VEC4"
  },
  {
   "bufferView": 45,
   "componentType": 5126,
   "count": 25,
   "type": "VEC3"
  },
  {
   "bufferView": 46,
   "componentType": 5126,
   "count": 25,
   "type": "VEC3"
  },
  {
   "bufferView": 47,
   "componentType": 5126,
   "count": 25,
   "type": "VEC4"
  },
  {
   "bufferView": 48,
   "componentType": 5126,
   "count": 25,
   "type": "VEC3"
  },
  {
   "bufferView": 49,
   "componentType": 5126,
   "count": 25,
   "type": "VEC3"
  },
  {
   "bufferView": 50,
   "componentType": 5126,
   "count": 25,
   "type": "VEC4"
  },
  {
   "bufferView": 51,
   "componentType": 5126,
   "count": 25,
   "type": "VEC3"
  },
  {
   "bufferView": 52,
   "componentType": 5126,
   "count": 25,
   "type": "VEC3"
  },
  {
   "bufferView": 53,
   "componentType": 5126,
   "count": 25,
   "type": "VEC4"
  },
  {
   "bufferView": 54,
   "componentType": 5126,
   "count": 25,
   "type": "VEC3"
  },
  {
   "bufferView": 55,
   "componentType": 5126,
   "count": 25,
   "type": "VEC3"
  },
  {
   "bufferView": 56,
   "componentType": 5126,
   "count": 25,
   "type": "VEC4"
  },
  {
   "bufferView": 57,
   "componentType": 5126,
   "count": 25,
   "type": "VEC3"
  },
  {
   "bufferView": 58,
   "componentType": 5126,
   "count": 25,
   "type": "VEC3"
  },
  {
   "bufferView": 59,
   "componentType": 5126,
   "count": 25,
   "type": "VEC4"
  },
  {
   "bufferView": 60,
   "componentType": 5126,
   "count": 25,
   "type": "VEC3"
  },
  {
   "bufferView": 61,
   "componentType": 5126,
   "count": 25,
   "type": "VEC4"
  },
  {
   "bufferView": 62,
   "componentType": 5126,
   "count": 25,
   "type": "VEC3"
  },
  {
   "bufferView": 63,
   "componentType": 5126,
   "count": 25,
   "type": "VEC4"
  },
  {
   "bufferView": 64,
   "componentType": 5126,
   "count": 25,
   "type": "VEC3"
  },
  {
   "bufferView": 65,
   "componentType": 5126,
   "count": 25,
   "type": "VEC4"
  },
  {
   "bufferView": 66,
   "componentType": 5126,
   "count": 25,
   "type": "VEC3"
  },
  {
   "bufferView": 67,
   "componentType": 5126,
   "count": 25,
   "type": "VEC4"
  },
  {
   "bufferView": 68,
   "componentType": 5126,
   "count": 25,
   "type": "VEC3"
  },
  {
   "bufferView": 69,
   "componentType": 5126,
   "count": 25,
   "type": "VEC4"
  },
  {
   "bufferView": 70,
   "componentType": 5126,
   "count": 25,
   "type": "VEC3"
  },
  {
   "bufferView": 71,
   "componentType": 5126,
   "count": 25,
   "type": "VEC4"
  },
  {
   "bufferView": 72,
   "componentType": 5126,
   "count": 25,
   "type": "VEC3"
  },
  {
   "bufferView": 73,
   "componentType": 5126,
   "count": 25,
   "type": "VEC3"
  },
  {
   "bufferView": 74,
   "componentType": 5126,
   "count": 25,
   "type": "VEC3"
  },
  {
   "bufferView": 75,
   "componentType": 5126,
   "count": 25,
   "type": "VEC4"
  },
  {
   "bufferView": 76,
   "componentType": 5126,
   "count": 25,
   "type": "VEC3"
  },
  {
   "bufferView": 77,
   "componentType": 5126,
   "count": 25,
   "type": "VEC3"
  },
  {
   "bufferView": 78,
   "componentType": 5126,
   "count": 25,
   "type": "VEC4"
  },
  {
   "bufferView": 79,
   "componentType": 5126,
   "count": 25,
   "type": "VEC3"
  },
  {
   "bufferView": 80,
   "componentType": 5126,
   "count": 25,
   "type": "VEC3"
  },
  {
   "bufferView": 81,
   "componentType": 5126,
   "count": 25,
   "type": "VEC4"
  },
  {
   "bufferView": 82,
   "componentType": 5126,
   "count": 25,
   "type": "VEC3"
  },
  {
   "bufferView": 83,
   "componentType": 5126,
   "count": 25,
   "type": "VEC3"
  },
  {
   "bufferView": 84,
   "componentType": 5126,
   "count": 25,
   "type": "VEC4"
  },
  {
   "bufferView": 85,
   "componentType": 5126,
   "count": 25,
   "type": "VEC3"
  },
  {
   "bufferView": 86,
   "componentType": 5126,
   "count": 25,
   "type": "VEC3"
  },
  {
   "bufferView": 87,
   "componentType": 5126,
   "count": 25,
   "type": "VEC4"
  },
  {
   "bufferView": 88,
   "componentType": 5126,
   "count": 25,
   "type": "VEC3"
  },
  {
   "bufferView": 89,
   "componentType": 5126,
   "count": 25,
   "type": "VEC3"
  },
  {
   "bufferView": 90,
   "componentType": 5126,
   "count": 25,
   "type": "VEC3"
  },
  {
   "bufferView": 91,
   "componentType": 5126,
   "count": 25,
   "type": "VEC3"
  },
  {
   "bufferView": 92,
   "componentType": 5126,
   "count": 25,
   "type": "VEC3"
  },
  {
   "bufferView": 93,
   "componentType": 5126,
   "count": 25,
   "type": "VEC3"
  },
  {
   "bufferView": 94,
   "componentType": 5126,
   "count": 25,
   "type": "VEC4"
  },
  {
   "bufferView": 95,
   "componentType": 5126,
   "count": 25,
   "type": "VEC3"
  },
  {
   "bufferView": 96,
   "componentType": 5126,
   "count": 25,
   "type": "VEC3"
  },
  {
   "bufferView": 97,
   "componentType": 5126,
   "count": 25,
   "type": "VEC4"
  },
  {
   "bufferView": 98,
   "componentType": 5126,
   "count": 25,
   "type": "VEC3"
  },
  {
   "bufferView": 99,
   "componentType": 5126,
   "count": 25,
   "type": "VEC3"
  },
  {
   "bufferView": 100,
   "componentType": 5126,
   "count": 25,
   "type": "VEC4"
  },
  {
   "bufferView": 101,
   "componentType": 5126,
   "count": 25,
   "type": "VEC3"
  },
  {
   "bufferView": 102,
   "componentType": 5126,
   "count": 40,
   "type": "MAT4"
  }
 ],
 "bufferViews": [
  {
   "buffer": 0,
   "byteLength": 100,
   "byteOffset": 0
  },
  {
   "buffer": 0,
   "byteLength": 300,
   "byteOffset": 100
  },
  {
   "buffer": 0,
   "byteLength": 400,
   "byteOffset": 400
  },
  {
   "buffer": 0,
   "byteLength": 300,
   "byteOffset": 800
  },
  {
   "buffer": 0,
   "byteLength": 300,
   "byteOffset": 1100
  },
  {
   "buffer": 0,
   "byteLength": 400,
   "byteOffset": 1400
  },
  {
   "buffer": 0,
   "byteLength": 300,
   "byteOffset": 1800
  },
  {
   "buffer": 0,
   "byteLength": 300,
   "byteOffset": 2100
  },
  {
   "buffer": 0,
   "byteLength": 400,
   "byteOffset": 2400
  },
  {
   "buffer": 0,
   "byteLength": 300,
   "byteOffset": 2800
  },
  {
   "buffer": 0,
   "byteLength": 300,
   "byteOffset": 3100
  },
  {
   "buffer": 0,
   "byteLength": 400,
   "byteOffset": 3400
  },
  {
   "buffer": 0,
   "byteLength": 300,
   "byteOffset": 3800
  },
  {
   "buffer": 0,
   "byteLength": 300,
   "byteOffset": 4100
  },
  {
   "buffer": 0,
   "byteLength": 400,
   "byteOffset": 4400
  },
  {
   "buffer": 0,
   "byteLength": 300,
   "byteOffset": 4800
  },
  {
   "buffer": 0,
   "byteLength": 300,
   "byteOffset": 5100
  },
  {
   "buffer": 0,
   "byteLength": 400,
   "byteOffset": 5400
  },
  {
   "buffer": 0,
   "byteLength": 300,
   "byteOffset": 5800
  },
  {
   "buffer": 0,
   "byteLength": 300,
   "byteOffset": 6100
  },
  {
   "buffer": 0,
   "byteLength": 400,
   "byteOffset": 6400
  },
  {
   "buffer": 0,
   "byteLength": 300,
   "byteOffset": 6800
  },
  {
   "buffer": 0,
   "byteLength": 300,
   "byteOffset": 7100
  },
  {
   "buffer": 0,
   "byteLength": 400,
   "byteOffset": 7400
  },
  {
   "buffer": 0,
   "byteLength": 300,
   "byteOffset": 7800
  },
  {
   "buffer": 0,
   "byteLength": 300,
   "byteOffset": 8100
  },
  {
   "buffer": 0,
   "byteLength": 400,
   "byteOffset": 8400
  },
  {
   "buffer": 0,
   "byteLength": 300,
   "byteOffset": 8800
  },
  {
   "buffer": 0,
   "byteLength": 300,
   "byteOffset": 9100
  },
  {
   "buffer": 0,
   "byteLength": 400,
   "byteOffset": 9400
  },
  {
   "buffer": 0,
   "byteLength": 300,
   "byteOffset": 9800
  },
  {
   "buffer": 0,
   "byteLength": 300,
   "byteOffset": 10100
  },
  {
   "buffer": 0,
   "byteLength": 400,
   "byteOffset": 10400
  },
  {
   "buffer": 0,
   "byteLength": 300,
   "byteOffset": 10800
  },
  {
   "buffer": 0,
   "byteLength": 300,
   "byteOffset": 11100
  },
  {
   "buffer": 0,
   "byteLength": 400,
   "byteOffset": 11400
  },
  {
   "buffer": 0,
   "byteLength": 300,
   "byteOffset": 11800
  },
  {
   "buffer": 0,
   "byteLength": 300,
   "byteOffset": 12100
  },
  {
   "buffer": 0,
   "byteLength": 400,
   "byteOffset": 12400
  },
  {
   "buffer": 0,
   "byteLength": 300,
   "byteOffset": 12800
  },
  {
   "buffer": 0,
   "byteLength": 300,
   "byteOffset": 13100
  },
  {
   "buffer": 0,
   "byteLength": 400,
   "byteOffset": 13400
  },
  {
   "buffer": 0,
   "byteLength": 300,
   "byteOffset": 13800
  },
  {
   "buffer": 0,
   "byteLength": 300,
   "byteOffset": 14100
  },
  {
   "buffer": 0,
   "byteLength": 400,
   "byteOffset": 14400
  },
  {
   "buffer": 0,
   "byteLength": 300,
   "byteOffset": 14800
  },
  {
   "buffer": 0,
   "byteLength": 300,
   "byteOffset": 15100
  },
  {
   "buffer": 0,
   "byteLength": 400,
   "byteOffset": 15400
  },
  {
   "buffer": 0,
   "byteLength": 300,
   "byteOffset": 15800
  },
  {
   "buffer": 0,
   "byteLength": 300,
   "byteOffset": 16100
  },
  {
   "buffer": 0,
   "byteLength": 400,
   "byteOffset": 16400
  },
  {
   "buffer": 0,
   "byteLength": 300,
   "byteOffset": 16800
  },
  {
   "buffer": 0,
   "byteLength": 300,
   "byteOffset": 17100
  },
  {
   "buffer": 0,
   "byteLength": 400,
   "byteOffset": 17400
  },
  {
   "buffer": 0,
   "byteLength": 300,
   "byteOffset": 17800
  },
  {
   "buffer": 0,
   "byteLength": 300,
   "byteOffset": 18100
  },
  {
   "buffer": 0,
   "byteLength": 400,
   "byteOffset": 18400
  },
  {
   "buffer": 0,
   "byteLength": 300,
   "byteOffset": 18800
  },
  {
   "buffer": 0,
   "byteLength": 300,
   "byteOffset": 19100
  },
  {
   "buffer": 0,
   "byteLength": 400,
   "byteOffset": 19400
  },
  {
   "buffer": 0,
   "byteLength": 300,
   "byteOffset": 19800
  },
  {
   "buffer": 0,
   "byteLength": 400,
   "byteOffset": 20100
  },
  {
   "buffer": 0,
   "byteLength": 300,
   "byteOffset": 20500
  },
  {
   "buffer": 0,
   "byteLength": 400,
   "byteOffset": 20800
  },
  {
   "buffer": 0,
   "byteLength": 300,
   "byteOffset": 21200
  },
  {
   "buffer": 0,
   "byteLength": 400,
   "byteOffset": 21500
  },
  {
   "buffer": 0,
   "byteLength": 300,
   "byteOffset": 21900
  },
  {
   "buffer": 0,
   "byteLength": 400,
   "byteOffset": 22200
  },
  {
   "buffer": 0,
   "byteLength": 300,
   "byteOffset": 22600
  },
  {
   "buffer": 0,
   "byteLength": 400,
   "byteOffset": 22900
  },
  {
   "buffer": 0,
   "byteLength": 300,
   "byteOffset": 23300
  },
  {
   "buffer": 0,
   "byteLength": 400,
   "byteOffset": 23600
  },
  {
   "buffer": 0,
   "byteLength": 300,
   "byteOffset": 24000
  },
  {
   "buffer": 0,
   "byteLength": 300,
   "byteOffset": 24300
  },
  {
   "buffer": 0,
   "byteLength": 300,
   "byteOffset": 24600
  },
  {
   "buffer": 0,
   "byteLength": 400,
   "byteOffset": 24900
  },
  {
   "buffer": 0,
   "byteLength": 300,
   "byteOffset": 25300
  },
  {
   "buffer": 0,
   "byteLength": 300,
   "byteOffset": 25600
  },
  {
   "buffer": 0,
   "byteLength": 400,
   "byteOffset": 25900
  },
  {
   "buffer": 0,
   "byteLength": 300,
   "byteOffset": 26300
  },
  {
   "buffer": 0,
   "byteLength": 300,
   "byteOffset": 26600
  },
  {
   "buffer": 0,
   "byteLength": 400,
   "byteOffset": 26900
  },
  {
   "buffer": 0,
   "byteLength": 300,
   "byteOffset": 27300
  },
  {
   "buffer": 0,
   "byteLength": 300,
   "byteOffset": 27600
  },
  {
   "buffer": 0,
   "byteLength": 400,
   "byteOffset": 27900
  },
  {
   "buffer": 0,
   "byteLength": 300,
   "byteOffset": 28300
  },
  {
   "buffer": 0,
   "byteLength": 300,
   "byteOffset": 28600
  },
  {
   "buffer": 0,
   "byteLength": 400,
   "byteOffset": 28900
  },
  {
   "buffer": 0,
   "byteLength": 300,
   "byteOffset": 29300
  },
  {
   "buffer": 0,
   "byteLength": 300,
   "byteOffset": 29600
  },
  {
   "buffer": 0,
   "byteLength": 300,
   "byteOffset": 29900
  },
  {
   "buffer": 0,
   "byteLength": 300,
   "byteOffset": 30200
  },
  {
   "buffer": 0,
   "byteLength": 300,
   "byteOffset": 30500
  },
  {
   "buffer": 0,
   "byteLength": 300,
   "byteOffset": 30800
  },
  {
   "buffer": 0,
   "byteLength": 400,
   "byteOffset": 31100
  },
  {
   "buffer": 0,
   "byteLength": 300,
   "byteOffset": 31500
  },
  {
   "buffer": 0,
   "byteLength": 300,
   "byteOffset": 31800
  },
  {
   "buffer": 0,
   "byteLength": 400,
   "byteOffset": 32100
  },
  {
   "buffer": 0,
   "byteLength": 300,
   "byteOffset": 32500
  },
  {
   "buffer": 0,
   "byteLength": 300,
   "byteOffset": 32800
  },
  {
   "buffer": 0,
   "byteLength": 400,
   "byteOffset": 33100
  },
  {
   "buffer": 0,
   "byteLength": 300,
   "byteOffset": 33500
  },
  {
   "buffer": 0,
   "byteLength": 2560,
   "byteOffset": 33800
  }
 ],
 "buffers": [
  {
   "byteLength": 36360,
   "uri": "boar_attack.bin"
  }
 ]
}