{
 "asset": {
  "generator": "Khronos glTF Blender I/O v4.5.51",
  "version": "2.0"
 },
 "scene": 0,
 "scenes": [
  {
   "name": "Scene",
   "nodes": [
    40
   ]
  }
 ],
 "nodes": [
  {
   "name": "jaw",
   "translation": [
    0,
    -0.020153939723968506,
    -0.052856624126434326
   ]
  },
  {
   "name": "ear_l",
   "translation": [
    0.08038433641195297,
    -0.05754154920578003,
    0.07261496782302856
   ]
  },
  {
   "name": "ear_r",
   "translation": [
    -0.08038433641195297,
    -0.05754154920578003,
    0.07261496782302856
   ]
  },
  {
   "name": "snout",
   "translation": [
    0,
    -0.33767372369766235,
    -0.1512497067451477
   ]
  },
  {
   "children": [
    0,
    1,
    2,
    3
   ],
   "name": "head",
   "translation": [
    0,
    -0.048318952322006226,
    -0.005361616611480713
   ]
  },
  {
   "children": [
    4
   ],
   "name": "neck_03",
   "translation": [
    0,
    -0.05476146936416626,
    -0.006076455116271973
   ]
  },
  {
   "children": [
    5
   ],
   "name": "neck_02",
   "translation": [
    0,
    -0.05798271298408508,
    -0.006433963775634766
   ]
  },
  {
   "children": [
    6
   ],
   "name": "neck_01",
   "translation": [
    0,
    -0.1599999964237213,
    -0.07499998807907104
   ]
  },
  {
   "name": "hoof_f_l",
   "translation": [
    0,
    -0.02000001072883606,
    -0.05000000447034836
   ]
  },
  {
   "children": [
    8
   ],
   "name": "pastern_f_l",
   "translation": [
    -0.004153348505496979,
    -0.005013376474380493,
    -0.13487160205841064
   ]
  },
  {
   "children": [
    9
   ],
   "name": "cannon_l",
   "translation": [
    -0.00628633052110672,
    -0.06498803198337555,
    -0.21011480689048767
   ]
  },
  {
   "children": [
    10
   ],
   "name": "radius_l",
   "translation": [
    -0.004560321569442749,
    0.120001420378685,
    -0.13501358032226562
   ]
  },
  {
   "children": [
    11
   ],
   "name": "humerus_l",
   "translation": [
    0.05000000074505806,
    -0.15000000596046448,
    -0.24000000953674316
   ]
  },
  {
   "children": [
    12
   ],
   "name": "scapula_l",
   "translation": [
    0.05000000074505806,
    -0.06499999761581421,
    0.07499998807907104
   ]
  },
  {
   "name": "hoof_f_r",
   "translation": [
    0,
    -0.02000001072883606,
    -0.05000000447034836
   ]
  },
  {
   "children": [
    14
   ],
   "name": "pastern_f_r",
   "translation": [
    0.004153348505496979,
    -0.005013376474380493,
    -0.13487160205841064
   ]
  },
  {
   "children": [
    15
   ],
   "name": "cannon_r",
   "translation": [
    0.00628633052110672,
    -0.06498803198337555,
    -0.21011480689048767
   ]
  },
  {
   "children": [
    16
   ],
   "name": "radius_r",
   "translation": [
    0.004560321569442749,
    0.120001420378685,
    -0.13501358032226562
   ]
  },
  {
   "children": [
    17
   ],
   "name": "humerus_r",
   "translation": [
    -0.05000000074505806,
    -0.15000000596046448,
    -0.24000000953674316
   ]
  },
  {
   "children": [
    18
   ],
   "name": "scapula_r",
   "translation": [
    -0.05000000074505806,
    -0.06499999761581421,
    0.07499998807907104
   ]
  },
  {
   "children": [
    7,
    13,
    19
   ],
   "name": "spine_03",
   "translation": [
    0,
    -0.14000000059604645,
    0.004999995231628418
   ]
  },
  {
   "name": "ribs_l",
   "translation": [
    0.14000000059604645,
    -0.03999999165534973,
    -0.14000004529953003
   ]
  },
  {
   "name": "ribs_r",
   "translation": [
    -0.14000000059604645,
    -0.03999999165534973,
    -0.14000004529953003
   ]
  },
  {
   "children": [
    20,
    21,
    22
   ],
   "name": "spine_02",
   "translation": [
    0,
    -0.14000000059604645,
    0.020000040531158447
   ]
  },
  {
   "children": [
    23
   ],
   "name": "spine_01",
   "translation": [
    0,
    -0.07000000774860382,
    0.009999990463256836
   ]
  },
  {
   "name": "hoof_h_l",
   "translation": [
    0,
    -0.019999980926513672,
    -0.05000000447034836
   ]
  },
  {
   "children": [
    25
   ],
   "name": "pastern_h_l",
   "translation": [
    0,
    -0.02000001072883606,
    -0.1850000023841858
   ]
  },
  {
   "children": [
    26
   ],
   "name": "metatarsus_l",
   "translation": [
    0,
    0.20000000298023224,
    -0.16499999165534973
   ]
  },
  {
   "children": [
    27
   ],
   "name": "tibia_l",
   "translation": [
    0,
    -0.10500000417232513,
    -0.19499999284744263
   ]
  },
  {
   "children": [
    28
   ],
   "name": "femur_l",
   "translation": [
    0.08500000089406967,
    0.10999999940395355,
    -0.06499999761581421
   ]
  },
  {
   "name": "hoof_h_r",
   "translation": [
    0,
    -0.019999980926513672,
    -0.05000000447034836
   ]
  },
  {
   "children": [
    30
   ],
   "name": "pastern_h_r",
   "translation": [
    0,
    -0.02000001072883606,
    -0.1850000023841858
   ]
  },
  {
   "children": [
    31
   ],
   "name": "metatarsus_r",
   "translation": [
    0,
    0.20000000298023224,
    -0.16499999165534973
   ]
  },
  {
   "children": [
    32
   ],
   "name": "tibia_r",
   "translation": [
    0,
    -0.10500000417232513,
    -0.19499999284744263
   ]
  },
  {
   "children": [
    33
   ],
   "name": "femur_r",
   "translation": [
    -0.08500000089406967,
    0.10999999940395355,
    -0.06499999761581421
   ]
  },
  {
   "name": "tail_03",
   "translation": [
    0,
    0.017000019550323486,
    -0.07300001382827759
   ]
  },
  {
   "children": [
    35
   ],
   "name": "tail_02",
   "translation": [
    0,
    0.02499997615814209,
    -0.022000014781951904
   ]
  },
  {
   "children": [
    36
   ],
   "name": "tail_01",
   "translation": [
    0,
    0.3920000195503235,
    -0.039999961853027344
   ]
  },
  {
   "children": [
    24,
    29,
    34,
    37
   ],
   "name": "hips",
   "translation": [
    0,
    0.20000000298023224,
    0.699999988079071
   ]
  },
  {
   "children": [
    38
   ],
   "name": "root",
   "rotation": [
    -0.7071067690849304,
    0,
    0,
    0.7071067690849304
   ]
  },
  {
   "children": [
    39
   ],
   "name": "boar_rig"
  }
 ],
 "animations": [
  {
   "channels": [
    {
     "sampler": 0,
     "target": {
      "node": 39,
      "path": "translation"
     }
    },
    {
     "sampler": 1,
     "target": {
      "node": 39,
      "path": "rotation"
     }
    },
    {
     "sampler": 2,
     "target": {
      "node": 38,
      "path": "translation"
     }
    },
    {
     "sampler": 3,
     "target": {
      "node": 38,
      "path": "rotation"
     }
    },
    {
     "sampler": 4,
     "target": {
      "node": 24,
      "path": "translation"
     }
    },
    {
     "sampler": 5,
     "target": {
      "node": 24,
      "path": "rotation"
     }
    },
    {
     "sampler": 6,
     "target": {
      "node": 23,
      "path": "translation"
     }
    },
    {
     "sampler": 7,
     "target": {
      "node": 23,
      "path": "rotation"
     }
    },
    {
     "sampler": 8,
     "target": {
      "node": 20,
      "path": "translation"
     }
    },
    {
     "sampler": 9,
     "target": {
      "node": 20,
      "path": "rotation"
     }
    },
    {
     "sampler": 10,
     "target": {
      "node": 7,
      "path": "translation"
     }
    },
    {
     "sampler": 11,
     "target": {
      "node": 7,
      "path": "rotation"
     }
    },
    {
     "sampler": 12,
     "target": {
      "node": 6,
      "path": "translation"
     }
    },
    {
     "sampler": 13,
     "target": {
      "node": 6,
      "path": "rotation"
     }
    },
    {
     "sampler": 14,
     "target": {
      "node": 5,
      "path": "translation"
     }
    },
    {
     "sampler": 15,
     "target": {
      "node": 5,
      "path": "rotation"
     }
    },
    {
     "sampler": 16,
     "target": {
      "node": 4,
      "path": "translation"
     }
    },
    {
     "sampler": 17,
     "target": {
      "node": 4,
      "path": "rotation"
     }
    },
    {
     "sampler": 18,
     "target": {
      "node": 0,
      "path": "translation"
     }
    },
    {
     "sampler": 19,
     "target": {
      "node": 0,
      "path": "rotation"
     }
    },
    {
     "sampler": 20,
     "target": {
      "node": 1,
      "path": "translation"
     }
    },
    {
     "sampler": 21,
     "target": {
      "node": 1,
      "path": "rotation"
     }
    },
    {
     "sampler": 22,
     "target": {
      "node": 2,
      "path": "translation"
     }
    },
    {
     "sampler": 23,
     "target": {
      "node": 2,
      "path": "rotation"
     }
    },
    {
     "sampler": 24,
     "target": {
      "node": 3,
      "path": "translation"
     }
    },
    {
     "sampler": 25,
     "target": {
      "node": 3,
      "path": "rotation"
     }
    },
    {
     "sampler": 26,
     "target": {
      "node": 13,
      "path": "translation"
     }
    },
    {
     "sampler": 27,
     "target": {
      "node": 13,
      "path": "rotation"
     }
    },
    {
     "sampler": 28,
     "target": {
      "node": 12,
      "path": "translation"
     }
    },
    {
     "sampler": 29,
     "target": {
      "node": 12,
      "path": "rotation"
     }
    },
    {
     "sampler": 30,
     "target": {
      "node": 11,
      "path": "translation"
     }
    },
    {
     "sampler": 31,
     "target": {
      "node": 11,
      "path": "rotation"
     }
    },
    {
     "sampler": 32,
     "target": {
      "node": 10,
      "path": "translation"
     }
    },
    {
     "sampler": 33,
     "target": {
      "node": 10,
      "path": "rotation"
     }
    },
    {
     "sampler": 34,
     "target": {
      "node": 9,
      "path": "translation"
     }
    },
    {
     "sampler": 35,
     "target": {
      "node": 9,
      "path": "rotation"
     }
    },
    {
     "sampler": 36,
     "target": {
      "node": 8,
      "path": "translation"
     }
    },
    {
     "sampler": 37,
     "target": {
      "node": 8,
      "path": "rotation"
     }
    },
    {
     "sampler": 38,
     "target": {
      "node": 19,
      "path": "translation"
     }
    },
    {
     "sampler": 39,
     "target": {
      "node": 19,
      "path": "rotation"
     }
    },
    {
     "sampler": 40,
     "target": {
      "node": 18,
      "path": "translation"
     }
    },
    {
     "sampler": 41,
     "target": {
      "node": 18,
      "path": "rotation"
     }
    },
    {
     "sampler": 42,
     "target": {
      "node": 17,
      "path": "translation"
     }
    },
    {
     "sampler": 43,
     "target": {
      "node": 17,
      "path": "rotation"
     }
    },
    {
     "sampler": 44,
     "target": {
      "node": 16,
      "path": "translation"
     }
    },
    {
     "sampler": 45,
     "target": {
      "node": 16,
      "path": "rotation"
     }
    },
    {
     "sampler": 46,
     "target": {
      "node": 15,
      "path": "translation"
     }
    },
    {
     "sampler": 47,
     "target": {
      "node": 15,
      "path": "rotation"
     }
    },
    {
     "sampler": 48,
     "target": {
      "node": 14,
      "path": "translation"
     }
    },
    {
     "sampler": 49,
     "target": {
      "node": 14,
      "path": "rotation"
     }
    },
    {
     "sampler": 50,
     "target": {
      "node": 21,
      "path": "translation"
     }
    },
    {
     "sampler": 51,
     "target": {
      "node": 21,
      "path": "rotation"
     }
    },
    {
     "sampler": 52,
     "target": {
      "node": 22,
      "path": "translation"
     }
    },
    {
     "sampler": 53,
     "target": {
      "node": 22,
      "path": "rotation"
     }
    },
    {
     "sampler": 54,
     "target": {
      "node": 29,
      "path": "translation"
     }
    },
    {
     "sampler": 55,
     "target": {
      "node": 29,
      "path": "rotation"
     }
    },
    {
     "sampler": 56,
     "target": {
      "node": 28,
      "path": "translation"
     }
    },
    {
     "sampler": 57,
     "target": {
      "node": 28,
      "path": "rotation"
     }
    },
    {
     "sampler": 58,
     "target": {
      "node": 27,
      "path": "translation"
     }
    },
    {
     "sampler": 59,
     "target": {
      "node": 27,
      "path": "rotation"
     }
    },
    {
     "sampler": 60,
     "target": {
      "node": 26,
      "path": "translation"
     }
    },
    {
     "sampler": 61,
     "target": {
      "node": 26,
      "path": "rotation"
     }
    },
    {
     "sampler": 62,
     "target": {
      "node": 25,
      "path": "translation"
     }
    },
    {
     "sampler": 63,
     "target": {
      "node": 25,
      "path": "rotation"
     }
    },
    {
     "sampler": 64,
     "target": {
      "node": 34,
      "path": "translation"
     }
    },
    {
     "sampler": 65,
     "target": {
      "node": 34,
      "path": "rotation"
     }
    },
    {
     "sampler": 66,
     "target": {
      "node": 33,
      "path": "translation"
     }
    },
    {
     "sampler": 67,
     "target": {
      "node": 33,
      "path": "rotation"
     }
    },
    {
     "sampler": 68,
     "target": {
      "node": 32,
      "path": "translation"
     }
    },
    {
     "sampler": 69,
     "target": {
      "node": 32,
      "path": "rotation"
     }
    },
    {
     "sampler": 70,
     "target": {
      "node": 31,
      "path": "translation"
     }
    },
    {
     "sampler": 71,
     "target": {
      "node": 31,
      "path": "rotation"
     }
    },
    {
     "sampler": 72,
     "target": {
      "node": 30,
      "path": "translation"
     }
    },
    {
     "sampler": 73,
     "target": {
      "node": 30,
      "path": "rotation"
     }
    },
    {
     "sampler": 74,
     "target": {
      "node": 37,
      "path": "translation"
     }
    },
    {
     "sampler": 75,
     "target": {
      "node": 37,
      "path": "rotation"
     }
    },
    {
     "sampler": 76,
     "target": {
      "node": 36,
      "path": "translation"
     }
    },
    {
     "sampler": 77,
     "target": {
      "node": 36,
      "path": "rotation"
     }
    },
    {
     "sampler": 78,
     "target": {
      "node": 35,
      "path": "translation"
     }
    },
    {
     "sampler": 79,
     "target": {
      "node": 35,
      "path": "rotation"
     }
    }
   ],
   "name": "boar_walk",
   "samplers": [
    {
     "input": 0,
     "interpolation": "LINEAR",
     "output": 1
    },
    {
     "input": 0,
     "interpolation": "LINEAR",
     "output": 2
    },
    {
     "input": 0,
     "interpolation": "LINEAR",
     "output": 4
    },
    {
     "input": 0,
     "interpolation": "LINEAR",
     "output": 5
    },
    {
     "input": 0,
     "interpolation": "LINEAR",
     "output": 7
    },
    {
     "input": 0,
     "interpolation": "LINEAR",
     "output": 8
    },
    {
     "input": 0,
     "interpolation": "LINEAR",
     "output": 10
    },
    {
     "input": 0,
     "interpolation": "LINEAR",
     "output": 11
    },
    {
     "input": 0,
     "interpolation": "LINEAR",
     "output": 13
    },
    {
     "input": 0,
     "interpolation": "LINEAR",
     "output": 14
    },
    {
     "input": 0,
     "interpolation": "LINEAR",
     "output": 16
    },
    {
     "input": 0,
     "interpolation": "LINEAR",
     "output": 17
    },
    {
     "input": 0,
     "interpolation": "LINEAR",
     "output": 19
    },
    {
     "input": 0,
     "interpolation": "LINEAR",
     "output": 20
    },
    {
     "input": 0,
     "interpolation": "LINEAR",
     "output": 22
    },
    {
     "input": 0,
     "interpolation": "LINEAR",
     "output": 23
    },
    {
     "input": 0,
     "interpolation": "LINEAR",
     "output": 25
    },
    {
     "input": 0,
     "interpolation": "LINEAR",
     "output": 26
    },
    {
     "input": 0,
     "interpolation": "LINEAR",
     "output": 28
    },
    {
     "input": 0,
     "interpolation": "LINEAR",
     "output": 29
    },
    {
     "input": 0,
     "interpolation": "LINEAR",
     "output": 31
    },
    {
     "input": 0,
     "interpolation": "LINEAR",
     "output": 32
    },
    {
     "input": 0,
     "interpolation": "LINEAR",
     "output": 34
    },
    {
     "input": 0,
     "interpolation": "LINEAR",
     "output": 35
    },
    {
     "input": 0,
     "interpolation": "LINEAR",
     "output": 37
    },
    {
     "input": 0,
     "interpolation": "LINEAR",
     "output": 29
    },
    {
     "input": 0,
     "interpolation": "LINEAR",
     "output": 38
    },
    {
     "input": 0,
     "interpolation": "LINEAR",
     "output": 39
    },
    {
     "input": 0,
     "interpolation": "LINEAR",
     "output": 41
    },
    {
     "input": 0,
     "interpolation": "LINEAR",
     "output": 42
    },
    {
     "input": 0,
     "interpolation": "LINEAR",
     "output": 44
    },
    {
     "input": 0,
     "interpolation": "LINEAR",
     "output": 45
    },
    {
     "input": 0,
     "interpolation": "LINEAR",
     "output": 47
    },
    {
     "input": 0,
     "interpolation": "LINEAR",
     "output": 48
    },
    {
     "input": 0,
     "interpolation": "LINEAR",
     "output": 50
    },
    {
     "input": 0,
     "interpolation": "LINEAR",
     "output": 51
    },
    {
     "input": 0,
     "interpolation": "LINEAR",
     "output": 53
    },
    {
     "input": 0,
     "interpolation": "LINEAR",
     "output": 54
    },
    {
     "input": 0,
     "interpolation": "LINEAR",
     "output": 56
    },
    {
     "input": 0,
     "interpolation": "LINEAR",
     "output": 57
    },
    {
     "input": 0,
     "interpolation": "LINEAR",
     "output": 59
    },
    {
     "input": 0,
     "interpolation": "LINEAR",
     "output": 60
    },
    {
     "input": 0,
     "interpolation": "LINEAR",
     "output": 62
    },
    {
     "input": 0,
     "interpolation": "LINEAR",
     "output": 63
    },
    {
     "input": 0,
     "interpolation": "LINEAR",
     "output": 65
    },
    {
     "input": 0,
     "interpolation": "LINEAR",
     "output": 66
    },
    {
     "input": 0,
     "interpolation": "LINEAR",
     "output": 68
    },
    {
     "input": 0,
     "interpolation": "LINEAR",
     "output": 69
    },
    {
     "input": 0,
     "interpolation": "LINEAR",
     "output": 71
    },
    {
     "input": 0,
     "interpolation": "LINEAR",
     "output": 72
    },
    {
     "input": 0,
     "interpolation": "LINEAR",
     "output": 74
    },
    {
     "input": 0,
     "interpolation": "LINEAR",
     "output": 75
    },
    {
     "input": 0,
     "interpolation": "LINEAR",
     "output": 77
    },
    {
     "input": 0,
     "interpolation": "LINEAR",
     "output": 75
    },
    {
     "input": 0,
     "interpolation": "LINEAR",
     "output": 78
    },
    {
     "input": 0,
     "interpolation": "LINEAR",
     "output": 79
    },
    {
     "input": 0,
     "interpolation": "LINEAR",
     "output": 81
    },
    {
     "input": 0,
     "interpolation": "LINEAR",
     "output": 82
    },
    {
     "input": 0,
     "interpolation": "LINEAR",
     "output": 84
    },
    {
     "input": 0,
     "interpolation": "LINEAR",
     "output": 85
    },
    {
     "input": 0,
     "interpolation": "LINEAR",
     "output": 87
    },
    {
     "input": 0,
     "interpolation": "LINEAR",
     "output": 88
    },
    {
     "input": 0,
     "interpolation": "LINEAR",
     "output": 90
    },
    {
     "input": 0,
     "interpolation": "LINEAR",
     "output": 91
    },
    {
     "input": 0,
     "interpolation": "LINEAR",
     "output": 93
    },
    {
     "input": 0,
     "interpolation": "LINEAR",
     "output": 94
    },
    {
     "input": 0,
     "interpolation": "LINEAR",
     "output": 96
    },
    {
     "input": 0,
     "interpolation": "LINEAR",
     "output": 97
    },
    {
     "input": 0,
     "interpolation": "LINEAR",
     "output": 99
    },
    {
     "input": 0,
     "interpolation": "LINEAR",
     "output": 100
    },
    {
     "input": 0,
     "interpolation": "LINEAR",
     "output": 102
    },
    {
     "input": 0,
     "interpolation": "LINEAR",
     "output": 103
    },
    {
     "input": 0,
     "interpolation": "LINEAR",
     "output": 105
    },
    {
     "input": 0,
     "interpolation": "LINEAR",
     "output": 106
    },
    {
     "input": 0,
     "interpolation": "LINEAR",
     "output": 108
    },
    {
     "input": 0,
     "interpolation": "LINEAR",
     "output": 109
    },
    {
     "input": 0,
     "interpolation": "LINEAR",
     "output": 111
    },
    {
     "input": 0,
     "interpolation": "LINEAR",
     "output": 112
    },
    {
     "input": 0,
     "interpolation": "LINEAR",
     "output": 114
    },
    {
     "input": 0,
     "interpolation": "LINEAR",
     "output": 115
    }
   ]
  }
 ],
 "skins": [
  {
   "inverseBindMatrices": 117,
   "joints": [
    39,
    38,
    24,
    23,
    20,
    7,
    6,
    5,
    4,
    0,
    1,
    2,
    3,
    13,
    12,
    11,
    10,
    9,
    8,
    19,
    18,
    17,
    16,
    15,
    14,
    21,
    22,
    29,
    28,
    27,
    26,
    25,
    34,
    33,
    32,
    31,
    30,
    37,
    36,
    35
   ],
   "name": "boar_rig"
  }
 ],
 "accessors": [
  {
   "bufferView": 0,
   "componentType": 5126,
   "count": 21,
   "max": [
    0.6666666666666666
   ],
   "min": [
    0
   ],
   "type": "SCALAR"
  },
  {
   "bufferView": 1,
   "componentType": 5126,
   "count": 21,
   "type": "VEC3"
  },
  {
   "bufferView": 2,
   "componentType": 5126,
   "count": 21,
   "type": "VEC4"
  },
  {
   "bufferView": 3,
   "componentType": 5126,
   "count": 21,
   "type": "VEC3"
  },
  {
   "bufferView": 4,
   "componentType": 5126,
   "count": 21,
   "type": "VEC3"
  },
  {
   "bufferView": 5,
   "componentType": 5126,
   "count": 21,
   "type": "VEC4"
  },
  {
   "bufferView": 6,
   "componentType": 5126,
   "count": 21,
   "type": "VEC3"
  },
  {
   "bufferView": 7,
   "componentType": 5126,
   "count": 21,
   "type": "VEC3"
  },
  {
   "bufferView": 8,
   "componentType": 5126,
   "count": 21,
   "type": "VEC4"
  },
  {
   "bufferView": 9,
   "componentType": 5126,
   "count": 21,
   "type": "VEC3"
  },
  {
   "bufferView": 10,
   "componentType": 5126,
   "count": 21,
   "type": "VEC3"
  },
  {
   "bufferView": 11,
   "componentType": 5126,
   "count": 21,
   "type": "VEC4"
  },
  {
   "bufferView": 12,
   "componentType": 5126,
   "count": 21,
   "type": "VEC3"
  },
  {
   "bufferView": 13,
   "componentType": 5126,
   "count": 21,
   "type": "VEC3"
  },
  {
   "bufferView": 14,
   "componentType": 5126,
   "count": 21,
   "type": "VEC4"
  },
  {
   "bufferView": 15,
   "componentType": 5126,
   "count": 21,
   "type": "VEC3"
  },
  {
   "bufferView": 16,
   "componentType": 5126,
   "count": 21,
   "type": "VEC3"
  },
  {
   "bufferView": 17,
   "componentType": 5126,
   "count": 21,
   "type": "VEC4"
  },
  {
   "bufferView": 18,
   "componentType": 5126,
   "count": 21,
   "type": "VEC3"
  },
  {
   "bufferView": 19,
   "componentType": 5126,
   "count": 21,
   "type": "VEC3"
  },
  {
   "bufferView": 20,
   "componentType": 5126,
   "count": 21,
   "type": "VEC4"
  },
  {
   "bufferView": 21,
   "componentType": 5126,
   "count": 21,
   "type": "VEC3"
  },
  {
   "bufferView": 22,
   "componentType": 5126,
   "count": 21,
   "type": "VEC3"
  },
  {
   "bufferView": 23,
   "componentType": 5126,
   "count": 21,
   "type": "VEC4"
  },
  {
   "bufferView": 24,
   "componentType": 5126,
   "count": 21,
   "type": "VEC3"
  },
  {
   "bufferView": 25,
   "componentType": 5126,
   "count": 21,
   "type": "VEC3"
  },
  {
   "bufferView": 26,
   "componentType": 5126,
   "count": 21,
   "type": "VEC4"
  },
  {
   "bufferView": 27,
   "componentType": 5126,
   "count": 21,
   "type": "VEC3"
  },
  {
   "bufferView": 28,
   "componentType": 5126,
   "count": 21,
   "type": "VEC3"
  },
  {
   "bufferView": 29,
   "componentType": 5126,
   "count": 21,
   "type": "VEC4"
  },
  {
   "bufferView": 30,
   "componentType": 5126,
   "count": 21,
   "type": "VEC3"
  },
  {
   "bufferView": 31,
   "componentType": 5126,
   "count": 21,
   "type": "VEC3"
  },
  {
   "bufferView": 32,
   "componentType": 5126,
   "count": 21,
   "type": "VEC4"
  },
  {
   "bufferView": 33,
   "componentType": 5126,
   "count": 21,
   "type": "VEC3"
  },
  {
   "bufferView": 34,
   "componentType": 5126,
   "count": 21,
   "type": "VEC3"
  },
  {
   "bufferView": 35,
   "componentType": 5126,
   "count": 21,
   "type": "VEC4"
  },
  {
   "bufferView": 36,
   "componentType": 5126,
   "count": 21,
   "type": "VEC3"
  },
  {
   "bufferView": 37,
   "componentType": 5126,
   "count": 21,
   "type": "VEC3"
  },
  {
   "bufferView": 38,
   "componentType": 5126,
   "count": 21,
   "type": "VEC3"
  },
  {
   "bufferView": 39,
   "componentType": 5126,
   "count": 21,
   "type": "VEC4"
  },
  {
   "bufferView": 40,
   "componentType": 5126,
   "count": 21,
   "type": "VEC3"
  },
  {
   "bufferView": 41,
   "componentType": 5126,
   "count": 21,
   "type": "VEC3"
  },
  {
   "bufferView": 42,
   "componentType": 5126,
   "count": 21,
   "type": "VEC4"
  },
  {
   "bufferView": 43,
   "componentType": 5126,
   "count": 21,
   "type": "VEC3"
  },
  {
   "bufferView": 44,
   "componentType": 5126,
   "count": 21,
   "type": "VEC3"
  },
  {
   "bufferView": 45,
   "componentType": 5126,
   "count": 21,
   "type": "VEC4"
  },
  {
   "bufferView": 46,
   "componentType": 5126,
   "count": 21,
   "type": "VEC3"
  },
  {
   "bufferView": 47,
   "componentType": 5126,
   "count": 21,
   "type": "VEC3"
  },
  {
   "bufferView": 48,
   "componentType": 5126,
   "count": 21,
   "type": "VEC4"
  },
  {
   "bufferView": 49,
   "componentType": 5126,
   "count": 21,
   "type": "VEC3"
  },
  {
   "bufferView": 50,
   "componentType": 5126,
   "count": 21,
   "type": "VEC3"
  },
  {
   "bufferView": 51,
   "componentType": 5126,
   "count": 21,
   "type": "VEC4"
  },
  {
   "bufferView": 52,
   "componentType": 5126,
   "count": 21,
   "type": "VEC3"
  },
  {
   "bufferView": 53,
   "componentType": 5126,
   "count": 21,
   "type": "VEC3"
  },
  {
   "bufferView": 54,
   "componentType": 5126,
   "count": 21,
   "type": "VEC4"
  },
  {
   "bufferView": 55,
   "componentType": 5126,
   "count": 21,
   "type": "VEC3"
  },
  {
   "bufferView": 56,
   "componentType": 5126,
   "count": 21,
   "type": "VEC3"
  },
  {
   "bufferView": 57,
   "componentType": 5126,
   "count": 21,
   "type": "VEC4"
  },
  {
   "bufferView": 58,
   "componentType": 5126,
   "count": 21,
   "type": "VEC3"
  },
  {
   "bufferView": 59,
   "componentType": 5126,
   "count": 21,
   "type": "VEC3"
  },
  {
   "bufferView": 60,
   "componentType": 5126,
   "count": 21,
   "type": "VEC4"
  },
  {
   "bufferView": 61,
   "componentType": 5126,
   "count": 21,
   "type": "VEC3"
  },
  {
   "bufferView": 62,
   "componentType": 5126,
   "count": 21,
   "type": "VEC3"
  },
  {
   "bufferView": 63,
   "componentType": 5126,
   "count": 21,
   "type": "VEC4"
  },
  {
   "bufferView": 64,
   "componentType": 5126,
   "count": 21,
   "type": "VEC3"
  },
  {
   "bufferView": 65,
   "componentType": 5126,
   "count": 21,
   "type": "VEC3"
  },
  {
   "bufferView": 66,
   "componentType": 5126,
   "count": 21,
   "type": "VEC4"
  },
  {
   "bufferView": 67,
   "componentType": 5126,
   "count": 21,
   "type": "VEC3"
  },
  {
   "bufferView": 68,
   "componentType": 5126,
   "count": 21,
   "type": "VEC3"
  },
  {
   "bufferView": 69,
   "componentType": 5126,
   "count": 21,
   "type": "VEC4"
  },
  {
   "bufferView": 70,
   "componentType": 5126,
   "count": 21,
   "type": "VEC3"
  },
  {
   "bufferView": 71,
   "componentType": 5126,
   "count": 21,
   "type": "VEC3"
  },
  {
   "bufferView": 72,
   "componentType": 5126,
   "count": 21,
   "type": "VEC4"
  },
  {
   "bufferView": 73,
   "componentType": 5126,
   "count": 21,
   "type": "VEC3"
  },
  {
   "bufferView": 74,
   "componentType": 5126,
   "count": 21,
   "type": "VEC3"
  },
  {
   "bufferView": 75,
   "componentType": 5126,
   "count": 21,
   "type": "VEC4"
  },
  {
   "bufferView": 76,
   "componentType": 5126,
   "count": 21,
   "type": "VEC3"
  },
  {
   "bufferView": 77,
   "componentType": 5126,
   "count": 21,
   "type": "VEC3"
  },
  {
   "bufferView": 78,
   "componentType": 5126,
   "count": 21,
   "type": "VEC3"
  },
  {
   "bufferView": 79,
   "componentType": 5126,
   "count": 21,
   "type": "VEC4"
  },
  {
   "bufferView": 80,
   "componentType": 5126,
   "count": 21,
   "type": "VEC3"
  },
  {
   "bufferView": 81,
   "componentType": 5126,
   "count": 21,
   "type": "VEC3"
  },
  {
   "bufferView": 82,
   "componentType": 5126,
   "count": 21,
   "type": "VEC4"
  },
  {
   "bufferView": 83,
   "componentType": 5126,
   "count": 21,
   "type": "VEC3"
  },
  {
   "bufferView": 84,
   "componentType": 5126,
   "count": 21,
   "type": "VEC3"
  },
  {
   "bufferView": 85,
   "componentType": 5126,
   "count": 21,
   "type": "VEC4"
  },
  {
   "bufferView": 86,
   "componentType": 5126,
   "count": 21,
   "type": "VEC3"
  },
  {
   "bufferView": 87,
   "componentType": 5126,
   "count": 21,
   "type": "VEC3"
  },
  {
   "bufferView": 88,
   "componentType": 5126,
   "count": 21,
   "type": "VEC4"
  },
  {
   "bufferView": 89,
   "componentType": 5126,
   "count": 21,
   "type": "VEC3"
  },
  {
   "bufferView": 90,
   "componentType": 5126,
   "count": 21,
   "type": "VEC3"
  },
  {
   "bufferView": 91,
   "componentType": 5126,
   "count": 21,
   "type": "VEC4"
  },
  {
   "bufferView": 92,
   "componentType": 5126,
   "count": 21,
   "type": "VEC3"
  },
  {
   "bufferView": 93,
   "componentType": 5126,
   "count": 21,
   "type": "VEC3"
  },
  {
   "bufferView": 94,
   "componentType": 5126,
   "count": 21,
   "type": "VEC4"
  },
  {
   "bufferView": 95,
   "componentType": 5126,
   "count": 21,
   "type": "VEC3"
  },
  {
   "bufferView": 96,
   "componentType": 5126,
   "count": 21,
   "type": "VEC3"
  },
  {
   "bufferView": 97,
   "componentType": 5126,
   "count": 21,
   "type": "VEC4"
  },
  {
   "bufferView": 98,
   "componentType": 5126,
   "count": 21,
   "type": "VEC3"
  },
  {
   "bufferView": 99,
   "componentType": 5126,
   "count": 21,
   "type": "VEC3"
  },
  {
   "bufferView": 100,
   "componentType": 5126,
   "count": 21,
   "type": "VEC4"
  },
  {
   "bufferView": 101,
   "componentType": 5126,
   "count": 21,
   "type": "VEC3"
  },
  {
   "bufferView": 102,
   "componentType": 5126,
   "count": 21,
   "type": "VEC3"
  },
  {
   "bufferView": 103,
   "componentType": 5126,
   "count": 21,
   "type": "VEC4"
  },
  {
   "bufferView": 104,
   "componentType": 5126,
   "count": 21,
   "type": "VEC3"
  },
  {
   "bufferView": 105,
   "componentType": 5126,
   "count": 21,
   "type": "VEC3"
  },
  {
   "bufferView": 106,
   "componentType": 5126,
   "count": 21,
   "type": "VEC4"
  },
  {
   "bufferView": 107,
   "componentType": 5126,
   "count": 21,
   "type": "VEC3"
  },
  {
   "bufferView": 108,
   "componentType": 5126,
   "count": 21,
   "type": "VEC3"
  },
  {
   "bufferView": 109,
   "componentType": 5126,
   "count": 21,
   "type": "VEC4"
  },
  {
   "bufferView": 110,
   "componentType": 5126,
   "count": 21,
   "type": "VEC3"
  },
  {
   "bufferView": 111,
   "componentType": 5126,
   "count": 21,
   "type": "VEC3"
  },
  {
   "bufferView": 112,
   "componentType": 5126,
   "count": 21,
   "type": "VEC4"
  },
  {
   "bufferView": 113,
   "componentType": 5126,
   "count": 21,
   "type": "VEC3"
  },
  {
   "bufferView": 114,
   "componentType": 5126,
   "count": 21,
   "type": "VEC3"
  },
  {
   "bufferView": 115,
   "componentType": 5126,
   "count": 21,
   "type": "VEC4"
  },
  {
   "bufferView": 116,
   "componentType": 5126,
   "count": 21,
   "type": "VEC3"
  },
  {
   "bufferView": 117,
   "componentType": 5126,
   "count": 40,
   "type": "MAT4"
  }
 ],
 "bufferViews": [
  {
   "buffer": 0,
   "byteLength": 84,
   "byteOffset": 0
  },
  {
   "buffer": 0,
   "byteLength": 252,
   "byteOffset": 84
  },
  {
   "buffer": 0,
   "byteLength": 336,
   "byteOffset": 336
  },
  {
   "buffer": 0,
   "byteLength": 252,
   "byteOffset": 672
  },
  {
   "buffer": 0,
   "byteLength": 252,
   "byteOffset": 924
  },
  {
   "buffer": 0,
   "byteLength": 336,
   "byteOffset": 1176
  },
  {
   "buffer": 0,
   "byteLength": 252,
   "byteOffset": 1512
  },
  {
   "buffer": 0,
   "byteLength": 252,
   "byteOffset": 1764
  },
  {
   "buffer": 0,
   "byteLength": 336,
   "byteOffset": 2016
  },
  {
   "buffer": 0,
   "byteLength": 252,
   "byteOffset": 2352
  },
  {
   "buffer": 0,
   "byteLength": 252,
   "byteOffset": 2604
  },
  {
   "buffer": 0,
   "byteLength": 336,
   "byteOffset": 2856
  },
  {
   "buffer": 0,
   "byteLength": 252,
   "byteOffset": 3192
  },
  {
   "buffer": 0,
   "byteLength": 252,
   "byteOffset": 3444
  },
  {
   "buffer": 0,
   "byteLength": 336,
   "byteOffset": 3696
  },
  {
   "buffer": 0,
   "byteLength": 252,
   "byteOffset": 4032
  },
  {
   "buffer": 0,
   "byteLength": 252,
   "byteOffset": 4284
  },
  {
   "buffer": 0,
   "byteLength": 336,
   "byteOffset": 4536
  },
  {
   "buffer": 0,
   "byteLength": 252,
   "byteOffset": 4872
  },
  {
   "buffer": 0,
   "byteLength": 252,
   "byteOffset": 5124
  },
  {
   "buffer": 0,
   "byteLength": 336,
   "byteOffset": 5376
  },
  {
   "buffer": 0,
   "byteLength": 252,
   "byteOffset": 5712
  },
  {
   "buffer": 0,
   "byteLength": 252,
   "byteOffset": 5964
  },
  {
   "buffer": 0,
   "byteLength": 336,
   "byteOffset": 6216
  },
  {
   "buffer": 0,
   "byteLength": 252,
   "byteOffset": 6552
  },
  {
   "buffer": 0,
   "byteLength": 252,
   "byteOffset": 6804
  },
  {
   "buffer": 0,
   "byteLength": 336,
   "byteOffset": 7056
  },
  {
   "buffer": 0,
   "byteLength": 252,
   "byteOffset": 7392
  },
  {
   "buffer": 0,
   "byteLength": 252,
   "byteOffset": 7644
  },
  {
   "buffer": 0,
   "byteLength": 336,
   "byteOffset": 7896
  },
  {
   "buffer": 0,
   "byteLength": 252,
   "byteOffset": 8232
  },
  {
   "buffer": 0,
   "byteLength": 252,
   "byteOffset": 8484
  },
  {
   "buffer": 0,
   "byteLength": 336,
   "byteOffset": 8736
  },
  {
   "buffer": 0,
   "byteLength": 252,
   "byteOffset": 9072
  },
  {
   "buffer": 0,
   "byteLength": 252,
   "byteOffset": 9324
  },
  {
   "buffer": 0,
   "byteLength": 336,
   "byteOffset": 9576
  },
  {
   "buffer": 0,
   "byteLength": 252,
   "byteOffset": 9912
  },
  {
   "buffer": 0,
   "byteLength": 252,
   "byteOffset": 10164
  },
  {
   "buffer": 0,
   "byteLength": 252,
   "byteOffset": 10416
  },
  {
   "buffer": 0,
   "byteLength": 336,
   "byteOffset": 10668
  },
  {
   "buffer": 0,
   "byteLength": 252,
   "byteOffset": 11004
  },
  {
   "buffer": 0,
   "byteLength": 252,
   "byteOffset": 11256
  },
  {
   "buffer": 0,
   "byteLength": 336,
   "byteOffset": 11508
  },
  {
   "buffer": 0,
   "byteLength": 252,
   "byteOffset": 11844
  },
  {
   "buffer": 0,
   "byteLength": 252,
   "byteOffset": 12096
  },
  {
   "buffer": 0,
   "byteLength": 336,
   "byteOffset": 12348
  },
  {
   "buffer": 0,
   "byteLength": 252,
   "byteOffset": 12684
  },
  {
   "buffer": 0,
   "byteLength": 252,
   "byteOffset": 12936
  },
  {
   "buffer": 0,
   "byteLength": 336,
   "byteOffset": 13188
  },
  {
   "buffer": 0,
   "byteLength": 252,
   "byteOffset": 13524
  },
  {
   "buffer": 0,
   "byteLength": 252,
   "byteOffset": 13776
  },
  {
   "buffer": 0,
   "byteLength": 336,
   "byteOffset": 14028
  },
  {
   "buffer": 0,
   "byteLength": 252,
   "byteOffset": 14364
  },
  {
   "buffer": 0,
   "byteLength": 252,
   "byteOffset": 14616
  },
  {
   "buffer": 0,
   "byteLength": 336,
   "byteOffset": 14868
  },
  {
   "buffer": 0,
   "byteLength": 252,
   "byteOffset": 15204
  },
  {
   "buffer": 0,
   "byteLength": 252,
   "byteOffset": 15456
  },
  {
   "buffer": 0,
   "byteLength": 336,
   "byteOffset": 15708
  },
  {
   "buffer": 0,
   "byteLength": 252,
   "byteOffset": 16044
  },
  {
   "buffer": 0,
   "byteLength": 252,
   "byteOffset": 16296
  },
  {
   "buffer": 0,
   "byteLength": 336,
   "byteOffset": 16548
  },
  {
   "buffer": 0,
   "byteLength": 252,
   "byteOffset": 16884
  },
  {
   "buffer": 0,
   "byteLength": 252,
   "byteOffset": 17136
  },
  {
   "buffer": 0,
   "byteLength": 336,
   "byteOffset": 17388
  },
  {
   "buffer": 0,
   "byteLength": 252,
   "byteOffset": 17724
  },
  {
   "buffer": 0,
   "byteLength": 252,
   "byteOffset": 17976
  },
  {
   "buffer": 0,
   "byteLength": 336,
   "byteOffset": 18228
  },
  {
   "buffer": 0,
   "byteLength": 252,
   "byteOffset": 18564
  },
  {
   "buffer": 0,
   "byteLength": 252,
   "byteOffset": 18816
  },
  {
   "buffer": 0,
   "byteLength": 336,
   "byteOffset": 19068
  },
  {
   "buffer": 0,
   "byteLength": 252,
   "byteOffset": 19404
  },
  {
   "buffer": 0,
   "byteLength": 252,
   "byteOffset": 19656
  },
  {
   "buffer": 0,
   "byteLength": 336,
   "byteOffset": 19908
  },
  {
   "buffer": 0,
   "byteLength": 252,
   "byteOffset": 20244
  },
  {
   "buffer": 0,
   "byteLength": 252,
   "byteOffset": 20496
  },
  {
   "buffer": 0,
   "byteLength": 336,
   "byteOffset": 20748
  },
  {
   "buffer": 0,
   "byteLength": 252,
   "byteOffset": 21084
  },
  {
   "buffer": 0,
   "byteLength": 252,
   "byteOffset": 21336
  },
  {
   "buffer": 0,
   "byteLength": 252,
   "byteOffset": 21588
  },
  {
   "buffer": 0,
   "byteLength": 336,
   "byteOffset": 21840
  },
  {
   "buffer": 0,
   "byteLength": 252,
   "byteOffset": 22176
  },
  {
   "buffer": 0,
   "byteLength": 252,
   "byteOffset": 22428
  },
  {
   "buffer": 0,
   "byteLength": 336,
   "byteOffset": 22680
  },
  {
   "buffer": 0,
   "byteLength": 252,
   "byteOffset": 23016
  },
  {
   "buffer": 0,
   "byteLength": 252,
   "byteOffset": 23268
  },
  {
   "buffer": 0,
   "byteLength": 336,
   "byteOffset": 23520
  },
  {
   "buffer": 0,
   "byteLength": 252,
   "byteOffset": 23856
  },
  {
   "buffer": 0,
   "byteLength": 252,
   "byteOffset": 24108
  },
  {
   "buffer": 0,
   "byteLength": 336,
   "byteOffset": 24360
  },
  {
   "buffer": 0,
   "byteLength": 252,
   "byteOffset": 24696
  },
  {
   "buffer": 0,
   "byteLength": 252,
   "byteOffset": 24948
  },
  {
   "buffer": 0,
   "byteLength": 336,
   "byteOffset": 25200
  },
  {
   "buffer": 0,
   "byteLength": 252,
   "byteOffset": 25536
  },
  {
   "buffer": 0,
   "byteLength": 252,
   "byteOffset": 25788
  },
  {
   "buffer": 0,
   "byteLength": 336,
   "byteOffset": 26040
  },
  {
   "buffer": 0,
   "byteLength": 252,
   "byteOffset": 26376
  },
  {
   "buffer": 0,
   "byteLength": 252,
   "byteOffset": 26628
  },
  {
   "buffer": 0,
   "byteLength": 336,
   "byteOffset": 26880
  },
  {
   "buffer": 0,
   "byteLength": 252,
   "byteOffset": 27216
  },
  {
   "buffer": 0,
   "byteLength": 252,
   "byteOffset": 27468
  },
  {
   "buffer": 0,
   "byteLength": 336,
   "byteOffset": 27720
  },
  {
   "buffer": 0,
   "byteLength": 252,
   "byteOffset": 28056
  },
  {
   "buffer": 0,
   "byteLength": 252,
   "byteOffset": 28308
  },
  {
   "buffer": 0,
   "byteLength": 336,
   "byteOffset": 28560
  },
  {
   "buffer": 0,
   "byteLength": 252,
   "byteOffset": 28896
  },
  {
   "buffer": 0,
   "byteLength": 252,
   "byteOffset": 29148
  },
  {
   "buffer": 0,
   "byteLength": 336,
   "byteOffset": 29400
  },
  {
   "buffer": 0,
   "byteLength": 252,
   "byteOffset": 29736
  },
  {
   "buffer": 0,
   "byteLength": 252,
   "byteOffset": 29988
  },
  {
   "buffer": 0,
   "byteLength": 336,
   "byteOffset": 30240
  },
  {
   "buffer": 0,
   "byteLength": 252,
   "byteOffset": 30576
  },
  {
   "buffer": 0,
   "byteLength": 252,
   "byteOffset": 30828
  },
  {
   "buffer": 0,
   "byteLength": 336,
   "byteOffset": 31080
  },
  {
   "buffer": 0,
   "byteLength": 252,
   "byteOffset": 31416
  },
  {
   "buffer": 0,
   "byteLength": 252,
   "byteOffset": 31668
  },
  {
   "buffer": 0,
   "byteLength": 336,
   "byteOffset": 31920
  },
  {
   "buffer": 0,
   "byteLength": 252,
   "byteOffset": 32256
  },
  {
   "buffer": 0,
   "byteLength": 2560,
   "byteOffset": 32508
  }
 ],
 "buffers": [
  {
   "byteLength": 35068,
   "uri": "boar_walk.bin"
  }
 ]
}