{
 "asset": {
  "generator": "Khronos glTF Blender I/O v4.5.51",
  "version": "2.0"
 },
 "scene": 0,
 "scenes": [
  {
   "name": "Scene",
   "nodes": [
    39
   ]
  }
 ],
 "nodes": [
  {
   "name": "jaw",
   "translation": [
    0,
    -0.04357343912124634,
    0.015288352966308594
   ]
  },
  {
   "name": "ear_l",
   "translation": [
    0.04478617012500763,
    -0.03700709342956543,
    0.08116114139556885
   ]
  },
  {
   "name": "ear_r",
   "translation": [
    -0.04478617012500763,
    -0.03700709342956543,
    0.08116114139556885
   ]
  },
  {
   "children": [
    0,
    1,
    2
   ],
   "name": "head",
   "translation": [
    0,
    -0.07612502574920654,
    0.13650000095367432
   ]
  },
  {
   "children": [
    3
   ],
   "name": "neck_03",
   "translation": [
    0,
    -0.08627504110336304,
    0.15470004081726074
   ]
  },
  {
   "children": [
    4
   ],
   "name": "neck_02",
   "translation": [
    0,
    -0.09134995937347412,
    0.16380000114440918
   ]
  },
  {
   "children": [
    5
   ],
   "name": "neck_01",
   "translation": [
    0,
    -0.2625000476837158,
    -0.12250000238418579
   ]
  },
  {
   "name": "hoof_f_l",
   "translation": [
    0,
    -0.022750049829483032,
    -0.061250001192092896
   ]
  },
  {
   "children": [
    7
   ],
   "name": "pastern_f_l",
   "scale": [
    1,
    0.9999999403953552,
    1
   ],
   "translation": [
    -0.008542992174625397,
    -0.0061740875244140625,
    -0.24470049142837524
   ]
  },
  {
   "children": [
    8
   ],
   "name": "cannon_l",
   "translation": [
    -0.008908182382583618,
    -0.05246567726135254,
    -0.26270920038223267
   ]
  },
  {
   "children": [
    9
   ],
   "name": "radius_l",
   "translation": [
    -0.00617382675409317,
    0.1662648320198059,
    -0.1488403081893921
   ]
  },
  {
   "children": [
    10
   ],
   "name": "humerus_l",
   "scale": [
    1,
    0.9999999403953552,
    1
   ],
   "translation": [
    0.05250000208616257,
    -0.1793750822544098,
    -0.2056249976158142
   ]
  },
  {
   "children": [
    11
   ],
   "name": "scapula_l",
   "translation": [
    0.048124998807907104,
    -0.12687501311302185,
    0.034999966621398926
   ]
  },
  {
   "name": "hoof_f_r",
   "translation": [
    0,
    -0.022750049829483032,
    -0.061250001192092896
   ]
  },
  {
   "children": [
    13
   ],
   "name": "pastern_f_r",
   "scale": [
    1,
    0.9999999403953552,
    1
   ],
   "translation": [
    0.008542992174625397,
    -0.0061740875244140625,
    -0.24470049142837524
   ]
  },
  {
   "children": [
    14
   ],
   "name": "cannon_r",
   "translation": [
    0.008908182382583618,
    -0.05246567726135254,
    -0.26270920038223267
   ]
  },
  {
   "children": [
    15
   ],
   "name": "radius_r",
   "translation": [
    0.00617382675409317,
    0.1662648320198059,
    -0.1488403081893921
   ]
  },
  {
   "children": [
    16
   ],
   "name": "humerus_r",
   "scale": [
    1,
    0.9999999403953552,
    1
   ],
   "translation": [
    -0.05250000208616257,
    -0.1793750822544098,
    -0.2056249976158142
   ]
  },
  {
   "children": [
    17
   ],
   "name": "scapula_r",
   "translation": [
    -0.048124998807907104,
    -0.12687501311302185,
    0.034999966621398926
   ]
  },
  {
   "children": [
    6,
    12,
    18
   ],
   "name": "spine_03",
   "translation": [
    0,
    -0.1925000101327896,
    -0.013125002384185791
   ]
  },
  {
   "name": "ribs_l",
   "translation": [
    0.14000000059604645,
    -0.10499999672174454,
    -0.1443750262260437
   ]
  },
  {
   "name": "ribs_r",
   "translation": [
    -0.14000000059604645,
    -0.10499999672174454,
    -0.1443750262260437
   ]
  },
  {
   "children": [
    19,
    20,
    21
   ],
   "name": "spine_02",
   "translation": [
    0,
    -0.1575000286102295,
    -0.013125002384185791
   ]
  },
  {
   "children": [
    22
   ],
   "name": "spine_01",
   "translation": [
    0,
    -0.06125001609325409,
    -0.004374980926513672
   ]
  },
  {
   "name": "hoof_h_l",
   "translation": [
    0,
    -0.0245000422000885,
    -0.0612499937415123
   ]
  },
  {
   "children": [
    24
   ],
   "name": "pastern_h_l",
   "translation": [
    -0.0016493499279022217,
    -0.013123571872711182,
    -0.2975151836872101
   ]
  },
  {
   "children": [
    25
   ],
   "name": "metatarsus_l",
   "translation": [
    -0.0013684406876564026,
    0.2362610101699829,
    -0.22323915362358093
   ]
  },
  {
   "children": [
    26
   ],
   "name": "tibia_l",
   "scale": [
    1,
    0.9999999403953552,
    1
   ],
   "translation": [
    -0.0013572126626968384,
    -0.14876239001750946,
    -0.2579956650733948
   ]
  },
  {
   "children": [
    27
   ],
   "name": "femur_l",
   "translation": [
    0.08749999850988388,
    0.14000004529953003,
    -0.07875001430511475
   ]
  },
  {
   "name": "hoof_h_r",
   "translation": [
    0,
    -0.0245000422000885,
    -0.0612499937415123
   ]
  },
  {
   "children": [
    29
   ],
   "name": "pastern_h_r",
   "translation": [
    0.0016493499279022217,
    -0.013123571872711182,
    -0.2975151836872101
   ]
  },
  {
   "children": [
    30
   ],
   "name": "metatarsus_r",
   "translation": [
    0.0013684406876564026,
    0.2362610101699829,
    -0.22323915362358093
   ]
  },
  {
   "children": [
    31
   ],
   "name": "tibia_r",
   "scale": [
    1,
    0.9999999403953552,
    1
   ],
   "translation": [
    0.0013572126626968384,
    -0.14876239001750946,
    -0.2579956650733948
   ]
  },
  {
   "children": [
    32
   ],
   "name": "femur_r",
   "translation": [
    -0.08749999850988388,
    0.14000004529953003,
    -0.07875001430511475
   ]
  },
  {
   "name": "tail_03",
   "translation": [
    0,
    0.013125002384185791,
    -0.05249994993209839
   ]
  },
  {
   "children": [
    34
   ],
   "name": "tail_02",
   "translation": [
    0,
    0.025375008583068848,
    -0.013125002384185791
   ]
  },
  {
   "children": [
    35
   ],
   "name": "tail_01",
   "translation": [
    0,
    0.3368750214576721,
    -0.03937506675720215
   ]
  },
  {
   "children": [
    23,
    28,
    33,
    36
   ],
   "name": "hips",
   "translation": [
    0,
    0.23625004291534424,
    0.9668750166893005
   ]
  },
  {
   "children": [
    37
   ],
   "name": "root",
   "rotation": [
    -0.7071067690849304,
    0,
    0,
    0.7071067690849304
   ],
   "scale": [
    1,
    0.9999999403953552,
    1
   ]
  },
  {
   "children": [
    38
   ],
   "name": "deer_rig"
  }
 ],
 "animations": [
  {
   "channels": [
    {
     "sampler": 0,
     "target": {
      "node": 38,
      "path": "translation"
     }
    },
    {
     "sampler": 1,
     "target": {
      "node": 38,
      "path": "rotation"
     }
    },
    {
     "sampler": 2,
     "target": {
      "node": 37,
      "path": "translation"
     }
    },
    {
     "sampler": 3,
     "target": {
      "node": 37,
      "path": "rotation"
     }
    },
    {
     "sampler": 4,
     "target": {
      "node": 23,
      "path": "translation"
     }
    },
    {
     "sampler": 5,
     "target": {
      "node": 23,
      "path": "rotation"
     }
    },
    {
     "sampler": 6,
     "target": {
      "node": 22,
      "path": "translation"
     }
    },
    {
     "sampler": 7,
     "target": {
      "node": 22,
      "path": "rotation"
     }
    },
    {
     "sampler": 8,
     "target": {
      "node": 19,
      "path": "translation"
     }
    },
    {
     "sampler": 9,
     "target": {
      "node": 19,
      "path": "rotation"
     }
    },
    {
     "sampler": 10,
     "target": {
      "node": 6,
      "path": "translation"
     }
    },
    {
     "sampler": 11,
     "target": {
      "node": 6,
      "path": "rotation"
     }
    },
    {
     "sampler": 12,
     "target": {
      "node": 5,
      "path": "translation"
     }
    },
    {
     "sampler": 13,
     "target": {
      "node": 5,
      "path": "rotation"
     }
    },
    {
     "sampler": 14,
     "target": {
      "node": 4,
      "path": "translation"
     }
    },
    {
     "sampler": 15,
     "target": {
      "node": 4,
      "path": "rotation"
     }
    },
    {
     "sampler": 16,
     "target": {
      "node": 3,
      "path": "translation"
     }
    },
    {
     "sampler": 17,
     "target": {
      "node": 3,
      "path": "rotation"
     }
    },
    {
     "sampler": 18,
     "target": {
      "node": 0,
      "path": "translation"
     }
    },
    {
     "sampler": 19,
     "target": {
      "node": 0,
      "path": "rotation"
     }
    },
    {
     "sampler": 20,
     "target": {
      "node": 1,
      "path": "translation"
     }
    },
    {
     "sampler": 21,
     "target": {
      "node": 1,
      "path": "rotation"
     }
    },
    {
     "sampler": 22,
     "target": {
      "node": 2,
      "path": "translation"
     }
    },
    {
     "sampler": 23,
     "target": {
      "node": 2,
      "path": "rotation"
     }
    },
    {
     "sampler": 24,
     "target": {
      "node": 12,
      "path": "translation"
     }
    },
    {
     "sampler": 25,
     "target": {
      "node": 12,
      "path": "rotation"
     }
    },
    {
     "sampler": 26,
     "target": {
      "node": 11,
      "path": "translation"
     }
    },
    {
     "sampler": 27,
     "target": {
      "node": 11,
      "path": "rotation"
     }
    },
    {
     "sampler": 28,
     "target": {
      "node": 10,
      "path": "translation"
     }
    },
    {
     "sampler": 29,
     "target": {
      "node": 10,
      "path": "rotation"
     }
    },
    {
     "sampler": 30,
     "target": {
      "node": 9,
      "path": "translation"
     }
    },
    {
     "sampler": 31,
     "target": {
      "node": 9,
      "path": "rotation"
     }
    },
    {
     "sampler": 32,
     "target": {
      "node": 8,
      "path": "translation"
     }
    },
    {
     "sampler": 33,
     "target": {
      "node": 8,
      "path": "rotation"
     }
    },
    {
     "sampler": 34,
     "target": {
      "node": 7,
      "path": "translation"
     }
    },
    {
     "sampler": 35,
     "target": {
      "node": 7,
      "path": "rotation"
     }
    },
    {
     "sampler": 36,
     "target": {
      "node": 18,
      "path": "translation"
     }
    },
    {
     "sampler": 37,
     "target": {
      "node": 18,
      "path": "rotation"
     }
    },
    {
     "sampler": 38,
     "target": {
      "node": 17,
      "path": "translation"
     }
    },
    {
     "sampler": 39,
     "target": {
      "node": 17,
      "path": "rotation"
     }
    },
    {
     "sampler": 40,
     "target": {
      "node": 16,
      "path": "translation"
     }
    },
    {
     "sampler": 41,
     "target": {
      "node": 16,
      "path": "rotation"
     }
    },
    {
     "sampler": 42,
     "target": {
      "node": 15,
      "path": "translation"
     }
    },
    {
     "sampler": 43,
     "target": {
      "node": 15,
      "path": "rotation"
     }
    },
    {
     "sampler": 44,
     "target": {
      "node": 14,
      "path": "translation"
     }
    },
    {
     "sampler": 45,
     "target": {
      "node": 14,
      "path": "rotation"
     }
    },
    {
     "sampler": 46,
     "target": {
      "node": 13,
      "path": "translation"
     }
    },
    {
     "sampler": 47,
     "target": {
      "node": 13,
      "path": "rotation"
     }
    },
    {
     "sampler": 48,
     "target": {
      "node": 20,
      "path": "translation"
     }
    },
    {
     "sampler": 49,
     "target": {
      "node": 20,
      "path": "rotation"
     }
    },
    {
     "sampler": 50,
     "target": {
      "node": 21,
      "path": "translation"
     }
    },
    {
     "sampler": 51,
     "target": {
      "node": 21,
      "path": "rotation"
     }
    },
    {
     "sampler": 52,
     "target": {
      "node": 28,
      "path": "translation"
     }
    },
    {
     "sampler": 53,
     "target": {
      "node": 28,
      "path": "rotation"
     }
    },
    {
     "sampler": 54,
     "target": {
      "node": 27,
      "path": "translation"
     }
    },
    {
     "sampler": 55,
     "target": {
      "node": 27,
      "path": "rotation"
     }
    },
    {
     "sampler": 56,
     "target": {
      "node": 26,
      "path": "translation"
     }
    },
    {
     "sampler": 57,
     "target": {
      "node": 26,
      "path": "rotation"
     }
    },
    {
     "sampler": 58,
     "target": {
      "node": 25,
      "path": "translation"
     }
    },
    {
     "sampler": 59,
     "target": {
      "node": 25,
      "path": "rotation"
     }
    },
    {
     "sampler": 60,
     "target": {
      "node": 24,
      "path": "translation"
     }
    },
    {
     "sampler": 61,
     "target": {
      "node": 24,
      "path": "rotation"
     }
    },
    {
     "sampler": 62,
     "target": {
      "node": 33,
      "path": "translation"
     }
    },
    {
     "sampler": 63,
     "target": {
      "node": 33,
      "path": "rotation"
     }
    },
    {
     "sampler": 64,
     "target": {
      "node": 32,
      "path": "translation"
     }
    },
    {
     "sampler": 65,
     "target": {
      "node": 32,
      "path": "rotation"
     }
    },
    {
     "sampler": 66,
     "target": {
      "node": 31,
      "path": "translation"
     }
    },
    {
     "sampler": 67,
     "target": {
      "node": 31,
      "path": "rotation"
     }
    },
    {
     "sampler": 68,
     "target": {
      "node": 30,
      "path": "translation"
     }
    },
    {
     "sampler": 69,
     "target": {
      "node": 30,
      "path": "rotation"
     }
    },
    {
     "sampler": 70,
     "target": {
      "node": 29,
      "path": "translation"
     }
    },
    {
     "sampler": 71,
     "target": {
      "node": 29,
      "path": "rotation"
     }
    },
    {
     "sampler": 72,
     "target": {
      "node": 36,
      "path": "translation"
     }
    },
    {
     "sampler": 73,
     "target": {
      "node": 36,
      "path": "rotation"
     }
    },
    {
     "sampler": 74,
     "target": {
      "node": 35,
      "path": "translation"
     }
    },
    {
     "sampler": 75,
     "target": {
      "node": 35,
      "path": "rotation"
     }
    },
    {
     "sampler": 76,
     "target": {
      "node": 34,
      "path": "translation"
     }
    },
    {
     "sampler": 77,
     "target": {
      "node": 34,
      "path": "rotation"
     }
    }
   ],
   "name": "deer_hind_run",
   "samplers": [
    {
     "input": 0,
     "interpolation": "LINEAR",
     "output": 1
    },
    {
     "input": 0,
     "interpolation": "LINEAR",
     "output": 2
    },
    {
     "input": 0,
     "interpolation": "LINEAR",
     "output": 4
    },
    {
     "input": 0,
     "interpolation": "LINEAR",
     "output": 5
    },
    {
     "input": 0,
     "interpolation": "LINEAR",
     "output": 7
    },
    {
     "input": 0,
     "interpolation": "LINEAR",
     "output": 8
    },
    {
     "input": 0,
     "interpolation": "LINEAR",
     "output": 10
    },
    {
     "input": 0,
     "interpolation": "LINEAR",
     "output": 11
    },
    {
     "input": 0,
     "interpolation": "LINEAR",
     "output": 13
    },
    {
     "input": 0,
     "interpolation": "LINEAR",
     "output": 14
    },
    {
     "input": 0,
     "interpolation": "LINEAR",
     "output": 16
    },
    {
     "input": 0,
     "interpolation": "LINEAR",
     "output": 17
    },
    {
     "input": 0,
     "interpolation": "LINEAR",
     "output": 19
    },
    {
     "input": 0,
     "interpolation": "LINEAR",
     "output": 20
    },
    {
     "input": 0,
     "interpolation": "LINEAR",
     "output": 22
    },
    {
     "input": 0,
     "interpolation": "LINEAR",
     "output": 23
    },
    {
     "input": 0,
     "interpolation": "LINEAR",
     "output": 25
    },
    {
     "input": 0,
     "interpolation": "LINEAR",
     "output": 26
    },
    {
     "input": 0,
     "interpolation": "LINEAR",
     "output": 28
    },
    {
     "input": 0,
     "interpolation": "LINEAR",
     "output": 29
    },
    {
     "input": 0,
     "interpolation": "LINEAR",
     "output": 31
    },
    {
     "input": 0,
     "interpolation": "LINEAR",
     "output": 32
    },
    {
     "input": 0,
     "interpolation": "LINEAR",
     "output": 34
    },
    {
     "input": 0,
     "interpolation": "LINEAR",
     "output": 35
    },
    {
     "input": 0,
     "interpolation": "LINEAR",
     "output": 37
    },
    {
     "input": 0,
     "interpolation": "LINEAR",
     "output": 38
    },
    {
     "input": 0,
     "interpolation": "LINEAR",
     "output": 40
    },
    {
     "input": 0,
     "interpolation": "LINEAR",
     "output": 41
    },
    {
     "input": 0,
     "interpolation": "LINEAR",
     "output": 43
    },
    {
     "input": 0,
     "interpolation": "LINEAR",
     "output": 44
    },
    {
     "input": 0,
     "interpolation": "LINEAR",
     "output": 46
    },
    {
     "input": 0,
     "interpolation": "LINEAR",
     "output": 47
    },
    {
     "input": 0,
     "interpolation": "LINEAR",
     "output": 49
    },
    {
     "input": 0,
     "interpolation": "LINEAR",
     "output": 50
    },
    {
     "input": 0,
     "interpolation": "LINEAR",
     "output": 52
    },
    {
     "input": 0,
     "interpolation": "LINEAR",
     "output": 53
    },
    {
     "input": 0,
     "interpolation": "LINEAR",
     "output": 55
    },
    {
     "input": 0,
     "interpolation": "LINEAR",
     "output": 56
    },
    {
     "input": 0,
     "interpolation": "LINEAR",
     "output": 58
    },
    {
     "input": 0,
     "interpolation": "LINEAR",
     "output": 59
    },
    {
     "input": 0,
     "interpolation": "LINEAR",
     "output": 61
    },
    {
     "input": 0,
     "interpolation": "LINEAR",
     "output": 62
    },
    {
     "input": 0,
     "interpolation": "LINEAR",
     "output": 64
    },
    {
     "input": 0,
     "interpolation": "LINEAR",
     "output": 65
    },
    {
     "input": 0,
     "interpolation": "LINEAR",
     "output": 67
    },
    {
     "input": 0,
     "interpolation": "LINEAR",
     "output": 68
    },
    {
     "input": 0,
     "interpolation": "LINEAR",
     "output": 70
    },
    {
     "input": 0,
     "interpolation": "LINEAR",
     "output": 71
    },
    {
     "input": 0,
     "interpolation": "LINEAR",
     "output": 73
    },
    {
     "input": 0,
     "interpolation": "LINEAR",
     "output": 74
    },
    {
     "input": 0,
     "interpolation": "LINEAR",
     "output": 76
    },
    {
     "input": 0,
     "interpolation": "LINEAR",
     "output": 74
    },
    {
     "input": 0,
     "interpolation": "LINEAR",
     "output": 77
    },
    {
     "input": 0,
     "interpolation": "LINEAR",
     "output": 78
    },
    {
     "input": 0,
     "interpolation": "LINEAR",
     "output": 80
    },
    {
     "input": 0,
     "interpolation": "LINEAR",
     "output": 81
    },
    {
     "input": 0,
     "interpolation": "LINEAR",
     "output": 83
    },
    {
     "input": 0,
     "interpolation": "LINEAR",
     "output": 84
    },
    {
     "input": 0,
     "interpolation": "LINEAR",
     "output": 86
    },
    {
     "input": 0,
     "interpolation": "LINEAR",
     "output": 87
    },
    {
     "input": 0,
     "interpolation": "LINEAR",
     "output": 89
    },
    {
     "input": 0,
     "interpolation": "LINEAR",
     "output": 90
    },
    {
     "input": 0,
     "interpolation": "LINEAR",
     "output": 92
    },
    {
     "input": 0,
     "interpolation": "LINEAR",
     "output": 93
    },
    {
     "input": 0,
     "interpolation": "LINEAR",
     "output": 95
    },
    {
     "input": 0,
     "interpolation": "LINEAR",
     "output": 96
    },
    {
     "input": 0,
     "interpolation": "LINEAR",
     "output": 98
    },
    {
     "input": 0,
     "interpolation": "LINEAR",
     "output": 99
    },
    {
     "input": 0,
     "interpolation": "LINEAR",
     "output": 101
    },
    {
     "input": 0,
     "interpolation": "LINEAR",
     "output": 102
    },
    {
     "input": 0,
     "interpolation": "LINEAR",
     "output": 104
    },
    {
     "input": 0,
     "interpolation": "LINEAR",
     "output": 105
    },
    {
     "input": 0,
     "interpolation": "LINEAR",
     "output": 107
    },
    {
     "input": 0,
     "interpolation": "LINEAR",
     "output": 108
    },
    {
     "input": 0,
     "interpolation": "LINEAR",
     "output": 110
    },
    {
     "input": 0,
     "interpolation": "LINEAR",
     "output": 111
    },
    {
     "input": 0,
     "interpolation": "LINEAR",
     "output": 113
    },
    {
     "input": 0,
     "interpolation": "LINEAR",
     "output": 114
    }
   ]
  }
 ],
 "skins": [
  {
   "inverseBindMatrices": 116,
   "joints": [
    38,
    37,
    23,
    22,
    19,
    6,
    5,
    4,
    3,
    0,
    1,
    2,
    12,
    11,
    10,
    9,
    8,
    7,
    18,
    17,
    16,
    15,
    14,
    13,
    20,
    21,
    28,
    27,
    26,
    25,
    24,
    33,
    32,
    31,
    30,
    29,
    36,
    35,
    34
   ],
   "name": "deer_rig"
  }
 ],
 "accessors": [
  {
   "bufferView": 0,
   "componentType": 5126,
   "count": 14,
   "max": [
    0.43333333333333335
   ],
   "min": [
    0
   ],
   "type": "SCALAR"
  },
  {
   "bufferView": 1,
   "componentType": 5126,
   "count": 14,
   "type": "VEC3"
  },
  {
   "bufferView": 2,
   "componentType": 5126,
   "count": 14,
   "type": "VEC4"
  },
  {
   "bufferView": 3,
   "componentType": 5126,
   "count": 14,
   "type": "VEC3"
  },
  {
   "bufferView": 4,
   "componentType": 5126,
   "count": 14,
   "type": "VEC3"
  },
  {
   "bufferView": 5,
   "componentType": 5126,
   "count": 14,
   "type": "VEC4"
  },
  {
   "bufferView": 6,
   "componentType": 5126,
   "count": 14,
   "type": "VEC3"
  },
  {
   "bufferView": 7,
   "componentType": 5126,
   "count": 14,
   "type": "VEC3"
  },
  {
   "bufferView": 8,
   "componentType": 5126,
   "count": 14,
   "type": "VEC4"
  },
  {
   "bufferView": 9,
   "componentType": 5126,
   "count": 14,
   "type": "VEC3"
  },
  {
   "bufferView": 10,
   "componentType": 5126,
   "count": 14,
   "type": "VEC3"
  },
  {
   "bufferView": 11,
   "componentType": 5126,
   "count": 14,
   "type": "VEC4"
  },
  {
   "bufferView": 12,
   "componentType": 5126,
   "count": 14,
   "type": "VEC3"
  },
  {
   "bufferView": 13,
   "componentType": 5126,
   "count": 14,
   "type": "VEC3"
  },
  {
   "bufferView": 14,
   "componentType": 5126,
   "count": 14,
   "type": "VEC4"
  },
  {
   "bufferView": 15,
   "componentType": 5126,
   "count": 14,
   "type": "VEC3"
  },
  {
   "bufferView": 16,
   "componentType": 5126,
   "count": 14,
   "type": "VEC3"
  },
  {
   "bufferView": 17,
   "componentType": 5126,
   "count": 14,
   "type": "VEC4"
  },
  {
   "bufferView": 18,
   "componentType": 5126,
   "count": 14,
   "type": "VEC3"
  },
  {
   "bufferView": 19,
   "componentType": 5126,
   "count": 14,
   "type": "VEC3"
  },
  {
   "bufferView": 20,
   "componentType": 5126,
   "count": 14,
   "type": "VEC4"
  },
  {
   "bufferView": 21,
   "componentType": 5126,
   "count": 14,
   "type": "VEC3"
  },
  {
   "bufferView": 22,
   "componentType": 5126,
   "count": 14,
   "type": "VEC3"
  },
  {
   "bufferView": 23,
   "componentType": 5126,
   "count": 14,
   "type": "VEC4"
  },
  {
   "bufferView": 24,
   "componentType": 5126,
   "count": 14,
   "type": "VEC3"
  },
  {
   "bufferView": 25,
   "componentType": 5126,
   "count": 14,
   "type": "VEC3"
  },
  {
   "bufferView": 26,
   "componentType": 5126,
   "count": 14,
   "type": "VEC4"
  },
  {
   "bufferView": 27,
   "componentType": 5126,
   "count": 14,
   "type": "VEC3"
  },
  {
   "bufferView": 28,
   "componentType": 5126,
   "count": 14,
   "type": "VEC3"
  },
  {
   "bufferView": 29,
   "componentType": 5126,
   "count": 14,
   "type": "VEC4"
  },
  {
   "bufferView": 30,
   "componentType": 5126,
   "count": 14,
   "type": "VEC3"
  },
  {
   "bufferView": 31,
   "componentType": 5126,
   "count": 14,
   "type": "VEC3"
  },
  {
   "bufferView": 32,
   "componentType": 5126,
   "count": 14,
   "type": "VEC4"
  },
  {
   "bufferView": 33,
   "componentType": 5126,
   "count": 14,
   "type": "VEC3"
  },
  {
   "bufferView": 34,
   "componentType": 5126,
   "count": 14,
   "type": "VEC3"
  },
  {
   "bufferView": 35,
   "componentType": 5126,
   "count": 14,
   "type": "VEC4"
  },
  {
   "bufferView": 36,
   "componentType": 5126,
   "count": 14,
   "type": "VEC3"
  },
  {
   "bufferView": 37,
   "componentType": 5126,
   "count": 14,
   "type": "VEC3"
  },
  {
   "bufferView": 38,
   "componentType": 5126,
   "count": 14,
   "type": "VEC4"
  },
  {
   "bufferView": 39,
   "componentType": 5126,
   "count": 14,
   "type": "VEC3"
  },
  {
   "bufferView": 40,
   "componentType": 5126,
   "count": 14,
   "type": "VEC3"
  },
  {
   "bufferView": 41,
   "componentType": 5126,
   "count": 14,
   "type": "VEC4"
  },
  {
   "bufferView": 42,
   "componentType": 5126,
   "count": 14,
   "type": "VEC3"
  },
  {
   "bufferView": 43,
   "componentType": 5126,
   "count": 14,
   "type": "VEC3"
  },
  {
   "bufferView": 44,
   "componentType": 5126,
   "count": 14,
   "type": "VEC4"
  },
  {
   "bufferView": 45,
   "componentType": 5126,
   "count": 14,
   "type": "VEC3"
  },
  {
   "bufferView": 46,
   "componentType": 5126,
   "count": 14,
   "type": "VEC3"
  },
  {
   "bufferView": 47,
   "componentType": 5126,
   "count": 14,
   "type": "VEC4"
  },
  {
   "bufferView": 48,
   "componentType": 5126,
   "count": 14,
   "type": "VEC3"
  },
  {
   "bufferView": 49,
   "componentType": 5126,
   "count": 14,
   "type": "VEC3"
  },
  {
   "bufferView": 50,
   "componentType": 5126,
   "count": 14,
   "type": "VEC4"
  },
  {
   "bufferView": 51,
   "componentType": 5126,
   "count": 14,
   "type": "VEC3"
  },
  {
   "bufferView": 52,
   "componentType": 5126,
   "count": 14,
   "type": "VEC3"
  },
  {
   "bufferView": 53,
   "componentType": 5126,
   "count": 14,
   "type": "VEC4"
  },
  {
   "bufferView": 54,
   "componentType": 5126,
   "count": 14,
   "type": "VEC3"
  },
  {
   "bufferView": 55,
   "componentType": 5126,
   "count": 14,
   "type": "VEC3"
  },
  {
   "bufferView": 56,
   "componentType": 5126,
   "count": 14,
   "type": "VEC4"
  },
  {
   "bufferView": 57,
   "componentType": 5126,
   "count": 14,
   "type": "VEC3"
  },
  {
   "bufferView": 58,
   "componentType": 5126,
   "count": 14,
   "type": "VEC3"
  },
  {
   "bufferView": 59,
   "componentType": 5126,
   "count": 14,
   "type": "VEC4"
  },
  {
   "bufferView": 60,
   "componentType": 5126,
   "count": 14,
   "type": "VEC3"
  },
  {
   "bufferView": 61,
   "componentType": 5126,
   "count": 14,
   "type": "VEC3"
  },
  {
   "bufferView": 62,
   "componentType": 5126,
   "count": 14,
   "type": "VEC4"
  },
  {
   "bufferView": 63,
   "componentType": 5126,
   "count": 14,
   "type": "VEC3"
  },
  {
   "bufferView": 64,
   "componentType": 5126,
   "count": 14,
   "type": "VEC3"
  },
  {
   "bufferView": 65,
   "componentType": 5126,
   "count": 14,
   "type": "VEC4"
  },
  {
   "bufferView": 66,
   "componentType": 5126,
   "count": 14,
   "type": "VEC3"
  },
  {
   "bufferView": 67,
   "componentType": 5126,
   "count": 14,
   "type": "VEC3"
  },
  {
   "bufferView": 68,
   "componentType": 5126,
   "count": 14,
   "type": "VEC4"
  },
  {
   "bufferView": 69,
   "componentType": 5126,
   "count": 14,
   "type": "VEC3"
  },
  {
   "bufferView": 70,
   "componentType": 5126,
   "count": 14,
   "type": "VEC3"
  },
  {
   "bufferView": 71,
   "componentType": 5126,
   "count": 14,
   "type": "VEC4"
  },
  {
   "bufferView": 72,
   "componentType": 5126,
   "count": 14,
   "type": "VEC3"
  },
  {
   "bufferView": 73,
   "componentType": 5126,
   "count": 14,
   "type": "VEC3"
  },
  {
   "bufferView": 74,
   "componentType": 5126,
   "count": 14,
   "type": "VEC4"
  },
  {
   "bufferView": 75,
   "componentType": 5126,
   "count": 14,
   "type": "VEC3"
  },
  {
   "bufferView": 76,
   "componentType": 5126,
   "count": 14,
   "type": "VEC3"
  },
  {
   "bufferView": 77,
   "componentType": 5126,
   "count": 14,
   "type": "VEC3"
  },
  {
   "bufferView": 78,
   "componentType": 5126,
   "count": 14,
   "type": "VEC4"
  },
  {
   "bufferView": 79,
   "componentType": 5126,
   "count": 14,
   "type": "VEC3"
  },
  {
   "bufferView": 80,
   "componentType": 5126,
   "count": 14,
   "type": "VEC3"
  },
  {
   "bufferView": 81,
   "componentType": 5126,
   "count": 14,
   "type": "VEC4"
  },
  {
   "bufferView": 82,
   "componentType": 5126,
   "count": 14,
   "type": "VEC3"
  },
  {
   "bufferView": 83,
   "componentType": 5126,
   "count": 14,
   "type": "VEC3"
  },
  {
   "bufferView": 84,
   "componentType": 5126,
   "count": 14,
   "type": "VEC4"
  },
  {
   "bufferView": 85,
   "componentType": 5126,
   "count": 14,
   "type": "VEC3"
  },
  {
   "bufferView": 86,
   "componentType": 5126,
   "count": 14,
   "type": "VEC3"
  },
  {
   "bufferView": 87,
   "componentType": 5126,
   "count": 14,
   "type": "VEC4"
  },
  {
   "bufferView": 88,
   "componentType": 5126,
   "count": 14,
   "type": "VEC3"
  },
  {
   "bufferView": 89,
   "componentType": 5126,
   "count": 14,
   "type": "VEC3"
  },
  {
   "bufferView": 90,
   "componentType": 5126,
   "count": 14,
   "type": "VEC4"
  },
  {
   "bufferView": 91,
   "componentType": 5126,
   "count": 14,
   "type": "VEC3"
  },
  {
   "bufferView": 92,
   "componentType": 5126,
   "count": 14,
   "type": "VEC3"
  },
  {
   "bufferView": 93,
   "componentType": 5126,
   "count": 14,
   "type": "VEC4"
  },
  {
   "bufferView": 94,
   "componentType": 5126,
   "count": 14,
   "type": "VEC3"
  },
  {
   "bufferView": 95,
   "componentType": 5126,
   "count": 14,
   "type": "VEC3"
  },
  {
   "bufferView": 96,
   "componentType": 5126,
   "count": 14,
   "type": "VEC4"
  },
  {
   "bufferView": 97,
   "componentType": 5126,
   "count": 14,
   "type": "VEC3"
  },
  {
   "bufferView": 98,
   "componentType": 5126,
   "count": 14,
   "type": "VEC3"
  },
  {
   "bufferView": 99,
   "componentType": 5126,
   "count": 14,
   "type": "VEC4"
  },
  {
   "bufferView": 100,
   "componentType": 5126,
   "count": 14,
   "type": "VEC3"
  },
  {
   "bufferView": 101,
   "componentType": 5126,
   "count": 14,
   "type": "VEC3"
  },
  {
   "bufferView": 102,
   "componentType": 5126,
   "count": 14,
   "type": "VEC4"
  },
  {
   "bufferView": 103,
   "componentType": 5126,
   "count": 14,
   "type": "VEC3"
  },
  {
   "bufferView": 104,
   "componentType": 5126,
   "count": 14,
   "type": "VEC3"
  },
  {
   "bufferView": 105,
   "componentType": 5126,
   "count": 14,
   "type": "VEC4"
  },
  {
   "bufferView": 106,
   "componentType": 5126,
   "count": 14,
   "type": "VEC3"
  },
  {
   "bufferView": 107,
   "componentType": 5126,
   "count": 14,
   "type": "VEC3"
  },
  {
   "bufferView": 108,
   "componentType": 5126,
   "count": 14,
   "type": "VEC4"
  },
  {
   "bufferView": 109,
   "componentType": 5126,
   "count": 14,
   "type": "VEC3"
  },
  {
   "bufferView": 110,
   "componentType": 5126,
   "count": 14,
   "type": "VEC3"
  },
  {
   "bufferView": 111,
   "componentType": 5126,
   "count": 14,
   "type": "VEC4"
  },
  {
   "bufferView": 112,
   "componentType": 5126,
   "count": 14,
   "type": "VEC3"
  },
  {
   "bufferView": 113,
   "componentType": 5126,
   "count": 14,
   "type": "VEC3"
  },
  {
   "bufferView": 114,
   "componentType": 5126,
   "count": 14,
   "type": "VEC4"
  },
  {
   "bufferView": 115,
   "componentType": 5126,
   "count": 14,
   "type": "VEC3"
  },
  {
   "bufferView": 116,
   "componentType": 5126,
   "count": 39,
   "type": "MAT4"
  }
 ],
 "bufferViews": [
  {
   "buffer": 0,
   "byteLength": 56,
   "byteOffset": 0
  },
  {
   "buffer": 0,
   "byteLength": 168,
   "byteOffset": 56
  },
  {
   "buffer": 0,
   "byteLength": 224,
   "byteOffset": 224
  },
  {
   "buffer": 0,
   "byteLength": 168,
   "byteOffset": 448
  },
  {
   "buffer": 0,
   "byteLength": 168,
   "byteOffset": 616
  },
  {
   "buffer": 0,
   "byteLength": 224,
   "byteOffset": 784
  },
  {
   "buffer": 0,
   "byteLength": 168,
   "byteOffset": 1008
  },
  {
   "buffer": 0,
   "byteLength": 168,
   "byteOffset": 1176
  },
  {
   "buffer": 0,
   "byteLength": 224,
   "byteOffset": 1344
  },
  {
   "buffer": 0,
   "byteLength": 168,
   "byteOffset": 1568
  },
  {
   "buffer": 0,
   "byteLength": 168,
   "byteOffset": 1736
  },
  {
   "buffer": 0,
   "byteLength": 224,
   "byteOffset": 1904
  },
  {
   "buffer": 0,
   "byteLength": 168,
   "byteOffset": 2128
  },
  {
   "buffer": 0,
   "byteLength": 168,
   "byteOffset": 2296
  },
  {
   "buffer": 0,
   "byteLength": 224,
   "byteOffset": 2464
  },
  {
   "buffer": 0,
   "byteLength": 168,
   "byteOffset": 2688
  },
  {
   "buffer": 0,
   "byteLength": 168,
   "byteOffset": 2856
  },
  {
   "buffer": 0,
   "byteLength": 224,
   "byteOffset": 3024
  },
  {
   "buffer": 0,
   "byteLength": 168,
   "byteOffset": 3248
  },
  {
   "buffer": 0,
   "byteLength": 168,
   "byteOffset": 3416
  },
  {
   "buffer": 0,
   "byteLength": 224,
   "byteOffset": 3584
  },
  {
   "buffer": 0,
   "byteLength": 168,
   "byteOffset": 3808
  },
  {
   "buffer": 0,
   "byteLength": 168,
   "byteOffset": 3976
  },
  {
   "buffer": 0,
   "byteLength": 224,
   "byteOffset": 4144
  },
  {
   "buffer": 0,
   "byteLength": 168,
   "byteOffset": 4368
  },
  {
   "buffer": 0,
   "byteLength": 168,
   "byteOffset": 4536
  },
  {
   "buffer": 0,
   "byteLength": 224,
   "byteOffset": 4704
  },
  {
   "buffer": 0,
   "byteLength": 168,
   "byteOffset": 4928
  },
  {
   "buffer": 0,
   "byteLength": 168,
   "byteOffset": 5096
  },
  {
   "buffer": 0,
   "byteLength": 224,
   "byteOffset": 5264
  },
  {
   "buffer": 0,
   "byteLength": 168,
   "byteOffset": 5488
  },
  {
   "buffer": 0,
   "byteLength": 168,
   "byteOffset": 5656
  },
  {
   "buffer": 0,
   "byteLength": 224,
   "byteOffset": 5824
  },
  {
   "buffer": 0,
   "byteLength": 168,
   "byteOffset": 6048
  },
  {
   "buffer": 0,
   "byteLength": 168,
   "byteOffset": 6216
  },
  {
   "buffer": 0,
   "byteLength": 224,
   "byteOffset": 6384
  },
  {
   "buffer": 0,
   "byteLength": 168,
   "byteOffset": 6608
  },
  {
   "buffer": 0,
   "byteLength": 168,
   "byteOffset": 6776
  },
  {
   "buffer": 0,
   "byteLength": 224,
   "byteOffset": 6944
  },
  {
   "buffer": 0,
   "byteLength": 168,
   "byteOffset": 7168
  },
  {
   "buffer": 0,
   "byteLength": 168,
   "byteOffset": 7336
  },
  {
   "buffer": 0,
   "byteLength": 224,
   "byteOffset": 7504
  },
  {
   "buffer": 0,
   "byteLength": 168,
   "byteOffset": 7728
  },
  {
   "buffer": 0,
   "byteLength": 168,
   "byteOffset": 7896
  },
  {
   "buffer": 0,
   "byteLength": 224,
   "byteOffset": 8064
  },
  {
   "buffer": 0,
   "byteLength": 168,
   "byteOffset": 8288
  },
  {
   "buffer": 0,
   "byteLength": 168,
   "byteOffset": 8456
  },
  {
   "buffer": 0,
   "byteLength": 224,
   "byteOffset": 8624
  },
  {
   "buffer": 0,
   "byteLength": 168,
   "byteOffset": 8848
  },
  {
   "buffer": 0,
   "byteLength": 168,
   "byteOffset": 9016
  },
  {
   "buffer": 0,
   "byteLength": 224,
   "byteOffset": 9184
  },
  {
   "buffer": 0,
   "byteLength": 168,
   "byteOffset": 9408
  },
  {
   "buffer": 0,
   "byteLength": 168,
   "byteOffset": 9576
  },
  {
   "buffer": 0,
   "byteLength": 224,
   "byteOffset": 9744
  },
  {
   "buffer": 0,
   "byteLength": 168,
   "byteOffset": 9968
  },
  {
   "buffer": 0,
   "byteLength": 168,
   "byteOffset": 10136
  },
  {
   "buffer": 0,
   "byteLength": 224,
   "byteOffset": 10304
  },
  {
   "buffer": 0,
   "byteLength": 168,
   "byteOffset": 10528
  },
  {
   "buffer": 0,
   "byteLength": 168,
   "byteOffset": 10696
  },
  {
   "buffer": 0,
   "byteLength": 224,
   "byteOffset": 10864
  },
  {
   "buffer": 0,
   "byteLength": 168,
   "byteOffset": 11088
  },
  {
   "buffer": 0,
   "byteLength": 168,
   "byteOffset": 11256
  },
  {
   "buffer": 0,
   "byteLength": 224,
   "byteOffset": 11424
  },
  {
   "buffer": 0,
   "byteLength": 168,
   "byteOffset": 11648
  },
  {
   "buffer": 0,
   "byteLength": 168,
   "byteOffset": 11816
  },
  {
   "buffer": 0,
   "byteLength": 224,
   "byteOffset": 11984
  },
  {
   "buffer": 0,
   "byteLength": 168,
   "byteOffset": 12208
  },
  {
   "buffer": 0,
   "byteLength": 168,
   "byteOffset": 12376
  },
  {
   "buffer": 0,
   "byteLength": 224,
   "byteOffset": 12544
  },
  {
   "buffer": 0,
   "byteLength": 168,
   "byteOffset": 12768
  },
  {
   "buffer": 0,
   "byteLength": 168,
   "byteOffset": 12936
  },
  {
   "buffer": 0,
   "byteLength": 224,
   "byteOffset": 13104
  },
  {
   "buffer": 0,
   "byteLength": 168,
   "byteOffset": 13328
  },
  {
   "buffer": 0,
   "byteLength": 168,
   "byteOffset": 13496
  },
  {
   "buffer": 0,
   "byteLength": 224,
   "byteOffset": 13664
  },
  {
   "buffer": 0,
   "byteLength": 168,
   "byteOffset": 13888
  },
  {
   "buffer": 0,
   "byteLength": 168,
   "byteOffset": 14056
  },
  {
   "buffer": 0,
   "byteLength": 168,
   "byteOffset": 14224
  },
  {
   "buffer": 0,
   "byteLength": 224,
   "byteOffset": 14392
  },
  {
   "buffer": 0,
   "byteLength": 168,
   "byteOffset": 14616
  },
  {
   "buffer": 0,
   "byteLength": 168,
   "byteOffset": 14784
  },
  {
   "buffer": 0,
   "byteLength": 224,
   "byteOffset": 14952
  },
  {
   "buffer": 0,
   "byteLength": 168,
   "byteOffset": 15176
  },
  {
   "buffer": 0,
   "byteLength": 168,
   "byteOffset": 15344
  },
  {
   "buffer": 0,
   "byteLength": 224,
   "byteOffset": 15512
  },
  {
   "buffer": 0,
   "byteLength": 168,
   "byteOffset": 15736
  },
  {
   "buffer": 0,
   "byteLength": 168,
   "byteOffset": 15904
  },
  {
   "buffer": 0,
   "byteLength": 224,
   "byteOffset": 16072
  },
  {
   "buffer": 0,
   "byteLength": 168,
   "byteOffset": 16296
  },
  {
   "buffer": 0,
   "byteLength": 168,
   "byteOffset": 16464
  },
  {
   "buffer": 0,
   "byteLength": 224,
   "byteOffset": 16632
  },
  {
   "buffer": 0,
   "byteLength": 168,
   "byteOffset": 16856
  },
  {
   "buffer": 0,
   "byteLength": 168,
   "byteOffset": 17024
  },
  {
   "buffer": 0,
   "byteLength": 224,
   "byteOffset": 17192
  },
  {
   "buffer": 0,
   "byteLength": 168,
   "byteOffset": 17416
  },
  {
   "buffer": 0,
   "byteLength": 168,
   "byteOffset": 17584
  },
  {
   "buffer": 0,
   "byteLength": 224,
   "byteOffset": 17752
  },
  {
   "buffer": 0,
   "byteLength": 168,
   "byteOffset": 17976
  },
  {
   "buffer": 0,
   "byteLength": 168,
   "byteOffset": 18144
  },
  {
   "buffer": 0,
   "byteLength": 224,
   "byteOffset": 18312
  },
  {
   "buffer": 0,
   "byteLength": 168,
   "byteOffset": 18536
  },
  {
   "buffer": 0,
   "byteLength": 168,
   "byteOffset": 18704
  },
  {
   "buffer": 0,
   "byteLength": 224,
   "byteOffset": 18872
  },
  {
   "buffer": 0,
   "byteLength": 168,
   "byteOffset": 19096
  },
  {
   "buffer": 0,
   "byteLength": 168,
   "byteOffset": 19264
  },
  {
   "buffer": 0,
   "byteLength": 224,
   "byteOffset": 19432
  },
  {
   "buffer": 0,
   "byteLength": 168,
   "byteOffset": 19656
  },
  {
   "buffer": 0,
   "byteLength": 168,
   "byteOffset": 19824
  },
  {
   "buffer": 0,
   "byteLength": 224,
   "byteOffset": 19992
  },
  {
   "buffer": 0,
   "byteLength": 168,
   "byteOffset": 20216
  },
  {
   "buffer": 0,
   "byteLength": 168,
   "byteOffset": 20384
  },
  {
   "buffer": 0,
   "byteLength": 224,
   "byteOffset": 20552
  },
  {
   "buffer": 0,
   "byteLength": 168,
   "byteOffset": 20776
  },
  {
   "buffer": 0,
   "byteLength": 168,
   "byteOffset": 20944
  },
  {
   "buffer": 0,
   "byteLength": 224,
   "byteOffset": 21112
  },
  {
   "buffer": 0,
   "byteLength": 168,
   "byteOffset": 21336
  },
  {
   "buffer": 0,
   "byteLength": 2496,
   "byteOffset": 21504
  }
 ],
 "buffers": [
  {
   "byteLength": 24000,
   "uri": "deer_hind_run.bin"
  }
 ]
}