{
 "asset": {
  "generator": "Khronos glTF Blender I/O v4.5.51",
  "version": "2.0"
 },
 "scene": 0,
 "scenes": [
  {
   "name": "Scene",
   "nodes": [
    39
   ]
  }
 ],
 "nodes": [
  {
   "name": "jaw",
   "translation": [
    0,
    -0.04979819059371948,
    0.017472386360168457
   ]
  },
  {
   "name": "ear_l",
   "translation": [
    0.05118527635931969,
    -0.04229456186294556,
    0.09276020526885986
   ]
  },
  {
   "name": "ear_r",
   "translation": [
    -0.05118527635931969,
    -0.04229456186294556,
    0.09276020526885986
   ]
  },
  {
   "children": [
    0,
    1,
    2
   ],
   "name": "head",
   "translation": [
    0,
    -0.08700001239776611,
    0.156000018119812
   ]
  },
  {
   "children": [
    3
   ],
   "name": "neck_03",
   "translation": [
    0,
    -0.09860002994537354,
    0.17680001258850098
   ]
  },
  {
   "children": [
    4
   ],
   "name": "neck_02",
   "translation": [
    0,
    -0.10439997911453247,
    0.18720000982284546
   ]
  },
  {
   "children": [
    5
   ],
   "name": "neck_01",
   "translation": [
    0,
    -0.30000001192092896,
    -0.14000004529953003
   ]
  },
  {
   "name": "hoof_f_l",
   "translation": [
    0,
    -0.026000022888183594,
    -0.07000000029802322
   ]
  },
  {
   "children": [
    7
   ],
   "name": "pastern_f_l",
   "translation": [
    -0.00976341962814331,
    -0.007056117057800293,
    -0.2796577215194702
   ]
  },
  {
   "children": [
    8
   ],
   "name": "cannon_l",
   "translation": [
    -0.010180778801441193,
    -0.059960782527923584,
    -0.30023908615112305
   ]
  },
  {
   "children": [
    9
   ],
   "name": "radius_l",
   "translation": [
    -0.007055804133415222,
    0.19001692533493042,
    -0.17010319232940674
   ]
  },
  {
   "children": [
    10
   ],
   "name": "humerus_l",
   "translation": [
    0.06000000238418579,
    -0.20500001311302185,
    -0.23500001430511475
   ]
  },
  {
   "children": [
    11
   ],
   "name": "scapula_l",
   "translation": [
    0.054999999701976776,
    -0.14499999582767487,
    0.039999961853027344
   ]
  },
  {
   "name": "hoof_f_r",
   "translation": [
    0,
    -0.026000022888183594,
    -0.07000000029802322
   ]
  },
  {
   "children": [
    13
   ],
   "name": "pastern_f_r",
   "translation": [
    0.00976341962814331,
    -0.007056117057800293,
    -0.2796577215194702
   ]
  },
  {
   "children": [
    14
   ],
   "name": "cannon_r",
   "translation": [
    0.010180778801441193,
    -0.059960782527923584,
    -0.30023908615112305
   ]
  },
  {
   "children": [
    15
   ],
   "name": "radius_r",
   "translation": [
    0.007055804133415222,
    0.19001692533493042,
    -0.17010319232940674
   ]
  },
  {
   "children": [
    16
   ],
   "name": "humerus_r",
   "translation": [
    -0.06000000238418579,
    -0.20500001311302185,
    -0.23500001430511475
   ]
  },
  {
   "children": [
    17
   ],
   "name": "scapula_r",
   "translation": [
    -0.054999999701976776,
    -0.14499999582767487,
    0.039999961853027344
   ]
  },
  {
   "children": [
    6,
    12,
    18
   ],
   "name": "spine_03",
   "translation": [
    0,
    -0.2199999988079071,
    -0.014999985694885254
   ]
  },
  {
   "name": "ribs_l",
   "translation": [
    0.1599999964237213,
    -0.12000000476837158,
    -0.16500002145767212
   ]
  },
  {
   "name": "ribs_r",
   "translation": [
    -0.1599999964237213,
    -0.12000000476837158,
    -0.16500002145767212
   ]
  },
  {
   "children": [
    19,
    20,
    21
   ],
   "name": "spine_02",
   "translation": [
    0,
    -0.18000000715255737,
    -0.014999985694885254
   ]
  },
  {
   "children": [
    22
   ],
   "name": "spine_01",
   "translation": [
    0,
    -0.07000000774860382,
    -0.004999995231628418
   ]
  },
  {
   "name": "hoof_h_l",
   "translation": [
    0,
    -0.02799999713897705,
    -0.07000000029802322
   ]
  },
  {
   "children": [
    24
   ],
   "name": "pastern_h_l",
   "translation": [
    -0.0018849670886993408,
    -0.014998376369476318,
    -0.3400173485279083
   ]
  },
  {
   "children": [
    25
   ],
   "name": "metatarsus_l",
   "translation": [
    -0.00156392902135849,
    0.2700124680995941,
    -0.25513043999671936
   ]
  },
  {
   "children": [
    26
   ],
   "name": "tibia_l",
   "translation": [
    -0.001551106572151184,
    -0.17001411318778992,
    -0.29485219717025757
   ]
  },
  {
   "children": [
    27
   ],
   "name": "femur_l",
   "translation": [
    0.10000000149011612,
    0.1599999964237213,
    -0.09000003337860107
   ]
  },
  {
   "name": "hoof_h_r",
   "translation": [
    0,
    -0.02799999713897705,
    -0.07000000029802322
   ]
  },
  {
   "children": [
    29
   ],
   "name": "pastern_h_r",
   "translation": [
    0.0018849670886993408,
    -0.014998376369476318,
    -0.3400173485279083
   ]
  },
  {
   "children": [
    30
   ],
   "name": "metatarsus_r",
   "translation": [
    0.00156392902135849,
    0.2700124680995941,
    -0.25513043999671936
   ]
  },
  {
   "children": [
    31
   ],
   "name": "tibia_r",
   "translation": [
    0.001551106572151184,
    -0.17001411318778992,
    -0.29485219717025757
   ]
  },
  {
   "children": [
    32
   ],
   "name": "femur_r",
   "translation": [
    -0.10000000149011612,
    0.1599999964237213,
    -0.09000003337860107
   ]
  },
  {
   "name": "tail_03",
   "translation": [
    0,
    0.019999980926513672,
    -0.059999942779541016
   ]
  },
  {
   "children": [
    34
   ],
   "name": "tail_02",
   "translation": [
    0,
    0.0350000262260437,
    -0.019999980926513672
   ]
  },
  {
   "children": [
    35
   ],
   "name": "tail_01",
   "translation": [
    0,
    0.38499996066093445,
    -0.04500007629394531
   ]
  },
  {
   "children": [
    23,
    28,
    33,
    36
   ],
   "name": "hips",
   "translation": [
    0,
    0.27000001072883606,
    1.1050000190734863
   ]
  },
  {
   "children": [
    37
   ],
   "name": "root",
   "rotation": [
    -0.7071067690849304,
    0,
    0,
    0.7071067690849304
   ]
  },
  {
   "children": [
    38
   ],
   "name": "deer_rig"
  }
 ],
 "animations": [
  {
   "channels": [
    {
     "sampler": 0,
     "target": {
      "node": 38,
      "path": "translation"
     }
    },
    {
     "sampler": 1,
     "target": {
      "node": 38,
      "path": "rotation"
     }
    },
    {
     "sampler": 2,
     "target": {
      "node": 37,
      "path": "translation"
     }
    },
    {
     "sampler": 3,
     "target": {
      "node": 37,
      "path": "rotation"
     }
    },
    {
     "sampler": 4,
     "target": {
      "node": 23,
      "path": "translation"
     }
    },
    {
     "sampler": 5,
     "target": {
      "node": 23,
      "path": "rotation"
     }
    },
    {
     "sampler": 6,
     "target": {
      "node": 22,
      "path": "translation"
     }
    },
    {
     "sampler": 7,
     "target": {
      "node": 22,
      "path": "rotation"
     }
    },
    {
     "sampler": 8,
     "target": {
      "node": 19,
      "path": "translation"
     }
    },
    {
     "sampler": 9,
     "target": {
      "node": 19,
      "path": "rotation"
     }
    },
    {
     "sampler": 10,
     "target": {
      "node": 6,
      "path": "translation"
     }
    },
    {
     "sampler": 11,
     "target": {
      "node": 6,
      "path": "rotation"
     }
    },
    {
     "sampler": 12,
     "target": {
      "node": 5,
      "path": "translation"
     }
    },
    {
     "sampler": 13,
     "target": {
      "node": 5,
      "path": "rotation"
     }
    },
    {
     "sampler": 14,
     "target": {
      "node": 4,
      "path": "translation"
     }
    },
    {
     "sampler": 15,
     "target": {
      "node": 4,
      "path": "rotation"
     }
    },
    {
     "sampler": 16,
     "target": {
      "node": 3,
      "path": "translation"
     }
    },
    {
     "sampler": 17,
     "target": {
      "node": 3,
      "path": "rotation"
     }
    },
    {
     "sampler": 18,
     "target": {
      "node": 0,
      "path": "translation"
     }
    },
    {
     "sampler": 19,
     "target": {
      "node": 0,
      "path": "rotation"
     }
    },
    {
     "sampler": 20,
     "target": {
      "node": 1,
      "path": "translation"
     }
    },
    {
     "sampler": 21,
     "target": {
      "node": 1,
      "path": "rotation"
     }
    },
    {
     "sampler": 22,
     "target": {
      "node": 2,
      "path": "translation"
     }
    },
    {
     "sampler": 23,
     "target": {
      "node": 2,
      "path": "rotation"
     }
    },
    {
     "sampler": 24,
     "target": {
      "node": 12,
      "path": "translation"
     }
    },
    {
     "sampler": 25,
     "target": {
      "node": 12,
      "path": "rotation"
     }
    },
    {
     "sampler": 26,
     "target": {
      "node": 11,
      "path": "translation"
     }
    },
    {
     "sampler": 27,
     "target": {
      "node": 11,
      "path": "rotation"
     }
    },
    {
     "sampler": 28,
     "target": {
      "node": 10,
      "path": "translation"
     }
    },
    {
     "sampler": 29,
     "target": {
      "node": 10,
      "path": "rotation"
     }
    },
    {
     "sampler": 30,
     "target": {
      "node": 9,
      "path": "translation"
     }
    },
    {
     "sampler": 31,
     "target": {
      "node": 9,
      "path": "rotation"
     }
    },
    {
     "sampler": 32,
     "target": {
      "node": 8,
      "path": "translation"
     }
    },
    {
     "sampler": 33,
     "target": {
      "node": 8,
      "path": "rotation"
     }
    },
    {
     "sampler": 34,
     "target": {
      "node": 7,
      "path": "translation"
     }
    },
    {
     "sampler": 35,
     "target": {
      "node": 7,
      "path": "rotation"
     }
    },
    {
     "sampler": 36,
     "target": {
      "node": 18,
      "path": "translation"
     }
    },
    {
     "sampler": 37,
     "target": {
      "node": 18,
      "path": "rotation"
     }
    },
    {
     "sampler": 38,
     "target": {
      "node": 17,
      "path": "translation"
     }
    },
    {
     "sampler": 39,
     "target": {
      "node": 17,
      "path": "rotation"
     }
    },
    {
     "sampler": 40,
     "target": {
      "node": 16,
      "path": "translation"
     }
    },
    {
     "sampler": 41,
     "target": {
      "node": 16,
      "path": "rotation"
     }
    },
    {
     "sampler": 42,
     "target": {
      "node": 15,
      "path": "translation"
     }
    },
    {
     "sampler": 43,
     "target": {
      "node": 15,
      "path": "rotation"
     }
    },
    {
     "sampler": 44,
     "target": {
      "node": 14,
      "path": "translation"
     }
    },
    {
     "sampler": 45,
     "target": {
      "node": 14,
      "path": "rotation"
     }
    },
    {
     "sampler": 46,
     "target": {
      "node": 13,
      "path": "translation"
     }
    },
    {
     "sampler": 47,
     "target": {
      "node": 13,
      "path": "rotation"
     }
    },
    {
     "sampler": 48,
     "target": {
      "node": 20,
      "path": "translation"
     }
    },
    {
     "sampler": 49,
     "target": {
      "node": 20,
      "path": "rotation"
     }
    },
    {
     "sampler": 50,
     "target": {
      "node": 21,
      "path": "translation"
     }
    },
    {
     "sampler": 51,
     "target": {
      "node": 21,
      "path": "rotation"
     }
    },
    {
     "sampler": 52,
     "target": {
      "node": 28,
      "path": "translation"
     }
    },
    {
     "sampler": 53,
     "target": {
      "node": 28,
      "path": "rotation"
     }
    },
    {
     "sampler": 54,
     "target": {
      "node": 27,
      "path": "translation"
     }
    },
    {
     "sampler": 55,
     "target": {
      "node": 27,
      "path": "rotation"
     }
    },
    {
     "sampler": 56,
     "target": {
      "node": 26,
      "path": "translation"
     }
    },
    {
     "sampler": 57,
     "target": {
      "node": 26,
      "path": "rotation"
     }
    },
    {
     "sampler": 58,
     "target": {
      "node": 25,
      "path": "translation"
     }
    },
    {
     "sampler": 59,
     "target": {
      "node": 25,
      "path": "rotation"
     }
    },
    {
     "sampler": 60,
     "target": {
      "node": 24,
      "path": "translation"
     }
    },
    {
     "sampler": 61,
     "target": {
      "node": 24,
      "path": "rotation"
     }
    },
    {
     "sampler": 62,
     "target": {
      "node": 33,
      "path": "translation"
     }
    },
    {
     "sampler": 63,
     "target": {
      "node": 33,
      "path": "rotation"
     }
    },
    {
     "sampler": 64,
     "target": {
      "node": 32,
      "path": "translation"
     }
    },
    {
     "sampler": 65,
     "target": {
      "node": 32,
      "path": "rotation"
     }
    },
    {
     "sampler": 66,
     "target": {
      "node": 31,
      "path": "translation"
     }
    },
    {
     "sampler": 67,
     "target": {
      "node": 31,
      "path": "rotation"
     }
    },
    {
     "sampler": 68,
     "target": {
      "node": 30,
      "path": "translation"
     }
    },
    {
     "sampler": 69,
     "target": {
      "node": 30,
      "path": "rotation"
     }
    },
    {
     "sampler": 70,
     "target": {
      "node": 29,
      "path": "translation"
     }
    },
    {
     "sampler": 71,
     "target": {
      "node": 29,
      "path": "rotation"
     }
    },
    {
     "sampler": 72,
     "target": {
      "node": 36,
      "path": "translation"
     }
    },
    {
     "sampler": 73,
     "target": {
      "node": 36,
      "path": "rotation"
     }
    },
    {
     "sampler": 74,
     "target": {
      "node": 35,
      "path": "translation"
     }
    },
    {
     "sampler": 75,
     "target": {
      "node": 35,
      "path": "rotation"
     }
    },
    {
     "sampler": 76,
     "target": {
      "node": 34,
      "path": "translation"
     }
    },
    {
     "sampler": 77,
     "target": {
      "node": 34,
      "path": "rotation"
     }
    }
   ],
   "name": "deer_death",
   "samplers": [
    {
     "input": 0,
     "interpolation": "LINEAR",
     "output": 1
    },
    {
     "input": 0,
     "interpolation": "LINEAR",
     "output": 2
    },
    {
     "input": 0,
     "interpolation": "LINEAR",
     "output": 4
    },
    {
     "input": 0,
     "interpolation": "LINEAR",
     "output": 5
    },
    {
     "input": 0,
     "interpolation": "LINEAR",
     "output": 7
    },
    {
     "input": 0,
     "interpolation": "LINEAR",
     "output": 8
    },
    {
     "input": 0,
     "interpolation": "LINEAR",
     "output": 10
    },
    {
     "input": 0,
     "interpolation": "LINEAR",
     "output": 11
    },
    {
     "input": 0,
     "interpolation": "LINEAR",
     "output": 13
    },
    {
     "input": 0,
     "interpolation": "LINEAR",
     "output": 14
    },
    {
     "input": 0,
     "interpolation": "LINEAR",
     "output": 16
    },
    {
     "input": 0,
     "interpolation": "LINEAR",
     "output": 17
    },
    {
     "input": 0,
     "interpolation": "LINEAR",
     "output": 19
    },
    {
     "input": 0,
     "interpolation": "LINEAR",
     "output": 20
    },
    {
     "input": 0,
     "interpolation": "LINEAR",
     "output": 22
    },
    {
     "input": 0,
     "interpolation": "LINEAR",
     "output": 23
    },
    {
     "input": 0,
     "interpolation": "LINEAR",
     "output": 25
    },
    {
     "input": 0,
     "interpolation": "LINEAR",
     "output": 26
    },
    {
     "input": 0,
     "interpolation": "LINEAR",
     "output": 28
    },
    {
     "input": 0,
     "interpolation": "LINEAR",
     "output": 29
    },
    {
     "input": 0,
     "interpolation": "LINEAR",
     "output": 31
    },
    {
     "input": 0,
     "interpolation": "LINEAR",
     "output": 32
    },
    {
     "input": 0,
     "interpolation": "LINEAR",
     "output": 34
    },
    {
     "input": 0,
     "interpolation": "LINEAR",
     "output": 35
    },
    {
     "input": 0,
     "interpolation": "LINEAR",
     "output": 37
    },
    {
     "input": 0,
     "interpolation": "LINEAR",
     "output": 38
    },
    {
     "input": 0,
     "interpolation": "LINEAR",
     "output": 40
    },
    {
     "input": 0,
     "interpolation": "LINEAR",
     "output": 41
    },
    {
     "input": 0,
     "interpolation": "LINEAR",
     "output": 43
    },
    {
     "input": 0,
     "interpolation": "LINEAR",
     "output": 44
    },
    {
     "input": 0,
     "interpolation": "LINEAR",
     "output": 46
    },
    {
     "input": 0,
     "interpolation": "LINEAR",
     "output": 47
    },
    {
     "input": 0,
     "interpolation": "LINEAR",
     "output": 49
    },
    {
     "input": 0,
     "interpolation": "LINEAR",
     "output": 50
    },
    {
     "input": 0,
     "interpolation": "LINEAR",
     "output": 52
    },
    {
     "input": 0,
     "interpolation": "LINEAR",
     "output": 53
    },
    {
     "input": 0,
     "interpolation": "LINEAR",
     "output": 55
    },
    {
     "input": 0,
     "interpolation": "LINEAR",
     "output": 38
    },
    {
     "input": 0,
     "interpolation": "LINEAR",
     "output": 56
    },
    {
     "input": 0,
     "interpolation": "LINEAR",
     "output": 57
    },
    {
     "input": 0,
     "interpolation": "LINEAR",
     "output": 59
    },
    {
     "input": 0,
     "interpolation": "LINEAR",
     "output": 60
    },
    {
     "input": 0,
     "interpolation": "LINEAR",
     "output": 62
    },
    {
     "input": 0,
     "interpolation": "LINEAR",
     "output": 63
    },
    {
     "input": 0,
     "interpolation": "LINEAR",
     "output": 65
    },
    {
     "input": 0,
     "interpolation": "LINEAR",
     "output": 66
    },
    {
     "input": 0,
     "interpolation": "LINEAR",
     "output": 68
    },
    {
     "input": 0,
     "interpolation": "LINEAR",
     "output": 69
    },
    {
     "input": 0,
     "interpolation": "LINEAR",
     "output": 71
    },
    {
     "input": 0,
     "interpolation": "LINEAR",
     "output": 72
    },
    {
     "input": 0,
     "interpolation": "LINEAR",
     "output": 74
    },
    {
     "input": 0,
     "interpolation": "LINEAR",
     "output": 72
    },
    {
     "input": 0,
     "interpolation": "LINEAR",
     "output": 75
    },
    {
     "input": 0,
     "interpolation": "LINEAR",
     "output": 76
    },
    {
     "input": 0,
     "interpolation": "LINEAR",
     "output": 78
    },
    {
     "input": 0,
     "interpolation": "LINEAR",
     "output": 79
    },
    {
     "input": 0,
     "interpolation": "LINEAR",
     "output": 81
    },
    {
     "input": 0,
     "interpolation": "LINEAR",
     "output": 82
    },
    {
     "input": 0,
     "interpolation": "LINEAR",
     "output": 84
    },
    {
     "input": 0,
     "interpolation": "LINEAR",
     "output": 85
    },
    {
     "input": 0,
     "interpolation": "LINEAR",
     "output": 87
    },
    {
     "input": 0,
     "interpolation": "LINEAR",
     "output": 88
    },
    {
     "input": 0,
     "interpolation": "LINEAR",
     "output": 90
    },
    {
     "input": 0,
     "interpolation": "LINEAR",
     "output": 91
    },
    {
     "input": 0,
     "interpolation": "LINEAR",
     "output": 93
    },
    {
     "input": 0,
     "interpolation": "LINEAR",
     "output": 94
    },
    {
     "input": 0,
     "interpolation": "LINEAR",
     "output": 96
    },
    {
     "input": 0,
     "interpolation": "LINEAR",
     "output": 97
    },
    {
     "input": 0,
     "interpolation": "LINEAR",
     "output": 99
    },
    {
     "input": 0,
     "interpolation": "LINEAR",
     "output": 100
    },
    {
     "input": 0,
     "interpolation": "LINEAR",
     "output": 102
    },
    {
     "input": 0,
     "interpolation": "LINEAR",
     "output": 103
    },
    {
     "input": 0,
     "interpolation": "LINEAR",
     "output": 105
    },
    {
     "input": 0,
     "interpolation": "LINEAR",
     "output": 106
    },
    {
     "input": 0,
     "interpolation": "LINEAR",
     "output": 108
    },
    {
     "input": 0,
     "interpolation": "LINEAR",
     "output": 109
    },
    {
     "input": 0,
     "interpolation": "LINEAR",
     "output": 111
    },
    {
     "input": 0,
     "interpolation": "LINEAR",
     "output": 112
    }
   ]
  }
 ],
 "skins": [
  {
   "inverseBindMatrices": 114,
   "joints": [
    38,
    37,
    23,
    22,
    19,
    6,
    5,
    4,
    3,
    0,
    1,
    2,
    12,
    11,
    10,
    9,
    8,
    7,
    18,
    17,
    16,
    15,
    14,
    13,
    20,
    21,
    28,
    27,
    26,
    25,
    24,
    33,
    32,
    31,
    30,
    29,
    36,
    35,
    34
   ],
   "name": "deer_rig"
  }
 ],
 "accessors": [
  {
   "bufferView": 0,
   "componentType": 5126,
   "count": 55,
   "max": [
    1.8
   ],
   "min": [
    0
   ],
   "type": "SCALAR"
  },
  {
   "bufferView": 1,
   "componentType": 5126,
   "count": 55,
   "type": "VEC3"
  },
  {
   "bufferView": 2,
   "componentType": 5126,
   "count": 55,
   "type": "VEC4"
  },
  {
   "bufferView": 3,
   "componentType": 5126,
   "count": 55,
   "type": "VEC3"
  },
  {
   "bufferView": 4,
   "componentType": 5126,
   "count": 55,
   "type": "VEC3"
  },
  {
   "bufferView": 5,
   "componentType": 5126,
   "count": 55,
   "type": "VEC4"
  },
  {
   "bufferView": 6,
   "componentType": 5126,
   "count": 55,
   "type": "VEC3"
  },
  {
   "bufferView": 7,
   "componentType": 5126,
   "count": 55,
   "type": "VEC3"
  },
  {
   "bufferView": 8,
   "componentType": 5126,
   "count": 55,
   "type": "VEC4"
  },
  {
   "bufferView": 9,
   "componentType": 5126,
   "count": 55,
   "type": "VEC3"
  },
  {
   "bufferView": 10,
   "componentType": 5126,
   "count": 55,
   "type": "VEC3"
  },
  {
   "bufferView": 11,
   "componentType": 5126,
   "count": 55,
   "type": "VEC4"
  },
  {
   "bufferView": 12,
   "componentType": 5126,
   "count": 55,
   "type": "VEC3"
  },
  {
   "bufferView": 13,
   "componentType": 5126,
   "count": 55,
   "type": "VEC3"
  },
  {
   "bufferView": 14,
   "componentType": 5126,
   "count": 55,
   "type": "VEC4"
  },
  {
   "bufferView": 15,
   "componentType": 5126,
   "count": 55,
   "type": "VEC3"
  },
  {
   "bufferView": 16,
   "componentType": 5126,
   "count": 55,
   "type": "VEC3"
  },
  {
   "bufferView": 17,
   "componentType": 5126,
   "count": 55,
   "type": "VEC4"
  },
  {
   "bufferView": 18,
   "componentType": 5126,
   "count": 55,
   "type": "VEC3"
  },
  {
   "bufferView": 19,
   "componentType": 5126,
   "count": 55,
   "type": "VEC3"
  },
  {
   "bufferView": 20,
   "componentType": 5126,
   "count": 55,
   "type": "VEC4"
  },
  {
   "bufferView": 21,
   "componentType": 5126,
   "count": 55,
   "type": "VEC3"
  },
  {
   "bufferView": 22,
   "componentType": 5126,
   "count": 55,
   "type": "VEC3"
  },
  {
   "bufferView": 23,
   "componentType": 5126,
   "count": 55,
   "type": "VEC4"
  },
  {
   "bufferView": 24,
   "componentType": 5126,
   "count": 55,
   "type": "VEC3"
  },
  {
   "bufferView": 25,
   "componentType": 5126,
   "count": 55,
   "type": "VEC3"
  },
  {
   "bufferView": 26,
   "componentType": 5126,
   "count": 55,
   "type": "VEC4"
  },
  {
   "bufferView": 27,
   "componentType": 5126,
   "count": 55,
   "type": "VEC3"
  },
  {
   "bufferView": 28,
   "componentType": 5126,
   "count": 55,
   "type": "VEC3"
  },
  {
   "bufferView": 29,
   "componentType": 5126,
   "count": 55,
   "type": "VEC4"
  },
  {
   "bufferView": 30,
   "componentType": 5126,
   "count": 55,
   "type": "VEC3"
  },
  {
   "bufferView": 31,
   "componentType": 5126,
   "count": 55,
   "type": "VEC3"
  },
  {
   "bufferView": 32,
   "componentType": 5126,
   "count": 55,
   "type": "VEC4"
  },
  {
   "bufferView": 33,
   "componentType": 5126,
   "count": 55,
   "type": "VEC3"
  },
  {
   "bufferView": 34,
   "componentType": 5126,
   "count": 55,
   "type": "VEC3"
  },
  {
   "bufferView": 35,
   "componentType": 5126,
   "count": 55,
   "type": "VEC4"
  },
  {
   "bufferView": 36,
   "componentType": 5126,
   "count": 55,
   "type": "VEC3"
  },
  {
   "bufferView": 37,
   "componentType": 5126,
   "count": 55,
   "type": "VEC3"
  },
  {
   "bufferView": 38,
   "componentType": 5126,
   "count": 55,
   "type": "VEC4"
  },
  {
   "bufferView": 39,
   "componentType": 5126,
   "count": 55,
   "type": "VEC3"
  },
  {
   "bufferView": 40,
   "componentType": 5126,
   "count": 55,
   "type": "VEC3"
  },
  {
   "bufferView": 41,
   "componentType": 5126,
   "count": 55,
   "type": "VEC4"
  },
  {
   "bufferView": 42,
   "componentType": 5126,
   "count": 55,
   "type": "VEC3"
  },
  {
   "bufferView": 43,
   "componentType": 5126,
   "count": 55,
   "type": "VEC3"
  },
  {
   "bufferView": 44,
   "componentType": 5126,
   "count": 55,
   "type": "VEC4"
  },
  {
   "bufferView": 45,
   "componentType": 5126,
   "count": 55,
   "type": "VEC3"
  },
  {
   "bufferView": 46,
   "componentType": 5126,
   "count": 55,
   "type": "VEC3"
  },
  {
   "bufferView": 47,
   "componentType": 5126,
   "count": 55,
   "type": "VEC4"
  },
  {
   "bufferView": 48,
   "componentType": 5126,
   "count": 55,
   "type": "VEC3"
  },
  {
   "bufferView": 49,
   "componentType": 5126,
   "count": 55,
   "type": "VEC3"
  },
  {
   "bufferView": 50,
   "componentType": 5126,
   "count": 55,
   "type": "VEC4"
  },
  {
   "bufferView": 51,
   "componentType": 5126,
   "count": 55,
   "type": "VEC3"
  },
  {
   "bufferView": 52,
   "componentType": 5126,
   "count": 55,
   "type": "VEC3"
  },
  {
   "bufferView": 53,
   "componentType": 5126,
   "count": 55,
   "type": "VEC4"
  },
  {
   "bufferView": 54,
   "componentType": 5126,
   "count": 55,
   "type": "VEC3"
  },
  {
   "bufferView": 55,
   "componentType": 5126,
   "count": 55,
   "type": "VEC3"
  },
  {
   "bufferView": 56,
   "componentType": 5126,
   "count": 55,
   "type": "VEC3"
  },
  {
   "bufferView": 57,
   "componentType": 5126,
   "count": 55,
   "type": "VEC4"
  },
  {
   "bufferView": 58,
   "componentType": 5126,
   "count": 55,
   "type": "VEC3"
  },
  {
   "bufferView": 59,
   "componentType": 5126,
   "count": 55,
   "type": "VEC3"
  },
  {
   "bufferView": 60,
   "componentType": 5126,
   "count": 55,
   "type": "VEC4"
  },
  {
   "bufferView": 61,
   "componentType": 5126,
   "count": 55,
   "type": "VEC3"
  },
  {
   "bufferView": 62,
   "componentType": 5126,
   "count": 55,
   "type": "VEC3"
  },
  {
   "bufferView": 63,
   "componentType": 5126,
   "count": 55,
   "type": "VEC4"
  },
  {
   "bufferView": 64,
   "componentType": 5126,
   "count": 55,
   "type": "VEC3"
  },
  {
   "bufferView": 65,
   "componentType": 5126,
   "count": 55,
   "type": "VEC3"
  },
  {
   "bufferView": 66,
   "componentType": 5126,
   "count": 55,
   "type": "VEC4"
  },
  {
   "bufferView": 67,
   "componentType": 5126,
   "count": 55,
   "type": "VEC3"
  },
  {
   "bufferView": 68,
   "componentType": 5126,
   "count": 55,
   "type": "VEC3"
  },
  {
   "bufferView": 69,
   "componentType": 5126,
   "count": 55,
   "type": "VEC4"
  },
  {
   "bufferView": 70,
   "componentType": 5126,
   "count": 55,
   "type": "VEC3"
  },
  {
   "bufferView": 71,
   "componentType": 5126,
   "count": 55,
   "type": "VEC3"
  },
  {
   "bufferView": 72,
   "componentType": 5126,
   "count": 55,
   "type": "VEC4"
  },
  {
   "bufferView": 73,
   "componentType": 5126,
   "count": 55,
   "type": "VEC3"
  },
  {
   "bufferView": 74,
   "componentType": 5126,
   "count": 55,
   "type": "VEC3"
  },
  {
   "bufferView": 75,
   "componentType": 5126,
   "count": 55,
   "type": "VEC3"
  },
  {
   "bufferView": 76,
   "componentType": 5126,
   "count": 55,
   "type": "VEC4"
  },
  {
   "bufferView": 77,
   "componentType": 5126,
   "count": 55,
   "type": "VEC3"
  },
  {
   "bufferView": 78,
   "componentType": 5126,
   "count": 55,
   "type": "VEC3"
  },
  {
   "bufferView": 79,
   "componentType": 5126,
   "count": 55,
   "type": "VEC4"
  },
  {
   "bufferView": 80,
   "componentType": 5126,
   "count": 55,
   "type": "VEC3"
  },
  {
   "bufferView": 81,
   "componentType": 5126,
   "count": 55,
   "type": "VEC3"
  },
  {
   "bufferView": 82,
   "componentType": 5126,
   "count": 55,
   "type": "VEC4"
  },
  {
   "bufferView": 83,
   "componentType": 5126,
   "count": 55,
   "type": "VEC3"
  },
  {
   "bufferView": 84,
   "componentType": 5126,
   "count": 55,
   "type": "VEC3"
  },
  {
   "bufferView": 85,
   "componentType": 5126,
   "count": 55,
   "type": "VEC4"
  },
  {
   "bufferView": 86,
   "componentType": 5126,
   "count": 55,
   "type": "VEC3"
  },
  {
   "bufferView": 87,
   "componentType": 5126,
   "count": 55,
   "type": "VEC3"
  },
  {
   "bufferView": 88,
   "componentType": 5126,
   "count": 55,
   "type": "VEC4"
  },
  {
   "bufferView": 89,
   "componentType": 5126,
   "count": 55,
   "type": "VEC3"
  },
  {
   "bufferView": 90,
   "componentType": 5126,
   "count": 55,
   "type": "VEC3"
  },
  {
   "bufferView": 91,
   "componentType": 5126,
   "count": 55,
   "type": "VEC4"
  },
  {
   "bufferView": 92,
   "componentType": 5126,
   "count": 55,
   "type": "VEC3"
  },
  {
   "bufferView": 93,
   "componentType": 5126,
   "count": 55,
   "type": "VEC3"
  },
  {
   "bufferView": 94,
   "componentType": 5126,
   "count": 55,
   "type": "VEC4"
  },
  {
   "bufferView": 95,
   "componentType": 5126,
   "count": 55,
   "type": "VEC3"
  },
  {
   "bufferView": 96,
   "componentType": 5126,
   "count": 55,
   "type": "VEC3"
  },
  {
   "bufferView": 97,
   "componentType": 5126,
   "count": 55,
   "type": "VEC4"
  },
  {
   "bufferView": 98,
   "componentType": 5126,
   "count": 55,
   "type": "VEC3"
  },
  {
   "bufferView": 99,
   "componentType": 5126,
   "count": 55,
   "type": "VEC3"
  },
  {
   "bufferView": 100,
   "componentType": 5126,
   "count": 55,
   "type": "VEC4"
  },
  {
   "bufferView": 101,
   "componentType": 5126,
   "count": 55,
   "type": "VEC3"
  },
  {
   "bufferView": 102,
   "componentType": 5126,
   "count": 55,
   "type": "VEC3"
  },
  {
   "bufferView": 103,
   "componentType": 5126,
   "count": 55,
   "type": "VEC4"
  },
  {
   "bufferView": 104,
   "componentType": 5126,
   "count": 55,
   "type": "VEC3"
  },
  {
   "bufferView": 105,
   "componentType": 5126,
   "count": 55,
   "type": "VEC3"
  },
  {
   "bufferView": 106,
   "componentType": 5126,
   "count": 55,
   "type": "VEC4"
  },
  {
   "bufferView": 107,
   "componentType": 5126,
   "count": 55,
   "type": "VEC3"
  },
  {
   "bufferView": 108,
   "componentType": 5126,
   "count": 55,
   "type": "VEC3"
  },
  {
   "bufferView": 109,
   "componentType": 5126,
   "count": 55,
   "type": "VEC4"
  },
  {
   "bufferView": 110,
   "componentType": 5126,
   "count": 55,
   "type": "VEC3"
  },
  {
   "bufferView": 111,
   "componentType": 5126,
   "count": 55,
   "type": "VEC3"
  },
  {
   "bufferView": 112,
   "componentType": 5126,
   "count": 55,
   "type": "VEC4"
  },
  {
   "bufferView": 113,
   "componentType": 5126,
   "count": 55,
   "type": "VEC3"
  },
  {
   "bufferView": 114,
   "componentType": 5126,
   "count": 39,
   "type": "MAT4"
  }
 ],
 "bufferViews": [
  {
   "buffer": 0,
   "byteLength": 220,
   "byteOffset": 0
  },
  {
   "buffer": 0,
   "byteLength": 660,
   "byteOffset": 220
  },
  {
   "buffer": 0,
   "byteLength": 880,
   "byteOffset": 880
  },
  {
   "buffer": 0,
   "byteLength": 660,
   "byteOffset": 1760
  },
  {
   "buffer": 0,
   "byteLength": 660,
   "byteOffset": 2420
  },
  {
   "buffer": 0,
   "byteLength": 880,
   "byteOffset": 3080
  },
  {
   "buffer": 0,
   "byteLength": 660,
   "byteOffset": 3960
  },
  {
   "buffer": 0,
   "byteLength": 660,
   "byteOffset": 4620
  },
  {
   "buffer": 0,
   "byteLength": 880,
   "byteOffset": 5280
  },
  {
   "buffer": 0,
   "byteLength": 660,
   "byteOffset": 6160
  },
  {
   "buffer": 0,
   "byteLength": 660,
   "byteOffset": 6820
  },
  {
   "buffer": 0,
   "byteLength": 880,
   "byteOffset": 7480
  },
  {
   "buffer": 0,
   "byteLength": 660,
   "byteOffset": 8360
  },
  {
   "buffer": 0,
   "byteLength": 660,
   "byteOffset": 9020
  },
  {
   "buffer": 0,
   "byteLength": 880,
   "byteOffset": 9680
  },
  {
   "buffer": 0,
   "byteLength": 660,
   "byteOffset": 10560
  },
  {
   "buffer": 0,
   "byteLength": 660,
   "byteOffset": 11220
  },
  {
   "buffer": 0,
   "byteLength": 880,
   "byteOffset": 11880
  },
  {
   "buffer": 0,
   "byteLength": 660,
   "byteOffset": 12760
  },
  {
   "buffer": 0,
   "byteLength": 660,
   "byteOffset": 13420
  },
  {
   "buffer": 0,
   "byteLength": 880,
   "byteOffset": 14080
  },
  {
   "buffer": 0,
   "byteLength": 660,
   "byteOffset": 14960
  },
  {
   "buffer": 0,
   "byteLength": 660,
   "byteOffset": 15620
  },
  {
   "buffer": 0,
   "byteLength": 880,
   "byteOffset": 16280
  },
  {
   "buffer": 0,
   "byteLength": 660,
   "byteOffset": 17160
  },
  {
   "buffer": 0,
   "byteLength": 660,
   "byteOffset": 17820
  },
  {
   "buffer": 0,
   "byteLength": 880,
   "byteOffset": 18480
  },
  {
   "buffer": 0,
   "byteLength": 660,
   "byteOffset": 19360
  },
  {
   "buffer": 0,
   "byteLength": 660,
   "byteOffset": 20020
  },
  {
   "buffer": 0,
   "byteLength": 880,
   "byteOffset": 20680
  },
  {
   "buffer": 0,
   "byteLength": 660,
   "byteOffset": 21560
  },
  {
   "buffer": 0,
   "byteLength": 660,
   "byteOffset": 22220
  },
  {
   "buffer": 0,
   "byteLength": 880,
   "byteOffset": 22880
  },
  {
   "buffer": 0,
   "byteLength": 660,
   "byteOffset": 23760
  },
  {
   "buffer": 0,
   "byteLength": 660,
   "byteOffset": 24420
  },
  {
   "buffer": 0,
   "byteLength": 880,
   "byteOffset": 25080
  },
  {
   "buffer": 0,
   "byteLength": 660,
   "byteOffset": 25960
  },
  {
   "buffer": 0,
   "byteLength": 660,
   "byteOffset": 26620
  },
  {
   "buffer": 0,
   "byteLength": 880,
   "byteOffset": 27280
  },
  {
   "buffer": 0,
   "byteLength": 660,
   "byteOffset": 28160
  },
  {
   "buffer": 0,
   "byteLength": 660,
   "byteOffset": 28820
  },
  {
   "buffer": 0,
   "byteLength": 880,
   "byteOffset": 29480
  },
  {
   "buffer": 0,
   "byteLength": 660,
   "byteOffset": 30360
  },
  {
   "buffer": 0,
   "byteLength": 660,
   "byteOffset": 31020
  },
  {
   "buffer": 0,
   "byteLength": 880,
   "byteOffset": 31680
  },
  {
   "buffer": 0,
   "byteLength": 660,
   "byteOffset": 32560
  },
  {
   "buffer": 0,
   "byteLength": 660,
   "byteOffset": 33220
  },
  {
   "buffer": 0,
   "byteLength": 880,
   "byteOffset": 33880
  },
  {
   "buffer": 0,
   "byteLength": 660,
   "byteOffset": 34760
  },
  {
   "buffer": 0,
   "byteLength": 660,
   "byteOffset": 35420
  },
  {
   "buffer": 0,
   "byteLength": 880,
   "byteOffset": 36080
  },
  {
   "buffer": 0,
   "byteLength": 660,
   "byteOffset": 36960
  },
  {
   "buffer": 0,
   "byteLength": 660,
   "byteOffset": 37620
  },
  {
   "buffer": 0,
   "byteLength": 880,
   "byteOffset": 38280
  },
  {
   "buffer": 0,
   "byteLength": 660,
   "byteOffset": 39160
  },
  {
   "buffer": 0,
   "byteLength": 660,
   "byteOffset": 39820
  },
  {
   "buffer": 0,
   "byteLength": 660,
   "byteOffset": 40480
  },
  {
   "buffer": 0,
   "byteLength": 880,
   "byteOffset": 41140
  },
  {
   "buffer": 0,
   "byteLength": 660,
   "byteOffset": 42020
  },
  {
   "buffer": 0,
   "byteLength": 660,
   "byteOffset": 42680
  },
  {
   "buffer": 0,
   "byteLength": 880,
   "byteOffset": 43340
  },
  {
   "buffer": 0,
   "byteLength": 660,
   "byteOffset": 44220
  },
  {
   "buffer": 0,
   "byteLength": 660,
   "byteOffset": 44880
  },
  {
   "buffer": 0,
   "byteLength": 880,
   "byteOffset": 45540
  },
  {
   "buffer": 0,
   "byteLength": 660,
   "byteOffset": 46420
  },
  {
   "buffer": 0,
   "byteLength": 660,
   "byteOffset": 47080
  },
  {
   "buffer": 0,
   "byteLength": 880,
   "byteOffset": 47740
  },
  {
   "buffer": 0,
   "byteLength": 660,
   "byteOffset": 48620
  },
  {
   "buffer": 0,
   "byteLength": 660,
   "byteOffset": 49280
  },
  {
   "buffer": 0,
   "byteLength": 880,
   "byteOffset": 49940
  },
  {
   "buffer": 0,
   "byteLength": 660,
   "byteOffset": 50820
  },
  {
   "buffer": 0,
   "byteLength": 660,
   "byteOffset": 51480
  },
  {
   "buffer": 0,
   "byteLength": 880,
   "byteOffset": 52140
  },
  {
   "buffer": 0,
   "byteLength": 660,
   "byteOffset": 53020
  },
  {
   "buffer": 0,
   "byteLength": 660,
   "byteOffset": 53680
  },
  {
   "buffer": 0,
   "byteLength": 660,
   "byteOffset": 54340
  },
  {
   "buffer": 0,
   "byteLength": 880,
   "byteOffset": 55000
  },
  {
   "buffer": 0,
   "byteLength": 660,
   "byteOffset": 55880
  },
  {
   "buffer": 0,
   "byteLength": 660,
   "byteOffset": 56540
  },
  {
   "buffer": 0,
   "byteLength": 880,
   "byteOffset": 57200
  },
  {
   "buffer": 0,
   "byteLength": 660,
   "byteOffset": 58080
  },
  {
   "buffer": 0,
   "byteLength": 660,
   "byteOffset": 58740
  },
  {
   "buffer": 0,
   "byteLength": 880,
   "byteOffset": 59400
  },
  {
   "buffer": 0,
   "byteLength": 660,
   "byteOffset": 60280
  },
  {
   "buffer": 0,
   "byteLength": 660,
   "byteOffset": 60940
  },
  {
   "buffer": 0,
   "byteLength": 880,
   "byteOffset": 61600
  },
  {
   "buffer": 0,
   "byteLength": 660,
   "byteOffset": 62480
  },
  {
   "buffer": 0,
   "byteLength": 660,
   "byteOffset": 63140
  },
  {
   "buffer": 0,
   "byteLength": 880,
   "byteOffset": 63800
  },
  {
   "buffer": 0,
   "byteLength": 660,
   "byteOffset": 64680
  },
  {
   "buffer": 0,
   "byteLength": 660,
   "byteOffset": 65340
  },
  {
   "buffer": 0,
   "byteLength": 880,
   "byteOffset": 66000
  },
  {
   "buffer": 0,
   "byteLength": 660,
   "byteOffset": 66880
  },
  {
   "buffer": 0,
   "byteLength": 660,
   "byteOffset": 67540
  },
  {
   "buffer": 0,
   "byteLength": 880,
   "byteOffset": 68200
  },
  {
   "buffer": 0,
   "byteLength": 660,
   "byteOffset": 69080
  },
  {
   "buffer": 0,
   "byteLength": 660,
   "byteOffset": 69740
  },
  {
   "buffer": 0,
   "byteLength": 880,
   "byteOffset": 70400
  },
  {
   "buffer": 0,
   "byteLength": 660,
   "byteOffset": 71280
  },
  {
   "buffer": 0,
   "byteLength": 660,
   "byteOffset": 71940
  },
  {
   "buffer": 0,
   "byteLength": 880,
   "byteOffset": 72600
  },
  {
   "buffer": 0,
   "byteLength": 660,
   "byteOffset": 73480
  },
  {
   "buffer": 0,
   "byteLength": 660,
   "byteOffset": 74140
  },
  {
   "buffer": 0,
   "byteLength": 880,
   "byteOffset": 74800
  },
  {
   "buffer": 0,
   "byteLength": 660,
   "byteOffset": 75680
  },
  {
   "buffer": 0,
   "byteLength": 660,
   "byteOffset": 76340
  },
  {
   "buffer": 0,
   "byteLength": 880,
   "byteOffset": 77000
  },
  {
   "buffer": 0,
   "byteLength": 660,
   "byteOffset": 77880
  },
  {
   "buffer": 0,
   "byteLength": 660,
   "byteOffset": 78540
  },
  {
   "buffer": 0,
   "byteLength": 880,
   "byteOffset": 79200
  },
  {
   "buffer": 0,
   "byteLength": 660,
   "byteOffset": 80080
  },
  {
   "buffer": 0,
   "byteLength": 660,
   "byteOffset": 80740
  },
  {
   "buffer": 0,
   "byteLength": 880,
   "byteOffset": 81400
  },
  {
   "buffer": 0,
   "byteLength": 660,
   "byteOffset": 82280
  },
  {
   "buffer": 0,
   "byteLength": 2496,
   "byteOffset": 82940
  }
 ],
 "buffers": [
  {
   "byteLength": 85436,
   "uri": "deer_death.bin"
  }
 ]
}