{
 "asset": {
  "generator": "Khronos glTF Blender I/O v4.5.51",
  "version": "2.0"
 },
 "scene": 0,
 "scenes": [
  {
   "name": "Scene",
   "nodes": [
    39
   ]
  }
 ],
 "nodes": [
  {
   "name": "jaw",
   "translation": [
    0,
    -0.04979819059371948,
    0.017472386360168457
   ]
  },
  {
   "name": "ear_l",
   "translation": [
    0.05118527635931969,
    -0.04229456186294556,
    0.09276020526885986
   ]
  },
  {
   "name": "ear_r",
   "translation": [
    -0.05118527635931969,
    -0.04229456186294556,
    0.09276020526885986
   ]
  },
  {
   "children": [
    0,
    1,
    2
   ],
   "name": "head",
   "translation": [
    0,
    -0.08700001239776611,
    0.156000018119812
   ]
  },
  {
   "children": [
    3
   ],
   "name": "neck_03",
   "translation": [
    0,
    -0.09860002994537354,
    0.17680001258850098
   ]
  },
  {
   "children": [
    4
   ],
   "name": "neck_02",
   "translation": [
    0,
    -0.10439997911453247,
    0.18720000982284546
   ]
  },
  {
   "children": [
    5
   ],
   "name": "neck_01",
   "translation": [
    0,
    -0.30000001192092896,
    -0.14000004529953003
   ]
  },
  {
   "name": "hoof_f_l",
   "translation": [
    0,
    -0.026000022888183594,
    -0.07000000029802322
   ]
  },
  {
   "children": [
    7
   ],
   "name": "pastern_f_l",
   "translation": [
    -0.00976341962814331,
    -0.007056117057800293,
    -0.2796577215194702
   ]
  },
  {
   "children": [
    8
   ],
   "name": "cannon_l",
   "translation": [
    -0.010180778801441193,
    -0.059960782527923584,
    -0.30023908615112305
   ]
  },
  {
   "children": [
    9
   ],
   "name": "radius_l",
   "translation": [
    -0.007055804133415222,
    0.19001692533493042,
    -0.17010319232940674
   ]
  },
  {
   "children": [
    10
   ],
   "name": "humerus_l",
   "translation": [
    0.06000000238418579,
    -0.20500001311302185,
    -0.23500001430511475
   ]
  },
  {
   "children": [
    11
   ],
   "name": "scapula_l",
   "translation": [
    0.054999999701976776,
    -0.14499999582767487,
    0.039999961853027344
   ]
  },
  {
   "name": "hoof_f_r",
   "translation": [
    0,
    -0.026000022888183594,
    -0.07000000029802322
   ]
  },
  {
   "children": [
    13
   ],
   "name": "pastern_f_r",
   "translation": [
    0.00976341962814331,
    -0.007056117057800293,
    -0.2796577215194702
   ]
  },
  {
   "children": [
    14
   ],
   "name": "cannon_r",
   "translation": [
    0.010180778801441193,
    -0.059960782527923584,
    -0.30023908615112305
   ]
  },
  {
   "children": [
    15
   ],
   "name": "radius_r",
   "translation": [
    0.007055804133415222,
    0.19001692533493042,
    -0.17010319232940674
   ]
  },
  {
   "children": [
    16
   ],
   "name": "humerus_r",
   "translation": [
    -0.06000000238418579,
    -0.20500001311302185,
    -0.23500001430511475
   ]
  },
  {
   "children": [
    17
   ],
   "name": "scapula_r",
   "translation": [
    -0.054999999701976776,
    -0.14499999582767487,
    0.039999961853027344
   ]
  },
  {
   "children": [
    6,
    12,
    18
   ],
   "name": "spine_03",
   "translation": [
    0,
    -0.2199999988079071,
    -0.014999985694885254
   ]
  },
  {
   "name": "ribs_l",
   "translation": [
    0.1599999964237213,
    -0.12000000476837158,
    -0.16500002145767212
   ]
  },
  {
   "name": "ribs_r",
   "translation": [
    -0.1599999964237213,
    -0.12000000476837158,
    -0.16500002145767212
   ]
  },
  {
   "children": [
    19,
    20,
    21
   ],
   "name": "spine_02",
   "translation": [
    0,
    -0.18000000715255737,
    -0.014999985694885254
   ]
  },
  {
   "children": [
    22
   ],
   "name": "spine_01",
   "translation": [
    0,
    -0.07000000774860382,
    -0.004999995231628418
   ]
  },
  {
   "name": "hoof_h_l",
   "translation": [
    0,
    -0.02799999713897705,
    -0.07000000029802322
   ]
  },
  {
   "children": [
    24
   ],
   "name": "pastern_h_l",
   "translation": [
    -0.0018849670886993408,
    -0.014998376369476318,
    -0.3400173485279083
   ]
  },
  {
   "children": [
    25
   ],
   "name": "metatarsus_l",
   "translation": [
    -0.00156392902135849,
    0.2700124680995941,
    -0.25513043999671936
   ]
  },
  {
   "children": [
    26
   ],
   "name": "tibia_l",
   "translation": [
    -0.001551106572151184,
    -0.17001411318778992,
    -0.29485219717025757
   ]
  },
  {
   "children": [
    27
   ],
   "name": "femur_l",
   "translation": [
    0.10000000149011612,
    0.1599999964237213,
    -0.09000003337860107
   ]
  },
  {
   "name": "hoof_h_r",
   "translation": [
    0,
    -0.02799999713897705,
    -0.07000000029802322
   ]
  },
  {
   "children": [
    29
   ],
   "name": "pastern_h_r",
   "translation": [
    0.0018849670886993408,
    -0.014998376369476318,
    -0.3400173485279083
   ]
  },
  {
   "children": [
    30
   ],
   "name": "metatarsus_r",
   "translation": [
    0.00156392902135849,
    0.2700124680995941,
    -0.25513043999671936
   ]
  },
  {
   "children": [
    31
   ],
   "name": "tibia_r",
   "translation": [
    0.001551106572151184,
    -0.17001411318778992,
    -0.29485219717025757
   ]
  },
  {
   "children": [
    32
   ],
   "name": "femur_r",
   "translation": [
    -0.10000000149011612,
    0.1599999964237213,
    -0.09000003337860107
   ]
  },
  {
   "name": "tail_03",
   "translation": [
    0,
    0.019999980926513672,
    -0.059999942779541016
   ]
  },
  {
   "children": [
    34
   ],
   "name": "tail_02",
   "translation": [
    0,
    0.0350000262260437,
    -0.019999980926513672
   ]
  },
  {
   "children": [
    35
   ],
   "name": "tail_01",
   "translation": [
    0,
    0.38499996066093445,
    -0.04500007629394531
   ]
  },
  {
   "children": [
    23,
    28,
    33,
    36
   ],
   "name": "hips",
   "translation": [
    0,
    0.27000001072883606,
    1.1050000190734863
   ]
  },
  {
   "children": [
    37
   ],
   "name": "root",
   "rotation": [
    -0.7071067690849304,
    0,
    0,
    0.7071067690849304
   ]
  },
  {
   "children": [
    38
   ],
   "name": "deer_rig"
  }
 ],
 "animations": [
  {
   "channels": [
    {
     "sampler": 0,
     "target": {
      "node": 38,
      "path": "translation"
     }
    },
    {
     "sampler": 1,
     "target": {
      "node": 38,
      "path": "rotation"
     }
    },
    {
     "sampler": 2,
     "target": {
      "node": 37,
      "path": "translation"
     }
    },
    {
     "sampler": 3,
     "target": {
      "node": 37,
      "path": "rotation"
     }
    },
    {
     "sampler": 4,
     "target": {
      "node": 23,
      "path": "translation"
     }
    },
    {
     "sampler": 5,
     "target": {
      "node": 23,
      "path": "rotation"
     }
    },
    {
     "sampler": 6,
     "target": {
      "node": 22,
      "path": "translation"
     }
    },
    {
     "sampler": 7,
     "target": {
      "node": 22,
      "path": "rotation"
     }
    },
    {
     "sampler": 8,
     "target": {
      "node": 19,
      "path": "translation"
     }
    },
    {
     "sampler": 9,
     "target": {
      "node": 19,
      "path": "rotation"
     }
    },
    {
     "sampler": 10,
     "target": {
      "node": 6,
      "path": "translation"
     }
    },
    {
     "sampler": 11,
     "target": {
      "node": 6,
      "path": "rotation"
     }
    },
    {
     "sampler": 12,
     "target": {
      "node": 5,
      "path": "translation"
     }
    },
    {
     "sampler": 13,
     "target": {
      "node": 5,
      "path": "rotation"
     }
    },
    {
     "sampler": 14,
     "target": {
      "node": 4,
      "path": "translation"
     }
    },
    {
     "sampler": 15,
     "target": {
      "node": 4,
      "path": "rotation"
     }
    },
    {
     "sampler": 16,
     "target": {
      "node": 3,
      "path": "translation"
     }
    },
    {
     "sampler": 17,
     "target": {
      "node": 3,
      "path": "rotation"
     }
    },
    {
     "sampler": 18,
     "target": {
      "node": 0,
      "path": "translation"
     }
    },
    {
     "sampler": 19,
     "target": {
      "node": 0,
      "path": "rotation"
     }
    },
    {
     "sampler": 20,
     "target": {
      "node": 1,
      "path": "translation"
     }
    },
    {
     "sampler": 21,
     "target": {
      "node": 1,
      "path": "rotation"
     }
    },
    {
     "sampler": 22,
     "target": {
      "node": 2,
      "path": "translation"
     }
    },
    {
     "sampler": 23,
     "target": {
      "node": 2,
      "path": "rotation"
     }
    },
    {
     "sampler": 24,
     "target": {
      "node": 12,
      "path": "translation"
     }
    },
    {
     "sampler": 25,
     "target": {
      "node": 12,
      "path": "rotation"
     }
    },
    {
     "sampler": 26,
     "target": {
      "node": 11,
      "path": "translation"
     }
    },
    {
     "sampler": 27,
     "target": {
      "node": 11,
      "path": "rotation"
     }
    },
    {
     "sampler": 28,
     "target": {
      "node": 10,
      "path": "translation"
     }
    },
    {
     "sampler": 29,
     "target": {
      "node": 10,
      "path": "rotation"
     }
    },
    {
     "sampler": 30,
     "target": {
      "node": 9,
      "path": "translation"
     }
    },
    {
     "sampler": 31,
     "target": {
      "node": 9,
      "path": "rotation"
     }
    },
    {
     "sampler": 32,
     "target": {
      "node": 8,
      "path": "translation"
     }
    },
    {
     "sampler": 33,
     "target": {
      "node": 8,
      "path": "rotation"
     }
    },
    {
     "sampler": 34,
     "target": {
      "node": 7,
      "path": "translation"
     }
    },
    {
     "sampler": 35,
     "target": {
      "node": 7,
      "path": "rotation"
     }
    },
    {
     "sampler": 36,
     "target": {
      "node": 18,
      "path": "translation"
     }
    },
    {
     "sampler": 37,
     "target": {
      "node": 18,
      "path": "rotation"
     }
    },
    {
     "sampler": 38,
     "target": {
      "node": 17,
      "path": "translation"
     }
    },
    {
     "sampler": 39,
     "target": {
      "node": 17,
      "path": "rotation"
     }
    },
    {
     "sampler": 40,
     "target": {
      "node": 16,
      "path": "translation"
     }
    },
    {
     "sampler": 41,
     "target": {
      "node": 16,
      "path": "rotation"
     }
    },
    {
     "sampler": 42,
     "target": {
      "node": 15,
      "path": "translation"
     }
    },
    {
     "sampler": 43,
     "target": {
      "node": 15,
      "path": "rotation"
     }
    },
    {
     "sampler": 44,
     "target": {
      "node": 14,
      "path": "translation"
     }
    },
    {
     "sampler": 45,
     "target": {
      "node": 14,
      "path": "rotation"
     }
    },
    {
     "sampler": 46,
     "target": {
      "node": 13,
      "path": "translation"
     }
    },
    {
     "sampler": 47,
     "target": {
      "node": 13,
      "path": "rotation"
     }
    },
    {
     "sampler": 48,
     "target": {
      "node": 20,
      "path": "translation"
     }
    },
    {
     "sampler": 49,
     "target": {
      "node": 20,
      "path": "rotation"
     }
    },
    {
     "sampler": 50,
     "target": {
      "node": 21,
      "path": "translation"
     }
    },
    {
     "sampler": 51,
     "target": {
      "node": 21,
      "path": "rotation"
     }
    },
    {
     "sampler": 52,
     "target": {
      "node": 28,
      "path": "translation"
     }
    },
    {
     "sampler": 53,
     "target": {
      "node": 28,
      "path": "rotation"
     }
    },
    {
     "sampler": 54,
     "target": {
      "node": 27,
      "path": "translation"
     }
    },
    {
     "sampler": 55,
     "target": {
      "node": 27,
      "path": "rotation"
     }
    },
    {
     "sampler": 56,
     "target": {
      "node": 26,
      "path": "translation"
     }
    },
    {
     "sampler": 57,
     "target": {
      "node": 26,
      "path": "rotation"
     }
    },
    {
     "sampler": 58,
     "target": {
      "node": 25,
      "path": "translation"
     }
    },
    {
     "sampler": 59,
     "target": {
      "node": 25,
      "path": "rotation"
     }
    },
    {
     "sampler": 60,
     "target": {
      "node": 24,
      "path": "translation"
     }
    },
    {
     "sampler": 61,
     "target": {
      "node": 24,
      "path": "rotation"
     }
    },
    {
     "sampler": 62,
     "target": {
      "node": 33,
      "path": "translation"
     }
    },
    {
     "sampler": 63,
     "target": {
      "node": 33,
      "path": "rotation"
     }
    },
    {
     "sampler": 64,
     "target": {
      "node": 32,
      "path": "translation"
     }
    },
    {
     "sampler": 65,
     "target": {
      "node": 32,
      "path": "rotation"
     }
    },
    {
     "sampler": 66,
     "target": {
      "node": 31,
      "path": "translation"
     }
    },
    {
     "sampler": 67,
     "target": {
      "node": 31,
      "path": "rotation"
     }
    },
    {
     "sampler": 68,
     "target": {
      "node": 30,
      "path": "translation"
     }
    },
    {
     "sampler": 69,
     "target": {
      "node": 30,
      "path": "rotation"
     }
    },
    {
     "sampler": 70,
     "target": {
      "node": 29,
      "path": "translation"
     }
    },
    {
     "sampler": 71,
     "target": {
      "node": 29,
      "path": "rotation"
     }
    },
    {
     "sampler": 72,
     "target": {
      "node": 36,
      "path": "translation"
     }
    },
    {
     "sampler": 73,
     "target": {
      "node": 36,
      "path": "rotation"
     }
    },
    {
     "sampler": 74,
     "target": {
      "node": 35,
      "path": "translation"
     }
    },
    {
     "sampler": 75,
     "target": {
      "node": 35,
      "path": "rotation"
     }
    },
    {
     "sampler": 76,
     "target": {
      "node": 34,
      "path": "translation"
     }
    },
    {
     "sampler": 77,
     "target": {
      "node": 34,
      "path": "rotation"
     }
    }
   ],
   "name": "deer_idle_look",
   "samplers": [
    {
     "input": 0,
     "interpolation": "LINEAR",
     "output": 1
    },
    {
     "input": 0,
     "interpolation": "LINEAR",
     "output": 2
    },
    {
     "input": 0,
     "interpolation": "LINEAR",
     "output": 4
    },
    {
     "input": 0,
     "interpolation": "LINEAR",
     "output": 5
    },
    {
     "input": 0,
     "interpolation": "LINEAR",
     "output": 7
    },
    {
     "input": 0,
     "interpolation": "LINEAR",
     "output": 8
    },
    {
     "input": 0,
     "interpolation": "LINEAR",
     "output": 10
    },
    {
     "input": 0,
     "interpolation": "LINEAR",
     "output": 11
    },
    {
     "input": 0,
     "interpolation": "LINEAR",
     "output": 13
    },
    {
     "input": 0,
     "interpolation": "LINEAR",
     "output": 14
    },
    {
     "input": 0,
     "interpolation": "LINEAR",
     "output": 16
    },
    {
     "input": 0,
     "interpolation": "LINEAR",
     "output": 17
    },
    {
     "input": 0,
     "interpolation": "LINEAR",
     "output": 19
    },
    {
     "input": 0,
     "interpolation": "LINEAR",
     "output": 20
    },
    {
     "input": 0,
     "interpolation": "LINEAR",
     "output": 22
    },
    {
     "input": 0,
     "interpolation": "LINEAR",
     "output": 23
    },
    {
     "input": 0,
     "interpolation": "LINEAR",
     "output": 25
    },
    {
     "input": 0,
     "interpolation": "LINEAR",
     "output": 26
    },
    {
     "input": 0,
     "interpolation": "LINEAR",
     "output": 28
    },
    {
     "input": 0,
     "interpolation": "LINEAR",
     "output": 29
    },
    {
     "input": 0,
     "interpolation": "LINEAR",
     "output": 31
    },
    {
     "input": 0,
     "interpolation": "LINEAR",
     "output": 32
    },
    {
     "input": 0,
     "interpolation": "LINEAR",
     "output": 34
    },
    {
     "input": 0,
     "interpolation": "LINEAR",
     "output": 35
    },
    {
     "input": 0,
     "interpolation": "LINEAR",
     "output": 37
    },
    {
     "input": 0,
     "interpolation": "LINEAR",
     "output": 38
    },
    {
     "input": 0,
     "interpolation": "LINEAR",
     "output": 40
    },
    {
     "input": 0,
     "interpolation": "LINEAR",
     "output": 41
    },
    {
     "input": 0,
     "interpolation": "LINEAR",
     "output": 43
    },
    {
     "input": 0,
     "interpolation": "LINEAR",
     "output": 44
    },
    {
     "input": 0,
     "interpolation": "LINEAR",
     "output": 46
    },
    {
     "input": 0,
     "interpolation": "LINEAR",
     "output": 47
    },
    {
     "input": 0,
     "interpolation": "LINEAR",
     "output": 49
    },
    {
     "input": 0,
     "interpolation": "LINEAR",
     "output": 50
    },
    {
     "input": 0,
     "interpolation": "LINEAR",
     "output": 52
    },
    {
     "input": 0,
     "interpolation": "LINEAR",
     "output": 53
    },
    {
     "input": 0,
     "interpolation": "LINEAR",
     "output": 55
    },
    {
     "input": 0,
     "interpolation": "LINEAR",
     "output": 56
    },
    {
     "input": 0,
     "interpolation": "LINEAR",
     "output": 57
    },
    {
     "input": 0,
     "interpolation": "LINEAR",
     "output": 58
    },
    {
     "input": 0,
     "interpolation": "LINEAR",
     "output": 60
    },
    {
     "input": 0,
     "interpolation": "LINEAR",
     "output": 61
    },
    {
     "input": 0,
     "interpolation": "LINEAR",
     "output": 63
    },
    {
     "input": 0,
     "interpolation": "LINEAR",
     "output": 64
    },
    {
     "input": 0,
     "interpolation": "LINEAR",
     "output": 66
    },
    {
     "input": 0,
     "interpolation": "LINEAR",
     "output": 67
    },
    {
     "input": 0,
     "interpolation": "LINEAR",
     "output": 69
    },
    {
     "input": 0,
     "interpolation": "LINEAR",
     "output": 70
    },
    {
     "input": 0,
     "interpolation": "LINEAR",
     "output": 72
    },
    {
     "input": 0,
     "interpolation": "LINEAR",
     "output": 73
    },
    {
     "input": 0,
     "interpolation": "LINEAR",
     "output": 75
    },
    {
     "input": 0,
     "interpolation": "LINEAR",
     "output": 73
    },
    {
     "input": 0,
     "interpolation": "LINEAR",
     "output": 76
    },
    {
     "input": 0,
     "interpolation": "LINEAR",
     "output": 77
    },
    {
     "input": 0,
     "interpolation": "LINEAR",
     "output": 79
    },
    {
     "input": 0,
     "interpolation": "LINEAR",
     "output": 80
    },
    {
     "input": 0,
     "interpolation": "LINEAR",
     "output": 82
    },
    {
     "input": 0,
     "interpolation": "LINEAR",
     "output": 83
    },
    {
     "input": 0,
     "interpolation": "LINEAR",
     "output": 85
    },
    {
     "input": 0,
     "interpolation": "LINEAR",
     "output": 86
    },
    {
     "input": 0,
     "interpolation": "LINEAR",
     "output": 88
    },
    {
     "input": 0,
     "interpolation": "LINEAR",
     "output": 89
    },
    {
     "input": 0,
     "interpolation": "LINEAR",
     "output": 91
    },
    {
     "input": 0,
     "interpolation": "LINEAR",
     "output": 92
    },
    {
     "input": 0,
     "interpolation": "LINEAR",
     "output": 94
    },
    {
     "input": 0,
     "interpolation": "LINEAR",
     "output": 95
    },
    {
     "input": 0,
     "interpolation": "LINEAR",
     "output": 97
    },
    {
     "input": 0,
     "interpolation": "LINEAR",
     "output": 98
    },
    {
     "input": 0,
     "interpolation": "LINEAR",
     "output": 100
    },
    {
     "input": 0,
     "interpolation": "LINEAR",
     "output": 101
    },
    {
     "input": 0,
     "interpolation": "LINEAR",
     "output": 103
    },
    {
     "input": 0,
     "interpolation": "LINEAR",
     "output": 104
    },
    {
     "input": 0,
     "interpolation": "LINEAR",
     "output": 106
    },
    {
     "input": 0,
     "interpolation": "LINEAR",
     "output": 107
    },
    {
     "input": 0,
     "interpolation": "LINEAR",
     "output": 109
    },
    {
     "input": 0,
     "interpolation": "LINEAR",
     "output": 110
    },
    {
     "input": 0,
     "interpolation": "LINEAR",
     "output": 112
    },
    {
     "input": 0,
     "interpolation": "LINEAR",
     "output": 113
    }
   ]
  }
 ],
 "skins": [
  {
   "inverseBindMatrices": 115,
   "joints": [
    38,
    37,
    23,
    22,
    19,
    6,
    5,
    4,
    3,
    0,
    1,
    2,
    12,
    11,
    10,
    9,
    8,
    7,
    18,
    17,
    16,
    15,
    14,
    13,
    20,
    21,
    28,
    27,
    26,
    25,
    24,
    33,
    32,
    31,
    30,
    29,
    36,
    35,
    34
   ],
   "name": "deer_rig"
  }
 ],
 "accessors": [
  {
   "bufferView": 0,
   "componentType": 5126,
   "count": 121,
   "max": [
    4
   ],
   "min": [
    0
   ],
   "type": "SCALAR"
  },
  {
   "bufferView": 1,
   "componentType": 5126,
   "count": 121,
   "type": "VEC3"
  },
  {
   "bufferView": 2,
   "componentType": 5126,
   "count": 121,
   "type": "VEC4"
  },
  {
   "bufferView": 3,
   "componentType": 5126,
   "count": 121,
   "type": "VEC3"
  },
  {
   "bufferView": 4,
   "componentType": 5126,
   "count": 121,
   "type": "VEC3"
  },
  {
   "bufferView": 5,
   "componentType": 5126,
   "count": 121,
   "type": "VEC4"
  },
  {
   "bufferView": 6,
   "componentType": 5126,
   "count": 121,
   "type": "VEC3"
  },
  {
   "bufferView": 7,
   "componentType": 5126,
   "count": 121,
   "type": "VEC3"
  },
  {
   "bufferView": 8,
   "componentType": 5126,
   "count": 121,
   "type": "VEC4"
  },
  {
   "bufferView": 9,
   "componentType": 5126,
   "count": 121,
   "type": "VEC3"
  },
  {
   "bufferView": 10,
   "componentType": 5126,
   "count": 121,
   "type": "VEC3"
  },
  {
   "bufferView": 11,
   "componentType": 5126,
   "count": 121,
   "type": "VEC4"
  },
  {
   "bufferView": 12,
   "componentType": 5126,
   "count": 121,
   "type": "VEC3"
  },
  {
   "bufferView": 13,
   "componentType": 5126,
   "count": 121,
   "type": "VEC3"
  },
  {
   "bufferView": 14,
   "componentType": 5126,
   "count": 121,
   "type": "VEC4"
  },
  {
   "bufferView": 15,
   "componentType": 5126,
   "count": 121,
   "type": "VEC3"
  },
  {
   "bufferView": 16,
   "componentType": 5126,
   "count": 121,
   "type": "VEC3"
  },
  {
   "bufferView": 17,
   "componentType": 5126,
   "count": 121,
   "type": "VEC4"
  },
  {
   "bufferView": 18,
   "componentType": 5126,
   "count": 121,
   "type": "VEC3"
  },
  {
   "bufferView": 19,
   "componentType": 5126,
   "count": 121,
   "type": "VEC3"
  },
  {
   "bufferView": 20,
   "componentType": 5126,
   "count": 121,
   "type": "VEC4"
  },
  {
   "bufferView": 21,
   "componentType": 5126,
   "count": 121,
   "type": "VEC3"
  },
  {
   "bufferView": 22,
   "componentType": 5126,
   "count": 121,
   "type": "VEC3"
  },
  {
   "bufferView": 23,
   "componentType": 5126,
   "count": 121,
   "type": "VEC4"
  },
  {
   "bufferView": 24,
   "componentType": 5126,
   "count": 121,
   "type": "VEC3"
  },
  {
   "bufferView": 25,
   "componentType": 5126,
   "count": 121,
   "type": "VEC3"
  },
  {
   "bufferView": 26,
   "componentType": 5126,
   "count": 121,
   "type": "VEC4"
  },
  {
   "bufferView": 27,
   "componentType": 5126,
   "count": 121,
   "type": "VEC3"
  },
  {
   "bufferView": 28,
   "componentType": 5126,
   "count": 121,
   "type": "VEC3"
  },
  {
   "bufferView": 29,
   "componentType": 5126,
   "count": 121,
   "type": "VEC4"
  },
  {
   "bufferView": 30,
   "componentType": 5126,
   "count": 121,
   "type": "VEC3"
  },
  {
   "bufferView": 31,
   "componentType": 5126,
   "count": 121,
   "type": "VEC3"
  },
  {
   "bufferView": 32,
   "componentType": 5126,
   "count": 121,
   "type": "VEC4"
  },
  {
   "bufferView": 33,
   "componentType": 5126,
   "count": 121,
   "type": "VEC3"
  },
  {
   "bufferView": 34,
   "componentType": 5126,
   "count": 121,
   "type": "VEC3"
  },
  {
   "bufferView": 35,
   "componentType": 5126,
   "count": 121,
   "type": "VEC4"
  },
  {
   "bufferView": 36,
   "componentType": 5126,
   "count": 121,
   "type": "VEC3"
  },
  {
   "bufferView": 37,
   "componentType": 5126,
   "count": 121,
   "type": "VEC3"
  },
  {
   "bufferView": 38,
   "componentType": 5126,
   "count": 121,
   "type": "VEC4"
  },
  {
   "bufferView": 39,
   "componentType": 5126,
   "count": 121,
   "type": "VEC3"
  },
  {
   "bufferView": 40,
   "componentType": 5126,
   "count": 121,
   "type": "VEC3"
  },
  {
   "bufferView": 41,
   "componentType": 5126,
   "count": 121,
   "type": "VEC4"
  },
  {
   "bufferView": 42,
   "componentType": 5126,
   "count": 121,
   "type": "VEC3"
  },
  {
   "bufferView": 43,
   "componentType": 5126,
   "count": 121,
   "type": "VEC3"
  },
  {
   "bufferView": 44,
   "componentType": 5126,
   "count": 121,
   "type": "VEC4"
  },
  {
   "bufferView": 45,
   "componentType": 5126,
   "count": 121,
   "type": "VEC3"
  },
  {
   "bufferView": 46,
   "componentType": 5126,
   "count": 121,
   "type": "VEC3"
  },
  {
   "bufferView": 47,
   "componentType": 5126,
   "count": 121,
   "type": "VEC4"
  },
  {
   "bufferView": 48,
   "componentType": 5126,
   "count": 121,
   "type": "VEC3"
  },
  {
   "bufferView": 49,
   "componentType": 5126,
   "count": 121,
   "type": "VEC3"
  },
  {
   "bufferView": 50,
   "componentType": 5126,
   "count": 121,
   "type": "VEC4"
  },
  {
   "bufferView": 51,
   "componentType": 5126,
   "count": 121,
   "type": "VEC3"
  },
  {
   "bufferView": 52,
   "componentType": 5126,
   "count": 121,
   "type": "VEC3"
  },
  {
   "bufferView": 53,
   "componentType": 5126,
   "count": 121,
   "type": "VEC4"
  },
  {
   "bufferView": 54,
   "componentType": 5126,
   "count": 121,
   "type": "VEC3"
  },
  {
   "bufferView": 55,
   "componentType": 5126,
   "count": 121,
   "type": "VEC3"
  },
  {
   "bufferView": 56,
   "componentType": 5126,
   "count": 121,
   "type": "VEC4"
  },
  {
   "bufferView": 57,
   "componentType": 5126,
   "count": 121,
   "type": "VEC3"
  },
  {
   "bufferView": 58,
   "componentType": 5126,
   "count": 121,
   "type": "VEC4"
  },
  {
   "bufferView": 59,
   "componentType": 5126,
   "count": 121,
   "type": "VEC3"
  },
  {
   "bufferView": 60,
   "componentType": 5126,
   "count": 121,
   "type": "VEC3"
  },
  {
   "bufferView": 61,
   "componentType": 5126,
   "count": 121,
   "type": "VEC4"
  },
  {
   "bufferView": 62,
   "componentType": 5126,
   "count": 121,
   "type": "VEC3"
  },
  {
   "bufferView": 63,
   "componentType": 5126,
   "count": 121,
   "type": "VEC3"
  },
  {
   "bufferView": 64,
   "componentType": 5126,
   "count": 121,
   "type": "VEC4"
  },
  {
   "bufferView": 65,
   "componentType": 5126,
   "count": 121,
   "type": "VEC3"
  },
  {
   "bufferView": 66,
   "componentType": 5126,
   "count": 121,
   "type": "VEC3"
  },
  {
   "bufferView": 67,
   "componentType": 5126,
   "count": 121,
   "type": "VEC4"
  },
  {
   "bufferView": 68,
   "componentType": 5126,
   "count": 121,
   "type": "VEC3"
  },
  {
   "bufferView": 69,
   "componentType": 5126,
   "count": 121,
   "type": "VEC3"
  },
  {
   "bufferView": 70,
   "componentType": 5126,
   "count": 121,
   "type": "VEC4"
  },
  {
   "bufferView": 71,
   "componentType": 5126,
   "count": 121,
   "type": "VEC3"
  },
  {
   "bufferView": 72,
   "componentType": 5126,
   "count": 121,
   "type": "VEC3"
  },
  {
   "bufferView": 73,
   "componentType": 5126,
   "count": 121,
   "type": "VEC4"
  },
  {
   "bufferView": 74,
   "componentType": 5126,
   "count": 121,
   "type": "VEC3"
  },
  {
   "bufferView": 75,
   "componentType": 5126,
   "count": 121,
   "type": "VEC3"
  },
  {
   "bufferView": 76,
   "componentType": 5126,
   "count": 121,
   "type": "VEC3"
  },
  {
   "bufferView": 77,
   "componentType": 5126,
   "count": 121,
   "type": "VEC4"
  },
  {
   "bufferView": 78,
   "componentType": 5126,
   "count": 121,
   "type": "VEC3"
  },
  {
   "bufferView": 79,
   "componentType": 5126,
   "count": 121,
   "type": "VEC3"
  },
  {
   "bufferView": 80,
   "componentType": 5126,
   "count": 121,
   "type": "VEC4"
  },
  {
   "bufferView": 81,
   "componentType": 5126,
   "count": 121,
   "type": "VEC3"
  },
  {
   "bufferView": 82,
   "componentType": 5126,
   "count": 121,
   "type": "VEC3"
  },
  {
   "bufferView": 83,
   "componentType": 5126,
   "count": 121,
   "type": "VEC4"
  },
  {
   "bufferView": 84,
   "componentType": 5126,
   "count": 121,
   "type": "VEC3"
  },
  {
   "bufferView": 85,
   "componentType": 5126,
   "count": 121,
   "type": "VEC3"
  },
  {
   "bufferView": 86,
   "componentType": 5126,
   "count": 121,
   "type": "VEC4"
  },
  {
   "bufferView": 87,
   "componentType": 5126,
   "count": 121,
   "type": "VEC3"
  },
  {
   "bufferView": 88,
   "componentType": 5126,
   "count": 121,
   "type": "VEC3"
  },
  {
   "bufferView": 89,
   "componentType": 5126,
   "count": 121,
   "type": "VEC4"
  },
  {
   "bufferView": 90,
   "componentType": 5126,
   "count": 121,
   "type": "VEC3"
  },
  {
   "bufferView": 91,
   "componentType": 5126,
   "count": 121,
   "type": "VEC3"
  },
  {
   "bufferView": 92,
   "componentType": 5126,
   "count": 121,
   "type": "VEC4"
  },
  {
   "bufferView": 93,
   "componentType": 5126,
   "count": 121,
   "type": "VEC3"
  },
  {
   "bufferView": 94,
   "componentType": 5126,
   "count": 121,
   "type": "VEC3"
  },
  {
   "bufferView": 95,
   "componentType": 5126,
   "count": 121,
   "type": "VEC4"
  },
  {
   "bufferView": 96,
   "componentType": 5126,
   "count": 121,
   "type": "VEC3"
  },
  {
   "bufferView": 97,
   "componentType": 5126,
   "count": 121,
   "type": "VEC3"
  },
  {
   "bufferView": 98,
   "componentType": 5126,
   "count": 121,
   "type": "VEC4"
  },
  {
   "bufferView": 99,
   "componentType": 5126,
   "count": 121,
   "type": "VEC3"
  },
  {
   "bufferView": 100,
   "componentType": 5126,
   "count": 121,
   "type": "VEC3"
  },
  {
   "bufferView": 101,
   "componentType": 5126,
   "count": 121,
   "type": "VEC4"
  },
  {
   "bufferView": 102,
   "componentType": 5126,
   "count": 121,
   "type": "VEC3"
  },
  {
   "bufferView": 103,
   "componentType": 5126,
   "count": 121,
   "type": "VEC3"
  },
  {
   "bufferView": 104,
   "componentType": 5126,
   "count": 121,
   "type": "VEC4"
  },
  {
   "bufferView": 105,
   "componentType": 5126,
   "count": 121,
   "type": "VEC3"
  },
  {
   "bufferView": 106,
   "componentType": 5126,
   "count": 121,
   "type": "VEC3"
  },
  {
   "bufferView": 107,
   "componentType": 5126,
   "count": 121,
   "type": "VEC4"
  },
  {
   "bufferView": 108,
   "componentType": 5126,
   "count": 121,
   "type": "VEC3"
  },
  {
   "bufferView": 109,
   "componentType": 5126,
   "count": 121,
   "type": "VEC3"
  },
  {
   "bufferView": 110,
   "componentType": 5126,
   "count": 121,
   "type": "VEC4"
  },
  {
   "bufferView": 111,
   "componentType": 5126,
   "count": 121,
   "type": "VEC3"
  },
  {
   "bufferView": 112,
   "componentType": 5126,
   "count": 121,
   "type": "VEC3"
  },
  {
   "bufferView": 113,
   "componentType": 5126,
   "count": 121,
   "type": "VEC4"
  },
  {
   "bufferView": 114,
   "componentType": 5126,
   "count": 121,
   "type": "VEC3"
  },
  {
   "bufferView": 115,
   "componentType": 5126,
   "count": 39,
   "type": "MAT4"
  }
 ],
 "bufferViews": [
  {
   "buffer": 0,
   "byteLength": 484,
   "byteOffset": 0
  },
  {
   "buffer": 0,
   "byteLength": 1452,
   "byteOffset": 484
  },
  {
   "buffer": 0,
   "byteLength": 1936,
   "byteOffset": 1936
  },
  {
   "buffer": 0,
   "byteLength": 1452,
   "byteOffset": 3872
  },
  {
   "buffer": 0,
   "byteLength": 1452,
   "byteOffset": 5324
  },
  {
   "buffer": 0,
   "byteLength": 1936,
   "byteOffset": 6776
  },
  {
   "buffer": 0,
   "byteLength": 1452,
   "byteOffset": 8712
  },
  {
   "buffer": 0,
   "byteLength": 1452,
   "byteOffset": 10164
  },
  {
   "buffer": 0,
   "byteLength": 1936,
   "byteOffset": 11616
  },
  {
   "buffer": 0,
   "byteLength": 1452,
   "byteOffset": 13552
  },
  {
   "buffer": 0,
   "byteLength": 1452,
   "byteOffset": 15004
  },
  {
   "buffer": 0,
   "byteLength": 1936,
   "byteOffset": 16456
  },
  {
   "buffer": 0,
   "byteLength": 1452,
   "byteOffset": 18392
  },
  {
   "buffer": 0,
   "byteLength": 1452,
   "byteOffset": 19844
  },
  {
   "buffer": 0,
   "byteLength": 1936,
   "byteOffset": 21296
  },
  {
   "buffer": 0,
   "byteLength": 1452,
   "byteOffset": 23232
  },
  {
   "buffer": 0,
   "byteLength": 1452,
   "byteOffset": 24684
  },
  {
   "buffer": 0,
   "byteLength": 1936,
   "byteOffset": 26136
  },
  {
   "buffer": 0,
   "byteLength": 1452,
   "byteOffset": 28072
  },
  {
   "buffer": 0,
   "byteLength": 1452,
   "byteOffset": 29524
  },
  {
   "buffer": 0,
   "byteLength": 1936,
   "byteOffset": 30976
  },
  {
   "buffer": 0,
   "byteLength": 1452,
   "byteOffset": 32912
  },
  {
   "buffer": 0,
   "byteLength": 1452,
   "byteOffset": 34364
  },
  {
   "buffer": 0,
   "byteLength": 1936,
   "byteOffset": 35816
  },
  {
   "buffer": 0,
   "byteLength": 1452,
   "byteOffset": 37752
  },
  {
   "buffer": 0,
   "byteLength": 1452,
   "byteOffset": 39204
  },
  {
   "buffer": 0,
   "byteLength": 1936,
   "byteOffset": 40656
  },
  {
   "buffer": 0,
   "byteLength": 1452,
   "byteOffset": 42592
  },
  {
   "buffer": 0,
   "byteLength": 1452,
   "byteOffset": 44044
  },
  {
   "buffer": 0,
   "byteLength": 1936,
   "byteOffset": 45496
  },
  {
   "buffer": 0,
   "byteLength": 1452,
   "byteOffset": 47432
  },
  {
   "buffer": 0,
   "byteLength": 1452,
   "byteOffset": 48884
  },
  {
   "buffer": 0,
   "byteLength": 1936,
   "byteOffset": 50336
  },
  {
   "buffer": 0,
   "byteLength": 1452,
   "byteOffset": 52272
  },
  {
   "buffer": 0,
   "byteLength": 1452,
   "byteOffset": 53724
  },
  {
   "buffer": 0,
   "byteLength": 1936,
   "byteOffset": 55176
  },
  {
   "buffer": 0,
   "byteLength": 1452,
   "byteOffset": 57112
  },
  {
   "buffer": 0,
   "byteLength": 1452,
   "byteOffset": 58564
  },
  {
   "buffer": 0,
   "byteLength": 1936,
   "byteOffset": 60016
  },
  {
   "buffer": 0,
   "byteLength": 1452,
   "byteOffset": 61952
  },
  {
   "buffer": 0,
   "byteLength": 1452,
   "byteOffset": 63404
  },
  {
   "buffer": 0,
   "byteLength": 1936,
   "byteOffset": 64856
  },
  {
   "buffer": 0,
   "byteLength": 1452,
   "byteOffset": 66792
  },
  {
   "buffer": 0,
   "byteLength": 1452,
   "byteOffset": 68244
  },
  {
   "buffer": 0,
   "byteLength": 1936,
   "byteOffset": 69696
  },
  {
   "buffer": 0,
   "byteLength": 1452,
   "byteOffset": 71632
  },
  {
   "buffer": 0,
   "byteLength": 1452,
   "byteOffset": 73084
  },
  {
   "buffer": 0,
   "byteLength": 1936,
   "byteOffset": 74536
  },
  {
   "buffer": 0,
   "byteLength": 1452,
   "byteOffset": 76472
  },
  {
   "buffer": 0,
   "byteLength": 1452,
   "byteOffset": 77924
  },
  {
   "buffer": 0,
   "byteLength": 1936,
   "byteOffset": 79376
  },
  {
   "buffer": 0,
   "byteLength": 1452,
   "byteOffset": 81312
  },
  {
   "buffer": 0,
   "byteLength": 1452,
   "byteOffset": 82764
  },
  {
   "buffer": 0,
   "byteLength": 1936,
   "byteOffset": 84216
  },
  {
   "buffer": 0,
   "byteLength": 1452,
   "byteOffset": 86152
  },
  {
   "buffer": 0,
   "byteLength": 1452,
   "byteOffset": 87604
  },
  {
   "buffer": 0,
   "byteLength": 1936,
   "byteOffset": 89056
  },
  {
   "buffer": 0,
   "byteLength": 1452,
   "byteOffset": 90992
  },
  {
   "buffer": 0,
   "byteLength": 1936,
   "byteOffset": 92444
  },
  {
   "buffer": 0,
   "byteLength": 1452,
   "byteOffset": 94380
  },
  {
   "buffer": 0,
   "byteLength": 1452,
   "byteOffset": 95832
  },
  {
   "buffer": 0,
   "byteLength": 1936,
   "byteOffset": 97284
  },
  {
   "buffer": 0,
   "byteLength": 1452,
   "byteOffset": 99220
  },
  {
   "buffer": 0,
   "byteLength": 1452,
   "byteOffset": 100672
  },
  {
   "buffer": 0,
   "byteLength": 1936,
   "byteOffset": 102124
  },
  {
   "buffer": 0,
   "byteLength": 1452,
   "byteOffset": 104060
  },
  {
   "buffer": 0,
   "byteLength": 1452,
   "byteOffset": 105512
  },
  {
   "buffer": 0,
   "byteLength": 1936,
   "byteOffset": 106964
  },
  {
   "buffer": 0,
   "byteLength": 1452,
   "byteOffset": 108900
  },
  {
   "buffer": 0,
   "byteLength": 1452,
   "byteOffset": 110352
  },
  {
   "buffer": 0,
   "byteLength": 1936,
   "byteOffset": 111804
  },
  {
   "buffer": 0,
   "byteLength": 1452,
   "byteOffset": 113740
  },
  {
   "buffer": 0,
   "byteLength": 1452,
   "byteOffset": 115192
  },
  {
   "buffer": 0,
   "byteLength": 1936,
   "byteOffset": 116644
  },
  {
   "buffer": 0,
   "byteLength": 1452,
   "byteOffset": 118580
  },
  {
   "buffer": 0,
   "byteLength": 1452,
   "byteOffset": 120032
  },
  {
   "buffer": 0,
   "byteLength": 1452,
   "byteOffset": 121484
  },
  {
   "buffer": 0,
   "byteLength": 1936,
   "byteOffset": 122936
  },
  {
   "buffer": 0,
   "byteLength": 1452,
   "byteOffset": 124872
  },
  {
   "buffer": 0,
   "byteLength": 1452,
   "byteOffset": 126324
  },
  {
   "buffer": 0,
   "byteLength": 1936,
   "byteOffset": 127776
  },
  {
   "buffer": 0,
   "byteLength": 1452,
   "byteOffset": 129712
  },
  {
   "buffer": 0,
   "byteLength": 1452,
   "byteOffset": 131164
  },
  {
   "buffer": 0,
   "byteLength": 1936,
   "byteOffset": 132616
  },
  {
   "buffer": 0,
   "byteLength": 1452,
   "byteOffset": 134552
  },
  {
   "buffer": 0,
   "byteLength": 1452,
   "byteOffset": 136004
  },
  {
   "buffer": 0,
   "byteLength": 1936,
   "byteOffset": 137456
  },
  {
   "buffer": 0,
   "byteLength": 1452,
   "byteOffset": 139392
  },
  {
   "buffer": 0,
   "byteLength": 1452,
   "byteOffset": 140844
  },
  {
   "buffer": 0,
   "byteLength": 1936,
   "byteOffset": 142296
  },
  {
   "buffer": 0,
   "byteLength": 1452,
   "byteOffset": 144232
  },
  {
   "buffer": 0,
   "byteLength": 1452,
   "byteOffset": 145684
  },
  {
   "buffer": 0,
   "byteLength": 1936,
   "byteOffset": 147136
  },
  {
   "buffer": 0,
   "byteLength": 1452,
   "byteOffset": 149072
  },
  {
   "buffer": 0,
   "byteLength": 1452,
   "byteOffset": 150524
  },
  {
   "buffer": 0,
   "byteLength": 1936,
   "byteOffset": 151976
  },
  {
   "buffer": 0,
   "byteLength": 1452,
   "byteOffset": 153912
  },
  {
   "buffer": 0,
   "byteLength": 1452,
   "byteOffset": 155364
  },
  {
   "buffer": 0,
   "byteLength": 1936,
   "byteOffset": 156816
  },
  {
   "buffer": 0,
   "byteLength": 1452,
   "byteOffset": 158752
  },
  {
   "buffer": 0,
   "byteLength": 1452,
   "byteOffset": 160204
  },
  {
   "buffer": 0,
   "byteLength": 1936,
   "byteOffset": 161656
  },
  {
   "buffer": 0,
   "byteLength": 1452,
   "byteOffset": 163592
  },
  {
   "buffer": 0,
   "byteLength": 1452,
   "byteOffset": 165044
  },
  {
   "buffer": 0,
   "byteLength": 1936,
   "byteOffset": 166496
  },
  {
   "buffer": 0,
   "byteLength": 1452,
   "byteOffset": 168432
  },
  {
   "buffer": 0,
   "byteLength": 1452,
   "byteOffset": 169884
  },
  {
   "buffer": 0,
   "byteLength": 1936,
   "byteOffset": 171336
  },
  {
   "buffer": 0,
   "byteLength": 1452,
   "byteOffset": 173272
  },
  {
   "buffer": 0,
   "byteLength": 1452,
   "byteOffset": 174724
  },
  {
   "buffer": 0,
   "byteLength": 1936,
   "byteOffset": 176176
  },
  {
   "buffer": 0,
   "byteLength": 1452,
   "byteOffset": 178112
  },
  {
   "buffer": 0,
   "byteLength": 1452,
   "byteOffset": 179564
  },
  {
   "buffer": 0,
   "byteLength": 1936,
   "byteOffset": 181016
  },
  {
   "buffer": 0,
   "byteLength": 1452,
   "byteOffset": 182952
  },
  {
   "buffer": 0,
   "byteLength": 2496,
   "byteOffset": 184404
  }
 ],
 "buffers": [
  {
   "byteLength": 186900,
   "uri": "deer_idle_look.bin"
  }
 ]
}