{
 "asset": {
  "generator": "Khronos glTF Blender I/O v4.5.51",
  "version": "2.0"
 },
 "scene": 0,
 "scenes": [
  {
   "name": "Scene",
   "nodes": [
    43
   ]
  }
 ],
 "nodes": [
  {
   "name": "jaw",
   "translation": [
    0,
    -0.06978535652160645,
    -0.06482136249542236
   ]
  },
  {
   "name": "ear_l",
   "translation": [
    0.04837075620889664,
    -0.09196269512176514,
    0.0549769401550293
   ]
  },
  {
   "name": "ear_r",
   "translation": [
    -0.04837075620889664,
    -0.09196269512176514,
    0.0549769401550293
   ]
  },
  {
   "children": [
    0,
    1,
    2
   ],
   "name": "head",
   "translation": [
    0,
    -0.16199994087219238,
    0.1770000457763672
   ]
  },
  {
   "children": [
    3
   ],
   "name": "neck_03",
   "translation": [
    0,
    -0.18360000848770142,
    0.2006000280380249
   ]
  },
  {
   "children": [
    4
   ],
   "name": "neck_02",
   "translation": [
    0,
    -0.19440001249313354,
    0.21239995956420898
   ]
  },
  {
   "children": [
    5
   ],
   "name": "neck_01",
   "translation": [
    0,
    -0.3100000023841858,
    -0.21000003814697266
   ]
  },
  {
   "name": "hoof_f_l",
   "translation": [
    0,
    -0.08500003814697266,
    -0.12800000607967377
   ]
  },
  {
   "children": [
    7
   ],
   "name": "pastern_f_l",
   "translation": [
    -0.011720836162567139,
    -0.012061834335327148,
    -0.2996172308921814
   ]
  },
  {
   "children": [
    8
   ],
   "name": "cannon_l",
   "translation": [
    -0.01872093975543976,
    -0.028004586696624756,
    -0.47997161746025085
   ]
  },
  {
   "children": [
    9
   ],
   "name": "radius_l",
   "translation": [
    -0.009558215737342834,
    0.2000664472579956,
    -0.2104111909866333
   ]
  },
  {
   "children": [
    10
   ],
   "name": "humerus_l",
   "translation": [
    0.08999999612569809,
    -0.30000001192092896,
    -0.2799999713897705
   ]
  },
  {
   "children": [
    11
   ],
   "name": "scapula_l",
   "translation": [
    0.10000000149011612,
    -0.050000011920928955,
    0.009999990463256836
   ]
  },
  {
   "name": "hoof_f_r",
   "translation": [
    0,
    -0.08500003814697266,
    -0.12800000607967377
   ]
  },
  {
   "children": [
    13
   ],
   "name": "pastern_f_r",
   "translation": [
    0.011720836162567139,
    -0.012061834335327148,
    -0.2996172308921814
   ]
  },
  {
   "children": [
    14
   ],
   "name": "cannon_r",
   "translation": [
    0.01872093975543976,
    -0.028004586696624756,
    -0.47997161746025085
   ]
  },
  {
   "children": [
    15
   ],
   "name": "radius_r",
   "translation": [
    0.009558215737342834,
    0.2000664472579956,
    -0.2104111909866333
   ]
  },
  {
   "children": [
    16
   ],
   "name": "humerus_r",
   "translation": [
    -0.08999999612569809,
    -0.30000001192092896,
    -0.2799999713897705
   ]
  },
  {
   "children": [
    17
   ],
   "name": "scapula_r",
   "translation": [
    -0.10000000149011612,
    -0.050000011920928955,
    0.009999990463256836
   ]
  },
  {
   "children": [
    6,
    12,
    18
   ],
   "name": "spine_03",
   "translation": [
    0,
    -0.32999998331069946,
    0.009999990463256836
   ]
  },
  {
   "name": "ribs_l",
   "translation": [
    0.25,
    -0.030000001192092896,
    -0.25
   ]
  },
  {
   "name": "ribs_r",
   "translation": [
    -0.25,
    -0.030000001192092896,
    -0.25
   ]
  },
  {
   "name": "saddle",
   "translation": [
    0,
    -0.11999998986721039,
    0.11007118225097656
   ]
  },
  {
   "children": [
    19,
    20,
    21,
    22
   ],
   "name": "spine_02",
   "translation": [
    0,
    -0.30000001192092896,
    -0.029999971389770508
   ]
  },
  {
   "children": [
    23
   ],
   "name": "spine_01",
   "translation": [
    0,
    -0.23999997973442078,
    -0.019999980926513672
   ]
  },
  {
   "name": "hoof_h_l",
   "translation": [
    0,
    -0.0899999737739563,
    -0.12800000607967377
   ]
  },
  {
   "children": [
    25
   ],
   "name": "pastern_h_l",
   "translation": [
    -0.012374550104141235,
    0.009952783584594727,
    -0.3497404456138611
   ]
  },
  {
   "children": [
    26
   ],
   "name": "metatarsus_l",
   "translation": [
    -0.01660594344139099,
    0.3303097188472748,
    -0.4117034673690796
   ]
  },
  {
   "children": [
    27
   ],
   "name": "tibia_l",
   "translation": [
    -0.011019498109817505,
    -0.14026251435279846,
    -0.33855605125427246
   ]
  },
  {
   "children": [
    28
   ],
   "name": "femur_l",
   "translation": [
    0.1899999976158142,
    0.08000001311302185,
    -0.20000004768371582
   ]
  },
  {
   "name": "hoof_h_r",
   "translation": [
    0,
    -0.0899999737739563,
    -0.12800000607967377
   ]
  },
  {
   "children": [
    30
   ],
   "name": "pastern_h_r",
   "translation": [
    0.012374550104141235,
    0.009952783584594727,
    -0.3497404456138611
   ]
  },
  {
   "children": [
    31
   ],
   "name": "metatarsus_r",
   "translation": [
    0.01660594344139099,
    0.3303097188472748,
    -0.4117034673690796
   ]
  },
  {
   "children": [
    32
   ],
   "name": "tibia_r",
   "translation": [
    0.011019498109817505,
    -0.14026251435279846,
    -0.33855605125427246
   ]
  },
  {
   "children": [
    33
   ],
   "name": "femur_r",
   "translation": [
    -0.1899999976158142,
    0.08000001311302185,
    -0.20000004768371582
   ]
  },
  {
   "name": "tail_06",
   "translation": [
    0,
    0.004999995231628418,
    -0.22999995946884155
   ]
  },
  {
   "children": [
    35
   ],
   "name": "tail_05",
   "translation": [
    0,
    0.007999956607818604,
    -0.2200000286102295
   ]
  },
  {
   "children": [
    36
   ],
   "name": "tail_04",
   "translation": [
    0,
    0.017000019550323486,
    -0.12000000476837158
   ]
  },
  {
   "children": [
    37
   ],
   "name": "tail_03",
   "translation": [
    0,
    0.0350000262260437,
    -0.08000004291534424
   ]
  },
  {
   "children": [
    38
   ],
   "name": "tail_02",
   "translation": [
    0,
    0.039999961853027344,
    -0.029999971389770508
   ]
  },
  {
   "children": [
    39
   ],
   "name": "tail_01",
   "translation": [
    0,
    0.3800000250339508,
    -0.029999971389770508
   ]
  },
  {
   "children": [
    24,
    29,
    34,
    40
   ],
   "name": "hips",
   "translation": [
    0,
    0.41999998688697815,
    1.5
   ]
  },
  {
   "children": [
    41
   ],
   "name": "root",
   "rotation": [
    -0.7071067690849304,
    0,
    0,
    0.7071067690849304
   ]
  },
  {
   "children": [
    42
   ],
   "name": "horse_rig"
  }
 ],
 "animations": [
  {
   "channels": [
    {
     "sampler": 0,
     "target": {
      "node": 42,
      "path": "translation"
     }
    },
    {
     "sampler": 1,
     "target": {
      "node": 42,
      "path": "rotation"
     }
    },
    {
     "sampler": 2,
     "target": {
      "node": 41,
      "path": "translation"
     }
    },
    {
     "sampler": 3,
     "target": {
      "node": 41,
      "path": "rotation"
     }
    },
    {
     "sampler": 4,
     "target": {
      "node": 24,
      "path": "translation"
     }
    },
    {
     "sampler": 5,
     "target": {
      "node": 24,
      "path": "rotation"
     }
    },
    {
     "sampler": 6,
     "target": {
      "node": 23,
      "path": "translation"
     }
    },
    {
     "sampler": 7,
     "target": {
      "node": 23,
      "path": "rotation"
     }
    },
    {
     "sampler": 8,
     "target": {
      "node": 19,
      "path": "translation"
     }
    },
    {
     "sampler": 9,
     "target": {
      "node": 19,
      "path": "rotation"
     }
    },
    {
     "sampler": 10,
     "target": {
      "node": 6,
      "path": "translation"
     }
    },
    {
     "sampler": 11,
     "target": {
      "node": 6,
      "path": "rotation"
     }
    },
    {
     "sampler": 12,
     "target": {
      "node": 5,
      "path": "translation"
     }
    },
    {
     "sampler": 13,
     "target": {
      "node": 5,
      "path": "rotation"
     }
    },
    {
     "sampler": 14,
     "target": {
      "node": 4,
      "path": "translation"
     }
    },
    {
     "sampler": 15,
     "target": {
      "node": 4,
      "path": "rotation"
     }
    },
    {
     "sampler": 16,
     "target": {
      "node": 3,
      "path": "translation"
     }
    },
    {
     "sampler": 17,
     "target": {
      "node": 3,
      "path": "rotation"
     }
    },
    {
     "sampler": 18,
     "target": {
      "node": 0,
      "path": "translation"
     }
    },
    {
     "sampler": 19,
     "target": {
      "node": 0,
      "path": "rotation"
     }
    },
    {
     "sampler": 20,
     "target": {
      "node": 1,
      "path": "translation"
     }
    },
    {
     "sampler": 21,
     "target": {
      "node": 1,
      "path": "rotation"
     }
    },
    {
     "sampler": 22,
     "target": {
      "node": 2,
      "path": "translation"
     }
    },
    {
     "sampler": 23,
     "target": {
      "node": 2,
      "path": "rotation"
     }
    },
    {
     "sampler": 24,
     "target": {
      "node": 12,
      "path": "translation"
     }
    },
    {
     "sampler": 25,
     "target": {
      "node": 12,
      "path": "rotation"
     }
    },
    {
     "sampler": 26,
     "target": {
      "node": 11,
      "path": "translation"
     }
    },
    {
     "sampler": 27,
     "target": {
      "node": 11,
      "path": "rotation"
     }
    },
    {
     "sampler": 28,
     "target": {
      "node": 10,
      "path": "translation"
     }
    },
    {
     "sampler": 29,
     "target": {
      "node": 10,
      "path": "rotation"
     }
    },
    {
     "sampler": 30,
     "target": {
      "node": 9,
      "path": "translation"
     }
    },
    {
     "sampler": 31,
     "target": {
      "node": 9,
      "path": "rotation"
     }
    },
    {
     "sampler": 32,
     "target": {
      "node": 8,
      "path": "translation"
     }
    },
    {
     "sampler": 33,
     "target": {
      "node": 8,
      "path": "rotation"
     }
    },
    {
     "sampler": 34,
     "target": {
      "node": 7,
      "path": "translation"
     }
    },
    {
     "sampler": 35,
     "target": {
      "node": 7,
      "path": "rotation"
     }
    },
    {
     "sampler": 36,
     "target": {
      "node": 18,
      "path": "translation"
     }
    },
    {
     "sampler": 37,
     "target": {
      "node": 18,
      "path": "rotation"
     }
    },
    {
     "sampler": 38,
     "target": {
      "node": 17,
      "path": "translation"
     }
    },
    {
     "sampler": 39,
     "target": {
      "node": 17,
      "path": "rotation"
     }
    },
    {
     "sampler": 40,
     "target": {
      "node": 16,
      "path": "translation"
     }
    },
    {
     "sampler": 41,
     "target": {
      "node": 16,
      "path": "rotation"
     }
    },
    {
     "sampler": 42,
     "target": {
      "node": 15,
      "path": "translation"
     }
    },
    {
     "sampler": 43,
     "target": {
      "node": 15,
      "path": "rotation"
     }
    },
    {
     "sampler": 44,
     "target": {
      "node": 14,
      "path": "translation"
     }
    },
    {
     "sampler": 45,
     "target": {
      "node": 14,
      "path": "rotation"
     }
    },
    {
     "sampler": 46,
     "target": {
      "node": 13,
      "path": "translation"
     }
    },
    {
     "sampler": 47,
     "target": {
      "node": 13,
      "path": "rotation"
     }
    },
    {
     "sampler": 48,
     "target": {
      "node": 20,
      "path": "translation"
     }
    },
    {
     "sampler": 49,
     "target": {
      "node": 20,
      "path": "rotation"
     }
    },
    {
     "sampler": 50,
     "target": {
      "node": 21,
      "path": "translation"
     }
    },
    {
     "sampler": 51,
     "target": {
      "node": 21,
      "path": "rotation"
     }
    },
    {
     "sampler": 52,
     "target": {
      "node": 22,
      "path": "translation"
     }
    },
    {
     "sampler": 53,
     "target": {
      "node": 22,
      "path": "rotation"
     }
    },
    {
     "sampler": 54,
     "target": {
      "node": 29,
      "path": "translation"
     }
    },
    {
     "sampler": 55,
     "target": {
      "node": 29,
      "path": "rotation"
     }
    },
    {
     "sampler": 56,
     "target": {
      "node": 28,
      "path": "translation"
     }
    },
    {
     "sampler": 57,
     "target": {
      "node": 28,
      "path": "rotation"
     }
    },
    {
     "sampler": 58,
     "target": {
      "node": 27,
      "path": "translation"
     }
    },
    {
     "sampler": 59,
     "target": {
      "node": 27,
      "path": "rotation"
     }
    },
    {
     "sampler": 60,
     "target": {
      "node": 26,
      "path": "translation"
     }
    },
    {
     "sampler": 61,
     "target": {
      "node": 26,
      "path": "rotation"
     }
    },
    {
     "sampler": 62,
     "target": {
      "node": 25,
      "path": "translation"
     }
    },
    {
     "sampler": 63,
     "target": {
      "node": 25,
      "path": "rotation"
     }
    },
    {
     "sampler": 64,
     "target": {
      "node": 34,
      "path": "translation"
     }
    },
    {
     "sampler": 65,
     "target": {
      "node": 34,
      "path": "rotation"
     }
    },
    {
     "sampler": 66,
     "target": {
      "node": 33,
      "path": "translation"
     }
    },
    {
     "sampler": 67,
     "target": {
      "node": 33,
      "path": "rotation"
     }
    },
    {
     "sampler": 68,
     "target": {
      "node": 32,
      "path": "translation"
     }
    },
    {
     "sampler": 69,
     "target": {
      "node": 32,
      "path": "rotation"
     }
    },
    {
     "sampler": 70,
     "target": {
      "node": 31,
      "path": "translation"
     }
    },
    {
     "sampler": 71,
     "target": {
      "node": 31,
      "path": "rotation"
     }
    },
    {
     "sampler": 72,
     "target": {
      "node": 30,
      "path": "translation"
     }
    },
    {
     "sampler": 73,
     "target": {
      "node": 30,
      "path": "rotation"
     }
    },
    {
     "sampler": 74,
     "target": {
      "node": 40,
      "path": "translation"
     }
    },
    {
     "sampler": 75,
     "target": {
      "node": 40,
      "path": "rotation"
     }
    },
    {
     "sampler": 76,
     "target": {
      "node": 39,
      "path": "translation"
     }
    },
    {
     "sampler": 77,
     "target": {
      "node": 39,
      "path": "rotation"
     }
    },
    {
     "sampler": 78,
     "target": {
      "node": 38,
      "path": "translation"
     }
    },
    {
     "sampler": 79,
     "target": {
      "node": 38,
      "path": "rotation"
     }
    },
    {
     "sampler": 80,
     "target": {
      "node": 37,
      "path": "translation"
     }
    },
    {
     "sampler": 81,
     "target": {
      "node": 37,
      "path": "rotation"
     }
    },
    {
     "sampler": 82,
     "target": {
      "node": 36,
      "path": "translation"
     }
    },
    {
     "sampler": 83,
     "target": {
      "node": 36,
      "path": "rotation"
     }
    },
    {
     "sampler": 84,
     "target": {
      "node": 35,
      "path": "translation"
     }
    },
    {
     "sampler": 85,
     "target": {
      "node": 35,
      "path": "rotation"
     }
    }
   ],
   "name": "horse_graze",
   "samplers": [
    {
     "input": 0,
     "interpolation": "LINEAR",
     "output": 1
    },
    {
     "input": 0,
     "interpolation": "LINEAR",
     "output": 2
    },
    {
     "input": 0,
     "interpolation": "LINEAR",
     "output": 4
    },
    {
     "input": 0,
     "interpolation": "LINEAR",
     "output": 5
    },
    {
     "input": 0,
     "interpolation": "LINEAR",
     "output": 7
    },
    {
     "input": 0,
     "interpolation": "LINEAR",
     "output": 8
    },
    {
     "input": 0,
     "interpolation": "LINEAR",
     "output": 10
    },
    {
     "input": 0,
     "interpolation": "LINEAR",
     "output": 11
    },
    {
     "input": 0,
     "interpolation": "LINEAR",
     "output": 13
    },
    {
     "input": 0,
     "interpolation": "LINEAR",
     "output": 14
    },
    {
     "input": 0,
     "interpolation": "LINEAR",
     "output": 16
    },
    {
     "input": 0,
     "interpolation": "LINEAR",
     "output": 17
    },
    {
     "input": 0,
     "interpolation": "LINEAR",
     "output": 19
    },
    {
     "input": 0,
     "interpolation": "LINEAR",
     "output": 20
    },
    {
     "input": 0,
     "interpolation": "LINEAR",
     "output": 22
    },
    {
     "input": 0,
     "interpolation": "LINEAR",
     "output": 23
    },
    {
     "input": 0,
     "interpolation": "LINEAR",
     "output": 25
    },
    {
     "input": 0,
     "interpolation": "LINEAR",
     "output": 26
    },
    {
     "input": 0,
     "interpolation": "LINEAR",
     "output": 28
    },
    {
     "input": 0,
     "interpolation": "LINEAR",
     "output": 29
    },
    {
     "input": 0,
     "interpolation": "LINEAR",
     "output": 31
    },
    {
     "input": 0,
     "interpolation": "LINEAR",
     "output": 32
    },
    {
     "input": 0,
     "interpolation": "LINEAR",
     "output": 34
    },
    {
     "input": 0,
     "interpolation": "LINEAR",
     "output": 35
    },
    {
     "input": 0,
     "interpolation": "LINEAR",
     "output": 37
    },
    {
     "input": 0,
     "interpolation": "LINEAR",
     "output": 38
    },
    {
     "input": 0,
     "interpolation": "LINEAR",
     "output": 40
    },
    {
     "input": 0,
     "interpolation": "LINEAR",
     "output": 41
    },
    {
     "input": 0,
     "interpolation": "LINEAR",
     "output": 43
    },
    {
     "input": 0,
     "interpolation": "LINEAR",
     "output": 44
    },
    {
     "input": 0,
     "interpolation": "LINEAR",
     "output": 46
    },
    {
     "input": 0,
     "interpolation": "LINEAR",
     "output": 47
    },
    {
     "input": 0,
     "interpolation": "LINEAR",
     "output": 49
    },
    {
     "input": 0,
     "interpolation": "LINEAR",
     "output": 50
    },
    {
     "input": 0,
     "interpolation": "LINEAR",
     "output": 52
    },
    {
     "input": 0,
     "interpolation": "LINEAR",
     "output": 53
    },
    {
     "input": 0,
     "interpolation": "LINEAR",
     "output": 55
    },
    {
     "input": 0,
     "interpolation": "LINEAR",
     "output": 56
    },
    {
     "input": 0,
     "interpolation": "LINEAR",
     "output": 57
    },
    {
     "input": 0,
     "interpolation": "LINEAR",
     "output": 58
    },
    {
     "input": 0,
     "interpolation": "LINEAR",
     "output": 60
    },
    {
     "input": 0,
     "interpolation": "LINEAR",
     "output": 61
    },
    {
     "input": 0,
     "interpolation": "LINEAR",
     "output": 63
    },
    {
     "input": 0,
     "interpolation": "LINEAR",
     "output": 64
    },
    {
     "input": 0,
     "interpolation": "LINEAR",
     "output": 66
    },
    {
     "input": 0,
     "interpolation": "LINEAR",
     "output": 67
    },
    {
     "input": 0,
     "interpolation": "LINEAR",
     "output": 69
    },
    {
     "input": 0,
     "interpolation": "LINEAR",
     "output": 70
    },
    {
     "input": 0,
     "interpolation": "LINEAR",
     "output": 72
    },
    {
     "input": 0,
     "interpolation": "LINEAR",
     "output": 73
    },
    {
     "input": 0,
     "interpolation": "LINEAR",
     "output": 75
    },
    {
     "input": 0,
     "interpolation": "LINEAR",
     "output": 73
    },
    {
     "input": 0,
     "interpolation": "LINEAR",
     "output": 76
    },
    {
     "input": 0,
     "interpolation": "LINEAR",
     "output": 73
    },
    {
     "input": 0,
     "interpolation": "LINEAR",
     "output": 77
    },
    {
     "input": 0,
     "interpolation": "LINEAR",
     "output": 78
    },
    {
     "input": 0,
     "interpolation": "LINEAR",
     "output": 80
    },
    {
     "input": 0,
     "interpolation": "LINEAR",
     "output": 81
    },
    {
     "input": 0,
     "interpolation": "LINEAR",
     "output": 83
    },
    {
     "input": 0,
     "interpolation": "LINEAR",
     "output": 84
    },
    {
     "input": 0,
     "interpolation": "LINEAR",
     "output": 86
    },
    {
     "input": 0,
     "interpolation": "LINEAR",
     "output": 87
    },
    {
     "input": 0,
     "interpolation": "LINEAR",
     "output": 89
    },
    {
     "input": 0,
     "interpolation": "LINEAR",
     "output": 90
    },
    {
     "input": 0,
     "interpolation": "LINEAR",
     "output": 92
    },
    {
     "input": 0,
     "interpolation": "LINEAR",
     "output": 93
    },
    {
     "input": 0,
     "interpolation": "LINEAR",
     "output": 95
    },
    {
     "input": 0,
     "interpolation": "LINEAR",
     "output": 96
    },
    {
     "input": 0,
     "interpolation": "LINEAR",
     "output": 98
    },
    {
     "input": 0,
     "interpolation": "LINEAR",
     "output": 99
    },
    {
     "input": 0,
     "interpolation": "LINEAR",
     "output": 101
    },
    {
     "input": 0,
     "interpolation": "LINEAR",
     "output": 102
    },
    {
     "input": 0,
     "interpolation": "LINEAR",
     "output": 104
    },
    {
     "input": 0,
     "interpolation": "LINEAR",
     "output": 105
    },
    {
     "input": 0,
     "interpolation": "LINEAR",
     "output": 107
    },
    {
     "input": 0,
     "interpolation": "LINEAR",
     "output": 108
    },
    {
     "input": 0,
     "interpolation": "LINEAR",
     "output": 110
    },
    {
     "input": 0,
     "interpolation": "LINEAR",
     "output": 111
    },
    {
     "input": 0,
     "interpolation": "LINEAR",
     "output": 113
    },
    {
     "input": 0,
     "interpolation": "LINEAR",
     "output": 114
    },
    {
     "input": 0,
     "interpolation": "LINEAR",
     "output": 116
    },
    {
     "input": 0,
     "interpolation": "LINEAR",
     "output": 117
    },
    {
     "input": 0,
     "interpolation": "LINEAR",
     "output": 119
    },
    {
     "input": 0,
     "interpolation": "LINEAR",
     "output": 120
    },
    {
     "input": 0,
     "interpolation": "LINEAR",
     "output": 122
    },
    {
     "input": 0,
     "interpolation": "LINEAR",
     "output": 123
    }
   ]
  }
 ],
 "skins": [
  {
   "inverseBindMatrices": 125,
   "joints": [
    42,
    41,
    24,
    23,
    19,
    6,
    5,
    4,
    3,
    0,
    1,
    2,
    12,
    11,
    10,
    9,
    8,
    7,
    18,
    17,
    16,
    15,
    14,
    13,
    20,
    21,
    22,
    29,
    28,
    27,
    26,
    25,
    34,
    33,
    32,
    31,
    30,
    40,
    39,
    38,
    37,
    36,
    35
   ],
   "name": "horse_rig"
  }
 ],
 "accessors": [
  {
   "bufferView": 0,
   "componentType": 5126,
   "count": 121,
   "max": [
    4
   ],
   "min": [
    0
   ],
   "type": "SCALAR"
  },
  {
   "bufferView": 1,
   "componentType": 5126,
   "count": 121,
   "type": "VEC3"
  },
  {
   "bufferView": 2,
   "componentType": 5126,
   "count": 121,
   "type": "VEC4"
  },
  {
   "bufferView": 3,
   "componentType": 5126,
   "count": 121,
   "type": "VEC3"
  },
  {
   "bufferView": 4,
   "componentType": 5126,
   "count": 121,
   "type": "VEC3"
  },
  {
   "bufferView": 5,
   "componentType": 5126,
   "count": 121,
   "type": "VEC4"
  },
  {
   "bufferView": 6,
   "componentType": 5126,
   "count": 121,
   "type": "VEC3"
  },
  {
   "bufferView": 7,
   "componentType": 5126,
   "count": 121,
   "type": "VEC3"
  },
  {
   "bufferView": 8,
   "componentType": 5126,
   "count": 121,
   "type": "VEC4"
  },
  {
   "bufferView": 9,
   "componentType": 5126,
   "count": 121,
   "type": "VEC3"
  },
  {
   "bufferView": 10,
   "componentType": 5126,
   "count": 121,
   "type": "VEC3"
  },
  {
   "bufferView": 11,
   "componentType": 5126,
   "count": 121,
   "type": "VEC4"
  },
  {
   "bufferView": 12,
   "componentType": 5126,
   "count": 121,
   "type": "VEC3"
  },
  {
   "bufferView": 13,
   "componentType": 5126,
   "count": 121,
   "type": "VEC3"
  },
  {
   "bufferView": 14,
   "componentType": 5126,
   "count": 121,
   "type": "VEC4"
  },
  {
   "bufferView": 15,
   "componentType": 5126,
   "count": 121,
   "type": "VEC3"
  },
  {
   "bufferView": 16,
   "componentType": 5126,
   "count": 121,
   "type": "VEC3"
  },
  {
   "bufferView": 17,
   "componentType": 5126,
   "count": 121,
   "type": "VEC4"
  },
  {
   "bufferView": 18,
   "componentType": 5126,
   "count": 121,
   "type": "VEC3"
  },
  {
   "bufferView": 19,
   "componentType": 5126,
   "count": 121,
   "type": "VEC3"
  },
  {
   "bufferView": 20,
   "componentType": 5126,
   "count": 121,
   "type": "VEC4"
  },
  {
   "bufferView": 21,
   "componentType": 5126,
   "count": 121,
   "type": "VEC3"
  },
  {
   "bufferView": 22,
   "componentType": 5126,
   "count": 121,
   "type": "VEC3"
  },
  {
   "bufferView": 23,
   "componentType": 5126,
   "count": 121,
   "type": "VEC4"
  },
  {
   "bufferView": 24,
   "componentType": 5126,
   "count": 121,
   "type": "VEC3"
  },
  {
   "bufferView": 25,
   "componentType": 5126,
   "count": 121,
   "type": "VEC3"
  },
  {
   "bufferView": 26,
   "componentType": 5126,
   "count": 121,
   "type": "VEC4"
  },
  {
   "bufferView": 27,
   "componentType": 5126,
   "count": 121,
   "type": "VEC3"
  },
  {
   "bufferView": 28,
   "componentType": 5126,
   "count": 121,
   "type": "VEC3"
  },
  {
   "bufferView": 29,
   "componentType": 5126,
   "count": 121,
   "type": "VEC4"
  },
  {
   "bufferView": 30,
   "componentType": 5126,
   "count": 121,
   "type": "VEC3"
  },
  {
   "bufferView": 31,
   "componentType": 5126,
   "count": 121,
   "type": "VEC3"
  },
  {
   "bufferView": 32,
   "componentType": 5126,
   "count": 121,
   "type": "VEC4"
  },
  {
   "bufferView": 33,
   "componentType": 5126,
   "count": 121,
   "type": "VEC3"
  },
  {
   "bufferView": 34,
   "componentType": 5126,
   "count": 121,
   "type": "VEC3"
  },
  {
   "bufferView": 35,
   "componentType": 5126,
   "count": 121,
   "type": "VEC4"
  },
  {
   "bufferView": 36,
   "componentType": 5126,
   "count": 121,
   "type": "VEC3"
  },
  {
   "bufferView": 37,
   "componentType": 5126,
   "count": 121,
   "type": "VEC3"
  },
  {
   "bufferView": 38,
   "componentType": 5126,
   "count": 121,
   "type": "VEC4"
  },
  {
   "bufferView": 39,
   "componentType": 5126,
   "count": 121,
   "type": "VEC3"
  },
  {
   "bufferView": 40,
   "componentType": 5126,
   "count": 121,
   "type": "VEC3"
  },
  {
   "bufferView": 41,
   "componentType": 5126,
   "count": 121,
   "type": "VEC4"
  },
  {
   "bufferView": 42,
   "componentType": 5126,
   "count": 121,
   "type": "VEC3"
  },
  {
   "bufferView": 43,
   "componentType": 5126,
   "count": 121,
   "type": "VEC3"
  },
  {
   "bufferView": 44,
   "componentType": 5126,
   "count": 121,
   "type": "VEC4"
  },
  {
   "bufferView": 45,
   "componentType": 5126,
   "count": 121,
   "type": "VEC3"
  },
  {
   "bufferView": 46,
   "componentType": 5126,
   "count": 121,
   "type": "VEC3"
  },
  {
   "bufferView": 47,
   "componentType": 5126,
   "count": 121,
   "type": "VEC4"
  },
  {
   "bufferView": 48,
   "componentType": 5126,
   "count": 121,
   "type": "VEC3"
  },
  {
   "bufferView": 49,
   "componentType": 5126,
   "count": 121,
   "type": "VEC3"
  },
  {
   "bufferView": 50,
   "componentType": 5126,
   "count": 121,
   "type": "VEC4"
  },
  {
   "bufferView": 51,
   "componentType": 5126,
   "count": 121,
   "type": "VEC3"
  },
  {
   "bufferView": 52,
   "componentType": 5126,
   "count": 121,
   "type": "VEC3"
  },
  {
   "bufferView": 53,
   "componentType": 5126,
   "count": 121,
   "type": "VEC4"
  },
  {
   "bufferView": 54,
   "componentType": 5126,
   "count": 121,
   "type": "VEC3"
  },
  {
   "bufferView": 55,
   "componentType": 5126,
   "count": 121,
   "type": "VEC3"
  },
  {
   "bufferView": 56,
   "componentType": 5126,
   "count": 121,
   "type": "VEC4"
  },
  {
   "bufferView": 57,
   "componentType": 5126,
   "count": 121,
   "type": "VEC3"
  },
  {
   "bufferView": 58,
   "componentType": 5126,
   "count": 121,
   "type": "VEC4"
  },
  {
   "bufferView": 59,
   "componentType": 5126,
   "count": 121,
   "type": "VEC3"
  },
  {
   "bufferView": 60,
   "componentType": 5126,
   "count": 121,
   "type": "VEC3"
  },
  {
   "bufferView": 61,
   "componentType": 5126,
   "count": 121,
   "type": "VEC4"
  },
  {
   "bufferView": 62,
   "componentType": 5126,
   "count": 121,
   "type": "VEC3"
  },
  {
   "bufferView": 63,
   "componentType": 5126,
   "count": 121,
   "type": "VEC3"
  },
  {
   "bufferView": 64,
   "componentType": 5126,
   "count": 121,
   "type": "VEC4"
  },
  {
   "bufferView": 65,
   "componentType": 5126,
   "count": 121,
   "type": "VEC3"
  },
  {
   "bufferView": 66,
   "componentType": 5126,
   "count": 121,
   "type": "VEC3"
  },
  {
   "bufferView": 67,
   "componentType": 5126,
   "count": 121,
   "type": "VEC4"
  },
  {
   "bufferView": 68,
   "componentType": 5126,
   "count": 121,
   "type": "VEC3"
  },
  {
   "bufferView": 69,
   "componentType": 5126,
   "count": 121,
   "type": "VEC3"
  },
  {
   "bufferView": 70,
   "componentType": 5126,
   "count": 121,
   "type": "VEC4"
  },
  {
   "bufferView": 71,
   "componentType": 5126,
   "count": 121,
   "type": "VEC3"
  },
  {
   "bufferView": 72,
   "componentType": 5126,
   "count": 121,
   "type": "VEC3"
  },
  {
   "bufferView": 73,
   "componentType": 5126,
   "count": 121,
   "type": "VEC4"
  },
  {
   "bufferView": 74,
   "componentType": 5126,
   "count": 121,
   "type": "VEC3"
  },
  {
   "bufferView": 75,
   "componentType": 5126,
   "count": 121,
   "type": "VEC3"
  },
  {
   "bufferView": 76,
   "componentType": 5126,
   "count": 121,
   "type": "VEC3"
  },
  {
   "bufferView": 77,
   "componentType": 5126,
   "count": 121,
   "type": "VEC3"
  },
  {
   "bufferView": 78,
   "componentType": 5126,
   "count": 121,
   "type": "VEC4"
  },
  {
   "bufferView": 79,
   "componentType": 5126,
   "count": 121,
   "type": "VEC3"
  },
  {
   "bufferView": 80,
   "componentType": 5126,
   "count": 121,
   "type": "VEC3"
  },
  {
   "bufferView": 81,
   "componentType": 5126,
   "count": 121,
   "type": "VEC4"
  },
  {
   "bufferView": 82,
   "componentType": 5126,
   "count": 121,
   "type": "VEC3"
  },
  {
   "bufferView": 83,
   "componentType": 5126,
   "count": 121,
   "type": "VEC3"
  },
  {
   "bufferView": 84,
   "componentType": 5126,
   "count": 121,
   "type": "VEC4"
  },
  {
   "bufferView": 85,
   "componentType": 5126,
   "count": 121,
   "type": "VEC3"
  },
  {
   "bufferView": 86,
   "componentType": 5126,
   "count": 121,
   "type": "VEC3"
  },
  {
   "bufferView": 87,
   "componentType": 5126,
   "count": 121,
   "type": "VEC4"
  },
  {
   "bufferView": 88,
   "componentType": 5126,
   "count": 121,
   "type": "VEC3"
  },
  {
   "bufferView": 89,
   "componentType": 5126,
   "count": 121,
   "type": "VEC3"
  },
  {
   "bufferView": 90,
   "componentType": 5126,
   "count": 121,
   "type": "VEC4"
  },
  {
   "bufferView": 91,
   "componentType": 5126,
   "count": 121,
   "type": "VEC3"
  },
  {
   "bufferView": 92,
   "componentType": 5126,
   "count": 121,
   "type": "VEC3"
  },
  {
   "bufferView": 93,
   "componentType": 5126,
   "count": 121,
   "type": "VEC4"
  },
  {
   "bufferView": 94,
   "componentType": 5126,
   "count": 121,
   "type": "VEC3"
  },
  {
   "bufferView": 95,
   "componentType": 5126,
   "count": 121,
   "type": "VEC3"
  },
  {
   "bufferView": 96,
   "componentType": 5126,
   "count": 121,
   "type": "VEC4"
  },
  {
   "bufferView": 97,
   "componentType": 5126,
   "count": 121,
   "type": "VEC3"
  },
  {
   "bufferView": 98,
   "componentType": 5126,
   "count": 121,
   "type": "VEC3"
  },
  {
   "bufferView": 99,
   "componentType": 5126,
   "count": 121,
   "type": "VEC4"
  },
  {
   "bufferView": 100,
   "componentType": 5126,
   "count": 121,
   "type": "VEC3"
  },
  {
   "bufferView": 101,
   "componentType": 5126,
   "count": 121,
   "type": "VEC3"
  },
  {
   "bufferView": 102,
   "componentType": 5126,
   "count": 121,
   "type": "VEC4"
  },
  {
   "bufferView": 103,
   "componentType": 5126,
   "count": 121,
   "type": "VEC3"
  },
  {
   "bufferView": 104,
   "componentType": 5126,
   "count": 121,
   "type": "VEC3"
  },
  {
   "bufferView": 105,
   "componentType": 5126,
   "count": 121,
   "type": "VEC4"
  },
  {
   "bufferView": 106,
   "componentType": 5126,
   "count": 121,
   "type": "VEC3"
  },
  {
   "bufferView": 107,
   "componentType": 5126,
   "count": 121,
   "type": "VEC3"
  },
  {
   "bufferView": 108,
   "componentType": 5126,
   "count": 121,
   "type": "VEC4"
  },
  {
   "bufferView": 109,
   "componentType": 5126,
   "count": 121,
   "type": "VEC3"
  },
  {
   "bufferView": 110,
   "componentType": 5126,
   "count": 121,
   "type": "VEC3"
  },
  {
   "bufferView": 111,
   "componentType": 5126,
   "count": 121,
   "type": "VEC4"
  },
  {
   "bufferView": 112,
   "componentType": 5126,
   "count": 121,
   "type": "VEC3"
  },
  {
   "bufferView": 113,
   "componentType": 5126,
   "count": 121,
   "type": "VEC3"
  },
  {
   "bufferView": 114,
   "componentType": 5126,
   "count": 121,
   "type": "VEC4"
  },
  {
   "bufferView": 115,
   "componentType": 5126,
   "count": 121,
   "type": "VEC3"
  },
  {
   "bufferView": 116,
   "componentType": 5126,
   "count": 121,
   "type": "VEC3"
  },
  {
   "bufferView": 117,
   "componentType": 5126,
   "count": 121,
   "type": "VEC4"
  },
  {
   "bufferView": 118,
   "componentType": 5126,
   "count": 121,
   "type": "VEC3"
  },
  {
   "bufferView": 119,
   "componentType": 5126,
   "count": 121,
   "type": "VEC3"
  },
  {
   "bufferView": 120,
   "componentType": 5126,
   "count": 121,
   "type": "VEC4"
  },
  {
   "bufferView": 121,
   "componentType": 5126,
   "count": 121,
   "type": "VEC3"
  },
  {
   "bufferView": 122,
   "componentType": 5126,
   "count": 121,
   "type": "VEC3"
  },
  {
   "bufferView": 123,
   "componentType": 5126,
   "count": 121,
   "type": "VEC4"
  },
  {
   "bufferView": 124,
   "componentType": 5126,
   "count": 121,
   "type": "VEC3"
  },
  {
   "bufferView": 125,
   "componentType": 5126,
   "count": 43,
   "type": "MAT4"
  }
 ],
 "bufferViews": [
  {
   "buffer": 0,
   "byteLength": 484,
   "byteOffset": 0
  },
  {
   "buffer": 0,
   "byteLength": 1452,
   "byteOffset": 484
  },
  {
   "buffer": 0,
   "byteLength": 1936,
   "byteOffset": 1936
  },
  {
   "buffer": 0,
   "byteLength": 1452,
   "byteOffset": 3872
  },
  {
   "buffer": 0,
   "byteLength": 1452,
   "byteOffset": 5324
  },
  {
   "buffer": 0,
   "byteLength": 1936,
   "byteOffset": 6776
  },
  {
   "buffer": 0,
   "byteLength": 1452,
   "byteOffset": 8712
  },
  {
   "buffer": 0,
   "byteLength": 1452,
   "byteOffset": 10164
  },
  {
   "buffer": 0,
   "byteLength": 1936,
   "byteOffset": 11616
  },
  {
   "buffer": 0,
   "byteLength": 1452,
   "byteOffset": 13552
  },
  {
   "buffer": 0,
   "byteLength": 1452,
   "byteOffset": 15004
  },
  {
   "buffer": 0,
   "byteLength": 1936,
   "byteOffset": 16456
  },
  {
   "buffer": 0,
   "byteLength": 1452,
   "byteOffset": 18392
  },
  {
   "buffer": 0,
   "byteLength": 1452,
   "byteOffset": 19844
  },
  {
   "buffer": 0,
   "byteLength": 1936,
   "byteOffset": 21296
  },
  {
   "buffer": 0,
   "byteLength": 1452,
   "byteOffset": 23232
  },
  {
   "buffer": 0,
   "byteLength": 1452,
   "byteOffset": 24684
  },
  {
   "buffer": 0,
   "byteLength": 1936,
   "byteOffset": 26136
  },
  {
   "buffer": 0,
   "byteLength": 1452,
   "byteOffset": 28072
  },
  {
   "buffer": 0,
   "byteLength": 1452,
   "byteOffset": 29524
  },
  {
   "buffer": 0,
   "byteLength": 1936,
   "byteOffset": 30976
  },
  {
   "buffer": 0,
   "byteLength": 1452,
   "byteOffset": 32912
  },
  {
   "buffer": 0,
   "byteLength": 1452,
   "byteOffset": 34364
  },
  {
   "buffer": 0,
   "byteLength": 1936,
   "byteOffset": 35816
  },
  {
   "buffer": 0,
   "byteLength": 1452,
   "byteOffset": 37752
  },
  {
   "buffer": 0,
   "byteLength": 1452,
   "byteOffset": 39204
  },
  {
   "buffer": 0,
   "byteLength": 1936,
   "byteOffset": 40656
  },
  {
   "buffer": 0,
   "byteLength": 1452,
   "byteOffset": 42592
  },
  {
   "buffer": 0,
   "byteLength": 1452,
   "byteOffset": 44044
  },
  {
   "buffer": 0,
   "byteLength": 1936,
   "byteOffset": 45496
  },
  {
   "buffer": 0,
   "byteLength": 1452,
   "byteOffset": 47432
  },
  {
   "buffer": 0,
   "byteLength": 1452,
   "byteOffset": 48884
  },
  {
   "buffer": 0,
   "byteLength": 1936,
   "byteOffset": 50336
  },
  {
   "buffer": 0,
   "byteLength": 1452,
   "byteOffset": 52272
  },
  {
   "buffer": 0,
   "byteLength": 1452,
   "byteOffset": 53724
  },
  {
   "buffer": 0,
   "byteLength": 1936,
   "byteOffset": 55176
  },
  {
   "buffer": 0,
   "byteLength": 1452,
   "byteOffset": 57112
  },
  {
   "buffer": 0,
   "byteLength": 1452,
   "byteOffset": 58564
  },
  {
   "buffer": 0,
   "byteLength": 1936,
   "byteOffset": 60016
  },
  {
   "buffer": 0,
   "byteLength": 1452,
   "byteOffset": 61952
  },
  {
   "buffer": 0,
   "byteLength": 1452,
   "byteOffset": 63404
  },
  {
   "buffer": 0,
   "byteLength": 1936,
   "byteOffset": 64856
  },
  {
   "buffer": 0,
   "byteLength": 1452,
   "byteOffset": 66792
  },
  {
   "buffer": 0,
   "byteLength": 1452,
   "byteOffset": 68244
  },
  {
   "buffer": 0,
   "byteLength": 1936,
   "byteOffset": 69696
  },
  {
   "buffer": 0,
   "byteLength": 1452,
   "byteOffset": 71632
  },
  {
   "buffer": 0,
   "byteLength": 1452,
   "byteOffset": 73084
  },
  {
   "buffer": 0,
   "byteLength": 1936,
   "byteOffset": 74536
  },
  {
   "buffer": 0,
   "byteLength": 1452,
   "byteOffset": 76472
  },
  {
   "buffer": 0,
   "byteLength": 1452,
   "byteOffset": 77924
  },
  {
   "buffer": 0,
   "byteLength": 1936,
   "byteOffset": 79376
  },
  {
   "buffer": 0,
   "byteLength": 1452,
   "byteOffset": 81312
  },
  {
   "buffer": 0,
   "byteLength": 1452,
   "byteOffset": 82764
  },
  {
   "buffer": 0,
   "byteLength": 1936,
   "byteOffset": 84216
  },
  {
   "buffer": 0,
   "byteLength": 1452,
   "byteOffset": 86152
  },
  {
   "buffer": 0,
   "byteLength": 1452,
   "byteOffset": 87604
  },
  {
   "buffer": 0,
   "byteLength": 1936,
   "byteOffset": 89056
  },
  {
   "buffer": 0,
   "byteLength": 1452,
   "byteOffset": 90992
  },
  {
   "buffer": 0,
   "byteLength": 1936,
   "byteOffset": 92444
  },
  {
   "buffer": 0,
   "byteLength": 1452,
   "byteOffset": 94380
  },
  {
   "buffer": 0,
   "byteLength": 1452,
   "byteOffset": 95832
  },
  {
   "buffer": 0,
   "byteLength": 1936,
   "byteOffset": 97284
  },
  {
   "buffer": 0,
   "byteLength": 1452,
   "byteOffset": 99220
  },
  {
   "buffer": 0,
   "byteLength": 1452,
   "byteOffset": 100672
  },
  {
   "buffer": 0,
   "byteLength": 1936,
   "byteOffset": 102124
  },
  {
   "buffer": 0,
   "byteLength": 1452,
   "byteOffset": 104060
  },
  {
   "buffer": 0,
   "byteLength": 1452,
   "byteOffset": 105512
  },
  {
   "buffer": 0,
   "byteLength": 1936,
   "byteOffset": 106964
  },
  {
   "buffer": 0,
   "byteLength": 1452,
   "byteOffset": 108900
  },
  {
   "buffer": 0,
   "byteLength": 1452,
   "byteOffset": 110352
  },
  {
   "buffer": 0,
   "byteLength": 1936,
   "byteOffset": 111804
  },
  {
   "buffer": 0,
   "byteLength": 1452,
   "byteOffset": 113740
  },
  {
   "buffer": 0,
   "byteLength": 1452,
   "byteOffset": 115192
  },
  {
   "buffer": 0,
   "byteLength": 1936,
   "byteOffset": 116644
  },
  {
   "buffer": 0,
   "byteLength": 1452,
   "byteOffset": 118580
  },
  {
   "buffer": 0,
   "byteLength": 1452,
   "byteOffset": 120032
  },
  {
   "buffer": 0,
   "byteLength": 1452,
   "byteOffset": 121484
  },
  {
   "buffer": 0,
   "byteLength": 1452,
   "byteOffset": 122936
  },
  {
   "buffer": 0,
   "byteLength": 1936,
   "byteOffset": 124388
  },
  {
   "buffer": 0,
   "byteLength": 1452,
   "byteOffset": 126324
  },
  {
   "buffer": 0,
   "byteLength": 1452,
   "byteOffset": 127776
  },
  {
   "buffer": 0,
   "byteLength": 1936,
   "byteOffset": 129228
  },
  {
   "buffer": 0,
   "byteLength": 1452,
   "byteOffset": 131164
  },
  {
   "buffer": 0,
   "byteLength": 1452,
   "byteOffset": 132616
  },
  {
   "buffer": 0,
   "byteLength": 1936,
   "byteOffset": 134068
  },
  {
   "buffer": 0,
   "byteLength": 1452,
   "byteOffset": 136004
  },
  {
   "buffer": 0,
   "byteLength": 1452,
   "byteOffset": 137456
  },
  {
   "buffer": 0,
   "byteLength": 1936,
   "byteOffset": 138908
  },
  {
   "buffer": 0,
   "byteLength": 1452,
   "byteOffset": 140844
  },
  {
   "buffer": 0,
   "byteLength": 1452,
   "byteOffset": 142296
  },
  {
   "buffer": 0,
   "byteLength": 1936,
   "byteOffset": 143748
  },
  {
   "buffer": 0,
   "byteLength": 1452,
   "byteOffset": 145684
  },
  {
   "buffer": 0,
   "byteLength": 1452,
   "byteOffset": 147136
  },
  {
   "buffer": 0,
   "byteLength": 1936,
   "byteOffset": 148588
  },
  {
   "buffer": 0,
   "byteLength": 1452,
   "byteOffset": 150524
  },
  {
   "buffer": 0,
   "byteLength": 1452,
   "byteOffset": 151976
  },
  {
   "buffer": 0,
   "byteLength": 1936,
   "byteOffset": 153428
  },
  {
   "buffer": 0,
   "byteLength": 1452,
   "byteOffset": 155364
  },
  {
   "buffer": 0,
   "byteLength": 1452,
   "byteOffset": 156816
  },
  {
   "buffer": 0,
   "byteLength": 1936,
   "byteOffset": 158268
  },
  {
   "buffer": 0,
   "byteLength": 1452,
   "byteOffset": 160204
  },
  {
   "buffer": 0,
   "byteLength": 1452,
   "byteOffset": 161656
  },
  {
   "buffer": 0,
   "byteLength": 1936,
   "byteOffset": 163108
  },
  {
   "buffer": 0,
   "byteLength": 1452,
   "byteOffset": 165044
  },
  {
   "buffer": 0,
   "byteLength": 1452,
   "byteOffset": 166496
  },
  {
   "buffer": 0,
   "byteLength": 1936,
   "byteOffset": 167948
  },
  {
   "buffer": 0,
   "byteLength": 1452,
   "byteOffset": 169884
  },
  {
   "buffer": 0,
   "byteLength": 1452,
   "byteOffset": 171336
  },
  {
   "buffer": 0,
   "byteLength": 1936,
   "byteOffset": 172788
  },
  {
   "buffer": 0,
   "byteLength": 1452,
   "byteOffset": 174724
  },
  {
   "buffer": 0,
   "byteLength": 1452,
   "byteOffset": 176176
  },
  {
   "buffer": 0,
   "byteLength": 1936,
   "byteOffset": 177628
  },
  {
   "buffer": 0,
   "byteLength": 1452,
   "byteOffset": 179564
  },
  {
   "buffer": 0,
   "byteLength": 1452,
   "byteOffset": 181016
  },
  {
   "buffer": 0,
   "byteLength": 1936,
   "byteOffset": 182468
  },
  {
   "buffer": 0,
   "byteLength": 1452,
   "byteOffset": 184404
  },
  {
   "buffer": 0,
   "byteLength": 1452,
   "byteOffset": 185856
  },
  {
   "buffer": 0,
   "byteLength": 1936,
   "byteOffset": 187308
  },
  {
   "buffer": 0,
   "byteLength": 1452,
   "byteOffset": 189244
  },
  {
   "buffer": 0,
   "byteLength": 1452,
   "byteOffset": 190696
  },
  {
   "buffer": 0,
   "byteLength": 1936,
   "byteOffset": 192148
  },
  {
   "buffer": 0,
   "byteLength": 1452,
   "byteOffset": 194084
  },
  {
   "buffer": 0,
   "byteLength": 1452,
   "byteOffset": 195536
  },
  {
   "buffer": 0,
   "byteLength": 1936,
   "byteOffset": 196988
  },
  {
   "buffer": 0,
   "byteLength": 1452,
   "byteOffset": 198924
  },
  {
   "buffer": 0,
   "byteLength": 2752,
   "byteOffset": 200376
  }
 ],
 "buffers": [
  {
   "byteLength": 203128,
   "uri": "horse_graze.bin"
  }
 ]
}