{
 "asset": {
  "generator": "Khronos glTF Blender I/O v4.5.51",
  "version": "2.0"
 },
 "scene": 0,
 "scenes": [
  {
   "name": "Scene",
   "nodes": [
    0
   ]
  }
 ],
 "nodes": [
  {
   "mesh": 0,
   "name": "track"
  }
 ],
 "materials": [
  {
   "name": "ballast_stone",
   "normalTexture": {
    "index": 0
   },
   "occlusionTexture": {
    "index": 1
   },
   "pbrMetallicRoughness": {
    "baseColorTexture": {
     "index": 2
    },
    "metallicRoughnessTexture": {
     "index": 1
    }
   }
  },
  {
   "name": "rail_steel",
   "normalTexture": {
    "index": 3
   },
   "occlusionTexture": {
    "index": 4
   },
   "pbrMetallicRoughness": {
    "baseColorTexture": {
     "index": 5
    },
    "metallicRoughnessTexture": {
     "index": 4
    }
   }
  },
  {
   "name": "sleeper_timber",
   "normalTexture": {
    "index": 6
   },
   "occlusionTexture": {
    "index": 7
   },
   "pbrMetallicRoughness": {
    "baseColorTexture": {
     "index": 8
    },
    "metallicRoughnessTexture": {
     "index": 7
    }
   }
  }
 ],
 "meshes": [
  {
   "name": "track",
   "primitives": [
    {
     "attributes": {
      "POSITION": 0,
      "NORMAL": 1,
      "TEXCOORD_0": 2
     },
     "indices": 3,
     "material": 0
    },
    {
     "attributes": {
      "POSITION": 4,
      "NORMAL": 5,
      "TEXCOORD_0": 6
     },
     "indices": 7,
     "material": 1
    },
    {
     "attributes": {
      "POSITION": 8,
      "NORMAL": 9,
      "TEXCOORD_0": 10
     },
     "indices": 11,
     "material": 2
    }
   ]
  }
 ],
 "textures": [
  {
   "sampler": 0,
   "source": 0
  },
  {
   "sampler": 0,
   "source": 1
  },
  {
   "sampler": 0,
   "source": 2
  },
  {
   "sampler": 0,
   "source": 3
  },
  {
   "sampler": 0,
   "source": 4
  },
  {
   "sampler": 0,
   "source": 5
  },
  {
   "sampler": 0,
   "source": 6
  },
  {
   "sampler": 0,
   "source": 7
  },
  {
   "sampler": 0,
   "source": 8
  }
 ],
 "images": [
  {
   "mimeType": "image/png",
   "name": "ballast_stone_normal.png",
   "uri": "../_library/ballast_stone_normal.png"
  },
  {
   "mimeType": "image/png",
   "name": "ballast_stone_orm.png",
   "uri": "../_library/ballast_stone_orm.png"
  },
  {
   "mimeType": "image/png",
   "name": "ballast_stone_albedo.png",
   "uri": "../_library/ballast_stone_albedo.png"
  },
  {
   "mimeType": "image/png",
   "name": "rail_steel_normal.png",
   "uri": "../_library/rail_steel_normal.png"
  },
  {
   "mimeType": "image/png",
   "name": "rail_steel_orm.png",
   "uri": "../_library/rail_steel_orm.png"
  },
  {
   "mimeType": "image/png",
   "name": "rail_steel_albedo.png",
   "uri": "../_library/rail_steel_albedo.png"
  },
  {
   "mimeType": "image/png",
   "name": "sleeper_timber_normal.png",
   "uri": "../_library/sleeper_timber_normal.png"
  },
  {
   "mimeType": "image/png",
   "name": "sleeper_timber_orm.png",
   "uri": "../_library/sleeper_timber_orm.png"
  },
  {
   "mimeType": "image/png",
   "name": "sleeper_timber_albedo.png",
   "uri": "../_library/sleeper_timber_albedo.png"
  }
 ],
 "accessors": [
  {
   "bufferView": 0,
   "componentType": 5126,
   "count": 36,
   "max": [
    2.5,
    0.27000001072883606,
    0
   ],
   "min": [
    -2.5,
    -0.07999999821186066,
    -12
   ],
   "type": "VEC3"
  },
  {
   "bufferView": 1,
   "componentType": 5126,
   "count": 36,
   "type": "VEC3"
  },
  {
   "bufferView": 2,
   "componentType": 5126,
   "count": 36,
   "type": "VEC2"
  },
  {
   "bufferView": 3,
   "componentType": 5123,
   "count": 144,
   "type": "SCALAR"
  },
  {
   "bufferView": 4,
   "componentType": 5126,
   "count": 108,
   "max": [
    0.7925000190734863,
    0.5,
    0
   ],
   "min": [
    -0.7925000190734863,
    0.36000001430511475,
    -12
   ],
   "type": "VEC3"
  },
  {
   "bufferView": 5,
   "componentType": 5126,
   "count": 108,
   "type": "VEC3"
  },
  {
   "bufferView": 6,
   "componentType": 5126,
   "count": 108,
   "type": "VEC2"
  },
  {
   "bufferView": 7,
   "componentType": 5123,
   "count": 288,
   "type": "SCALAR"
  },
  {
   "bufferView": 8,
   "componentType": 5126,
   "count": 360,
   "max": [
    1.2999999523162842,
    0.3499999940395355,
    -0.2083333283662796
   ],
   "min": [
    -1.2999999523162842,
    0.25,
    -11.791666984558105
   ],
   "type": "VEC3"
  },
  {
   "bufferView": 9,
   "componentType": 5126,
   "count": 360,
   "type": "VEC3"
  },
  {
   "bufferView": 10,
   "componentType": 5126,
   "count": 360,
   "type": "VEC2"
  },
  {
   "bufferView": 11,
   "componentType": 5123,
   "count": 540,
   "type": "SCALAR"
  }
 ],
 "bufferViews": [
  {
   "buffer": 0,
   "byteLength": 432,
   "byteOffset": 0,
   "target": 34962
  },
  {
   "buffer": 0,
   "byteLength": 432,
   "byteOffset": 432,
   "target": 34962
  },
  {
   "buffer": 0,
   "byteLength": 288,
   "byteOffset": 864,
   "target": 34962
  },
  {
   "buffer": 0,
   "byteLength": 288,
   "byteOffset": 1152,
   "target": 34963
  },
  {
   "buffer": 0,
   "byteLength": 1296,
   "byteOffset": 1440,
   "target": 34962
  },
  {
   "buffer": 0,
   "byteLength": 1296,
   "byteOffset": 2736,
   "target": 34962
  },
  {
   "buffer": 0,
   "byteLength": 864,
   "byteOffset": 4032,
   "target": 34962
  },
  {
   "buffer": 0,
   "byteLength": 576,
   "byteOffset": 4896,
   "target": 34963
  },
  {
   "buffer": 0,
   "byteLength": 4320,
   "byteOffset": 5472,
   "target": 34962
  },
  {
   "buffer": 0,
   "byteLength": 4320,
   "byteOffset": 9792,
   "target": 34962
  },
  {
   "buffer": 0,
   "byteLength": 2880,
   "byteOffset": 14112,
   "target": 34962
  },
  {
   "buffer": 0,
   "byteLength": 1080,
   "byteOffset": 16992,
   "target": 34963
  }
 ],
 "samplers": [
  {
   "magFilter": 9729,
   "minFilter": 9987
  }
 ],
 "buffers": [
  {
   "byteLength": 18072,
   "uri": "rail_track_weeds_far.bin"
  }
 ]
}