{
	"asset":{
		"generator":"Khronos glTF Blender I/O v4.5.51",
		"version":"2.0"
	},
	"scene":0,
	"scenes":[
		{
			"name":"Scene",
			"nodes":[
				81
			]
		}
	],
	"nodes":[
		{
			"name":"Bip01 REye",
			"rotation":[
				6.551691967615625e-06,
				4.62070738649345e-06,
				0.6514644026756287,
				0.758679211139679
			],
			"translation":[
				11.082050323486328,
				6.991771221160889,
				-3.1885080337524414
			]
		},
		{
			"name":"Bip01 LEye",
			"rotation":[
				-6.484976438514423e-06,
				-8.379086466447916e-06,
				0.6514644026756287,
				0.7586791515350342
			],
			"translation":[
				11.082050323486328,
				6.991754055023193,
				3.1885478496551514
			]
		},
		{
			"name":"Bip01 MBottomLip",
			"rotation":[
				-7.817823188815964e-07,
				2.127517291228287e-06,
				-0.17364813387393951,
				0.9848077893257141
			],
			"scale":[
				1,
				1.0000001192092896,
				1.0000001192092896
			],
			"translation":[
				10.55405330657959,
				-2.333209991455078,
				-0.08900675177574158
			]
		},
		{
			"name":"Bip01 MTongue",
			"rotation":[
				0.0030304030515253544,
				0.01334304641932249,
				-0.17570443451404572,
				0.9843478798866272
			],
			"scale":[
				1.0000001192092896,
				1,
				1
			],
			"translation":[
				7.251124382019043,
				-1.5665857791900635,
				0.06097428500652313
			]
		},
		{
			"name":"Bip01 LMouthBottom",
			"rotation":[
				-0.03838108107447624,
				-0.21606490015983582,
				-0.16940714418888092,
				0.9608038663864136
			],
			"scale":[
				0.9999998807907104,
				1.0000001192092896,
				1
			],
			"translation":[
				10.335315704345703,
				-2.4357383251190186,
				1.3072662353515625
			]
		},
		{
			"name":"Bip01 RMouthBottom",
			"rotation":[
				0.038288358598947525,
				0.21554110944271088,
				-0.16942627727985382,
				0.9609218239784241
			],
			"scale":[
				1,
				1.0000001192092896,
				1
			],
			"translation":[
				10.31497573852539,
				-2.421576738357544,
				-1.4824954271316528
			]
		},
		{
			"children":[
				2,
				3,
				4,
				5
			],
			"name":"Bip01 MJaw",
			"rotation":[
				0.0012046522460877895,
				-0.004261425230652094,
				0.7641019821166992,
				0.6450803279876709
			],
			"scale":[
				0.9999998807907104,
				0.9999999403953552,
				1
			],
			"translation":[
				3.2893993854522705,
				1.2400264739990234,
				1.7302506876148982e-06
			]
		},
		{
			"name":"Bip01 RMasseter",
			"rotation":[
				-0.25819817185401917,
				0.28244927525520325,
				0.6814050674438477,
				0.6238936185836792
			],
			"scale":[
				1,
				1,
				0.9999998807907104
			],
			"translation":[
				4.580299377441406,
				7.721068859100342,
				-5.719388484954834
			]
		},
		{
			"name":"Bip01 LMasseter",
			"rotation":[
				0.2582002878189087,
				-0.2824552059173584,
				0.6814025640487671,
				0.6238928437232971
			],
			"scale":[
				0.9999998211860657,
				0.9999998211860657,
				0.9999999403953552
			],
			"translation":[
				4.580298900604248,
				7.721039295196533,
				5.719433784484863
			]
		},
		{
			"name":"Bip01 MUpperLip",
			"rotation":[
				-1.4390371916306322e-07,
				-2.7212379336560844e-06,
				0.6758843064308167,
				0.7370077967643738
			],
			"translation":[
				5.0816168785095215,
				11.831409454345703,
				1.7066649888874963e-05
			]
		},
		{
			"name":"Bip01 RCaninus",
			"rotation":[
				-0.19061286747455597,
				0.17508265376091003,
				0.6528336405754089,
				0.7119137048721313
			],
			"scale":[
				0.9999999403953552,
				0.9999999403953552,
				1
			],
			"translation":[
				6.248181343078613,
				10.813020706176758,
				-2.9446985721588135
			]
		},
		{
			"name":"Bip01 LCaninus",
			"rotation":[
				0.19061288237571716,
				-0.17508631944656372,
				0.6528326869010925,
				0.7119136452674866
			],
			"scale":[
				1,
				1,
				0.9999999403953552
			],
			"translation":[
				6.248181343078613,
				10.813005447387695,
				2.944758415222168
			]
		},
		{
			"name":"Bip01 REyeBlinkBottom",
			"rotation":[
				-0.09612922370433807,
				0.08829662948846817,
				0.6701017022132874,
				0.7307027578353882
			],
			"scale":[
				1.0000001192092896,
				1,
				1.0000001192092896
			],
			"translation":[
				10.37459945678711,
				8.750563621520996,
				-3.4110541343688965
			]
		},
		{
			"name":"Bip01 LEyeBlinkBottom",
			"rotation":[
				0.09612924605607986,
				-0.08830040693283081,
				0.6701012253761292,
				0.7307027578353882
			],
			"scale":[
				1.0000001192092896,
				1,
				1
			],
			"translation":[
				10.37459945678711,
				8.750543594360352,
				3.4111039638519287
			]
		},
		{
			"name":"Bip01 RUpperlip",
			"rotation":[
				-0.17031505703926086,
				0.17054718732833862,
				0.6865418553352356,
				0.6859786510467529
			],
			"scale":[
				1,
				1,
				0.9999999403953552
			],
			"translation":[
				5.024846076965332,
				11.684239387512207,
				-1.4255619049072266
			]
		},
		{
			"name":"Bip01 LUpperlip",
			"rotation":[
				0.17021210491657257,
				-0.17044803500175476,
				0.6865665316581726,
				0.6860042214393616
			],
			"scale":[
				0.9999999403953552,
				0.9999997615814209,
				1
			],
			"translation":[
				5.024846076965332,
				11.684232711791992,
				1.4256271123886108
			]
		},
		{
			"name":"Bip01 RMouthCorner",
			"rotation":[
				-0.15812990069389343,
				0.20154571533203125,
				0.7146279811859131,
				0.6509079337120056
			],
			"scale":[
				1,
				1,
				1.0000001192092896
			],
			"translation":[
				4.082551956176758,
				10.714234352111816,
				-2.7700915336608887
			]
		},
		{
			"name":"Bip01 LMouthCorner",
			"rotation":[
				0.15813304483890533,
				-0.20155298709869385,
				0.7146259546279907,
				0.6509071588516235
			],
			"scale":[
				0.9999999403953552,
				0.9999998807907104,
				1
			],
			"translation":[
				4.082551956176758,
				10.714219093322754,
				2.7701518535614014
			]
		},
		{
			"name":"Bip01 RCheek",
			"rotation":[
				-0.1325632780790329,
				0.1349373459815979,
				0.6999219655990601,
				0.6887149214744568
			],
			"scale":[
				0.9999999403953552,
				0.9999999403953552,
				1
			],
			"translation":[
				8.475419044494629,
				9.653769493103027,
				-4.13737154006958
			]
		},
		{
			"name":"Bip01 LCheek",
			"rotation":[
				0.13256904482841492,
				-0.1349470615386963,
				0.6999202370643616,
				0.688713550567627
			],
			"scale":[
				0.9999998807907104,
				0.9999998211860657,
				0.9999999403953552
			],
			"translation":[
				8.475419044494629,
				9.6537446975708,
				4.137425422668457
			]
		},
		{
			"name":"Bip01 REyeBlinkTop",
			"rotation":[
				-0.10190215706825256,
				0.10861627012491226,
				0.5618585348129272,
				0.8137158155441284
			],
			"scale":[
				1,
				0.9999999403953552,
				1
			],
			"translation":[
				11.86778736114502,
				8.439644813537598,
				-3.335810661315918
			]
		},
		{
			"name":"Bip01 LEyeBlinkTop",
			"rotation":[
				0.10190214216709137,
				-0.10861939936876297,
				0.5618579387664795,
				0.8137158155441284
			],
			"scale":[
				0.9999999403953552,
				1,
				0.9999999403953552
			],
			"translation":[
				11.86778736114502,
				8.439627647399902,
				3.33585786819458
			]
		},
		{
			"name":"Bip01 RInnerEyebrow",
			"rotation":[
				-0.06418655067682266,
				0.05895672366023064,
				0.6733120083808899,
				0.7342038154602051
			],
			"scale":[
				1,
				0.9999999403953552,
				1
			],
			"translation":[
				13.0053071975708,
				9.465076446533203,
				-2.6413159370422363
			]
		},
		{
			"name":"Bip01 LInnerEyebrow",
			"rotation":[
				0.06418652087450027,
				-0.05896052345633507,
				0.673311710357666,
				0.7342037558555603
			],
			"scale":[
				0.9999999403953552,
				0.9999998807907104,
				0.9999998807907104
			],
			"translation":[
				13.0053071975708,
				9.465060234069824,
				2.641369581222534
			]
		},
		{
			"name":"Bip01 MMiddleEyebrow",
			"rotation":[
				-1.8514837663019534e-08,
				-1.8930492160507129e-06,
				0.6769025325775146,
				0.7360726594924927
			],
			"translation":[
				12.706464767456055,
				10.012908935546875,
				1.4391043805517256e-05
			]
		},
		{
			"name":"Bip01 ROuterEyebrow",
			"rotation":[
				-0.18039093911647797,
				0.18558621406555176,
				0.6560015082359314,
				0.7089985013008118
			],
			"scale":[
				1,
				1.0000001192092896,
				0.9999998807907104
			],
			"translation":[
				12.541534423828125,
				8.292976379394531,
				-4.926668643951416
			]
		},
		{
			"name":"Bip01 LOuterEyebrow",
			"rotation":[
				0.18039095401763916,
				-0.1855899840593338,
				0.656000554561615,
				0.708998441696167
			],
			"scale":[
				1.0000001192092896,
				1.0000001192092896,
				0.9999998807907104
			],
			"translation":[
				12.541534423828125,
				8.292949676513672,
				4.92671537399292
			]
		},
		{
			"name":"Bip01 MNose",
			"rotation":[
				-1.5257593588557938e-07,
				-2.719547865126515e-06,
				0.6731290817260742,
				0.7395250797271729
			],
			"scale":[
				0.9999999403953552,
				0.9999999403953552,
				1
			],
			"translation":[
				8.708109855651855,
				12.193282127380371,
				1.7248137737624347e-05
			]
		},
		{
			"children":[
				0,
				1,
				6,
				7,
				8,
				9,
				10,
				11,
				12,
				13,
				14,
				15,
				16,
				17,
				18,
				19,
				20,
				21,
				22,
				23,
				24,
				25,
				26,
				27
			],
			"name":"Bip01 Head",
			"rotation":[
				5.532293734233917e-09,
				1.7505779226212326e-07,
				-0.07293776422739029,
				0.9973364472389221
			],
			"scale":[
				1.0000001192092896,
				1.0000001192092896,
				1
			],
			"translation":[
				6.926530838012695,
				-7.987016942934133e-06,
				-2.2854442249808926e-06
			]
		},
		{
			"name":"Bip01 L Finger02",
			"rotation":[
				3.671809167826723e-07,
				-1.6954014370185178e-07,
				0.10685882717370987,
				0.9942741990089417
			],
			"scale":[
				1,
				0.9999998211860657,
				1
			],
			"translation":[
				3.100337505340576,
				1.1444091796875e-05,
				2.193450927734375e-05
			]
		},
		{
			"children":[
				29
			],
			"name":"Bip01 L Finger01",
			"rotation":[
				-1.3122044784097397e-08,
				2.258866231841239e-07,
				0.1126520186662674,
				0.9936345219612122
			],
			"scale":[
				1,
				0.9999999403953552,
				1
			],
			"translation":[
				2.8278326988220215,
				-1.9073486328125e-06,
				-4.76837158203125e-06
			]
		},
		{
			"children":[
				30
			],
			"name":"Bip01 L Finger0",
			"rotation":[
				0.6539391279220581,
				0.36675122380256653,
				-0.03328173607587814,
				0.6608703136444092
			],
			"scale":[
				0.9999998807907104,
				0.9999998807907104,
				0.9999998211860657
			],
			"translation":[
				2.676082134246826,
				0.6282137632369995,
				-3.198242664337158
			]
		},
		{
			"name":"Bip01 L Finger12",
			"rotation":[
				2.3288244221930654e-08,
				-3.5584437796387647e-07,
				0.0210916418582201,
				0.9997775554656982
			],
			"scale":[
				0.9999999403953552,
				0.9999999403953552,
				1
			],
			"translation":[
				2.379058599472046,
				5.7220458984375e-06,
				4.76837158203125e-06
			]
		},
		{
			"children":[
				32
			],
			"name":"Bip01 L Finger11",
			"rotation":[
				-2.647232122399146e-07,
				4.2093802221643273e-07,
				0.09346975386142731,
				0.9956220984458923
			],
			"scale":[
				1,
				1,
				0.9999999403953552
			],
			"translation":[
				3.1289567947387695,
				-2.193450927734375e-05,
				-9.5367431640625e-07
			]
		},
		{
			"children":[
				33
			],
			"name":"Bip01 L Finger1",
			"rotation":[
				-0.0005942175048403442,
				0.004124367609620094,
				0.10714036226272583,
				0.9942351579666138
			],
			"scale":[
				0.9999999403953552,
				0.9999998807907104,
				0.9999999403953552
			],
			"translation":[
				9.438960075378418,
				-0.20391309261322021,
				-2.2424416542053223
			]
		},
		{
			"name":"Bip01 L Finger22",
			"rotation":[
				1.3986448266223306e-07,
				1.3606538686872227e-06,
				0.09046704322099686,
				0.9958994388580322
			],
			"scale":[
				1,
				0.9999998807907104,
				1
			],
			"translation":[
				2.8488011360168457,
				7.3909759521484375e-06,
				1.430511474609375e-06
			]
		},
		{
			"children":[
				35
			],
			"name":"Bip01 L Finger21",
			"rotation":[
				7.187137640585206e-08,
				-2.19347683128035e-07,
				0.06659207493066788,
				0.9977803230285645
			],
			"scale":[
				1,
				0.9999998807907104,
				0.9999999403953552
			],
			"translation":[
				3.8014070987701416,
				-2.384185791015625e-07,
				-6.67572021484375e-06
			]
		},
		{
			"children":[
				36
			],
			"name":"Bip01 L Finger2",
			"rotation":[
				-0.139201357960701,
				-0.02846585586667061,
				0.1446167230606079,
				0.9792337417602539
			],
			"scale":[
				0.9999998211860657,
				0.9999998807907104,
				1
			],
			"translation":[
				9.55927562713623,
				-0.18641066551208496,
				0.1453566551208496
			]
		},
		{
			"name":"Bip01 L Finger32",
			"rotation":[
				1.4148916704925796e-08,
				-3.9325837519754714e-07,
				0.025095254182815552,
				0.9996850490570068
			],
			"scale":[
				1,
				0.9999998807907104,
				1.0000001192092896
			],
			"translation":[
				2.4442243576049805,
				1.2524425983428955e-05,
				1.0251998901367188e-05
			]
		},
		{
			"children":[
				38
			],
			"name":"Bip01 L Finger31",
			"rotation":[
				-1.2594182408065535e-07,
				6.182279435051896e-07,
				0.04960634559392929,
				0.9987688660621643
			],
			"scale":[
				1,
				0.9999997615814209,
				1
			],
			"translation":[
				3.3696396350860596,
				-1.4185905456542969e-05,
				-1.6689300537109375e-06
			]
		},
		{
			"children":[
				39
			],
			"name":"Bip01 L Finger3",
			"rotation":[
				-0.14773336052894592,
				-0.019086087122559547,
				0.18398891389369965,
				0.9715753793716431
			],
			"scale":[
				0.9999999403953552,
				0.9999999403953552,
				0.9999999403953552
			],
			"translation":[
				8.993627548217773,
				0.2269841432571411,
				2.3016867637634277
			]
		},
		{
			"name":"Bip01 L Finger42",
			"rotation":[
				-6.754192760638489e-09,
				-1.7363513507007156e-06,
				0.02495119348168373,
				0.9996886849403381
			],
			"scale":[
				0.9999999403953552,
				0.9999998807907104,
				0.9999998807907104
			],
			"translation":[
				1.5358158349990845,
				-1.633167266845703e-05,
				3.814697265625e-06
			]
		},
		{
			"children":[
				41
			],
			"name":"Bip01 L Finger41",
			"rotation":[
				2.3661037573674548e-07,
				-4.194244809241354e-07,
				0.02144523337483406,
				0.9997700452804565
			],
			"scale":[
				0.9999999403953552,
				0.9999999403953552,
				0.9999997615814209
			],
			"translation":[
				2.9087789058685303,
				-1.430511474609375e-06,
				1.52587890625e-05
			]
		},
		{
			"children":[
				42
			],
			"name":"Bip01 L Finger4",
			"rotation":[
				-0.22423401474952698,
				-0.04355970770120621,
				0.26742008328437805,
				0.9361133575439453
			],
			"scale":[
				0.9999998211860657,
				1,
				0.9999999403953552
			],
			"translation":[
				8.023808479309082,
				1.2019168138504028,
				3.974733352661133
			]
		},
		{
			"children":[
				31,
				34,
				37,
				40,
				43
			],
			"name":"Bip01 L Hand",
			"rotation":[
				-0.7147617936134338,
				0.012448910623788834,
				0.036024268716573715,
				0.6983286738395691
			],
			"scale":[
				0.9999999403953552,
				0.9999999403953552,
				0.9999998211860657
			],
			"translation":[
				27.091941833496094,
				-2.6702880859375e-05,
				-3.063678741455078e-05
			]
		},
		{
			"children":[
				44
			],
			"name":"Bip01 L Forearm",
			"rotation":[
				-1.4200264786268235e-07,
				-2.79804368119585e-07,
				-0.17941704392433167,
				0.9837731122970581
			],
			"translation":[
				28.580129623413086,
				-2.002716064453125e-05,
				-1.6182661056518555e-05
			]
		},
		{
			"children":[
				45
			],
			"name":"Bip01 L UpperArm",
			"rotation":[
				0.09000933170318604,
				0.26698949933052063,
				-0.029683830216526985,
				0.9590275287628174
			],
			"scale":[
				0.9999998807907104,
				0.9999999403953552,
				1
			],
			"translation":[
				14.107956886291504,
				-1.6391277313232422e-06,
				-6.414949893951416e-06
			]
		},
		{
			"children":[
				46
			],
			"name":"Bip01 L Clavicle",
			"rotation":[
				0.6135297417640686,
				-0.11396154761314392,
				0.7713326811790466,
				0.12505963444709778
			],
			"scale":[
				1.0000009536743164,
				1.0000001192092896,
				1.0000001192092896
			],
			"translation":[
				-6.206547737121582,
				0.7088218331336975,
				7.282190322875977
			]
		},
		{
			"name":"Bip01 R Finger02",
			"rotation":[
				2.0232414499332663e-07,
				-1.1240230080034053e-08,
				0.1068587526679039,
				0.9942741990089417
			],
			"translation":[
				3.100327253341675,
				-1.430511474609375e-05,
				5.7220458984375e-06
			]
		},
		{
			"children":[
				48
			],
			"name":"Bip01 R Finger01",
			"rotation":[
				1.3122044606461714e-07,
				-2.5587988261577266e-07,
				0.1126522645354271,
				0.9936344623565674
			],
			"scale":[
				0.9999999403953552,
				0.9999998807907104,
				1
			],
			"translation":[
				2.8278231620788574,
				5.7220458984375e-06,
				-1.9073486328125e-06
			]
		},
		{
			"children":[
				49
			],
			"name":"Bip01 R Finger0",
			"rotation":[
				-0.6539394855499268,
				-0.3667512834072113,
				-0.03328176960349083,
				0.660869836807251
			],
			"scale":[
				0.9999999403953552,
				1,
				1
			],
			"translation":[
				2.6760945320129395,
				0.6282041072845459,
				3.1982479095458984
			]
		},
		{
			"name":"Bip01 R Finger12",
			"rotation":[
				9.59475556783218e-08,
				5.402872460535946e-08,
				0.021091580390930176,
				0.999777615070343
			],
			"scale":[
				0.9999999403953552,
				1,
				1.0000001192092896
			],
			"translation":[
				2.3790647983551025,
				-8.58306884765625e-06,
				-3.814697265625e-06
			]
		},
		{
			"children":[
				51
			],
			"name":"Bip01 R Finger11",
			"rotation":[
				3.535878931870684e-07,
				1.3282931377034402e-07,
				0.09346969425678253,
				0.9956220984458923
			],
			"scale":[
				1,
				1.0000001192092896,
				0.9999999403953552
			],
			"translation":[
				3.1289639472961426,
				-4.291534423828125e-06,
				2.384185791015625e-06
			]
		},
		{
			"children":[
				52
			],
			"name":"Bip01 R Finger1",
			"rotation":[
				0.0005940544069744647,
				-0.0041244495660066605,
				0.10714053362607956,
				0.9942351579666138
			],
			"scale":[
				1,
				0.9999999403953552,
				1.0000001192092896
			],
			"translation":[
				9.438970565795898,
				-0.20392656326293945,
				2.242445945739746
			]
		},
		{
			"name":"Bip01 R Finger22",
			"rotation":[
				-3.268958721491799e-07,
				1.3267545284634252e-08,
				0.09046682715415955,
				0.995899498462677
			],
			"scale":[
				0.9999999403953552,
				1,
				1.0000001192092896
			],
			"translation":[
				2.848795175552368,
				6.757676601409912e-06,
				-3.814697265625e-06
			]
		},
		{
			"children":[
				54
			],
			"name":"Bip01 R Finger21",
			"rotation":[
				7.642166011123663e-09,
				4.620302007651844e-08,
				0.06659196317195892,
				0.9977803230285645
			],
			"scale":[
				1,
				1,
				0.9999998807907104
			],
			"translation":[
				3.8014109134674072,
				5.0961971282958984e-06,
				-1.430511474609375e-06
			]
		},
		{
			"children":[
				55
			],
			"name":"Bip01 R Finger2",
			"rotation":[
				0.1392013132572174,
				0.028465939685702324,
				0.1446170210838318,
				0.9792337417602539
			],
			"scale":[
				0.9999998807907104,
				1,
				1
			],
			"translation":[
				9.559290885925293,
				-0.18642127513885498,
				-0.14535236358642578
			]
		},
		{
			"name":"Bip01 R Finger32",
			"rotation":[
				5.112242007498935e-08,
				1.3357043826545123e-07,
				0.02509530633687973,
				0.9996850490570068
			],
			"scale":[
				1,
				1.0000001192092896,
				1.0000001192092896
			],
			"translation":[
				2.4442498683929443,
				7.797032594680786e-06,
				-4.76837158203125e-07
			]
		},
		{
			"children":[
				57
			],
			"name":"Bip01 R Finger31",
			"rotation":[
				5.752178111606554e-08,
				-8.951718655225704e-08,
				0.04960612580180168,
				0.9987688660621643
			],
			"scale":[
				0.9999998807907104,
				1,
				0.9999998807907104
			],
			"translation":[
				3.3696298599243164,
				1.3649463653564453e-05,
				-2.1457672119140625e-06
			]
		},
		{
			"children":[
				58
			],
			"name":"Bip01 R Finger3",
			"rotation":[
				0.14773322641849518,
				0.01908605732023716,
				0.18398916721343994,
				0.9715753197669983
			],
			"scale":[
				1,
				1,
				0.9999998807907104
			],
			"translation":[
				8.993650436401367,
				0.22696614265441895,
				-2.3016891479492188
			]
		},
		{
			"name":"Bip01 R Finger42",
			"rotation":[
				-1.5226042648919247e-07,
				-5.6770144141182755e-08,
				0.024951227009296417,
				0.9996886849403381
			],
			"scale":[
				1,
				1,
				0.9999999403953552
			],
			"translation":[
				1.5357862710952759,
				-1.0728836059570312e-05,
				-4.291534423828125e-06
			]
		},
		{
			"children":[
				60
			],
			"name":"Bip01 R Finger41",
			"rotation":[
				-1.504431992316313e-07,
				-2.0423945557013212e-07,
				0.021445266902446747,
				0.9997700452804565
			],
			"scale":[
				0.9999999403953552,
				0.9999998807907104,
				0.9999999403953552
			],
			"translation":[
				2.9087939262390137,
				1.9073486328125e-05,
				-9.5367431640625e-07
			]
		},
		{
			"children":[
				61
			],
			"name":"Bip01 R Finger4",
			"rotation":[
				0.22423316538333893,
				0.04356180503964424,
				0.2674204707145691,
				0.9361132979393005
			],
			"scale":[
				0.9999998807907104,
				1,
				0.9999998807907104
			],
			"translation":[
				8.023819923400879,
				1.201913833618164,
				-3.9747323989868164
			]
		},
		{
			"children":[
				50,
				53,
				56,
				59,
				62
			],
			"name":"Bip01 R Hand",
			"rotation":[
				0.7147621512413025,
				-0.012448722496628761,
				0.03602426499128342,
				0.6983283162117004
			],
			"scale":[
				0.9999999403953552,
				0.9999998211860657,
				0.9999998807907104
			],
			"translation":[
				27.09194564819336,
				-7.62939453125e-06,
				4.0531158447265625e-06
			]
		},
		{
			"children":[
				63
			],
			"name":"Bip01 R Forearm",
			"rotation":[
				1.893368661853856e-08,
				1.050819662395952e-07,
				-0.17941708862781525,
				0.9837731122970581
			],
			"scale":[
				0.9999999403953552,
				0.9999999403953552,
				1
			],
			"translation":[
				28.58013916015625,
				-5.9604644775390625e-06,
				-7.18235969543457e-06
			]
		},
		{
			"children":[
				64
			],
			"name":"Bip01 R UpperArm",
			"rotation":[
				-0.09000933915376663,
				-0.26698949933052063,
				-0.029683908447623253,
				0.9590275287628174
			],
			"translation":[
				14.107979774475098,
				-4.023313522338867e-06,
				4.552304744720459e-06
			]
		},
		{
			"children":[
				65
			],
			"name":"Bip01 R Clavicle",
			"rotation":[
				-0.6135294437408447,
				0.11395937949419022,
				0.7713329792022705,
				0.12506140768527985
			],
			"scale":[
				1.0000001192092896,
				0.9999998211860657,
				1
			],
			"translation":[
				-6.206546306610107,
				0.708861768245697,
				-7.282184600830078
			]
		},
		{
			"children":[
				28,
				47,
				66
			],
			"name":"Bip01 Neck",
			"rotation":[
				5.209568332276149e-09,
				-3.3505008900647226e-07,
				0.16845475137233734,
				0.9857093691825867
			],
			"translation":[
				19.914180755615234,
				1.5633822679519653,
				-9.496491202298785e-07
			]
		},
		{
			"children":[
				67
			],
			"name":"Bip01 Spine2",
			"rotation":[
				3.9203212898186734e-10,
				-1.8299844839475554e-07,
				0.015563426539301872,
				0.9998788833618164
			],
			"scale":[
				1.0000001192092896,
				1.000000238418579,
				1.0000001192092896
			],
			"translation":[
				15.317577362060547,
				-0.012194514274597168,
				1.7227841908606933e-06
			]
		},
		{
			"children":[
				68
			],
			"name":"Bip01 Spine1",
			"rotation":[
				-2.616915018016641e-10,
				1.717432240866401e-07,
				-0.013679517433047295,
				0.9999064207077026
			],
			"scale":[
				0.9999999403953552,
				1,
				0.9999998807907104
			],
			"translation":[
				15.316893577575684,
				-0.01219022274017334,
				-2.3765173864376266e-06
			]
		},
		{
			"name":"Bip01 L Toe0",
			"rotation":[
				-6.718391318827344e-07,
				5.87898114190466e-07,
				0.7071066498756409,
				0.70710688829422
			],
			"scale":[
				1,
				0.9999999403953552,
				0.9999999403953552
			],
			"translation":[
				10.162374496459961,
				13.6295747756958,
				-2.0058592781424522e-05
			]
		},
		{
			"children":[
				70
			],
			"name":"Bip01 L Foot",
			"rotation":[
				0.01493723876774311,
				-0.01971772499382496,
				0.04391270875930786,
				0.9987290501594543
			],
			"scale":[
				1,
				0.9999999403953552,
				0.9999998807907104
			],
			"translation":[
				39.668888092041016,
				-3.6954879760742188e-06,
				-1.1652708053588867e-05
			]
		},
		{
			"children":[
				71
			],
			"name":"Bip01 L Calf",
			"rotation":[
				3.329997610990176e-08,
				-3.569104123357647e-08,
				-0.06167905405163765,
				0.9980960488319397
			],
			"translation":[
				39.90354919433594,
				-4.172325134277344e-06,
				-3.725290298461914e-06
			]
		},
		{
			"children":[
				72
			],
			"name":"Bip01 L Thigh",
			"rotation":[
				-0.0018703739624470472,
				-0.9900749921798706,
				-0.138014554977417,
				0.02645968832075596
			],
			"scale":[
				0.9999998211860657,
				0.9999999403953552,
				1
			],
			"translation":[
				-12.021254539489746,
				-0.37249958515167236,
				8.836848258972168
			]
		},
		{
			"name":"Bip01 R Toe0",
			"rotation":[
				5.610282300949621e-07,
				-6.032814781065099e-07,
				0.7071067690849304,
				0.7071067690849304
			],
			"scale":[
				0.9999999403953552,
				0.9999999403953552,
				0.9999998807907104
			],
			"translation":[
				10.16236686706543,
				13.629570960998535,
				2.3842861992307007e-05
			]
		},
		{
			"children":[
				74
			],
			"name":"Bip01 R Foot",
			"rotation":[
				-0.014937229454517365,
				0.019717987626791,
				0.043912623077631,
				0.9987290501594543
			],
			"scale":[
				1,
				0.9999998807907104,
				0.9999998807907104
			],
			"translation":[
				39.66891098022461,
				3.874301910400391e-06,
				-5.155801773071289e-06
			]
		},
		{
			"children":[
				75
			],
			"name":"Bip01 R Calf",
			"rotation":[
				-1.1197188953815385e-08,
				-1.236356297340535e-07,
				-0.06167908385396004,
				0.9980961084365845
			],
			"scale":[
				0.9999999403953552,
				1,
				1
			],
			"translation":[
				39.90352249145508,
				1.1563301086425781e-05,
				5.513429641723633e-06
			]
		},
		{
			"children":[
				76
			],
			"name":"Bip01 R Thigh",
			"rotation":[
				0.0018704405520111322,
				0.9900753498077393,
				-0.13801181316375732,
				0.026459582149982452
			],
			"scale":[
				0.9999998211860657,
				0.9999999403953552,
				0.9999998211860657
			],
			"translation":[
				-12.021257400512695,
				-0.37245020270347595,
				-8.836846351623535
			]
		},
		{
			"children":[
				69,
				73,
				77
			],
			"name":"Bip01 Spine",
			"rotation":[
				-2.0977925032639178e-06,
				6.759078132745344e-07,
				-0.022256383672356606,
				0.9997522830963135
			],
			"scale":[
				1.0000001192092896,
				1,
				1
			],
			"translation":[
				12.025932312011719,
				-0.1628580242395401,
				-1.7503101844340563e-05
			]
		},
		{
			"children":[
				78
			],
			"name":"Bip01 Pelvis",
			"rotation":[
				0.7071067690849304,
				0.7071067690849304,
				-1.0115257964571356e-06,
				3.09099092987708e-08
			],
			"scale":[
				1,
				0.9999998807907104,
				1
			],
			"translation":[
				3.019806626980426e-13,
				0,
				7.453889935837843e-20
			]
		},
		{
			"mesh":0,
			"name":"sm005_hipoly_81_bones",
			"skin":0
		},
		{
			"children":[
				80,
				79
			],
			"name":"Bip01",
			"rotation":[
				0,
				-0.7071062922477722,
				0,
				0.7071073651313782
			],
			"scale":[
				0.009999999776482582,
				0.009999999776482582,
				0.009999999776482582
			],
			"translation":[
				0,
				0.8951848149299622,
				0
			]
		}
	],
	"materials":[
		{
			"doubleSided":true,
			"name":"sm005_body",
			"normalTexture":{
				"index":0
			},
			"pbrMetallicRoughness":{
				"baseColorTexture":{
					"index":1
				},
				"metallicRoughnessTexture":{
					"index":2
				}
			}
		},
		{
			"doubleSided":true,
			"name":"sm005_head",
			"normalTexture":{
				"index":3
			},
			"pbrMetallicRoughness":{
				"baseColorTexture":{
					"index":4
				},
				"metallicRoughnessTexture":{
					"index":5
				}
			}
		},
		{
			"doubleSided":true,
			"name":"sm005_helmet",
			"normalTexture":{
				"index":6
			},
			"pbrMetallicRoughness":{
				"baseColorTexture":{
					"index":7
				},
				"metallicRoughnessTexture":{
					"index":8
				}
			}
		},
		{
			"doubleSided":true,
			"name":"sm005_equipment",
			"normalTexture":{
				"index":9
			},
			"pbrMetallicRoughness":{
				"baseColorTexture":{
					"index":10
				},
				"metallicRoughnessTexture":{
					"index":11
				}
			}
		}
	],
	"meshes":[
		{
			"name":"Mesh",
			"primitives":[
				{
					"attributes":{
						"POSITION":0,
						"NORMAL":1,
						"TEXCOORD_0":2,
						"COLOR_0":3,
						"COLOR_1":4,
						"JOINTS_0":5,
						"WEIGHTS_0":6
					},
					"indices":7,
					"material":0
				},
				{
					"attributes":{
						"POSITION":8,
						"NORMAL":9,
						"TEXCOORD_0":10,
						"COLOR_0":11,
						"COLOR_1":12,
						"JOINTS_0":13,
						"WEIGHTS_0":14
					},
					"indices":15,
					"material":1
				},
				{
					"attributes":{
						"POSITION":16,
						"NORMAL":17,
						"TEXCOORD_0":18,
						"COLOR_0":19,
						"COLOR_1":20,
						"JOINTS_0":21,
						"WEIGHTS_0":22
					},
					"indices":23,
					"material":2
				},
				{
					"attributes":{
						"POSITION":24,
						"NORMAL":25,
						"TEXCOORD_0":26,
						"COLOR_0":27,
						"COLOR_1":28,
						"JOINTS_0":29,
						"WEIGHTS_0":30
					},
					"indices":31,
					"material":3
				}
			]
		}
	],
	"textures":[
		{
			"sampler":0,
			"source":0
		},
		{
			"sampler":0,
			"source":1
		},
		{
			"sampler":0,
			"source":2
		},
		{
			"sampler":0,
			"source":3
		},
		{
			"sampler":0,
			"source":4
		},
		{
			"sampler":0,
			"source":5
		},
		{
			"sampler":0,
			"source":6
		},
		{
			"sampler":0,
			"source":7
		},
		{
			"sampler":0,
			"source":8
		},
		{
			"sampler":0,
			"source":9
		},
		{
			"sampler":0,
			"source":10
		},
		{
			"sampler":0,
			"source":11
		}
	],
	"images":[
		{
			"mimeType":"image/png",
			"name":"sm005_body_normal",
			"uri":"sm005_body_normal.png"
		},
		{
			"mimeType":"image/png",
			"name":"sm005_body_color",
			"uri":"sm005_body_color.png"
		},
		{
			"mimeType":"image/png",
			"name":"sm005_body_surface",
			"uri":"sm005_body_surface.png"
		},
		{
			"mimeType":"image/png",
			"name":"sm005_head_normal",
			"uri":"sm005_head_normal.png"
		},
		{
			"mimeType":"image/png",
			"name":"sm005_head_color",
			"uri":"sm005_head_color.png"
		},
		{
			"mimeType":"image/png",
			"name":"sm005_head_surface",
			"uri":"sm005_head_surface.png"
		},
		{
			"mimeType":"image/png",
			"name":"sm005_helmet_normal",
			"uri":"sm005_helmet_normal.png"
		},
		{
			"mimeType":"image/png",
			"name":"sm005_helmet_color",
			"uri":"sm005_helmet_color.png"
		},
		{
			"mimeType":"image/png",
			"name":"sm005_helmet_surface",
			"uri":"sm005_helmet_surface.png"
		},
		{
			"mimeType":"image/png",
			"name":"sm005_equipment_normal",
			"uri":"sm005_equipment_normal.png"
		},
		{
			"mimeType":"image/png",
			"name":"sm005_equipment_color",
			"uri":"sm005_equipment_color.png"
		},
		{
			"mimeType":"image/png",
			"name":"sm005_equipment_surface",
			"uri":"sm005_equipment_surface.png"
		}
	],
	"skins":[
		{
			"inverseBindMatrices":32,
			"joints":[
				79,
				78,
				69,
				68,
				67,
				28,
				0,
				1,
				6,
				2,
				3,
				4,
				5,
				7,
				8,
				9,
				10,
				11,
				12,
				13,
				14,
				15,
				16,
				17,
				18,
				19,
				20,
				21,
				22,
				23,
				24,
				25,
				26,
				27,
				47,
				46,
				45,
				44,
				31,
				30,
				29,
				34,
				33,
				32,
				37,
				36,
				35,
				40,
				39,
				38,
				43,
				42,
				41,
				66,
				65,
				64,
				63,
				50,
				49,
				48,
				53,
				52,
				51,
				56,
				55,
				54,
				59,
				58,
				57,
				62,
				61,
				60,
				73,
				72,
				71,
				70,
				77,
				76,
				75,
				74
			],
			"name":"Bip01"
		}
	],
	"accessors":[
		{
			"bufferView":0,
			"componentType":5126,
			"count":4156,
			"max":[
				0.6781272292137146,
				1.6082549095153809,
				0.18739770352840424
			],
			"min":[
				-0.6781271696090698,
				-0.0033926991745829582,
				-0.2515377998352051
			],
			"type":"VEC3"
		},
		{
			"bufferView":1,
			"componentType":5126,
			"count":4156,
			"type":"VEC3"
		},
		{
			"bufferView":2,
			"componentType":5126,
			"count":4156,
			"type":"VEC2"
		},
		{
			"bufferView":3,
			"componentType":5121,
			"count":4156,
			"normalized":true,
			"type":"VEC4"
		},
		{
			"bufferView":4,
			"componentType":5123,
			"count":4156,
			"normalized":true,
			"type":"VEC4"
		},
		{
			"bufferView":5,
			"componentType":5121,
			"count":4156,
			"type":"VEC4"
		},
		{
			"bufferView":6,
			"componentType":5126,
			"count":4156,
			"type":"VEC4"
		},
		{
			"bufferView":7,
			"componentType":5123,
			"count":16923,
			"type":"SCALAR"
		},
		{
			"bufferView":8,
			"componentType":5126,
			"count":1652,
			"max":[
				0.0894365906715393,
				1.7953752279281616,
				0.14759491384029388
			],
			"min":[
				-0.08951659500598907,
				1.5015627145767212,
				-0.07924364507198334
			],
			"type":"VEC3"
		},
		{
			"bufferView":9,
			"componentType":5126,
			"count":1652,
			"type":"VEC3"
		},
		{
			"bufferView":10,
			"componentType":5126,
			"count":1652,
			"type":"VEC2"
		},
		{
			"bufferView":11,
			"componentType":5121,
			"count":1652,
			"normalized":true,
			"type":"VEC4"
		},
		{
			"bufferView":12,
			"componentType":5123,
			"count":1652,
			"normalized":true,
			"type":"VEC4"
		},
		{
			"bufferView":13,
			"componentType":5121,
			"count":1652,
			"type":"VEC4"
		},
		{
			"bufferView":14,
			"componentType":5126,
			"count":1652,
			"type":"VEC4"
		},
		{
			"bufferView":15,
			"componentType":5123,
			"count":8832,
			"type":"SCALAR"
		},
		{
			"bufferView":16,
			"componentType":5126,
			"count":3187,
			"max":[
				0.11879120022058487,
				1.8446342945098877,
				0.2429506480693817
			],
			"min":[
				-0.11468245834112167,
				1.55948805809021,
				-0.10816735029220581
			],
			"type":"VEC3"
		},
		{
			"bufferView":17,
			"componentType":5126,
			"count":3187,
			"type":"VEC3"
		},
		{
			"bufferView":18,
			"componentType":5126,
			"count":3187,
			"type":"VEC2"
		},
		{
			"bufferView":19,
			"componentType":5121,
			"count":3187,
			"normalized":true,
			"type":"VEC4"
		},
		{
			"bufferView":20,
			"componentType":5123,
			"count":3187,
			"normalized":true,
			"type":"VEC4"
		},
		{
			"bufferView":21,
			"componentType":5121,
			"count":3187,
			"type":"VEC4"
		},
		{
			"bufferView":22,
			"componentType":5126,
			"count":3187,
			"type":"VEC4"
		},
		{
			"bufferView":23,
			"componentType":5123,
			"count":8616,
			"type":"SCALAR"
		},
		{
			"bufferView":24,
			"componentType":5126,
			"count":2717,
			"max":[
				0.2167378067970276,
				1.4696052074432373,
				0.21120396256446838
			],
			"min":[
				-0.2561587691307068,
				0.9456870555877686,
				-0.17558768391609192
			],
			"type":"VEC3"
		},
		{
			"bufferView":25,
			"componentType":5126,
			"count":2717,
			"type":"VEC3"
		},
		{
			"bufferView":26,
			"componentType":5126,
			"count":2717,
			"type":"VEC2"
		},
		{
			"bufferView":27,
			"componentType":5121,
			"count":2717,
			"normalized":true,
			"type":"VEC4"
		},
		{
			"bufferView":28,
			"componentType":5123,
			"count":2717,
			"normalized":true,
			"type":"VEC4"
		},
		{
			"bufferView":29,
			"componentType":5121,
			"count":2717,
			"type":"VEC4"
		},
		{
			"bufferView":30,
			"componentType":5126,
			"count":2717,
			"type":"VEC4"
		},
		{
			"bufferView":31,
			"componentType":5123,
			"count":10350,
			"type":"SCALAR"
		},
		{
			"bufferView":32,
			"componentType":5126,
			"count":80,
			"type":"MAT4"
		}
	],
	"bufferViews":[
		{
			"buffer":0,
			"byteLength":49872,
			"byteOffset":0,
			"target":34962
		},
		{
			"buffer":0,
			"byteLength":49872,
			"byteOffset":49872,
			"target":34962
		},
		{
			"buffer":0,
			"byteLength":33248,
			"byteOffset":99744,
			"target":34962
		},
		{
			"buffer":0,
			"byteLength":16624,
			"byteOffset":132992,
			"target":34962
		},
		{
			"buffer":0,
			"byteLength":33248,
			"byteOffset":149616,
			"target":34962
		},
		{
			"buffer":0,
			"byteLength":16624,
			"byteOffset":182864,
			"target":34962
		},
		{
			"buffer":0,
			"byteLength":66496,
			"byteOffset":199488,
			"target":34962
		},
		{
			"buffer":0,
			"byteLength":33846,
			"byteOffset":265984,
			"target":34963
		},
		{
			"buffer":0,
			"byteLength":19824,
			"byteOffset":299832,
			"target":34962
		},
		{
			"buffer":0,
			"byteLength":19824,
			"byteOffset":319656,
			"target":34962
		},
		{
			"buffer":0,
			"byteLength":13216,
			"byteOffset":339480,
			"target":34962
		},
		{
			"buffer":0,
			"byteLength":6608,
			"byteOffset":352696,
			"target":34962
		},
		{
			"buffer":0,
			"byteLength":13216,
			"byteOffset":359304,
			"target":34962
		},
		{
			"buffer":0,
			"byteLength":6608,
			"byteOffset":372520,
			"target":34962
		},
		{
			"buffer":0,
			"byteLength":26432,
			"byteOffset":379128,
			"target":34962
		},
		{
			"buffer":0,
			"byteLength":17664,
			"byteOffset":405560,
			"target":34963
		},
		{
			"buffer":0,
			"byteLength":38244,
			"byteOffset":423224,
			"target":34962
		},
		{
			"buffer":0,
			"byteLength":38244,
			"byteOffset":461468,
			"target":34962
		},
		{
			"buffer":0,
			"byteLength":25496,
			"byteOffset":499712,
			"target":34962
		},
		{
			"buffer":0,
			"byteLength":12748,
			"byteOffset":525208,
			"target":34962
		},
		{
			"buffer":0,
			"byteLength":25496,
			"byteOffset":537956,
			"target":34962
		},
		{
			"buffer":0,
			"byteLength":12748,
			"byteOffset":563452,
			"target":34962
		},
		{
			"buffer":0,
			"byteLength":50992,
			"byteOffset":576200,
			"target":34962
		},
		{
			"buffer":0,
			"byteLength":17232,
			"byteOffset":627192,
			"target":34963
		},
		{
			"buffer":0,
			"byteLength":32604,
			"byteOffset":644424,
			"target":34962
		},
		{
			"buffer":0,
			"byteLength":32604,
			"byteOffset":677028,
			"target":34962
		},
		{
			"buffer":0,
			"byteLength":21736,
			"byteOffset":709632,
			"target":34962
		},
		{
			"buffer":0,
			"byteLength":10868,
			"byteOffset":731368,
			"target":34962
		},
		{
			"buffer":0,
			"byteLength":21736,
			"byteOffset":742236,
			"target":34962
		},
		{
			"buffer":0,
			"byteLength":10868,
			"byteOffset":763972,
			"target":34962
		},
		{
			"buffer":0,
			"byteLength":43472,
			"byteOffset":774840,
			"target":34962
		},
		{
			"buffer":0,
			"byteLength":20700,
			"byteOffset":818312,
			"target":34963
		},
		{
			"buffer":0,
			"byteLength":5120,
			"byteOffset":839012
		}
	],
	"samplers":[
		{
			"magFilter":9729,
			"minFilter":9987
		}
	],
	"buffers":[
		{
			"byteLength":844132,
			"uri":"military_male_04.bin"
		}
	]
}
