{
	"asset":{
		"generator":"Khronos glTF Blender I/O v4.5.51",
		"version":"2.0"
	},
	"scene":0,
	"scenes":[
		{
			"name":"Scene",
			"nodes":[
				0,
				1,
				2
			]
		}
	],
	"nodes":[
		{
			"mesh":0,
			"name":"scrap_ar_body"
		},
		{
			"mesh":1,
			"name":"scrap_ar_bolt"
		},
		{
			"mesh":2,
			"name":"scrap_ar_mag"
		}
	],
	"materials":[
		{
			"doubleSided":true,
			"name":"scrap_ar_body_baked",
			"normalTexture":{
				"index":0
			},
			"occlusionTexture":{
				"index":1
			},
			"pbrMetallicRoughness":{
				"baseColorTexture":{
					"index":2
				},
				"metallicRoughnessTexture":{
					"index":1
				}
			}
		},
		{
			"doubleSided":true,
			"name":"scrap_ar_bolt_baked",
			"normalTexture":{
				"index":3
			},
			"occlusionTexture":{
				"index":4
			},
			"pbrMetallicRoughness":{
				"baseColorTexture":{
					"index":5
				},
				"metallicRoughnessTexture":{
					"index":4
				}
			}
		},
		{
			"doubleSided":true,
			"name":"scrap_ar_mag_baked",
			"normalTexture":{
				"index":6
			},
			"occlusionTexture":{
				"index":7
			},
			"pbrMetallicRoughness":{
				"baseColorTexture":{
					"index":8
				},
				"metallicRoughnessTexture":{
					"index":7
				}
			}
		}
	],
	"meshes":[
		{
			"name":"scrap_ar_body",
			"primitives":[
				{
					"attributes":{
						"POSITION":0,
						"NORMAL":1,
						"TEXCOORD_0":2
					},
					"indices":3,
					"material":0
				}
			]
		},
		{
			"name":"scrap_ar_bolt",
			"primitives":[
				{
					"attributes":{
						"POSITION":4,
						"NORMAL":5,
						"TEXCOORD_0":6
					},
					"indices":7,
					"material":1
				}
			]
		},
		{
			"name":"scrap_ar_mag",
			"primitives":[
				{
					"attributes":{
						"POSITION":8,
						"NORMAL":9,
						"TEXCOORD_0":10
					},
					"indices":11,
					"material":2
				}
			]
		}
	],
	"textures":[
		{
			"sampler":0,
			"source":0
		},
		{
			"sampler":0,
			"source":1
		},
		{
			"sampler":0,
			"source":2
		},
		{
			"sampler":0,
			"source":3
		},
		{
			"sampler":0,
			"source":4
		},
		{
			"sampler":0,
			"source":5
		},
		{
			"sampler":0,
			"source":6
		},
		{
			"sampler":0,
			"source":7
		},
		{
			"sampler":0,
			"source":8
		}
	],
	"images":[
		{
			"mimeType":"image/png",
			"name":"scrap_ar_body_normal",
			"uri":"scrap_ar_body_normal.png"
		},
		{
			"mimeType":"image/png",
			"name":"scrap_ar_body_orm",
			"uri":"scrap_ar_body_orm.png"
		},
		{
			"mimeType":"image/png",
			"name":"scrap_ar_body_albedo",
			"uri":"scrap_ar_body_albedo.png"
		},
		{
			"mimeType":"image/png",
			"name":"scrap_ar_bolt_normal",
			"uri":"scrap_ar_bolt_normal.png"
		},
		{
			"mimeType":"image/png",
			"name":"scrap_ar_bolt_orm",
			"uri":"scrap_ar_bolt_orm.png"
		},
		{
			"mimeType":"image/png",
			"name":"scrap_ar_bolt_albedo",
			"uri":"scrap_ar_bolt_albedo.png"
		},
		{
			"mimeType":"image/png",
			"name":"scrap_ar_mag_normal",
			"uri":"scrap_ar_mag_normal.png"
		},
		{
			"mimeType":"image/png",
			"name":"scrap_ar_mag_orm",
			"uri":"scrap_ar_mag_orm.png"
		},
		{
			"mimeType":"image/png",
			"name":"scrap_ar_mag_albedo",
			"uri":"scrap_ar_mag_albedo.png"
		}
	],
	"accessors":[
		{
			"bufferView":0,
			"componentType":5126,
			"count":116069,
			"max":[
				0.4449999928474426,
				0.07799999415874481,
				0.02214520052075386
			],
			"min":[
				-0.47629421949386597,
				-0.10357439517974854,
				-0.026631491258740425
			],
			"type":"VEC3"
		},
		{
			"bufferView":1,
			"componentType":5126,
			"count":116069,
			"type":"VEC3"
		},
		{
			"bufferView":2,
			"componentType":5126,
			"count":116069,
			"type":"VEC2"
		},
		{
			"bufferView":3,
			"componentType":5125,
			"count":345183,
			"type":"SCALAR"
		},
		{
			"bufferView":4,
			"componentType":5126,
			"count":1915,
			"max":[
				-0.06300000101327896,
				0.04729999974370003,
				0.011300000362098217
			],
			"min":[
				-0.13499999046325684,
				0.024699997156858444,
				-0.033900000154972076
			],
			"type":"VEC3"
		},
		{
			"bufferView":5,
			"componentType":5126,
			"count":1915,
			"type":"VEC3"
		},
		{
			"bufferView":6,
			"componentType":5126,
			"count":1915,
			"type":"VEC2"
		},
		{
			"bufferView":7,
			"componentType":5123,
			"count":5508,
			"type":"SCALAR"
		},
		{
			"bufferView":8,
			"componentType":5126,
			"count":5285,
			"max":[
				0.06386974453926086,
				0.029399998486042023,
				0.035445742309093475
			],
			"min":[
				-0.04759553074836731,
				-0.17268671095371246,
				-0.012799999676644802
			],
			"type":"VEC3"
		},
		{
			"bufferView":9,
			"componentType":5126,
			"count":5285,
			"type":"VEC3"
		},
		{
			"bufferView":10,
			"componentType":5126,
			"count":5285,
			"type":"VEC2"
		},
		{
			"bufferView":11,
			"componentType":5123,
			"count":20160,
			"type":"SCALAR"
		}
	],
	"bufferViews":[
		{
			"buffer":0,
			"byteLength":1392828,
			"byteOffset":0,
			"target":34962
		},
		{
			"buffer":0,
			"byteLength":1392828,
			"byteOffset":1392828,
			"target":34962
		},
		{
			"buffer":0,
			"byteLength":928552,
			"byteOffset":2785656,
			"target":34962
		},
		{
			"buffer":0,
			"byteLength":1380732,
			"byteOffset":3714208,
			"target":34963
		},
		{
			"buffer":0,
			"byteLength":22980,
			"byteOffset":5094940,
			"target":34962
		},
		{
			"buffer":0,
			"byteLength":22980,
			"byteOffset":5117920,
			"target":34962
		},
		{
			"buffer":0,
			"byteLength":15320,
			"byteOffset":5140900,
			"target":34962
		},
		{
			"buffer":0,
			"byteLength":11016,
			"byteOffset":5156220,
			"target":34963
		},
		{
			"buffer":0,
			"byteLength":63420,
			"byteOffset":5167236,
			"target":34962
		},
		{
			"buffer":0,
			"byteLength":63420,
			"byteOffset":5230656,
			"target":34962
		},
		{
			"buffer":0,
			"byteLength":42280,
			"byteOffset":5294076,
			"target":34962
		},
		{
			"buffer":0,
			"byteLength":40320,
			"byteOffset":5336356,
			"target":34963
		}
	],
	"samplers":[
		{
			"magFilter":9729,
			"minFilter":9987
		}
	],
	"buffers":[
		{
			"byteLength":5376676,
			"uri":"scrap_ar.bin"
		}
	]
}
