{
  "asset": {
    "generator": "Khronos glTF Blender I/O v5.1.18",
    "version": "2.0"
  },
  "scene": 0,
  "scenes": [
    {
      "name": "Scene",
      "nodes": [
        0
      ]
    }
  ],
  "nodes": [
    {
      "mesh": 0,
      "name": "caged_hanging_light"
    }
  ],
  "materials": [
    {
      "doubleSided": true,
      "emissiveTexture": {
        "index": 0
      },
      "name": "caged_hanging_light",
      "normalTexture": {
        "index": 1
      },
      "pbrMetallicRoughness": {
        "baseColorTexture": {
          "index": 2
        },
        "metallicRoughnessTexture": {
          "index": 3
        }
      }
    }
  ],
  "meshes": [
    {
      "name": "Plane.019",
      "primitives": [
        {
          "attributes": {
            "POSITION": 0,
            "NORMAL": 1,
            "TEXCOORD_0": 2
          },
          "indices": 3,
          "material": 0
        }
      ]
    }
  ],
  "textures": [
    {
      "sampler": 0,
      "source": 0
    },
    {
      "sampler": 0,
      "source": 1
    },
    {
      "sampler": 0,
      "source": 2
    },
    {
      "sampler": 0,
      "source": 3
    }
  ],
  "images": [
    {
      "mimeType": "image/jpeg",
      "name": "caged_hanging_light_emissive",
      "uri": "textures/caged_hanging_light_emissive_2k.jpg"
    },
    {
      "mimeType": "image/jpeg",
      "name": "caged_hanging_light_nor_gl",
      "uri": "textures/caged_hanging_light_nor_gl_2k.jpg"
    },
    {
      "mimeType": "image/jpeg",
      "name": "caged_hanging_light_diff",
      "uri": "textures/caged_hanging_light_diff_2k.jpg"
    },
    {
      "mimeType": "image/jpeg",
      "name": "caged_hanging_light_metal-caged_hanging_light_rough",
      "uri": "textures/caged_hanging_light_arm_2k.jpg"
    }
  ],
  "accessors": [
    {
      "bufferView": 0,
      "componentType": 5126,
      "count": 17928,
      "max": [
        0.581538200378418,
        5.960464477539063e-8,
        0.15742482244968414
      ],
      "min": [
        -0.5802958011627197,
        -0.7500965595245361,
        -0.15747122466564178
      ],
      "type": "VEC3"
    },
    {
      "bufferView": 1,
      "componentType": 5126,
      "count": 17928,
      "type": "VEC3"
    },
    {
      "bufferView": 2,
      "componentType": 5126,
      "count": 17928,
      "type": "VEC2"
    },
    {
      "bufferView": 3,
      "componentType": 5123,
      "count": 68679,
      "type": "SCALAR"
    }
  ],
  "bufferViews": [
    {
      "buffer": 0,
      "byteLength": 215136,
      "byteOffset": 0,
      "target": 34962
    },
    {
      "buffer": 0,
      "byteLength": 215136,
      "byteOffset": 215136,
      "target": 34962
    },
    {
      "buffer": 0,
      "byteLength": 143424,
      "byteOffset": 430272,
      "target": 34962
    },
    {
      "buffer": 0,
      "byteLength": 137358,
      "byteOffset": 573696,
      "target": 34963
    }
  ],
  "samplers": [
    {
      "magFilter": 9729,
      "minFilter": 9987
    }
  ],
  "buffers": [
    {
      "byteLength": 711056,
      "uri": "caged_hanging_light.bin"
    }
  ]
}