{
  "asset": {
    "generator": "Khronos glTF Blender I/O v5.1.19",
    "version": "2.0"
  },
  "scene": 0,
  "scenes": [
    {
      "name": "Scene",
      "nodes": [
        0
      ]
    }
  ],
  "nodes": [
    {
      "mesh": 0,
      "name": "plastic_crate_03"
    }
  ],
  "materials": [
    {
      "doubleSided": true,
      "name": "plastic_crate_03",
      "normalTexture": {
        "index": 0
      },
      "pbrMetallicRoughness": {
        "baseColorTexture": {
          "index": 1
        },
        "metallicFactor": 0,
        "metallicRoughnessTexture": {
          "index": 2
        }
      }
    }
  ],
  "meshes": [
    {
      "name": "Cube.001",
      "primitives": [
        {
          "attributes": {
            "POSITION": 0,
            "NORMAL": 1,
            "TEXCOORD_0": 2
          },
          "indices": 3,
          "material": 0
        }
      ]
    }
  ],
  "textures": [
    {
      "sampler": 0,
      "source": 0
    },
    {
      "sampler": 0,
      "source": 1
    },
    {
      "sampler": 0,
      "source": 2
    }
  ],
  "images": [
    {
      "mimeType": "image/jpeg",
      "name": "plastic_crate_03_nor_gl",
      "uri": "textures/plastic_crate_03_nor_gl_2k.jpg"
    },
    {
      "mimeType": "image/jpeg",
      "name": "plastic_crate_03_diff",
      "uri": "textures/plastic_crate_03_diff_2k.jpg"
    },
    {
      "mimeType": "image/jpeg",
      "name": "plastic_crate_03_rough",
      "uri": "textures/plastic_crate_03_arm_2k.jpg"
    }
  ],
  "accessors": [
    {
      "bufferView": 0,
      "componentType": 5126,
      "count": 23974,
      "max": [
        0.2405504286289215,
        0.26592549681663513,
        0.13248498737812042
      ],
      "min": [
        -0.240550696849823,
        -9.291132307964745e-9,
        -0.13248653709888458
      ],
      "type": "VEC3"
    },
    {
      "bufferView": 1,
      "componentType": 5126,
      "count": 23974,
      "type": "VEC3"
    },
    {
      "bufferView": 2,
      "componentType": 5126,
      "count": 23974,
      "type": "VEC2"
    },
    {
      "bufferView": 3,
      "componentType": 5123,
      "count": 65220,
      "type": "SCALAR"
    }
  ],
  "bufferViews": [
    {
      "buffer": 0,
      "byteLength": 287688,
      "byteOffset": 0,
      "target": 34962
    },
    {
      "buffer": 0,
      "byteLength": 287688,
      "byteOffset": 287688,
      "target": 34962
    },
    {
      "buffer": 0,
      "byteLength": 191792,
      "byteOffset": 575376,
      "target": 34962
    },
    {
      "buffer": 0,
      "byteLength": 130440,
      "byteOffset": 767168,
      "target": 34963
    }
  ],
  "samplers": [
    {
      "magFilter": 9729,
      "minFilter": 9987
    }
  ],
  "buffers": [
    {
      "byteLength": 897608,
      "uri": "plastic_crate_03.bin"
    }
  ]
}