{
 "asset": {
  "generator": "zero point flora",
  "version": "2.0"
 },
 "scene": 0,
 "scenes": [
  {
   "name": "Scene",
   "nodes": [
    0,
    1
   ]
  }
 ],
 "nodes": [
  {
   "mesh": 0,
   "name": "trunk"
  },
  {
   "mesh": 1,
   "name": "foliage"
  }
 ],
 "materials": [
  {
   "name": "bark",
   "doubleSided": false,
   "pbrMetallicRoughness": {
    "baseColorTexture": {
     "index": 0
    },
    "metallicRoughnessTexture": {
     "index": 2
    },
    "metallicFactor": 0.0,
    "roughnessFactor": 1.0
   },
   "normalTexture": {
    "index": 1
   },
   "occlusionTexture": {
    "index": 2
   }
  },
  {
   "name": "leaf",
   "doubleSided": true,
   "pbrMetallicRoughness": {
    "baseColorTexture": {
     "index": 3
    },
    "metallicRoughnessTexture": {
     "index": 5
    },
    "metallicFactor": 0.0,
    "roughnessFactor": 1.0
   },
   "normalTexture": {
    "index": 4
   },
   "occlusionTexture": {
    "index": 5
   },
   "alphaMode": "MASK",
   "alphaCutoff": 0.5
  }
 ],
 "meshes": [
  {
   "name": "flora_pine_2_shadow_bark",
   "primitives": [
    {
     "attributes": {
      "POSITION": 0,
      "NORMAL": 1,
      "TEXCOORD_0": 2
     },
     "indices": 3,
     "material": 0
    }
   ]
  },
  {
   "name": "flora_pine_2_shadow_foliage",
   "primitives": [
    {
     "attributes": {
      "POSITION": 4,
      "NORMAL": 5,
      "TEXCOORD_0": 6
     },
     "indices": 7,
     "material": 1
    }
   ]
  }
 ],
 "textures": [
  {
   "sampler": 0,
   "source": 0
  },
  {
   "sampler": 0,
   "source": 1
  },
  {
   "sampler": 0,
   "source": 2
  },
  {
   "sampler": 0,
   "source": 3
  },
  {
   "sampler": 0,
   "source": 4
  },
  {
   "sampler": 0,
   "source": 5
  }
 ],
 "images": [
  {
   "mimeType": "image/png",
   "name": "flora_pine_bark_diff_2k.png",
   "uri": "../flora_pine_0/flora_pine_bark_diff_2k.png"
  },
  {
   "mimeType": "image/png",
   "name": "flora_pine_bark_nor_gl_2k.png",
   "uri": "../flora_pine_0/flora_pine_bark_nor_gl_2k.png"
  },
  {
   "mimeType": "image/png",
   "name": "flora_pine_bark_arm_2k.png",
   "uri": "../flora_pine_0/flora_pine_bark_arm_2k.png"
  },
  {
   "mimeType": "image/png",
   "name": "flora_pine_leaf_diff_2k.png",
   "uri": "../flora_pine_0/flora_pine_leaf_diff_2k.png"
  },
  {
   "mimeType": "image/png",
   "name": "flora_pine_leaf_nor_gl_2k.png",
   "uri": "../flora_pine_0/flora_pine_leaf_nor_gl_2k.png"
  },
  {
   "mimeType": "image/png",
   "name": "flora_pine_leaf_arm_2k.png",
   "uri": "../flora_pine_0/flora_pine_leaf_arm_2k.png"
  }
 ],
 "accessors": [
  {
   "bufferView": 0,
   "componentType": 5126,
   "count": 965,
   "max": [
    4.4321980476379395,
    12.103373527526855,
    4.206415176391602
   ],
   "min": [
    -5.5261077880859375,
    -0.5116187930107117,
    -5.1902756690979
   ],
   "type": "VEC3"
  },
  {
   "bufferView": 1,
   "componentType": 5126,
   "count": 965,
   "type": "VEC3"
  },
  {
   "bufferView": 2,
   "componentType": 5126,
   "count": 965,
   "type": "VEC2"
  },
  {
   "bufferView": 3,
   "componentType": 5123,
   "count": 2346,
   "type": "SCALAR"
  },
  {
   "bufferView": 4,
   "componentType": 5126,
   "count": 944,
   "max": [
    5.696828365325928,
    12.750720977783203,
    5.119546413421631
   ],
   "min": [
    -6.829224586486816,
    4.704351902008057,
    -6.355356693267822
   ],
   "type": "VEC3"
  },
  {
   "bufferView": 5,
   "componentType": 5126,
   "count": 944,
   "type": "VEC3"
  },
  {
   "bufferView": 6,
   "componentType": 5126,
   "count": 944,
   "type": "VEC2"
  },
  {
   "bufferView": 7,
   "componentType": 5123,
   "count": 1416,
   "type": "SCALAR"
  }
 ],
 "bufferViews": [
  {
   "buffer": 0,
   "byteLength": 11580,
   "byteOffset": 0,
   "target": 34962
  },
  {
   "buffer": 0,
   "byteLength": 11580,
   "byteOffset": 11580,
   "target": 34962
  },
  {
   "buffer": 0,
   "byteLength": 7720,
   "byteOffset": 23160,
   "target": 34962
  },
  {
   "buffer": 0,
   "byteLength": 4692,
   "byteOffset": 30880,
   "target": 34963
  },
  {
   "buffer": 0,
   "byteLength": 11328,
   "byteOffset": 35572,
   "target": 34962
  },
  {
   "buffer": 0,
   "byteLength": 11328,
   "byteOffset": 46900,
   "target": 34962
  },
  {
   "buffer": 0,
   "byteLength": 7552,
   "byteOffset": 58228,
   "target": 34962
  },
  {
   "buffer": 0,
   "byteLength": 2832,
   "byteOffset": 65780,
   "target": 34963
  }
 ],
 "samplers": [
  {
   "magFilter": 9729,
   "minFilter": 9987,
   "wrapS": 10497,
   "wrapT": 10497
  }
 ],
 "buffers": [
  {
   "byteLength": 68612,
   "uri": "flora_pine_2_shadow.bin"
  }
 ]
}