{
 "asset": {
  "generator": "Khronos glTF Blender I/O v4.5.51",
  "version": "2.0"
 },
 "scene": 0,
 "scenes": [
  {
   "name": "Scene",
   "nodes": [
    0
   ]
  }
 ],
 "nodes": [
  {
   "mesh": 0,
   "name": "body"
  }
 ],
 "materials": [
  {
   "name": "coach_livery",
   "normalTexture": {
    "index": 0
   },
   "occlusionTexture": {
    "index": 1
   },
   "pbrMetallicRoughness": {
    "baseColorTexture": {
     "index": 2
    },
    "metallicRoughnessTexture": {
     "index": 1
    }
   }
  },
  {
   "name": "glass_dirty",
   "normalTexture": {
    "index": 3
   },
   "occlusionTexture": {
    "index": 4
   },
   "pbrMetallicRoughness": {
    "baseColorTexture": {
     "index": 5
    },
    "metallicRoughnessTexture": {
     "index": 4
    }
   }
  },
  {
   "name": "loco_black",
   "normalTexture": {
    "index": 6
   },
   "occlusionTexture": {
    "index": 7
   },
   "pbrMetallicRoughness": {
    "baseColorTexture": {
     "index": 8
    },
    "metallicRoughnessTexture": {
     "index": 7
    }
   }
  },
  {
   "name": "soot",
   "normalTexture": {
    "index": 9
   },
   "occlusionTexture": {
    "index": 10
   },
   "pbrMetallicRoughness": {
    "baseColorTexture": {
     "index": 11
    },
    "metallicRoughnessTexture": {
     "index": 10
    }
   }
  },
  {
   "name": "floorboards",
   "normalTexture": {
    "index": 12
   },
   "occlusionTexture": {
    "index": 13
   },
   "pbrMetallicRoughness": {
    "baseColorTexture": {
     "index": 14
    },
    "metallicRoughnessTexture": {
     "index": 13
    }
   }
  },
  {
   "name": "rust_iron",
   "normalTexture": {
    "index": 15
   },
   "occlusionTexture": {
    "index": 16
   },
   "pbrMetallicRoughness": {
    "baseColorTexture": {
     "index": 17
    },
    "metallicRoughnessTexture": {
     "index": 16
    }
   }
  }
 ],
 "meshes": [
  {
   "name": "body",
   "primitives": [
    {
     "attributes": {
      "POSITION": 0,
      "NORMAL": 1,
      "TEXCOORD_0": 2
     },
     "indices": 3,
     "material": 0
    },
    {
     "attributes": {
      "POSITION": 4,
      "NORMAL": 5,
      "TEXCOORD_0": 6
     },
     "indices": 7,
     "material": 1
    },
    {
     "attributes": {
      "POSITION": 8,
      "NORMAL": 9,
      "TEXCOORD_0": 10
     },
     "indices": 11,
     "material": 2
    },
    {
     "attributes": {
      "POSITION": 12,
      "NORMAL": 13,
      "TEXCOORD_0": 14
     },
     "indices": 15,
     "material": 3
    },
    {
     "attributes": {
      "POSITION": 16,
      "NORMAL": 17,
      "TEXCOORD_0": 18
     },
     "indices": 19,
     "material": 4
    },
    {
     "attributes": {
      "POSITION": 20,
      "NORMAL": 21,
      "TEXCOORD_0": 22
     },
     "indices": 23,
     "material": 5
    }
   ]
  }
 ],
 "textures": [
  {
   "sampler": 0,
   "source": 0
  },
  {
   "sampler": 0,
   "source": 1
  },
  {
   "sampler": 0,
   "source": 2
  },
  {
   "sampler": 0,
   "source": 3
  },
  {
   "sampler": 0,
   "source": 4
  },
  {
   "sampler": 0,
   "source": 5
  },
  {
   "sampler": 0,
   "source": 6
  },
  {
   "sampler": 0,
   "source": 7
  },
  {
   "sampler": 0,
   "source": 8
  },
  {
   "sampler": 0,
   "source": 9
  },
  {
   "sampler": 0,
   "source": 10
  },
  {
   "sampler": 0,
   "source": 11
  },
  {
   "sampler": 0,
   "source": 12
  },
  {
   "sampler": 0,
   "source": 13
  },
  {
   "sampler": 0,
   "source": 14
  },
  {
   "sampler": 0,
   "source": 15
  },
  {
   "sampler": 0,
   "source": 16
  },
  {
   "sampler": 0,
   "source": 17
  }
 ],
 "images": [
  {
   "mimeType": "image/png",
   "name": "coach_livery_normal.png",
   "uri": "../_library/coach_livery_normal.png"
  },
  {
   "mimeType": "image/png",
   "name": "coach_livery_orm.png",
   "uri": "../_library/coach_livery_orm.png"
  },
  {
   "mimeType": "image/png",
   "name": "coach_livery_albedo.png",
   "uri": "../_library/coach_livery_albedo.png"
  },
  {
   "mimeType": "image/png",
   "name": "glass_dirty_normal.png",
   "uri": "../_library/glass_dirty_normal.png"
  },
  {
   "mimeType": "image/png",
   "name": "glass_dirty_orm.png",
   "uri": "../_library/glass_dirty_orm.png"
  },
  {
   "mimeType": "image/png",
   "name": "glass_dirty_albedo.png",
   "uri": "../_library/glass_dirty_albedo.png"
  },
  {
   "mimeType": "image/png",
   "name": "loco_black_normal.png",
   "uri": "../_library/loco_black_normal.png"
  },
  {
   "mimeType": "image/png",
   "name": "loco_black_orm.png",
   "uri": "../_library/loco_black_orm.png"
  },
  {
   "mimeType": "image/png",
   "name": "loco_black_albedo.png",
   "uri": "../_library/loco_black_albedo.png"
  },
  {
   "mimeType": "image/png",
   "name": "soot_normal.png",
   "uri": "../_library/soot_normal.png"
  },
  {
   "mimeType": "image/png",
   "name": "soot_orm.png",
   "uri": "../_library/soot_orm.png"
  },
  {
   "mimeType": "image/png",
   "name": "soot_albedo.png",
   "uri": "../_library/soot_albedo.png"
  },
  {
   "mimeType": "image/png",
   "name": "floorboards_normal.png",
   "uri": "../_library/floorboards_normal.png"
  },
  {
   "mimeType": "image/png",
   "name": "floorboards_orm.png",
   "uri": "../_library/floorboards_orm.png"
  },
  {
   "mimeType": "image/png",
   "name": "floorboards_albedo.png",
   "uri": "../_library/floorboards_albedo.png"
  },
  {
   "mimeType": "image/png",
   "name": "rust_iron_normal.png",
   "uri": "../_library/rust_iron_normal.png"
  },
  {
   "mimeType": "image/png",
   "name": "rust_iron_orm.png",
   "uri": "../_library/rust_iron_orm.png"
  },
  {
   "mimeType": "image/png",
   "name": "rust_iron_albedo.png",
   "uri": "../_library/rust_iron_albedo.png"
  }
 ],
 "accessors": [
  {
   "bufferView": 0,
   "componentType": 5126,
   "count": 44,
   "max": [
    1.2999999523162842,
    3.5999999046325684,
    4.53000020980835
   ],
   "min": [
    -1.2999999523162842,
    1.2000000476837158,
    -4.53000020980835
   ],
   "type": "VEC3"
  },
  {
   "bufferView": 1,
   "componentType": 5126,
   "count": 44,
   "type": "VEC3"
  },
  {
   "bufferView": 2,
   "componentType": 5126,
   "count": 44,
   "type": "VEC2"
  },
  {
   "bufferView": 3,
   "componentType": 5123,
   "count": 84,
   "type": "SCALAR"
  },
  {
   "bufferView": 4,
   "componentType": 5126,
   "count": 40,
   "max": [
    1.3040000200271606,
    3.0999999046325684,
    4.265999794006348
   ],
   "min": [
    -1.3040000200271606,
    2.240000009536743,
    -4.265999794006348
   ],
   "type": "VEC3"
  },
  {
   "bufferView": 5,
   "componentType": 5126,
   "count": 40,
   "type": "VEC3"
  },
  {
   "bufferView": 6,
   "componentType": 5126,
   "count": 40,
   "type": "VEC2"
  },
  {
   "bufferView": 7,
   "componentType": 5123,
   "count": 60,
   "type": "SCALAR"
  },
  {
   "bufferView": 8,
   "componentType": 5126,
   "count": 976,
   "max": [
    1.3799999952316284,
    3.640000104904175,
    6
   ],
   "min": [
    -1.3799999952316284,
    0.13999998569488525,
    -6
   ],
   "type": "VEC3"
  },
  {
   "bufferView": 9,
   "componentType": 5126,
   "count": 976,
   "type": "VEC3"
  },
  {
   "bufferView": 10,
   "componentType": 5126,
   "count": 976,
   "type": "VEC2"
  },
  {
   "bufferView": 11,
   "componentType": 5123,
   "count": 1674,
   "type": "SCALAR"
  },
  {
   "bufferView": 12,
   "componentType": 5126,
   "count": 8,
   "max": [
    0.47999998927116394,
    3.299999952316284,
    4.533999919891357
   ],
   "min": [
    -0.47999998927116394,
    1.2699999809265137,
    -4.533999919891357
   ],
   "type": "VEC3"
  },
  {
   "bufferView": 13,
   "componentType": 5126,
   "count": 8,
   "type": "VEC3"
  },
  {
   "bufferView": 14,
   "componentType": 5126,
   "count": 8,
   "type": "VEC2"
  },
  {
   "bufferView": 15,
   "componentType": 5123,
   "count": 12,
   "type": "SCALAR"
  },
  {
   "bufferView": 16,
   "componentType": 5126,
   "count": 8,
   "max": [
    0.5400000214576721,
    1.2699999809265137,
    5.5
   ],
   "min": [
    -0.5400000214576721,
    1.2699999809265137,
    -5.5
   ],
   "type": "VEC3"
  },
  {
   "bufferView": 17,
   "componentType": 5126,
   "count": 8,
   "type": "VEC3"
  },
  {
   "bufferView": 18,
   "componentType": 5126,
   "count": 8,
   "type": "VEC2"
  },
  {
   "bufferView": 19,
   "componentType": 5123,
   "count": 12,
   "type": "SCALAR"
  },
  {
   "bufferView": 20,
   "componentType": 5126,
   "count": 48,
   "max": [
    0.029999999329447746,
    1.0800000429153442,
    5.800000190734863
   ],
   "min": [
    -0.029999999329447746,
    0.9399999380111694,
    -5.800000190734863
   ],
   "type": "VEC3"
  },
  {
   "bufferView": 21,
   "componentType": 5126,
   "count": 48,
   "type": "VEC3"
  },
  {
   "bufferView": 22,
   "componentType": 5126,
   "count": 48,
   "type": "VEC2"
  },
  {
   "bufferView": 23,
   "componentType": 5123,
   "count": 72,
   "type": "SCALAR"
  }
 ],
 "bufferViews": [
  {
   "buffer": 0,
   "byteLength": 528,
   "byteOffset": 0,
   "target": 34962
  },
  {
   "buffer": 0,
   "byteLength": 528,
   "byteOffset": 528,
   "target": 34962
  },
  {
   "buffer": 0,
   "byteLength": 352,
   "byteOffset": 1056,
   "target": 34962
  },
  {
   "buffer": 0,
   "byteLength": 168,
   "byteOffset": 1408,
   "target": 34963
  },
  {
   "buffer": 0,
   "byteLength": 480,
   "byteOffset": 1576,
   "target": 34962
  },
  {
   "buffer": 0,
   "byteLength": 480,
   "byteOffset": 2056,
   "target": 34962
  },
  {
   "buffer": 0,
   "byteLength": 320,
   "byteOffset": 2536,
   "target": 34962
  },
  {
   "buffer": 0,
   "byteLength": 120,
   "byteOffset": 2856,
   "target": 34963
  },
  {
   "buffer": 0,
   "byteLength": 11712,
   "byteOffset": 2976,
   "target": 34962
  },
  {
   "buffer": 0,
   "byteLength": 11712,
   "byteOffset": 14688,
   "target": 34962
  },
  {
   "buffer": 0,
   "byteLength": 7808,
   "byteOffset": 26400,
   "target": 34962
  },
  {
   "buffer": 0,
   "byteLength": 3348,
   "byteOffset": 34208,
   "target": 34963
  },
  {
   "buffer": 0,
   "byteLength": 96,
   "byteOffset": 37556,
   "target": 34962
  },
  {
   "buffer": 0,
   "byteLength": 96,
   "byteOffset": 37652,
   "target": 34962
  },
  {
   "buffer": 0,
   "byteLength": 64,
   "byteOffset": 37748,
   "target": 34962
  },
  {
   "buffer": 0,
   "byteLength": 24,
   "byteOffset": 37812,
   "target": 34963
  },
  {
   "buffer": 0,
   "byteLength": 96,
   "byteOffset": 37836,
   "target": 34962
  },
  {
   "buffer": 0,
   "byteLength": 96,
   "byteOffset": 37932,
   "target": 34962
  },
  {
   "buffer": 0,
   "byteLength": 64,
   "byteOffset": 38028,
   "target": 34962
  },
  {
   "buffer": 0,
   "byteLength": 24,
   "byteOffset": 38092,
   "target": 34963
  },
  {
   "buffer": 0,
   "byteLength": 576,
   "byteOffset": 38116,
   "target": 34962
  },
  {
   "buffer": 0,
   "byteLength": 576,
   "byteOffset": 38692,
   "target": 34962
  },
  {
   "buffer": 0,
   "byteLength": 384,
   "byteOffset": 39268,
   "target": 34962
  },
  {
   "buffer": 0,
   "byteLength": 144,
   "byteOffset": 39652,
   "target": 34963
  }
 ],
 "samplers": [
  {
   "magFilter": 9729,
   "minFilter": 9987
  }
 ],
 "buffers": [
  {
   "byteLength": 39796,
   "uri": "train_coach_far.bin"
  }
 ]
}