{
 "asset": {
  "generator": "zero point flora",
  "version": "2.0"
 },
 "scene": 0,
 "scenes": [
  {
   "name": "Scene",
   "nodes": [
    0,
    1
   ]
  }
 ],
 "nodes": [
  {
   "mesh": 0,
   "name": "trunk"
  },
  {
   "mesh": 1,
   "name": "foliage"
  }
 ],
 "materials": [
  {
   "name": "bark",
   "doubleSided": false,
   "pbrMetallicRoughness": {
    "baseColorTexture": {
     "index": 0
    },
    "metallicRoughnessTexture": {
     "index": 2
    },
    "metallicFactor": 0.0,
    "roughnessFactor": 1.0
   },
   "normalTexture": {
    "index": 1
   },
   "occlusionTexture": {
    "index": 2
   }
  },
  {
   "name": "leaf",
   "doubleSided": true,
   "pbrMetallicRoughness": {
    "baseColorTexture": {
     "index": 3
    },
    "metallicRoughnessTexture": {
     "index": 5
    },
    "metallicFactor": 0.0,
    "roughnessFactor": 1.0
   },
   "normalTexture": {
    "index": 4
   },
   "occlusionTexture": {
    "index": 5
   },
   "alphaMode": "MASK",
   "alphaCutoff": 0.5
  }
 ],
 "meshes": [
  {
   "name": "flora_oak_0_shadow_bark",
   "primitives": [
    {
     "attributes": {
      "POSITION": 0,
      "NORMAL": 1,
      "TEXCOORD_0": 2
     },
     "indices": 3,
     "material": 0
    }
   ]
  },
  {
   "name": "flora_oak_0_shadow_foliage",
   "primitives": [
    {
     "attributes": {
      "POSITION": 4,
      "NORMAL": 5,
      "TEXCOORD_0": 6
     },
     "indices": 7,
     "material": 1
    }
   ]
  }
 ],
 "textures": [
  {
   "sampler": 0,
   "source": 0
  },
  {
   "sampler": 0,
   "source": 1
  },
  {
   "sampler": 0,
   "source": 2
  },
  {
   "sampler": 0,
   "source": 3
  },
  {
   "sampler": 0,
   "source": 4
  },
  {
   "sampler": 0,
   "source": 5
  }
 ],
 "images": [
  {
   "mimeType": "image/png",
   "name": "flora_oak_bark_diff_2k.png",
   "uri": "../flora_oak_0/flora_oak_bark_diff_2k.png"
  },
  {
   "mimeType": "image/png",
   "name": "flora_oak_bark_nor_gl_2k.png",
   "uri": "../flora_oak_0/flora_oak_bark_nor_gl_2k.png"
  },
  {
   "mimeType": "image/png",
   "name": "flora_oak_bark_arm_2k.png",
   "uri": "../flora_oak_0/flora_oak_bark_arm_2k.png"
  },
  {
   "mimeType": "image/png",
   "name": "flora_oak_leaf_diff_2k.png",
   "uri": "../flora_oak_0/flora_oak_leaf_diff_2k.png"
  },
  {
   "mimeType": "image/png",
   "name": "flora_oak_leaf_nor_gl_2k.png",
   "uri": "../flora_oak_0/flora_oak_leaf_nor_gl_2k.png"
  },
  {
   "mimeType": "image/png",
   "name": "flora_oak_leaf_arm_2k.png",
   "uri": "../flora_oak_0/flora_oak_leaf_arm_2k.png"
  }
 ],
 "accessors": [
  {
   "bufferView": 0,
   "componentType": 5126,
   "count": 1141,
   "max": [
    7.8588080406188965,
    14.122892379760742,
    6.203612804412842
   ],
   "min": [
    -5.945260047912598,
    -0.6279061436653137,
    -5.633090972900391
   ],
   "type": "VEC3"
  },
  {
   "bufferView": 1,
   "componentType": 5126,
   "count": 1141,
   "type": "VEC3"
  },
  {
   "bufferView": 2,
   "componentType": 5126,
   "count": 1141,
   "type": "VEC2"
  },
  {
   "bufferView": 3,
   "componentType": 5123,
   "count": 2874,
   "type": "SCALAR"
  },
  {
   "bufferView": 4,
   "componentType": 5126,
   "count": 672,
   "max": [
    9.681798934936523,
    14.350666046142578,
    9.02330207824707
   ],
   "min": [
    -8.180453300476074,
    2.243260622024536,
    -8.555912971496582
   ],
   "type": "VEC3"
  },
  {
   "bufferView": 5,
   "componentType": 5126,
   "count": 672,
   "type": "VEC3"
  },
  {
   "bufferView": 6,
   "componentType": 5126,
   "count": 672,
   "type": "VEC2"
  },
  {
   "bufferView": 7,
   "componentType": 5123,
   "count": 1008,
   "type": "SCALAR"
  }
 ],
 "bufferViews": [
  {
   "buffer": 0,
   "byteLength": 13692,
   "byteOffset": 0,
   "target": 34962
  },
  {
   "buffer": 0,
   "byteLength": 13692,
   "byteOffset": 13692,
   "target": 34962
  },
  {
   "buffer": 0,
   "byteLength": 9128,
   "byteOffset": 27384,
   "target": 34962
  },
  {
   "buffer": 0,
   "byteLength": 5748,
   "byteOffset": 36512,
   "target": 34963
  },
  {
   "buffer": 0,
   "byteLength": 8064,
   "byteOffset": 42260,
   "target": 34962
  },
  {
   "buffer": 0,
   "byteLength": 8064,
   "byteOffset": 50324,
   "target": 34962
  },
  {
   "buffer": 0,
   "byteLength": 5376,
   "byteOffset": 58388,
   "target": 34962
  },
  {
   "buffer": 0,
   "byteLength": 2016,
   "byteOffset": 63764,
   "target": 34963
  }
 ],
 "samplers": [
  {
   "magFilter": 9729,
   "minFilter": 9987,
   "wrapS": 10497,
   "wrapT": 10497
  }
 ],
 "buffers": [
  {
   "byteLength": 65780,
   "uri": "flora_oak_0_shadow.bin"
  }
 ]
}