{
 "asset": {
  "generator": "Khronos glTF Blender I/O v4.5.51",
  "version": "2.0"
 },
 "scene": 0,
 "scenes": [
  {
   "name": "Scene",
   "nodes": [
    0,
    1,
    2,
    3,
    4,
    5,
    6,
    7,
    8,
    9,
    10,
    11,
    12,
    13,
    14,
    15,
    16,
    17,
    18,
    19,
    20,
    21,
    22,
    23,
    24,
    25,
    26,
    27,
    28,
    29,
    30,
    31,
    32,
    33,
    34,
    35,
    36,
    37
   ]
  }
 ],
 "nodes": [
  {
   "mesh": 0,
   "name": "frame"
  },
  {
   "mesh": 1,
   "name": "detail"
  },
  {
   "mesh": 2,
   "name": "body"
  },
  {
   "mesh": 3,
   "name": "inside"
  },
  {
   "mesh": 4,
   "name": "load"
  },
  {
   "mesh": 5,
   "name": "col_metal_end_1"
  },
  {
   "mesh": 6,
   "name": "col_metal_neck_1"
  },
  {
   "mesh": 7,
   "name": "col_metal_step_1"
  },
  {
   "mesh": 8,
   "name": "col_metal_step_2"
  },
  {
   "mesh": 9,
   "name": "col_metal_step_3"
  },
  {
   "mesh": 10,
   "name": "col_metal_step_4"
  },
  {
   "mesh": 11,
   "name": "col_metal_step_5"
  },
  {
   "mesh": 12,
   "name": "col_metal_step_6"
  },
  {
   "mesh": 13,
   "name": "col_metal_end_2"
  },
  {
   "mesh": 14,
   "name": "col_metal_neck_2"
  },
  {
   "mesh": 15,
   "name": "col_metal_step_7"
  },
  {
   "mesh": 16,
   "name": "col_metal_step_8"
  },
  {
   "mesh": 17,
   "name": "col_metal_step_9"
  },
  {
   "mesh": 18,
   "name": "col_metal_step_10"
  },
  {
   "mesh": 19,
   "name": "col_metal_step_11"
  },
  {
   "mesh": 20,
   "name": "col_metal_step_12"
  },
  {
   "mesh": 21,
   "name": "col_wood_side_wall_1"
  },
  {
   "mesh": 22,
   "name": "col_wood_side_wall_2"
  },
  {
   "mesh": 23,
   "name": "col_wood_side_wall_3"
  },
  {
   "mesh": 24,
   "name": "col_wood_side_wall_4"
  },
  {
   "mesh": 25,
   "name": "col_wood_end_wall_1"
  },
  {
   "mesh": 26,
   "name": "col_wood_end_wall_2"
  },
  {
   "mesh": 27,
   "name": "col_wood_end_wall_3"
  },
  {
   "mesh": 28,
   "name": "col_wood_end_wall_4"
  },
  {
   "mesh": 29,
   "name": "loot_box_1"
  },
  {
   "mesh": 30,
   "name": "loot_food_1"
  },
  {
   "mesh": 31,
   "name": "loot_toolbox_1"
  },
  {
   "mesh": 32,
   "name": "col_wood_deck_1"
  },
  {
   "mesh": 33,
   "name": "col_wood_roof_1"
  },
  {
   "mesh": 34,
   "name": "col_wood_crates_1"
  },
  {
   "mesh": 35,
   "name": "col_wood_cargo_1"
  },
  {
   "mesh": 36,
   "name": "col_fabric_sacks_1"
  },
  {
   "mesh": 37,
   "name": "col_fabric_sacks_2"
  }
 ],
 "materials": [
  {
   "name": "loco_black",
   "normalTexture": {
    "index": 0
   },
   "occlusionTexture": {
    "index": 1
   },
   "pbrMetallicRoughness": {
    "baseColorTexture": {
     "index": 2
    },
    "metallicRoughnessTexture": {
     "index": 1
    }
   }
  },
  {
   "name": "rust_iron",
   "normalTexture": {
    "index": 3
   },
   "occlusionTexture": {
    "index": 4
   },
   "pbrMetallicRoughness": {
    "baseColorTexture": {
     "index": 5
    },
    "metallicRoughnessTexture": {
     "index": 4
    }
   }
  },
  {
   "name": "chequer_plate",
   "normalTexture": {
    "index": 6
   },
   "occlusionTexture": {
    "index": 7
   },
   "pbrMetallicRoughness": {
    "baseColorTexture": {
     "index": 8
    },
    "metallicRoughnessTexture": {
     "index": 7
    }
   }
  },
  {
   "name": "rail_signs",
   "normalTexture": {
    "index": 9
   },
   "occlusionTexture": {
    "index": 10
   },
   "pbrMetallicRoughness": {
    "baseColorTexture": {
     "index": 11
    },
    "metallicRoughnessTexture": {
     "index": 10
    }
   }
  },
  {
   "name": "painted_wood_bauxite",
   "normalTexture": {
    "index": 12
   },
   "occlusionTexture": {
    "index": 13
   },
   "pbrMetallicRoughness": {
    "baseColorTexture": {
     "index": 14
    },
    "metallicRoughnessTexture": {
     "index": 13
    }
   }
  },
  {
   "name": "floorboards",
   "normalTexture": {
    "index": 15
   },
   "occlusionTexture": {
    "index": 16
   },
   "pbrMetallicRoughness": {
    "baseColorTexture": {
     "index": 17
    },
    "metallicRoughnessTexture": {
     "index": 16
    }
   }
  },
  {
   "name": "timber_planks_weathered",
   "normalTexture": {
    "index": 18
   },
   "occlusionTexture": {
    "index": 19
   },
   "pbrMetallicRoughness": {
    "baseColorTexture": {
     "index": 20
    },
    "metallicRoughnessTexture": {
     "index": 19
    }
   }
  },
  {
   "name": "timber_beam",
   "normalTexture": {
    "index": 21
   },
   "occlusionTexture": {
    "index": 22
   },
   "pbrMetallicRoughness": {
    "baseColorTexture": {
     "index": 23
    },
    "metallicRoughnessTexture": {
     "index": 22
    }
   }
  },
  {
   "doubleSided": true,
   "name": "fabric_worn",
   "normalTexture": {
    "index": 24
   },
   "occlusionTexture": {
    "index": 25
   },
   "pbrMetallicRoughness": {
    "baseColorTexture": {
     "index": 26
    },
    "metallicRoughnessTexture": {
     "index": 25
    }
   }
  }
 ],
 "meshes": [
  {
   "name": "frame",
   "primitives": [
    {
     "attributes": {
      "POSITION": 0,
      "NORMAL": 1,
      "TEXCOORD_0": 2
     },
     "indices": 3,
     "material": 0
    },
    {
     "attributes": {
      "POSITION": 4,
      "NORMAL": 5,
      "TEXCOORD_0": 6
     },
     "indices": 7,
     "material": 1
    },
    {
     "attributes": {
      "POSITION": 8,
      "NORMAL": 9,
      "TEXCOORD_0": 10
     },
     "indices": 11,
     "material": 2
    }
   ]
  },
  {
   "name": "detail",
   "primitives": [
    {
     "attributes": {
      "POSITION": 12,
      "NORMAL": 13,
      "TEXCOORD_0": 14
     },
     "indices": 15,
     "material": 0
    },
    {
     "attributes": {
      "POSITION": 16,
      "NORMAL": 17,
      "TEXCOORD_0": 18
     },
     "indices": 19,
     "material": 1
    },
    {
     "attributes": {
      "POSITION": 20,
      "NORMAL": 21,
      "TEXCOORD_0": 22
     },
     "indices": 23,
     "material": 3
    }
   ]
  },
  {
   "name": "body",
   "primitives": [
    {
     "attributes": {
      "POSITION": 24,
      "NORMAL": 25,
      "TEXCOORD_0": 26
     },
     "indices": 27,
     "material": 4
    },
    {
     "attributes": {
      "POSITION": 28,
      "NORMAL": 29,
      "TEXCOORD_0": 30
     },
     "indices": 31,
     "material": 0
    },
    {
     "attributes": {
      "POSITION": 32,
      "NORMAL": 33,
      "TEXCOORD_0": 34
     },
     "indices": 35,
     "material": 1
    }
   ]
  },
  {
   "name": "inside",
   "primitives": [
    {
     "attributes": {
      "POSITION": 36,
      "NORMAL": 37,
      "TEXCOORD_0": 38
     },
     "indices": 39,
     "material": 5
    },
    {
     "attributes": {
      "POSITION": 40,
      "NORMAL": 41,
      "TEXCOORD_0": 42
     },
     "indices": 43,
     "material": 6
    },
    {
     "attributes": {
      "POSITION": 44,
      "NORMAL": 45,
      "TEXCOORD_0": 46
     },
     "indices": 47,
     "material": 0
    },
    {
     "attributes": {
      "POSITION": 48,
      "NORMAL": 49,
      "TEXCOORD_0": 50
     },
     "indices": 51,
     "material": 7
    }
   ]
  },
  {
   "name": "load",
   "primitives": [
    {
     "attributes": {
      "POSITION": 52,
      "NORMAL": 53,
      "TEXCOORD_0": 54
     },
     "indices": 55,
     "material": 6
    },
    {
     "attributes": {
      "POSITION": 56,
      "NORMAL": 57,
      "TEXCOORD_0": 58
     },
     "indices": 59,
     "material": 7
    },
    {
     "attributes": {
      "POSITION": 60,
      "NORMAL": 61,
      "TEXCOORD_0": 62
     },
     "indices": 63,
     "material": 1
    },
    {
     "attributes": {
      "POSITION": 64,
      "NORMAL": 65,
      "TEXCOORD_0": 66
     },
     "indices": 67,
     "material": 8
    }
   ]
  },
  {
   "name": "col_metal_end_1",
   "primitives": [
    {
     "attributes": {
      "POSITION": 68,
      "NORMAL": 69,
      "TEXCOORD_0": 70
     },
     "indices": 71,
     "material": 0
    }
   ]
  },
  {
   "name": "col_metal_neck_1",
   "primitives": [
    {
     "attributes": {
      "POSITION": 72,
      "NORMAL": 73,
      "TEXCOORD_0": 74
     },
     "indices": 71,
     "material": 0
    }
   ]
  },
  {
   "name": "col_metal_step_1",
   "primitives": [
    {
     "attributes": {
      "POSITION": 75,
      "NORMAL": 76,
      "TEXCOORD_0": 77
     },
     "indices": 71,
     "material": 0
    }
   ]
  },
  {
   "name": "col_metal_step_2",
   "primitives": [
    {
     "attributes": {
      "POSITION": 78,
      "NORMAL": 79,
      "TEXCOORD_0": 80
     },
     "indices": 71,
     "material": 0
    }
   ]
  },
  {
   "name": "col_metal_step_3",
   "primitives": [
    {
     "attributes": {
      "POSITION": 81,
      "NORMAL": 82,
      "TEXCOORD_0": 83
     },
     "indices": 71,
     "material": 0
    }
   ]
  },
  {
   "name": "col_metal_step_4",
   "primitives": [
    {
     "attributes": {
      "POSITION": 84,
      "NORMAL": 85,
      "TEXCOORD_0": 86
     },
     "indices": 71,
     "material": 0
    }
   ]
  },
  {
   "name": "col_metal_step_5",
   "primitives": [
    {
     "attributes": {
      "POSITION": 87,
      "NORMAL": 88,
      "TEXCOORD_0": 89
     },
     "indices": 71,
     "material": 0
    }
   ]
  },
  {
   "name": "col_metal_step_6",
   "primitives": [
    {
     "attributes": {
      "POSITION": 90,
      "NORMAL": 91,
      "TEXCOORD_0": 92
     },
     "indices": 71,
     "material": 0
    }
   ]
  },
  {
   "name": "col_metal_end_2",
   "primitives": [
    {
     "attributes": {
      "POSITION": 93,
      "NORMAL": 94,
      "TEXCOORD_0": 95
     },
     "indices": 71,
     "material": 0
    }
   ]
  },
  {
   "name": "col_metal_neck_2",
   "primitives": [
    {
     "attributes": {
      "POSITION": 96,
      "NORMAL": 97,
      "TEXCOORD_0": 98
     },
     "indices": 71,
     "material": 0
    }
   ]
  },
  {
   "name": "col_metal_step_7",
   "primitives": [
    {
     "attributes": {
      "POSITION": 99,
      "NORMAL": 100,
      "TEXCOORD_0": 101
     },
     "indices": 71,
     "material": 0
    }
   ]
  },
  {
   "name": "col_metal_step_8",
   "primitives": [
    {
     "attributes": {
      "POSITION": 102,
      "NORMAL": 103,
      "TEXCOORD_0": 104
     },
     "indices": 71,
     "material": 0
    }
   ]
  },
  {
   "name": "col_metal_step_9",
   "primitives": [
    {
     "attributes": {
      "POSITION": 105,
      "NORMAL": 106,
      "TEXCOORD_0": 107
     },
     "indices": 71,
     "material": 0
    }
   ]
  },
  {
   "name": "col_metal_step_10",
   "primitives": [
    {
     "attributes": {
      "POSITION": 108,
      "NORMAL": 109,
      "TEXCOORD_0": 110
     },
     "indices": 71,
     "material": 0
    }
   ]
  },
  {
   "name": "col_metal_step_11",
   "primitives": [
    {
     "attributes": {
      "POSITION": 111,
      "NORMAL": 112,
      "TEXCOORD_0": 113
     },
     "indices": 71,
     "material": 0
    }
   ]
  },
  {
   "name": "col_metal_step_12",
   "primitives": [
    {
     "attributes": {
      "POSITION": 114,
      "NORMAL": 115,
      "TEXCOORD_0": 116
     },
     "indices": 71,
     "material": 0
    }
   ]
  },
  {
   "name": "col_wood_side_wall_1",
   "primitives": [
    {
     "attributes": {
      "POSITION": 117,
      "NORMAL": 118,
      "TEXCOORD_0": 119
     },
     "indices": 71,
     "material": 0
    }
   ]
  },
  {
   "name": "col_wood_side_wall_2",
   "primitives": [
    {
     "attributes": {
      "POSITION": 120,
      "NORMAL": 121,
      "TEXCOORD_0": 122
     },
     "indices": 71,
     "material": 0
    }
   ]
  },
  {
   "name": "col_wood_side_wall_3",
   "primitives": [
    {
     "attributes": {
      "POSITION": 123,
      "NORMAL": 124,
      "TEXCOORD_0": 125
     },
     "indices": 71,
     "material": 0
    }
   ]
  },
  {
   "name": "col_wood_side_wall_4",
   "primitives": [
    {
     "attributes": {
      "POSITION": 126,
      "NORMAL": 127,
      "TEXCOORD_0": 128
     },
     "indices": 71,
     "material": 0
    }
   ]
  },
  {
   "name": "col_wood_end_wall_1",
   "primitives": [
    {
     "attributes": {
      "POSITION": 129,
      "NORMAL": 130,
      "TEXCOORD_0": 131
     },
     "indices": 71,
     "material": 0
    }
   ]
  },
  {
   "name": "col_wood_end_wall_2",
   "primitives": [
    {
     "attributes": {
      "POSITION": 132,
      "NORMAL": 133,
      "TEXCOORD_0": 134
     },
     "indices": 71,
     "material": 0
    }
   ]
  },
  {
   "name": "col_wood_end_wall_3",
   "primitives": [
    {
     "attributes": {
      "POSITION": 135,
      "NORMAL": 136,
      "TEXCOORD_0": 137
     },
     "indices": 71,
     "material": 0
    }
   ]
  },
  {
   "name": "col_wood_end_wall_4",
   "primitives": [
    {
     "attributes": {
      "POSITION": 138,
      "NORMAL": 139,
      "TEXCOORD_0": 140
     },
     "indices": 71,
     "material": 0
    }
   ]
  },
  {
   "name": "loot_box_1",
   "primitives": [
    {
     "attributes": {
      "POSITION": 141,
      "NORMAL": 142,
      "TEXCOORD_0": 143
     },
     "indices": 71,
     "material": 0
    }
   ]
  },
  {
   "name": "loot_food_1",
   "primitives": [
    {
     "attributes": {
      "POSITION": 144,
      "NORMAL": 145,
      "TEXCOORD_0": 146
     },
     "indices": 71,
     "material": 0
    }
   ]
  },
  {
   "name": "loot_toolbox_1",
   "primitives": [
    {
     "attributes": {
      "POSITION": 147,
      "NORMAL": 148,
      "TEXCOORD_0": 149
     },
     "indices": 71,
     "material": 0
    }
   ]
  },
  {
   "name": "col_wood_deck_1",
   "primitives": [
    {
     "attributes": {
      "POSITION": 150,
      "NORMAL": 151,
      "TEXCOORD_0": 152
     },
     "indices": 71,
     "material": 0
    }
   ]
  },
  {
   "name": "col_wood_roof_1",
   "primitives": [
    {
     "attributes": {
      "POSITION": 153,
      "NORMAL": 154,
      "TEXCOORD_0": 155
     },
     "indices": 71,
     "material": 0
    }
   ]
  },
  {
   "name": "col_wood_crates_1",
   "primitives": [
    {
     "attributes": {
      "POSITION": 156,
      "NORMAL": 157,
      "TEXCOORD_0": 158
     },
     "indices": 71,
     "material": 0
    }
   ]
  },
  {
   "name": "col_wood_cargo_1",
   "primitives": [
    {
     "attributes": {
      "POSITION": 159,
      "NORMAL": 160,
      "TEXCOORD_0": 161
     },
     "indices": 71,
     "material": 0
    }
   ]
  },
  {
   "name": "col_fabric_sacks_1",
   "primitives": [
    {
     "attributes": {
      "POSITION": 162,
      "NORMAL": 163,
      "TEXCOORD_0": 164
     },
     "indices": 71,
     "material": 0
    }
   ]
  },
  {
   "name": "col_fabric_sacks_2",
   "primitives": [
    {
     "attributes": {
      "POSITION": 165,
      "NORMAL": 166,
      "TEXCOORD_0": 167
     },
     "indices": 71,
     "material": 0
    }
   ]
  }
 ],
 "textures": [
  {
   "sampler": 0,
   "source": 0
  },
  {
   "sampler": 0,
   "source": 1
  },
  {
   "sampler": 0,
   "source": 2
  },
  {
   "sampler": 0,
   "source": 3
  },
  {
   "sampler": 0,
   "source": 4
  },
  {
   "sampler": 0,
   "source": 5
  },
  {
   "sampler": 0,
   "source": 6
  },
  {
   "sampler": 0,
   "source": 7
  },
  {
   "sampler": 0,
   "source": 8
  },
  {
   "sampler": 0,
   "source": 9
  },
  {
   "sampler": 0,
   "source": 10
  },
  {
   "sampler": 0,
   "source": 11
  },
  {
   "sampler": 0,
   "source": 12
  },
  {
   "sampler": 0,
   "source": 13
  },
  {
   "sampler": 0,
   "source": 14
  },
  {
   "sampler": 0,
   "source": 15
  },
  {
   "sampler": 0,
   "source": 16
  },
  {
   "sampler": 0,
   "source": 17
  },
  {
   "sampler": 0,
   "source": 18
  },
  {
   "sampler": 0,
   "source": 19
  },
  {
   "sampler": 0,
   "source": 20
  },
  {
   "sampler": 0,
   "source": 21
  },
  {
   "sampler": 0,
   "source": 22
  },
  {
   "sampler": 0,
   "source": 23
  },
  {
   "sampler": 0,
   "source": 24
  },
  {
   "sampler": 0,
   "source": 25
  },
  {
   "sampler": 0,
   "source": 26
  }
 ],
 "images": [
  {
   "mimeType": "image/png",
   "name": "loco_black_normal.png",
   "uri": "../_library/loco_black_normal.png"
  },
  {
   "mimeType": "image/png",
   "name": "loco_black_orm.png",
   "uri": "../_library/loco_black_orm.png"
  },
  {
   "mimeType": "image/png",
   "name": "loco_black_albedo.png",
   "uri": "../_library/loco_black_albedo.png"
  },
  {
   "mimeType": "image/png",
   "name": "rust_iron_normal.png",
   "uri": "../_library/rust_iron_normal.png"
  },
  {
   "mimeType": "image/png",
   "name": "rust_iron_orm.png",
   "uri": "../_library/rust_iron_orm.png"
  },
  {
   "mimeType": "image/png",
   "name": "rust_iron_albedo.png",
   "uri": "../_library/rust_iron_albedo.png"
  },
  {
   "mimeType": "image/png",
   "name": "chequer_plate_normal.png",
   "uri": "../_library/chequer_plate_normal.png"
  },
  {
   "mimeType": "image/png",
   "name": "chequer_plate_orm.png",
   "uri": "../_library/chequer_plate_orm.png"
  },
  {
   "mimeType": "image/png",
   "name": "chequer_plate_albedo.png",
   "uri": "../_library/chequer_plate_albedo.png"
  },
  {
   "mimeType": "image/png",
   "name": "rail_signs_normal.png",
   "uri": "../_library/rail_signs_normal.png"
  },
  {
   "mimeType": "image/png",
   "name": "rail_signs_orm.png",
   "uri": "../_library/rail_signs_orm.png"
  },
  {
   "mimeType": "image/png",
   "name": "rail_signs_albedo.png",
   "uri": "../_library/rail_signs_albedo.png"
  },
  {
   "mimeType": "image/png",
   "name": "painted_wood_bauxite_normal.png",
   "uri": "../_library/painted_wood_bauxite_normal.png"
  },
  {
   "mimeType": "image/png",
   "name": "painted_wood_bauxite_orm.png",
   "uri": "../_library/painted_wood_bauxite_orm.png"
  },
  {
   "mimeType": "image/png",
   "name": "painted_wood_bauxite_albedo.png",
   "uri": "../_library/painted_wood_bauxite_albedo.png"
  },
  {
   "mimeType": "image/png",
   "name": "floorboards_normal.png",
   "uri": "../_library/floorboards_normal.png"
  },
  {
   "mimeType": "image/png",
   "name": "floorboards_orm.png",
   "uri": "../_library/floorboards_orm.png"
  },
  {
   "mimeType": "image/png",
   "name": "floorboards_albedo.png",
   "uri": "../_library/floorboards_albedo.png"
  },
  {
   "mimeType": "image/png",
   "name": "timber_planks_weathered_normal.png",
   "uri": "../_library/timber_planks_weathered_normal.png"
  },
  {
   "mimeType": "image/png",
   "name": "timber_planks_weathered_orm.png",
   "uri": "../_library/timber_planks_weathered_orm.png"
  },
  {
   "mimeType": "image/png",
   "name": "timber_planks_weathered_albedo.png",
   "uri": "../_library/timber_planks_weathered_albedo.png"
  },
  {
   "mimeType": "image/png",
   "name": "timber_beam_normal.png",
   "uri": "../_library/timber_beam_normal.png"
  },
  {
   "mimeType": "image/png",
   "name": "timber_beam_orm.png",
   "uri": "../_library/timber_beam_orm.png"
  },
  {
   "mimeType": "image/png",
   "name": "timber_beam_albedo.png",
   "uri": "../_library/timber_beam_albedo.png"
  },
  {
   "mimeType": "image/png",
   "name": "fabric_worn_normal.png",
   "uri": "../_library/fabric_worn_normal.png"
  },
  {
   "mimeType": "image/png",
   "name": "fabric_worn_orm.png",
   "uri": "../_library/fabric_worn_orm.png"
  },
  {
   "mimeType": "image/png",
   "name": "fabric_worn_albedo.png",
   "uri": "../_library/fabric_worn_albedo.png"
  }
 ],
 "accessors": [
  {
   "bufferView": 0,
   "componentType": 5126,
   "count": 3320,
   "max": [
    1.399999976158142,
    1.2699999809265137,
    3.440000057220459
   ],
   "min": [
    -1.399999976158142,
    0.07999999821186066,
    -3.440000057220459
   ],
   "type": "VEC3"
  },
  {
   "bufferView": 1,
   "componentType": 5126,
   "count": 3320,
   "type": "VEC3"
  },
  {
   "bufferView": 2,
   "componentType": 5126,
   "count": 3320,
   "type": "VEC2"
  },
  {
   "bufferView": 3,
   "componentType": 5123,
   "count": 6492,
   "type": "SCALAR"
  },
  {
   "bufferView": 4,
   "componentType": 5126,
   "count": 2480,
   "max": [
    1.1129999160766602,
    0.7409999370574951,
    1.9859999418258667
   ],
   "min": [
    -1.1129999160766602,
    0.4049999713897705,
    -1.9859999418258667
   ],
   "type": "VEC3"
  },
  {
   "bufferView": 5,
   "componentType": 5126,
   "count": 2480,
   "type": "VEC3"
  },
  {
   "bufferView": 6,
   "componentType": 5126,
   "count": 2480,
   "type": "VEC2"
  },
  {
   "bufferView": 7,
   "componentType": 5123,
   "count": 5556,
   "type": "SCALAR"
  },
  {
   "bufferView": 8,
   "componentType": 5126,
   "count": 64,
   "max": [
    1.3799999952316284,
    1.2699999809265137,
    3.440000057220459
   ],
   "min": [
    -1.3799999952316284,
    0.18000000715255737,
    -3.440000057220459
   ],
   "type": "VEC3"
  },
  {
   "bufferView": 9,
   "componentType": 5126,
   "count": 64,
   "type": "VEC3"
  },
  {
   "bufferView": 10,
   "componentType": 5126,
   "count": 64,
   "type": "VEC2"
  },
  {
   "bufferView": 11,
   "componentType": 5123,
   "count": 96,
   "type": "SCALAR"
  },
  {
   "bufferView": 12,
   "componentType": 5126,
   "count": 16450,
   "max": [
    1.350000023841858,
    3.760000228881836,
    3.408693313598633
   ],
   "min": [
    -1.350000023841858,
    0.11937481164932251,
    -3.408693313598633
   ],
   "type": "VEC3"
  },
  {
   "bufferView": 13,
   "componentType": 5126,
   "count": 16450,
   "type": "VEC3"
  },
  {
   "bufferView": 14,
   "componentType": 5126,
   "count": 16450,
   "type": "VEC2"
  },
  {
   "bufferView": 15,
   "componentType": 5123,
   "count": 31056,
   "type": "SCALAR"
  },
  {
   "bufferView": 16,
   "componentType": 5126,
   "count": 11166,
   "max": [
    1.3695262670516968,
    3.3288075923919678,
    3.5
   ],
   "min": [
    -1.3695262670516968,
    0.18000000715255737,
    -3.5
   ],
   "type": "VEC3"
  },
  {
   "bufferView": 17,
   "componentType": 5126,
   "count": 11166,
   "type": "VEC3"
  },
  {
   "bufferView": 18,
   "componentType": 5126,
   "count": 11166,
   "type": "VEC2"
  },
  {
   "bufferView": 19,
   "componentType": 5123,
   "count": 22452,
   "type": "SCALAR"
  },
  {
   "bufferView": 20,
   "componentType": 5126,
   "count": 8,
   "max": [
    0.9520000219345093,
    1.1124999523162842,
    0.75
   ],
   "min": [
    -0.9520000219345093,
    1.0074999332427979,
    -0.75
   ],
   "type": "VEC3"
  },
  {
   "bufferView": 21,
   "componentType": 5126,
   "count": 8,
   "type": "VEC3"
  },
  {
   "bufferView": 22,
   "componentType": 5126,
   "count": 8,
   "type": "VEC2"
  },
  {
   "bufferView": 23,
   "componentType": 5123,
   "count": 12,
   "type": "SCALAR"
  },
  {
   "bufferView": 24,
   "componentType": 5126,
   "count": 2256,
   "max": [
    1.3000000715255737,
    3.559999942779541,
    2.1346867084503174
   ],
   "min": [
    -1.3000000715255737,
    1.2699999809265137,
    -2.1346867084503174
   ],
   "type": "VEC3"
  },
  {
   "bufferView": 25,
   "componentType": 5126,
   "count": 2256,
   "type": "VEC3"
  },
  {
   "bufferView": 26,
   "componentType": 5126,
   "count": 2256,
   "type": "VEC2"
  },
  {
   "bufferView": 27,
   "componentType": 5123,
   "count": 3384,
   "type": "SCALAR"
  },
  {
   "bufferView": 28,
   "componentType": 5126,
   "count": 1660,
   "max": [
    1.312000036239624,
    3.630000114440918,
    2.130000114440918
   ],
   "min": [
    -1.312000036239624,
    1.1999999284744263,
    -2.130000114440918
   ],
   "type": "VEC3"
  },
  {
   "bufferView": 29,
   "componentType": 5126,
   "count": 1660,
   "type": "VEC3"
  },
  {
   "bufferView": 30,
   "componentType": 5126,
   "count": 1660,
   "type": "VEC2"
  },
  {
   "bufferView": 31,
   "componentType": 5123,
   "count": 3444,
   "type": "SCALAR"
  },
  {
   "bufferView": 32,
   "componentType": 5126,
   "count": 96,
   "max": [
    1.3350000381469727,
    3.2899999618530273,
    1.9500000476837158
   ],
   "min": [
    -1.3350000381469727,
    1.1950000524520874,
    -1.9500000476837158
   ],
   "type": "VEC3"
  },
  {
   "bufferView": 33,
   "componentType": 5126,
   "count": 96,
   "type": "VEC3"
  },
  {
   "bufferView": 34,
   "componentType": 5126,
   "count": 96,
   "type": "VEC2"
  },
  {
   "bufferView": 35,
   "componentType": 5123,
   "count": 144,
   "type": "SCALAR"
  },
  {
   "bufferView": 36,
   "componentType": 5126,
   "count": 552,
   "max": [
    1.2000000476837158,
    1.283995270729065,
    1.9779999256134033
   ],
   "min": [
    -1.2000000476837158,
    1.199203372001648,
    -1.978312611579895
   ],
   "type": "VEC3"
  },
  {
   "bufferView": 37,
   "componentType": 5126,
   "count": 552,
   "type": "VEC3"
  },
  {
   "bufferView": 38,
   "componentType": 5126,
   "count": 552,
   "type": "VEC2"
  },
  {
   "bufferView": 39,
   "componentType": 5123,
   "count": 828,
   "type": "SCALAR"
  },
  {
   "bufferView": 40,
   "componentType": 5126,
   "count": 1680,
   "max": [
    1.21999990940094,
    3.549999952316284,
    1.9999998807907104
   ],
   "min": [
    -1.21999990940094,
    1.2699998617172241,
    -1.9999998807907104
   ],
   "type": "VEC3"
  },
  {
   "bufferView": 41,
   "componentType": 5126,
   "count": 1680,
   "type": "VEC3"
  },
  {
   "bufferView": 42,
   "componentType": 5126,
   "count": 1680,
   "type": "VEC2"
  },
  {
   "bufferView": 43,
   "componentType": 5123,
   "count": 2520,
   "type": "SCALAR"
  },
  {
   "bufferView": 44,
   "componentType": 5126,
   "count": 48,
   "max": [
    1.2640000581741333,
    1.2739999294281006,
    0.6000000238418579
   ],
   "min": [
    -1.2640000581741333,
    1.2000000476837158,
    -0.6000000238418579
   ],
   "type": "VEC3"
  },
  {
   "bufferView": 45,
   "componentType": 5126,
   "count": 48,
   "type": "VEC3"
  },
  {
   "bufferView": 46,
   "componentType": 5126,
   "count": 48,
   "type": "VEC2"
  },
  {
   "bufferView": 47,
   "componentType": 5123,
   "count": 72,
   "type": "SCALAR"
  },
  {
   "bufferView": 48,
   "componentType": 5126,
   "count": 640,
   "max": [
    1.2000000476837158,
    3.5899999141693115,
    1.375
   ],
   "min": [
    -1.2000000476837158,
    3.3134398460388184,
    -1.375
   ],
   "type": "VEC3"
  },
  {
   "bufferView": 49,
   "componentType": 5126,
   "count": 640,
   "type": "VEC3"
  },
  {
   "bufferView": 50,
   "componentType": 5126,
   "count": 640,
   "type": "VEC2"
  },
  {
   "bufferView": 51,
   "componentType": 5123,
   "count": 1740,
   "type": "SCALAR"
  },
  {
   "bufferView": 52,
   "componentType": 5126,
   "count": 1368,
   "max": [
    1.1780309677124023,
    2.1630001068115234,
    1.8080309629440308
   ],
   "min": [
    -1.1853477954864502,
    1.2699999809265137,
    -1.9020847082138062
   ],
   "type": "VEC3"
  },
  {
   "bufferView": 53,
   "componentType": 5126,
   "count": 1368,
   "type": "VEC3"
  },
  {
   "bufferView": 54,
   "componentType": 5126,
   "count": 1368,
   "type": "VEC2"
  },
  {
   "bufferView": 55,
   "componentType": 5123,
   "count": 2052,
   "type": "SCALAR"
  },
  {
   "bufferView": 56,
   "componentType": 5126,
   "count": 1060,
   "max": [
    1.1939034461975098,
    2.177999973297119,
    1.8239034414291382
   ],
   "min": [
    -1.2009356021881104,
    1.2699999809265137,
    -1.9176726341247559
   ],
   "type": "VEC3"
  },
  {
   "bufferView": 57,
   "componentType": 5126,
   "count": 1060,
   "type": "VEC3"
  },
  {
   "bufferView": 58,
   "componentType": 5126,
   "count": 1060,
   "type": "VEC2"
  },
  {
   "bufferView": 59,
   "componentType": 5123,
   "count": 2160,
   "type": "SCALAR"
  },
  {
   "bufferView": 60,
   "componentType": 5126,
   "count": 342,
   "max": [
    1.149999976158142,
    1.9900000095367432,
    1.2458981275558472
   ],
   "min": [
    0.6100000143051147,
    1.350000023841858,
    0.7141019105911255
   ],
   "type": "VEC3"
  },
  {
   "bufferView": 61,
   "componentType": 5126,
   "count": 342,
   "type": "VEC3"
  },
  {
   "bufferView": 62,
   "componentType": 5126,
   "count": 342,
   "type": "VEC2"
  },
  {
   "bufferView": 63,
   "componentType": 5123,
   "count": 972,
   "type": "SCALAR"
  },
  {
   "bufferView": 64,
   "componentType": 5126,
   "count": 384,
   "max": [
    1.144180417060852,
    1.7897502183914185,
    1.7576565742492676
   ],
   "min": [
    -1.1845508813858032,
    1.2699999809265137,
    -1.8398984670639038
   ],
   "type": "VEC3"
  },
  {
   "bufferView": 65,
   "componentType": 5126,
   "count": 384,
   "type": "VEC3"
  },
  {
   "bufferView": 66,
   "componentType": 5126,
   "count": 384,
   "type": "VEC2"
  },
  {
   "bufferView": 67,
   "componentType": 5123,
   "count": 1200,
   "type": "SCALAR"
  },
  {
   "bufferView": 68,
   "componentType": 5126,
   "count": 24,
   "max": [
    1.059999942779541,
    1.2699999809265137,
    3.5
   ],
   "min": [
    -1.059999942779541,
    0.8600000143051147,
    2.9100000858306885
   ],
   "type": "VEC3"
  },
  {
   "bufferView": 69,
   "componentType": 5126,
   "count": 24,
   "type": "VEC3"
  },
  {
   "bufferView": 70,
   "componentType": 5126,
   "count": 24,
   "type": "VEC2"
  },
  {
   "bufferView": 71,
   "componentType": 5123,
   "count": 36,
   "type": "SCALAR"
  },
  {
   "bufferView": 72,
   "componentType": 5126,
   "count": 24,
   "max": [
    0.5400000214576721,
    1.2699999809265137,
    2.9100000858306885
   ],
   "min": [
    -0.5400000214576721,
    0.44999998807907104,
    2.0299999713897705
   ],
   "type": "VEC3"
  },
  {
   "bufferView": 73,
   "componentType": 5126,
   "count": 24,
   "type": "VEC3"
  },
  {
   "bufferView": 74,
   "componentType": 5126,
   "count": 24,
   "type": "VEC2"
  },
  {
   "bufferView": 75,
   "componentType": 5126,
   "count": 24,
   "max": [
    -0.5400000214576721,
    0.18000000715255737,
    2.9100000858306885
   ],
   "min": [
    -1.3799999952316284,
    -0.10000000149011612,
    2.0299999713897705
   ],
   "type": "VEC3"
  },
  {
   "bufferView": 76,
   "componentType": 5126,
   "count": 24,
   "type": "VEC3"
  },
  {
   "bufferView": 77,
   "componentType": 5126,
   "count": 24,
   "type": "VEC2"
  },
  {
   "bufferView": 78,
   "componentType": 5126,
   "count": 24,
   "max": [
    -0.5400000214576721,
    0.5400000214576721,
    2.9100000858306885
   ],
   "min": [
    -1.100000023841858,
    0.18000000715255737,
    2.0299999713897705
   ],
   "type": "VEC3"
  },
  {
   "bufferView": 79,
   "componentType": 5126,
   "count": 24,
   "type": "VEC3"
  },
  {
   "bufferView": 80,
   "componentType": 5126,
   "count": 24,
   "type": "VEC2"
  },
  {
   "bufferView": 81,
   "componentType": 5126,
   "count": 24,
   "max": [
    -0.5400000214576721,
    0.8999999761581421,
    2.9100000858306885
   ],
   "min": [
    -0.8199999928474426,
    0.5400000214576721,
    2.0299999713897705
   ],
   "type": "VEC3"
  },
  {
   "bufferView": 82,
   "componentType": 5126,
   "count": 24,
   "type": "VEC3"
  },
  {
   "bufferView": 83,
   "componentType": 5126,
   "count": 24,
   "type": "VEC2"
  },
  {
   "bufferView": 84,
   "componentType": 5126,
   "count": 24,
   "max": [
    1.3799999952316284,
    0.18000000715255737,
    2.9100000858306885
   ],
   "min": [
    0.5400000214576721,
    -0.10000000149011612,
    2.0299999713897705
   ],
   "type": "VEC3"
  },
  {
   "bufferView": 85,
   "componentType": 5126,
   "count": 24,
   "type": "VEC3"
  },
  {
   "bufferView": 86,
   "componentType": 5126,
   "count": 24,
   "type": "VEC2"
  },
  {
   "bufferView": 87,
   "componentType": 5126,
   "count": 24,
   "max": [
    1.100000023841858,
    0.5400000214576721,
    2.9100000858306885
   ],
   "min": [
    0.5400000214576721,
    0.18000000715255737,
    2.0299999713897705
   ],
   "type": "VEC3"
  },
  {
   "bufferView": 88,
   "componentType": 5126,
   "count": 24,
   "type": "VEC3"
  },
  {
   "bufferView": 89,
   "componentType": 5126,
   "count": 24,
   "type": "VEC2"
  },
  {
   "bufferView": 90,
   "componentType": 5126,
   "count": 24,
   "max": [
    0.8199999928474426,
    0.8999999761581421,
    2.9100000858306885
   ],
   "min": [
    0.5400000214576721,
    0.5400000214576721,
    2.0299999713897705
   ],
   "type": "VEC3"
  },
  {
   "bufferView": 91,
   "componentType": 5126,
   "count": 24,
   "type": "VEC3"
  },
  {
   "bufferView": 92,
   "componentType": 5126,
   "count": 24,
   "type": "VEC2"
  },
  {
   "bufferView": 93,
   "componentType": 5126,
   "count": 24,
   "max": [
    1.059999942779541,
    1.2699999809265137,
    -2.9100000858306885
   ],
   "min": [
    -1.059999942779541,
    0.8600000143051147,
    -3.5
   ],
   "type": "VEC3"
  },
  {
   "bufferView": 94,
   "componentType": 5126,
   "count": 24,
   "type": "VEC3"
  },
  {
   "bufferView": 95,
   "componentType": 5126,
   "count": 24,
   "type": "VEC2"
  },
  {
   "bufferView": 96,
   "componentType": 5126,
   "count": 24,
   "max": [
    0.5400000214576721,
    1.2699999809265137,
    -2.0299999713897705
   ],
   "min": [
    -0.5400000214576721,
    0.44999998807907104,
    -2.9100000858306885
   ],
   "type": "VEC3"
  },
  {
   "bufferView": 97,
   "componentType": 5126,
   "count": 24,
   "type": "VEC3"
  },
  {
   "bufferView": 98,
   "componentType": 5126,
   "count": 24,
   "type": "VEC2"
  },
  {
   "bufferView": 99,
   "componentType": 5126,
   "count": 24,
   "max": [
    -0.5400000214576721,
    0.18000000715255737,
    -2.0299999713897705
   ],
   "min": [
    -1.3799999952316284,
    -0.10000000149011612,
    -2.9100000858306885
   ],
   "type": "VEC3"
  },
  {
   "bufferView": 100,
   "componentType": 5126,
   "count": 24,
   "type": "VEC3"
  },
  {
   "bufferView": 101,
   "componentType": 5126,
   "count": 24,
   "type": "VEC2"
  },
  {
   "bufferView": 102,
   "componentType": 5126,
   "count": 24,
   "max": [
    -0.5400000214576721,
    0.5400000214576721,
    -2.0299999713897705
   ],
   "min": [
    -1.100000023841858,
    0.18000000715255737,
    -2.9100000858306885
   ],
   "type": "VEC3"
  },
  {
   "bufferView": 103,
   "componentType": 5126,
   "count": 24,
   "type": "VEC3"
  },
  {
   "bufferView": 104,
   "componentType": 5126,
   "count": 24,
   "type": "VEC2"
  },
  {
   "bufferView": 105,
   "componentType": 5126,
   "count": 24,
   "max": [
    -0.5400000214576721,
    0.8999999761581421,
    -2.0299999713897705
   ],
   "min": [
    -0.8199999928474426,
    0.5400000214576721,
    -2.9100000858306885
   ],
   "type": "VEC3"
  },
  {
   "bufferView": 106,
   "componentType": 5126,
   "count": 24,
   "type": "VEC3"
  },
  {
   "bufferView": 107,
   "componentType": 5126,
   "count": 24,
   "type": "VEC2"
  },
  {
   "bufferView": 108,
   "componentType": 5126,
   "count": 24,
   "max": [
    1.3799999952316284,
    0.18000000715255737,
    -2.0299999713897705
   ],
   "min": [
    0.5400000214576721,
    -0.10000000149011612,
    -2.9100000858306885
   ],
   "type": "VEC3"
  },
  {
   "bufferView": 109,
   "componentType": 5126,
   "count": 24,
   "type": "VEC3"
  },
  {
   "bufferView": 110,
   "componentType": 5126,
   "count": 24,
   "type": "VEC2"
  },
  {
   "bufferView": 111,
   "componentType": 5126,
   "count": 24,
   "max": [
    1.100000023841858,
    0.5400000214576721,
    -2.0299999713897705
   ],
   "min": [
    0.5400000214576721,
    0.18000000715255737,
    -2.9100000858306885
   ],
   "type": "VEC3"
  },
  {
   "bufferView": 112,
   "componentType": 5126,
   "count": 24,
   "type": "VEC3"
  },
  {
   "bufferView": 113,
   "componentType": 5126,
   "count": 24,
   "type": "VEC2"
  },
  {
   "bufferView": 114,
   "componentType": 5126,
   "count": 24,
   "max": [
    0.8199999928474426,
    0.8999999761581421,
    -2.0299999713897705
   ],
   "min": [
    0.5400000214576721,
    0.5400000214576721,
    -2.9100000858306885
   ],
   "type": "VEC3"
  },
  {
   "bufferView": 115,
   "componentType": 5126,
   "count": 24,
   "type": "VEC3"
  },
  {
   "bufferView": 116,
   "componentType": 5126,
   "count": 24,
   "type": "VEC2"
  },
  {
   "bufferView": 117,
   "componentType": 5126,
   "count": 24,
   "max": [
    -1.190000057220459,
    3.3399999141693115,
    2.0299999713897705
   ],
   "min": [
    -1.25,
    1.2699999809265137,
    0.6000000238418579
   ],
   "type": "VEC3"
  },
  {
   "bufferView": 118,
   "componentType": 5126,
   "count": 24,
   "type": "VEC3"
  },
  {
   "bufferView": 119,
   "componentType": 5126,
   "count": 24,
   "type": "VEC2"
  },
  {
   "bufferView": 120,
   "componentType": 5126,
   "count": 24,
   "max": [
    -1.190000057220459,
    3.3399999141693115,
    -0.6000000238418579
   ],
   "min": [
    -1.25,
    1.2699999809265137,
    -2.0299999713897705
   ],
   "type": "VEC3"
  },
  {
   "bufferView": 121,
   "componentType": 5126,
   "count": 24,
   "type": "VEC3"
  },
  {
   "bufferView": 122,
   "componentType": 5126,
   "count": 24,
   "type": "VEC2"
  },
  {
   "bufferView": 123,
   "componentType": 5126,
   "count": 24,
   "max": [
    1.25,
    3.3399999141693115,
    2.0299999713897705
   ],
   "min": [
    1.190000057220459,
    1.2699999809265137,
    0.6000000238418579
   ],
   "type": "VEC3"
  },
  {
   "bufferView": 124,
   "componentType": 5126,
   "count": 24,
   "type": "VEC3"
  },
  {
   "bufferView": 125,
   "componentType": 5126,
   "count": 24,
   "type": "VEC2"
  },
  {
   "bufferView": 126,
   "componentType": 5126,
   "count": 24,
   "max": [
    1.25,
    3.3399999141693115,
    -0.6000000238418579
   ],
   "min": [
    1.190000057220459,
    1.2699999809265137,
    -2.0299999713897705
   ],
   "type": "VEC3"
  },
  {
   "bufferView": 127,
   "componentType": 5126,
   "count": 24,
   "type": "VEC3"
  },
  {
   "bufferView": 128,
   "componentType": 5126,
   "count": 24,
   "type": "VEC2"
  },
  {
   "bufferView": 129,
   "componentType": 5126,
   "count": 24,
   "max": [
    -0.47999998927116394,
    3.3399999141693115,
    2.0299999713897705
   ],
   "min": [
    -1.25,
    1.2699999809265137,
    1.9700000286102295
   ],
   "type": "VEC3"
  },
  {
   "bufferView": 130,
   "componentType": 5126,
   "count": 24,
   "type": "VEC3"
  },
  {
   "bufferView": 131,
   "componentType": 5126,
   "count": 24,
   "type": "VEC2"
  },
  {
   "bufferView": 132,
   "componentType": 5126,
   "count": 24,
   "max": [
    1.25,
    3.3399999141693115,
    2.0299999713897705
   ],
   "min": [
    0.47999998927116394,
    1.2699999809265137,
    1.9700000286102295
   ],
   "type": "VEC3"
  },
  {
   "bufferView": 133,
   "componentType": 5126,
   "count": 24,
   "type": "VEC3"
  },
  {
   "bufferView": 134,
   "componentType": 5126,
   "count": 24,
   "type": "VEC2"
  },
  {
   "bufferView": 135,
   "componentType": 5126,
   "count": 24,
   "max": [
    -0.47999998927116394,
    3.3399999141693115,
    -1.9700000286102295
   ],
   "min": [
    -1.25,
    1.2699999809265137,
    -2.0299999713897705
   ],
   "type": "VEC3"
  },
  {
   "bufferView": 136,
   "componentType": 5126,
   "count": 24,
   "type": "VEC3"
  },
  {
   "bufferView": 137,
   "componentType": 5126,
   "count": 24,
   "type": "VEC2"
  },
  {
   "bufferView": 138,
   "componentType": 5126,
   "count": 24,
   "max": [
    1.25,
    3.3399999141693115,
    -1.9700000286102295
   ],
   "min": [
    0.47999998927116394,
    1.2699999809265137,
    -2.0299999713897705
   ],
   "type": "VEC3"
  },
  {
   "bufferView": 139,
   "componentType": 5126,
   "count": 24,
   "type": "VEC3"
  },
  {
   "bufferView": 140,
   "componentType": 5126,
   "count": 24,
   "type": "VEC2"
  },
  {
   "bufferView": 141,
   "componentType": 5126,
   "count": 24,
   "max": [
    -0.8100000023841858,
    2.2699999809265137,
    -1.4500000476837158
   ],
   "min": [
    -0.9100000262260437,
    2.1700000762939453,
    -1.5499999523162842
   ],
   "type": "VEC3"
  },
  {
   "bufferView": 142,
   "componentType": 5126,
   "count": 24,
   "type": "VEC3"
  },
  {
   "bufferView": 143,
   "componentType": 5126,
   "count": 24,
   "type": "VEC2"
  },
  {
   "bufferView": 144,
   "componentType": 5126,
   "count": 24,
   "max": [
    0.8700000047683716,
    1.8899999856948853,
    -1.3700000047683716
   ],
   "min": [
    0.7699999809265137,
    1.7899999618530273,
    -1.46999990940094
   ],
   "type": "VEC3"
  },
  {
   "bufferView": 145,
   "componentType": 5126,
   "count": 24,
   "type": "VEC3"
  },
  {
   "bufferView": 146,
   "componentType": 5126,
   "count": 24,
   "type": "VEC2"
  },
  {
   "bufferView": 147,
   "componentType": 5126,
   "count": 24,
   "max": [
    0.30000001192092896,
    1.3700000047683716,
    1.8499999046325684
   ],
   "min": [
    0.20000000298023224,
    1.2699999809265137,
    1.75
   ],
   "type": "VEC3"
  },
  {
   "bufferView": 148,
   "componentType": 5126,
   "count": 24,
   "type": "VEC3"
  },
  {
   "bufferView": 149,
   "componentType": 5126,
   "count": 24,
   "type": "VEC2"
  },
  {
   "bufferView": 150,
   "componentType": 5126,
   "count": 24,
   "max": [
    1.25,
    1.2699999809265137,
    2.0299999713897705
   ],
   "min": [
    -1.25,
    0.44999998807907104,
    -2.0299999713897705
   ],
   "type": "VEC3"
  },
  {
   "bufferView": 151,
   "componentType": 5126,
   "count": 24,
   "type": "VEC3"
  },
  {
   "bufferView": 152,
   "componentType": 5126,
   "count": 24,
   "type": "VEC2"
  },
  {
   "bufferView": 153,
   "componentType": 5126,
   "count": 24,
   "max": [
    1.309999942779541,
    3.6600000858306885,
    2.130000114440918
   ],
   "min": [
    -1.309999942779541,
    3.3399999141693115,
    -2.130000114440918
   ],
   "type": "VEC3"
  },
  {
   "bufferView": 154,
   "componentType": 5126,
   "count": 24,
   "type": "VEC3"
  },
  {
   "bufferView": 155,
   "componentType": 5126,
   "count": 24,
   "type": "VEC2"
  },
  {
   "bufferView": 156,
   "componentType": 5126,
   "count": 24,
   "max": [
    -0.5400000214576721,
    2.1500000953674316,
    -1.100000023841858
   ],
   "min": [
    -1.1799999475479126,
    1.2699999809265137,
    -1.899999976158142
   ],
   "type": "VEC3"
  },
  {
   "bufferView": 157,
   "componentType": 5126,
   "count": 24,
   "type": "VEC3"
  },
  {
   "bufferView": 158,
   "componentType": 5126,
   "count": 24,
   "type": "VEC2"
  },
  {
   "bufferView": 159,
   "componentType": 5126,
   "count": 24,
   "max": [
    1.1699999570846558,
    1.8899999856948853,
    1.7999999523162842
   ],
   "min": [
    0.5400000214576721,
    1.2699999809265137,
    0.699999988079071
   ],
   "type": "VEC3"
  },
  {
   "bufferView": 160,
   "componentType": 5126,
   "count": 24,
   "type": "VEC3"
  },
  {
   "bufferView": 161,
   "componentType": 5126,
   "count": 24,
   "type": "VEC2"
  },
  {
   "bufferView": 162,
   "componentType": 5126,
   "count": 24,
   "max": [
    1.1699999570846558,
    1.6100000143051147,
    -0.949999988079071
   ],
   "min": [
    0.4399999976158142,
    1.2699999809265137,
    -1.850000023841858
   ],
   "type": "VEC3"
  },
  {
   "bufferView": 163,
   "componentType": 5126,
   "count": 24,
   "type": "VEC3"
  },
  {
   "bufferView": 164,
   "componentType": 5126,
   "count": 24,
   "type": "VEC2"
  },
  {
   "bufferView": 165,
   "componentType": 5126,
   "count": 24,
   "max": [
    -0.5,
    1.5299999713897705,
    1.75
   ],
   "min": [
    -1.1699999570846558,
    1.2699999809265137,
    0.8500000238418579
   ],
   "type": "VEC3"
  },
  {
   "bufferView": 166,
   "componentType": 5126,
   "count": 24,
   "type": "VEC3"
  },
  {
   "bufferView": 167,
   "componentType": 5126,
   "count": 24,
   "type": "VEC2"
  }
 ],
 "bufferViews": [
  {
   "buffer": 0,
   "byteLength": 39840,
   "byteOffset": 0,
   "target": 34962
  },
  {
   "buffer": 0,
   "byteLength": 39840,
   "byteOffset": 39840,
   "target": 34962
  },
  {
   "buffer": 0,
   "byteLength": 26560,
   "byteOffset": 79680,
   "target": 34962
  },
  {
   "buffer": 0,
   "byteLength": 12984,
   "byteOffset": 106240,
   "target": 34963
  },
  {
   "buffer": 0,
   "byteLength": 29760,
   "byteOffset": 119224,
   "target": 34962
  },
  {
   "buffer": 0,
   "byteLength": 29760,
   "byteOffset": 148984,
   "target": 34962
  },
  {
   "buffer": 0,
   "byteLength": 19840,
   "byteOffset": 178744,
   "target": 34962
  },
  {
   "buffer": 0,
   "byteLength": 11112,
   "byteOffset": 198584,
   "target": 34963
  },
  {
   "buffer": 0,
   "byteLength": 768,
   "byteOffset": 209696,
   "target": 34962
  },
  {
   "buffer": 0,
   "byteLength": 768,
   "byteOffset": 210464,
   "target": 34962
  },
  {
   "buffer": 0,
   "byteLength": 512,
   "byteOffset": 211232,
   "target": 34962
  },
  {
   "buffer": 0,
   "byteLength": 192,
   "byteOffset": 211744,
   "target": 34963
  },
  {
   "buffer": 0,
   "byteLength": 197400,
   "byteOffset": 211936,
   "target": 34962
  },
  {
   "buffer": 0,
   "byteLength": 197400,
   "byteOffset": 409336,
   "target": 34962
  },
  {
   "buffer": 0,
   "byteLength": 131600,
   "byteOffset": 606736,
   "target": 34962
  },
  {
   "buffer": 0,
   "byteLength": 62112,
   "byteOffset": 738336,
   "target": 34963
  },
  {
   "buffer": 0,
   "byteLength": 133992,
   "byteOffset": 800448,
   "target": 34962
  },
  {
   "buffer": 0,
   "byteLength": 133992,
   "byteOffset": 934440,
   "target": 34962
  },
  {
   "buffer": 0,
   "byteLength": 89328,
   "byteOffset": 1068432,
   "target": 34962
  },
  {
   "buffer": 0,
   "byteLength": 44904,
   "byteOffset": 1157760,
   "target": 34963
  },
  {
   "buffer": 0,
   "byteLength": 96,
   "byteOffset": 1202664,
   "target": 34962
  },
  {
   "buffer": 0,
   "byteLength": 96,
   "byteOffset": 1202760,
   "target": 34962
  },
  {
   "buffer": 0,
   "byteLength": 64,
   "byteOffset": 1202856,
   "target": 34962
  },
  {
   "buffer": 0,
   "byteLength": 24,
   "byteOffset": 1202920,
   "target": 34963
  },
  {
   "buffer": 0,
   "byteLength": 27072,
   "byteOffset": 1202944,
   "target": 34962
  },
  {
   "buffer": 0,
   "byteLength": 27072,
   "byteOffset": 1230016,
   "target": 34962
  },
  {
   "buffer": 0,
   "byteLength": 18048,
   "byteOffset": 1257088,
   "target": 34962
  },
  {
   "buffer": 0,
   "byteLength": 6768,
   "byteOffset": 1275136,
   "target": 34963
  },
  {
   "buffer": 0,
   "byteLength": 19920,
   "byteOffset": 1281904,
   "target": 34962
  },
  {
   "buffer": 0,
   "byteLength": 19920,
   "byteOffset": 1301824,
   "target": 34962
  },
  {
   "buffer": 0,
   "byteLength": 13280,
   "byteOffset": 1321744,
   "target": 34962
  },
  {
   "buffer": 0,
   "byteLength": 6888,
   "byteOffset": 1335024,
   "target": 34963
  },
  {
   "buffer": 0,
   "byteLength": 1152,
   "byteOffset": 1341912,
   "target": 34962
  },
  {
   "buffer": 0,
   "byteLength": 1152,
   "byteOffset": 1343064,
   "target": 34962
  },
  {
   "buffer": 0,
   "byteLength": 768,
   "byteOffset": 1344216,
   "target": 34962
  },
  {
   "buffer": 0,
   "byteLength": 288,
   "byteOffset": 1344984,
   "target": 34963
  },
  {
   "buffer": 0,
   "byteLength": 6624,
   "byteOffset": 1345272,
   "target": 34962
  },
  {
   "buffer": 0,
   "byteLength": 6624,
   "byteOffset": 1351896,
   "target": 34962
  },
  {
   "buffer": 0,
   "byteLength": 4416,
   "byteOffset": 1358520,
   "target": 34962
  },
  {
   "buffer": 0,
   "byteLength": 1656,
   "byteOffset": 1362936,
   "target": 34963
  },
  {
   "buffer": 0,
   "byteLength": 20160,
   "byteOffset": 1364592,
   "target": 34962
  },
  {
   "buffer": 0,
   "byteLength": 20160,
   "byteOffset": 1384752,
   "target": 34962
  },
  {
   "buffer": 0,
   "byteLength": 13440,
   "byteOffset": 1404912,
   "target": 34962
  },
  {
   "buffer": 0,
   "byteLength": 5040,
   "byteOffset": 1418352,
   "target": 34963
  },
  {
   "buffer": 0,
   "byteLength": 576,
   "byteOffset": 1423392,
   "target": 34962
  },
  {
   "buffer": 0,
   "byteLength": 576,
   "byteOffset": 1423968,
   "target": 34962
  },
  {
   "buffer": 0,
   "byteLength": 384,
   "byteOffset": 1424544,
   "target": 34962
  },
  {
   "buffer": 0,
   "byteLength": 144,
   "byteOffset": 1424928,
   "target": 34963
  },
  {
   "buffer": 0,
   "byteLength": 7680,
   "byteOffset": 1425072,
   "target": 34962
  },
  {
   "buffer": 0,
   "byteLength": 7680,
   "byteOffset": 1432752,
   "target": 34962
  },
  {
   "buffer": 0,
   "byteLength": 5120,
   "byteOffset": 1440432,
   "target": 34962
  },
  {
   "buffer": 0,
   "byteLength": 3480,
   "byteOffset": 1445552,
   "target": 34963
  },
  {
   "buffer": 0,
   "byteLength": 16416,
   "byteOffset": 1449032,
   "target": 34962
  },
  {
   "buffer": 0,
   "byteLength": 16416,
   "byteOffset": 1465448,
   "target": 34962
  },
  {
   "buffer": 0,
   "byteLength": 10944,
   "byteOffset": 1481864,
   "target": 34962
  },
  {
   "buffer": 0,
   "byteLength": 4104,
   "byteOffset": 1492808,
   "target": 34963
  },
  {
   "buffer": 0,
   "byteLength": 12720,
   "byteOffset": 1496912,
   "target": 34962
  },
  {
   "buffer": 0,
   "byteLength": 12720,
   "byteOffset": 1509632,
   "target": 34962
  },
  {
   "buffer": 0,
   "byteLength": 8480,
   "byteOffset": 1522352,
   "target": 34962
  },
  {
   "buffer": 0,
   "byteLength": 4320,
   "byteOffset": 1530832,
   "target": 34963
  },
  {
   "buffer": 0,
   "byteLength": 4104,
   "byteOffset": 1535152,
   "target": 34962
  },
  {
   "buffer": 0,
   "byteLength": 4104,
   "byteOffset": 1539256,
   "target": 34962
  },
  {
   "buffer": 0,
   "byteLength": 2736,
   "byteOffset": 1543360,
   "target": 34962
  },
  {
   "buffer": 0,
   "byteLength": 1944,
   "byteOffset": 1546096,
   "target": 34963
  },
  {
   "buffer": 0,
   "byteLength": 4608,
   "byteOffset": 1548040,
   "target": 34962
  },
  {
   "buffer": 0,
   "byteLength": 4608,
   "byteOffset": 1552648,
   "target": 34962
  },
  {
   "buffer": 0,
   "byteLength": 3072,
   "byteOffset": 1557256,
   "target": 34962
  },
  {
   "buffer": 0,
   "byteLength": 2400,
   "byteOffset": 1560328,
   "target": 34963
  },
  {
   "buffer": 0,
   "byteLength": 288,
   "byteOffset": 1562728,
   "target": 34962
  },
  {
   "buffer": 0,
   "byteLength": 288,
   "byteOffset": 1563016,
   "target": 34962
  },
  {
   "buffer": 0,
   "byteLength": 192,
   "byteOffset": 1563304,
   "target": 34962
  },
  {
   "buffer": 0,
   "byteLength": 72,
   "byteOffset": 1563496,
   "target": 34963
  },
  {
   "buffer": 0,
   "byteLength": 288,
   "byteOffset": 1563568,
   "target": 34962
  },
  {
   "buffer": 0,
   "byteLength": 288,
   "byteOffset": 1563856,
   "target": 34962
  },
  {
   "buffer": 0,
   "byteLength": 192,
   "byteOffset": 1564144,
   "target": 34962
  },
  {
   "buffer": 0,
   "byteLength": 288,
   "byteOffset": 1564336,
   "target": 34962
  },
  {
   "buffer": 0,
   "byteLength": 288,
   "byteOffset": 1564624,
   "target": 34962
  },
  {
   "buffer": 0,
   "byteLength": 192,
   "byteOffset": 1564912,
   "target": 34962
  },
  {
   "buffer": 0,
   "byteLength": 288,
   "byteOffset": 1565104,
   "target": 34962
  },
  {
   "buffer": 0,
   "byteLength": 288,
   "byteOffset": 1565392,
   "target": 34962
  },
  {
   "buffer": 0,
   "byteLength": 192,
   "byteOffset": 1565680,
   "target": 34962
  },
  {
   "buffer": 0,
   "byteLength": 288,
   "byteOffset": 1565872,
   "target": 34962
  },
  {
   "buffer": 0,
   "byteLength": 288,
   "byteOffset": 1566160,
   "target": 34962
  },
  {
   "buffer": 0,
   "byteLength": 192,
   "byteOffset": 1566448,
   "target": 34962
  },
  {
   "buffer": 0,
   "byteLength": 288,
   "byteOffset": 1566640,
   "target": 34962
  },
  {
   "buffer": 0,
   "byteLength": 288,
   "byteOffset": 1566928,
   "target": 34962
  },
  {
   "buffer": 0,
   "byteLength": 192,
   "byteOffset": 1567216,
   "target": 34962
  },
  {
   "buffer": 0,
   "byteLength": 288,
   "byteOffset": 1567408,
   "target": 34962
  },
  {
   "buffer": 0,
   "byteLength": 288,
   "byteOffset": 1567696,
   "target": 34962
  },
  {
   "buffer": 0,
   "byteLength": 192,
   "byteOffset": 1567984,
   "target": 34962
  },
  {
   "buffer": 0,
   "byteLength": 288,
   "byteOffset": 1568176,
   "target": 34962
  },
  {
   "buffer": 0,
   "byteLength": 288,
   "byteOffset": 1568464,
   "target": 34962
  },
  {
   "buffer": 0,
   "byteLength": 192,
   "byteOffset": 1568752,
   "target": 34962
  },
  {
   "buffer": 0,
   "byteLength": 288,
   "byteOffset": 1568944,
   "target": 34962
  },
  {
   "buffer": 0,
   "byteLength": 288,
   "byteOffset": 1569232,
   "target": 34962
  },
  {
   "buffer": 0,
   "byteLength": 192,
   "byteOffset": 1569520,
   "target": 34962
  },
  {
   "buffer": 0,
   "byteLength": 288,
   "byteOffset": 1569712,
   "target": 34962
  },
  {
   "buffer": 0,
   "byteLength": 288,
   "byteOffset": 1570000,
   "target": 34962
  },
  {
   "buffer": 0,
   "byteLength": 192,
   "byteOffset": 1570288,
   "target": 34962
  },
  {
   "buffer": 0,
   "byteLength": 288,
   "byteOffset": 1570480,
   "target": 34962
  },
  {
   "buffer": 0,
   "byteLength": 288,
   "byteOffset": 1570768,
   "target": 34962
  },
  {
   "buffer": 0,
   "byteLength": 192,
   "byteOffset": 1571056,
   "target": 34962
  },
  {
   "buffer": 0,
   "byteLength": 288,
   "byteOffset": 1571248,
   "target": 34962
  },
  {
   "buffer": 0,
   "byteLength": 288,
   "byteOffset": 1571536,
   "target": 34962
  },
  {
   "buffer": 0,
   "byteLength": 192,
   "byteOffset": 1571824,
   "target": 34962
  },
  {
   "buffer": 0,
   "byteLength": 288,
   "byteOffset": 1572016,
   "target": 34962
  },
  {
   "buffer": 0,
   "byteLength": 288,
   "byteOffset": 1572304,
   "target": 34962
  },
  {
   "buffer": 0,
   "byteLength": 192,
   "byteOffset": 1572592,
   "target": 34962
  },
  {
   "buffer": 0,
   "byteLength": 288,
   "byteOffset": 1572784,
   "target": 34962
  },
  {
   "buffer": 0,
   "byteLength": 288,
   "byteOffset": 1573072,
   "target": 34962
  },
  {
   "buffer": 0,
   "byteLength": 192,
   "byteOffset": 1573360,
   "target": 34962
  },
  {
   "buffer": 0,
   "byteLength": 288,
   "byteOffset": 1573552,
   "target": 34962
  },
  {
   "buffer": 0,
   "byteLength": 288,
   "byteOffset": 1573840,
   "target": 34962
  },
  {
   "buffer": 0,
   "byteLength": 192,
   "byteOffset": 1574128,
   "target": 34962
  },
  {
   "buffer": 0,
   "byteLength": 288,
   "byteOffset": 1574320,
   "target": 34962
  },
  {
   "buffer": 0,
   "byteLength": 288,
   "byteOffset": 1574608,
   "target": 34962
  },
  {
   "buffer": 0,
   "byteLength": 192,
   "byteOffset": 1574896,
   "target": 34962
  },
  {
   "buffer": 0,
   "byteLength": 288,
   "byteOffset": 1575088,
   "target": 34962
  },
  {
   "buffer": 0,
   "byteLength": 288,
   "byteOffset": 1575376,
   "target": 34962
  },
  {
   "buffer": 0,
   "byteLength": 192,
   "byteOffset": 1575664,
   "target": 34962
  },
  {
   "buffer": 0,
   "byteLength": 288,
   "byteOffset": 1575856,
   "target": 34962
  },
  {
   "buffer": 0,
   "byteLength": 288,
   "byteOffset": 1576144,
   "target": 34962
  },
  {
   "buffer": 0,
   "byteLength": 192,
   "byteOffset": 1576432,
   "target": 34962
  },
  {
   "buffer": 0,
   "byteLength": 288,
   "byteOffset": 1576624,
   "target": 34962
  },
  {
   "buffer": 0,
   "byteLength": 288,
   "byteOffset": 1576912,
   "target": 34962
  },
  {
   "buffer": 0,
   "byteLength": 192,
   "byteOffset": 1577200,
   "target": 34962
  },
  {
   "buffer": 0,
   "byteLength": 288,
   "byteOffset": 1577392,
   "target": 34962
  },
  {
   "buffer": 0,
   "byteLength": 288,
   "byteOffset": 1577680,
   "target": 34962
  },
  {
   "buffer": 0,
   "byteLength": 192,
   "byteOffset": 1577968,
   "target": 34962
  },
  {
   "buffer": 0,
   "byteLength": 288,
   "byteOffset": 1578160,
   "target": 34962
  },
  {
   "buffer": 0,
   "byteLength": 288,
   "byteOffset": 1578448,
   "target": 34962
  },
  {
   "buffer": 0,
   "byteLength": 192,
   "byteOffset": 1578736,
   "target": 34962
  },
  {
   "buffer": 0,
   "byteLength": 288,
   "byteOffset": 1578928,
   "target": 34962
  },
  {
   "buffer": 0,
   "byteLength": 288,
   "byteOffset": 1579216,
   "target": 34962
  },
  {
   "buffer": 0,
   "byteLength": 192,
   "byteOffset": 1579504,
   "target": 34962
  },
  {
   "buffer": 0,
   "byteLength": 288,
   "byteOffset": 1579696,
   "target": 34962
  },
  {
   "buffer": 0,
   "byteLength": 288,
   "byteOffset": 1579984,
   "target": 34962
  },
  {
   "buffer": 0,
   "byteLength": 192,
   "byteOffset": 1580272,
   "target": 34962
  },
  {
   "buffer": 0,
   "byteLength": 288,
   "byteOffset": 1580464,
   "target": 34962
  },
  {
   "buffer": 0,
   "byteLength": 288,
   "byteOffset": 1580752,
   "target": 34962
  },
  {
   "buffer": 0,
   "byteLength": 192,
   "byteOffset": 1581040,
   "target": 34962
  },
  {
   "buffer": 0,
   "byteLength": 288,
   "byteOffset": 1581232,
   "target": 34962
  },
  {
   "buffer": 0,
   "byteLength": 288,
   "byteOffset": 1581520,
   "target": 34962
  },
  {
   "buffer": 0,
   "byteLength": 192,
   "byteOffset": 1581808,
   "target": 34962
  },
  {
   "buffer": 0,
   "byteLength": 288,
   "byteOffset": 1582000,
   "target": 34962
  },
  {
   "buffer": 0,
   "byteLength": 288,
   "byteOffset": 1582288,
   "target": 34962
  },
  {
   "buffer": 0,
   "byteLength": 192,
   "byteOffset": 1582576,
   "target": 34962
  },
  {
   "buffer": 0,
   "byteLength": 288,
   "byteOffset": 1582768,
   "target": 34962
  },
  {
   "buffer": 0,
   "byteLength": 288,
   "byteOffset": 1583056,
   "target": 34962
  },
  {
   "buffer": 0,
   "byteLength": 192,
   "byteOffset": 1583344,
   "target": 34962
  },
  {
   "buffer": 0,
   "byteLength": 288,
   "byteOffset": 1583536,
   "target": 34962
  },
  {
   "buffer": 0,
   "byteLength": 288,
   "byteOffset": 1583824,
   "target": 34962
  },
  {
   "buffer": 0,
   "byteLength": 192,
   "byteOffset": 1584112,
   "target": 34962
  },
  {
   "buffer": 0,
   "byteLength": 288,
   "byteOffset": 1584304,
   "target": 34962
  },
  {
   "buffer": 0,
   "byteLength": 288,
   "byteOffset": 1584592,
   "target": 34962
  },
  {
   "buffer": 0,
   "byteLength": 192,
   "byteOffset": 1584880,
   "target": 34962
  },
  {
   "buffer": 0,
   "byteLength": 288,
   "byteOffset": 1585072,
   "target": 34962
  },
  {
   "buffer": 0,
   "byteLength": 288,
   "byteOffset": 1585360,
   "target": 34962
  },
  {
   "buffer": 0,
   "byteLength": 192,
   "byteOffset": 1585648,
   "target": 34962
  },
  {
   "buffer": 0,
   "byteLength": 288,
   "byteOffset": 1585840,
   "target": 34962
  },
  {
   "buffer": 0,
   "byteLength": 288,
   "byteOffset": 1586128,
   "target": 34962
  },
  {
   "buffer": 0,
   "byteLength": 192,
   "byteOffset": 1586416,
   "target": 34962
  },
  {
   "buffer": 0,
   "byteLength": 288,
   "byteOffset": 1586608,
   "target": 34962
  },
  {
   "buffer": 0,
   "byteLength": 288,
   "byteOffset": 1586896,
   "target": 34962
  },
  {
   "buffer": 0,
   "byteLength": 192,
   "byteOffset": 1587184,
   "target": 34962
  },
  {
   "buffer": 0,
   "byteLength": 288,
   "byteOffset": 1587376,
   "target": 34962
  },
  {
   "buffer": 0,
   "byteLength": 288,
   "byteOffset": 1587664,
   "target": 34962
  },
  {
   "buffer": 0,
   "byteLength": 192,
   "byteOffset": 1587952,
   "target": 34962
  }
 ],
 "samplers": [
  {
   "magFilter": 9729,
   "minFilter": 9987
  }
 ],
 "buffers": [
  {
   "byteLength": 1588144,
   "uri": "train_wagon_box.bin"
  }
 ]
}